<?xml version="1.0" encoding="UTF-8"?>
<svg version="1.1" xmlns="http://www.w3.org/2000/svg" width="900" height="900">
<path d="M0 0 C4.52696994 3.48056801 4.52696994 3.48056801 5.65673828 6.86987305 C6.97148578 7.57248335 8.3080555 8.23483213 9.65673828 8.86987305 C41.96395883 35.98665314 59.96122252 74.72728713 69.65673828 114.86987305 C70.06526157 116.52360065 70.47409676 118.17725125 70.88330078 119.83081055 C73.58101956 130.90658165 73.58101956 130.90658165 74.19970703 136.0690918 C74.53997166 138.89881391 74.96144851 141.49630569 75.65673828 144.24487305 C77.79292111 153.5289715 77.8133939 162.88373832 77.78173828 172.36987305 C77.78560547 173.52874023 77.78947266 174.68760742 77.79345703 175.8815918 C77.78791752 180.78406312 77.75204567 185.60054558 77.13720703 190.4675293 C76.57627421 195.3737024 76.6310718 200.21820161 76.69970703 205.1472168 C76.70993896 206.00397003 76.7201709 206.86072327 76.73071289 207.74343872 C76.77580981 211.31889203 76.82387511 214.89387969 76.90356445 218.46875 C77.27858975 236.2128506 74.88836558 252.12824969 67.90673828 268.55737305 C67.46918213 269.61553223 67.03162598 270.67369141 66.58081055 271.76391602 C53.35762119 303.32925906 34.69441694 335.51361345 2.65673828 350.86987305 C2.86427734 351.66522461 3.07181641 352.46057617 3.28564453 353.2800293 C5.60737826 362.3629625 7.77103006 371.48265943 9.86911011 380.61959839 C10.18260401 381.98063592 10.49857178 383.34110632 10.81716919 384.70095825 C13.78559694 397.39380797 14.8368166 409.29716037 14.84423828 422.30737305 C14.85648438 423.46430664 14.86873047 424.62124023 14.88134766 425.81323242 C14.88328125 426.92375977 14.88521484 428.03428711 14.88720703 429.1784668 C14.89131592 430.17676514 14.8954248 431.17506348 14.8996582 432.20361328 C14.64672995 434.97972325 14.27945586 436.60591239 12.65673828 438.86987305 C9.03173828 439.61987305 9.03173828 439.61987305 5.65673828 439.86987305 C5.34736328 441.14862305 5.03798828 442.42737305 4.71923828 443.74487305 C2.42652509 450.68883212 -2.85524972 456.55866753 -8.91357422 460.57299805 C-12.45126738 463.91731248 -13.39586867 467.74012081 -14.84326172 472.30737305 C-16.75255002 478.30473081 -18.2022999 482.8345812 -23.34326172 486.86987305 C-26.65576172 487.68237305 -26.65576172 487.68237305 -29.34326172 487.86987305 C-27.97308566 492.08103586 -27.97308566 492.08103586 -26.31201172 496.18237305 C-25.20795407 499.24524265 -24.93212914 501.93871709 -24.71826172 505.18237305 C-24.60611328 506.78532227 -24.60611328 506.78532227 -24.49169922 508.4206543 C-24.44271484 509.22889648 -24.39373047 510.03713867 -24.34326172 510.86987305 C-36.67224451 516.46434837 -49.04725144 517.34769481 -62.40405273 517.20605469 C-64.77541267 517.18242635 -67.14564123 517.18552887 -69.51708984 517.19213867 C-79.59488926 517.17218573 -89.37908557 516.36240633 -99.34326172 514.86987305 C-100.09793083 509.75431322 -100.4337013 505.02492898 -100.34326172 499.86987305 C-102.98326172 500.52987305 -105.62326172 501.18987305 -108.34326172 501.86987305 C-108.01326172 506.15987305 -107.68326172 510.44987305 -107.34326172 514.86987305 C-109.50893716 515.35350001 -111.67585913 515.83154622 -113.84326172 516.30737305 C-115.65310547 516.70762695 -115.65310547 516.70762695 -117.49951172 517.1159668 C-140.00987317 521.53110883 -165.31538943 520.16355084 -187.34326172 513.86987305 C-187.01326172 504.95987305 -186.68326172 496.04987305 -186.34326172 486.86987305 C-187.33326172 487.19987305 -188.32326172 487.52987305 -189.34326172 487.86987305 C-193.88725247 488.24233131 -196.41274691 488.28144691 -200.59326172 486.43237305 C-205.03203196 482.29624623 -207.01936424 477.41478179 -207.78076172 471.43237305 C-207.96638672 470.58674805 -208.15201172 469.74112305 -208.34326172 468.86987305 C-210.57585837 467.64214478 -210.57585837 467.64214478 -213.34326172 466.86987305 C-223.2030787 461.26770431 -231.05173097 452.55160366 -234.30810547 441.63549805 C-235.0498712 438.72312751 -235.73096379 435.81188991 -236.34326172 432.86987305 C-236.96974609 433.56016602 -236.96974609 433.56016602 -237.60888672 434.2644043 C-241.36412229 437.74053452 -246.19945676 438.71986584 -251.15576172 439.36987305 C-254.34326172 438.86987305 -254.34326172 438.86987305 -256.01904297 436.86987305 C-257.72700888 433.00049895 -257.79374533 429.52147181 -257.71826172 425.36987305 C-257.70593506 424.52948486 -257.6936084 423.68909668 -257.6809082 422.82324219 C-257.03566002 397.84358063 -249.92128807 373.08642263 -241.96020508 349.52416992 C-241.31758018 346.75938247 -241.2424445 345.4592874 -242.34326172 342.86987305 C-244.28246551 340.98624222 -246.18223724 339.30518596 -248.28076172 337.61987305 C-248.86905762 337.13534668 -249.45735352 336.65082031 -250.06347656 336.15161133 C-251.81507592 334.71373125 -253.57697754 333.28965638 -255.34326172 331.86987305 C-256.23400391 331.15057617 -257.12474609 330.4312793 -258.04248047 329.69018555 C-261.42735402 326.97574589 -264.82579902 324.27880162 -268.22998047 321.58862305 C-273.1839084 317.62018946 -277.40246919 313.82401222 -281.34326172 308.86987305 C-282.70451172 307.78706055 -282.70451172 307.78706055 -284.09326172 306.68237305 C-298.6680423 294.95510744 -309.11003346 275.23316646 -312.03076172 257.05737305 C-312.33191895 255.31327148 -312.33191895 255.31327148 -312.63916016 253.53393555 C-315.71365471 235.33451205 -318.48810869 216.88933524 -318.51123047 198.40112305 C-318.51455887 197.4407312 -318.51788727 196.48033936 -318.52131653 195.49084473 C-318.5263421 193.47070793 -318.52872622 191.45056296 -318.52856445 189.43041992 C-318.53073658 186.40488298 -318.5489003 183.37972009 -318.56787109 180.35424805 C-318.62568288 161.69869008 -316.80108445 144.09723592 -312.59326172 125.93237305 C-312.41585449 125.15272186 -312.23844727 124.37307068 -312.05566406 123.5697937 C-309.31147561 111.51520758 -306.40199728 99.55992898 -302.34326172 87.86987305 C-302.05515625 87.03568848 -301.76705078 86.20150391 -301.47021484 85.34204102 C-292.08370254 58.59643435 -278.6490524 33.79428947 -259.34326172 12.86987305 C-258.55951172 12.00491211 -257.77576172 11.13995117 -256.96826172 10.2487793 C-239.34301417 -8.33310176 -219.73058447 -16.65173398 -194.48779297 -18.9465332 C-193.38048828 -19.05868164 -192.27318359 -19.17083008 -191.13232422 -19.28637695 C-190.1392627 -19.37725586 -189.14620117 -19.46813477 -188.12304688 -19.56176758 C-183.694656 -20.46720355 -180.88982374 -22.6630376 -177.49560547 -25.5637207 C-174.22639573 -28.34729074 -170.74329768 -30.29371319 -166.90576172 -32.19262695 C-166.21562988 -32.53624268 -165.52549805 -32.8798584 -164.81445312 -33.23388672 C-112.92000362 -58.10710763 -42.65140053 -31.61167159 0 0 Z " fill="#1D1C1A" transform="translate(553.34326171875,232.130126953125)"/>
<path d="M0 0 C0.68626465 0.44303467 1.3725293 0.88606934 2.07958984 1.3425293 C8.76839448 5.72620947 15.10165941 10.52782677 21.3125 15.5625 C22.15312988 16.18777588 22.15312988 16.18777588 23.01074219 16.82568359 C24.6796875 18.10546875 24.6796875 18.10546875 27.3125 20.5625 C27.3125 21.8825 27.3125 23.2025 27.3125 24.5625 C28.158125 24.748125 29.00375 24.93375 29.875 25.125 C34.46878001 27.04603528 37.02034731 29.90536365 40.3125 33.5625 C41.07626953 34.39201172 41.07626953 34.39201172 41.85546875 35.23828125 C55.15528686 50.04869598 67.21555866 66.05395729 78.3125 82.5625 C78.85777344 83.34625 79.40304687 84.13 79.96484375 84.9375 C83.55712353 90.42596991 85.89546385 96.25866979 88.1875 102.375 C88.4983252 103.20016113 88.80915039 104.02532227 89.12939453 104.87548828 C92.02928498 112.9219868 92.02928498 112.9219868 91.3125 116.5625 C86.05280814 124.81729417 78.17376686 133.13186657 69.3125 137.5625 C68.6525 137.5625 67.9925 137.5625 67.3125 137.5625 C67.3125 138.2225 67.3125 138.8825 67.3125 139.5625 C66.55743164 139.86953857 65.80236328 140.17657715 65.02441406 140.49291992 C62.16145593 141.65739075 59.29868668 142.82232448 56.43603516 143.98754883 C54.61244505 144.72967443 52.7886473 145.47128972 50.96484375 146.21289062 C24.52670596 156.08026102 24.52670596 156.08026102 1.3125 171.5625 C0.48492187 172.22636719 -0.34265625 172.89023437 -1.1953125 173.57421875 C-10.34042582 181.1392131 -16.21169691 190.64104176 -20.6875 201.5625 C-21.1103125 202.50351562 -21.533125 203.44453125 -21.96875 204.4140625 C-27.01524215 215.89806708 -28.93136041 226.49419289 -29.625 238.9375 C-29.69493164 239.93346191 -29.76486328 240.92942383 -29.83691406 241.95556641 C-30.63421072 261.46498946 -24.56541265 280.67522082 -18.9375 299.125 C-18.0311714 302.11685114 -17.12888812 305.10972687 -16.23626709 308.10569763 C-15.68819733 309.94355098 -15.13224061 311.77907809 -14.56695557 313.61170959 C-13.23492611 318.06103616 -12.35630951 321.86026503 -12.6875 326.5625 C-20.30344529 329.10114843 -29.02570986 327.26650203 -36.6875 325.5625 C-37.0175 325.2325 -37.3475 324.9025 -37.6875 324.5625 C-40.98829021 323.93700779 -44.29136735 323.36890229 -47.609375 322.84375 C-51.84367722 322.11208748 -55.2509644 321.32085779 -58.6875 318.5625 C-59.54296875 316.65234375 -59.54296875 316.65234375 -59.875 314.5 C-60.38097091 311.32271674 -60.95597641 308.1735135 -61.609375 305.0234375 C-65.11015256 287.62558519 -67.31078987 270.30554723 -67.6875 252.5625 C-70.46268356 270.35340887 -71.40252537 289.14975823 -68.125 306.92578125 C-67.69392235 309.52379387 -67.61091209 311.93457717 -67.6875 314.5625 C-71.95170383 314.26499741 -74.47508787 313.46349486 -77.44067383 310.32250977 C-80.12847594 306.52842999 -81.30544607 302.01966003 -82.6875 297.625 C-83.02998779 296.56321533 -83.37247559 295.50143066 -83.7253418 294.4074707 C-88.54973782 279.09100774 -91.72012308 263.55208277 -94.0625 247.68359375 C-94.76512024 242.93765425 -95.6875526 238.25456088 -96.6875 233.5625 C-100.60126865 241.65095521 -99.88076172 251.40599327 -99.875 260.1875 C-99.87491943 261.33452393 -99.87483887 262.48154785 -99.87475586 263.66333008 C-99.81791968 272.13670644 -99.15274448 280.20953695 -97.6875 288.5625 C-97.34827219 290.89498366 -97.01343212 293.22812132 -96.6875 295.5625 C-114.18754538 281.86681231 -124.37806579 262.82234013 -127.25 241.0625 C-127.37568359 240.17046875 -127.50136719 239.2784375 -127.63085938 238.359375 C-129.89185017 221.59726526 -129.92915629 204.82092733 -129.9375 187.9375 C-129.93817474 186.71117859 -129.93884949 185.48485718 -129.93954468 184.22137451 C-129.90197019 141.23685783 -124.71435522 98.01597006 -104.62792969 59.40966797 C-103.78913463 57.76212814 -103.00394155 56.08754901 -102.2265625 54.41015625 C-96.30247042 41.65452447 -87.35755951 30.6827485 -77.6875 20.5625 C-76.75744141 19.53769531 -76.75744141 19.53769531 -75.80859375 18.4921875 C-70.64022502 12.98933144 -64.74293831 8.65810045 -58.37890625 4.63964844 C-56.79296043 3.629661 -55.2387793 2.57027723 -53.6875 1.5078125 C-39.31910275 -7.14914685 -14.31062735 -9.52909748 0 0 Z " fill="#A39B96" transform="translate(383.6875,235.4375)"/>
<path d="M0 0 C3.91676687 0.66225527 6.76579547 2.5681821 10.125 4.625 C24.85331437 13.29481716 41.10584364 17.65865716 57.52734375 21.9140625 C74.15570493 26.54984804 92.66953823 38.08817439 102 53 C102.328125 55.33203125 102.328125 55.33203125 102.25 57.8125 C102.22421875 58.68261719 102.1984375 59.55273438 102.171875 60.44921875 C101.95412964 63.68075788 101.55488706 66.80939942 101 70 C96.32833787 68.18324251 96.32833787 68.18324251 94.1171875 66.94921875 C88.08802984 64.24610932 80.54578015 65.87872073 74.5078125 67.89453125 C61.50558542 73.62604256 51.10790193 85.07782411 43.125 96.5 C38.97990733 102.28703229 34.11689274 108.43165991 27.29296875 111.03125 C26.53628906 111.3509375 25.77960938 111.670625 25 112 C23.83551119 114.90351124 23.83551119 114.90351124 24 118 C24.47050781 118.43957031 24.94101562 118.87914062 25.42578125 119.33203125 C27.60984655 121.64616496 27.67140932 123.6301736 28.1875 126.75 C30.65975466 138.27431208 36.47380471 149.75307843 46 157 C52.42562757 161.11240164 59.56316057 160.7295896 67 160 C77.27161854 157.63287803 84.00706041 150.92446639 89.87109375 142.50390625 C90.24363281 142.00761719 90.61617187 141.51132812 91 141 C91.33 141 91.66 141 92 141 C92.92705699 154.21056215 88.68076778 166.89746699 80.29296875 177.0703125 C60.7101148 198.09611359 26.41804542 211.02187449 -1.81689453 212.10839844 C-24.11244314 212.56121298 -46.63862853 211.62580253 -68.54907227 207.22436523 C-72.86740568 206.36707477 -77.1604764 205.71798797 -81.52758789 205.16796875 C-98.10362516 202.56058243 -98.10362516 202.56058243 -102.99920654 196.54232788 C-107.01129519 189.08405511 -108.65204792 180.89884667 -110.4375 172.6875 C-111.05428203 170.26756714 -111.68117386 167.85018758 -112.31835938 165.43554688 C-120.72137578 132.84192333 -120.72137578 132.84192333 -120.3125 117.6875 C-120.3012207 116.94806152 -120.28994141 116.20862305 -120.27832031 115.44677734 C-120.00497699 104.37157717 -117.85278706 94.38008163 -114 84 C-110 84 -110 84 -108.25 85.0625 C-106.34392167 88.01692141 -106.7507194 90.57239179 -107 94 C-107.495 94.99 -107.495 94.99 -108 96 C-109.72847127 114.71755574 -106.74968294 131.309297 -95.109375 146.4609375 C-86.94927664 155.58654369 -73.61839342 162.20499472 -61.3918457 163.21557617 C-45.15428474 164.01305389 -45.15428474 164.01305389 -30 159 C-29.15824219 158.57589844 -28.31648438 158.15179687 -27.44921875 157.71484375 C-15.59235835 151.25564362 -8.02909338 141.44988874 -2.9375 129.125 C-1.62040438 125.9517443 -1.05304604 125.04219571 1.75 122.8125 C4.26409016 121.15528971 4.26409016 121.15528971 4.75 118.125 C3.23407997 111.80866653 -2.83090699 109.08215696 -8.04370117 105.88061523 C-15.27375096 101.41689565 -20.66187203 96.70533212 -26 90 C-40.73809099 71.75161063 -57.177542 56.23310185 -80 49 C-76.449155 45.94557153 -72.42590558 44.41004151 -68.11328125 42.7421875 C-66.51750591 42.10955713 -64.92180539 41.476738 -63.32617188 40.84375 C-60.84240845 39.86662695 -58.35751906 38.89255568 -55.87084961 37.92285156 C-46.91916688 34.42202195 -38.15889186 30.76525453 -29.65234375 26.2734375 C-28.96433182 25.9103952 -28.27631989 25.54735291 -27.56745911 25.17330933 C-21.85088445 22.0728108 -16.8112553 18.38358816 -12 14 C-10.6696875 12.7934375 -10.6696875 12.7934375 -9.3125 11.5625 C-5.98746593 7.87800279 -2.99169397 3.95731277 0 0 Z " fill="#D0B9B1" transform="translate(489,360)"/>
<path d="M0 0 C1.14671928 0.00068733 1.14671928 0.00068733 2.31660461 0.00138855 C3.92942869 0.00439765 5.5422502 0.01224353 7.1550293 0.0246582 C9.58848719 0.04278407 12.02156006 0.04516836 14.45507812 0.04492188 C25.73196688 0.0691922 36.67444941 0.40157669 47.67578125 3.10546875 C48.37832031 3.26660156 49.08085937 3.42773438 49.8046875 3.59375 C53.22070904 4.4113136 56.4121896 5.36632339 59.62890625 6.78515625 C62.44933099 8.02159838 64.94070564 8.81074025 67.92578125 9.48046875 C74.65515195 11.25232215 80.73258251 14.19739084 86.94335938 17.26123047 C88.91165573 18.22356255 90.89279802 19.15320244 92.87890625 20.078125 C107.25148656 26.87448878 119.88088428 35.89783655 131.92578125 46.23046875 C132.6528125 46.83503906 133.37984375 47.43960938 134.12890625 48.0625 C138.88816982 52.08607588 142.98047381 56.41189168 146.92578125 61.23046875 C147.33731445 61.7296582 147.74884766 62.22884766 148.17285156 62.74316406 C169.92578125 89.26385916 169.92578125 89.26385916 169.92578125 99.23046875 C170.58578125 99.23046875 171.24578125 99.23046875 171.92578125 99.23046875 C175.25729555 106.43964724 177.66498002 113.54608352 179.4777832 121.24755859 C180.44556398 125.35056101 181.55249793 129.3444718 182.86328125 133.35546875 C185.02915361 140.17711399 186.5629191 147.11501083 188.08764648 154.10205078 C188.28302002 154.99263184 188.47839355 155.88321289 188.6796875 156.80078125 C188.87602783 157.7043335 189.07236816 158.60788574 189.2746582 159.53881836 C189.88656996 162.21827108 189.88656996 162.21827108 190.73901367 164.73657227 C193.542392 173.43788139 193.26372523 181.88281455 193.11328125 190.91796875 C193.09819876 192.5058466 193.0845167 194.0937384 193.07226562 195.68164062 C193.03956124 199.53160096 192.98797948 203.38087659 192.92578125 207.23046875 C189.7514148 205.87184841 188.09019797 204.5082894 186.0859375 201.7109375 C185.57998047 201.01806641 185.07402344 200.32519531 184.55273438 199.61132812 C184.03646484 198.88751953 183.52019531 198.16371094 182.98828125 197.41796875 C177.7097106 190.08108753 172.12859372 184.20958908 164.98828125 178.66796875 C164.09592773 177.96510742 164.09592773 177.96510742 163.18554688 177.24804688 C151.20188789 167.8837669 138.66433694 162.2470922 123.93847656 158.71630859 C105.31744456 154.22142096 84.25384013 148.86703714 72.2421875 132.67578125 C70.99969561 131.0887862 70.99969561 131.0887862 68.98828125 130.515625 C65.68077202 128.45469595 64.76122413 125.02683089 63.36328125 121.54296875 C63.07259766 120.84751953 62.78191406 120.15207031 62.48242188 119.43554688 C61.1361847 116.20999876 59.82673341 112.9760573 58.55859375 109.71875 C56.57633195 105.48391798 54.09985841 101.88186718 51.36328125 98.10546875 C50.56482788 96.99014771 50.56482788 96.99014771 49.75024414 95.85229492 C45.35526317 89.74651599 40.82999322 83.7536751 36.18212891 77.83837891 C34.86990711 76.1589594 33.57470258 74.46734564 32.28125 72.7734375 C26.73188075 65.54818467 20.8837784 58.75165681 14.6328125 52.125 C12.46885929 49.81116259 10.39919584 47.46760212 8.36328125 45.04296875 C-2.93945387 32.08683593 -17.47685887 22.12241562 -32.07421875 13.23046875 C-29.28374179 9.89652812 -25.54501219 8.14969388 -21.76171875 6.16796875 C-20.78428711 5.64106445 -20.78428711 5.64106445 -19.78710938 5.10351562 C-13.18979302 1.6100418 -7.54173953 -0.07505919 0 0 Z " fill="#CCC2BC" transform="translate(420.07421875,207.76953125)"/>
<path d="M0 0 C9.49394968 4.69215989 18.43369092 13.34356214 24.5 21.9375 C24.5 22.5975 24.5 23.2575 24.5 23.9375 C25.985 24.4325 25.985 24.4325 27.5 24.9375 C28.70314878 26.43330659 29.90519835 27.93006864 31.09375 29.4375 C33.20324718 31.68763033 35.68890523 32.76076265 38.5 33.9375 C38.5 32.6175 38.5 31.2975 38.5 29.9375 C40.15 30.2675 41.8 30.5975 43.5 30.9375 C44.92280756 34.76129531 45.98490027 37.85827649 45.5 41.9375 C40.24030814 50.19229417 32.36126686 58.50686657 23.5 62.9375 C22.84 62.9375 22.18 62.9375 21.5 62.9375 C21.5 63.5975 21.5 64.2575 21.5 64.9375 C20.74493164 65.24453857 19.98986328 65.55157715 19.21191406 65.86791992 C16.34895593 67.03239075 13.48618668 68.19732448 10.62353516 69.36254883 C8.79994505 70.10467443 6.9761473 70.84628972 5.15234375 71.58789062 C-21.28579404 81.45526102 -21.28579404 81.45526102 -44.5 96.9375 C-45.74136719 97.93330078 -45.74136719 97.93330078 -47.0078125 98.94921875 C-56.15292582 106.5142131 -62.02419691 116.01604176 -66.5 126.9375 C-66.9228125 127.87851562 -67.345625 128.81953125 -67.78125 129.7890625 C-81.74930046 161.57533117 -74.09568883 193.8501343 -64.29785156 225.54003906 C-61.68007102 234.10247467 -59.81224372 241.91147815 -59.5 250.9375 C-62.8 250.9375 -66.1 250.9375 -69.5 250.9375 C-73.9921875 237.4609375 -73.9921875 237.4609375 -74.77954102 235.09521484 C-75.37505716 233.31169344 -75.97761308 231.53052429 -76.58203125 229.75 C-89.52380567 190.09860605 -89.72108243 146.67830517 -82.5 105.9375 C-82.31276367 104.81649902 -82.12552734 103.69549805 -81.93261719 102.54052734 C-79.26655709 86.63856091 -75.36554558 71.30238079 -70.5 55.9375 C-70.25717285 55.16212891 -70.0143457 54.38675781 -69.76416016 53.58789062 C-67.42689605 46.16619874 -64.80380575 38.98663393 -61.5 31.9375 C-60.82165413 30.27555262 -60.14800425 28.61151097 -59.5 26.9375 C-58.83613281 26.99550781 -58.17226563 27.05351562 -57.48828125 27.11328125 C-56.16376953 27.18095703 -56.16376953 27.18095703 -54.8125 27.25 C-53.94238281 27.30800781 -53.07226562 27.36601562 -52.17578125 27.42578125 C-48.37064321 26.73141299 -47.0471392 24.7866401 -44.5 21.9375 C-34.06357316 11.80893236 -34.06357316 11.80893236 -29.625 10.125 C-26.37069348 9.13263029 -26.37069348 9.13263029 -24.125 6.5625 C-16.99776873 -0.56473127 -9.66757586 -2.93479981 0 0 Z " fill="#CDC3BD" transform="translate(429.5,310.0625)"/>
<path d="M0 0 C1.14671928 0.00068733 1.14671928 0.00068733 2.31660461 0.00138855 C3.92942869 0.00439765 5.5422502 0.01224353 7.1550293 0.0246582 C9.58848719 0.04278407 12.02156006 0.04516836 14.45507812 0.04492188 C25.73196688 0.0691922 36.67444941 0.40157669 47.67578125 3.10546875 C48.37832031 3.26660156 49.08085937 3.42773438 49.8046875 3.59375 C53.22070904 4.4113136 56.4121896 5.36632339 59.62890625 6.78515625 C62.44933099 8.02159838 64.94070564 8.81074025 67.92578125 9.48046875 C74.65515195 11.25232215 80.73258251 14.19739084 86.94335938 17.26123047 C88.91165573 18.22356255 90.89279802 19.15320244 92.87890625 20.078125 C107.25148656 26.87448878 119.88088428 35.89783655 131.92578125 46.23046875 C132.6528125 46.83503906 133.37984375 47.43960938 134.12890625 48.0625 C138.88816982 52.08607588 142.98047381 56.41189168 146.92578125 61.23046875 C147.33731445 61.7296582 147.74884766 62.22884766 148.17285156 62.74316406 C169.92578125 89.26385916 169.92578125 89.26385916 169.92578125 99.23046875 C170.58578125 99.23046875 171.24578125 99.23046875 171.92578125 99.23046875 C175.25729555 106.43964724 177.66498002 113.54608352 179.4777832 121.24755859 C180.44556398 125.35056101 181.55249793 129.3444718 182.86328125 133.35546875 C185.04829335 140.23739662 186.587845 147.23869891 188.12939453 154.28662109 C189.15052461 158.93400045 190.25322271 163.45524319 191.73828125 167.98046875 C194.86975167 178.96715311 193.15275545 192.05623942 191.92578125 203.23046875 C188.11383441 198.2597767 185.28268473 193.15171233 182.85400391 187.39672852 C181.74525079 184.80915188 180.59216265 182.24320004 179.4375 179.67578125 C174.97162282 169.70312001 170.56589444 159.78963897 167.06762695 149.43237305 C165.15078575 143.77309466 163.01531102 138.21728386 160.80078125 132.66796875 C160.4756958 131.84643311 160.15061035 131.02489746 159.81567383 130.1784668 C158.25106557 126.28504676 156.59657875 122.50158208 154.68359375 118.765625 C152.92578125 115.23046875 152.92578125 115.23046875 152.92578125 113.23046875 C152.23871094 113.38773437 151.55164063 113.545 150.84375 113.70703125 C142.15910458 115.26491945 133.83565113 115.30987675 126.1015625 110.765625 C118.88338125 105.67272512 114.45003934 99.33755329 110.92578125 91.23046875 C110.92578125 90.24046875 110.92578125 89.25046875 110.92578125 88.23046875 C110.26578125 88.23046875 109.60578125 88.23046875 108.92578125 88.23046875 C107.78439019 84.58888776 107.79261086 81.15470122 107.80078125 77.35546875 C107.79820312 76.16179687 107.795625 74.968125 107.79296875 73.73828125 C107.91644729 70.47699524 108.30914868 67.43108541 108.92578125 64.23046875 C98.50645491 56.32772472 88.10258325 48.71190961 76.71972656 42.25390625 C74.85775986 41.19166286 73.01225111 40.10434383 71.16796875 39.01171875 C63.35197047 34.39231176 63.35197047 34.39231176 54.9453125 31.01953125 C52.92578125 30.23046875 52.92578125 30.23046875 50.375 28.69140625 C39.6358575 22.32639351 29.78715899 24.12962912 17.92578125 26.23046875 C17.92578125 26.89046875 17.92578125 27.55046875 17.92578125 28.23046875 C19.90578125 28.23046875 21.88578125 28.23046875 23.92578125 28.23046875 C23.92578125 28.89046875 23.92578125 29.55046875 23.92578125 30.23046875 C21.82189556 30.28449149 19.71761411 30.32327131 17.61328125 30.35546875 C15.85564453 30.39027344 15.85564453 30.39027344 14.0625 30.42578125 C10.92578125 30.23046875 10.92578125 30.23046875 7.92578125 28.23046875 C7.4140625 26.06640625 7.4140625 26.06640625 7.23828125 23.60546875 C7.17253906 22.78820312 7.10679687 21.9709375 7.0390625 21.12890625 C6.98298828 20.18917969 6.98298828 20.18917969 6.92578125 19.23046875 C6.07113281 18.95332031 5.21648437 18.67617187 4.3359375 18.390625 C3.23121094 18.02839844 2.12648438 17.66617188 0.98828125 17.29296875 C-0.11386719 16.93332031 -1.21601563 16.57367188 -2.3515625 16.203125 C-5.07421875 15.23046875 -5.07421875 15.23046875 -6.07421875 14.23046875 C-7.85291601 14.0728247 -9.63740351 13.97946198 -11.421875 13.9140625 C-12.50146484 13.87216797 -13.58105469 13.83027344 -14.69335938 13.78710938 C-16.39782227 13.72813477 -16.39782227 13.72813477 -18.13671875 13.66796875 C-19.27689453 13.62478516 -20.41707031 13.58160156 -21.59179688 13.53710938 C-24.4191407 13.43064036 -27.24657613 13.32862668 -30.07421875 13.23046875 C-28.6615588 8.99248891 -25.65162144 8.09145932 -21.88671875 6.16796875 C-21.22607422 5.81669922 -20.56542969 5.46542969 -19.88476562 5.10351562 C-13.24975233 1.63863701 -7.56153925 -0.07525625 0 0 Z " fill="#E4DFDC" transform="translate(420.07421875,207.76953125)"/>
<path d="M0 0 C3.91676687 0.66225527 6.76579547 2.5681821 10.125 4.625 C24.85331437 13.29481716 41.10584364 17.65865716 57.52734375 21.9140625 C74.15570493 26.54984804 92.66953823 38.08817439 102 53 C102.328125 55.33203125 102.328125 55.33203125 102.25 57.8125 C102.22421875 58.68261719 102.1984375 59.55273438 102.171875 60.44921875 C101.95412964 63.68075788 101.55488706 66.80939942 101 70 C96.32833787 68.18324251 96.32833787 68.18324251 94.1171875 66.94921875 C88.08802984 64.24610932 80.54578015 65.87872073 74.5078125 67.89453125 C65.93991765 71.67134471 58.56891921 78.43108079 52 85 C51.77699219 84.41992188 51.55398438 83.83984375 51.32421875 83.2421875 C49.60750717 80.33542512 47.58865001 79.03192787 44.8125 77.125 C32.69325504 68.53593823 24.31050893 58.31879298 16 46 C16.4111253 55.84645092 19.35911756 63.02495931 25 71 C25.33 71.66 25.66 72.32 26 73 C22.105071 71.84204813 18.48770459 70.33623423 14.8125 68.625 C2.84905323 62.96829046 2.84905323 62.96829046 -10.0546875 60.8671875 C-11.2142395 60.86392456 -11.2142395 60.86392456 -12.3972168 60.8605957 C-13.21488525 60.86534912 -14.03255371 60.87010254 -14.875 60.875 C-15.71909424 60.87910889 -16.56318848 60.88321777 -17.43286133 60.88745117 C-32.56974414 60.91437085 -32.56974414 60.91437085 -47 65 C-51.1791042 65 -53.48011128 62.72190596 -56.75 60.375 C-64.09055561 55.26371773 -71.58490262 51.93633185 -80 49 C-76.449155 45.94557153 -72.42590558 44.41004151 -68.11328125 42.7421875 C-66.51750591 42.10955713 -64.92180539 41.476738 -63.32617188 40.84375 C-60.84240845 39.86662695 -58.35751906 38.89255568 -55.87084961 37.92285156 C-46.91916688 34.42202195 -38.15889186 30.76525453 -29.65234375 26.2734375 C-28.96433182 25.9103952 -28.27631989 25.54735291 -27.56745911 25.17330933 C-21.85088445 22.0728108 -16.8112553 18.38358816 -12 14 C-10.6696875 12.7934375 -10.6696875 12.7934375 -9.3125 11.5625 C-5.98746593 7.87800279 -2.99169397 3.95731277 0 0 Z " fill="#B29E97" transform="translate(489,360)"/>
<path d="M0 0 C1.4375 1.625 1.4375 1.625 1.4375 3.625 C2.32695313 4.01171875 2.32695313 4.01171875 3.234375 4.40625 C7.53041674 6.78278373 9.66557153 10.10056129 11.4375 14.625 C13.13986429 25.38552588 11.80766782 37.32227713 7.24951172 47.19921875 C5.4375 49.625 5.4375 49.625 2.75561523 50.52807617 C1.67997314 50.65674072 0.60433105 50.78540527 -0.50390625 50.91796875 C-1.71320801 51.07233398 -2.92250977 51.22669922 -4.16845703 51.38574219 C-5.47411621 51.52657227 -6.77977539 51.66740234 -8.125 51.8125 C-9.49345948 51.97315789 -10.86178546 52.13495677 -12.22998047 52.29785156 C-16.33737938 52.77657823 -20.44884111 53.20346256 -24.5625 53.625 C-25.6777002 53.74504395 -26.79290039 53.86508789 -27.94189453 53.98876953 C-57.40661372 57.07844394 -87.0944762 56.10374205 -116.5625 53.625 C-116.5625 52.965 -116.5625 52.305 -116.5625 51.625 C-117.366875 51.645625 -118.17125 51.66625 -119 51.6875 C-121.5625 51.625 -121.5625 51.625 -122.5625 50.625 C-122.68851286 47.54589475 -122.751196 44.49045607 -122.765625 41.41015625 C-122.77132507 40.48408066 -122.77702515 39.55800507 -122.78289795 38.60386658 C-122.79236251 36.64095203 -122.79888769 34.67802149 -122.80273438 32.71508789 C-122.81244788 29.70365877 -122.84346065 26.6929096 -122.875 23.68164062 C-122.88152885 21.77864991 -122.88677979 19.87565428 -122.890625 17.97265625 C-122.9029718 17.06741714 -122.9153186 16.16217804 -122.92803955 15.22950745 C-122.92503845 14.39201462 -122.92203735 13.55452179 -122.91894531 12.69165039 C-122.92259094 11.95298233 -122.92623657 11.21431427 -122.92999268 10.45326233 C-122.5625 8.625 -122.5625 8.625 -119.5625 6.625 C-116.89069921 6.07509273 -114.25479267 5.60304761 -111.5625 5.1875 C-105.5747404 4.20486079 -99.77771661 3.02246412 -93.95703125 1.2734375 C-75.11262465 -3.82961551 -55.81958682 0.5055152 -38.5625 8.625 C-37.510625 9.05425781 -36.45875 9.48351562 -35.375 9.92578125 C-30.92626759 12.61355708 -30.54539259 15.90977461 -29.25390625 20.74609375 C-27.39855568 31.15492492 -27.48396478 41.7442629 -31.5625 51.625 C-26.64780457 43.82668225 -23.88399408 37.402544 -23.9375 28.125 C-23.93943359 27.37234863 -23.94136719 26.61969727 -23.94335938 25.84423828 C-24.11805669 21.07095374 -25.18361997 17.84846615 -27.5625 13.625 C-27.5625 12.965 -27.5625 12.305 -27.5625 11.625 C-28.2225 11.625 -28.8825 11.625 -29.5625 11.625 C-29.5625 10.635 -29.5625 9.645 -29.5625 8.625 C-22.13521572 1.92826827 -9.98805406 -5.35944364 0 0 Z " fill="#A39C98" transform="translate(519.5625,590.375)"/>
<path d="M0 0 C7.2849774 1.47988023 14.24971432 3.56785046 21.3125 5.875 C22.50004883 6.25994629 23.68759766 6.64489258 24.91113281 7.04150391 C35.37267851 10.43937972 45.81249329 13.90412233 56.25 17.375 C57.41712021 17.76265533 57.41712021 17.76265533 58.6078186 18.15814209 C60.84852821 18.90309928 63.08845664 19.65035639 65.328125 20.3984375 C65.98546127 20.61689331 66.64279755 20.83534912 67.3200531 21.0604248 C71.92317709 22.60233262 76.46275408 24.27634999 81 26 C79.83846093 34.07341354 74.33238907 40.1804183 68.3125 45.375 C58.19426239 52.89140508 47.23033864 54.17969802 35 53 C22.79632636 50.63885445 13.30536543 45.10195064 6 35 C0.93912331 26.72862965 -0.30385461 19.11746335 -0.125 9.5625 C-0.11597656 8.64017578 -0.10695313 7.71785156 -0.09765625 6.76757812 C-0.0742766 4.51144191 -0.04150916 2.25586316 0 0 Z " fill="#D7CBC7" transform="translate(393,459)"/>
<path d="M0 0 C2.46800047 1.15173355 4.04783565 2.04783565 6 4 C6.33870968 10.32258065 6.33870968 10.32258065 5 13 C3.34787539 30.89080043 6.14136832 45.81097953 16 61 C17 63 17 63 17.25 66.3125 C19.26315423 83.14978993 30.75608103 98.53421136 43.54296875 109.1015625 C53.58299897 116.34826158 63.68703312 120.91025804 75.6875 123.875 C77.47317383 124.33519531 77.47317383 124.33519531 79.29492188 124.8046875 C82.19352372 125.54970966 85.09481638 126.28115863 88 127 C88 127.33 88 127.66 88 128 C65.75215981 129.0921667 43.37883597 124.80129217 22 119 C21.19799667 118.88173355 20.39599335 118.7634671 19.56968689 118.64161682 C16.70245587 118.082041 14.53882222 117.45793451 12 116 C9.65294189 112.43627321 8.69766812 108.63005954 7.62890625 104.52734375 C7.29503403 103.37569229 6.9611618 102.22404083 6.61717224 101.03749084 C5.55929437 97.34742443 4.56170256 93.64383035 3.5625 89.9375 C2.86626266 87.50091225 2.16642767 85.06534945 1.46289062 82.63085938 C-7.7347718 50.33842842 -7.7347718 50.33842842 -7.3125 34.6875 C-7.3012207 33.94806152 -7.28994141 33.20862305 -7.27832031 32.44677734 C-6.64142706 6.64142706 -6.64142706 6.64142706 0 0 Z " fill="#B09D96" transform="translate(376,443)"/>
<path d="M0 0 C1.4375 1.625 1.4375 1.625 1.4375 3.625 C2.03046875 3.8828125 2.6234375 4.140625 3.234375 4.40625 C7.53041674 6.78278373 9.66557153 10.10056129 11.4375 14.625 C12.9872834 24.42107272 11.97400325 35.38352032 8.4375 44.625 C8.13199219 45.51960937 7.82648437 46.41421875 7.51171875 47.3359375 C4.0450332 51.16169594 -0.48324582 50.94704567 -5.4375 51.4375 C-6.47076416 51.55585205 -7.50402832 51.6742041 -8.56860352 51.79614258 C-15.92087681 52.59078047 -23.16799874 53.00820832 -30.5625 52.625 C-29.90960938 49.33803344 -28.62331518 46.91364264 -27 44 C-24.52852215 38.6916954 -24.07244813 34.07188245 -24.0625 28.3125 C-24.05661865 27.5479248 -24.0507373 26.78334961 -24.04467773 25.99560547 C-24.15152296 21.13175542 -25.11538103 17.92698309 -27.5625 13.625 C-27.5625 12.965 -27.5625 12.305 -27.5625 11.625 C-28.2225 11.625 -28.8825 11.625 -29.5625 11.625 C-29.5625 10.635 -29.5625 9.645 -29.5625 8.625 C-22.13521572 1.92826827 -9.98805406 -5.35944364 0 0 Z " fill="#A39C98" transform="translate(519.5625,590.375)"/>
<path d="M0 0 C6.4201031 1.53169972 12.74741832 3.12335223 18.96484375 5.3515625 C23.4241738 6.77238551 27.72988985 7.16165511 32.39453125 7.31640625 C33.59658203 7.35830078 34.79863281 7.40019531 36.03710938 7.44335938 C37.90592773 7.50233398 37.90592773 7.50233398 39.8125 7.5625 C41.07771484 7.60568359 42.34292969 7.64886719 43.64648438 7.69335938 C46.76421889 7.7992447 49.88203035 7.90132405 53 8 C53 10.31 53 12.62 53 15 C50.69 14.67 48.38 14.34 46 14 C46.433125 14.721875 46.86625 15.44375 47.3125 16.1875 C47.869375 17.115625 48.42625 18.04375 49 19 C49.556875 19.804375 50.11375 20.60875 50.6875 21.4375 C52.25031615 24.48871248 52.23598848 26.61749848 52 30 C48.72397805 29.31749543 45.98505792 28.12662975 43 26.625 C41.7315625 25.99464844 41.7315625 25.99464844 40.4375 25.3515625 C38.11584723 24.06423581 36.07862049 22.64557456 34 21 C39.15941102 27.77358165 39.15941102 27.77358165 45.0625 33.875 C46.0215625 34.926875 46.0215625 34.926875 47 36 C46.8125 38.3125 46.8125 38.3125 46 40 C43.88671875 40.828125 43.88671875 40.828125 41 41 C38.67186527 39.3144185 36.82396026 37.7540012 34.8125 35.75 C34.27947266 35.24597656 33.74644531 34.74195313 33.19726562 34.22265625 C30.80869481 31.93323366 28.8408828 29.7613242 27 27 C27.19335938 27.58007812 27.38671875 28.16015625 27.5859375 28.7578125 C29.05729167 33.171875 30.52864583 37.5859375 32 42 C18.28217267 39.27079875 8.46375973 34.39422278 0 23 C-3.2171262 18.04583122 -3.79066461 12.76779696 -3 7 C-2.19795378 4.48784374 -1.20566611 2.36109613 0 0 Z " fill="#B09C95" transform="translate(334,653)"/>
<path d="M0 0 C6.07002938 3.23586125 9.5029906 7.19130575 11.56030273 13.79980469 C12.11916558 16.59629105 12.11163582 19.22629318 12.09765625 22.078125 C12.09443359 23.23828125 12.09121094 24.3984375 12.08789062 25.59375 C12.07532227 27.40359375 12.07532227 27.40359375 12.0625 29.25 C12.05798828 30.47203125 12.05347656 31.6940625 12.04882812 32.953125 C12.03704815 35.96879946 12.02059853 38.98437498 12 42 C9.29139335 42.05429278 6.58389099 42.09381211 3.875 42.125 C3.11445313 42.14175781 2.35390625 42.15851562 1.5703125 42.17578125 C-3.07459954 42.2158236 -6.61928297 41.70489647 -11 40 C-12.33553475 39.57252066 -13.67435435 39.15522052 -15.015625 38.74609375 C-15.70914062 38.53146484 -16.40265625 38.31683594 -17.1171875 38.09570312 C-18.55442971 37.6521586 -19.99193564 37.20946781 -21.4296875 36.76757812 C-26.78325123 35.10837438 -26.78325123 35.10837438 -29 34 C-28.42692413 29.04862447 -26.83130248 24.94940138 -24.6875 20.5 C-24.39166016 19.86191406 -24.09582031 19.22382812 -23.79101562 18.56640625 C-20.15118466 10.87795121 -16.12653099 5.47281132 -9.0625 0.6875 C-5.74758533 -0.41747156 -3.48871652 -0.4651622 0 0 Z " fill="#9F9894" transform="translate(373,586)"/>
<path d="M0 0 C-1.2527036 14.21170632 -4.97805396 27.22750534 -16 37 C-20.28057878 40.07084999 -24.29299802 40.64804826 -29.46875 40.4765625 C-34.56568985 39.51695345 -38.1994058 36.4291035 -41.2421875 32.32421875 C-42.2721879 30.58759018 -43.13901654 28.82574617 -44 27 C-44.37125 26.33613281 -44.7425 25.67226563 -45.125 24.98828125 C-45.681875 23.97314453 -45.681875 23.97314453 -46.25 22.9375 C-46.75273438 22.02291016 -46.75273438 22.02291016 -47.265625 21.08984375 C-48.23198857 18.33981977 -48.11482504 15.89113055 -48 13 C-42.47775319 11.31506841 -36.95453503 9.63341722 -31.4296875 7.95703125 C-27.34736234 6.7176005 -23.26945263 5.46527781 -19.1953125 4.19921875 C-17.42189627 3.65357669 -15.64845978 3.1080005 -13.875 2.5625 C-13.05354492 2.30388184 -12.23208984 2.04526367 -11.38574219 1.77880859 C-7.48609148 0.58702175 -4.13025897 -0.3400414 0 0 Z " fill="#D5C8C5" transform="translate(577,469)"/>
<path d="M0 0 C5.38605493 0.62170614 10.29752912 1.85436298 15.453125 3.51171875 C16.23516296 3.7624263 17.01720093 4.01313385 17.82293701 4.2714386 C19.46447043 4.80173457 21.10486099 5.33558018 22.74414062 5.87280273 C25.25045501 6.68764793 27.76523466 7.47156715 30.28125 8.25585938 C31.88082465 8.77675703 33.47980585 9.29948135 35.078125 9.82421875 C35.82813782 10.05259933 36.57815063 10.28097992 37.35089111 10.51628113 C41.12260332 11.79473493 42.76926846 12.62079904 44.87011719 16.07348633 C45.24297852 17.03923584 45.61583984 18.00498535 46 19 C46.66 19.66 47.32 20.32 48 21 C52.50317123 20.64736215 52.50317123 20.64736215 56 18 C58.27734375 18.20703125 58.27734375 18.20703125 60.9375 18.8125 C62.25041016 19.10060547 62.25041016 19.10060547 63.58984375 19.39453125 C66 20 66 20 69 21 C68.63233859 23.61888048 68.24787107 24.76906773 66.28515625 26.59765625 C54.8392678 34.1410801 42.78982697 35.87939195 29.3984375 33.30859375 C17.79335933 30.06080255 9.30769063 24.07145853 2.6796875 13.9921875 C-0.02190995 9.17465358 -0.39155084 5.48171182 0 0 Z " fill="#FBECE8" transform="translate(395,478)"/>
<path d="M0 0 C16.49487119 1.67667647 32.46985408 12.4792275 44.8125 22.9375 C47.15245011 24.80988006 49.51347718 26.65494285 51.875 28.5 C53.0664561 29.43483231 54.25786339 30.36972681 55.44921875 31.3046875 C59.56195057 34.52638566 63.68335416 37.73686579 67.8125 40.9375 C63.84070688 42.26143104 61.31171035 41.01639296 57.5234375 39.69140625 C56.795802 39.44514999 56.0681665 39.19889374 55.31848145 38.94517517 C52.93867521 38.13813279 50.56320356 37.31903181 48.1875 36.5 C45.72928893 35.66308917 43.2700087 34.82938051 40.81057739 33.99606323 C39.1638271 33.43804686 37.51740407 32.87906379 35.87130737 32.31912231 C27.86983159 29.60206591 19.824457 27.03504658 11.75537109 24.52563477 C6.4271828 22.84921857 1.23575183 20.98568081 -3.93066406 18.86035156 C-7.32097063 17.47400812 -10.75291148 16.20956982 -14.1875 14.9375 C-12.95067582 7.78397637 -7.59832706 0.32262296 0 0 Z " fill="#7A6C67" transform="translate(395.1875,421.0625)"/>
<path d="M0 0 C-1.0725 0.495 -2.145 0.99 -3.25 1.5 C-7.66904429 3.97394771 -9.20629137 7.40988847 -11 12 C-13.31 11.67 -15.62 11.34 -18 11 C-20.03684712 15.07369424 -20.0257259 17.58937864 -19 22 C-16.69 22.33 -14.38 22.66 -12 23 C-11.79375 24.11375 -11.5875 25.2275 -11.375 26.375 C-9.07202667 35.41097176 -3.62167858 42.71806466 4 48 C8.67455834 50.74292266 12.18794377 51.40375888 17.5859375 51.51171875 C18.28772125 51.52966995 18.989505 51.54762115 19.71255493 51.56611633 C21.93331053 51.61989047 24.1538554 51.65400693 26.375 51.6875 C27.88935204 51.72070237 29.40367638 51.75519471 30.91796875 51.79101562 C34.61177674 51.87559581 38.30565879 51.9425635 42 52 C42 52.33 42 52.66 42 53 C19.88783082 53.24810823 -1.95288377 52.85452253 -24 51 C-24 50.34 -24 49.68 -24 49 C-24.804375 49.020625 -25.60875 49.04125 -26.4375 49.0625 C-29 49 -29 49 -30 48 C-30.12601286 44.92089475 -30.188696 41.86545607 -30.203125 38.78515625 C-30.20882507 37.85908066 -30.21452515 36.93300507 -30.22039795 35.97886658 C-30.22986251 34.01595203 -30.23638769 32.05302149 -30.24023438 30.09008789 C-30.24994788 27.07865877 -30.28096065 24.0679096 -30.3125 21.05664062 C-30.31902885 19.15364991 -30.32427979 17.25065428 -30.328125 15.34765625 C-30.3404718 14.44241714 -30.3528186 13.53717804 -30.36553955 12.60450745 C-30.36253845 11.76701462 -30.35953735 10.92952179 -30.35644531 10.06665039 C-30.36009094 9.32798233 -30.36373657 8.58931427 -30.36749268 7.82826233 C-30 6 -30 6 -27 4 C-24.2242103 3.42943685 -21.48440345 2.93248635 -18.6875 2.5 C-0.80224544 -0.30855594 -0.80224544 -0.30855594 0 0 Z " fill="#8B837E" transform="translate(427,593)"/>
<path d="M0 0 C4.23806877 1.34977629 7.44748017 3.81795733 11.01953125 6.421875 C11.76710693 6.96070313 12.51468262 7.49953125 13.28491211 8.0546875 C15.4991142 9.66276457 17.69965941 11.28753653 19.89453125 12.921875 C20.50925293 13.37820312 21.12397461 13.83453125 21.75732422 14.3046875 C28.53536525 19.3945611 28.53536525 19.3945611 30.89453125 21.921875 C30.89453125 23.241875 30.89453125 24.561875 30.89453125 25.921875 C31.74015625 26.1075 32.58578125 26.293125 33.45703125 26.484375 C38.05081126 28.40541028 40.60237856 31.26473865 43.89453125 34.921875 C44.40371094 35.47488281 44.91289062 36.02789062 45.4375 36.59765625 C55.20658264 47.47631371 64.31687071 59.08846009 72.89453125 70.921875 C73.50651367 71.76008789 73.50651367 71.76008789 74.13085938 72.61523438 C75.39620767 74.35581272 76.64740941 76.10570307 77.89453125 77.859375 C78.63703125 78.89964844 79.37953125 79.93992187 80.14453125 81.01171875 C81.81017074 83.781588 82.51982333 85.74271245 82.89453125 88.921875 C80.21875 89.30859375 80.21875 89.30859375 76.89453125 88.921875 C74.8457934 86.87313715 73.34468812 85.07593701 71.70703125 82.734375 C70.7497763 81.44094318 69.7900775 80.14931698 68.828125 78.859375 C68.34327637 78.20066406 67.85842773 77.54195313 67.35888672 76.86328125 C65.11287134 73.88556964 62.70213771 71.06013863 60.26953125 68.234375 C56.85014233 64.2414657 53.49913641 60.20897766 50.20703125 56.109375 C46.93466423 52.08453856 43.48905776 48.40352475 39.76953125 44.79296875 C37.99976325 43.02688776 36.38327505 41.20512704 34.76953125 39.296875 C24.8383973 27.79407076 14.06551886 16.37673291 0.05859375 10.0625 C-2.15190183 8.89740124 -3.56709674 7.88702119 -5.10546875 5.921875 C-5.10546875 2.921875 -5.10546875 2.921875 -3.91796875 1.171875 C-2.10546875 -0.078125 -2.10546875 -0.078125 0 0 Z " fill="#C6BCB7" transform="translate(380.10546875,234.078125)"/>
<path d="M0 0 C0.66 0 1.32 0 2 0 C-0.56845089 9.13226982 -9.17849276 15.42434677 -17 20 C-17.66 20 -18.32 20 -19 20 C-19 20.66 -19 21.32 -19 22 C-19.75506836 22.30703857 -20.51013672 22.61407715 -21.28808594 22.93041992 C-24.15104407 24.09489075 -27.01381332 25.25982448 -29.87646484 26.42504883 C-31.70005495 27.16717443 -33.5238527 27.90878972 -35.34765625 28.65039062 C-61.78579404 38.51776102 -61.78579404 38.51776102 -85 54 C-85.82757813 54.66386719 -86.65515625 55.32773437 -87.5078125 56.01171875 C-96.65292582 63.5767131 -102.52419691 73.07854176 -107 84 C-107.4228125 84.94101562 -107.845625 85.88203125 -108.28125 86.8515625 C-114.09454306 100.08053068 -115.53568424 112.73429851 -116 127 C-116.66 127 -117.32 127 -118 127 C-118.495 127.99 -118.495 127.99 -119 129 C-119.61983247 111.17266446 -118.90886374 94.34666423 -111 78 C-110.23816406 76.29650391 -110.23816406 76.29650391 -109.4609375 74.55859375 C-104.52221942 64.05869893 -97.58287035 56.68543159 -89 49 C-88.154375 48.21753906 -87.30875 47.43507813 -86.4375 46.62890625 C-74.24802786 36.06606975 -57.70933112 30.29770514 -42.66015625 25.16796875 C-31.27439142 21.24946584 -21.85498666 16.92434923 -12 10 C-10.68358507 9.3005188 -9.35709422 8.61686101 -8 8 C-8 7.34 -8 6.68 -8 6 C-2.58823529 2 -2.58823529 2 0 2 C0 1.34 0 0.68 0 0 Z " fill="#E0DAD7" transform="translate(470,353)"/>
<path d="M0 0 C14.67923583 0.50461394 29.34175665 1.05864492 44 2 C44 8.6 44 15.2 44 22 C36.22221686 22.0818714 28.51367115 22.00004194 20.75 21.5625 C20.01144775 21.52326416 19.27289551 21.48402832 18.51196289 21.44360352 C13.24629792 21.12314896 13.24629792 21.12314896 11 20 C8.9625237 19.77141886 6.91959697 19.58975722 4.875 19.4375 C3.23144531 19.31181641 3.23144531 19.31181641 1.5546875 19.18359375 C0.29011719 19.09271484 0.29011719 19.09271484 -1 19 C-1.10357028 12.57864254 -0.68856324 6.38260084 0 0 Z " fill="#77706C" transform="translate(402,670)"/>
<path d="M0 0 C1.37187957 6.12811264 2.23296054 11.71006555 2 18 C-13.69916701 20.29363717 -29.14004848 21.13107398 -45 21 C-45 14.73 -45 8.46 -45 2 C-40.35944991 1.71205451 -35.71886089 1.42622958 -31.07788086 1.14550781 C-29.50391447 1.04969697 -27.93001845 0.95272186 -26.35620117 0.85449219 C-17.56237929 0.30645114 -8.81642068 -0.17369881 0 0 Z " fill="#78716D" transform="translate(501,671)"/>
<path d="M0 0 C1.06541016 0.00193359 1.06541016 0.00193359 2.15234375 0.00390625 C6.95358115 0.07905605 11.57818255 0.64290576 16.32421875 1.359375 C26.53601346 2.78615475 36.76664969 2.83552681 47.0625 3 C49.06577023 3.03828422 51.06902585 3.07734153 53.07226562 3.1171875 C57.92305499 3.21202024 62.77392072 3.29645294 67.625 3.375 C67.625 4.695 67.625 6.015 67.625 7.375 C65.25402535 9.26283264 62.99683558 10.84952155 60.4375 12.4375 C59.76396484 12.87126953 59.09042969 13.30503906 58.39648438 13.75195312 C57.0805375 14.59544298 55.75869931 15.42982418 54.43066406 16.25415039 C52.88963082 17.21073282 51.36660822 18.19622895 49.84765625 19.1875 C46.4514493 21.0019937 44.2895994 20.32274122 40.625 19.375 C38.16033787 18.18350642 35.94612241 16.8434652 33.625 15.375 C33.625 14.715 33.625 14.055 33.625 13.375 C32.99851562 13.17003906 32.37203125 12.96507812 31.7265625 12.75390625 C30.90929687 12.48449219 30.09203125 12.21507812 29.25 11.9375 C28.03183594 11.53724609 28.03183594 11.53724609 26.7890625 11.12890625 C24.625 10.375 24.625 10.375 22.625 9.375 C22.625 8.715 22.625 8.055 22.625 7.375 C20.5390849 7.80002027 18.45632009 8.24052046 16.375 8.6875 C14.63476562 9.05294922 14.63476562 9.05294922 12.859375 9.42578125 C9.70232854 10.35230576 8.15989148 11.3863299 5.625 13.375 C2.22555592 14.53200378 -0.81121456 14.82553538 -4.375 14.375 C-8.06709179 12.44367481 -11.21088881 10.07459274 -14.375 7.375 C-12.02104669 0.31314006 -6.68210451 -0.21851977 0 0 Z " fill="#9B9490" transform="translate(398.375,698.625)"/>
<path d="M0 0 C0 1.65 0 3.3 0 5 C-17.23620098 12.60227876 -39.52447984 12.371231 -58.0625 12.25 C-58.87241394 12.2478952 -59.68232788 12.24579041 -60.51678467 12.24362183 C-74.40079235 12.20208919 -88.25779561 11.72470432 -102.125 11.0625 C-103.49871262 10.99742249 -103.49871262 10.99742249 -104.900177 10.93103027 C-107.49889975 10.8049854 -110.09713664 10.67197628 -112.6953125 10.53515625 C-113.46440445 10.49654984 -114.2334964 10.45794342 -115.02589417 10.41816711 C-118.76623897 10.20951244 -122.35034299 9.85956304 -126 9 C-126.33 7.02 -126.66 5.04 -127 3 C-125.36454224 3.10393066 -125.36454224 3.10393066 -123.69604492 3.20996094 C-107.21443038 4.16642105 -90.7311961 4.2214867 -74.2277832 4.24023438 C-70.95976588 4.24461673 -67.69201289 4.25853157 -64.42407227 4.28125 C-42.83352325 4.42829999 -21.11286684 0 0 0 Z " fill="#99928E" transform="translate(525,650)"/>
<path d="M0 0 C6.2734336 -0.3634265 11.65723779 0.97371219 17.6875 2.625 C18.69264648 2.89497803 19.69779297 3.16495605 20.73339844 3.44311523 C23.82630356 4.28148601 26.91388393 5.13699658 30 6 C30.93859863 6.26151855 31.87719727 6.52303711 32.84423828 6.79248047 C42.58410666 9.53362011 51.94755499 12.41042446 61 17 C62.00417969 17.46148437 63.00835938 17.92296875 64.04296875 18.3984375 C73.21444349 22.70504303 79.58134864 28.07677959 86.078125 35.765625 C88.35561528 38.4134389 90.74154022 40.94730048 93.125 43.5 C97.03248793 47.77083666 100.15238712 51.96921724 103 57 C102.01 57 101.02 57 100 57 C98.78496329 55.36929283 97.57341605 53.73196588 96.4765625 52.01953125 C92.79567982 46.98509648 87.94716374 43.22850383 83.0625 39.4375 C82.46759766 38.96892578 81.87269531 38.50035156 81.25976562 38.01757812 C69.27610664 28.65329815 56.73855569 23.01662345 42.01269531 19.48583984 C32.16870788 17.10962259 22.51532532 14.48494408 13.1875 10.5 C12.53595947 10.22760498 11.88441895 9.95520996 11.21313477 9.67456055 C6.42916865 7.53501045 2.3918133 4.7836266 0 0 Z " fill="#DFDAD7" transform="translate(502,347)"/>
<path d="M0 0 C7.60132324 2.28308295 15.15651543 4.68321715 22.6875 7.1875 C23.47753418 7.44934082 24.26756836 7.71118164 25.08154297 7.98095703 C30.75228784 9.87614392 30.75228784 9.87614392 33 11 C32.44590036 15.22026574 31.03747714 17.8128176 28.5625 21.25 C27.94503906 22.12140625 27.32757813 22.9928125 26.69140625 23.890625 C25 26 25 26 23 27 C23 26.34 23 25.68 23 25 C20.92092397 24.58238213 18.83643533 24.19164298 16.75 23.8125 C15.58984375 23.59207031 14.4296875 23.37164062 13.234375 23.14453125 C9.51114684 22.97815511 8.69172904 23.59320624 6 26 C3.5 26 3.5 26 1 25 C-3.85862349 19.87145298 -4.32788559 15.55441135 -4.30078125 8.7421875 C-3.87009794 4.81569809 -2.55170596 2.95041002 0 0 Z " fill="#92BCD5" transform="translate(441,474)"/>
<path d="M0 0 C3.82715068 1.50352348 5.81263273 3.53386416 8 7 C11.39072066 29.4535124 3.24282334 56.26958453 -7 76 C-7.33 76 -7.66 76 -8 76 C-7.28341728 46.40163796 -7.28341728 46.40163796 -6.125 32.25 C-6.05877441 31.36691162 -5.99254883 30.48382324 -5.92431641 29.57397461 C-5.42534274 23.99961953 -4.25831941 18.85429992 -2.70410156 13.48095703 C-1.89069941 10.61487081 -1.30832311 7.74929843 -0.8125 4.8125 C-0.65394531 3.89082031 -0.49539063 2.96914063 -0.33203125 2.01953125 C-0.22246094 1.35308594 -0.11289062 0.68664062 0 0 Z " fill="#A39B96" transform="translate(605,435)"/>
<path d="M0 0 C3.37462715 0.54723683 5.08235 1.0549 8 3 C9.44372958 3.54072269 10.90413666 4.03815895 12.375 4.5 C15.64143983 5.54973678 18.83346782 6.67209941 22 8 C22 9.32 22 10.64 22 12 C22.66 12 23.32 12 24 12 C22.70700306 14.88437779 21.34058637 16.87219421 19 19 C18.67 18.34 18.34 17.68 18 17 C17.34 17.66 16.68 18.32 16 19 C13.375 19.625 13.375 19.625 11 20 C11 21.98 11 23.96 11 26 C12.65 26 14.3 26 16 26 C15.34206835 27.67013418 14.67276716 29.3357865 14 31 C13.54625 32.2375 13.0925 33.475 12.625 34.75 C11 38 11 38 9 38.8125 C8.34 38.874375 7.68 38.93625 7 39 C6.01 39.66 5.02 40.32 4 41 C0.8125 41.125 0.8125 41.125 -2 41 C-4.73308552 35.53382896 -2.44467011 28.81524789 -1.0625 23.1875 C0.44447225 16.77828151 1.57500928 10.58735617 2 4 C1.34 4 0.68 4 0 4 C0 2.68 0 1.36 0 0 Z " fill="#3C3938" transform="translate(323,572)"/>
<path d="M0 0 C1 2 1 2 0.10717773 4.80297852 C-0.36260498 5.98303467 -0.8323877 7.16309082 -1.31640625 8.37890625 C-1.6939933 9.33800652 -1.6939933 9.33800652 -2.07920837 10.31648254 C-2.61992331 11.68830578 -3.16395398 13.05882577 -3.7109375 14.42816162 C-5.128209 17.98038115 -6.51684182 21.54380136 -7.91015625 25.10546875 C-8.18320587 25.80142151 -8.45625549 26.49737427 -8.73757935 27.2144165 C-13.87246823 40.30731825 -18.09068777 53.22644451 -21 67 C-21.21527344 68.01578125 -21.43054688 69.0315625 -21.65234375 70.078125 C-22.12492296 72.38237982 -22.58033037 74.68558433 -23 77 C-23.16661133 77.90999756 -23.33322266 78.81999512 -23.50488281 79.75756836 C-23.98230134 82.88409473 -24.20242645 85.89581889 -24.31640625 89.0546875 C-24.35830078 90.16328125 -24.40019531 91.271875 -24.44335938 92.4140625 C-24.48267578 93.55617188 -24.52199219 94.69828125 -24.5625 95.875 C-24.60568359 97.0403125 -24.64886719 98.205625 -24.69335938 99.40625 C-24.79901629 102.27072625 -24.90111799 105.13528321 -25 108 C-27 107 -27 107 -27.61230469 105.37841797 C-31.5389055 81.28966159 -28.69023734 52.2988953 -19 30 C-18.70464355 29.31711914 -18.40928711 28.63423828 -18.10498047 27.93066406 C-13.59679222 17.75797431 -7.93366386 7.93366386 0 0 Z " fill="#21201E" transform="translate(358,353)"/>
<path d="M0 0 C0.66 0.66 1.32 1.32 2 2 C1.32904297 2.61488281 1.32904297 2.61488281 0.64453125 3.2421875 C-4.48086536 8.72063994 -6.75720752 16.73721186 -9.25 23.6875 C-9.50821533 24.39986816 -9.76643066 25.11223633 -10.0324707 25.84619141 C-11.56416468 30.23980178 -12.49067046 34.37358997 -13 39 C-14.73017508 38.54548816 -16.45909877 38.08621143 -18.1875 37.625 C-19.63189453 37.24214844 -19.63189453 37.24214844 -21.10546875 36.8515625 C-23.82210207 36.05233704 -26.39137175 35.0968638 -29 34 C-28.42692413 29.04862447 -26.83130248 24.94940138 -24.6875 20.5 C-24.39166016 19.86191406 -24.09582031 19.22382812 -23.79101562 18.56640625 C-20.15118466 10.87795121 -16.12653099 5.47281132 -9.0625 0.6875 C-5.96943682 -0.34352106 -3.22735433 -0.23906328 0 0 Z " fill="#888380" transform="translate(373,586)"/>
<path d="M0 0 C0.29071139 7.5584961 0.29071139 7.5584961 -2 11 C-3.7421875 11.87792969 -3.7421875 11.87792969 -5.875 12.421875 C-6.68348389 12.63900146 -7.49196777 12.85612793 -8.32495117 13.07983398 C-9.20771729 13.30098877 -10.0904834 13.52214355 -11 13.75 C-12.89279376 14.25326203 -14.78468065 14.75994375 -16.67578125 15.26953125 C-17.68979004 15.54104004 -18.70379883 15.81254883 -19.74853516 16.09228516 C-26.76938144 18.05230216 -33.70353407 20.31786482 -40.64257812 22.54785156 C-41.70283203 22.88139648 -42.76308594 23.21494141 -43.85546875 23.55859375 C-44.80059326 23.86079834 -45.74571777 24.16300293 -46.71948242 24.47436523 C-49 25 -49 25 -51 24 C-19.29804403 -5.62665862 -19.29804403 -5.62665862 0 0 Z " fill="#7A6D68" transform="translate(587,440)"/>
<path d="M0 0 C3.7258178 1.83464408 6.85586946 4.18630076 10.14453125 6.70703125 C10.83442139 7.23031006 11.52431152 7.75358887 12.23510742 8.29272461 C31.49354335 22.99619751 31.49354335 22.99619751 37.83203125 29.39453125 C31.86570372 28.17312942 26.12492913 26.6346838 20.359375 24.6796875 C19.5920253 24.42327988 18.8246756 24.16687225 18.03407288 23.9026947 C16.42589473 23.36441255 14.81843193 22.8239888 13.21166992 22.28149414 C10.77351597 21.45837649 8.33327952 20.64170118 5.89257812 19.82617188 C4.31888519 19.29855045 2.74531331 18.77056777 1.171875 18.2421875 C0.45394272 18.00146011 -0.26398956 17.76073273 -1.00367737 17.51271057 C-5.76434674 15.90375993 -10.47046277 14.1797088 -15.16796875 12.39453125 C-15.16796875 11.40453125 -15.16796875 10.41453125 -15.16796875 9.39453125 C-12.83203125 7.16796875 -12.83203125 7.16796875 -9.79296875 4.76953125 C-8.79523438 3.97289062 -7.7975 3.17625 -6.76953125 2.35546875 C-2.65924782 -0.74267281 -2.65924782 -0.74267281 0 0 Z " fill="#8E7F7A" transform="translate(425.16796875,433.60546875)"/>
<path d="M0 0 C1.92960571 0.24447876 1.92960571 0.24447876 3.89819336 0.49389648 C8.8247557 1.03915505 13.67670329 1.12850688 18.62890625 1.09765625 C19.94156715 1.09553383 19.94156715 1.09553383 21.28074646 1.09336853 C24.04136762 1.08782719 26.80190388 1.07528612 29.5625 1.0625 C31.44856653 1.0574774 33.33463434 1.05291583 35.22070312 1.04882812 C39.81383417 1.03787707 44.40690275 1.02065384 49 1 C49.99 4.3 50.98 7.6 52 11 C34.12176642 13.64135075 16.8060602 13.08239361 -1 10 C-1.125 2.25 -1.125 2.25 0 0 Z " fill="#605A57" transform="translate(380,726)"/>
<path d="M0 0 C0.33 0.66 0.66 1.32 1 2 C1.66 2 2.32 2 3 2 C3.48609825 9.53452294 2.28235138 16.06002774 0.42285156 23.31396484 C-0.8996524 28.67588154 -1.17524016 33.47445858 -1 39 C2.86648272 37.95902388 6.49461443 36.96301592 10 35 C10.66 35.66 11.32 36.32 12 37 C10.65021082 40.07421924 9.26584161 43.13166051 7.875 46.1875 C7.49601562 47.05181641 7.11703125 47.91613281 6.7265625 48.80664062 C4.22464646 54.24830802 2.02974427 57.67129656 -3 61 C-4.32183897 61.37633846 -5.65449904 61.71979282 -7 62 C-7.06058594 60.76765625 -7.12117188 59.5353125 -7.18359375 58.265625 C-7.26812702 56.59374483 -7.35276831 54.92187012 -7.4375 53.25 C-7.47681641 52.44433594 -7.51613281 51.63867188 -7.55664062 50.80859375 C-7.59853516 49.99003906 -7.64042969 49.17148437 -7.68359375 48.328125 C-7.72411865 47.46348633 -7.76464355 46.59884766 -7.80639648 45.70800781 C-7.96553877 42.9855826 -7.96553877 42.9855826 -8.41430664 40.25292969 C-9.68672324 31.05657964 -7.31209626 23.39790752 -4.5625 14.75 C-4.12240729 13.31179064 -3.68424237 11.87298989 -3.24804688 10.43359375 C-2.18745983 6.94864304 -1.10116042 3.4723748 0 0 Z " fill="#262423" transform="translate(322,574)"/>
<path d="M0 0 C5.58901407 1.16743281 10.99685132 2.56983154 16.44848633 4.25927734 C26.42490638 7.32478794 35.54884003 8.97043519 46 9 C46 12.3 46 15.6 46 19 C29.01615196 20.31393667 13.54860557 15.52078802 -2 9 C-1.34 6.03 -0.68 3.06 0 0 Z " fill="#766F6B" transform="translate(337,631)"/>
<path d="M0 0 C0.66 0 1.32 0 2 0 C-0.32542742 8.812146 -4.34946799 15.76542547 -12 21 C-16.56985455 23.64164588 -20.83637885 23.87348681 -26 23 C-29.23087755 21.49689306 -31.77185788 19.79063878 -34 17 C-35.21875 13.28515625 -35.21875 13.28515625 -36 10 C-32.60732806 8.98905456 -29.21040545 7.99319949 -25.8125 7 C-24.85279297 6.71382813 -23.89308594 6.42765625 -22.90429688 6.1328125 C-21.97294922 5.86210937 -21.04160156 5.59140625 -20.08203125 5.3125 C-19.22843018 5.06113281 -18.3748291 4.80976563 -17.49536133 4.55078125 C-14.85100961 3.96711454 -12.69458426 3.68523743 -10 4 C-9.01 5.485 -9.01 5.485 -8 7 C-5.58414426 6.96906827 -5.58414426 6.96906827 -3 6 C-1.14083176 3.03292954 -1.14083176 3.03292954 0 0 Z " fill="#F9EBE6" transform="translate(571,486)"/>
<path d="M0 0 C5.21733886 2.71301621 9.34961922 6.69923844 12 12 C12.07033769 13.87379605 12.0843022 15.75001102 12.0625 17.625 C12.05347656 18.62789063 12.04445313 19.63078125 12.03515625 20.6640625 C12.02355469 21.43492187 12.01195312 22.20578125 12 23 C8.41390244 24.92387208 6.11755472 25.49410657 2 25 C-3.94248516 21.96811982 -7.90126023 17.29621931 -10 11 C-10.37076101 7.46351041 -10.63184205 4.18934975 -8.9375 1 C-5.79928609 -0.61972331 -3.47482259 -0.41226709 0 0 Z " fill="#9C9590" transform="translate(516,286)"/>
<path d="M0 0 C1.258125 -0.04125 2.51625 -0.0825 3.8125 -0.125 C4.52019531 -0.14820313 5.22789062 -0.17140625 5.95703125 -0.1953125 C8 0 8 0 11 2 C11 2.66 11 3.32 11 4 C11.59296875 4.2578125 12.1859375 4.515625 12.796875 4.78125 C17.09291674 7.15778373 19.22807153 10.47556129 21 15 C22.75529345 26.09508747 20.95100359 37.46086362 16.89453125 47.82421875 C15 50 15 50 13.02612305 50.31176758 C11.014729 50.31243309 9.00467111 50.1643173 7 50 C7.3609375 49.030625 7.721875 48.06125 8.09375 47.0625 C11.93331281 36.2001471 14.54789448 24.73232656 10.8125 13.375 C7.98551387 8.11095686 4.30285814 4.14349303 0 0 Z " fill="#BCB8B5" transform="translate(510,590)"/>
<path d="M0 0 C5.29909868 0.39675993 9.44333793 0.78592893 13.515625 4.41796875 C16.90891066 8.3795474 17.40902483 12.32127956 17.328125 17.41796875 C14.05210305 16.73546418 11.31318292 15.5445985 8.328125 14.04296875 C7.4825 13.62273438 6.636875 13.2025 5.765625 12.76953125 C3.44397223 11.48220456 1.40674549 10.06354331 -0.671875 8.41796875 C4.48753602 15.1915504 4.48753602 15.1915504 10.390625 21.29296875 C11.3496875 22.34484375 11.3496875 22.34484375 12.328125 23.41796875 C12.140625 25.73046875 12.140625 25.73046875 11.328125 27.41796875 C9.1875 28.171875 9.1875 28.171875 6.328125 28.41796875 C0.66031056 25.25111615 -3.90512775 21.10734913 -5.7109375 14.7734375 C-6.49120281 6.1088634 -6.49120281 6.1088634 -4.5078125 2.015625 C-2.671875 0.41796875 -2.671875 0.41796875 0 0 Z " fill="#CAB4AC" transform="translate(368.671875,665.58203125)"/>
<path d="M0 0 C0 4.95 0 9.9 0 15 C-6.47990359 18.47994823 -13.50312314 22 -21 22 C-22.5056904 16.19233704 -23.21824777 11.0018137 -23 5 C-18.62527111 3.70746646 -14.22936956 2.51570927 -9.8125 1.375 C-8.30623047 0.98441406 -8.30623047 0.98441406 -6.76953125 0.5859375 C-4 0 -4 0 0 0 Z " fill="#776F6B" transform="translate(534,664)"/>
<path d="M0 0 C1.98 0 3.96 0 6 0 C9.07794799 7.87350088 10.59972035 14.53727954 10 23 C4.42531458 26.61601216 -0.60567654 26.30720059 -7 26 C-7.12117188 25.154375 -7.24234375 24.30875 -7.3671875 23.4375 C-8.46313005 15.88186839 -8.46313005 15.88186839 -10.125 8.4375 C-11 5 -11 5 -11 1 C-9.35 1 -7.7 1 -6 1 C-1.24576656 8.02247458 0.13351617 14.6326114 1 23 C1.0272367 20.47909222 1.04695207 17.95848543 1.0625 15.4375 C1.07087891 14.73302734 1.07925781 14.02855469 1.08789062 13.30273438 C1.10882603 8.75975202 0.74800682 4.48215108 0 0 Z " fill="#9D9692" transform="translate(490,701)"/>
<path d="M0 0 C-0.2821289 2.27203802 -0.57602856 4.54261684 -0.875 6.8125 C-1.03742187 8.07707031 -1.19984375 9.34164063 -1.3671875 10.64453125 C-2 14 -2 14 -4 17 C-4.66 17 -5.32 17 -6 17 C-6.1546875 17.86625 -6.1546875 17.86625 -6.3125 18.75 C-7.09792798 21.32049158 -8.30504197 22.93657284 -10 25 C-12.3125 24.9375 -12.3125 24.9375 -15 24 C-18.63055821 18.24118353 -18.32453395 12.646936 -18 6 C-19.32 5.67 -20.64 5.34 -22 5 C-19.27318889 4.15820605 -16.54398557 3.32636931 -13.8125 2.5 C-12.65911133 2.14228516 -12.65911133 2.14228516 -11.48242188 1.77734375 C-7.55643872 0.59786383 -4.14951179 -0.3326262 0 0 Z " fill="#95BBD3" transform="translate(577,469)"/>
<path d="M0 0 C1.88575897 1.41856643 3.56630514 2.94121726 5.25390625 4.58984375 C7.17277714 6.1395359 8.5931438 6.58393514 11 7 C11 7.66 11 8.32 11 9 C27.71275044 11.69853743 42.39663645 13.6334968 59 9 C53.62178632 14.86714219 46.77327861 17.88352743 38.8203125 18.38671875 C30.73672733 18.60025424 22.87543885 17.90507376 15 16 C15 15.34 15 14.68 15 14 C14.2678125 13.9071875 13.535625 13.814375 12.78125 13.71875 C8.75307806 12.67776175 6.38810819 10.26302253 3.28125 7.59375 C-0.58433695 4.89313446 -4.39847658 4.8685279 -9 5 C-9 3.68 -9 2.36 -9 1 C-5.85617726 0.06849697 -3.25667527 -0.53015644 0 0 Z " fill="#36312E" transform="translate(471,540)"/>
<path d="M0 0 C3.37533059 1.39668852 5.21860915 2.78147481 7 6 C7.94060503 13.5709483 7.58329782 20.26340009 4 27 C3.30859478 29.77888613 3.30859478 29.77888613 3 32 C2.34 32 1.68 32 1 32 C0.81824219 32.60328125 0.63648438 33.2065625 0.44921875 33.828125 C0.19785156 34.62734375 -0.05351563 35.4265625 -0.3125 36.25 C-0.55613281 37.03890625 -0.79976562 37.8278125 -1.05078125 38.640625 C-2.05333485 41.13256893 -3.35902076 42.88989147 -5 45 C-5.08858959 41.39599373 -5.14091522 37.79227455 -5.1875 34.1875 C-5.21263672 33.18267578 -5.23777344 32.17785156 -5.26367188 31.14257812 C-5.33333267 23.9210758 -4.10043762 17.8759937 -2 11 C-1.56862796 8.9446391 -1.16212139 6.88333441 -0.8125 4.8125 C-0.65394531 3.89082031 -0.49539063 2.96914063 -0.33203125 2.01953125 C-0.22246094 1.35308594 -0.11289062 0.68664062 0 0 Z " fill="#A8A09B" transform="translate(605,435)"/>
<path d="M0 0 C5.33011825 0.02902061 9.786636 2.12030013 14.5625 4.3125 C14.00840036 8.53276574 12.59997714 11.1253176 10.125 14.5625 C9.50753906 15.43390625 8.89007813 16.3053125 8.25390625 17.203125 C6.5625 19.3125 6.5625 19.3125 4.5625 20.3125 C4.5625 19.6525 4.5625 18.9925 4.5625 18.3125 C3.86382812 18.17972656 3.16515625 18.04695313 2.4453125 17.91015625 C1.53523438 17.73355469 0.62515625 17.55695313 -0.3125 17.375 C-1.66988281 17.11396484 -1.66988281 17.11396484 -3.0546875 16.84765625 C-5.4375 16.3125 -5.4375 16.3125 -7.4375 15.3125 C-6.9628725 12.9990641 -6.48267721 10.68676981 -6 8.375 C-5.73316406 7.08722656 -5.46632813 5.79945313 -5.19140625 4.47265625 C-4.21581381 0.3832558 -4.21581381 0.3832558 0 0 Z " fill="#D3C7C4" transform="translate(459.4375,480.6875)"/>
<path d="M0 0 C13.365 0.495 13.365 0.495 27 1 C27 1.33 27 1.66 27 2 C22.05 2 17.1 2 12 2 C12.33 7.94 12.66 13.88 13 20 C6.07 19.505 6.07 19.505 -1 19 C-1.10551806 12.45788013 -0.66396147 6.63961468 0 0 Z " fill="#504B48" transform="translate(402,670)"/>
<path d="M0 0 C4.93502913 1.39825825 6.90830487 3.93345976 9.75 8.0625 C11.14935013 10.86120027 11.00265405 12.96748792 10.75 16.0625 C9.625 17.9375 9.625 17.9375 7.75 19.0625 C4.03626215 19.62763402 2.29315639 19.39092015 -0.9375 17.4375 C-3.58442168 14.71903989 -4.98473103 12.64742875 -6.25 9.0625 C-5.80245428 0.11158566 -5.80245428 0.11158566 0 0 Z " fill="#7E7874" transform="translate(293.25,352.9375)"/>
<path d="M0 0 C3.22833536 2.44592221 5.60809392 5.1028971 6.44140625 9.13671875 C6.54571858 12.89891687 6.10088285 14.84867573 4 18 C1.25 18.5 1.25 18.5 -2 18 C-5.5633205 15.53308581 -8.74632675 13.26248906 -10 9 C-10.52701506 2.99202834 -10.52701506 2.99202834 -8.9375 0 C-5.59445857 -1.72544074 -3.53347217 -1.07800846 0 0 Z " fill="#7E7874" transform="translate(336,466)"/>
<path d="M0 0 C1.79244141 0.23009766 1.79244141 0.23009766 3.62109375 0.46484375 C10.08534064 1.1830934 16.56549882 1.35180512 23.0625 1.5625 C24.93325195 1.62727539 24.93325195 1.62727539 26.84179688 1.69335938 C29.89444091 1.79862296 32.94715523 1.90075941 36 2 C36 2.33 36 2.66 36 3 C31.05 3 26.1 3 21 3 C21 5.97 21 8.94 21 12 C18.08302989 11.85895309 15.1665198 11.71235186 12.25 11.5625 C11.0125 11.50352539 11.0125 11.50352539 9.75 11.44335938 C8.95078125 11.40146484 8.1515625 11.35957031 7.328125 11.31640625 C6.5949707 11.27974854 5.86181641 11.24309082 5.10644531 11.20532227 C2.98822395 10.99885215 1.0480544 10.56867914 -1 10 C-1.125 2.25 -1.125 2.25 0 0 Z " fill="#484441" transform="translate(380,726)"/>
<path d="M0 0 C2.77171594 0.07081026 3.93636512 0.37066583 6.109375 2.1328125 C8.94728222 5.5788427 10.61761915 8.48250359 10.75 13 C10.25 16.625 10.25 16.625 8.25 18.625 C5.14373911 18.85886906 2.24410536 18.46675916 -0.75 17.625 C-3.37953381 15.06120454 -5.58160311 12.50477922 -5.91796875 8.75 C-5.92441406 8.04875 -5.93085938 7.3475 -5.9375 6.625 C-5.95167969 5.92375 -5.96585937 5.2225 -5.98046875 4.5 C-5.5102631 0.6745981 -3.52933414 0.58822236 0 0 Z " fill="#7E7874" transform="translate(338.75,339.375)"/>
<path d="M0 0 C11.97026707 -1.15841294 23.45065527 2.24037009 35 5 C35 5.66 35 6.32 35 7 C32.14656123 7.64919506 29.29232245 8.29444179 26.4375 8.9375 C25.63763672 9.11990234 24.83777344 9.30230469 24.01367188 9.49023438 C21.67970722 10.01418563 19.34146331 10.51078827 17 11 C15.081875 11.41378906 15.081875 11.41378906 13.125 11.8359375 C10 12 10 12 8.00390625 10.63671875 C7.29041016 9.67185547 7.29041016 9.67185547 6.5625 8.6875 C6.06878906 8.05199219 5.57507813 7.41648437 5.06640625 6.76171875 C4 5 4 5 4 3 C2.68 2.67 1.36 2.34 0 2 C0 1.34 0 0.68 0 0 Z " fill="#B1968D" transform="translate(383,577)"/>
<path d="M0 0 C4.45072834 0.58783204 7.45858265 1.89362461 10.3125 5.4375 C11.3175623 8.79483576 11.64962038 11.94800837 11.3125 15.4375 C10.3225 16.9225 10.3225 16.9225 9.3125 18.4375 C6 18.9375 6 18.9375 2.3125 18.4375 C-0.625 16.0625 -0.625 16.0625 -2.6875 13.4375 C-2.6875 12.7775 -2.6875 12.1175 -2.6875 11.4375 C-3.3475 11.4375 -4.0075 11.4375 -4.6875 11.4375 C-4.74149736 9.97957116 -4.78029177 8.52107288 -4.8125 7.0625 C-4.84730469 5.84433594 -4.84730469 5.84433594 -4.8828125 4.6015625 C-4.57244085 1.16264465 -3.2839382 0.53459459 0 0 Z " fill="#7E7773" transform="translate(308.6875,293.5625)"/>
<path d="M0 0 C5.87902376 0.09574269 8.67192457 1.364854 12.80834961 5.40039062 C11.93334961 10.27539062 11.93334961 10.27539062 10.80834961 11.40039062 C3.51500122 11.95003427 -2.73183447 12.00586928 -9.19165039 8.40039062 C-9.19165039 7.74039063 -9.19165039 7.08039062 -9.19165039 6.40039062 C-9.85165039 6.40039062 -10.51165039 6.40039062 -11.19165039 6.40039062 C-9.85813906 -1.02917253 -7.2391352 0.08893917 0 0 Z " fill="#C1BDBA" transform="translate(459.191650390625,594.599609375)"/>
<path d="M0 0 C-0.85722656 0.78503906 -1.71445312 1.57007813 -2.59765625 2.37890625 C-5.55487008 5.09166861 -8.49827081 7.81896884 -11.43652344 10.55224609 C-12.63888591 11.66561422 -13.85229308 12.76706377 -15.0703125 13.86328125 C-19.59539411 18.09324885 -23.03155424 23.03777465 -26.5378418 28.11474609 C-28.51201683 30.97021422 -30.40539454 33.67496394 -33 36 C-32.01116537 24.38119308 -25.83500234 15.21869 -17.6484375 7.1953125 C-13.00018707 3.34233796 -6.11968982 -2.03989661 0 0 Z " fill="#292825" transform="translate(392,256)"/>
<path d="M0 0 C0 0.66 0 1.32 0 2 C-0.99 2.495 -0.99 2.495 -2 3 C-2.042721 4.66611905 -2.04063832 6.33382885 -2 8 C-0.87465895 9.35618499 -0.87465895 9.35618499 2.0625 9.0625 C3.031875 9.041875 4.00125 9.02125 5 9 C5.5534764 6.92446352 6 5.15634036 6 3 C5.01 3 4.02 3 3 3 C3 2.34 3 1.68 3 1 C8.26514889 0.81844314 12.02691039 1.09541249 17 3 C19.32514617 3.69801548 21.66210594 4.34538966 24 5 C20.94228786 7.67549812 17.85388445 8.91568338 14.08203125 10.23828125 C12.13792652 10.94953908 10.25174112 11.81384465 8.375 12.6875 C4.79330631 14.08038088 2.79707791 14.36546875 -1 14 C-3.7734375 12.46875 -3.7734375 12.46875 -6.375 10.5 C-7.68597656 9.52546875 -7.68597656 9.52546875 -9.0234375 8.53125 C-9.67570312 8.0259375 -10.32796875 7.520625 -11 7 C-9.21020584 1.63061752 -5.59163302 -0.63904377 0 0 Z " fill="#9F9894" transform="translate(395,699)"/>
<path d="M0 0 C6.63181536 -0.201303 13.00373912 -0.09245138 19.5625 0.96875 C29.82250303 2.39831338 40.09338531 2.4597558 50.4375 2.625 C52.44077023 2.66328422 54.44402585 2.70234153 56.44726562 2.7421875 C61.29805499 2.83702024 66.14892072 2.92145294 71 3 C71 3.33 71 3.66 71 4 C58.625 4.495 58.625 4.495 46 5 C45.67 6.65 45.34 8.3 45 10 C41.6875 10.25 41.6875 10.25 38 10 C36.0625 8.125 36.0625 8.125 35 6 C35 5.34 35 4.68 35 4 C34.34 4.33 33.68 4.66 33 5 C26.45389218 4.84991287 20.00794039 3.71147847 13.59375 2.4765625 C10.07462329 1.82997597 6.55458658 1.40240603 3 1 C3 1.66 3 2.32 3 3 C3.99 3 4.98 3 6 3 C6.625 5.375 6.625 5.375 7 8 C5 10 5 10 2 10.25 C-1 10 -1 10 -3 8 C-3.125 5.375 -3.125 5.375 -3 3 C-2.01 2.67 -1.02 2.34 0 2 C0 1.34 0 0.68 0 0 Z " fill="#696562" transform="translate(395,699)"/>
<path d="M0 0 C14.81965432 -0.59877391 28.05760221 0.07793266 40 10 C42.77043726 12.57520511 45.42216999 15.23252037 48 18 C47.67 18.66 47.34 19.32 47 20 C46.14019531 19.48050781 45.28039062 18.96101563 44.39453125 18.42578125 C36.49981186 13.73779917 28.68004206 10.07320408 20 7 C18.62437921 6.43901989 17.24928699 5.87673978 15.875 5.3125 C11.77618997 3.75021266 7.5498615 3.15231837 3.22265625 2.52734375 C2.48917969 2.35332031 1.75570312 2.17929687 1 2 C0.67 1.34 0.34 0.68 0 0 Z " fill="#282724" transform="translate(527,323)"/>
<path d="M0 0 C8.58 0 17.16 0 26 0 C26 0.99 26 1.98 26 3 C24.65478516 4.24267578 24.65478516 4.24267578 22.7890625 5.4453125 C22.12132812 5.88230469 21.45359375 6.31929687 20.765625 6.76953125 C19.70601563 7.44048828 19.70601563 7.44048828 18.625 8.125 C17.92632812 8.58003906 17.22765625 9.03507813 16.5078125 9.50390625 C11.49563718 12.75218141 11.49563718 12.75218141 9 14 C5 7.25 5 7.25 5 5 C3.35 5 1.7 5 0 5 C0 3.35 0 1.7 0 0 Z " fill="#8B837E" transform="translate(440,703)"/>
<path d="M0 0 C7.49612516 1.52463563 14.71359134 3.68006154 22 6 C22 6.33 22 6.66 22 7 C20.35 7 18.7 7 17 7 C16.67 9.64 16.34 12.28 16 15 C9.76559832 13.41039668 3.83712355 11.72399099 -2 9 C-1.34 6.03 -0.68 3.06 0 0 Z " fill="#665F5C" transform="translate(337,631)"/>
<path d="M0 0 C1.98 0 3.96 0 6 0 C8.89763157 7.41224505 11.60028133 14.9553425 10 23 C6.77208445 25.1519437 5.71599191 25.20086443 2 25 C1.90912109 23.17275391 1.90912109 23.17275391 1.81640625 21.30859375 C1.73193597 19.68488723 1.64729128 18.06118978 1.5625 16.4375 C1.50352539 15.23770508 1.50352539 15.23770508 1.44335938 14.01367188 C1.19251844 9.28628494 0.74678186 4.67523099 0 0 Z " fill="#9B9490" transform="translate(490,701)"/>
<path d="M0 0 C3.76390188 0.98320567 6.88508299 2.23942671 10.39453125 3.88671875 C10.39453125 4.54671875 10.39453125 5.20671875 10.39453125 5.88671875 C6.3334733 7.20370977 2.27044714 8.51452272 -1.79296875 9.82421875 C-3.51870117 10.38399414 -3.51870117 10.38399414 -5.27929688 10.95507812 C-6.39111328 11.31279297 -7.50292969 11.67050781 -8.6484375 12.0390625 C-10.1802063 12.53394165 -10.1802063 12.53394165 -11.74291992 13.03881836 C-14.35465058 13.81242523 -16.92679683 14.40262141 -19.60546875 14.88671875 C-18.42220034 13.70345034 -17.23864592 12.52046667 -16.05371094 11.33886719 C-14.67889419 9.96034224 -13.31755635 8.56841313 -11.95703125 7.17578125 C-11.05726563 6.29664063 -10.1575 5.4175 -9.23046875 4.51171875 C-8.33585938 3.61710937 -7.44125 2.7225 -6.51953125 1.80078125 C-3.60546875 -0.11328125 -3.60546875 -0.11328125 0 0 Z " fill="#8F7F7A" transform="translate(555.60546875,450.11328125)"/>
<path d="M0 0 C0 0.66 0 1.32 0 2 C-1.51171875 3.05078125 -1.51171875 3.05078125 -3.6875 4.3125 C-13.41096227 10.59511622 -21.60098314 19.57430296 -27.828125 29.26953125 C-28.21484375 29.84058594 -28.6015625 30.41164063 -29 31 C-29.33 31 -29.66 31 -30 31 C-29.60590799 21.93588377 -24.33513972 14.60586115 -17.859375 8.53125 C-12.80045696 4.3650822 -6.73841022 0 0 0 Z " fill="#2B2927" transform="translate(345,295)"/>
<path d="M0 0 C5.18637081 3.73602286 5.18637081 3.73602286 6.51953125 6.40234375 C5.18576136 6.0079839 3.85256512 5.61168442 2.51953125 5.21484375 C1.60558594 4.94414062 0.69164062 4.6734375 -0.25 4.39453125 C-2.57004016 3.68196753 -4.87893859 2.93274142 -7.1796875 2.16015625 C-16.27033341 -0.87231368 -24.92796514 -2.67809053 -34.48046875 -3.59765625 C-34.48046875 -4.25765625 -34.48046875 -4.91765625 -34.48046875 -5.59765625 C-22.59570325 -9.29648633 -10.20276163 -6.57154253 0 0 Z " fill="#2B2A27" transform="translate(506.48046875,267.59765625)"/>
<path d="M0 0 C-0.4682121 4.77576339 -1.24331998 8.04476345 -4 12 C-5.58367747 11.85795259 -7.16693318 11.71119847 -8.75 11.5625 C-9.63171875 11.48128906 -10.5134375 11.40007813 -11.421875 11.31640625 C-13.69350452 11.03761535 -15.79851823 10.61209423 -18 10 C-18.33 8.02 -18.66 6.04 -19 4 C-16.39688008 3.32900016 -13.79264602 2.66304662 -11.1875 2 C-10.44951172 1.80921875 -9.71152344 1.6184375 -8.95117188 1.421875 C-5.89464659 0.64737086 -3.16626522 0 0 0 Z " fill="#C9C6C4" transform="translate(527,694)"/>
<path d="M0 0 C1.32 0 2.64 0 4 0 C5.64704304 2.07984268 6.93514557 3.97578882 8.25 6.25 C8.79527344 7.12978516 8.79527344 7.12978516 9.3515625 8.02734375 C11.35193401 11.37382993 12 13.00407822 12 17 C8.03925073 16.43417868 5.27740694 15.30304271 2 13 C-0.20914 9.68629 -0.22481553 8.6553979 -0.125 4.8125 C-0.10695313 3.91144531 -0.08890625 3.01039063 -0.0703125 2.08203125 C-0.04710937 1.39496094 -0.02390625 0.70789063 0 0 Z " fill="#7E7874" transform="translate(455,324)"/>
<path d="M0 0 C0.13501894 2.43934225 0.23403897 4.87124104 0.3125 7.3125 C0.35439453 8.00279297 0.39628906 8.69308594 0.43945312 9.40429688 C0.48828125 11.42578125 0.48828125 11.42578125 0 15 C-2.4115324 16.99453006 -3.8475744 18 -7 18 C-7 12.39 -7 6.78 -7 1 C-4 0 -4 0 0 0 Z " fill="#A09591" transform="translate(534,664)"/>
<path d="M0 0 C1.8125 1.125 1.8125 1.125 3 3 C3.39365568 6.14924548 3.52854531 8.11909116 1.875 10.875 C-0.84218824 12.50531294 -2.89652746 12.33015665 -6 12 C-8 10 -8 10 -8.3125 6.5625 C-8 3 -8 3 -6.8125 1.0625 C-4.33950907 -0.38718434 -2.82115488 -0.42317323 0 0 Z " fill="#C1BDBA" transform="translate(511,622)"/>
<path d="M0 0 C2.60332156 3.16063087 4.14038576 6.3431652 5.6875 10.125 C6.34298828 11.70667969 6.34298828 11.70667969 7.01171875 13.3203125 C8 16 8 16 8 18 C6.68 18 5.36 18 4 18 C4 19.32 4 20.64 4 22 C0.20411134 21.45773019 -1.47211993 19.79872437 -4 17 C-1.69 17.66 0.62 18.32 3 19 C1.52425476 14.57276429 0.0990031 10.88519594 -2.6875 7.125 C-5 4 -5 4 -5 2 C-3.35 2 -1.7 2 0 2 C0 1.34 0 0.68 0 0 Z " fill="#908985" transform="translate(464,322)"/>
<path d="M0 0 C3.35206294 0.73581869 4.54886545 1.80307488 6.5625 4.5625 C6.9375 7.1875 6.9375 7.1875 6.5625 9.5625 C4.5625 11.5625 4.5625 11.5625 2.3984375 11.7578125 C1.18027344 11.72300781 1.18027344 11.72300781 -0.0625 11.6875 C-0.87976563 11.66945313 -1.69703125 11.65140625 -2.5390625 11.6328125 C-3.16554688 11.60960937 -3.79203125 11.58640625 -4.4375 11.5625 C-5.33827361 8.04129408 -5.65436761 6.11671722 -4.3125 2.6875 C-2.4375 0.5625 -2.4375 0.5625 0 0 Z " fill="#B2ADAA" transform="translate(411.4375,603.4375)"/>
<path d="M0 0 C0 0.66 0 1.32 0 2 C-0.99 2.495 -0.99 2.495 -2 3 C-2.042721 4.66611905 -2.04063832 6.33382885 -2 8 C-0.88898816 9.33648017 -0.88898816 9.33648017 1.9375 9.125 C4.91545728 9.21325664 4.91545728 9.21325664 7 8 C7 8.66 7 9.32 7 10 C7.99 10.66 8.98 11.32 10 12 C6.13783147 13.81749107 3.25894809 14.37951023 -1 14 C-3.7734375 12.46875 -3.7734375 12.46875 -6.375 10.5 C-7.68597656 9.52546875 -7.68597656 9.52546875 -9.0234375 8.53125 C-9.67570312 8.0259375 -10.32796875 7.520625 -11 7 C-9.21020584 1.63061752 -5.59163302 -0.63904377 0 0 Z " fill="#948E8A" transform="translate(395,699)"/>
<path d="M0 0 C1.24210545 0.64223765 2.4772869 1.2995149 3.6875 2 C3.6875 2.66 3.6875 3.32 3.6875 4 C-5.78516484 3.57800555 -15.02429652 3.06627421 -24.3125 1 C-17.2548847 -3.70507687 -7.62007563 -3.42842831 0 0 Z " fill="#736F6B" transform="translate(462.3125,234)"/>
<path d="M0 0 C11.55 0 23.1 0 35 0 C35 0.33 35 0.66 35 1 C22.625 1.495 22.625 1.495 10 2 C9.67 3.65 9.34 5.3 9 7 C5.625 7.125 5.625 7.125 2 7 C1.34 6.34 0.68 5.68 0 5 C0 3.35 0 1.7 0 0 Z " fill="#54504D" transform="translate(431,702)"/>
<path d="M0 0 C8.42110231 -0.85541671 15.49926007 1.13783039 23 5 C25.3828125 7.171875 25.3828125 7.171875 27 9 C20.94364701 8.3436874 15.37056667 6.73971507 9.5625 4.9375 C8.64017578 4.65583984 7.71785156 4.37417969 6.76757812 4.08398438 C4.51026202 3.39392401 2.25450816 2.69916877 0 2 C0 1.34 0 0.68 0 0 Z " fill="#363431" transform="translate(485,317)"/>
<path d="M0 0 C7.26 0 14.52 0 22 0 C22 2.31 22 4.62 22 7 C19.69 6.67 17.38 6.34 15 6 C14.67 6.66 14.34 7.32 14 8 C10 3.25 10 3.25 10 1 C6.7 1 3.4 1 0 1 C0 0.67 0 0.34 0 0 Z " fill="#4B4440" transform="translate(365,661)"/>
<path d="M0 0 C0.33 0 0.66 0 1 0 C0.38641858 8.80171974 -1.29549385 17.35954742 -3 26 C-3.66 25.67 -4.32 25.34 -5 25 C-5.34153786 16.92958695 -5.31718161 9.5016997 -2 2 C-1.34 1.34 -0.68 0.68 0 0 Z " fill="#302E2B" transform="translate(279,386)"/>
<path d="M0 0 C4.79679729 0.04996664 9.40087253 1.1369924 14.0625 2.1875 C14.0625 2.8475 14.0625 3.5075 14.0625 4.1875 C12.00077387 4.52558686 9.9380797 4.85777361 7.875 5.1875 C6.15216797 5.4659375 6.15216797 5.4659375 4.39453125 5.75 C1.55834607 6.12239477 -1.08469564 6.27346021 -3.9375 6.1875 C-3.980221 4.52138095 -3.97813832 2.85367115 -3.9375 1.1875 C-2.9375 0.1875 -2.9375 0.1875 0 0 Z " fill="#BEA9A1" transform="translate(403.9375,579.8125)"/>
<path d="M0 0 C-0.2821289 2.27203802 -0.57602856 4.54261684 -0.875 6.8125 C-1.03742187 8.07707031 -1.19984375 9.34164063 -1.3671875 10.64453125 C-2 14 -2 14 -4 17 C-4.66 17 -5.32 17 -6 17 C-5.97679687 16.18015625 -5.95359375 15.3603125 -5.9296875 14.515625 C-5.91164063 13.43796875 -5.89359375 12.3603125 -5.875 11.25 C-5.84019531 9.64898437 -5.84019531 9.64898437 -5.8046875 8.015625 C-5.99512313 5.07529894 -6.47329896 3.47638122 -8 1 C-5.07175348 0.02391783 -3.04386724 -0.08226668 0 0 Z " fill="#CBC2BF" transform="translate(577,469)"/>
<path d="M0 0 C-1.32 2.64 -2.64 5.28 -4 8 C-6.31 7.67 -8.62 7.34 -11 7 C-11.33 5.02 -11.66 3.04 -12 1 C-10.37681021 0.63762737 -8.7513642 0.28534843 -7.125 -0.0625 C-6.22007812 -0.25972656 -5.31515625 -0.45695313 -4.3828125 -0.66015625 C-2 -1 -2 -1 0 0 Z " fill="#98928E" transform="translate(520,697)"/>
<path d="M0 0 C3.63 0.33 7.26 0.66 11 1 C11 2.65 11 4.3 11 6 C12.65 6 14.3 6 16 6 C16 6.33 16 6.66 16 7 C5.44191344 7.18451025 5.44191344 7.18451025 1 6 C0.67 4.02 0.34 2.04 0 0 Z " fill="#7C736E" transform="translate(398,653)"/>
<path d="M0 0 C2.6245228 0.99550865 3.95028727 1.93963454 5.75 4.125 C7.42728337 7.98275174 7.2127899 10.81513202 7 15 C3.39703406 15.41176754 2.21597933 15.1535853 -0.8125 13 C-1.534375 12.34 -2.25625 11.68 -3 11 C-2.67 10.34 -2.34 9.68 -2 9 C0.475 9.99 0.475 9.99 3 11 C2.690625 9.741875 2.38125 8.48375 2.0625 7.1875 C1.88847656 6.47980469 1.71445312 5.77210938 1.53515625 5.04296875 C1.08989295 3.34316798 0.55566015 1.66698046 0 0 Z " fill="#322E2B" transform="translate(504,518)"/>
<path d="M0 0 C0.88751953 0.30744141 0.88751953 0.30744141 1.79296875 0.62109375 C5.83660816 1.9997571 9.76855249 3.31750847 14 4 C11.8125 6.5625 11.8125 6.5625 9 9 C6.4375 9.125 6.4375 9.125 4 8 C0 3.89189189 0 3.89189189 0 0 Z " fill="#AEDDFA" transform="translate(438,491)"/>
<path d="M0 0 C1.98 0 3.96 0 6 0 C5.37183502 3.94949704 4.1354471 7.19892028 2.4375 10.8125 C1.98246094 11.78832031 1.52742187 12.76414062 1.05859375 13.76953125 C0.70925781 14.50558594 0.35992188 15.24164063 0 16 C-0.33 16 -0.66 16 -1 16 C-1.11138159 10.54230189 -0.91657981 5.38490641 0 0 Z " fill="#CCC2BC" transform="translate(601,464)"/>
<path d="M0 0 C-0.66 3.63 -1.32 7.26 -2 11 C-3.65 11.33 -5.3 11.66 -7 12 C-7.33 11.67 -7.66 11.34 -8 11 C-7.77968006 7.10768107 -7.53011508 4.68914961 -5.125 1.5625 C-3 0 -3 0 0 0 Z " fill="#2B2927" transform="translate(404,308)"/>
<path d="M0 0 C1.65 0.33 3.3 0.66 5 1 C5.625 3.875 5.625 3.875 6 7 C5.34 7.66 4.68 8.32 4 9 C1.375 8.625 1.375 8.625 -1 8 C-1.625 5.6875 -1.625 5.6875 -2 3 C-1.34 2.01 -0.68 1.02 0 0 Z " fill="#55504D" transform="translate(435,678)"/>
<path d="M0 0 C-0.33 4.29 -0.66 8.58 -1 13 C-3.92251873 9.34685159 -6.47031062 5.88488011 -9 2 C-3.375 -1.125 -3.375 -1.125 0 0 Z " fill="#383534" transform="translate(543,587)"/>
<path d="M0 0 C1.98 0 3.96 0 6 0 C6 3.3 6 6.6 6 10 C4.35 10 2.7 10 1 10 C0.67 6.7 0.34 3.4 0 0 Z " fill="#464340" transform="translate(465,726)"/>
<path d="M0 0 C0.94875 0.04125 1.8975 0.0825 2.875 0.125 C3.0625 3 3.0625 3 2.875 6.125 C-0.125 8.125 -0.125 8.125 -2.8125 7.75 C-3.575625 7.54375 -4.33875 7.3375 -5.125 7.125 C-5.25 4.75 -5.25 4.75 -5.125 2.125 C-3.125 0.125 -3.125 0.125 0 0 Z " fill="#544F4C" transform="translate(492.125,680.875)"/>
<path d="M0 0 C0.33 0 0.66 0 1 0 C1.33 8.58 1.66 17.16 2 26 C2.33 26 2.66 26 3 26 C3 30.29 3 34.58 3 39 C1 38 1 38 0.38110352 36.42675781 C-0.15569228 33.00859622 -0.12228133 29.62169205 -0.09765625 26.171875 C-0.0962413 25.42286926 -0.09482635 24.67386353 -0.09336853 23.90216064 C-0.08778659 21.51806588 -0.07523745 19.13406622 -0.0625 16.75 C-0.05748266 15.13020969 -0.05292016 13.51041791 -0.04882812 11.890625 C-0.03782308 7.92704688 -0.02057091 3.96353955 0 0 Z " fill="#494643" transform="translate(330,422)"/>
<path d="M0 0 C4.84647664 7.26971497 5.43262494 14.42761687 5 23 C4.01 23.33 3.02 23.66 2 24 C1.93941406 22.9378125 1.87882812 21.875625 1.81640625 20.78125 C1.20729762 10.36284897 1.20729762 10.36284897 0 0 Z " fill="#BEBBB8" transform="translate(495,701)"/>
<path d="M0 0 C0.66 1.32 1.32 2.64 2 4 C1.01 4.495 1.01 4.495 0 5 C-0.65555119 7.52733235 -0.65555119 7.52733235 -1 10 C-2.98 10 -4.96 10 -7 10 C-7.33 8.02 -7.66 6.04 -8 4 C-6.865625 3.525625 -5.73125 3.05125 -4.5625 2.5625 C-1.24259834 1.36377917 -1.24259834 1.36377917 0 0 Z " fill="#292726" transform="translate(341,588)"/>
<path d="M0 0 C0.86625 0.3403125 0.86625 0.3403125 1.75 0.6875 C1.75 3.3275 1.75 5.9675 1.75 8.6875 C2.41 9.0175 3.07 9.3475 3.75 9.6875 C1.5625 10.125 1.5625 10.125 -1.25 9.6875 C-3.23441782 7.54754673 -4.7523304 5.18574035 -6.25 2.6875 C-2.80384615 -0.38942308 -2.80384615 -0.38942308 0 0 Z " fill="#7E6A63" transform="translate(394.25,579.3125)"/>
<path d="M0 0 C0.33 0 0.66 0 1 0 C1 5.28 1 10.56 1 16 C-3.03328547 13.98335727 -4.51446675 12.63953082 -7 9 C-7 8.01 -7 7.02 -7 6 C-6.34 6 -5.68 6 -5 6 C-4.67 5.34 -4.34 4.68 -4 4 C-3.01 5.98 -2.02 7.96 -1 10 C-0.67 6.7 -0.34 3.4 0 0 Z " fill="#BDB7B3" transform="translate(612,399)"/>
<path d="M0 0 C-0.59927826 3.35595828 -1.84622436 5.37801226 -4 8 C-5.65 7.67 -7.3 7.34 -9 7 C-9.33 5.68 -9.66 4.36 -10 3 C-8.70990357 2.49596232 -7.41786211 1.99690074 -6.125 1.5 C-5.04605469 1.08234375 -5.04605469 1.08234375 -3.9453125 0.65625 C-2 0 -2 0 0 0 Z " fill="#ADDDFB" transform="translate(571,486)"/>
<path d="M0 0 C1.8125 2 1.8125 2 3 4 C-1.04141194 4.63394697 -4.9065307 5.12404452 -9 5 C-9 3.68 -9 2.36 -9 1 C-5.91837616 0.08692627 -3.20679859 -0.41112802 0 0 Z " fill="#433D3A" transform="translate(471,540)"/>
<path d="M0 0 C0.74507813 0.00451172 1.49015625 0.00902344 2.2578125 0.01367188 C4.0885764 0.02540754 5.91929873 0.0433415 7.75 0.0625 C7.75 0.3925 7.75 0.7225 7.75 1.0625 C4.78 1.0625 1.81 1.0625 -1.25 1.0625 C-1.25 1.7225 -1.25 2.3825 -1.25 3.0625 C0.07 3.3925 1.39 3.7225 2.75 4.0625 C-2.40171623 4.15288099 -7.16913204 3.90931133 -12.25 3.0625 C-12.25 2.4025 -12.25 1.7425 -12.25 1.0625 C-8.15996141 -0.08732602 -4.21822949 -0.04844256 0 0 Z " fill="#5B5753" transform="translate(484.25,260.9375)"/>
<path d="M0 0 C0.33 0 0.66 0 1 0 C1.0272367 2.52090778 1.04695207 5.04151457 1.0625 7.5625 C1.07087891 8.26697266 1.07925781 8.97144531 1.08789062 9.69726562 C1.10882603 14.24024798 0.74800682 18.51784892 0 23 C-1.32 23 -2.64 23 -4 23 C-3.69201674 21.51988629 -3.378482 20.04092675 -3.0625 18.5625 C-2.80146484 17.32693359 -2.80146484 17.32693359 -2.53515625 16.06640625 C-2 14 -2 14 -1 13 C-0.76518307 10.81707226 -0.58636677 8.62796826 -0.4375 6.4375 C-0.35371094 5.23996094 -0.26992188 4.04242188 -0.18359375 2.80859375 C-0.12300781 1.88175781 -0.06242188 0.95492188 0 0 Z " fill="#8E8883" transform="translate(612,442)"/>
<path d="M0 0 C0 0.66 0 1.32 0 2 C-1.828125 3.40234375 -1.828125 3.40234375 -4.25 4.9375 C-7.25841232 6.8595412 -10.16833989 8.82429785 -13 11 C-12.835 10.401875 -12.67 9.80375 -12.5 9.1875 C-11.8885876 6.88655664 -11.8885876 6.88655664 -12 4 C-10.56570999 3.32645501 -9.12742943 2.66140299 -7.6875 2 C-6.88699219 1.62875 -6.08648437 1.2575 -5.26171875 0.875 C-3 0 -3 0 0 0 Z " fill="#32302D" transform="translate(345,295)"/>
<path d="M0 0 C1.32 0 2.64 0 4 0 C4.66 1.98 5.32 3.96 6 6 C5 7 5 7 2.5 7.125 C0 7 0 7 -1 6 C-1.125 3.5 -1.125 3.5 -1 1 C-0.67 0.67 -0.34 0.34 0 0 Z " fill="#504C4B" transform="translate(328,593)"/>
<path d="M0 0 C2.31 0.33 4.62 0.66 7 1 C7 1.66 7 2.32 7 3 C4.69 3 2.38 3 0 3 C0 3.99 0 4.98 0 6 C-1.65 6 -3.3 6 -5 6 C-4.67 4.68 -4.34 3.36 -4 2 C-2.68 2 -1.36 2 0 2 C0 1.34 0 0.68 0 0 Z " fill="#BDB9B6" transform="translate(503,596)"/>
<path d="M0 0 C2.31 0.33 4.62 0.66 7 1 C7.33 2.32 7.66 3.64 8 5 C6.02 5.33 4.04 5.66 2 6 C1.34 4.02 0.68 2.04 0 0 Z " fill="#4C4847" transform="translate(333,577)"/>
<path d="M0 0 C3.96 0 7.92 0 12 0 C9.6875 2.5 9.6875 2.5 7 5 C6.01 5 5.02 5 4 5 C4 4.34 4 3.68 4 3 C2.68 2.67 1.36 2.34 0 2 C0 1.34 0 0.68 0 0 Z " fill="#9B827A" transform="translate(383,577)"/>
<path d="M0 0 C2.44325473 0.50073772 4.63731755 1.17819741 7 2 C7 2.33 7 2.66 7 3 C0.25766581 3.12910853 -6.30386804 2.797837 -13 2 C-8.73234357 -0.84510429 -5.00848052 -0.39341539 0 0 Z " fill="#262522" transform="translate(455,233)"/>
<path d="M0 0 C3.3 0 6.6 0 10 0 C9.67 1.65 9.34 3.3 9 5 C2.25 3.375 2.25 3.375 0 0 Z " fill="#A5938C" transform="translate(377,662)"/>
<path d="M0 0 C5.77759884 -0.12036664 11.27959989 0.1679418 17 1 C16.67 1.99 16.34 2.98 16 4 C16 3.34 16 2.68 16 2 C15.01 2.495 15.01 2.495 14 3 C12.18488476 2.96307277 10.37084662 2.84840202 8.5625 2.6875 C7.59441406 2.60886719 6.62632812 2.53023437 5.62890625 2.44921875 C3 2 3 2 0 0 Z " fill="#78716D" transform="translate(414,701)"/>
<path d="M0 0 C0.99 0 1.98 0 3 0 C3.33 5.28 3.66 10.56 4 16 C2.549808 13.09961601 1.62284089 11.03884551 0.875 8 C0.70742188 7.34 0.53984375 6.68 0.3671875 6 C0 4 0 4 0 0 Z " fill="#827C78" transform="translate(479,702)"/>
<path d="M0 0 C0.33 0 0.66 0 1 0 C1.8233264 8.96758211 2.55428477 17.21832675 0 26 C-0.33 26 -0.66 26 -1 26 C-1.16311941 17.28217363 -0.65655389 8.68761489 0 0 Z " fill="#8B8480" transform="translate(599,465)"/>
<path d="M0 0 C1.32 1.32 2.64 2.64 4 4 C0.99382731 7.00617269 -1.82381598 6.59585316 -6 7 C-4.02 4.69 -2.04 2.38 0 0 Z " fill="#58524F" transform="translate(511,729)"/>
<path d="M0 0 C0.33 0 0.66 0 1 0 C1.05422947 1.4370809 1.09289723 2.87475462 1.125 4.3125 C1.14820313 5.11300781 1.17140625 5.91351563 1.1953125 6.73828125 C1 9 1 9 -1 12 C-1.33 10.35 -1.66 8.7 -2 7 C-2.99 7 -3.98 7 -5 7 C-4.19152271 5.83054208 -3.37810888 4.66449539 -2.5625 3.5 C-2.11003906 2.8503125 -1.65757812 2.200625 -1.19140625 1.53125 C-0.79824219 1.0259375 -0.40507813 0.520625 0 0 Z " fill="#A99790" transform="translate(580,501)"/>
<path d="M0 0 C2.08412907 0.06023494 4.16744435 0.14908321 6.25 0.25 C7.41015625 0.29640625 8.5703125 0.3428125 9.765625 0.390625 C13.46661382 1.08791275 14.67122429 2.11785184 17 5 C11.0870696 4.35729017 5.65755469 2.80996216 0 1 C0 0.67 0 0.34 0 0 Z " fill="#4F4B48" transform="translate(495,321)"/>
<path d="M0 0 C0.33 0.66 0.66 1.32 1 2 C1.99 2.66 2.98 3.32 4 4 C0.17010894 5.80230168 -2.78121808 6.19622241 -7 6 C-7.33 5.34 -7.66 4.68 -8 4 C-5.03 4.495 -5.03 4.495 -2 5 C-2 4.34 -2 3.68 -2 3 C-3.32 2.67 -4.64 2.34 -6 2 C-4.02 1.34 -2.04 0.68 0 0 Z " fill="#807A77" transform="translate(401,707)"/>
<path d="M0 0 C0.33 2.31 0.66 4.62 1 7 C0.236875 6.38125 -0.52625 5.7625 -1.3125 5.125 C-3.99625809 2.94402948 -3.99625809 2.94402948 -7 1 C-3.375 -1.125 -3.375 -1.125 0 0 Z " fill="#B5A19A" transform="translate(544,652)"/>
<path d="M0 0 C1.62490954 -0.02698189 3.24994633 -0.04638757 4.875 -0.0625 C5.77992188 -0.07410156 6.68484375 -0.08570313 7.6171875 -0.09765625 C10 0 10 0 12 1 C12 1.66 12 2.32 12 3 C8.04 2.67 4.08 2.34 0 2 C0 1.34 0 0.68 0 0 Z " fill="#464340" transform="translate(485,317)"/>
<path d="M0 0 C1.98 0.495 1.98 0.495 4 1 C3.67 2.65 3.34 4.3 3 6 C1.68 5.67 0.36 5.34 -1 5 C-0.67 3.35 -0.34 1.7 0 0 Z " fill="#655F5C" transform="translate(401,622)"/>
<path d="M0 0 C0.66 0.33 1.32 0.66 2 1 C0.35 2.65 -1.3 4.3 -3 6 C-2.67 6.66 -2.34 7.32 -2 8 C-4.64 8.66 -7.28 9.32 -10 10 C-6.66666667 6.66666667 -3.33333333 3.33333333 0 0 Z " fill="#746863" transform="translate(546,455)"/>
<path d="M0 0 C1.65 0 3.3 0 5 0 C5.66 1.32 6.32 2.64 7 4 C4.69 4 2.38 4 0 4 C0 2.68 0 1.36 0 0 Z " fill="#BBB6B3" transform="translate(440,600)"/>
<path d="M0 0 C5.13503344 0.64187918 9.9943454 1.68272247 15 3 C15 3.33 15 3.66 15 4 C11.7 4 8.4 4 5 4 C5 3.34 5 2.68 5 2 C3.35 1.67 1.7 1.34 0 1 C0 0.67 0 0.34 0 0 Z " fill="#BCA8A0" transform="translate(449,567)"/>
<path d="M0 0 C2.96404505 2.80804268 5.44499019 5.18315774 7 9 C6.01 9 5.02 9 4 9 C2.61328125 7.46875 2.61328125 7.46875 1.3125 5.5 C0.87550781 4.8503125 0.43851563 4.200625 -0.01171875 3.53125 C-0.50091797 2.77328125 -0.50091797 2.77328125 -1 2 C-0.67 1.34 -0.34 0.68 0 0 Z " fill="#D7D1CE" transform="translate(598,395)"/>
<path d="M0 0 C0.99 0.33 1.98 0.66 3 1 C3 2.65 3 4.3 3 6 C1.02 6.99 1.02 6.99 -1 8 C-0.67 5.36 -0.34 2.72 0 0 Z " fill="#BCB8B4" transform="translate(415,607)"/>
<path d="M0 0 C6.75 -0.125 6.75 -0.125 9 1 C9 1.66 9 2.32 9 3 C5.625 3.1875 5.625 3.1875 2 3 C1.34 2.01 0.68 1.02 0 0 Z " fill="#706C69" transform="translate(431,706)"/>
<path d="M0 0 C0.33 0 0.66 0 1 0 C0.67 3.3 0.34 6.6 0 10 C-0.99 9.01 -1.98 8.02 -3 7 C-2.75546876 3.65807308 -2.39456443 2.39456443 0 0 Z " fill="#363331" transform="translate(279,386)"/>
<path d="M0 0 C0 0.66 0 1.32 0 2 C-2.31 3.32 -4.62 4.64 -7 6 C-7 5.34 -7 4.68 -7 4 C-7.66 3.67 -8.32 3.34 -9 3 C-3.375 0 -3.375 0 0 0 Z " fill="#4D4946" transform="translate(345,295)"/>
<path d="M0 0 C0.66 0.66 1.32 1.32 2 2 C1.68134222 5.29279709 0.45484649 6.86535088 -2 9 C-1.125 2.25 -1.125 2.25 0 0 Z " fill="#3F3C39" transform="translate(317,317)"/>
<path d="M0 0 C1.32 0 2.64 0 4 0 C4 1.65 4 3.3 4 5 C2.68 4.67 1.36 4.34 0 4 C0 2.68 0 1.36 0 0 Z " fill="#BBB7B4" transform="translate(423,607)"/>
<path d="M0 0 C2.64 0 5.28 0 8 0 C8.33 0.99 8.66 1.98 9 3 C2.84765625 2.4140625 2.84765625 2.4140625 1 2 C0.67 1.34 0.34 0.68 0 0 Z " fill="#403D3A" transform="translate(527,323)"/>
<path d="M0 0 C2.82328089 2.82328089 2.79396942 5.08541907 3 9 C1.5625 10.9375 1.5625 10.9375 0 12 C-1.43348316 9.13303368 -0.55925559 7.10697549 0 4 C0 2.68 0 1.36 0 0 Z " fill="#918A86" transform="translate(319,301)"/>
<path d="M0 0 C4.54805635 -0.17835515 7.8794254 0.00214565 12 2 C12 2.33 12 2.66 12 3 C10.56163249 2.88541307 9.12429034 2.75790884 7.6875 2.625 C6.88699219 2.55539063 6.08648437 2.48578125 5.26171875 2.4140625 C3 2 3 2 0 0 Z " fill="#D2CAC5" transform="translate(454,231)"/>
<path d="M0 0 C2.88437779 1.29299694 4.87219421 2.65941363 7 5 C6.34 5 5.68 5 5 5 C4.67 5.66 4.34 6.32 4 7 C0 2.25 0 2.25 0 0 Z " fill="#534B47" transform="translate(368,674)"/>
<path d="M0 0 C1.1171875 1.765625 1.1171875 1.765625 2 4 C1.06434658 6.64564072 -0.45014515 8.62963376 -2 11 C-3 9 -3 9 -2.44140625 6.8359375 C-2.15136719 6.02382813 -1.86132812 5.21171875 -1.5625 4.375 C-1.27503906 3.55773437 -0.98757813 2.74046875 -0.69140625 1.8984375 C-0.46324219 1.27195312 -0.23507812 0.64546875 0 0 Z " fill="#3B3936" transform="translate(490,632)"/>
<path d="M0 0 C0.99 0.33 1.98 0.66 3 1 C3 2.32 3 3.64 3 5 C1.68 5 0.36 5 -1 5 C-0.67 3.35 -0.34 1.7 0 0 Z " fill="#BCB8B4" transform="translate(432,595)"/>
<path d="M0 0 C2.97 0.495 2.97 0.495 6 1 C5.360625 1.185625 4.72125 1.37125 4.0625 1.5625 C1.57873787 2.94246056 1.57873787 2.94246056 1.25 6.625 C1.1675 7.73875 1.085 8.8525 1 10 C0.67 10 0.34 10 0 10 C0 6.7 0 3.4 0 0 Z " fill="#ADB7BF" transform="translate(454,479)"/>
<path d="M0 0 C1 2 1 2 0.375 4.5625 C-1 7 -1 7 -3.625 7.8125 C-4.40875 7.874375 -5.1925 7.93625 -6 8 C-4.02 5.36 -2.04 2.72 0 0 Z " fill="#3A3734" transform="translate(358,353)"/>
<path d="M0 0 C0.33 0.99 0.66 1.98 1 3 C-0.375 5.6875 -0.375 5.6875 -2 8 C-2.33 8 -2.66 8 -3 8 C-2.74438677 5.6568787 -2.40729228 3.32156597 -2 1 C-1.34 0.67 -0.68 0.34 0 0 Z " fill="#322F2D" transform="translate(362,284)"/>
<path d="M0 0 C1.65 1.65 3.3 3.3 5 5 C1.7 4.01 -1.6 3.02 -5 2 C-3.68 1.67 -2.36 1.34 -1 1 C-0.67 0.67 -0.34 0.34 0 0 Z " fill="#4C4845" transform="translate(508,269)"/>
<path d="M0 0 C2.64 0.66 5.28 1.32 8 2 C8 2.99 8 3.98 8 5 C4.20411134 4.45773019 2.52788007 2.79872437 0 0 Z " fill="#9D9590" transform="translate(460,339)"/>
</svg>
