<?xml version="1.0" encoding="UTF-8"?>
<svg version="1.1" xmlns="http://www.w3.org/2000/svg" width="900" height="900">
<path d="M0 0 C1.43569703 0.48841225 2.87617045 0.96293546 4.3203125 1.42578125 C16.24846769 5.3184723 27.91157022 10.4896155 37.765625 18.30859375 C39.82043068 19.86406728 41.64690593 20.86316955 44 21.875 C48.81305648 24.1001809 52.31273215 27.74312095 56.1328125 31.3515625 C58.89247799 33.90068131 61.73988629 36.23543655 64.6875 38.5625 C69.64207687 42.56317845 74.20672694 46.85897376 78 52 C78 52.66 78 53.32 78 54 C78.99 54.33 79.98 54.66 81 55 C86.9453706 61.28141328 91.47746578 68.67390385 96 76 C97.22808403 77.89653483 98.45723995 79.79237601 99.6875 81.6875 C104.79719576 89.74465946 108.44015714 98.15954432 112 107 C112.43699219 108.08023438 112.87398437 109.16046875 113.32421875 110.2734375 C115.69401567 116.26553661 117.71544405 122.2042734 119.31640625 128.4453125 C119.9687811 130.8833305 120.7337995 133.24197069 121.5625 135.625 C122.58118579 138.58605041 123.36577406 141.49620104 124 144.5625 C124.60067649 147.44177576 125.34835254 150.08116647 126.4375 152.8125 C132.64356255 168.82915637 133.15991454 185.58189005 132.96166992 202.52612305 C132.88918224 212.62826974 133.51298406 222.62110068 134.2890625 232.68652344 C135.46179626 248.08703067 135.17098495 262.70584282 130.68359375 277.6328125 C129.96275575 279.98567206 129.96275575 279.98567206 129.5546875 282.390625 C128.73912423 286.22721842 127.34705011 289.82296462 126.00097656 293.50073242 C124.99781409 296.24457279 124.00507014 298.9844823 123.09765625 301.76171875 C119.38826 312.92409548 113.70830462 324.21095151 106.23828125 333.33203125 C104.93693086 335.08495432 104.20414683 336.73635769 103.375 338.75 C100.83512705 344.19411587 96.21016606 348.02438577 91.9375 352.11328125 C89.62800339 354.3337841 87.63895125 356.64146595 85.6875 359.1875 C80.81510869 365.00253988 73.53777585 368.3650976 67 372 C67.59663481 374.52282636 68.20205141 377.0430122 68.8125 379.5625 C69.0609668 380.61920898 69.0609668 380.61920898 69.31445312 381.69726562 C70.14428928 385.09489668 71.05290757 388.11939195 72.4765625 391.33203125 C74.47891542 396.15308098 75.48706065 401.02938518 76.5625 406.125 C76.97658367 408.06593708 77.39443049 410.00607592 77.81640625 411.9453125 C77.99631104 412.79625488 78.17621582 413.64719727 78.36157227 414.52392578 C78.9468023 417.03907626 78.9468023 417.03907626 80.03442383 419.4699707 C81.09182706 422.24060779 81.40371911 424.58287247 81.6328125 427.53515625 C81.75849609 429.12166992 81.75849609 429.12166992 81.88671875 430.74023438 C81.96535156 431.83658203 82.04398438 432.93292969 82.125 434.0625 C82.21136719 435.13177734 82.29773438 436.20105469 82.38671875 437.30273438 C83.74120633 455.09382128 82.0826219 463.90284681 70.9296875 478.1015625 C68.8997621 480.09861461 67.78330998 480.64126227 65 481 C65 481.66 65 482.32 65 483 C62.36 483.66 59.72 484.32 57 485 C56.6596875 486.794375 56.6596875 486.794375 56.3125 488.625 C51.98332522 507.43451801 51.98332522 507.43451801 45.9375 511.375 C42.89234752 512.95486128 41.62824902 513 38 513 C38.91549267 520.75465613 38.91549267 520.75465613 41.5625 528 C43.84019841 532.75345755 43.75548765 537.78935741 44 543 C31.67101721 548.59447532 19.29601028 549.47782177 5.93920898 549.33618164 C3.56784905 549.3125533 1.19762049 549.31565583 -1.17382812 549.32226562 C-11.28251913 549.30225152 -20.99088806 548.43477276 -31 547 C-31.99 540.73 -32.98 534.46 -34 528 C-36.64 528 -39.28 528 -42 528 C-41.68289063 528.84820313 -41.36578125 529.69640625 -41.0390625 530.5703125 C-39.97128768 534.09477225 -39.59958921 537.20670957 -39.375 540.875 C-39.30023438 542.02742187 -39.22546875 543.17984375 -39.1484375 544.3671875 C-39.07496094 545.67042969 -39.07496094 545.67042969 -39 547 C-41.16567544 547.48362696 -43.33259741 547.96167317 -45.5 548.4375 C-47.30984375 548.83775391 -47.30984375 548.83775391 -49.15625 549.24609375 C-71.37350139 553.6037457 -97.29498816 552.72796863 -119 546 C-118.86164197 541.54140138 -118.71305421 537.08320214 -118.5625 532.625 C-118.52318359 531.35398437 -118.48386719 530.08296875 -118.44335938 528.7734375 C-118.40146484 527.56171875 -118.35957031 526.35 -118.31640625 525.1015625 C-118.27974854 523.98088379 -118.24309082 522.86020508 -118.20532227 521.70556641 C-118 519 -118 519 -117 517 C-117.99 517.33 -118.98 517.66 -120 518 C-124.94564589 518.41213716 -128.99172695 518.44430455 -133.37109375 515.73046875 C-135.64436842 513.31545513 -136.4833702 510.70378086 -137.6875 507.625 C-140.9572852 499.77926876 -145.48929515 498.14102037 -153 495 C-162.61796787 489.36473017 -169.19745349 480.3569359 -173 470 C-173.825 470.165 -174.65 470.33 -175.5 470.5 C-179.41272317 471.05896045 -183.05183173 471.06807187 -187 471 C-196.81881768 450.83923092 -186.90613016 418.14543388 -180.87890625 398.0546875 C-179.64027514 393.74975627 -178.76286122 389.41099952 -178 385 C-177.69964844 384.02933594 -177.39929688 383.05867188 -177.08984375 382.05859375 C-176.64993591 378.78367248 -176.64993591 378.78367248 -179.359375 376.25390625 C-180.4712805 375.33418402 -181.60304665 374.43812597 -182.75 373.5625 C-183.3483667 373.08151855 -183.9467334 372.60053711 -184.56323242 372.10498047 C-188.83598752 368.73011085 -193.3155659 365.83313047 -197.97265625 363.015625 C-202.65611458 359.89734823 -206.93426321 356.3030419 -211.25512695 352.70556641 C-214.34636637 350.13540946 -217.43367702 347.65527634 -220.73828125 345.36328125 C-223.49521278 343.42913975 -225.74122985 341.38726569 -227.9375 338.8125 C-228.52402344 338.13832031 -229.11054688 337.46414063 -229.71484375 336.76953125 C-231 335 -231 335 -231 333 C-231.99 332.67 -232.98 332.34 -234 332 C-238.96210483 326.26894914 -247 315.80157523 -247 308 C-247.66 308 -248.32 308 -249 308 C-249.26554688 306.77023437 -249.53109375 305.54046875 -249.8046875 304.2734375 C-250.16128691 302.64058755 -250.51806733 301.00777713 -250.875 299.375 C-251.13603516 298.16263672 -251.13603516 298.16263672 -251.40234375 296.92578125 C-252.15643685 293.49046824 -252.94060652 290.17600485 -254.06640625 286.83984375 C-255.12226753 283.62808161 -255.60723449 280.53504051 -256.0625 277.1875 C-256.28810777 273.27318789 -256.28810777 273.27318789 -258 270 C-258.37578842 267.0201153 -258.70691037 264.05064039 -259 261.0625 C-259.16310908 259.40719767 -259.32961794 257.75222578 -259.5 256.09765625 C-259.5721875 255.36039307 -259.644375 254.62312988 -259.71875 253.86352539 C-259.91514408 251.91243924 -259.91514408 251.91243924 -261 250 C-261.22644308 247.65649093 -261.39417035 245.30723001 -261.53515625 242.95703125 C-261.59989388 241.88936272 -261.59989388 241.88936272 -261.66593933 240.80012512 C-261.80432891 238.47122706 -261.93452614 236.14199263 -262.0625 233.8125 C-262.12878601 232.62210114 -262.12878601 232.62210114 -262.19641113 231.40765381 C-264.15046665 195.82928236 -261.07653555 162.50086441 -252 128 C-251.77699219 127.0925 -251.55398437 126.185 -251.32421875 125.25 C-249.80701826 119.2829098 -247.77000054 113.74878327 -245.28125 108.1171875 C-244.26932162 105.65523979 -243.41807042 103.2521739 -242.609375 100.72265625 C-241.00467364 95.82667964 -238.96293957 91.21085649 -236.75 86.5625 C-236.35594971 85.73137695 -235.96189941 84.90025391 -235.5559082 84.04394531 C-232.95284962 78.67267147 -230.08667035 73.76770749 -226.484375 68.9921875 C-225.12697154 67.17040918 -224.01856435 65.36876621 -222.9375 63.375 C-220.59898645 59.30146027 -217.88855396 55.69496949 -215 52 C-214.34386719 51.14535156 -213.68773437 50.29070312 -213.01171875 49.41015625 C-212.32722656 48.53230469 -211.64273438 47.65445313 -210.9375 46.75 C-210.30714844 45.94046875 -209.67679687 45.1309375 -209.02734375 44.296875 C-206.8709732 41.85381935 -204.55974272 40.01039154 -202 38 C-201.22269531 37.2059375 -200.44539063 36.411875 -199.64453125 35.59375 C-186.96433956 23.15704796 -172.4951239 17.83061646 -155.16796875 15.44140625 C-143.11185994 13.96715518 -143.11185994 13.96715518 -133.796875 6.90234375 C-128.23039625 1.0091369 -119.66225875 -3.42995071 -112 -6 C-111.01 -6 -110.02 -6 -109 -6 C-109 -6.66 -109 -7.32 -109 -8 C-73.99209637 -16.99247226 -33.32797629 -14.48882155 0 0 Z " fill="#1D1C1A" transform="translate(485,200)"/>
<path d="M0 0 C8.00880399 -0.86906888 14.05246861 4.1479306 20.44287109 8.36328125 C22.31690286 9.57704781 22.31690286 9.57704781 25.11328125 10.890625 C29.01249166 12.87030123 32.47904116 15.26426825 36.02734375 17.80859375 C36.71570313 18.2778125 37.4040625 18.74703125 38.11328125 19.23046875 C39.94695294 20.54751072 41.60713543 21.78698473 43.15234375 23.43359375 C43.59765625 26.28515625 43.59765625 26.28515625 43.15234375 28.43359375 C43.99667969 28.29566406 44.84101563 28.15773438 45.7109375 28.015625 C50.78083661 28.63137892 52.85434188 31.4766058 56.21484375 35.12109375 C56.81361328 35.74693359 57.41238281 36.37277344 58.02929688 37.01757812 C59.20956936 38.25214573 60.38400014 39.49232711 61.55224609 40.73828125 C62.88807675 42.15360137 64.25666306 43.53791306 65.6328125 44.9140625 C74.99823772 54.27948772 84.00115003 63.98987679 92.15234375 74.43359375 C92.57386719 74.9661377 92.99539063 75.49868164 93.4296875 76.04736328 C106.15234375 92.12124094 106.15234375 92.12124094 106.15234375 97.43359375 C106.81234375 97.43359375 107.47234375 97.43359375 108.15234375 97.43359375 C109.16378943 99.6581722 110.1615464 101.88733666 111.15234375 104.12109375 C111.43851563 104.74693359 111.7246875 105.37277344 112.01953125 106.01757812 C113.59781491 109.60629455 114.67949901 112.50130043 114.15234375 116.43359375 C112.52734375 118.24609375 112.52734375 118.24609375 110.15234375 120.43359375 C109.19601801 121.69032152 108.26031044 122.96286942 107.33984375 124.24609375 C95.20512509 140.49580364 76.06243746 147.64315776 58.0703125 155.71875 C34.0899367 166.58616281 17.24757747 181.65324366 7.15234375 206.43359375 C6.66507812 207.59890625 6.1778125 208.76421875 5.67578125 209.96484375 C-1.04231274 228.35120626 -1.23339376 249.1916011 3.27734375 268.05859375 C3.49181152 268.95868164 3.7062793 269.85876953 3.92724609 270.78613281 C6.47518936 281.1679706 9.77832324 291.29633851 13.15234375 301.43359375 C13.41233154 302.23474609 13.67231934 303.03589844 13.94018555 303.86132812 C15.34159428 308.15569294 16.88293788 312.29888458 18.71484375 316.43359375 C20.83393907 321.41219118 22.1778288 326.11805766 23.15234375 331.43359375 C14.30666101 334.38215466 3.28026044 332.53374591 -5.78515625 331.12109375 C-6.93661133 330.94465332 -6.93661133 330.94465332 -8.11132812 330.76464844 C-10.37391796 330.38299502 -12.6051488 329.91859157 -14.84765625 329.43359375 C-16.06062378 329.23491699 -16.06062378 329.23491699 -17.2980957 329.03222656 C-19.85097678 328.45991756 -21.66842215 327.8895052 -23.84765625 326.43359375 C-25.75952694 323.06564978 -26.42806606 319.58642114 -27.16015625 315.80859375 C-27.39250977 314.76896484 -27.62486328 313.72933594 -27.86425781 312.65820312 C-28.3321309 310.5576277 -28.78529705 308.45371835 -29.22314453 306.34667969 C-29.75802079 303.85170566 -30.35909137 301.40201732 -31.03125 298.94140625 C-33.99158023 287.95945099 -34.89760671 276.94560638 -35.61401367 265.61572266 C-35.78810122 263.25653977 -35.78810122 263.25653977 -36.84765625 260.43359375 C-37.16854467 279.01056499 -37.12397449 297.0171069 -34.12890625 315.41259766 C-33.80094203 317.76927108 -33.7300803 320.05757978 -33.84765625 322.43359375 C-37.15450767 322.33993565 -39.86512267 321.90477614 -42.84765625 320.43359375 C-45.1796983 317.01674607 -46.43134442 313.30060244 -47.84765625 309.43359375 C-48.49387398 308.19355432 -49.15888586 306.96301219 -49.84765625 305.74609375 C-55.3483197 294.67902186 -57.73371643 282.13784469 -60.53515625 270.18359375 C-60.83268799 268.91692871 -61.13021973 267.65026367 -61.43676758 266.34521484 C-63.18512888 258.7433419 -64.67233675 251.14511974 -65.84765625 243.43359375 C-68.30253417 247.11591063 -68.97432807 249.61055685 -68.98046875 253.93359375 C-68.98272461 254.8148291 -68.98498047 255.69606445 -68.98730469 256.60400391 C-68.9824707 257.53776855 -68.97763672 258.4715332 -68.97265625 259.43359375 C-68.96782227 260.39185059 -68.96298828 261.35010742 -68.95800781 262.33740234 C-68.86540392 273.22206374 -67.62829318 283.18955964 -65.21972656 293.79931641 C-64.3354184 297.74787404 -63.59178214 301.35611599 -63.84765625 305.43359375 C-80.8170183 294.33824164 -90.85817092 276.68002998 -95.84765625 257.43359375 C-96.24420869 255.10528795 -96.54080092 252.77602404 -96.84765625 250.43359375 C-97.17765625 250.10359375 -97.50765625 249.77359375 -97.84765625 249.43359375 C-98.28290857 247.03378808 -98.66151995 244.64793481 -99.00390625 242.234375 C-99.1109639 241.49715714 -99.21802155 240.75993927 -99.32832336 240.00038147 C-103.67048582 209.76267366 -103.67048582 209.76267366 -103.8125 194.86132812 C-103.83957937 192.22108958 -103.88258076 189.5830525 -103.9375 186.94335938 C-104.30876795 168.44516454 -104.43961165 150.06538617 -102.09765625 131.68359375 C-101.94079346 130.43787598 -101.78393066 129.1921582 -101.62231445 127.90869141 C-100.57806581 120.55537792 -98.90287855 113.57383883 -96.73510742 106.47119141 C-95.96430153 103.83285112 -95.37681229 101.26392936 -94.91015625 98.55859375 C-92.85653887 87.68335043 -89.10557273 77.32893007 -84.27734375 67.3984375 C-83.25995487 65.28860646 -82.3066254 63.14736946 -81.3984375 60.98828125 C-76.96661831 50.82970325 -71.13866615 41.75315683 -63.84765625 33.43359375 C-63.00203125 32.45519531 -62.15640625 31.47679687 -61.28515625 30.46875 C-55.34965653 23.72371851 -49.04852046 17.84769643 -41.84765625 12.43359375 C-41.09871094 11.85738281 -40.34976563 11.28117188 -39.578125 10.6875 C-29.11972197 3.13106826 -17.36164983 1.56011579 -4.82861328 0.60498047 C-3.21252873 0.46516147 -1.60363867 0.24417544 0 0 Z " fill="#A39B96" transform="translate(344.84765625,230.56640625)"/>
<path d="M0 0 C3.59531525 1.43025315 7.17661378 2.89081578 10.75 4.375 C11.8121875 4.81457031 12.874375 5.25414062 13.96875 5.70703125 C16.43904671 6.7607274 18.8367071 7.88834019 21.25 9.0625 C27.83339479 12.01613118 35.00223678 13.35850944 42 15 C64.7569307 20.42248577 84.13923664 25.95395353 101 43 C101.763125 43.64453125 102.52625 44.2890625 103.3125 44.953125 C105.59440506 47.72099132 105.44082461 49.46001077 105.3125 53 C105.28800781 54.03125 105.26351562 55.0625 105.23828125 56.125 C105.03727466 58.55025981 104.68754659 60.67463917 104 63 C101.03 62.505 101.03 62.505 98 62 C98 61.34 98 60.68 98 60 C86.96867304 60.63368701 78.8201309 61.76296952 70 69 C69.154375 69.680625 68.30875 70.36125 67.4375 71.0625 C64.22239785 73.78297105 61.53623473 76.09510389 59.375 79.7421875 C58.92125 80.48726563 58.4675 81.23234375 58 82 C57.34 82 56.68 82 56 82 C55.73703125 82.72574219 55.4740625 83.45148438 55.203125 84.19921875 C53.17274501 88.92578515 50.00566208 92.8514286 47 97 C46.23429687 98.13115234 46.23429687 98.13115234 45.453125 99.28515625 C42.12320354 104.0741562 39.18674136 106.3576978 34 109 C31.97022023 110.27219734 31.97022023 110.27219734 31 112 C31.15482861 114.94174365 31.82493827 116.72039437 33.38671875 119.21484375 C35.25644409 122.4427231 36.45293851 125.66918512 37.6875 129.1875 C38.12449219 130.41855469 38.56148437 131.64960938 39.01171875 132.91796875 C40 136 40 136 40 138 C40.66 138 41.32 138 42 138 C43.2265625 139.72265625 43.2265625 139.72265625 44.625 142.0625 C48.8065639 148.53882457 54.54411485 154.51470495 62 157 C70.04068636 157.93130299 77.31152385 156.2542129 85 154 C85 153.34 85 152.68 85 152 C89.47058824 148 89.47058824 148 92 148 C92.3403125 147.2265625 92.3403125 147.2265625 92.6875 146.4375 C94.48981755 143.09033884 96.61282504 139.96109508 99 137 C99.33 137 99.66 137 100 137 C100.79528092 150.76719629 99.15483154 162.03117449 89.8671875 172.953125 C89.25101563 173.62859375 88.63484375 174.3040625 88 175 C87.10667969 176.01320313 87.10667969 176.01320313 86.1953125 177.046875 C80.8435417 182.7761566 74.62230355 186.86644252 68 191 C66.74509766 191.804375 66.74509766 191.804375 65.46484375 192.625 C40.02409155 208.50995747 13.06924145 213.21684896 -16.4375 213.25 C-17.23093811 213.25167175 -18.02437622 213.25334351 -18.84185791 213.25506592 C-30.41244199 213.25651083 -41.86065213 212.76859927 -53.375 211.625 C-54.65044678 211.49899414 -55.92589355 211.37298828 -57.23999023 211.24316406 C-63.05615075 210.60977948 -68.42862074 209.76164434 -74 208 C-77.10313933 207.45505846 -80.20909428 207.00581401 -83.328125 206.5625 C-86 206 -86 206 -89 204 C-89.6875 201.375 -89.6875 201.375 -90 199 C-90.66 199 -91.32 199 -92 199 C-92.24121582 198.16976318 -92.24121582 198.16976318 -92.48730469 197.32275391 C-97.02051549 181.73693168 -97.02051549 181.73693168 -103.0625 166.69140625 C-106.19268643 159.8671395 -108.38291188 153.65823755 -108 146 C-108.66 146 -109.32 146 -110 146 C-111.6887323 137.52954843 -112.28363234 129.43911293 -112.1875 120.8125 C-112.18685547 119.70197266 -112.18621094 118.59144531 -112.18554688 117.44726562 C-112.0945687 100.35347834 -112.0945687 100.35347834 -108.9375 93.9375 C-108.39416016 92.80634766 -108.39416016 92.80634766 -107.83984375 91.65234375 C-107.42412109 90.83443359 -107.42412109 90.83443359 -107 90 C-105.02 90.99 -103.04 91.98 -101 93 C-101.01047363 93.69448242 -101.02094727 94.38896484 -101.03173828 95.10449219 C-101.07388819 98.31962307 -101.09951061 101.5346955 -101.125 104.75 C-101.14175781 105.84183594 -101.15851563 106.93367188 -101.17578125 108.05859375 C-101.28037539 125.73500383 -97.45482086 140.05027638 -85.01953125 153.07421875 C-72.82035522 164.29940867 -57.82548935 167.6373651 -41.6640625 167.20703125 C-37.08831384 166.94848682 -32.54289642 166.61154375 -28 166 C-28 165.34 -28 164.68 -28 164 C-27.2265625 163.72027344 -26.453125 163.44054687 -25.65625 163.15234375 C-13.42753012 158.44549736 -5.84251066 151.2290722 1 140 C2.54559013 136.43694853 3.67448121 132.76611382 4.734375 129.03125 C6.21869792 125.47620499 7.95763897 124.26579715 11 122 C12.25156492 118.63341001 12.25156492 118.63341001 11 115 C6.37232267 110.53087264 0.42446473 107.66305369 -5.125 104.5 C-12.84367244 100.06250458 -18.55003088 94.69774475 -24.30078125 87.96484375 C-38.01588207 72.10577315 -56.63702501 59.32903388 -77 54 C-73.32189599 50.9092372 -69.20189683 49.05931112 -64.875 47.0625 C-64.11888428 46.71058594 -63.36276855 46.35867188 -62.58374023 45.99609375 C-47.4401123 39 -47.4401123 39 -44 39 C-44 38.34 -44 37.68 -44 37 C-43.15179688 36.61070312 -42.30359375 36.22140625 -41.4296875 35.8203125 C-23.58913578 27.31174168 -10.9959747 16.61771096 0 0 Z " fill="#D0B9B1" transform="translate(473,353)"/>
<path d="M0 0 C2.3343349 0.0106447 4.6678868 0.00009139 7.00219727 -0.01269531 C19.79045848 -0.02484215 32.55631522 0.64618427 44.84790039 4.47949219 C47.35367991 5.17361394 49.80161983 5.67105495 52.35571289 6.14355469 C57.6852585 7.18553968 62.68822778 8.80520657 67.79321289 10.63574219 C68.6349707 10.92707031 69.47672852 11.21839844 70.34399414 11.51855469 C75.67563663 13.40322831 80.67116068 15.62179128 85.66821289 18.26074219 C86.88172985 18.88058223 88.09527113 19.50037466 89.30883789 20.12011719 C102.6957295 27.08444896 114.33442738 35.34181821 125.66821289 45.26074219 C126.43262695 45.91300781 127.19704102 46.56527344 127.98461914 47.23730469 C138.29318516 56.07321842 148.14955422 66.21493604 154.66821289 78.26074219 C154.66821289 78.92074219 154.66821289 79.58074219 154.66821289 80.26074219 C155.32821289 80.26074219 155.98821289 80.26074219 156.66821289 80.26074219 C172.66821289 109.68009703 172.66821289 109.68009703 172.66821289 119.26074219 C173.32821289 119.26074219 173.98821289 119.26074219 174.66821289 119.26074219 C174.91055664 120.29972656 175.15290039 121.33871094 175.40258789 122.40917969 C177.50356992 131.45930964 177.50356992 131.45930964 180.60571289 140.19824219 C188.33735999 158.39215779 188.8464217 175.75099058 188.66821289 195.26074219 C183.76752597 192.81940734 181.03903576 189.35807967 177.66821289 185.19824219 C171.68360465 178.04380134 165.34369755 172.55591886 157.66821289 167.26074219 C156.26829102 166.26107422 156.26829102 166.26107422 154.84008789 165.24121094 C142.90786489 157.79091899 129.33013893 154.00181937 115.66821289 151.26074219 C95.76549184 147.12966229 76.98793765 142.74152571 62.66821289 127.26074219 C61.18321289 126.76574219 61.18321289 126.76574219 59.66821289 126.26074219 C58.30089799 123.81740991 57.09131585 121.41977076 55.91821289 118.88574219 C48.49232726 103.53279584 38.54806953 91.4075212 27.03149414 78.96777344 C24.92538972 76.55532655 22.96291586 74.0882875 20.99243164 71.56542969 C16.72432115 66.20115136 12.04825272 61.37886729 7.16821289 56.57324219 C6.36512695 55.77080078 5.56204102 54.96835937 4.73461914 54.14160156 C-10.01523163 39.49932669 -26.51190925 26.30708224 -45.33178711 17.26074219 C-45.33178711 15.94074219 -45.33178711 14.62074219 -45.33178711 13.26074219 C-42.74297481 10.89863721 -39.56542714 9.35019873 -36.51928711 7.63574219 C-35.70524414 7.14589844 -34.89120117 6.65605469 -34.05249023 6.15136719 C-23.22047003 -0.06748676 -12.18507062 -0.06584471 0 0 Z " fill="#CCC2BC" transform="translate(410.331787109375,204.7392578125)"/>
<path d="M0 0 C7.72174923 5.45714466 14.55661262 11.66938444 20.4375 19.0625 C22.08444485 20.74865782 23.74876121 22.41820171 25.4375 24.0625 C25.911875 24.619375 26.38625 25.17625 26.875 25.75 C29.14035245 27.65289606 31.6270553 28.25059375 34.4375 29.0625 C34.7675 27.4125 35.0975 25.7625 35.4375 24.0625 C37.25 24.125 37.25 24.125 39.4375 25.0625 C41.55271781 28.99076165 43.28680792 32.57330099 42.4375 37.0625 C40.8125 38.875 40.8125 38.875 38.4375 41.0625 C37.48117426 42.31922777 36.54546669 43.59177567 35.625 44.875 C23.49028134 61.12470989 4.34759371 68.27206401 -13.64453125 76.34765625 C-37.62490705 87.21506906 -54.46726628 102.28214991 -64.5625 127.0625 C-65.04976563 128.2278125 -65.53703125 129.393125 -66.0390625 130.59375 C-72.75715649 148.98011251 -72.94823751 169.82050735 -68.4375 188.6875 C-68.11579834 190.03763184 -68.11579834 190.03763184 -67.78759766 191.41503906 C-65.23965439 201.79687685 -61.93652051 211.92524476 -58.5625 222.0625 C-58.17251831 223.26422852 -58.17251831 223.26422852 -57.7746582 224.49023438 C-56.37324947 228.78459919 -54.83190587 232.92779083 -53 237.0625 C-50.88090468 242.04109743 -49.53701495 246.74696391 -48.5625 252.0625 C-52.1925 252.0625 -55.8225 252.0625 -59.5625 252.0625 C-62.5625 246.3125 -62.5625 246.3125 -62.5625 244.0625 C-63.2225 244.0625 -63.8825 244.0625 -64.5625 244.0625 C-76.36927158 209.30749965 -76.36927158 209.30749965 -78.57519531 194.2121582 C-78.67799805 193.51050537 -78.78080078 192.80885254 -78.88671875 192.0859375 C-78.97010498 191.47669434 -79.05349121 190.86745117 -79.1394043 190.23974609 C-79.56618906 187.85714149 -79.56618906 187.85714149 -80.53515625 184.78222656 C-84.13006412 171.76606299 -83.856461 157.96753218 -83.76831055 144.57324219 C-83.74971442 141.6424921 -83.74780394 138.71205375 -83.74804688 135.78125 C-83.74314196 133.90885142 -83.73731818 132.03645497 -83.73046875 130.1640625 C-83.72935593 129.29230377 -83.7282431 128.42054504 -83.72709656 127.52236938 C-83.72071671 126.7165744 -83.71433685 125.91077942 -83.70776367 125.08056641 C-83.70395187 124.37461334 -83.70014008 123.66866028 -83.69621277 122.9413147 C-83.5625 121.0625 -83.5625 121.0625 -82.5625 118.0625 C-82.38014576 115.85688208 -82.24094764 113.64760398 -82.125 111.4375 C-81.77972751 105.62601127 -81.28283436 99.84710359 -80.625 94.0625 C-80.55031494 93.36946777 -80.47562988 92.67643555 -80.39868164 91.96240234 C-79.87214592 87.49250753 -78.83723745 83.37040721 -77.5625 79.0625 C-77.238624 77.25547758 -76.94601582 75.44252449 -76.6875 73.625 C-74.23197674 58.46073804 -70.46344471 40.86438942 -63.5625 27.0625 C-62.97082031 27.12050781 -62.37914062 27.17851562 -61.76953125 27.23828125 C-60.97933594 27.28339844 -60.18914062 27.32851563 -59.375 27.375 C-58.59769531 27.43300781 -57.82039063 27.49101562 -57.01953125 27.55078125 C-53.38082664 26.82766825 -52.01702398 24.79222819 -49.5625 22.0625 C-48.57684646 21.04309234 -47.58576787 20.02890731 -46.58984375 19.01953125 C-46.08259766 18.50326172 -45.57535156 17.98699219 -45.05273438 17.45507812 C-44.54033203 16.93365234 -44.02792969 16.41222656 -43.5 15.875 C-42.98373047 15.34197266 -42.46746094 14.80894531 -41.93554688 14.25976562 C-39.3016175 11.59228301 -36.99137755 9.57635322 -33.5625 8.0625 C-32.82 7.299375 -32.0775 6.53625 -31.3125 5.75 C-22.65913672 -2.70669593 -11.00310413 -6.76753422 0 0 Z " fill="#CDC3BD" transform="translate(416.5625,309.9375)"/>
<path d="M0 0 C2.3343349 0.0106447 4.6678868 0.00009139 7.00219727 -0.01269531 C19.79045848 -0.02484215 32.55631522 0.64618427 44.84790039 4.47949219 C47.35367991 5.17361394 49.80161983 5.67105495 52.35571289 6.14355469 C57.6852585 7.18553968 62.68822778 8.80520657 67.79321289 10.63574219 C68.6349707 10.92707031 69.47672852 11.21839844 70.34399414 11.51855469 C75.67563663 13.40322831 80.67116068 15.62179128 85.66821289 18.26074219 C86.88172985 18.88058223 88.09527113 19.50037466 89.30883789 20.12011719 C102.6957295 27.08444896 114.33442738 35.34181821 125.66821289 45.26074219 C126.43262695 45.91300781 127.19704102 46.56527344 127.98461914 47.23730469 C138.29318516 56.07321842 148.14955422 66.21493604 154.66821289 78.26074219 C154.66821289 78.92074219 154.66821289 79.58074219 154.66821289 80.26074219 C155.32821289 80.26074219 155.98821289 80.26074219 156.66821289 80.26074219 C172.66821289 109.68009703 172.66821289 109.68009703 172.66821289 119.26074219 C173.32821289 119.26074219 173.98821289 119.26074219 174.66821289 119.26074219 C174.91055664 120.29972656 175.15290039 121.33871094 175.40258789 122.40917969 C177.50356992 131.45930964 177.50356992 131.45930964 180.60571289 140.19824219 C187.77286115 157.06379345 188.86126506 173.15673921 188.66821289 191.26074219 C185.66821289 190.26074219 185.66821289 190.26074219 184.59326172 188.71020508 C184.27381592 188.05785889 183.95437012 187.4055127 183.62524414 186.73339844 C183.27397461 186.02376953 182.92270508 185.31414062 182.56079102 184.58300781 C182.20436523 183.83728516 181.84793945 183.0915625 181.48071289 182.32324219 C181.11268555 181.58138672 180.7446582 180.83953125 180.36547852 180.07519531 C177.66821289 174.55555898 177.66821289 174.55555898 177.66821289 172.26074219 C177.00821289 172.26074219 176.34821289 172.26074219 175.66821289 172.26074219 C167.66165096 156.59741958 167.66165096 156.59741958 164.66040039 148.68261719 C163.47602468 145.79162135 162.08784693 143.04350742 160.66821289 140.26074219 C156.8852378 132.81898058 153.77647568 125.34241623 151.66821289 117.26074219 C151.00821289 117.26074219 150.34821289 117.26074219 149.66821289 117.26074219 C148.68861709 115.46931011 147.7095496 113.67758914 146.73071289 111.88574219 C146.18543945 110.88800781 145.64016602 109.89027344 145.07836914 108.86230469 C144.25323699 107.34003872 143.44256898 105.80945436 142.66821289 104.26074219 C141.99145508 104.58042969 141.31469727 104.90011719 140.61743164 105.22949219 C134.16680896 107.48507416 126.06727237 107.58752911 119.67602539 105.09277344 C117.19050219 103.62336839 114.94045665 102.03901992 112.66821289 100.26074219 C111.63696289 99.58011719 110.60571289 98.89949219 109.54321289 98.19824219 C104.32281252 93.66591751 99.82148131 85.72054745 97.66821289 79.26074219 C97.74864358 77.78074741 97.88413934 76.30336024 98.05493164 74.83105469 C98.9191734 64.79311654 98.9191734 64.79311654 94.7590332 56.05175781 C89.26752146 51.55198668 83.04676061 48.31704694 76.66821289 45.26074219 C75.45244022 44.65061052 74.23741505 44.03898304 73.02368164 43.42480469 C72.24637695 43.04066406 71.46907227 42.65652344 70.66821289 42.26074219 C70.66821289 41.60074219 70.66821289 40.94074219 70.66821289 40.26074219 C70.13454102 40.1021875 69.60086914 39.94363281 69.05102539 39.78027344 C64.86762472 38.47024658 60.98779975 36.9914458 57.10571289 34.94824219 C43.14102001 27.8035156 28.53487352 23.25333516 12.66821289 24.26074219 C9.73740615 25.12727633 9.73740615 25.12727633 7.66821289 26.26074219 C8.65821289 26.59074219 9.64821289 26.92074219 10.66821289 27.26074219 C10.66821289 27.92074219 10.66821289 28.58074219 10.66821289 29.26074219 C7.74166762 30.23625728 5.72166293 30.42552307 2.66821289 30.44824219 C1.36883789 30.46951172 1.36883789 30.46951172 0.04321289 30.49121094 C-2.33178711 30.26074219 -2.33178711 30.26074219 -5.33178711 28.26074219 C-6.03231171 25.59767918 -6.10923528 23.02038482 -6.33178711 20.26074219 C-17.72311025 14.88983325 -29.99058812 15.43439322 -42.33178711 15.26074219 C-41.73094022 11.69596728 -41.44067359 11.34404177 -38.33959961 8.97167969 C-37.05340409 8.17976592 -35.75868626 7.40156522 -34.45678711 6.63574219 C-33.83803711 6.24128906 -33.21928711 5.84683594 -32.58178711 5.44042969 C-22.61010606 -0.5345047 -11.26820954 -0.06089025 0 0 Z " fill="#E5E0DC" transform="translate(410.331787109375,204.7392578125)"/>
<path d="M0 0 C3.59531525 1.43025315 7.17661378 2.89081578 10.75 4.375 C11.8121875 4.81457031 12.874375 5.25414062 13.96875 5.70703125 C16.43904671 6.7607274 18.8367071 7.88834019 21.25 9.0625 C27.83339479 12.01613118 35.00223678 13.35850944 42 15 C64.7569307 20.42248577 84.13923664 25.95395353 101 43 C101.763125 43.64453125 102.52625 44.2890625 103.3125 44.953125 C105.59440506 47.72099132 105.44082461 49.46001077 105.3125 53 C105.28800781 54.03125 105.26351562 55.0625 105.23828125 56.125 C105.03727466 58.55025981 104.68754659 60.67463917 104 63 C101.03 62.505 101.03 62.505 98 62 C98 61.34 98 60.68 98 60 C86.97365018 60.6334011 78.81247376 61.75764597 70 69 C69.16597656 69.680625 68.33195313 70.36125 67.47265625 71.0625 C63.56061597 74.41024273 60.01847951 77.80037634 57 82 C56.67 81.01 56.34 80.02 56 79 C53.94034529 77.59812519 51.89349277 76.32225962 49.75 75.0625 C37.15623999 67.31911628 25.85595137 56.5695222 18 44 C19.7057926 53.49408252 23.65428562 61.46377533 28 70 C24.58406899 69.41063162 21.66553512 68.52347271 18.5 67.125 C1.20186067 60.21583065 -18.49579705 59.34100514 -36.26953125 65.125 C-39 66 -39 66 -42 66 C-42 66.66 -42 67.32 -42 68 C-45 69 -45 69 -46.87841797 68.16723633 C-47.57596191 67.72661865 -48.27350586 67.28600098 -48.9921875 66.83203125 C-49.77424561 66.3522583 -50.55630371 65.87248535 -51.36206055 65.37817383 C-52.19133057 64.86150146 -53.02060059 64.3448291 -53.875 63.8125 C-61.42737432 59.24854254 -68.33693687 55.94413446 -77 54 C-73.32189599 50.9092372 -69.20189683 49.05931112 -64.875 47.0625 C-63.74082642 46.53462891 -63.74082642 46.53462891 -62.58374023 45.99609375 C-47.4401123 39 -47.4401123 39 -44 39 C-44 38.34 -44 37.68 -44 37 C-43.15179688 36.61070312 -42.30359375 36.22140625 -41.4296875 35.8203125 C-23.58913578 27.31174168 -10.9959747 16.61771096 0 0 Z " fill="#B29E97" transform="translate(473,353)"/>
<path d="M0 0 C0.81815186 0.2585376 1.63630371 0.5170752 2.47924805 0.78344727 C8.68492557 3.01631024 11.25410491 5.97981368 14.0625 11.875 C14.48789062 12.6896875 14.91328125 13.504375 15.3515625 14.34375 C16.38002573 18.00553117 16.44505295 21.60051235 16.4375 25.375 C16.43617065 26.56017212 16.43617065 26.56017212 16.43481445 27.76928711 C16.29486288 34.79457188 15.27497964 41.52524928 12.0625 47.875 C-3.21622256 52.96790752 -23.98040779 49.98111265 -40 50 C-41.51768982 50.00388229 -41.51768982 50.00388229 -43.06604004 50.00784302 C-75.50235814 50.07313563 -75.50235814 50.07313563 -82.9375 47.875 C-82.79561015 45.33305839 -82.64910845 42.79152007 -82.5 40.25 C-82.46068359 39.53714844 -82.42136719 38.82429687 -82.38085938 38.08984375 C-82.19795911 35.02274693 -81.97017276 32.06082634 -81.4375 29.03125 C-80.69960127 24.37326429 -80.56956583 19.70785515 -80.375 15 C-80.33181641 14.02546875 -80.28863281 13.0509375 -80.24414062 12.046875 C-80.13867726 9.65637198 -80.03655825 7.26577556 -79.9375 4.875 C-72.87675915 2.39681841 -65.76779201 0.20076504 -58.5625 -1.8125 C-57.80211426 -2.02672607 -57.04172852 -2.24095215 -56.25830078 -2.46166992 C-37.67654049 -7.59056283 -18.1206063 -6.09484911 0 0 Z " fill="#A49D99" transform="translate(472.9375,591.125)"/>
<path d="M0 0 C6.06881459 0 8.87324652 0.38769091 14.3125 2.375 C19.35363693 4.20716666 24.17217566 5.48282217 29.44018555 6.47705078 C33.61270447 7.32946237 37.66850105 8.54330284 41.75 9.75 C43.58170079 10.28238828 45.41374442 10.81359815 47.24609375 11.34375 C48.18565918 11.61574219 49.12522461 11.88773437 50.09326172 12.16796875 C54.98858341 13.56921655 59.89951758 14.91221605 64.8125 16.25 C66.16263184 16.61883301 66.16263184 16.61883301 67.54003906 16.99511719 C72.67915759 18.39214041 77.82881767 19.72672398 83 21 C81.96039378 29.2392672 76.13909727 37.27511737 69.98046875 42.62109375 C57.57475796 51.12563762 43.89228626 51.71922739 29.3125 49.41796875 C17.8850661 46.15936455 9.74019548 37.09136407 4 27 C2.29734079 23.06784981 1.74019784 19.2867356 2 15 C1.34 15 0.68 15 0 15 C0 10.05 0 5.1 0 0 Z " fill="#D6C9C5" transform="translate(383,458)"/>
<path d="M0 0 C1.98 0.99 3.96 1.98 6 3 C5.98428955 4.04172363 5.98428955 4.04172363 5.96826172 5.10449219 C5.92611181 8.31962307 5.90048939 11.5346955 5.875 14.75 C5.85824219 15.84183594 5.84148437 16.93367188 5.82421875 18.05859375 C5.74245801 31.87615922 7.38869003 44.37255248 16.1875 55.375 C20.56496986 61.05190433 21.19676487 65.95335816 21 73 C21.66 73 22.32 73 23 73 C23.35191406 73.76183594 23.70382812 74.52367187 24.06640625 75.30859375 C31.32825177 90.49589991 41.45206306 101.5063112 56 110 C56.639375 110.40089844 57.27875 110.80179688 57.9375 111.21484375 C61.64741242 113.49060021 65.38086522 114.97441597 69.51855469 116.23413086 C71.07611669 116.7148542 72.62698287 117.21848654 74.16625977 117.75488281 C81.26274868 120.12774036 88.18604813 120.73552355 95.625 121.1875 C96.81996094 121.26935547 98.01492188 121.35121094 99.24609375 121.43554688 C102.16354276 121.63393341 105.08125702 121.82185625 108 122 C108 122.33 108 122.66 108 123 C89.82174329 123.29795411 71.73329504 123.44540767 53.625 121.625 C51.71352173 121.43587036 51.71352173 121.43587036 49.76342773 121.24291992 C43.9459094 120.61038367 38.5725287 119.76200779 33 118 C29.89686067 117.45505846 26.79090572 117.00581401 23.671875 116.5625 C21 116 21 116 18 114 C17.3125 111.375 17.3125 111.375 17 109 C16.34 109 15.68 109 15 109 C14.83918945 108.44650879 14.67837891 107.89301758 14.51269531 107.32275391 C9.97948451 91.73693168 9.97948451 91.73693168 3.9375 76.69140625 C0.80731357 69.8671395 -1.38291188 63.65823755 -1 56 C-1.66 56 -2.32 56 -3 56 C-4.6887323 47.52954843 -5.28363234 39.43911293 -5.1875 30.8125 C-5.18685547 29.70197266 -5.18621094 28.59144531 -5.18554688 27.44726562 C-5.0945687 10.35347834 -5.0945687 10.35347834 -1.9375 3.9375 C-1.57527344 3.18339844 -1.21304687 2.42929687 -0.83984375 1.65234375 C-0.42412109 0.83443359 -0.42412109 0.83443359 0 0 Z " fill="#B09C96" transform="translate(366,443)"/>
<path d="M0 0 C6.19893852 4.29089645 13.38505357 10.34123891 15 18 C15.97084057 28.74859205 14.84530903 38.55675813 10.97265625 48.6875 C7.89943196 52.29017085 4.2854034 52.53726049 -0.25 53.3125 C-1.5807959 53.5604834 -1.5807959 53.5604834 -2.93847656 53.81347656 C-10.68521411 55.15795167 -18.15586466 55.42786193 -26 55 C-25.47650332 52.6911041 -24.82917561 50.52457308 -24.02734375 48.29296875 C-20.90820163 39.40509066 -18.87907578 29.50230715 -21.890625 20.26953125 C-23.33213968 17.32051706 -25.12415625 14.68870937 -27 12 C-19.51738805 5.17694959 -10.75969486 -1.35504403 0 0 Z " fill="#A39C98" transform="translate(514,582)"/>
<path d="M0 0 C3.39113406 0.59106034 6.34131567 1.45491478 9.5 2.8125 C16.54530156 5.69324552 23.84960675 8.39483359 31.40234375 9.49609375 C38.39566421 10.54876392 41.80636823 12.09702541 46.25 17.75 C49.35031408 22.16285581 50.66083598 25.59946528 51 31 C50.67 31.66 50.34 32.32 50 33 C45.06119102 31.76529775 41.75658938 29.53379832 37.83203125 26.4375 C36.27693622 25.2172975 34.64468684 24.09645789 33 23 C34.24846488 24.73027536 35.49884402 26.45916957 36.75 28.1875 C37.44609375 29.15042969 38.1421875 30.11335937 38.859375 31.10546875 C40.27567585 33.02057629 41.75020158 34.89407586 43.28125 36.71875 C45 39 45 39 44.75 41.3125 C44.5025 41.869375 44.255 42.42625 44 43 C41.78515625 43.7890625 41.78515625 43.7890625 39 44 C36.68359375 42.0859375 36.68359375 42.0859375 34.4375 39.375 C33.69371094 38.49585938 32.94992187 37.61671875 32.18359375 36.7109375 C30.11680705 34.14501626 28.05198509 31.57777719 26 29 C27.0681847 34.11365014 28.23107476 39.07227969 30 44 C24.25 43.25 24.25 43.25 22 41 C20.50942521 40.47256584 19.00745791 39.97704364 17.5 39.5 C10.82258867 36.92580954 6.64620537 32.29174762 2 27 C1.154375 26.071875 0.30875 25.14375 -0.5625 24.1875 C-3.50325364 17.66669845 -4.08935124 9.93780259 -1.5625 3.1875 C-0.7890625 1.6096875 -0.7890625 1.6096875 0 0 Z " fill="#B09D96" transform="translate(327,647)"/>
<path d="M0 0 C4.34038798 2.05890199 6.20149961 4.84090455 8.21508789 9.08886719 C9.57876903 12.96988956 9.47956013 16.67190674 9.328125 20.7421875 C9.31193115 21.57347168 9.2957373 22.40475586 9.27905273 23.26123047 C8.88691878 39.49589372 8.88691878 39.49589372 7.015625 41.3671875 C1.54442779 41.80285691 -2.9533559 41.63114609 -7.984375 39.3671875 C-9.60450642 39.03035605 -11.23039882 38.72075081 -12.859375 38.4296875 C-20.1601421 37.03649378 -26.41217164 33.71094009 -32.984375 30.3671875 C-30.92639154 19.35563963 -22.3162311 6.85732936 -13.125 0.4375 C-8.71489759 -1.76755121 -4.61218403 -1.47081459 0 0 Z " fill="#A19A96" transform="translate(371.984375,583.6328125)"/>
<path d="M0 0 C-0.23695836 14.36829327 -3.83580517 27.15698448 -13.73828125 37.8828125 C-18.53055797 42.14922863 -22.90296628 42.87346431 -29.23828125 42.5078125 C-33.26487518 41.76742041 -35.4927669 40.07315143 -38 37 C-38.59554687 36.33355469 -39.19109375 35.66710937 -39.8046875 34.98046875 C-44.54566779 29.36407924 -48 23.51206655 -48 16 C-47.42556152 15.83395264 -46.85112305 15.66790527 -46.25927734 15.49682617 C-43.62941946 14.73298573 -41.00223168 13.96032267 -38.375 13.1875 C-37.47136719 12.92646484 -36.56773437 12.66542969 -35.63671875 12.39648438 C-30.80642336 10.96855034 -26.47587199 9.34450438 -22 7 C-19.67956894 6.11138038 -17.34542427 5.25788415 -15 4.4375 C-13.824375 4.02371094 -12.64875 3.60992187 -11.4375 3.18359375 C-10.303125 2.79300781 -9.16875 2.40242188 -8 2 C-6.906875 1.61972656 -5.81375 1.23945313 -4.6875 0.84765625 C-2 0 -2 0 0 0 Z " fill="#D3C7C3" transform="translate(568,456)"/>
<path d="M0 0 C23.84582561 4.13620103 23.84582561 4.13620103 33.625 8.05078125 C36.01450113 9.00579568 38.2967392 9.59931864 40.8125 10.125 C41.99779297 10.37636719 41.99779297 10.37636719 43.20703125 10.6328125 C43.79871094 10.75398438 44.39039063 10.87515625 45 11 C45.0825 11.78375 45.165 12.5675 45.25 13.375 C45.72624325 16.09451513 45.72624325 16.09451513 47.8125 17.25 C48.534375 17.4975 49.25625 17.745 50 18 C50.639375 18.28875 51.27875 18.5775 51.9375 18.875 C54.24815544 19.25610353 54.24815544 19.25610353 56.3125 17 C59 15 59 15 62.5 15.0625 C65.88328717 15.96873763 68.25273532 16.83548843 71 19 C71 19.99 71 20.98 71 22 C68.62109375 23.97265625 68.62109375 23.97265625 65.4375 26.0625 C64.40496094 26.75472656 63.37242187 27.44695312 62.30859375 28.16015625 C51.65965332 34.08182206 35.89438844 33.86514787 24.3125 30.5625 C14.60419604 26.62109455 6.88013962 18.1342555 2 9 C0.99108697 5.95063954 0.46390081 3.19576112 0 0 Z " fill="#FBEDE8" transform="translate(385,476)"/>
<path d="M0 0 C-0.91845703 0.33837891 -0.91845703 0.33837891 -1.85546875 0.68359375 C-4.66406286 2.40763057 -5.11278816 4.03050098 -6.3125 7.0625 C-7.5703125 9.78515625 -7.5703125 9.78515625 -9 12 C-12.6875 13 -12.6875 13 -16 13 C-18.31563087 14.88500271 -18.31563087 14.88500271 -18.25 18 C-18.31563087 21.11499729 -18.31563087 21.11499729 -16 23 C-14.01178687 23.39764263 -12.01055661 23.73775349 -10 24 C-9.78085937 24.70125 -9.56171875 25.4025 -9.3359375 26.125 C-5.68530825 37.04720783 -1.36778943 42.6937849 8.609375 48.5546875 C11 50 11 50 13 52 C-25.2065904 52.28427523 -25.2065904 52.28427523 -33 50 C-32.85811015 47.45805839 -32.71160845 44.91652007 -32.5625 42.375 C-32.52318359 41.66214844 -32.48386719 40.94929687 -32.44335938 40.21484375 C-32.26045911 37.14774693 -32.03267276 34.18582634 -31.5 31.15625 C-30.76210127 26.49826429 -30.63206583 21.83285515 -30.4375 17.125 C-30.39431641 16.15046875 -30.35113281 15.1759375 -30.30664062 14.171875 C-30.20117726 11.78137198 -30.09905825 9.39077556 -30 7 C-23.53766913 4.77487508 -17.04514972 2.65653351 -10.5 0.6875 C-9.3553125 0.34074219 -8.210625 -0.00601563 -7.03125 -0.36328125 C-4.14193818 -0.97018567 -2.71440625 -1.03120826 0 0 Z " fill="#8A827E" transform="translate(423,589)"/>
<path d="M0 0 C7.59412802 0.06639675 13.42428509 2.2149468 20.25 5.375 C21.66152344 5.99181641 21.66152344 5.99181641 23.1015625 6.62109375 C36.75426208 12.95850389 49.03551837 22.35340173 61.13671875 31.21875 C64.42264177 33.49457121 67.75499114 35.44065547 71.25 37.375 C68.02356062 38.45047979 67.29161167 38.33638778 64.16015625 37.44921875 C63.37576172 37.22943359 62.59136719 37.00964844 61.78320312 36.78320312 C60.96787109 36.54537109 60.15253906 36.30753906 59.3125 36.0625 C58.50103516 35.83626953 57.68957031 35.61003906 56.85351562 35.37695312 C50.81472578 33.65795388 50.81472578 33.65795388 48.15039062 32.32299805 C45.68357728 31.09244355 43.41641535 30.85610347 40.6875 30.5 C35.42976095 29.69504846 30.84724131 28.24026924 25.90625 26.31640625 C22.53175542 25.12044567 19.16879025 24.49883222 15.65234375 23.87109375 C12.48049669 23.21609444 9.51084616 22.16533786 6.4609375 21.08984375 C4.2537935 20.37622652 2.08656146 19.88832271 -0.1875 19.4375 C-5.29546776 18.38161267 -9.97170507 16.42996609 -14.75 14.375 C-13.47298558 10.84624517 -11.98732071 8.08594853 -9.6875 5.125 C-9.16027344 4.43921875 -8.63304687 3.7534375 -8.08984375 3.046875 C-5.54392001 -0.12996279 -4.1415329 0.12880365 0 0 Z " fill="#7B6D68" transform="translate(384.75,420.625)"/>
<path d="M0 0 C8.1015177 2.25042158 15.15007388 7.62205859 21.9375 12.4375 C22.75541016 12.99308594 23.57332031 13.54867187 24.41601562 14.12109375 C25.18751953 14.66894531 25.95902344 15.21679688 26.75390625 15.78125 C27.4507251 16.26787109 28.14754395 16.75449219 28.86547852 17.25585938 C30.375 18.9375 30.375 18.9375 30.60131836 21.63476562 C30.48929077 22.77461914 30.48929077 22.77461914 30.375 23.9375 C31.21933594 23.79957031 32.06367188 23.66164063 32.93359375 23.51953125 C38.00349286 24.13528517 40.07699813 26.98051205 43.4375 30.625 C44.3356543 31.56375977 44.3356543 31.56375977 45.25195312 32.52148438 C46.43222561 33.75605198 47.60665639 34.99623336 48.77490234 36.2421875 C50.110733 37.65750762 51.47931931 39.04181931 52.85546875 40.41796875 C62.2253089 49.7878089 71.19070813 59.51364336 79.375 69.9375 C80.06722656 70.78441406 80.75945312 71.63132812 81.47265625 72.50390625 C82.12105469 73.30699219 82.76945312 74.11007812 83.4375 74.9375 C84.00597656 75.63875 84.57445312 76.34 85.16015625 77.0625 C86.375 78.9375 86.375 78.9375 86.375 81.9375 C84.30859375 82.875 84.30859375 82.875 81.375 82.9375 C78.69248894 80.95788411 76.61584595 78.44652572 74.4375 75.9375 C73.10426217 74.45954925 71.77092648 72.98168679 70.4375 71.50390625 C69.42623047 70.36526123 69.42623047 70.36526123 68.39453125 69.20361328 C65.28813092 65.71792567 62.11858069 62.29247134 58.9375 58.875 C58.35564941 58.24730713 57.77379883 57.61961426 57.17431641 56.97290039 C53.62612078 53.17621882 49.96550434 49.66385985 45.96484375 46.33984375 C43.47060109 44.13976239 41.50120426 41.48894511 39.375 38.9375 C37.49163291 37.1816747 35.55252343 35.51038302 33.58984375 33.84375 C31.25007711 31.8299826 29.00741779 29.73044057 26.75 27.625 C17.91230807 19.68192106 8.60499202 12.99285994 -2.39453125 8.38671875 C-4.625 6.9375 -4.625 6.9375 -5.44921875 4.26953125 C-5.50722656 3.49996094 -5.56523437 2.73039063 -5.625 1.9375 C-2.625 -0.0625 -2.625 -0.0625 0 0 Z " fill="#C8BEB8" transform="translate(357.625,235.0625)"/>
<path d="M0 0 C0.7421875 1.69921875 0.7421875 1.69921875 1 4 C-0.5546875 6.33203125 -0.5546875 6.33203125 -2.875 8.8125 C-3.61492187 9.62332031 -4.35484375 10.43414062 -5.1171875 11.26953125 C-12.2245162 18.00126941 -19.78303021 22.7831966 -28.5 27.1875 C-29.48097656 27.69474609 -30.46195312 28.20199219 -31.47265625 28.72460938 C-36.55863897 31.33532354 -41.67864787 33.79934839 -46.91796875 36.08569336 C-72.11207353 47.14947413 -90.38805484 61.95129982 -101 88 C-101.48726563 89.1653125 -101.97453125 90.330625 -102.4765625 91.53125 C-108.51151418 108.04795985 -108.19630479 126.60620606 -108 144 C-108.33 144 -108.66 144 -109 144 C-114.5258555 118.87293668 -112.10056976 91.43820992 -99 69 C-96.17447445 64.81411709 -92.89854792 61.09576863 -89.40136719 57.46289062 C-88.04009371 56.04185393 -86.72609502 54.57599746 -85.4140625 53.109375 C-75.71678362 42.68407218 -63.93740443 35.48011663 -50.4765625 30.9375 C-47.87120461 30.1451858 -47.87120461 30.1451858 -46 28 C-44.24414062 27.22216797 -44.24414062 27.22216797 -42.15625 26.4921875 C-41.40472656 26.22792969 -40.65320313 25.96367187 -39.87890625 25.69140625 C-39.09386719 25.42199219 -38.30882812 25.15257812 -37.5 24.875 C-36.71496094 24.59785156 -35.92992187 24.32070313 -35.12109375 24.03515625 C-29.27628541 22 -29.27628541 22 -27 22 C-27 21.34 -27 20.68 -27 20 C-26.46632813 19.731875 -25.93265625 19.46375 -25.3828125 19.1875 C-16.87340507 14.71196391 -9.67719519 8.87953444 -3 2 C-2.01 1.34 -1.02 0.68 0 0 Z " fill="#E0DAD7" transform="translate(453,349)"/>
<path d="M0 0 C1.36863261 6.15884673 2.10795917 11.68438848 2 18 C-13.90651578 21.00168127 -28.80321193 22.42905399 -45 22 C-45 15.73 -45 9.46 -45 3 C-40.35964398 2.56809983 -35.7191999 2.13937512 -31.07788086 1.71826172 C-29.50382378 1.57453717 -27.92992434 1.42907397 -26.35620117 1.28173828 C-17.55263771 0.45876605 -8.85432572 -0.2616684 0 0 Z " fill="#776F6B" transform="translate(501,665)"/>
<path d="M0 0 C1.17068527 0.05210129 1.17068527 0.05210129 2.36502075 0.10525513 C3.25417175 0.14217468 4.14332275 0.17909424 5.05941772 0.21713257 C6.03699036 0.26287415 7.01456299 0.30861572 8.02175903 0.35574341 C9.5441922 0.42048859 9.5441922 0.42048859 11.09738159 0.48654175 C13.28802644 0.58004818 15.4785763 0.67580075 17.66903687 0.77352905 C23.3773012 1.02788336 29.08624402 1.26585411 34.79519653 1.50418091 C36.50632126 1.57610153 36.50632126 1.57610153 38.25201416 1.6494751 C48.44665275 2.07267695 58.64243594 2.40184412 68.84207153 2.67605591 C69.96497589 2.7064798 69.96497589 2.7064798 71.11056519 2.73751831 C75.14596622 2.8462073 79.18144879 2.95087799 83.21707153 3.05105591 C83.21707153 4.04105591 83.21707153 5.03105591 83.21707153 6.05105591 C80.87332153 7.88308716 80.87332153 7.88308716 77.71707153 9.86355591 C73.23343011 12.71534197 69.05827449 15.65091466 65.03347778 19.11746216 C63.21707153 20.05105591 63.21707153 20.05105591 61.02566528 19.98074341 C56.99883832 18.64780208 53.42316312 16.65862717 49.71707153 14.61355591 C40.52891762 9.01557219 40.52891762 9.01557219 30.21707153 9.05105591 C27.00063175 10.3104027 23.84572163 11.64164161 20.69558716 13.05496216 C16.75529389 14.73048869 14.26785661 15.61350158 10.21707153 14.05105591 C7.84198088 12.67834818 5.64463513 11.2993583 3.40457153 9.73855591 C2.80709106 9.34732544 2.2096106 8.95609497 1.59402466 8.55300903 C-0.11495972 7.37527466 -0.11495972 7.37527466 -2.78292847 5.05105591 C-2.78292847 0.07969189 -2.78292847 0.07969189 0 0 Z " fill="#8A827D" transform="translate(383.7829284667969,694.9489440917969)"/>
<path d="M0 0 C4.17683545 -0.02511278 8.35362845 -0.04305063 12.53051758 -0.05493164 C13.94523893 -0.05989558 15.35995533 -0.06666892 16.7746582 -0.07543945 C25.9012055 -0.13051624 34.90100168 0.17635582 44 1 C44 7.27 44 13.54 44 20 C39.8411763 20.04649617 35.68329293 20.08613622 31.52441406 20.10986328 C30.11650499 20.11977813 28.70861567 20.13331412 27.30078125 20.15087891 C17.65009097 20.26806586 8.53678334 19.66093203 -1 18 C-1.09691453 11.89438434 -0.73264101 6.05853644 0 0 Z " fill="#79716D" transform="translate(402,667)"/>
<path d="M0 0 C0 1.65 0 3.3 0 5 C-4.67824275 7.7519075 -8.58485323 9.26713819 -13.97143555 10.0324707 C-15.12098724 10.19607086 -16.27053894 10.35967102 -17.45492554 10.52822876 C-19.2097374 10.76175552 -19.2097374 10.76175552 -21 11 C-22.07118073 11.14287445 -23.14236145 11.2857489 -24.2460022 11.43295288 C-43.09415102 13.82036242 -61.64332022 14.44744399 -80.61004639 14.3225708 C-83.40414892 14.30902593 -86.1980953 14.31442446 -88.99221611 14.31945992 C-103.42789796 14.33882264 -117.69892834 14.15026871 -132 12 C-132.66 10.02 -133.32 8.04 -134 6 C-132.39594109 5.97207634 -130.79172506 5.9532057 -129.1875 5.9375 C-128.29417969 5.92589844 -127.40085937 5.91429687 -126.48046875 5.90234375 C-123.61847052 5.98264673 -120.86459805 6.20339577 -118.02099609 6.49780273 C-112.06444845 7.04884926 -106.1623104 7.1446289 -100.18359375 7.1328125 C-99.08765396 7.13376923 -97.99171417 7.13472595 -96.86256409 7.13571167 C-94.55575503 7.13638802 -92.24894401 7.13457204 -89.94213867 7.13037109 C-86.47114618 7.12505157 -83.00028522 7.13031608 -79.52929688 7.13671875 C-62.47900444 7.14297509 -45.63386748 6.6325515 -28.6875 4.625 C-27.57882568 4.49633545 -26.47015137 4.3676709 -25.32788086 4.23510742 C-18.49223647 3.40521928 -11.87944971 2.33630357 -5.22265625 0.55078125 C-3 0 -3 0 0 0 Z " fill="#9A938F" transform="translate(524,643)"/>
<path d="M0 0 C8.50216479 0.34102736 16.36962426 1.08173256 24.63671875 3.19140625 C27.66058598 3.91839872 30.67439232 4.47219279 33.74194336 4.97680664 C42.60108138 6.45781756 50.77871263 9.08639079 59.15527344 12.29638672 C60.75484695 12.90649403 62.36489672 13.48899843 63.9765625 14.06640625 C73.38663589 17.54784207 80.44563203 23.14979218 87.73828125 29.94921875 C89.93490521 32.01934458 89.93490521 32.01934458 92.29296875 33.64453125 C93.13794922 34.31548828 93.13794922 34.31548828 94 35 C94 35.66 94 36.32 94 37 C94.66 37 95.32 37 96 37 C101.24392291 42.07788841 105.58699371 48.20541423 110 54 C109.01 54 108.02 54 107 54 C105.13584674 52.08481517 103.41374333 50.15803078 101.6875 48.125 C88.90410342 33.73827547 72.50950044 24.98332704 54 20 C52.77023437 19.65066406 51.54046875 19.30132812 50.2734375 18.94140625 C44.59612128 17.36308922 39.02767623 15.93165418 33.1875 15.125 C27.85917608 14.30803853 22.86337704 12.85246609 17.75 11.1875 C17.00516357 10.95111816 16.26032715 10.71473633 15.49291992 10.47119141 C10.29388396 8.71756438 5.26045655 6.526291 1 3 C0.67 2.01 0.34 1.02 0 0 Z " fill="#DED8D5" transform="translate(484,339)"/>
<path d="M0 0 C4.15384938 1.85993256 6.28543515 4.33166912 9 8 C10.65447808 12.89017086 10.18430128 18.15123598 10.1875 23.25 C10.19974609 24.26191406 10.21199219 25.27382813 10.22460938 26.31640625 C10.23624634 32.29780441 9.57861047 37.24892839 8 43 C7.85182883 44.40411416 7.72664318 45.81079027 7.62109375 47.21875 C7.02948805 53.24613758 5.01319888 58.79636364 3.0625 64.5 C2.70220703 65.59570312 2.34191406 66.69140625 1.97070312 67.8203125 C-0.74098984 75.87049492 -0.74098984 75.87049492 -3 77 C-3.05086019 69.45608409 -3.08580087 61.91221269 -3.10986328 54.36816406 C-3.11989845 51.80369413 -3.13352955 49.23923557 -3.15087891 46.67480469 C-3.17523621 42.98109116 -3.18650824 39.28752941 -3.1953125 35.59375 C-3.21079636 33.8839093 -3.21079636 33.8839093 -3.22659302 32.13952637 C-3.2274472 26.02973215 -2.71350073 20.86023853 -1 15 C-0.65661254 12.32737972 -0.51944987 9.6963975 -0.375 7 C-0.33632813 6.32066406 -0.29765625 5.64132812 -0.2578125 4.94140625 C-0.16503704 3.29464183 -0.08151002 1.64736045 0 0 Z " fill="#9E9792" transform="translate(593,420)"/>
<path d="M0 0 C0.57363281 0.15855469 1.14726562 0.31710937 1.73828125 0.48046875 C8.04473577 2.21259055 14.36327662 3.89667605 20.6875 5.5625 C21.88016479 5.87707153 21.88016479 5.87707153 23.09692383 6.19799805 C28.0559541 7.50170575 33.02321936 8.7657584 38 10 C37.45207105 14.6182583 35.41035512 17.98149647 32.9375 21.8125 C32.56044922 22.40998047 32.18339844 23.00746094 31.79492188 23.62304688 C30.87010434 25.08636577 29.93597935 26.54379523 29 28 C28.08347656 27.360625 27.16695313 26.72125 26.22265625 26.0625 C22.57044536 23.72508503 20.32755789 23 16 23 C13.32601524 24.93897879 13.32601524 24.93897879 11 27 C7.76794876 27.1010016 6.75744137 25.78564586 4.3125 23.625 C0.59554 19.40574811 0.79282767 15.816175 0.83203125 10.453125 C1.02372432 7.65351465 1.67930428 5.47630447 3 3 C2.01 2.01 1.02 1.02 0 0 Z " fill="#93BDD6" transform="translate(428,469)"/>
<path d="M0 0 C1 3 1 3 0.109375 4.953125 C-0.25671875 5.62859375 -0.6228125 6.3040625 -1 7 C-1.2475 8.2375 -1.495 9.475 -1.75 10.75 C-2.66884863 15.17783749 -4.17866201 19.29622855 -5.8125 23.5 C-14.85429367 46.90980365 -18.39470061 70.05921788 -18.125 95.0625 C-18.11492966 96.71939551 -18.10581112 98.37629708 -18.09765625 100.03320312 C-18.07601061 104.02229036 -18.04171509 108.01107426 -18 112 C-20.41343087 110.15802992 -20.98780332 109.0499745 -21.71948242 106.05200195 C-22.95364234 96.07324461 -23.3595277 86.23887755 -23.3125 76.1875 C-23.31100952 75.39729462 -23.30951904 74.60708923 -23.3079834 73.79293823 C-23.26895771 62.2822521 -22.85413666 51.20650197 -20 40 C-19.73316406 38.88238281 -19.46632813 37.76476562 -19.19140625 36.61328125 C-15.52594328 23.10808657 -8.67859878 10.89441123 0 0 Z " fill="#232220" transform="translate(342,354)"/>
<path d="M0 0 C1.485 0.99 1.485 0.99 3 2 C2.01 2 1.02 2 0 2 C-0.25136719 2.67933594 -0.50273437 3.35867188 -0.76171875 4.05859375 C-2.22098364 7.52492329 -4.00080218 10.77308323 -5.8125 14.0625 C-12.13852171 24.5444344 -12.13852171 24.5444344 -15 36 C-13.68 36.66 -12.36 37.32 -11 38 C-13 39 -13 39 -15.1015625 38.36328125 C-20.52009046 36.10695924 -25.78849982 33.70225935 -31 31 C-28.93566715 19.95447878 -20.32224743 7.54920587 -11.15625 1.0625 C-7.52301697 -0.72778874 -3.93472893 -0.80712388 0 0 Z " fill="#88827F" transform="translate(370,583)"/>
<path d="M0 0 C1.18916016 0.01353516 1.18916016 0.01353516 2.40234375 0.02734375 C4.35169281 0.05082988 6.30088575 0.08669863 8.25 0.125 C7.92 3.755 7.59 7.385 7.25 11.125 C5.16999989 11.96661854 3.08585854 12.79800763 1 13.625 C-0.16015625 14.0890625 -1.3203125 14.553125 -2.515625 15.03125 C-5.75 16.125 -5.75 16.125 -9.75 16.125 C-9.75 16.785 -9.75 17.445 -9.75 18.125 C-10.84957031 18.43953125 -11.94914063 18.7540625 -13.08203125 19.078125 C-14.57579788 19.50945836 -16.06926784 19.94181995 -17.5625 20.375 C-18.33408447 20.59881348 -19.10566895 20.82262695 -19.90063477 21.05322266 C-25.28488661 22.63745357 -30.53218856 24.43787542 -35.74609375 26.5234375 C-37.75 27.125 -37.75 27.125 -39.75 26.125 C-22.3053167 8.03860509 -22.3053167 8.03860509 -12.75 2.125 C-12.1725 1.733125 -11.595 1.34125 -11 0.9375 C-7.39476342 -0.36439099 -3.79738563 -0.08186735 0 0 Z " fill="#796C67" transform="translate(567.75,426.875)"/>
<path d="M0 0 C4.79132429 1.37324567 8.25071684 3.6577766 12.296875 6.5078125 C13.07973877 7.0440625 13.86260254 7.5803125 14.66918945 8.1328125 C20.72066517 12.29716305 26.69539614 16.57289209 32.62109375 20.9140625 C35.90701677 23.18988371 39.23936614 25.13596797 42.734375 27.0703125 C39.50793562 28.14579229 38.77598667 28.03170028 35.64453125 27.14453125 C34.86013672 26.92474609 34.07574219 26.70496094 33.26757812 26.47851562 C32.45224609 26.24068359 31.63691406 26.00285156 30.796875 25.7578125 C29.98541016 25.53158203 29.17394531 25.30535156 28.33789062 25.07226562 C24.57993802 24.0025285 21.23012847 22.82023141 17.734375 21.0703125 C16.07506881 20.79282717 14.40628471 20.5699303 12.734375 20.3828125 C3.37321674 18.97398147 -5.42813176 15.35093684 -14.265625 12.0703125 C-12.64098584 8.62950252 -10.86532326 6.38190449 -8.078125 3.7578125 C-7.34207031 3.03980469 -6.60601562 2.32179688 -5.84765625 1.58203125 C-3.265625 0.0703125 -3.265625 0.0703125 0 0 Z " fill="#8D7E79" transform="translate(413.265625,430.9296875)"/>
<path d="M0 0 C1.92960571 0.24447876 1.92960571 0.24447876 3.89819336 0.49389648 C8.8247557 1.03915505 13.67670329 1.12850688 18.62890625 1.09765625 C19.94156715 1.09553383 19.94156715 1.09553383 21.28074646 1.09336853 C24.04136762 1.08782719 26.80190388 1.07528612 29.5625 1.0625 C31.44856653 1.0574774 33.33463434 1.05291583 35.22070312 1.04882812 C39.81383417 1.03787707 44.40690275 1.02065384 49 1 C49.99 4.3 50.98 7.6 52 11 C34.12176642 13.64135075 16.8060602 13.08239361 -1 10 C-1.125 2.25 -1.125 2.25 0 0 Z " fill="#605A57" transform="translate(380,726)"/>
<path d="M0 0 C-0.32432666 7.45951321 -3.69579529 13.59982254 -8.8828125 18.9375 C-14.28880409 23.64229603 -17.79325738 24.40343168 -25.01171875 24.3515625 C-29.53896882 23.81894484 -31.00716012 22.3765373 -34 19 C-34.639375 18.29875 -35.27875 17.5975 -35.9375 16.875 C-36.288125 16.25625 -36.63875 15.6375 -37 15 C-36 12 -36 12 -34.30102539 11.06445312 C-33.57391357 10.80599609 -32.84680176 10.54753906 -32.09765625 10.28125 C-31.29408691 9.99016357 -30.49051758 9.69907715 -29.66259766 9.39916992 C-28.80456543 9.10244385 -27.9465332 8.80571777 -27.0625 8.5 C-26.1967334 8.19102783 -25.3309668 7.88205566 -24.43896484 7.5637207 C-19.29614872 5.74494344 -14.13377214 4.03666566 -8.8828125 2.5546875 C-0.21126761 0 -0.21126761 0 0 0 Z " fill="#F8EAE6" transform="translate(564,474)"/>
<path d="M0 0 C2.97 0.495 2.97 0.495 6 1 C6 1.66 6 2.32 6 3 C6.65226562 3.10957031 7.30453125 3.21914063 7.9765625 3.33203125 C13.1990486 4.27947342 17.25663802 5.57991736 22 8 C28.27388017 10.10459255 34.40535633 11.34563995 41.00390625 11.7890625 C43 12 43 12 45 13 C45 15.97 45 18.94 45 22 C32.30687827 23.39314751 19.58963926 18.90239361 8 14 C8 13.34 8 12.68 8 12 C7.37351562 11.86722656 6.74703125 11.73445312 6.1015625 11.59765625 C5.28429687 11.42105469 4.46703125 11.24445312 3.625 11.0625 C2.81289063 10.88847656 2.00078125 10.71445312 1.1640625 10.53515625 C-1 10 -1 10 -3 9 C-2.44271087 5.65626525 -1.64826111 2.96687001 0 0 Z " fill="#766F6B" transform="translate(332,625)"/>
<path d="M0 0 C6.85618326 1.92556636 13.43252132 4.2472483 20 7 C19.34 8.32 18.68 9.64 18 11 C17.34 11 16.68 11 16 11 C15.67 12.32 15.34 13.64 15 15 C13.02 15.33 11.04 15.66 9 16 C9.350625 16.7425 9.70125 17.485 10.0625 18.25 C11.35797953 22.05007327 10.48908633 23.90594626 8.87890625 27.5078125 C8.44449219 28.37148438 8.01007813 29.23515625 7.5625 30.125 C7.13066406 30.99382813 6.69882812 31.86265625 6.25390625 32.7578125 C5 35 5 35 3 37 C-0.0625 37.1875 -0.0625 37.1875 -3 37 C-4 36 -4 36 -4.25 32.375 C-4.20490094 26.70153828 -2.91800803 21.3476554 -1.734375 15.8203125 C-0.72465963 10.56764426 -0.2881224 5.33523194 0 0 Z " fill="#3B3837" transform="translate(322,575)"/>
<path d="M0 0 C6.19893852 4.29089645 13.38505357 10.34123891 15 18 C15.97057063 28.74560346 14.97767826 38.77987712 10.83203125 48.83203125 C9 51 9 51 5.3125 51.3125 C4.219375 51.209375 3.12625 51.10625 2 51 C2.28875 49.85144531 2.5775 48.70289063 2.875 47.51953125 C6.11629335 34.18845186 8.46523787 23.25033671 1.80078125 10.55859375 C-0.58011855 7.17575347 -3.2995867 4.85020665 -7 3 C-7 2.34 -7 1.68 -7 1 C-4.36507077 -0.31746462 -2.93548742 -0.37062108 0 0 Z " fill="#BDB9B6" transform="translate(514,582)"/>
<path d="M0 0 C5.48116095 2.36256937 9.61215739 5.37530408 12 11 C12.54452508 14.41235714 12.71156683 17.60819812 12 21 C9.85176345 23.90302237 9.05770572 23.99021937 5.3125 24.625 C0.57096014 24.45003543 -2.00711298 22.15474091 -5.30078125 18.92578125 C-8.65978902 15.11890578 -10.1363157 11.84323054 -10.375 6.8125 C-10 3 -10 3 -8.9375 1 C-5.78806272 -0.62551601 -3.49509919 -0.40776157 0 0 Z " fill="#9B948F" transform="translate(496,278)"/>
<path d="M0 0 C-1.1196986 1.00593243 -2.2459412 2.0045849 -3.375 3 C-4.00148438 3.556875 -4.62796875 4.11375 -5.2734375 4.6875 C-7 6 -7 6 -9 6 C-9.38091797 6.86238281 -9.38091797 6.86238281 -9.76953125 7.7421875 C-11.13923449 10.25548423 -12.72943428 12.03998699 -14.6875 14.125 C-18.42162819 18.22027563 -21.57596743 22.52485331 -24.65234375 27.12890625 C-25.09707031 27.74636719 -25.54179687 28.36382812 -26 29 C-26.33 29 -26.66 29 -27 29 C-26 20.42857143 -26 20.42857143 -25 17 C-26.051875 17.2475 -27.10375 17.495 -28.1875 17.75 C-32 18 -32 18 -34.75 16.3125 C-35.4925 15.549375 -36.235 14.78625 -37 14 C-37.8971875 13.13375 -37.8971875 13.13375 -38.8125 12.25 C-40.67151502 8.72765575 -40.31905201 5.95624488 -40 2 C-38 0 -38 0 -35.25 -0.375 C-30.39919619 0.18470813 -27.52009619 2.47990381 -24.125 5.875 C-22.64068021 8.67871516 -22.78706818 10.87700004 -23 14 C-22.34 14 -21.68 14 -21 14 C-20.61714844 13.11828125 -20.61714844 13.11828125 -20.2265625 12.21875 C-16.89200598 6.18681337 -7.03503576 -2.34501192 0 0 Z " fill="#7D7773" transform="translate(325,299)"/>
<path d="M0 0 C1.98 0 3.96 0 6 0 C9.07794799 7.87350088 10.59972035 14.53727954 10 23 C4.4414006 26.31150602 0.48770908 27.56909729 -6 27 C-7.74168253 25.25831747 -7.58177166 22.74456235 -7.9375 20.375 C-8.49220048 16.85911648 -9.06247801 13.46106325 -10.125 10.0625 C-10.94536505 7.19122231 -11.17952241 4.96211978 -11 2 C-9.02 2 -7.04 2 -5 2 C-3.02 6.29 -1.04 10.58 1 15 C1.09038099 9.84828377 0.84681133 5.08086796 0 0 Z " fill="#938D89" transform="translate(491,695)"/>
<path d="M0 0 C6.17452955 0.72456214 10.76504737 1.86187464 15.359375 6.33203125 C17.39385403 9.64747856 17.82831624 12.22082657 18.046875 16.08203125 C17.716875 16.74203125 17.386875 17.40203125 17.046875 18.08203125 C12.10806602 16.847329 8.80346438 14.61582957 4.87890625 11.51953125 C3.32381122 10.29932875 1.69156184 9.17848914 0.046875 8.08203125 C1.29533988 9.81230661 2.54571902 11.54120082 3.796875 13.26953125 C4.49296875 14.23246094 5.1890625 15.19539062 5.90625 16.1875 C7.32255085 18.10260754 8.79707658 19.97610711 10.328125 21.80078125 C12.046875 24.08203125 12.046875 24.08203125 11.796875 26.39453125 C11.549375 26.95140625 11.301875 27.50828125 11.046875 28.08203125 C8.83984375 28.86328125 8.83984375 28.86328125 6.046875 29.08203125 C1.42814503 25.51404345 -2.13017924 20.85452981 -4.578125 15.58203125 C-5.06796372 11.01020321 -4.97299064 6.58095467 -3.953125 2.08203125 C-1.953125 0.08203125 -1.953125 0.08203125 0 0 Z " fill="#CAB3AC" transform="translate(359.953125,661.91796875)"/>
<path d="M0 0 C1.44207941 2.88415883 1.09394887 5.41721528 1.0625 8.625 C1.05347656 9.81351563 1.04445313 11.00203125 1.03515625 12.2265625 C1.02355469 13.14179687 1.01195312 14.05703125 1 15 C-13.66423358 22.5939781 -13.66423358 22.5939781 -20 22 C-21.58031901 16.46888346 -22.4966028 11.76059245 -22 6 C-18.64153509 3.7610234 -15.41108679 2.87127846 -11.5625 1.875 C-10.89412109 1.69324219 -10.22574219 1.51148438 -9.53710938 1.32421875 C-6.2051237 0.44581618 -3.47463228 0 0 0 Z " fill="#77706C" transform="translate(533,657)"/>
<path d="M0 0 C3.83860647 1.50802397 5.841218 3.49554553 8 7 C8.34089765 9.84562865 8.47331791 12.23974101 8.375 15.0625 C8.37371094 15.76955078 8.37242187 16.47660156 8.37109375 17.20507812 C8.30694646 21.00045922 7.94422081 23.73991872 6 27 C5.731875 28.155 5.46375 29.31 5.1875 30.5 C3.84520775 36.26203504 1.36009209 41.59520896 -1 47 C-3.11267419 43.83098872 -3.25555564 43.0241774 -3.265625 39.39453125 C-3.26820313 38.49283203 -3.27078125 37.59113281 -3.2734375 36.66210938 C-3.26570312 35.72173828 -3.25796875 34.78136719 -3.25 33.8125 C-3.25773438 32.89146484 -3.26546875 31.97042969 -3.2734375 31.02148438 C-3.26146699 26.80487213 -3.11872402 22.90882873 -2.0234375 18.82421875 C-0.92585701 14.72295425 -0.6017365 11.23241467 -0.375 7 C-0.33632813 6.32066406 -0.29765625 5.64132812 -0.2578125 4.94140625 C-0.16503704 3.29464183 -0.08151002 1.64736045 0 0 Z " fill="#A9A19C" transform="translate(593,420)"/>
<path d="M0 0 C4.37530211 0.47643374 8.75018363 0.95662806 13.125 1.4375 C14.3625 1.57220703 15.6 1.70691406 16.875 1.84570312 C18.67324219 2.04389648 18.67324219 2.04389648 20.5078125 2.24609375 C22.15740967 2.42676392 22.15740967 2.42676392 23.84033203 2.61108398 C32.70182395 3.70182395 32.70182395 3.70182395 36 7 C38.68264093 7.27514266 40.4947241 7.20526833 43 6.1875 C45 6 45 6 47.6875 8.125 C49.97575359 10.96985581 50.69404824 12.43056285 51 16 C48 18 48 18 45.84375 17.90234375 C41.78502188 16.6144781 38.21928348 14.61485073 34.5 12.5625 C25.29576601 6.98394992 25.29576601 6.98394992 15 7 C12.144932 8.01176728 9.31160585 9.06284752 6.48828125 10.16015625 C4 11 4 11 1 11 C1.350625 10.443125 1.70125 9.88625 2.0625 9.3125 C3.23729128 6.41468152 2.93104132 4.9482975 2 2 C1.34 1.34 0.68 0.68 0 0 Z " fill="#9F9894" transform="translate(399,697)"/>
<path d="M0 0 C1.92918326 1.08874699 3.82355432 2.2404935 5.6875 3.4375 C17.49789034 10.40662997 32.1721344 10.67030611 45.5625 8.39453125 C49.85152752 7.24651709 53.88906199 5.66757626 58 4 C55.86740832 9.51895978 51.11053158 10.73201261 46 13 C45.33484375 13.32484375 44.6696875 13.6496875 43.984375 13.984375 C35.19380982 17.89950067 24.01891322 16.7275458 15 14 C9.28432859 11.43285564 3.53643314 8.38000441 -1 4 C-1 3.34 -1 2.68 -1 2 C-1.99 2.66 -2.98 3.32 -4 4 C-7.1875 4.125 -7.1875 4.125 -10 4 C-10 3.01 -10 2.02 -10 1 C-6.14429593 -0.87277055 -4.10683943 -1.18535599 0 0 Z " fill="#2F2B29" transform="translate(467,535)"/>
<path d="M0 0 C6.95660771 0.57021375 13.31427305 2.01302694 20 4 C19.45207105 8.6182583 17.41035512 11.98149647 14.9375 15.8125 C14.56044922 16.40998047 14.18339844 17.00746094 13.79492188 17.62304688 C12.87010434 19.08636577 11.93597935 20.54379523 11 22 C9.66536458 21.0234375 8.33072917 20.046875 6.99609375 19.0703125 C4.29363855 17.53032746 4.29363855 17.53032746 -2 16 C-1.34 10.72 -0.68 5.44 0 0 Z " fill="#D4C9C6" transform="translate(446,475)"/>
<path d="M0 0 C1.35315308 0.05160278 1.35315308 0.05160278 2.73364258 0.10424805 C4.25332642 0.16140991 4.25332642 0.16140991 5.80371094 0.21972656 C6.90078369 0.26798584 7.99785645 0.31624512 9.12817383 0.3659668 C10.24264893 0.41229248 11.35712402 0.45861816 12.50537109 0.50634766 C22.73360982 0.97018218 32.90751808 1.83741295 43.09082031 2.88574219 C44.96307179 3.08356637 44.96307179 3.08356637 46.94067383 3.0534668 C46.94067383 4.0434668 46.94067383 5.0334668 46.94067383 6.0534668 C36.87109523 5.45558557 26.93443332 4.39029436 16.94067383 3.0534668 C17.60067383 3.7134668 18.26067383 4.3734668 18.94067383 5.0534668 C18.62817383 7.4284668 18.62817383 7.4284668 17.94067383 10.0534668 C17.75504883 10.8165918 17.56942383 11.5797168 17.37817383 12.3659668 C17.16161133 13.2012793 17.16161133 13.2012793 16.94067383 14.0534668 C14.09992662 14.940654 11.93693885 15.48916454 9.13305664 14.26293945 C7.2013495 13.04703997 5.38562813 11.74328085 3.56567383 10.3659668 C2.92500977 9.91801758 2.2843457 9.47006836 1.62426758 9.00854492 C-0.20776367 7.66674805 -0.20776367 7.66674805 -3.05932617 5.0534668 C-3.05932617 0.07943005 -3.05932617 0.07943005 0 0 Z " fill="#99928F" transform="translate(384.059326171875,694.946533203125)"/>
<path d="M0 0 C-0.11498267 2.20887757 -0.24243505 4.41710787 -0.375 6.625 C-0.44460938 7.85476563 -0.51421875 9.08453125 -0.5859375 10.3515625 C-0.9814487 13.83653855 -1.76261849 16.73049601 -3 20 C-3.33 19.34 -3.66 18.68 -4 18 C-5.051875 18.495 -6.10375 18.99 -7.1875 19.5 C-10.25452609 20.82779788 -12.62134936 21.30715006 -16 21 C-17.41634833 18.16730334 -17.3463005 15.52533562 -17.5625 12.375 C-17.64628906 11.18648438 -17.73007812 9.99796875 -17.81640625 8.7734375 C-17.87699219 7.85820312 -17.93757812 6.94296875 -18 6 C-12.74974423 3.09854286 -6.12920225 0 0 0 Z " fill="#90B9D2" transform="translate(568,456)"/>
<path d="M0 0 C2.64 0 5.28 0 8 0 C8 2.31 8 4.62 8 7 C12.12619031 6.97694108 16.2496967 6.89927822 20.375 6.8125 C21.53128906 6.80669922 22.68757813 6.80089844 23.87890625 6.79492188 C31.77102191 6.59427487 37.26813748 5.11180574 44 1 C44.66 0.67 45.32 0.34 46 0 C47.32 2.64 48.64 5.28 50 8 C41.83078612 11.14200534 33.40033571 11.16964278 24.75 11.125 C23.38161987 11.12209961 23.38161987 11.12209961 21.9855957 11.11914062 C14.95136807 11.07438809 7.99982085 10.72725411 1 10 C0.67 6.7 0.34 3.4 0 0 Z " fill="#45413E" transform="translate(465,726)"/>
<path d="M0 0 C10.23 0 20.46 0 31 0 C31 0.33 31 0.66 31 1 C24.73 1 18.46 1 12 1 C12 6.94 12 12.88 12 19 C3 19 3 19 -1 18 C-1.09896353 11.76529746 -0.701923 6.31730701 0 0 Z " fill="#504B48" transform="translate(402,667)"/>
<path d="M0 0 C0.9075 0.86625 1.815 1.7325 2.75 2.625 C2.75 3.285 2.75 3.945 2.75 4.625 C-1.36724002 3.3516268 -5.01950423 1.78629537 -8.8125 -0.25 C-18.96431078 -5.36950212 -29.23447741 -7.78173194 -40.42236328 -9.33666992 C-42.37493076 -9.62084541 -44.31469251 -9.99047384 -46.25 -10.375 C-46.58 -11.035 -46.91 -11.695 -47.25 -12.375 C-28.37187615 -15.80738615 -14.73222177 -12.03477271 0 0 Z " fill="#302E2B" transform="translate(555.25,326.375)"/>
<path d="M0 0 C3.33963962 -0.44528528 5.50000504 -0.20237891 8.625 1.0625 C12.73278535 4.41358805 14.77840952 8.0426174 15.375 13.3125 C15 16 15 16 13 18 C9.49544307 18.54973442 7.07201107 18.689301 4.01953125 16.7265625 C-0.58147321 12.83705357 -0.58147321 12.83705357 -2 10 C-2.35294118 3.52941176 -2.35294118 3.52941176 0 0 Z " fill="#7E7874" transform="translate(319,468)"/>
<path d="M0 0 C1.79244141 0.23009766 1.79244141 0.23009766 3.62109375 0.46484375 C10.08534064 1.1830934 16.56549882 1.35180512 23.0625 1.5625 C24.93325195 1.62727539 24.93325195 1.62727539 26.84179688 1.69335938 C29.89444091 1.79862296 32.94715523 1.90075941 36 2 C36 2.33 36 2.66 36 3 C31.05 3 26.1 3 21 3 C21 5.97 21 8.94 21 12 C18.08302989 11.85895309 15.1665198 11.71235186 12.25 11.5625 C11.0125 11.50352539 11.0125 11.50352539 9.75 11.44335938 C8.95078125 11.40146484 8.1515625 11.35957031 7.328125 11.31640625 C6.5949707 11.27974854 5.86181641 11.24309082 5.10644531 11.20532227 C2.98822395 10.99885215 1.0480544 10.56867914 -1 10 C-1.125 2.25 -1.125 2.25 0 0 Z " fill="#484441" transform="translate(380,726)"/>
<path d="M0 0 C5.00407143 0.65627166 7.46366199 2.84844217 10.8125 6.5 C12.33741998 9.54983996 12.04812548 12.1423369 11.8125 15.5 C10.6875 17.4375 10.6875 17.4375 8.8125 18.5 C5.1908302 18.90793534 3.45445766 18.97341693 0.4765625 16.77734375 C-5.03654819 10.45099643 -5.03654819 10.45099643 -5.8125 5.5625 C-4.95748923 1.37294724 -4.23280674 0.66396968 0 0 Z " fill="#7E7773" transform="translate(321.1875,342.5)"/>
<path d="M0 0 C3.4821057 2.4661684 5.64922266 4.94766799 7 9 C7.1875 12.5625 7.1875 12.5625 7 16 C6.34 16.66 5.68 17.32 5 18 C-1.91797346 17.77683957 -1.91797346 17.77683957 -5.4375 15.25 C-7.15096845 12.78260543 -7.67054081 10.9651327 -8 8 C-8.66 8 -9.32 8 -10 8 C-10.21917317 5.29686424 -10.32851983 3.56041618 -8.9375 1.1875 C-5.76674874 -0.75586368 -3.63659302 -0.55473453 0 0 Z " fill="#7D7773" transform="translate(281,359)"/>
<path d="M0 0 C0 0.66 0 1.32 0 2 C-1.46875 3.4453125 -1.46875 3.4453125 -3.5 5.125 C-4.23605469 5.75921875 -4.97210938 6.3934375 -5.73046875 7.046875 C-7.12616196 8.24798792 -8.5241052 9.44649936 -9.92578125 10.640625 C-19.14840768 19.11856731 -25.60662205 30.81000089 -31 42 C-31.33 42 -31.66 42 -32 42 C-32 31.07855258 -26.59975882 18.58202455 -18.97265625 10.59375 C-5.86029412 0 -5.86029412 0 0 0 Z " fill="#282724" transform="translate(370,254)"/>
<path d="M0 0 C2.61795251 1.59130447 3.75891303 3.05855296 4.84375 5.90625 C4.84375 6.69 4.84375 7.47375 4.84375 8.28125 C2.84375 10.28125 2.84375 10.28125 0.48828125 10.546875 C-11.80724026 10.47903764 -11.80724026 10.47903764 -17.15625 6.96875 C-18.15625 5.28125 -18.15625 5.28125 -17.96875 2.65625 C-15.95210631 -3.23855464 -4.90770421 -1.6359014 0 0 Z " fill="#C2BEBB" transform="translate(464.15625,590.71875)"/>
<path d="M0 0 C2.97 0.495 2.97 0.495 6 1 C6 1.66 6 2.32 6 3 C6.67546875 3.10957031 7.3509375 3.21914063 8.046875 3.33203125 C8.93890625 3.49058594 9.8309375 3.64914062 10.75 3.8125 C11.63171875 3.96332031 12.5134375 4.11414063 13.421875 4.26953125 C16.1910911 5.05414248 17.8259401 6.14595359 20 8 C18.68 8.33 17.36 8.66 16 9 C15.67 11.31 15.34 13.62 15 16 C12.69 15.34 10.38 14.68 8 14 C8 13.34 8 12.68 8 12 C7.37351562 11.86722656 6.74703125 11.73445312 6.1015625 11.59765625 C5.28429687 11.42105469 4.46703125 11.24445312 3.625 11.0625 C2.81289063 10.88847656 2.00078125 10.71445312 1.1640625 10.53515625 C-1 10 -1 10 -3 9 C-2.44271087 5.65626525 -1.64826111 2.96687001 0 0 Z " fill="#655E5A" transform="translate(332,625)"/>
<path d="M0 0 C1.98 0 3.96 0 6 0 C8.89763157 7.41224505 11.60028133 14.9553425 10 23 C6.77208445 25.1519437 5.71599191 25.20086443 2 25 C2.02320313 24.20078125 2.04640625 23.4015625 2.0703125 22.578125 C2.19776662 14.82163126 1.53394297 7.60123527 0 0 Z " fill="#A19B97" transform="translate(491,695)"/>
<path d="M0 0 C-0.66 4.29 -1.32 8.58 -2 13 C-13.25 12.0625 -13.25 12.0625 -17 11 C-17.33 9.02 -17.66 7.04 -18 5 C-16.68 5 -15.36 5 -14 5 C-14 4.34 -14 3.68 -14 3 C-12.23050388 2.49528803 -10.45934777 1.99639315 -8.6875 1.5 C-7.70136719 1.2215625 -6.71523438 0.943125 -5.69921875 0.65625 C-3 0 -3 0 0 0 Z " fill="#8D8884" transform="translate(527,687)"/>
<path d="M0 0 C3.62455945 1.13914725 6.84683355 2.41917697 10.28125 4.03125 C5.70557707 8.43131075 0.50235751 9.94898976 -5.40625 11.84375 C-6.84967773 12.33004883 -6.84967773 12.33004883 -8.32226562 12.82617188 C-15.45429737 15.16347631 -15.45429737 15.16347631 -17.71875 14.03125 C-15.56480426 11.64439684 -13.36603072 9.30390835 -11.15625 6.96875 C-10.54716797 6.29263672 -9.93808594 5.61652344 -9.31054688 4.91992188 C-4.62772803 0.03888847 -4.62772803 0.03888847 0 0 Z " fill="#8F7F7A" transform="translate(545.71875,438.96875)"/>
<path d="M0 0 C-1.1196986 1.00593243 -2.2459412 2.0045849 -3.375 3 C-4.31472656 3.8353125 -4.31472656 3.8353125 -5.2734375 4.6875 C-7 6 -7 6 -9 6 C-9.38091797 6.86238281 -9.38091797 6.86238281 -9.76953125 7.7421875 C-11.13923449 10.25548423 -12.72943428 12.03998699 -14.6875 14.125 C-18.42162819 18.22027563 -21.57596743 22.52485331 -24.65234375 27.12890625 C-25.09707031 27.74636719 -25.54179687 28.36382812 -26 29 C-26.33 29 -26.66 29 -27 29 C-26.65346951 19.64367674 -22.41124468 12.94160837 -15.625 6.625 C-5.47724529 -1.82574843 -5.47724529 -1.82574843 0 0 Z " fill="#262422" transform="translate(325,299)"/>
<path d="M0 0 C9.08009321 -0.4490156 17.19421143 0.81157917 26 3 C26 3.66 26 4.32 26 5 C24.23050388 5.50471197 22.45934777 6.00360685 20.6875 6.5 C19.20830078 6.91765625 19.20830078 6.91765625 17.69921875 7.34375 C15 8 15 8 12 8 C12 8.66 12 9.32 12 10 C9.25 10.375 9.25 10.375 6 10 C3.4531655 6.88720228 1.7751552 3.58145348 0 0 Z " fill="#CCB5AD" transform="translate(384,576)"/>
<path d="M0 0 C1.9453125 1.6484375 1.9453125 1.6484375 4.6328125 4.3984375 C3.9728125 4.7284375 3.3128125 5.0584375 2.6328125 5.3984375 C1.29289135 4.74511252 -0.03892169 4.07514435 -1.3671875 3.3984375 C-3.45961766 2.85139693 -5.56577828 2.35549895 -7.6796875 1.8984375 C-11.10373921 1.15284518 -14.43877851 0.37637178 -17.7890625 -0.65625 C-21.68310182 -1.68502458 -25.28659529 -2.01321247 -29.3046875 -2.2265625 C-29.98853516 -2.26523437 -30.67238281 -2.30390625 -31.37695312 -2.34375 C-33.03998263 -2.43678662 -34.70354597 -2.52020037 -36.3671875 -2.6015625 C-28.44958551 -10.51916449 -8.17794292 -5.53293168 0 0 Z " fill="#2F2D2B" transform="translate(486.3671875,260.6015625)"/>
<path d="M0 0 C2.01136276 2.55991624 3.62845496 5.04590299 5 8 C0.59825215 9.68490746 -3.00772175 10.23846127 -7.7109375 10.1953125 C-8.95488281 10.18886719 -10.19882812 10.18242188 -11.48046875 10.17578125 C-12.76566406 10.15902344 -14.05085938 10.14226563 -15.375 10.125 C-16.68339844 10.11597656 -17.99179687 10.10695313 -19.33984375 10.09765625 C-22.5600837 10.07415085 -25.77994707 10.04129087 -29 10 C-29 9.34 -29 8.68 -29 8 C-27.22496094 7.87044922 -27.22496094 7.87044922 -25.4140625 7.73828125 C-11.6413935 6.82877616 -11.6413935 6.82877616 0 0 Z " fill="#5E5854" transform="translate(510,726)"/>
<path d="M0 0 C3.98619959 1.52624759 5.78204105 3.96556041 8.25 7.375 C8.95640625 8.33148438 9.6628125 9.28796875 10.390625 10.2734375 C12 13 12 13 12 17 C5.08030189 16.88271698 5.08030189 16.88271698 2.35546875 14.65625 C-1.19634032 10.15251516 -1.58183076 6.62436406 -1 1 C-0.67 0.67 -0.34 0.34 0 0 Z " fill="#7E7874" transform="translate(438,319)"/>
<path d="M0 0 C2.9375 0.375 2.9375 0.375 4.9375 2.375 C5.480879 8.35216895 5.480879 8.35216895 3.875 11.375 C0.77563522 12.97467215 -1.76208714 12.10842508 -5.0625 11.375 C-6.0625 10.375 -6.0625 10.375 -6.3125 7.5625 C-5.93549782 2.75572224 -4.96599229 0.60808069 0 0 Z " fill="#C1BDBA" transform="translate(507.0625,615.625)"/>
<path d="M0 0 C1.32 0 2.64 0 4 0 C5.42247747 2.84495493 5.20793601 5.3311796 5.25 8.5 C5.28867187 10.24796875 5.28867187 10.24796875 5.328125 12.03125 C5.21984375 13.0109375 5.1115625 13.990625 5 15 C2 17 2 17 -1 17 C-1.96328543 13.74794841 -2.16468233 10.76114248 -2.1875 7.375 C-2.20167969 6.41335938 -2.21585938 5.45171875 -2.23046875 4.4609375 C-2 2 -2 2 0 0 Z " fill="#9C928D" transform="translate(529,657)"/>
<path d="M0 0 C1 1 1 1 1.125 4.4375 C1 8 1 8 0 10 C-6.0546875 10.1953125 -6.0546875 10.1953125 -8 10 C-10 8 -10 8 -10.3125 5.0625 C-10 2 -10 2 -8.9375 0.0625 C-5.84787273 -1.63181173 -3.32782582 -0.73951685 0 0 Z " fill="#B3AEAA" transform="translate(414,602)"/>
<path d="M0 0 C2.91227269 3.28804981 4.49701212 5.59885603 5 10 C5.66 10 6.32 10 7 10 C7.66 11.98 8.32 13.96 9 16 C8.01 16.33 7.02 16.66 6 17 C5.26676204 19.01508358 5.26676204 19.01508358 5 21 C2.125 20.6875 2.125 20.6875 -1 20 C-1.66 19.01 -2.32 18.02 -3 17 C-0.69 17.33 1.62 17.66 4 18 C1.99021577 12.44353771 -0.83469147 8.38826508 -4.57421875 3.8203125 C-6 2 -6 2 -6 1 C-4.02 0.67 -2.04 0.34 0 0 Z " fill="#938C87" transform="translate(446,318)"/>
<path d="M0 0 C7.40239645 -0.12886183 14.63959083 0.20274098 22 1 C20.68 1.33 19.36 1.66 18 2 C18.33 3.65 18.66 5.3 19 7 C13.39 6.67 7.78 6.34 2 6 C1.34 4.02 0.68 2.04 0 0 Z " fill="#7E7570" transform="translate(390,649)"/>
<path d="M0 0 C16.5309551 -0.68038992 16.5309551 -0.68038992 22.59375 4.3125 C24 5.6875 24 5.6875 26 8 C24.741875 7.71125 23.48375 7.4225 22.1875 7.125 C18.57570026 6.31604801 14.95966212 5.62951017 11.3125 5 C7.39672864 4.30704046 3.73145017 3.41190006 0 2 C0 1.34 0 0.68 0 0 Z " fill="#1E1D1B" transform="translate(467,310)"/>
<path d="M0 0 C19.00455581 -0.18451025 19.00455581 -0.18451025 27 1 C27.625 3.375 27.625 3.375 28 6 C27.34 6.66 26.68 7.32 26 8 C22.5 7.8125 22.5 7.8125 19 7 C17 4 17 4 17 1 C16.236875 1.185625 15.47375 1.37125 14.6875 1.5625 C9.69730678 2.15455682 4.97396797 1.57528099 0 1 C0 0.67 0 0.34 0 0 Z " fill="#5D5854" transform="translate(414,697)"/>
<path d="M0 0 C0.33 0 0.66 0 1 0 C1.50803456 9.05054166 -0.01281019 17.2350735 -2 26 C-4.9737795 23.0262205 -4.36827115 19.79261649 -4.375 15.8125 C-4.39949219 15.06935547 -4.42398437 14.32621094 -4.44921875 13.56054688 C-4.4789014 7.91589543 -3.1383869 4.68277097 0 0 Z " fill="#272523" transform="translate(265,392)"/>
<path d="M0 0 C-0.11498267 2.20887757 -0.24243505 4.41710787 -0.375 6.625 C-0.44460938 7.85476563 -0.51421875 9.08453125 -0.5859375 10.3515625 C-0.9814487 13.83653855 -1.76261849 16.73049601 -3 20 C-5.48333013 17.51666987 -5.29861185 16.49113322 -5.5 13.0625 C-5.71715529 9.37628895 -5.88089579 8.17865632 -8 5 C-8 4.01 -8 3.02 -8 2 C-2.25 0 -2.25 0 0 0 Z " fill="#C6BCBA" transform="translate(568,456)"/>
<path d="M0 0 C-0.11458693 1.43836751 -0.24209116 2.87570966 -0.375 4.3125 C-0.44460938 5.11300781 -0.51421875 5.91351562 -0.5859375 6.73828125 C-1 9 -1 9 -3 12 C-5.31 11.67 -7.62 11.34 -10 11 C-9.60246179 9.53633658 -9.18118616 8.0791065 -8.75 6.625 C-8.51796875 5.81289063 -8.2859375 5.00078125 -8.046875 4.1640625 C-7 2 -7 2 -5.078125 0.7109375 C-3 0 -3 0 0 0 Z " fill="#C4C1BF" transform="translate(527,687)"/>
<path d="M0 0 C0.33 4.95 0.66 9.9 1 15 C0.01 15.495 0.01 15.495 -1 16 C-3.70604116 11.68958661 -6.4014643 7.37648119 -9 3 C-3.375 0 -3.375 0 0 0 Z " fill="#393735" transform="translate(539,577)"/>
<path d="M0 0 C1.98 0 3.96 0 6 0 C5.53444296 6.40140935 3.85288164 11.26769829 1 17 C-2.12500425 12.31249363 -1.38694579 7.37004297 -0.5 1.9375 C-0.335 1.298125 -0.17 0.65875 0 0 Z " fill="#CAC0BA" transform="translate(591,450)"/>
<path d="M0 0 C0 0.33 0 0.66 0 1 C-8.91 1 -17.82 1 -27 1 C-25.68 0.34 -24.36 -0.32 -23 -1 C-22.278125 -1.37125 -21.55625 -1.7425 -20.8125 -2.125 C-13.46324444 -4.41143506 -6.97544318 -2.77038878 0 0 Z " fill="#3D3B38" transform="translate(441,231)"/>
<path d="M0 0 C3.5625 0.1875 3.5625 0.1875 5.5625 2.1875 C5.00694444 6.74305556 5.00694444 6.74305556 3.5625 8.1875 C0.625 8.375 0.625 8.375 -2.4375 8.1875 C-4.4375 6.1875 -4.4375 6.1875 -4.625 3.625 C-4.33162457 -0.18888063 -3.96935544 0.2165103 0 0 Z " fill="#706B68" transform="translate(397.4375,697.8125)"/>
<path d="M0 0 C4.22439597 2.11219798 5.11574484 2.85463866 7 7 C7.1875 10.3125 7.1875 10.3125 7 13 C4.75 13.75 4.75 13.75 2 14 C-0.3125 12.0625 -0.3125 12.0625 -2 10 C-0.68 10 0.64 10 2 10 C1.34 6.7 0.68 3.4 0 0 Z " fill="#35312E" transform="translate(499,511)"/>
<path d="M0 0 C3.96 0 7.92 0 12 0 C11.01 0.33 10.02 0.66 9 1 C9 3.64 9 6.28 9 9 C9.99 9.33 10.98 9.66 12 10 C9.25 10.375 9.25 10.375 6 10 C3.41368357 6.83894659 1.82806571 3.65613142 0 0 Z " fill="#7D6962" transform="translate(384,576)"/>
<path d="M0 0 C1.58468677 0.45363171 3.16769924 0.91311452 4.75 1.375 C5.63171875 1.63023437 6.5134375 1.88546875 7.421875 2.1484375 C9.76080572 2.9209934 11.83442562 3.83625676 14 5 C9.65882353 8.97941176 9.65882353 8.97941176 7 9.0625 C4.06985585 7.50586092 2.14851292 5.50659841 0 3 C0 2.01 0 1.02 0 0 Z " fill="#B0DEFB" transform="translate(430,487)"/>
<path d="M0 0 C-0.33 3.63 -0.66 7.26 -1 11 C-2.65 11.33 -4.3 11.66 -6 12 C-7 11 -7 11 -7.3125 7.6875 C-7 4 -7 4 -5.1875 1.5625 C-3 0 -3 0 0 0 Z " fill="#2B2927" transform="translate(385,307)"/>
<path d="M0 0 C2.625 0.375 2.625 0.375 5 1 C5.625 3.3125 5.625 3.3125 6 6 C5.01 7.485 5.01 7.485 4 9 C-0.875 8.125 -0.875 8.125 -2 7 C-2.1875 4.5625 -2.1875 4.5625 -2 2 C-1.34 1.34 -0.68 0.68 0 0 Z " fill="#55504D" transform="translate(435,674)"/>
<path d="M0 0 C6.88321768 -0.11365478 13.59002877 0.3230289 20.4375 1 C22.39446462 1.18819413 24.35149286 1.37572827 26.30859375 1.5625 C27.58947876 1.68818359 27.58947876 1.68818359 28.89624023 1.81640625 C30.98011194 2.02897964 30.98011194 2.02897964 33 2 C33 2.99 33 3.98 33 5 C21.84036797 4.47205656 11.00155528 2.86486918 0 1 C0 0.67 0 0.34 0 0 Z " fill="#877F7B" transform="translate(398,696)"/>
<path d="M0 0 C1.93709638 3.25753924 2.23715445 5.65609928 2.1953125 9.421875 C2.18886719 10.44667969 2.18242188 11.47148437 2.17578125 12.52734375 C2.15902344 13.59082031 2.14226563 14.65429688 2.125 15.75 C2.11597656 16.82894531 2.10695313 17.90789062 2.09765625 19.01953125 C2.07411305 21.67991278 2.04122799 24.33984336 2 27 C1.67 27 1.34 27 1 27 C1 25.35 1 23.7 1 22 C0.01 22 -0.98 22 -2 22 C-1.84660156 21.00871094 -1.69320312 20.01742188 -1.53515625 18.99609375 C-0.96829002 15.02803017 -0.68535452 11.06358009 -0.4375 7.0625 C-0.39431641 6.37865234 -0.35113281 5.69480469 -0.30664062 4.99023438 C-0.20196005 3.32697635 -0.10062406 1.66350837 0 0 Z " fill="#79736F" transform="translate(601,428)"/>
<path d="M0 0 C1.1446875 0.3403125 1.1446875 0.3403125 2.3125 0.6875 C2.35504356 2.68704746 2.35330783 4.68791636 2.3125 6.6875 C1.3125 7.6875 1.3125 7.6875 -1.75 7.75 C-2.719375 7.729375 -3.68875 7.70875 -4.6875 7.6875 C-5.375 5.375 -5.375 5.375 -5.6875 2.6875 C-4.0011022 -0.12316299 -3.27764429 -0.38112143 0 0 Z " fill="#544F4C" transform="translate(492.6875,674.3125)"/>
<path d="M0 0 C0.33 0.66 0.66 1.32 1 2 C0.22265625 3.7265625 0.22265625 3.7265625 -0.9375 5.625 C-1.618125 6.73875 -2.29875 7.8525 -3 9 C-5.375 8.8125 -5.375 8.8125 -8 8 C-9.3125 5.4375 -9.3125 5.4375 -10 3 C-5.05 1.515 -5.05 1.515 0 0 Z " fill="#AFDDFA" transform="translate(562,474)"/>
<path d="M0 0 C0.33 0 0.66 0 1 0 C1.33 10.56 1.66 21.12 2 32 C-1.27779873 28.72220127 -1.40494034 28.1639187 -1.6875 23.8125 C-1.75324219 22.91144531 -1.81898438 22.01039063 -1.88671875 21.08203125 C-1.94279297 20.05142578 -1.94279297 20.05142578 -2 19 C-1.67 19 -1.34 19 -1 19 C-0.67 12.73 -0.34 6.46 0 0 Z " fill="#55514E" transform="translate(322,434)"/>
<path d="M0 0 C3.13599692 3.13599692 3.94057051 4.35736889 4.09765625 8.69921875 C4.08605469 9.68535156 4.07445312 10.67148437 4.0625 11.6875 C4.05347656 12.68136719 4.04445313 13.67523437 4.03515625 14.69921875 C4.02355469 15.45847656 4.01195312 16.21773437 4 17 C3.01 17.33 2.02 17.66 1 18 C0.67 12.06 0.34 6.12 0 0 Z " fill="#BDBAB7" transform="translate(497,701)"/>
<path d="M0 0 C2.125 0.375 2.125 0.375 4 1 C4.38133299 2.9914056 4.71325582 4.99279077 5 7 C4 8 4 8 1.5 8.125 C-1 8 -1 8 -2 7 C-2.1875 4.5625 -2.1875 4.5625 -2 2 C-1.34 1.34 -0.68 0.68 0 0 Z " fill="#4F4B4A" transform="translate(326,591)"/>
<path d="M0 0 C2.04136395 -0.05451714 4.08315856 -0.09302485 6.125 -0.125 C7.83042969 -0.15980469 7.83042969 -0.15980469 9.5703125 -0.1953125 C13.05757767 0.00327891 15.7553862 0.7475199 19 2 C14.74938644 3.41687119 12.28148375 2.19320039 8 1 C8 1.66 8 2.32 8 3 C9.65 3.33 11.3 3.66 13 4 C9.57056481 5.18771723 7.62215325 4.80226223 4.25 3.5625 C3.45078125 3.27503906 2.6515625 2.98757813 1.828125 2.69140625 C1.22484375 2.46324219 0.6215625 2.23507812 0 2 C0 1.34 0 0.68 0 0 Z " fill="#5F5B57" transform="translate(467,310)"/>
<path d="M0 0 C0.99 2.97 1.98 5.94 3 9 C1.68 8.34 0.36 7.68 -1 7 C-2.66140763 6.32033324 -4.32700041 5.65061095 -6 5 C-5.625 3.0625 -5.625 3.0625 -5 1 C-3 0 -3 0 0 0 Z " fill="#AE9C95" transform="translate(542,642)"/>
<path d="M0 0 C3.3 0 6.6 0 10 0 C9.67 1.98 9.34 3.96 9 6 C4.75177626 5.52797514 2.80010291 3.03344482 0 0 Z " fill="#A6938D" transform="translate(370,659)"/>
<path d="M0 0 C1.8125 1.5625 1.8125 1.5625 3 3 C1.68 3.33 0.36 3.66 -1 4 C-1 3.34 -1 2.68 -1 2 C-1.99 2.66 -2.98 3.32 -4 4 C-7.1875 4.125 -7.1875 4.125 -10 4 C-10 3.01 -10 2.02 -10 1 C-6.24928186 -0.82177738 -3.99362668 -1.36624071 0 0 Z " fill="#393532" transform="translate(467,535)"/>
<path d="M0 0 C0 0.33 0 0.66 0 1 C-2.97 1 -5.94 1 -9 1 C-9 1.66 -9 2.32 -9 3 C-7.35 3.33 -5.7 3.66 -4 4 C-7.35216734 5.10176129 -9.75121078 4.89303058 -13.1875 4.1875 C-14.06792969 4.01605469 -14.94835937 3.84460938 -15.85546875 3.66796875 C-16.56316406 3.44753906 -17.27085937 3.22710937 -18 3 C-18.33 2.34 -18.66 1.68 -19 1 C-12.65758005 -0.15316726 -6.43311296 -0.09507063 0 0 Z " fill="#585451" transform="translate(527,313)"/>
<path d="M0 0 C2.64 0 5.28 0 8 0 C6.68 0.33 5.36 0.66 4 1 C4 2.65 4 4.3 4 6 C4.66 6.33 5.32 6.66 6 7 C4.02 7.33 2.04 7.66 0 8 C0 5.36 0 2.72 0 0 Z " fill="#B5998F" transform="translate(393,577)"/>
<path d="M0 0 C0.33 0 0.66 0 1 0 C1.18451025 11.52164009 1.18451025 11.52164009 0 17 C-0.33 17 -0.66 17 -1 17 C-1 13.37 -1 9.74 -1 6 C-1.66 8.97 -2.32 11.94 -3 15 C-3.33 15 -3.66 15 -4 15 C-4.45356243 8.53673535 -3.59378942 5.39068413 0 0 Z " fill="#494542" transform="translate(265,392)"/>
<path d="M0 0 C0 3 0 3 -2.625 5.91796875 C-3.74249406 7.01550756 -4.86785643 8.10507895 -6 9.1875 C-6.57234375 9.74630859 -7.1446875 10.30511719 -7.734375 10.88085938 C-9.14962788 12.26073093 -10.57397155 13.63126734 -12 15 C-12 10.09687565 -8.29800369 7.38658643 -5 4 C-3.37458956 2.61667196 -1.72614587 1.25537882 0 0 Z " fill="#383431" transform="translate(544,420)"/>
<path d="M0 0 C0.99 0.99 1.98 1.98 3 3 C2.5359375 4.1446875 2.5359375 4.1446875 2.0625 5.3125 C1.32106407 7.18789677 0.63771783 9.08684652 0 11 C2.64 11 5.28 11 8 11 C8 11.33 8 11.66 8 12 C4.37 12 0.74 12 -3 12 C-2.01 8.04 -1.02 4.08 0 0 Z " fill="#605C59" transform="translate(488,626)"/>
<path d="M0 0 C0.66 0.33 1.32 0.66 2 1 C-1.3 4.3 -4.6 7.6 -8 11 C-7.67 11.66 -7.34 12.32 -7 13 C-9.31 13.66 -11.62 14.32 -14 15 C-9.59156563 9.70987876 -4.92440206 4.81191572 0 0 Z " fill="#857671" transform="translate(542,439)"/>
<path d="M0 0 C-1.1196986 1.00593243 -2.2459412 2.0045849 -3.375 3 C-4.00148438 3.556875 -4.62796875 4.11375 -5.2734375 4.6875 C-7 6 -7 6 -9 6 C-9.33 6.99 -9.66 7.98 -10 9 C-10.66 7.68 -11.32 6.36 -12 5 C-8.77464852 1.23708994 -4.90542108 -1.63514036 0 0 Z " fill="#34322F" transform="translate(325,299)"/>
<path d="M0 0 C1.98 0 3.96 0 6 0 C4.87548273 2.9719385 3.77706209 5.33440687 2 8 C0.4375 5.6875 0.4375 5.6875 -1 3 C-0.67 2.01 -0.34 1.02 0 0 Z " fill="#282625" transform="translate(331,590)"/>
<path d="M0 0 C0.33 0 0.66 0 1 0 C0.67 5.94 0.34 11.88 0 18 C-0.66 18 -1.32 18 -2 18 C-2.05397335 15.5622037 -2.09365616 13.12560315 -2.125 10.6875 C-2.14175781 9.99720703 -2.15851563 9.30691406 -2.17578125 8.59570312 C-2.21217794 4.82864604 -2.14378864 3.21568296 0 0 Z " fill="#363331" transform="translate(391,666)"/>
<path d="M0 0 C2 2 2 2 2 5 C2.99 5.33 3.98 5.66 5 6 C4.67 7.32 4.34 8.64 4 10 C2.02 8.35 0.04 6.7 -2 5 C-1.34 3.35 -0.68 1.7 0 0 Z " fill="#C4BDB8" transform="translate(594,390)"/>
<path d="M0 0 C3.28788824 3.11016455 5.83735988 6.01618925 8 10 C3.7257442 8.4169423 1.73468206 5.49431596 -1 2 C-0.67 1.34 -0.34 0.68 0 0 Z " fill="#D6D0CD" transform="translate(586,384)"/>
<path d="M0 0 C2.97 0.33 5.94 0.66 9 1 C8.01 1.495 8.01 1.495 7 2 C7 2.66 7 3.32 7 4 C2.71 4 -1.58 4 -6 4 C-6 3.67 -6 3.34 -6 3 C-3.36 2.67 -0.72 2.34 2 2 C1.34 1.34 0.68 0.68 0 0 Z " fill="#9F9893" transform="translate(437,229)"/>
<path d="M0 0 C0.99 0.33 1.98 0.66 3 1 C2.67 2.65 2.34 4.3 2 6 C0.68 5.67 -0.64 5.34 -2 5 C-1.125 1.125 -1.125 1.125 0 0 Z " fill="#625D59" transform="translate(400,618)"/>
<path d="M0 0 C2.31 0.33 4.62 0.66 7 1 C7 1.99 7 2.98 7 4 C4.69 3.67 2.38 3.34 0 3 C0 2.01 0 1.02 0 0 Z " fill="#BDB9B6" transform="translate(437,596)"/>
<path d="M0 0 C0.99 0.33 1.98 0.66 3 1 C0.36 3.64 -2.28 6.28 -5 9 C-5.33 8.01 -5.66 7.02 -6 6 C-4.02 4.02 -2.04 2.04 0 0 Z " fill="#33302E" transform="translate(310,305)"/>
<path d="M0 0 C1 3 1 3 0.4375 4.9375 C-1.54607412 7.78349765 -4.06499057 9.21347252 -7 11 C-5.22054913 6.95579349 -2.60470327 3.53921513 0 0 Z " fill="#3B3835" transform="translate(342,354)"/>
<path d="M0 0 C0.33 1.32 0.66 2.64 1 4 C1.66 4 2.32 4 3 4 C3.33 4.66 3.66 5.32 4 6 C6.52733235 6.65555119 6.52733235 6.65555119 9 7 C9 7.33 9 7.66 9 8 C2.84765625 8.09765625 2.84765625 8.09765625 1 8 C0 7 0 7 -0.0625 3.4375 C-0.041875 2.303125 -0.02125 1.16875 0 0 Z " fill="#67625E" transform="translate(484,714)"/>
<path d="M0 0 C0.66 0.33 1.32 0.66 2 1 C-0.64 3.64 -3.28 6.28 -6 9 C-6.66 8.67 -7.32 8.34 -8 8 C-5.58443874 4.80800833 -3.31996462 2.25283313 0 0 Z " fill="#32302D" transform="translate(357,260)"/>
<path d="M0 0 C0 0.66 0 1.32 0 2 C-1.96147874 3.38938077 -3.96166576 4.7260411 -6 6 C-6 5.34 -6 4.68 -6 4 C-6.66 3.67 -7.32 3.34 -8 3 C-3.375 0 -3.375 0 0 0 Z " fill="#4E4A47" transform="translate(370,254)"/>
<path d="M0 0 C3.375 -0.125 3.375 -0.125 7 0 C7.66 0.66 8.32 1.32 9 2 C8.67 2.33 8.34 2.66 8 3 C4.5 2.6875 4.5 2.6875 1 2 C0.67 1.34 0.34 0.68 0 0 Z " fill="#716D69" transform="translate(432,702)"/>
<path d="M0 0 C0.66 0 1.32 0 2 0 C2 2.31 2 4.62 2 7 C1.01 7.33 0.02 7.66 -1 8 C-0.67 5.36 -0.34 2.72 0 0 Z " fill="#BEBAB7" transform="translate(413,603)"/>
<path d="M0 0 C1.98 0 3.96 0 6 0 C6.33 0.99 6.66 1.98 7 3 C4.69 3 2.38 3 0 3 C0 2.01 0 1.02 0 0 Z " fill="#BEBAB6" transform="translate(501,590)"/>
<path d="M0 0 C3.79588866 0.54226981 5.47211993 2.20127563 8 5 C3.545 4.01 3.545 4.01 -1 3 C-0.67 2.01 -0.34 1.02 0 0 Z " fill="#32302D" transform="translate(485,313)"/>
<path d="M0 0 C2.97 0 5.94 0 9 0 C8.01 1.485 8.01 1.485 7 3 C4.0625 2.625 4.0625 2.625 1 2 C0.67 1.34 0.34 0.68 0 0 Z " fill="#847670" transform="translate(476,581)"/>
<path d="M0 0 C0.66 0.33 1.32 0.66 2 1 C2.59528685 3.83906038 3.06881101 6.14434325 3 9 C1.5625 11 1.5625 11 0 12 C-0.33 11.01 -0.66 10.02 -1 9 C-0.67 8.67 -0.34 8.34 0 8 C0.07148199 6.64756083 0.08399454 5.29165633 0.0625 3.9375 C0.041875 2.638125 0.02125 1.33875 0 0 Z " fill="#908984" transform="translate(300,306)"/>
<path d="M0 0 C0 0.66 0 1.32 0 2 C-3.375 2.125 -3.375 2.125 -7 2 C-7.66 1.34 -8.32 0.68 -9 0 C-5.93109813 -1.53445094 -3.29905734 -0.54984289 0 0 Z " fill="#C9C0BB" transform="translate(439,227)"/>
<path d="M0 0 C2.64 0.33 5.28 0.66 8 1 C8 1.99 8 2.98 8 4 C5.125 3.6875 5.125 3.6875 2 3 C1.34 2.01 0.68 1.02 0 0 Z " fill="#A49C98" transform="translate(443,335)"/>
<path d="M0 0 C0 0.99 0 1.98 0 3 C-1.65 3.66 -3.3 4.32 -5 5 C-5.66 4.34 -6.32 3.68 -7 3 C-4.69 2.01 -2.38 1.02 0 0 Z " fill="#605752" transform="translate(524,539)"/>
</svg>
