<?xml version="1.0" encoding="UTF-8"?>
<svg version="1.1" xmlns="http://www.w3.org/2000/svg" width="900" height="900">
<path d="M0 0 C0.80115234 0.0080365 1.60230469 0.016073 2.42773438 0.02435303 C58.82957478 0.61839501 109.14582004 23.92261396 148.53515625 63.75390625 C152.51306301 68.06780513 155.79756053 72.74123895 159.125 77.5625 C159.93270744 78.66922254 160.74407313 79.77328214 161.55859375 80.875 C170.31528823 92.76722089 177.12956497 104.59378354 182.125 118.5625 C182.64652695 119.86899874 183.17282714 121.17359915 183.703125 122.4765625 C189.06522944 135.9117238 192.43836956 149.7991208 195.7419281 163.84780884 C196.64669158 167.66781774 197.63728305 171.44428079 198.7421875 175.2109375 C203.89495389 193.48508018 203.95155375 214.68399138 201.57421875 233.5 C201.03239445 238.10257251 201.16596268 242.61317586 201.30859375 247.234375 C201.9402392 269.14007136 200.64302333 287.73705983 193.125 308.5625 C192.7345752 309.64966309 192.34415039 310.73682617 191.94189453 311.85693359 C182.38300763 337.74411231 168.87927265 359.40928502 148.125 377.5625 C147.40570312 378.24054688 146.68640625 378.91859375 145.9453125 379.6171875 C141.10111168 384.13978162 132.9598773 391.5625 126.125 391.5625 C126.41632813 392.4390625 126.70765625 393.315625 127.0078125 394.21875 C130.73970095 405.68593763 133.64392489 417.31955616 136.48193359 429.03564453 C137.000173 431.07200666 137.60584104 433.08600688 138.23828125 435.08984375 C140.5563648 444.16815333 140.30718776 453.68764523 140.3125 463 C140.32474609 464.15693359 140.33699219 465.31386719 140.34960938 466.50585938 C140.35154297 467.61638672 140.35347656 468.72691406 140.35546875 469.87109375 C140.35957764 470.86939209 140.36368652 471.86769043 140.36791992 472.89624023 C140.12074369 475.6092167 139.51398247 477.24523547 138.125 479.5625 C136.475 479.5625 134.825 479.5625 133.125 479.5625 C133.0425 480.42875 132.96 481.295 132.875 482.1875 C131.27436896 489.39033969 125.75153248 495.0111676 120.125 499.5625 C117.70482804 500.67459408 115.775714 501.12071433 113.125 501.5625 C113.063125 502.614375 113.00125 503.66625 112.9375 504.75 C112.03642002 511.85710973 109.5658337 520.39739171 104.6875 525.8125 C101.77323601 527.80272906 99.62239642 528.3184956 96.125 528.5625 C96.56058486 534.17380721 96.56058486 534.17380721 98.625 539.3125 C100.88580316 544.21090685 100.87451608 549.22460132 101.125 554.5625 C88.79601721 560.15697532 76.42101028 561.04032177 63.06420898 560.89868164 C60.69284905 560.8750533 58.32262049 560.87815583 55.95117188 560.88476562 C45.84248087 560.86475152 36.13411194 559.99727276 26.125 558.5625 C25.135 550.1475 25.135 550.1475 24.125 541.5625 C23.465 541.8925 22.805 542.2225 22.125 542.5625 C20.12539988 542.602492 18.12452758 542.60596799 16.125 542.5625 C16.269375 543.29855469 16.41375 544.03460937 16.5625 544.79296875 C16.748125 545.76878906 16.93375 546.74460937 17.125 547.75 C17.310625 548.71292969 17.49625 549.67585937 17.6875 550.66796875 C18.09377612 553.3559206 18.20433572 555.85021019 18.125 558.5625 C15.95932456 559.04612696 13.79240259 559.52417317 11.625 560 C9.81515625 560.40025391 9.81515625 560.40025391 7.96875 560.80859375 C-14.54161145 565.22373578 -39.84712771 563.8561778 -61.875 557.5625 C-61.545 548.3225 -61.215 539.0825 -60.875 529.5625 C-61.865 529.8925 -62.855 530.2225 -63.875 530.5625 C-69.34462441 530.9211639 -73.43087254 531.11780197 -77.875 527.5625 C-80.39751727 522.85025137 -82.875 517.97137853 -82.875 512.5625 C-83.679375 512.35625 -84.48375 512.15 -85.3125 511.9375 C-96.34524798 507.67924639 -105.38658865 498.98679808 -110.875 488.5625 C-111.78863276 485.17668446 -111.97494269 482.06049426 -111.875 478.5625 C-112.81859375 478.995625 -112.81859375 478.995625 -113.78125 479.4375 C-119.47160958 481.90560777 -123.68084321 483.02132643 -129.875 482.5625 C-132.18383859 477.972309 -132.18448804 473.89233309 -132.125 468.875 C-132.11376099 467.61478027 -132.11376099 467.61478027 -132.10229492 466.32910156 C-131.64248029 438.90462684 -124.80286571 411.04402198 -114.875 385.5625 C-115.40867187 385.33691406 -115.94234375 385.11132812 -116.4921875 384.87890625 C-119.65626739 383.13088178 -122.27714859 380.85115295 -125 378.5 C-125.57476074 378.00902832 -126.14952148 377.51805664 -126.74169922 377.01220703 C-131.03427738 373.32995934 -135.23001787 369.5470954 -139.4140625 365.7421875 C-142.01239991 363.44080294 -144.67729808 361.24635393 -147.375 359.0625 C-169.92646128 340.70370476 -185.89111427 318.7795769 -189.875 289.5625 C-190.15448973 286.58776603 -190.38723196 283.61196458 -190.61132812 280.63256836 C-190.86345865 277.69688197 -191.22185006 274.80063339 -191.62890625 271.8828125 C-195.64629579 241.98289688 -196.64256867 209.85368202 -190.43066406 180.22363281 C-189.88303708 177.6009904 -189.39833987 174.97372399 -188.9296875 172.3359375 C-185.97072087 156.06083781 -181.59548649 140.12659073 -176.1875 124.5 C-175.90221436 123.67306641 -175.61692871 122.84613281 -175.32299805 121.99414062 C-173.84989788 117.86136005 -172.19646362 114.30035028 -169.875 110.5625 C-168.87263499 108.48363136 -167.92402363 106.38327641 -166.97070312 104.28149414 C-159.98940255 88.94845498 -151.44909344 74.69513043 -140.875 61.5625 C-140.44719238 61.02786133 -140.01938477 60.49322266 -139.57861328 59.94238281 C-128.78239618 46.52972563 -116.41211878 34.5223058 -99.875 28.5625 C-99.00488281 28.24410156 -98.13476562 27.92570312 -97.23828125 27.59765625 C-87.8877053 24.61648671 -78.60330944 23.56390569 -68.85083008 22.68969727 C-67.76439209 22.58455811 -66.6779541 22.47941895 -65.55859375 22.37109375 C-64.58462646 22.28657959 -63.61065918 22.20206543 -62.60717773 22.11499023 C-57.56181633 21.0947371 -54.29977917 18.08990916 -50.45996094 14.8203125 C-47.83070571 12.73375629 -44.94897348 11.13955973 -42 9.5625 C-40.84757813 8.923125 -39.69515625 8.28375 -38.5078125 7.625 C-25.77413249 1.58812579 -13.95165 -0.26737752 0 0 Z M-114.875 378.5625 C-114.545 379.5525 -114.215 380.5425 -113.875 381.5625 C-113.545 380.5725 -113.215 379.5825 -112.875 378.5625 C-113.535 378.5625 -114.195 378.5625 -114.875 378.5625 Z " fill="#1D1C1A" transform="translate(427.875,188.4375)"/>
<path d="M0 0 C4.6584016 0.38862626 7.36236555 2.11072883 11.18359375 4.671875 C12.22193359 5.34536987 12.22193359 5.34536987 13.28125 6.0324707 C19.98232025 10.44272783 26.32943119 15.24895882 32.55859375 20.296875 C33.41066406 20.95945313 34.26273438 21.62203125 35.140625 22.3046875 C35.87667969 22.90023437 36.61273438 23.49578125 37.37109375 24.109375 C37.99628906 24.61082031 38.62148438 25.11226562 39.265625 25.62890625 C41.02144093 27.89396185 40.8000661 29.50810604 40.55859375 32.296875 C41.60660156 32.12285156 41.60660156 32.12285156 42.67578125 31.9453125 C46.87368805 32.45725235 48.90106423 34.98069064 51.68359375 37.921875 C52.25198975 38.50727051 52.82038574 39.09266602 53.40600586 39.69580078 C58.75149002 45.30151286 63.48587193 51.31296164 68.15966797 57.47900391 C70.10709018 60.00963318 72.12388774 62.48126655 74.1394043 64.95776367 C104.96203155 102.91467176 104.96203155 102.91467176 104.55859375 124.296875 C103.56859375 124.626875 102.57859375 124.956875 101.55859375 125.296875 C101.29046875 125.998125 101.02234375 126.699375 100.74609375 127.421875 C94.76494337 141.90255486 76.00831475 148.22444109 62.65625 153.82421875 C57.63801939 155.88514832 52.5798532 157.82479713 47.50512695 159.74145508 C27.60119892 167.29304067 9.68870542 177.40532953 -1.44140625 196.296875 C-2.10785156 197.41707031 -2.77429688 198.53726563 -3.4609375 199.69140625 C-18.12199383 225.25819503 -19.0441523 254.17719465 -12.15869141 282.35986328 C-11.47373866 285.16448598 -10.83160847 287.97522545 -10.203125 290.79296875 C-7.94984913 300.7539515 -5.31451725 310.5818676 -2.40844727 320.37207031 C-1.14094217 324.66832549 -0.04944197 328.84518493 0.55859375 333.296875 C-10.74300487 334.13923018 -21.45616243 331.67690067 -32.44140625 329.296875 C-33.13024902 329.14782715 -33.8190918 328.9987793 -34.52880859 328.84521484 C-43.98332544 326.75495581 -43.98332544 326.75495581 -46.44140625 324.296875 C-53.31689012 303.08321748 -53.77712317 280.36685449 -54.44140625 258.296875 C-56.03351614 270.70230806 -56.6414197 282.92528782 -56.62890625 295.421875 C-56.6299939 296.4885994 -56.6299939 296.4885994 -56.63110352 297.57687378 C-56.63018688 305.52967935 -56.46959985 313.40025352 -55.44140625 321.296875 C-59.49203851 320.64967429 -62.14133216 319.85985225 -65.44140625 317.296875 C-71.89285733 307.00903765 -73.8866937 293.28059508 -76.03710938 281.5078125 C-76.41054259 279.46565599 -76.80772901 277.42788131 -77.20703125 275.390625 C-79.53499501 263.40408821 -81.46600532 251.34546251 -83.44140625 239.296875 C-86.0540841 247.26045154 -86.88945271 254.44068685 -86.75390625 262.796875 C-86.74552734 263.92383789 -86.73714844 265.05080078 -86.72851562 266.21191406 C-86.60816777 274.70125182 -85.96176903 283.05225918 -84.87890625 291.46875 C-84.498948 294.79338469 -84.3573698 297.95642607 -84.44140625 301.296875 C-105.70279488 285.11973148 -112.07107845 261.19851954 -115.58374023 235.97631836 C-117.10835317 223.64357586 -116.99598266 211.27658831 -116.89093018 198.87060547 C-116.8749203 196.19264882 -116.88503183 193.51504205 -116.89466572 190.83707523 C-117.0678642 130.23656193 -117.0678642 130.23656193 -108.44140625 117.296875 C-107.88213646 115.16520337 -107.88213646 115.16520337 -107.515625 112.80078125 C-101.65754849 81.38122416 -87.33340259 51.55461056 -65.44140625 28.296875 C-64.91417969 27.70519531 -64.38695312 27.11351562 -63.84375 26.50390625 C-51.93271552 13.67898166 -35.00957055 2.81098802 -17.44140625 1.296875 C-16.24902344 1.18859375 -15.05664062 1.0803125 -13.828125 0.96875 C-9.21998286 0.59893078 -4.60453471 0.39721298 0 0 Z " fill="#A39B96" transform="translate(369.44140625,226.703125)"/>
<path d="M0 0 C4.05805947 1.49348657 7.62944635 3.47366369 11.375 5.625 C20.52175573 10.68679686 30.31970463 13.79848593 40.21435547 17.06152344 C43.95480057 18.32166989 47.65691075 19.67823723 51.36132812 21.04003906 C53.82318218 21.93567286 56.29419952 22.79453585 58.7734375 23.640625 C72.58825947 28.42381192 84.62363814 34.38185884 95 45 C95.69480469 45.71027344 96.38960937 46.42054688 97.10546875 47.15234375 C100.52943614 51.04104125 102.42811902 53.85372843 102.5 59.125 C102.37782878 60.75394965 102.21310066 62.38043497 102 64 C101.9175 64.721875 101.835 65.44375 101.75 66.1875 C101.54223465 67.79768144 101.27817759 69.40047885 101 71 C96.28306551 69.16563659 96.28306551 69.16563659 94.2109375 67.953125 C88.11275619 65.32422705 79.99061542 66.28504954 73.875 68.5 C59.5045678 75.18608154 49.08782594 87.13425944 40.61108398 100.19189453 C37.16994247 105.3204257 33.014618 109.01697239 27.125 110.9375 C24.68767809 111.8493988 24.68767809 111.8493988 24 114.8125 C24 118.60427669 25.0731997 119.79955205 27 123 C27.6589183 125.00364952 28.26009068 127.0269095 28.8125 129.0625 C32.35212707 140.91488762 37.45167098 152.53649867 48.5625 158.9375 C54.76881798 161.7960514 61.25922901 161.89315781 68 162 C68 161.34 68 160.68 68 160 C71.37097383 158.50178941 73.20442119 158 77 158 C77 157.34 77 156.68 77 156 C78.5390625 154.80859375 78.5390625 154.80859375 80.625 153.4375 C84.80353478 150.44647067 87.22783299 147.12243381 89.87109375 142.7578125 C90.24363281 142.17773438 90.61617187 141.59765625 91 141 C91.33 141 91.66 141 92 141 C92.23268915 147.28260706 91.40454548 152.88019467 90 159 C89.34 159 88.68 159 88 159 C87.79375 160.299375 87.5875 161.59875 87.375 162.9375 C84.78860315 174.45872232 75.41928726 182.77530468 66.01171875 189.171875 C60.52224931 192.50400431 54.75247932 195.28290336 48.9597168 198.04467773 C47.65562508 198.68039604 46.36238592 199.33888713 45.08129883 200.01977539 C39.867165 202.7738069 34.61255023 204.4971144 28.9375 206.0625 C27.67776367 206.42698242 27.67776367 206.42698242 26.39257812 206.79882812 C12.36282631 210.74895242 -0.74182518 212.57736922 -15.25 212.5 C-16.08517151 212.49923462 -16.92034302 212.49846924 -17.78082275 212.49768066 C-30.27943624 212.45686162 -42.51130638 211.57299691 -54.875 209.75 C-55.92016785 209.59664185 -55.92016785 209.59664185 -56.9864502 209.44018555 C-67.46702529 207.86152673 -77.71114456 205.50999991 -88 203 C-89.3185723 202.69822543 -90.63749139 202.3979613 -91.95678711 202.09936523 C-99.88976829 200.23919802 -99.88976829 200.23919802 -102.546875 197.2734375 C-103.7179088 194.86831423 -104.36764455 192.60169101 -105 190 C-105.31839844 188.845 -105.63679688 187.69 -105.96484375 186.5 C-106.66260913 183.93011694 -107.33831391 181.3618711 -107.9921875 178.78125 C-109.14372806 174.46074123 -110.55002289 170.27700283 -112.0703125 166.07421875 C-113.09871521 162.67357616 -113.78749323 159.28633121 -114.45556641 155.79956055 C-115.02755495 152.85830824 -115.65529927 149.93243415 -116.2890625 147.00390625 C-120.95426166 124.85105071 -123.00212412 103.12123673 -113 82 C-109.97881313 83.00706229 -108.87402615 83.51355625 -107 86 C-106.91699219 88.07617188 -106.91699219 88.07617188 -107.296875 90.46875 C-108.05359395 96.16688502 -108.21940645 101.75606022 -108.25 107.5 C-108.270625 108.46808594 -108.29125 109.43617188 -108.3125 110.43359375 C-108.38933863 124.74478839 -102.61932955 138.59881715 -92.8125 149 C-81.86275789 159.19975978 -68.38438399 163.59385984 -53.625 163.4375 C-52.61276367 163.42920166 -51.60052734 163.42090332 -50.55761719 163.41235352 C-36.70904161 163.09923397 -25.45484383 158.22754984 -15.25 148.75 C-9.3105987 142.39754681 -4.97892716 134.78375974 -1.921875 126.6796875 C-1 125 -1 125 2 124 C4.24672931 121.21065703 4.24672931 121.21065703 4.0625 118.1875 C2.03362858 112.10088574 -3.68735557 109.19306407 -8.78540039 105.72802734 C-17.36541556 99.89562062 -23.55548773 93.68905796 -29.96484375 85.55078125 C-35.42607843 78.70589402 -41.18658231 72.50771047 -48 67 C-48.88429688 66.278125 -49.76859375 65.55625 -50.6796875 64.8125 C-59.63219144 57.78347834 -69.09498506 52.40987627 -80 49 C-78.68336833 46.36673665 -77.6381872 46.29940884 -74.90625 45.30078125 C-74.04878174 44.98206055 -73.19131348 44.66333984 -72.30786133 44.33496094 C-71.38126709 43.99754883 -70.45467285 43.66013672 -69.5 43.3125 C-67.57612381 42.5969289 -65.65295518 41.8794528 -63.73046875 41.16015625 C-62.76544434 40.79937988 -61.80041992 40.43860352 -60.80615234 40.06689453 C-56.77708024 38.53504791 -52.79159626 36.90663117 -48.8125 35.25 C-48.11938721 34.96213623 -47.42627441 34.67427246 -46.7121582 34.37768555 C-45.40324141 33.83342587 -44.09455247 33.28861778 -42.78613281 32.74316406 C-40.25822451 31.69136624 -37.72504001 30.65333254 -35.1875 29.625 C-34.45917969 29.32851563 -33.73085938 29.03203125 -32.98046875 28.7265625 C-31.00607301 28.00222797 -29.0485864 27.46956362 -27 27 C-27 26.34 -27 25.68 -27 25 C-25.47312059 24.00553946 -23.89999523 23.08202299 -22.3125 22.1875 C-17.27398801 19.08335837 -13.17099487 15.56608466 -9 11.375 C-8.17302612 10.54971802 -8.17302612 10.54971802 -7.3293457 9.70776367 C-4.38120649 6.68032685 -2.01113047 3.75690345 0 0 Z " fill="#D0B9B2" transform="translate(488,358)"/>
<path d="M0 0 C0.65657593 0.00432037 1.31315186 0.00864075 1.98962402 0.01309204 C19.9260447 0.15093484 36.49287596 2.98643005 53.5625 8.375 C54.243125 8.58463379 54.92375 8.79426758 55.625 9.01025391 C72.95504787 14.42172799 90.3982844 21.90079509 104.5625 33.375 C106.37111425 34.65135735 108.18375702 35.92202181 110 37.1875 C116.30547529 41.77738301 121.93777534 46.99724249 127.5625 52.375 C128.44164062 53.20128906 129.32078125 54.02757812 130.2265625 54.87890625 C151.25234228 75.15609015 164.65103439 102.59116433 172.5625 130.375 C172.87960937 131.43589844 173.19671875 132.49679687 173.5234375 133.58984375 C175.07476616 138.94269562 176.07650667 144.24457099 176.890625 149.75390625 C177.40979355 152.55198325 178.03182238 155.17106077 178.796875 157.90234375 C183.28317636 174.44428878 183.08339159 190.38271502 182.5625 207.375 C178.72822099 205.61998169 176.86677161 203.58719719 174.25 200.25 C173.45722656 199.25871094 172.66445313 198.26742187 171.84765625 197.24609375 C171.09355469 196.29863281 170.33945312 195.35117187 169.5625 194.375 C153.45539581 174.60882091 134.26205408 165.8086772 110.2734375 158.78125 C104.94157107 157.20922159 99.74966074 155.36945542 94.5625 153.375 C93.50804687 152.99730469 92.45359375 152.61960937 91.3671875 152.23046875 C79.61442295 147.935665 71.40435311 142.72437144 62.91015625 133.66796875 C60.70433003 131.17969729 60.70433003 131.17969729 57.5625 130.375 C56.53955428 128.14503869 55.68920944 125.99253147 54.875 123.6875 C48.96497117 108.1515117 39.55834054 95.50998209 29.5625 82.375 C29.0792627 81.73578613 28.59602539 81.09657227 28.09814453 80.43798828 C25.28843876 76.72199166 22.4408169 73.03831242 19.5625 69.375 C18.86253906 68.48039062 18.16257812 67.58578125 17.44140625 66.6640625 C10.91518857 58.49730937 3.77850499 50.92818203 -3.4375 43.375 C-3.93040527 42.85341309 -4.42331055 42.33182617 -4.93115234 41.79443359 C-14.56312861 31.62903558 -25.17184867 23.48161512 -37.12036133 16.24169922 C-38.5911969 15.33582731 -40.01945637 14.36146513 -41.4375 13.375 C-41.4375 12.715 -41.4375 12.055 -41.4375 11.375 C-39.00630624 10.09076841 -36.56852702 8.82289199 -34.125 7.5625 C-33.45404297 7.20607422 -32.78308594 6.84964844 -32.09179688 6.48242188 C-21.57309624 1.09961263 -11.73746001 -0.12979932 0 0 Z " fill="#CCC2BC" transform="translate(429.4375,205.625)"/>
<path d="M0 0 C10.95325028 6.19995299 20.65675469 15.72617182 27.01953125 26.58984375 C29.08527973 29.94461928 31.30440378 31.65002099 34.484375 33.96875 C37.60935666 34.3061346 37.60935666 34.3061346 39.671875 31.96875 C40.27 31.30875 40.868125 30.64875 41.484375 29.96875 C41.484375 30.95875 41.484375 31.94875 41.484375 32.96875 C42.144375 32.96875 42.804375 32.96875 43.484375 32.96875 C44.6421256 36.44200181 44.55304152 39.32942448 44.484375 42.96875 C43.494375 43.29875 42.504375 43.62875 41.484375 43.96875 C41.21625 44.67 40.948125 45.37125 40.671875 46.09375 C34.69072462 60.57442986 15.934096 66.89631609 2.58203125 72.49609375 C-2.43619936 74.55702332 -7.49436555 76.49667213 -12.5690918 78.41333008 C-32.47301983 85.96491567 -50.38551333 96.07720453 -61.515625 114.96875 C-62.18207031 116.08894531 -62.84851563 117.20914063 -63.53515625 118.36328125 C-78.19621258 143.93007003 -79.11837105 172.84906965 -72.23291016 201.03173828 C-71.54795741 203.83636098 -70.90582722 206.64710045 -70.27734375 209.46484375 C-68.01492299 219.46310579 -65.37236943 229.32223287 -62.39477539 239.13183594 C-62.14977295 239.95458008 -61.90477051 240.77732422 -61.65234375 241.625 C-61.32302856 242.70491211 -61.32302856 242.70491211 -60.98706055 243.80664062 C-60.515625 245.96875 -60.515625 245.96875 -60.515625 250.96875 C-63.815625 250.96875 -67.115625 250.96875 -70.515625 250.96875 C-78.00037778 234.84774402 -82.15124737 218.15447958 -84.19628906 200.55371094 C-84.83636972 195.37238528 -85.69091099 190.22048512 -86.51464844 185.06567383 C-90.12358733 161.64006145 -89.12218068 138.49301574 -85.07128906 115.21923828 C-84.53228505 112.06620691 -84.04311578 108.90965963 -83.5703125 105.74609375 C-80.70208626 86.87082431 -75.92316952 68.84232103 -69.953125 50.71875 C-69.58936768 49.61233154 -69.22561035 48.50591309 -68.85083008 47.3659668 C-66.47870567 40.34105409 -63.68395193 33.67290751 -60.515625 26.96875 C-56.885625 27.29875 -53.255625 27.62875 -49.515625 27.96875 C-49.515625 27.30875 -49.515625 26.64875 -49.515625 25.96875 C-48.08067315 24.73402399 -46.63939268 23.50552934 -45.16015625 22.32421875 C-43.31207451 20.84512449 -43.31207451 20.84512449 -41.015625 18.46875 C-36.86189889 14.31502389 -32.58353441 10.91520896 -27.515625 7.96875 C-26.03299144 6.97389737 -24.55417131 5.97335008 -23.078125 4.96875 C-15.58479424 0.01427802 -8.97079012 -3.67746676 0 0 Z " fill="#CDC3BD" transform="translate(429.515625,308.03125)"/>
<path d="M0 0 C0.99235657 0.00273422 0.99235657 0.00273422 2.00476074 0.00552368 C19.99817774 0.08875123 36.56445249 2.90706523 53.6875 8.3125 C54.368125 8.52213379 55.04875 8.73176758 55.75 8.94775391 C73.08004787 14.35922799 90.5232844 21.83829509 104.6875 33.3125 C106.49611425 34.58885735 108.30875702 35.85952181 110.125 37.125 C116.43047529 41.71488301 122.06277534 46.93474249 127.6875 52.3125 C128.56664062 53.13878906 129.44578125 53.96507812 130.3515625 54.81640625 C151.37734228 75.09359015 164.77603439 102.52866433 172.6875 130.3125 C173.00460937 131.37339844 173.32171875 132.43429687 173.6484375 133.52734375 C175.19530773 138.86481182 176.19158161 144.15327656 177.015625 149.64453125 C177.55140454 152.56951373 178.18705727 155.38476645 178.921875 158.26171875 C182.90066499 173.99653694 183.63988474 188.2293306 181.6875 204.3125 C179.18472497 201.21697463 177.50409871 198.07192136 175.83203125 194.46484375 C175.29594238 193.31193848 174.75985352 192.1590332 174.20751953 190.97119141 C173.63775812 189.73106436 173.06859774 188.49066102 172.5 187.25 C172.21026306 186.62035339 171.92052612 185.99070679 171.62200928 185.34197998 C169.62780728 181.00599815 167.65286086 176.6616298 165.6875 172.3125 C165.26678223 171.38228027 164.84606445 170.45206055 164.41259766 169.49365234 C159.98895034 159.61864167 156.47581976 149.69049235 153.34375 139.33544922 C150.69414739 130.81691606 146.96533558 123.1169415 142.6875 115.3125 C142.3575 114.6525 142.0275 113.9925 141.6875 113.3125 C140.6975 113.6425 139.7075 113.9725 138.6875 114.3125 C129.6641215 114.8950905 120.72642343 115.18447521 113.5 109.1875 C109.7208865 105.54335484 106.50528379 101.74157988 103.6875 97.3125 C103.19894531 96.59320313 102.71039062 95.87390625 102.20703125 95.1328125 C98.87964255 89.29823175 98.6099366 84.73541399 99.01293945 78.19287109 C99.79677477 70.10507721 99.79677477 70.10507721 97.67529297 62.49853516 C94.83667731 59.35478129 91.31848789 57.35695955 87.61230469 55.37792969 C84.98478155 53.92352698 82.5760342 52.2095439 80.11962891 50.48657227 C68.28640678 42.26450711 55.87380855 35.68308516 42.58642578 30.16870117 C40.5786307 29.26341223 38.70296626 28.20347821 36.78125 27.12890625 C32.35107782 24.88421391 28.452807 24.81444872 23.5625 25 C22.40427734 25.01450195 22.40427734 25.01450195 21.22265625 25.02929688 C16.95595614 25.1128864 12.88645782 25.48746516 8.6875 26.3125 C8.6875 26.9725 8.6875 27.6325 8.6875 28.3125 C9.6775 28.3125 10.6675 28.3125 11.6875 28.3125 C11.6875 28.9725 11.6875 29.6325 11.6875 30.3125 C9.21506353 31.54871824 7.91432061 31.29658601 5.1875 31 C3.99640625 30.88205078 3.99640625 30.88205078 2.78125 30.76171875 C0.6875 30.3125 0.6875 30.3125 -1.3125 28.3125 C-1.2890625 26.1484375 -1.2890625 26.1484375 -0.9375 23.6875 C-0.82664062 22.87023437 -0.71578125 22.05296875 -0.6015625 21.2109375 C-0.45847656 20.27121094 -0.45847656 20.27121094 -0.3125 19.3125 C-1.04855469 19.11914062 -1.78460938 18.92578125 -2.54296875 18.7265625 C-4.00669922 18.33597656 -4.00669922 18.33597656 -5.5 17.9375 C-6.94439453 17.55464844 -6.94439453 17.55464844 -8.41796875 17.1640625 C-11.3125 16.3125 -11.3125 16.3125 -13.6484375 15.28515625 C-16.51490131 14.23860275 -18.79022236 14.00039757 -21.83203125 13.8984375 C-22.85361328 13.85976562 -23.87519531 13.82109375 -24.92773438 13.78125 C-26.51038086 13.73484375 -26.51038086 13.73484375 -28.125 13.6875 C-29.19943359 13.64882812 -30.27386719 13.61015625 -31.38085938 13.5703125 C-34.02457088 13.47631387 -36.6682805 13.39065427 -39.3125 13.3125 C-37.91435728 9.11807185 -35.02675963 8.18615662 -31.3125 6.25 C-30.35923828 5.7230957 -30.35923828 5.7230957 -29.38671875 5.18554688 C-19.88942886 0.15141225 -10.60594009 -0.04616514 0 0 Z " fill="#E5E0DD" transform="translate(429.3125,205.6875)"/>
<path d="M0 0 C4.05805947 1.49348657 7.62944635 3.47366369 11.375 5.625 C20.52175573 10.68679686 30.31970463 13.79848593 40.21435547 17.06152344 C43.95480057 18.32166989 47.65691075 19.67823723 51.36132812 21.04003906 C53.82318218 21.93567286 56.29419952 22.79453585 58.7734375 23.640625 C72.58825947 28.42381192 84.62363814 34.38185884 95 45 C95.69480469 45.71027344 96.38960937 46.42054688 97.10546875 47.15234375 C100.52943614 51.04104125 102.42811902 53.85372843 102.5 59.125 C102.37782878 60.75394965 102.21310066 62.38043497 102 64 C101.9175 64.721875 101.835 65.44375 101.75 66.1875 C101.54223465 67.79768144 101.27817759 69.40047885 101 71 C96.28306551 69.16563659 96.28306551 69.16563659 94.2109375 67.953125 C88.11275619 65.32422705 79.99061542 66.28504954 73.875 68.5 C65.70038795 72.26058825 58.29311193 77.69915595 53 85 C51.4631224 83.67757044 49.92649716 82.35484715 48.390625 81.03125 C46.58147599 79.49406457 44.75552516 77.97662475 42.921875 76.46875 C29.88068226 65.70909495 29.88068226 65.70909495 25 59 C25 58.34 25 57.68 25 57 C24.34 57 23.68 57 23 57 C21.71993203 55.21601386 20.52339649 53.37146094 19.375 51.5 C18.42753906 49.96859375 18.42753906 49.96859375 17.4609375 48.40625 C16.97882813 47.6121875 16.49671875 46.818125 16 46 C15.157407 53.24629983 17.9970323 59.49356998 21 66 C21.66 66.66 22.32 67.32 23 68 C23 68.99 23 69.98 23 71 C20.22113495 70.36125614 17.65921869 69.52521664 15.0234375 68.44140625 C13.89228516 67.98604492 13.89228516 67.98604492 12.73828125 67.52148438 C11.18423783 66.89087667 9.63208407 66.25558839 8.08203125 65.61523438 C-1.7039999 61.69916607 -10.87369827 60.65540556 -21.375 60.6875 C-22.94507813 60.66333008 -22.94507813 60.66333008 -24.546875 60.63867188 C-32.9247839 60.63350033 -41.86954782 61.24636521 -49 66 C-49.79921875 65.41992188 -50.5984375 64.83984375 -51.421875 64.2421875 C-60.38900965 57.82805207 -69.40976484 52.35331452 -80 49 C-78.68336833 46.36673665 -77.6381872 46.29940884 -74.90625 45.30078125 C-74.04878174 44.98206055 -73.19131348 44.66333984 -72.30786133 44.33496094 C-71.38126709 43.99754883 -70.45467285 43.66013672 -69.5 43.3125 C-67.57612381 42.5969289 -65.65295518 41.8794528 -63.73046875 41.16015625 C-62.76544434 40.79937988 -61.80041992 40.43860352 -60.80615234 40.06689453 C-56.77708024 38.53504791 -52.79159626 36.90663117 -48.8125 35.25 C-47.77283081 34.81820435 -47.77283081 34.81820435 -46.7121582 34.37768555 C-45.40324141 33.83342587 -44.09455247 33.28861778 -42.78613281 32.74316406 C-40.25822451 31.69136624 -37.72504001 30.65333254 -35.1875 29.625 C-34.45917969 29.32851563 -33.73085938 29.03203125 -32.98046875 28.7265625 C-31.00607301 28.00222797 -29.0485864 27.46956362 -27 27 C-27 26.34 -27 25.68 -27 25 C-25.47312059 24.00553946 -23.89999523 23.08202299 -22.3125 22.1875 C-17.27398801 19.08335837 -13.17099487 15.56608466 -9 11.375 C-8.17302612 10.54971802 -8.17302612 10.54971802 -7.3293457 9.70776367 C-4.38120649 6.68032685 -2.01113047 3.75690345 0 0 Z " fill="#B29E97" transform="translate(488,358)"/>
<path d="M0 0 C2.0625 2.125 2.0625 2.125 2.0625 4.125 C2.95195313 4.26615234 2.95195313 4.26615234 3.859375 4.41015625 C7.49162549 5.58870561 8.86481704 7.85300751 10.85546875 11.0078125 C15.10896337 21.99256559 12.31493599 36.38947656 7.90625 46.875 C6.0625 49.125 6.0625 49.125 2.76953125 49.98046875 C1.48433594 50.09003906 0.19914063 50.19960938 -1.125 50.3125 C-5.78537417 50.74217989 -10.06233126 51.41923943 -14.58422852 52.60571289 C-34.25095186 56.94549093 -55.54558369 56.43816735 -75.5625 56.5 C-77.12239655 56.51151093 -77.12239655 56.51151093 -78.71380615 56.52325439 C-93.49180151 56.61041183 -108.41434692 56.15096835 -122.9375 53.125 C-123.9375 52.125 -123.9375 52.125 -124.0703125 49.4765625 C-124.04209051 36.01467289 -123.49247145 22.57420163 -122.9375 9.125 C-112.59160268 6.30744131 -102.29281604 3.65580125 -91.74609375 1.703125 C-88.99993327 1.26359187 -88.99993327 1.26359187 -86.9375 0.125 C-70.39479091 -1.42835631 -55.28936496 1.21062322 -40.0625 7.5625 C-39.38985107 7.83843994 -38.71720215 8.11437988 -38.02416992 8.39868164 C-33.86147016 10.26375598 -31.76433152 11.93403358 -29.9375 16.125 C-26.74678329 26.77209747 -27.46258592 38.24750868 -28.9375 49.125 C-24.06406759 39.11705845 -22.45930265 30.14428935 -23.9375 19.125 C-25.30172182 16.04221303 -26.90975293 13.84645001 -28.9375 11.125 C-27.38477223 5.64159076 -21.53460984 2.8735732 -16.9375 0.125 C-11.12441204 -2.14111904 -5.48817082 -3.50308775 0 0 Z " fill="#A39C98" transform="translate(517.9375,587.875)"/>
<path d="M0 0 C1.25039063 0.13792969 2.50078125 0.27585937 3.7890625 0.41796875 C4.49240723 0.4955542 5.19575195 0.57313965 5.92041016 0.65307617 C9.20809342 1.20153801 11.98906572 2.59835818 15 4 C21.78848535 6.98160925 28.75325263 9.2340655 35.82397461 11.42797852 C46.65139306 14.79867007 57.39130941 18.43517797 68.1418457 22.04199219 C71.09345928 23.03132606 74.0464979 24.01631994 77 25 C77 25.66 77 26.32 77 27 C78.65 27.33 80.3 27.66 82 28 C79.86276844 37.26133678 72.82563748 44.10150936 65 49 C54.91023425 54.82964243 43.74092007 55.46133874 32.37890625 53.31640625 C21.87343829 50.33428873 13.19927682 45.14356343 7 36 C1.95279424 26.58918294 -0.17067746 19.23064162 -0.0625 8.6875 C-0.05798828 7.85154297 -0.05347656 7.01558594 -0.04882812 6.15429688 C-0.03710548 4.10283351 -0.01917203 2.05140727 0 0 Z " fill="#D4C7C3" transform="translate(391,456)"/>
<path d="M0 0 C3.02118687 1.00706229 4.12597385 1.51355625 6 4 C6.08300781 6.07617188 6.08300781 6.07617188 5.703125 8.46875 C4.94640605 14.16688502 4.78059355 19.75606022 4.75 25.5 C4.729375 26.46808594 4.70875 27.43617188 4.6875 28.43359375 C4.63585367 38.05272222 7.14825324 45.88145917 11.5 54.375 C12.0878125 55.53773438 12.675625 56.70046875 13.28125 57.8984375 C14.70479146 60.46728278 16.15953741 62.72186642 18 65 C17.34 65 16.68 65 16 65 C19.80947464 84.68228565 30.6244022 101.14443078 47.02587891 112.69775391 C56.37342332 118.86394261 66.51756521 124.20083135 77.625 126.0625 C82.73767141 126.92893311 82.73767141 126.92893311 84.92669678 127.5219574 C88.33214816 128.30715409 91.78902567 128.1210567 95.265625 128.09765625 C96.45572174 128.09553383 96.45572174 128.09553383 97.66986084 128.09336853 C100.19661272 128.08778415 102.72327504 128.07523454 105.25 128.0625 C106.96614455 128.05748298 108.68229049 128.05292043 110.3984375 128.04882812 C114.59899269 128.03781984 118.79948117 128.02056596 123 128 C123 128.33 123 128.66 123 129 C117.99228983 129.80582905 113.09029616 130.19618324 108.015625 130.2734375 C106.87406448 130.29209366 106.87406448 130.29209366 105.70944214 130.31112671 C89.68070758 130.52108538 73.99831082 130.11359458 58.125 127.75 C57.42894653 127.64757996 56.73289307 127.54515991 56.01574707 127.43963623 C45.53427751 125.86134184 35.28966902 123.51019839 25 121 C23.6814277 120.69822543 22.36250861 120.3979613 21.04321289 120.09936523 C13.11023171 118.23919802 13.11023171 118.23919802 10.453125 115.2734375 C9.2820912 112.86831423 8.63235545 110.60169101 8 108 C7.68160156 106.845 7.36320312 105.69 7.03515625 104.5 C6.33739087 101.93011694 5.66168609 99.3618711 5.0078125 96.78125 C3.85627194 92.46074123 2.44997711 88.27700283 0.9296875 84.07421875 C-0.09871521 80.67357616 -0.78749323 77.28633121 -1.45556641 73.79956055 C-2.02755495 70.85830824 -2.65529927 67.93243415 -3.2890625 65.00390625 C-7.95426166 42.85105071 -10.00212412 21.12123673 0 0 Z " fill="#B09C95" transform="translate(375,440)"/>
<path d="M0 0 C2.0625 2.125 2.0625 2.125 2.0625 4.125 C2.95195313 4.26615234 2.95195313 4.26615234 3.859375 4.41015625 C7.49162549 5.58870561 8.86481704 7.85300751 10.85546875 11.0078125 C15.10896337 21.99256559 12.31493599 36.38947656 7.90625 46.875 C6.0625 49.125 6.0625 49.125 2.76953125 49.98046875 C1.48433594 50.09003906 0.19914063 50.19960938 -1.125 50.3125 C-7.10128448 50.85475256 -7.10128448 50.85475256 -12.9375 52.1875 C-19.02982116 53.91456426 -25.63940385 53.81337545 -31.9375 54.125 C-31.4425 51.155 -31.4425 51.155 -30.9375 48.125 C-30.2775 48.455 -29.6175 48.785 -28.9375 49.125 C-24.06406759 39.11705845 -22.45930265 30.14428935 -23.9375 19.125 C-25.30172182 16.04221303 -26.90975293 13.84645001 -28.9375 11.125 C-27.38477223 5.64159076 -21.53460984 2.8735732 -16.9375 0.125 C-11.12441204 -2.14111904 -5.48817082 -3.50308775 0 0 Z " fill="#A19B97" transform="translate(517.9375,587.875)"/>
<path d="M0 0 C3.44877676 0.63584893 6.72555567 1.48371264 10.0625 2.55859375 C11.01833984 2.86071777 11.97417969 3.1628418 12.95898438 3.47412109 C14.46428711 3.95099365 14.46428711 3.95099365 16 4.4375 C22.53132428 6.50384414 28.66766639 8.29233604 35.5 8.875 C39.00212345 9.28565743 40.52985846 9.58516923 43.19140625 11.93359375 C44.98160257 14.2096471 46.49206602 16.53129665 48 19 C49.2065625 20.299375 49.2065625 20.299375 50.4375 21.625 C52.54648815 24.83066199 52.29427025 27.24805433 52 31 C47.98228647 30.42294958 45.23632159 29.15478031 41.8125 27 C38.46706412 24.89110597 38.46706412 24.89110597 35 23 C38.75264754 27.96387672 42.45890328 32.73412126 47 37 C46.3125 38.9375 46.3125 38.9375 45 41 C42.66796875 41.85546875 42.66796875 41.85546875 40 42 C37.9375 40.5234375 37.9375 40.5234375 36 38.375 C34.9790625 37.27285156 34.9790625 37.27285156 33.9375 36.1484375 C33.298125 35.43945312 32.65875 34.73046875 32 34 C31.00718535 32.99286591 30.00855873 31.99136739 29 31 C28.34 30.34 27.68 29.68 27 29 C27.2165625 29.61488281 27.433125 30.22976563 27.65625 30.86328125 C27.9346875 31.67152344 28.213125 32.47976563 28.5 33.3125 C28.91765625 34.51326172 28.91765625 34.51326172 29.34375 35.73828125 C30 38 30 38 30 41 C21.05357928 40.6559069 12.67954591 36.88307843 6.125 30.75 C-0.27934798 23.55887708 -3.69999835 17.55325083 -3.50390625 7.76171875 C-2.93242213 4.62963136 -1.78449127 2.61249522 0 0 Z " fill="#B09C95" transform="translate(331,651)"/>
<path d="M0 0 C4.62559135 2.35643333 8.84571077 5.6579683 10.59936523 10.73535156 C11.13454597 13.76054137 11.11113007 16.66234357 11.09765625 19.734375 C11.09443359 21.02988281 11.09121094 22.32539062 11.08789062 23.66015625 C11.07953598 25.02343817 11.07107104 26.38671942 11.0625 27.75 C11.05748168 29.12890465 11.05291935 30.50781104 11.04882812 31.88671875 C11.03704093 35.25785659 11.02058635 38.62890628 11 42 C-2.74515353 42.2648362 -15.37305786 39.40390321 -28 34 C-28.66 33.34 -29.32 32.68 -30 32 C-29.69797757 27.01662989 -27.08728962 22.45612062 -25 18 C-24.34 18 -23.68 18 -23 18 C-22.95875 17.34 -22.9175 16.68 -22.875 16 C-21.03662477 9.69699921 -16.32264129 4.69627868 -11 1 C-7.52629893 -0.73685053 -3.79809188 -0.46115112 0 0 Z " fill="#9F9995" transform="translate(372,585)"/>
<path d="M0 0 C-0.51109203 11.55067991 -3.76376958 24.37642608 -11.88671875 33.00390625 C-16.79209866 37.47948145 -21.39491438 41.1143778 -28.25 41.25 C-32 41 -32 41 -34 40 C-34 39.34 -34 38.68 -34 38 C-34.89912109 37.60941406 -34.89912109 37.60941406 -35.81640625 37.2109375 C-43.13125293 33.15440356 -46.48778033 23.50331095 -49 16 C-49 15.01 -49 14.02 -49 13 C-23.18399331 5.73168334 -23.18399331 5.73168334 -11.98828125 2.82421875 C-9.90317901 2.24911212 -7.83785275 1.599406 -5.79296875 0.89453125 C-3 0 -3 0 0 0 Z " fill="#D3C7C3" transform="translate(576,467)"/>
<path d="M0 0 C5.38605493 0.62170614 10.29752912 1.85436298 15.453125 3.51171875 C16.23516296 3.7624263 17.01720093 4.01313385 17.82293701 4.2714386 C19.46447043 4.80173457 21.10486099 5.33558018 22.74414062 5.87280273 C25.25045501 6.68764793 27.76523466 7.47156715 30.28125 8.25585938 C31.88082465 8.77675703 33.47980585 9.29948135 35.078125 9.82421875 C35.82813782 10.05259933 36.57815063 10.28097992 37.35089111 10.51628113 C41.12260332 11.79473493 42.76926846 12.62079904 44.87011719 16.07348633 C45.24297852 17.03923584 45.61583984 18.00498535 46 19 C46.66 19.66 47.32 20.32 48 21 C50.98354342 20.74056144 53.30757934 20.41317282 55.8984375 18.8671875 C58.70956764 17.70720443 59.95271421 18.30544955 62.75 19.375 C63.54921875 19.67148437 64.3484375 19.96796875 65.171875 20.2734375 C65.77515625 20.51320313 66.3784375 20.75296875 67 21 C66.9375 23.1875 66.9375 23.1875 66 26 C57.66886022 33.44484832 47.89776649 34.73528435 37.0390625 34.34765625 C25.25800378 33.56617375 15.17306429 28.73522788 7.1875 20.125 C1.85747475 13.60501562 -0.60557946 8.47811251 0 0 Z " fill="#FCEDE8" transform="translate(394,476)"/>
<path d="M0 0 C16.65747849 0.21493521 32.71907964 12.36693778 45.25 22.375 C45.90887207 22.89852051 46.56774414 23.42204102 47.24658203 23.96142578 C49.39889464 25.67608013 51.54477204 27.39838542 53.6875 29.125 C54.36216309 29.66793701 55.03682617 30.21087402 55.73193359 30.77026367 C59.45231125 33.79952789 62.92499458 36.91545679 66.25 40.375 C59.89707979 39.05094448 53.79163441 37.38608695 47.625 35.375 C46.70493164 35.07811279 45.78486328 34.78122559 44.83691406 34.4753418 C42.78695825 33.81364932 40.7375051 33.15039819 38.68847656 32.48583984 C35.57343263 31.47948867 32.45574356 30.48212665 29.3364563 29.48904419 C26.57360968 28.60915595 23.81179732 27.72604816 21.05010986 26.8425293 C19.69983049 26.4111024 18.34921153 25.9807367 16.99822998 25.55151367 C10.026016 23.33439345 3.13097535 21.05591805 -3.62939453 18.25170898 C-6.97012479 16.87057125 -10.36034345 15.63042835 -13.75 14.375 C-13.14466304 10.70094092 -11.56662645 8.55954714 -9.25 5.6875 C-8.6209375 4.89988281 -7.991875 4.11226563 -7.34375 3.30078125 C-4.8115283 0.24101337 -4.02566465 0.1512533 0 0 Z " fill="#7A6C68" transform="translate(393.75,419.625)"/>
<path d="M0 0 C-0.67482422 0.59748047 -0.67482422 0.59748047 -1.36328125 1.20703125 C-3.22998284 3.25193824 -4.11749469 5.14162531 -5.1875 7.6875 C-5.53167969 8.49574219 -5.87585938 9.30398438 -6.23046875 10.13671875 C-6.48441406 10.75160156 -6.73835938 11.36648438 -7 12 C-8.11375 11.95875 -9.2275 11.9175 -10.375 11.875 C-14.04366025 11.58878141 -14.04366025 11.58878141 -16 14 C-16.33333333 17 -16.33333333 17 -16 20 C-14.10244856 22.34973818 -14.10244856 22.34973818 -10.875 22.125 C-9.92625 22.08375 -8.9775 22.0425 -8 22 C-7.77957031 22.92619141 -7.77957031 22.92619141 -7.5546875 23.87109375 C-4.49828564 35.41164561 1.30413264 42.16406474 11 49 C13.9996617 50.49983085 17.11946961 50.23902055 20.4140625 50.31640625 C21.50852188 50.3475779 21.50852188 50.3475779 22.62509155 50.37937927 C24.95829763 50.44481917 27.29161721 50.50373368 29.625 50.5625 C31.20574095 50.60569053 32.78647039 50.64930499 34.3671875 50.69335938 C38.24467504 50.80049481 42.12227685 50.90177782 46 51 C46 51.33 46 51.66 46 52 C39.30045201 52.07757513 32.60102405 52.12922023 25.90112305 52.16479492 C23.63317541 52.17966199 21.36525532 52.19996158 19.09741211 52.22631836 C3.68466062 52.40064755 -11.85073977 52.23861485 -27 49 C-28 48 -28 48 -28.1328125 45.3515625 C-28.10459051 31.88967289 -27.55497145 18.44920163 -27 5 C-23.9595402 4.18293833 -20.91743317 3.3721798 -17.875 2.5625 C-17.0190625 2.33240234 -16.163125 2.10230469 -15.28125 1.86523438 C-2.86153423 -1.43076712 -2.86153423 -1.43076712 0 0 Z " fill="#8A827D" transform="translate(422,592)"/>
<path d="M0 0 C10.41613028 1.96802462 25.22672279 13.79069229 32 22 C32.1875 24.6875 32.1875 24.6875 32 27 C32.69867188 26.88398438 33.39734375 26.76796875 34.1171875 26.6484375 C38.3150943 27.16037735 40.34247048 29.68381564 43.125 32.625 C43.97759399 33.50309326 43.97759399 33.50309326 44.84741211 34.39892578 C50.19289627 40.00463786 54.92727818 46.01608664 59.60107422 52.18212891 C61.54899481 54.71340582 63.56644435 57.18559371 65.58203125 59.66308594 C71.43416327 66.86713454 76.90707195 74.23625831 82 82 C82.89525391 83.32644531 82.89525391 83.32644531 83.80859375 84.6796875 C84.20175781 85.44539063 84.59492188 86.21109375 85 87 C84.505 88.485 84.505 88.485 84 90 C80.36745021 89.74310115 78.54238821 89.56861588 75.98046875 86.8828125 C75.38878906 85.97273438 74.79710937 85.06265625 74.1875 84.125 C70.09956211 78.12059974 65.67045917 72.56007044 61 67 C60.34306152 66.21351074 60.34306152 66.21351074 59.67285156 65.41113281 C52.55432267 56.90607324 45.10958048 48.7592009 37.484375 40.70703125 C34.61284027 37.66935552 31.82407046 34.57521541 29.0625 31.4375 C25.31885089 27.25218442 21.36451968 23.5298705 17 20 C16.35289062 19.47664063 15.70578125 18.95328125 15.0390625 18.4140625 C10.8998213 15.19101698 6.64381362 12.5776102 1.98046875 10.17578125 C-0.08888352 8.94723089 -1.52833473 7.90805812 -3 6 C-3 4.68 -3 3.36 -3 2 C-2.01 2 -1.02 2 0 2 C0 1.34 0 0.68 0 0 Z " fill="#C7BEB8" transform="translate(378,232)"/>
<path d="M0 0 C1.98508922 3.66370852 2.37432119 6.57201984 2.625 10.75 C2.69976562 11.92046875 2.77453125 13.0909375 2.8515625 14.296875 C2.90054688 15.18890625 2.94953125 16.0809375 3 17 C-1.99224599 18.54909328 -6.85984035 19.55267218 -12.0625 20.125 C-12.81966309 20.20991699 -13.57682617 20.29483398 -14.35693359 20.38232422 C-24.23015976 21.37223614 -34.08759745 21.12547345 -44 21 C-44 14.4 -44 7.8 -44 1 C-39.82321432 0.8555281 -35.6464237 0.71247637 -31.46948242 0.57275391 C-30.05474221 0.52503545 -28.64002732 0.47655903 -27.2253418 0.42724609 C-18.14794868 0.11145464 -9.08422835 -0.07033707 0 0 Z " fill="#77706C" transform="translate(500,669)"/>
<path d="M0 0 C-3.25624148 10.0647464 -12.1466435 15.26355848 -21 20 C-31.41728264 25.09495068 -42.21236195 29.3500361 -53.0534668 33.44458008 C-72.95739483 40.99616567 -90.86988833 51.10845453 -102 70 C-102.66644531 71.12019531 -103.33289063 72.24039063 -104.01953125 73.39453125 C-113.40332223 89.72750572 -115.9508163 105.30634761 -117 124 C-117.66 124 -118.32 124 -119 124 C-119 126.97 -119 129.94 -119 133 C-119.33 133 -119.66 133 -120 133 C-120.84975764 95.49736299 -120.84975764 95.49736299 -113 78 C-112.51789063 76.89269531 -112.03578125 75.78539062 -111.5390625 74.64453125 C-100.84061212 51.61523783 -80.25700831 36.43065297 -56.79199219 27.82324219 C-51.95451085 26.09452465 -47.11373905 24.37968766 -42.24975586 22.72680664 C-32.305023 19.29934452 -22.59577957 15.38605457 -14.1875 8.9375 C-13.29546875 8.26589844 -12.4034375 7.59429687 -11.484375 6.90234375 C-10.66453125 6.27457031 -9.8446875 5.64679688 -9 5 C-2.30120482 0 -2.30120482 0 0 0 Z " fill="#E0DBD8" transform="translate(470,353)"/>
<path d="M0 0 C14.52 0.66 29.04 1.32 44 2 C44 8.6 44 15.2 44 22 C11.89048235 22.40903844 11.89048235 22.40903844 -1 19 C-1.10551806 12.45788013 -0.66396147 6.63961468 0 0 Z " fill="#77706C" transform="translate(402,668)"/>
<path d="M0 0 C11.4765512 1.55185308 23.05227736 1.47142579 34.61328125 1.6328125 C36.90105497 1.67108803 39.18881575 1.71014492 41.4765625 1.75 C47.02201874 1.84493396 52.56755597 1.93026814 58.11328125 2.0078125 C57.53505511 6.57818836 57.53505511 6.57818836 55.67041016 8.47753906 C55.06632324 8.86393555 54.46223633 9.25033203 53.83984375 9.6484375 C52.84984375 10.29425781 52.84984375 10.29425781 51.83984375 10.953125 C51.14632812 11.38367188 50.4528125 11.81421875 49.73828125 12.2578125 C49.0525 12.70382812 48.36671875 13.14984375 47.66015625 13.609375 C44.79857348 15.44657794 42.35845953 16.92608641 39.11328125 18.0078125 C39.11328125 18.6678125 39.11328125 19.3278125 39.11328125 20.0078125 C35.17107636 19.42306241 32.39401711 18.21272411 28.98046875 16.1796875 C28.00851562 15.62796875 27.0365625 15.07625 26.03515625 14.5078125 C24.01466333 13.34732426 22.00647758 12.16512262 20.01171875 10.9609375 C14.68049057 7.98667336 11.26468052 6.40299709 5.2109375 8.0078125 C3.49495848 8.63007032 1.79233242 9.29186839 0.11328125 10.0078125 C-1.43166016 10.60335937 -1.43166016 10.60335937 -3.0078125 11.2109375 C-4.57113099 11.91746255 -6.1336133 12.62584034 -7.6953125 13.3359375 C-10.36691727 14.15503914 -11.30643331 14.0657774 -13.88671875 13.0078125 C-16.00542764 11.70969164 -18.08657289 10.34921673 -20.13671875 8.9453125 C-21.214375 8.21183594 -22.29203125 7.47835937 -23.40234375 6.72265625 C-24.2221875 6.15675781 -25.04203125 5.59085938 -25.88671875 5.0078125 C-20.60934111 -4.73503853 -9.38921098 -1.40296317 0 0 Z " fill="#9A9490" transform="translate(407.88671875,697.9921875)"/>
<path d="M0 0 C0 1.65 0 3.3 0 5 C-7.45141157 8.49760135 -14.91370736 8.69465822 -23 9 C-23 9.66 -23 10.32 -23 11 C-38.31208799 12.82048576 -53.46687689 13.34286517 -68.88134766 13.31567383 C-72.59958482 13.31252155 -76.317017 13.33604969 -80.03515625 13.36132812 C-96.53901177 13.40258572 -112.64520037 12.19784439 -129 10 C-129.33 8.02 -129.66 6.04 -130 4 C-128.98907288 4.06983093 -127.97814575 4.13966187 -126.93658447 4.21160889 C-116.07011056 4.92706657 -105.24734831 5.17814637 -94.359375 5.203125 C-93.08162075 5.20736607 -93.08162075 5.20736607 -91.77805328 5.21169281 C-87.2734193 5.22652963 -82.76881607 5.23585762 -78.26416016 5.24023438 C-74.59511388 5.24462231 -70.92630231 5.25854805 -67.25732422 5.28125 C-36.7152487 5.71176649 -36.7152487 5.71176649 -6.65917969 0.89941406 C-3 0 -3 0 0 0 Z " fill="#98928E" transform="translate(525,647)"/>
<path d="M0 0 C5.97705445 -0.29966262 11.10968568 0.79508318 16.875 2.3125 C17.72191406 2.52583984 18.56882812 2.73917969 19.44140625 2.95898438 C24.3587608 4.22032724 29.15924235 5.66711346 33.94165039 7.37109375 C36.14649617 8.04476031 38.27904357 8.38747635 40.5625 8.6875 C46.25476135 9.72083696 51.05034707 12.30721365 56.11547852 14.99291992 C59.42631879 16.74489073 62.65468113 18.28884624 66.19140625 19.53515625 C82.86299681 25.56267115 96.89221599 45.53469598 106 60 C105.505 60.99 105.505 60.99 105 62 C104.154375 61.01 103.30875 60.02 102.4375 59 C101.88320313 58.35675781 101.32890625 57.71351563 100.7578125 57.05078125 C99.63810862 55.74446005 98.52764555 54.43011964 97.4296875 53.10546875 C81.65235252 34.3937019 62.7277387 26.14898542 39.7109375 19.40625 C34.37907107 17.83422159 29.18716074 15.99445542 24 14 C22.41832031 13.43345703 22.41832031 13.43345703 20.8046875 12.85546875 C13.84896843 10.31364566 6.88569483 7.60291518 1 3 C0.67 2.01 0.34 1.02 0 0 Z " fill="#DDD8D5" transform="translate(500,345)"/>
<path d="M0 0 C2 0 2 0 3.48583984 1.42700195 C7.73211035 6.73127669 8.91945722 10.45271751 8.625 17.1875 C8.6046167 18.04754639 8.5842334 18.90759277 8.56323242 19.79370117 C7.74844652 40.49675543 1.71568234 59.82859412 -8 78 C-8.33 78 -8.66 78 -9 78 C-9.02763357 76.64595503 -9.04667422 75.29173445 -9.0625 73.9375 C-9.07410156 73.18339844 -9.08570313 72.42929687 -9.09765625 71.65234375 C-9 69 -9 69 -8.51855469 65.75024414 C-8.03634738 62.2628682 -7.77272694 58.85845632 -7.60546875 55.34375 C-6.61421418 36.53998758 -4.74741108 18.29024892 0 0 Z " fill="#9D9590" transform="translate(604,433)"/>
<path d="M0 0 C9.97444751 2.19091911 19.4303554 5.49642159 29 9 C29 9.66 29 10.32 29 11 C31.475 11.495 31.475 11.495 34 12 C32.40300825 18.92029757 27.87707174 25.08195217 22 29 C22 27.68 22 26.36 22 25 C20.25519803 24.58184918 18.50377443 24.19126018 16.75 23.8125 C15.77546875 23.59207031 14.8009375 23.37164062 13.796875 23.14453125 C10.37799834 22.96785746 9.52302779 23.82251732 7 26 C4.5 26 4.5 26 2 25 C-2.88878412 19.83961676 -3.27064701 15.57946074 -3.234375 8.7421875 C-2.94119165 5.31194227 -1.86490027 2.87505459 0 0 Z " fill="#91B9D2" transform="translate(439,472)"/>
<path d="M0 0 C0.66 0 1.32 0 2 0 C0.49551921 4.83017516 -1.13232918 9.40867459 -3.30078125 13.98046875 C-6.23058867 20.36270945 -8.65023837 26.88545066 -11 33.5 C-11.43497803 34.72235352 -11.86995605 35.94470703 -12.31811523 37.20410156 C-16.65548819 49.57987736 -20.57874025 61.9302712 -22 75 C-22.66 75 -23.32 75 -24 75 C-24.02505615 75.58378418 -24.0501123 76.16756836 -24.07592773 76.76904297 C-24.19356199 79.47116313 -24.31551273 82.17307299 -24.4375 84.875 C-24.49647461 86.25171875 -24.49647461 86.25171875 -24.55664062 87.65625 C-24.83776388 93.7977119 -25.32318013 99.88952074 -26 106 C-26.33 106 -26.66 106 -27 106 C-28.13622033 101.41966542 -28.19509357 96.97847337 -28.23828125 92.2890625 C-28.246353 91.44387054 -28.25442474 90.59867859 -28.26274109 89.72787476 C-28.27654583 87.93758163 -28.28728406 86.14726259 -28.29516602 84.35693359 C-28.30660892 82.55346788 -28.32693654 80.75003392 -28.35668945 78.94677734 C-28.55020913 67.19505148 -27.64112261 57.20510602 -24 46 C-23.41091858 43.85573753 -22.82674661 41.71011305 -22.25 39.5625 C-18.5212954 27.68913475 -12.45728193 16.91272841 -5 7 C-4.06088173 5.62610476 -3.12321637 4.25121442 -2.1875 2.875 C-1.1046875 1.451875 -1.1046875 1.451875 0 0 Z " fill="#262422" transform="translate(357,350)"/>
<path d="M0 0 C2.4375 0.8125 2.4375 0.8125 5 2 C5.33 2.99 5.66 3.98 6 5 C6.94875 4.9175 7.8975 4.835 8.875 4.75 C14.00795078 4.70784024 18.39864495 6.92614984 23 9 C22.01 9.495 22.01 9.495 21 10 C21.12375 11.36125 21.12375 11.36125 21.25 12.75 C21 16 21 16 19.125 18.375 C17 20 17 20 15 20 C13.33034549 20.31802943 11.66321482 20.64984951 10 21 C10 22.65 10 24.3 10 26 C10.99 26.33 11.98 26.66 13 27 C11.56796182 32.61799593 10.36309577 37.14784386 5.6875 40.8125 C2.56756334 42.19107667 0.37684582 42.30698598 -3 42 C-3.33 41.67 -3.66 41.34 -4 41 C-3.83228386 33.89141579 -2.54626866 26.92067818 -1 20 C-0.34 20 0.32 20 1 20 C1 15.38 1 10.76 1 6 C0.34 6 -0.32 6 -1 6 C-1.042721 4.33388095 -1.04063832 2.66617115 -1 1 C-0.67 0.67 -0.34 0.34 0 0 Z " fill="#3C3938" transform="translate(323,570)"/>
<path d="M0 0 C0.7940625 -0.01417969 1.588125 -0.02835938 2.40625 -0.04296875 C4.5 0.1875 4.5 0.1875 6.5 2.1875 C5.93410156 2.661875 5.36820312 3.13625 4.78515625 3.625 C1.6638223 7.12516251 -0.09510488 10.95683601 -2.0625 15.1875 C-2.46090088 16.0316748 -2.85930176 16.87584961 -3.26977539 17.74560547 C-5.90414593 23.48049061 -7.80253637 28.91662044 -8.96484375 35.1328125 C-9.22974609 36.14988281 -9.22974609 36.14988281 -9.5 37.1875 C-11.5 38.1875 -11.5 38.1875 -14.25 37.48046875 C-15.3225 37.11566406 -16.395 36.75085938 -17.5 36.375 C-18.5725 36.01792969 -19.645 35.66085937 -20.75 35.29296875 C-23.5 34.1875 -23.5 34.1875 -25.5 32.1875 C-25.19797757 27.20412989 -22.58728962 22.64362062 -20.5 18.1875 C-19.84 18.1875 -19.18 18.1875 -18.5 18.1875 C-18.45875 17.5275 -18.4175 16.8675 -18.375 16.1875 C-16.53662477 9.88449921 -11.82264129 4.88377868 -6.5 1.1875 C-4.14653604 0.01076802 -2.6193967 0.02126134 0 0 Z " fill="#88827F" transform="translate(367.5,584.8125)"/>
<path d="M0 0 C1.08796875 0.01546875 2.1759375 0.0309375 3.296875 0.046875 C5.76993691 0.21697979 7.88686685 0.53876575 10.25 1.25 C10.42058458 4.44334327 10.30599113 7.2133688 9.25 10.25 C6.5321366 12.39281435 3.53352412 13.25312413 0.25 14.25 C-0.39839844 14.50007813 -1.04679688 14.75015625 -1.71484375 15.0078125 C-7.67977578 17.25204435 -13.92319509 18.43594418 -20.140625 19.75854492 C-24.25629427 20.64656778 -28.21743149 21.6348399 -32.1875 23.0625 C-35.75 24.25 -35.75 24.25 -38.75 23.25 C-33.92854492 18.19686337 -28.85683451 13.74184008 -23.3125 9.5 C-22.60029297 8.93667969 -21.88808594 8.37335938 -21.15429688 7.79296875 C-14.44931679 2.64091321 -8.60244718 -0.20580017 0 0 Z " fill="#7A6C67" transform="translate(575.75,437.75)"/>
<path d="M0 0 C1.92960571 0.24447876 1.92960571 0.24447876 3.89819336 0.49389648 C8.8247557 1.03915505 13.67670329 1.12850688 18.62890625 1.09765625 C19.94156715 1.09553383 19.94156715 1.09553383 21.28074646 1.09336853 C24.04136762 1.08782719 26.80190388 1.07528612 29.5625 1.0625 C31.44856653 1.0574774 33.33463434 1.05291583 35.22070312 1.04882812 C39.81383417 1.03787707 44.40690275 1.02065384 49 1 C49.99 4.3 50.98 7.6 52 11 C34.12176642 13.64135075 16.8060602 13.08239361 -1 10 C-1.125 2.25 -1.125 2.25 0 0 Z " fill="#605A57" transform="translate(380,726)"/>
<path d="M0 0 C2.8671875 1.73046875 2.8671875 1.73046875 5.875 4.1875 C6.69387695 4.84721802 6.69387695 4.84721802 7.52929688 5.52026367 C8.71962588 6.48215748 9.90464685 7.45064788 11.08496094 8.42480469 C13.11738024 10.09654989 15.16970157 11.74125227 17.2265625 13.3828125 C18.65167013 14.52525816 20.07615872 15.66847648 21.5 16.8125 C22.17015137 17.35092529 22.84030273 17.88935059 23.53076172 18.4440918 C27.23640299 21.45650086 30.69009153 24.55642215 34 28 C27.2554578 26.60979844 20.79264868 24.76301963 14.25 22.625 C12.30754074 21.99532487 10.36483317 21.36641523 8.421875 20.73828125 C7.49181641 20.43744629 6.56175781 20.13661133 5.60351562 19.82666016 C3.37302855 19.11844286 1.13898138 18.44162071 -1.109375 17.79296875 C-6.74215146 16.16413592 -11.39281584 14.68574733 -16 11 C-15.09066991 9.72390677 -14.17217147 8.45434447 -13.25 7.1875 C-12.73953125 6.47980469 -12.2290625 5.77210938 -11.703125 5.04296875 C-8.15718798 0.7894709 -5.66486812 -0.81636571 0 0 Z " fill="#8E7F7A" transform="translate(426,432)"/>
<path d="M0 0 C0.99 0 1.98 0 3 0 C3 0.66 3 1.32 3 2 C4.27359375 2.26683594 5.5471875 2.53367187 6.859375 2.80859375 C11.17467356 3.76595573 15.3738122 4.97308869 19.60083008 6.25927734 C28.47551877 8.95006398 36.66848601 10.96537472 46 11 C46 13.97 46 16.94 46 20 C35.8281476 20.32540286 26.78274443 20.16905805 17 17 C15.70185725 16.59754549 14.40367804 16.19520857 13.10546875 15.79296875 C2.00367453 12.26615567 2.00367453 12.26615567 -3 9 C-2.01 6.03 -1.02 3.06 0 0 Z " fill="#776F6B" transform="translate(335,628)"/>
<path d="M0 0 C0.33 0.99 0.66 1.98 1 3 C1.66 3 2.32 3 3 3 C3 7.62 3 12.24 3 17 C2.34 17 1.68 17 1 17 C0.28674095 23.99600901 -0.3741355 30.99564408 -1 38 C3.21878192 38.19622241 6.17010894 37.80230168 10 36 C10 36.66 10 37.32 10 38 C9.34 38.66 8.68 39.32 8 40 C7.31849848 41.99499377 6.65464497 43.99603283 6 46 C4.91347682 48.42728209 3.80371338 50.80721027 2.625 53.1875 C2.33367187 53.80302734 2.04234375 54.41855469 1.7421875 55.05273438 C-0.00325683 58.58572805 -1.53256456 61.03797377 -5 63 C-5.66 63 -6.32 63 -7 63 C-7.02505615 62.41621582 -7.0501123 61.83243164 -7.07592773 61.23095703 C-7.19356199 58.52883687 -7.31551273 55.82692701 -7.4375 53.125 C-7.47681641 52.2071875 -7.51613281 51.289375 -7.55664062 50.34375 C-7.59853516 49.42851563 -7.64042969 48.51328125 -7.68359375 47.5703125 C-7.72484375 46.63485596 -7.76609375 45.69939941 -7.80859375 44.7355957 C-7.95422286 42.0463578 -7.95422286 42.0463578 -8.39453125 39.59838867 C-9.69153257 31.60214395 -7.41433548 24.69266675 -5.125 17.0625 C-4.74187074 15.7367949 -4.36034864 14.41062423 -3.98046875 13.08398438 C-2.7141079 8.70129423 -1.44270343 4.32811029 0 0 Z " fill="#262423" transform="translate(321,573)"/>
<path d="M0 0 C0.86870297 2.42034854 1.12075078 3.6430264 0.28515625 6.11328125 C-3.90183172 13.64450882 -9.68252283 20.05422683 -18 23 C-21.48566431 23.34725603 -24.79460803 23.60269599 -28 22 C-28 21.34 -28 20.68 -28 20 C-28.5775 19.773125 -29.155 19.54625 -29.75 19.3125 C-32.5663661 17.66961977 -34.08077114 15.60466773 -36 13 C-35.5 11.1875 -35.5 11.1875 -34 9 C-26.67622396 5.60936294 -18.08374448 3 -10 3 C-9.34 4.32 -8.68 5.64 -8 7 C-5.58414426 6.96906827 -5.58414426 6.96906827 -3 6 C-1.14083176 3.03292954 -1.14083176 3.03292954 0 0 Z " fill="#F7E9E4" transform="translate(570,485)"/>
<path d="M0 0 C7.4659249 -0.36717663 7.4659249 -0.36717663 10 1.375 C11 3 11 3 11 5 C11.88945313 5.14115234 11.88945313 5.14115234 12.796875 5.28515625 C16.42912549 6.46370561 17.80231704 8.72800751 19.79296875 11.8828125 C23.62547695 21.78035794 21.69859715 35.33494161 18 45 C16.625 47.8046875 16.625 47.8046875 15 50 C11.3125 50.3125 11.3125 50.3125 8 50 C8.62331247 46.59901352 9.5026475 43.41207877 10.5625 40.125 C13.16629261 30.6333422 13.89606881 18.89841077 9 10 C6.64573501 7.22877725 6.64573501 7.22877725 4 5 C2.64444707 3.35135455 1.30368347 1.68996005 0 0 Z " fill="#BDB9B6" transform="translate(509,587)"/>
<path d="M0 0 C7.59433982 0.61103884 12.67083311 1.46139471 17.79296875 7.34375 C20.3770717 10.88957411 20.08006558 13.67645867 20 18 C15.98228647 17.42294958 13.23632159 16.15478031 9.8125 14 C6.46706412 11.89110597 6.46706412 11.89110597 3 10 C6.75264754 14.96387672 10.45890328 19.73412126 15 24 C14.3125 25.9375 14.3125 25.9375 13 28 C10.67578125 28.859375 10.67578125 28.859375 8 29 C5.8671875 27.48828125 5.8671875 27.48828125 3.875 25.3125 C3.21242188 24.60738281 2.54984375 23.90226563 1.8671875 23.17578125 C1.25101562 22.45777344 0.63484375 21.73976563 0 21 C-0.5671875 20.38511719 -1.134375 19.77023437 -1.71875 19.13671875 C-3.48785798 16.18640758 -3.39850922 13.91667374 -3.375 10.5 C-3.38273437 9.3759375 -3.39046875 8.251875 -3.3984375 7.09375 C-2.97209801 3.78334928 -2.23700419 2.41454421 0 0 Z " fill="#C8B2AA" transform="translate(363,664)"/>
<path d="M0 0 C4.59760396 2.15962608 8.03774009 5.44228121 10.34375 9.96484375 C11.60309983 13.87032746 11.78039473 17.97850646 11 22 C9.68359375 23.7734375 9.68359375 23.7734375 8 25 C4.3433656 25.40629271 1.79638544 25.32234649 -1.625 23.9375 C-5.59569535 20.69824853 -8.37897012 16.86308965 -10 12 C-10.203125 9.84375 -10.203125 9.84375 -10.25 7.5 C-10.27578125 6.7265625 -10.3015625 5.953125 -10.328125 5.15625 C-9.44738022 -0.63150144 -5.00466434 -0.66728858 0 0 Z " fill="#9B948F" transform="translate(516,284)"/>
<path d="M0 0 C6.7599278 15.40297834 6.7599278 15.40297834 5 23 C2.99838448 25.67288902 1.26884126 26.51683186 -2 27 C-3.74886981 27.06624507 -5.50002748 27.08552595 -7.25 27.0625 C-8.14203125 27.05347656 -9.0340625 27.04445313 -9.953125 27.03515625 C-10.62859375 27.02355469 -11.3040625 27.01195312 -12 27 C-12.10957031 26.16597656 -12.21914063 25.33195313 -12.33203125 24.47265625 C-13.1964979 18.33705147 -14.20355526 12.60453324 -16.4140625 6.8046875 C-17 5 -17 5 -17 2 C-15.02 2 -13.04 2 -11 2 C-10.34 4.31 -9.68 6.62 -9 9 C-8.34 9 -7.68 9 -7 9 C-6.34 10.65 -5.68 12.3 -5 14 C-5 9.71 -5 5.42 -5 1 C-2 0 -2 0 0 0 Z " fill="#9C9591" transform="translate(496,698)"/>
<path d="M0 0 C0 4.95 0 9.9 0 15 C-6.47990359 18.47994823 -13.50312314 22 -21 22 C-21.34227513 20.4811541 -21.67331214 18.95977467 -22 17.4375 C-22.2784375 16.16712891 -22.2784375 16.16712891 -22.5625 14.87109375 C-23.06867314 11.54933253 -23.06635491 8.35507021 -23 5 C-21.87980469 4.72285156 -20.75960937 4.44570313 -19.60546875 4.16015625 C-18.13279698 3.79433333 -16.66014158 3.42844447 -15.1875 3.0625 C-14.08051758 2.78889648 -14.08051758 2.78889648 -12.95117188 2.50976562 C-2.86647727 0 -2.86647727 0 0 0 Z " fill="#776F6B" transform="translate(534,661)"/>
<path d="M0 0 C2 0 2 0 3.5078125 1.46875 C6.65660773 5.42375851 8.8882136 8.47626767 8.46875 13.79296875 C7.69659967 17.42850988 6.43640366 20.83841741 5.0703125 24.2890625 C4.34860312 26.11704173 3.69048298 27.97124306 3.09375 29.84375 C1.77223982 33.65725081 0.11012838 37.23546243 -1.625 40.875 C-1.94984375 41.56335938 -2.2746875 42.25171875 -2.609375 42.9609375 C-3.40323472 44.64205219 -4.20119558 46.32122921 -5 48 C-5.33 48 -5.66 48 -6 48 C-6.79205797 31.60880039 -4.14163333 15.8389491 0 0 Z " fill="#A69E99" transform="translate(604,433)"/>
<path d="M0 0 C0.99 0 1.98 0 3 0 C2.56615452 7.03128878 1.25678003 13.329015 -1 20 C-1.66 20 -2.32 20 -3 20 C-4.38938077 21.96147874 -5.7260411 23.96166576 -7 26 C-9.3125 25.875 -9.3125 25.875 -12 25 C-16.15017879 19.7049443 -15.27879645 13.38134106 -15 7 C-16.98 7 -18.96 7 -21 7 C-18.77123365 4.77123365 -17.90343235 4.57844191 -14.90234375 3.96484375 C-13.70061523 3.71057617 -13.70061523 3.71057617 -12.47460938 3.45117188 C-11.63736328 3.28166016 -10.80011719 3.11214844 -9.9375 2.9375 C-8.27927634 2.59568991 -6.62168338 2.25080076 -4.96484375 1.90234375 C-4.2287085 1.75273193 -3.49257324 1.60312012 -2.73413086 1.44897461 C-0.98292909 1.15203126 -0.98292909 1.15203126 0 0 Z " fill="#93B9D0" transform="translate(573,467)"/>
<path d="M0 0 C1.70993434 1.6222454 3.37347684 3.29413425 5 5 C8.50142325 7.34822413 11.93815559 8.817621 15.9375 10.125 C16.93652344 10.45757813 17.93554688 10.79015625 18.96484375 11.1328125 C30.68019656 14.48005616 42.52852486 13.81066214 54 10 C55.33022178 9.65445852 56.66261092 9.31666914 58 9 C57 12 57 12 54.7421875 13.31640625 C53.79601562 13.72761719 52.84984375 14.13882813 51.875 14.5625 C50.94429687 14.97628906 50.01359375 15.39007812 49.0546875 15.81640625 C36.77577965 20.57409049 25.35839331 20.40706601 13.18359375 15.5703125 C8.29147016 13.15726503 2.52512508 10.05025016 0 5 C-3.3 5 -6.6 5 -10 5 C-9.67 3.68 -9.34 2.36 -9 1 C-5.846632 0.29925156 -3.27275026 0 0 0 Z " fill="#302C2A" transform="translate(470,538)"/>
<path d="M0 0 C1.958964 0.30852185 3.91715713 0.6219418 5.875 0.9375 C7.51082031 1.19853516 7.51082031 1.19853516 9.1796875 1.46484375 C12 2 12 2 14 3 C14 3.66 14 4.32 14 5 C16.475 5.495 16.475 5.495 19 6 C17.40300825 12.92029757 12.87707174 19.08195217 7 23 C7 21.68 7 20.36 7 19 C6.04287109 18.83564453 6.04287109 18.83564453 5.06640625 18.66796875 C3.82697266 18.43013672 3.82697266 18.43013672 2.5625 18.1875 C1.73878906 18.03667969 0.91507812 17.88585937 0.06640625 17.73046875 C-0.61550781 17.48941406 -1.29742187 17.24835938 -2 17 C-3.30211046 13.09366863 -2.47812346 10.80461827 -1.5625 6.8125 C-1.27503906 5.54019531 -0.98757813 4.26789063 -0.69140625 2.95703125 C-0.46324219 1.98121094 -0.23507812 1.00539063 0 0 Z " fill="#D5C8C4" transform="translate(454,478)"/>
<path d="M0 0 C2.66080079 3.26989976 4.45166372 6.69381254 6.25 10.5 C6.79140625 11.6240625 7.3328125 12.748125 7.890625 13.90625 C8.98609883 16.96123336 9.23386263 18.07316306 8 21 C7.67 20.34 7.34 19.68 7 19 C6.01 20.32 5.02 21.64 4 23 C-0.8547265 22.58388059 -2.80439079 20.54108048 -6 17 C-6.66 16.34 -7.32 15.68 -8 15 C-9.14085976 11.00699083 -9.15893924 7.13242031 -9 3 C-8 2 -8 2 -6.15234375 1.90234375 C-4.1015625 1.93489583 -2.05078125 1.96744792 0 2 C0 1.34 0 0.68 0 0 Z " fill="#928B86" transform="translate(463,320)"/>
<path d="M0 0 C5.28 0.33 10.56 0.66 16 1 C14.68 1.33 13.36 1.66 12 2 C12 7.94 12 13.88 12 20 C13.32 20.33 14.64 20.66 16 21 C13.9163691 20.85848172 11.83310062 20.71162064 9.75 20.5625 C8.58984375 20.48128906 7.4296875 20.40007813 6.234375 20.31640625 C3.69022624 20.06752213 1.44046752 19.71885058 -1 19 C-1.10372765 12.56888577 -0.72027812 6.39246827 0 0 Z " fill="#504B48" transform="translate(402,668)"/>
<path d="M0 0 C5.40192722 -0.19292597 10.4031625 0.16730304 15.75 0.96875 C27.27445476 2.53315485 38.88984638 2.46292719 50.5 2.625 C52.78777372 2.66327553 55.0755345 2.70233242 57.36328125 2.7421875 C62.90873749 2.83712146 68.45427472 2.92245564 74 3 C74 3.33 74 3.66 74 4 C65.75 4 57.5 4 49 4 C49 5.65 49 7.3 49 9 C48 10 48 10 44.625 10.25 C41 10 41 10 39.63842773 8.55737305 C37.31470295 6.34860529 35.30708718 6.28802055 32.16015625 5.83203125 C31.01482422 5.66123047 29.86949219 5.49042969 28.68945312 5.31445312 C27.49255859 5.14880859 26.29566406 4.98316406 25.0625 4.8125 C23.86947266 4.63525391 22.67644531 4.45800781 21.44726562 4.27539062 C16.91210357 3.61512813 12.58919326 3 8 3 C8.66 3.66 9.32 4.32 10 5 C10.125 7.625 10.125 7.625 10 10 C3.58805513 11.33078101 3.58805513 11.33078101 1 9.875 C0 8 0 8 0.25 5.375 C1 3 1 3 2 2 C1.34 1.34 0.68 0.68 0 0 Z " fill="#6E6A66" transform="translate(392,697)"/>
<path d="M0 0 C0.66386719 0.14179687 1.32773437 0.28359375 2.01171875 0.4296875 C0.69171875 1.4196875 -0.62828125 2.4096875 -1.98828125 3.4296875 C-1.60923917 6.72044746 -1.60923917 6.72044746 0.01171875 9.4296875 C2.34469308 9.47061687 4.678771 9.47210473 7.01171875 9.4296875 C5.71016869 5.35004469 5.71016869 5.35004469 4.01171875 1.4296875 C10.36390917 1.97849807 16.69045513 2.59480363 23.01171875 3.4296875 C23.50671875 4.9146875 23.50671875 4.9146875 24.01171875 6.4296875 C20.60201556 7.80187423 17.18302589 9.14922356 13.76171875 10.4921875 C12.79363281 10.88212891 11.82554687 11.27207031 10.828125 11.67382812 C9.42626953 12.22006836 9.42626953 12.22006836 7.99609375 12.77734375 C6.70783691 13.28793335 6.70783691 13.28793335 5.39355469 13.80883789 C2.74803384 14.49841964 1.53870673 14.39735823 -0.98828125 13.4296875 C-3.10699014 12.13156664 -5.18813539 10.77109173 -7.23828125 9.3671875 C-8.3159375 8.63371094 -9.39359375 7.90023437 -10.50390625 7.14453125 C-11.32375 6.57863281 -12.14359375 6.01273438 -12.98828125 5.4296875 C-9.2470591 -0.68097534 -6.98838649 -1.16303074 0 0 Z " fill="#A09995" transform="translate(394.98828125,697.5703125)"/>
<path d="M0 0 C1.79244141 0.23009766 1.79244141 0.23009766 3.62109375 0.46484375 C10.08534064 1.1830934 16.56549882 1.35180512 23.0625 1.5625 C24.93325195 1.62727539 24.93325195 1.62727539 26.84179688 1.69335938 C29.89444091 1.79862296 32.94715523 1.90075941 36 2 C36 2.33 36 2.66 36 3 C31.05 3 26.1 3 21 3 C21 5.97 21 8.94 21 12 C18.08302989 11.85895309 15.1665198 11.71235186 12.25 11.5625 C11.0125 11.50352539 11.0125 11.50352539 9.75 11.44335938 C8.95078125 11.40146484 8.1515625 11.35957031 7.328125 11.31640625 C6.5949707 11.27974854 5.86181641 11.24309082 5.10644531 11.20532227 C2.98822395 10.99885215 1.0480544 10.56867914 -1 10 C-1.125 2.25 -1.125 2.25 0 0 Z " fill="#484441" transform="translate(380,726)"/>
<path d="M0 0 C8.72598647 -0.65011489 16.31004318 0.24372081 24.75 2.375 C26.07209473 2.70697388 26.07209473 2.70697388 27.42089844 3.0456543 C33.72173618 4.72173618 33.72173618 4.72173618 36 7 C33.58490559 7.67286212 31.16819644 8.33846012 28.75 9 C28.06808594 9.19078125 27.38617188 9.3815625 26.68359375 9.578125 C23.29399088 10.49957044 20.54221024 11 17 11 C17 11.66 17 12.32 17 13 C14.68359375 13.234375 14.68359375 13.234375 12 13 C10.41015625 11.390625 10.41015625 11.390625 9.0625 9.25 C6.41784897 5.36888875 4.00503278 3.38394808 0 1 C0 0.67 0 0.34 0 0 Z " fill="#BB9E94" transform="translate(380,575)"/>
<path d="M0 0 C18.48833335 -0.57311711 18.48833335 -0.57311711 26 3 C27.42892578 3.60328125 27.42892578 3.60328125 28.88671875 4.21875 C36.21943283 7.53089187 41.97323679 11.65307676 47 18 C47 18.66 47 19.32 47 20 C43.35424979 18.63723402 39.9320517 16.97223525 36.47851562 15.18164062 C29.16547678 11.39565592 21.94026243 8.28583312 14 6 C14 5.34 14 4.68 14 4 C9.71 3.67 5.42 3.34 1 3 C0.67 2.01 0.34 1.02 0 0 Z " fill="#302E2B" transform="translate(527,321)"/>
<path d="M0 0 C3.169678 2.18922675 6.25854401 4.51708802 8 8 C8.35294118 14.47058824 8.35294118 14.47058824 6 18 C2.84195771 18.46594067 1.00810196 18.73185622 -2 18 C-4.72731042 15.82480364 -6.44154153 13.11691694 -8 10 C-8.203125 8.125 -8.203125 8.125 -8.25 6 C-8.27578125 5.29875 -8.3015625 4.5975 -8.328125 3.875 C-8.21984375 3.25625 -8.1115625 2.6375 -8 2 C-4.66941883 -0.22038744 -3.86228249 -0.70223318 0 0 Z " fill="#7E7873" transform="translate(295,351)"/>
<path d="M0 0 C4.29677372 0.43696004 5.74847442 1.2680301 8.6875 4.375 C10.93105512 8.32793045 11.02642993 11.88417847 10.6875 16.375 C8.6875 18.375 8.6875 18.375 5.875 18.75 C1.99404748 18.29341735 0.42099293 17.10849293 -2.3125 14.375 C-2.3125 13.715 -2.3125 13.055 -2.3125 12.375 C-2.9725 12.375 -3.6325 12.375 -4.3125 12.375 C-5.42695498 10.14609005 -5.47730286 8.84444894 -5.5 6.375 C-5.51417969 5.67375 -5.52835937 4.9725 -5.54296875 4.25 C-5.09555451 0.61001977 -3.39116052 0.38390496 0 0 Z " fill="#7D7773" transform="translate(337.3125,337.625)"/>
<path d="M0 0 C4.27736332 1.10621465 5.87357984 2.53868687 8.625 5.9375 C9.79853189 9.45809568 9.82646402 12.243993 9.625 15.9375 C7.625 17.9375 7.625 17.9375 4.3125 18.375 C-0.30649241 17.82698395 -1.5239895 16.52162749 -4.375 12.9375 C-6.83588266 9.42195335 -6.76484945 6.14787407 -6.375 1.9375 C-3.375 -0.0625 -3.375 -0.0625 0 0 Z " fill="#7C7672" transform="translate(331.375,463.0625)"/>
<path d="M0 0 C3.11014374 0.2488115 4.5258431 0.63008458 7.125 2.25 C10.0436112 6.06260021 11.15204625 9.39804313 11 14.1875 C10.71125 15.198125 10.4225 16.20875 10.125 17.25 C7.27175563 18.67662219 5.29045451 18.56033868 2.125 18.25 C-1.25440996 16.09946639 -3.69043238 14.12676675 -4.875 10.25 C-5.13329509 7.49118862 -5.05532952 5.04510762 -4.875 2.25 C-2.875 0.25 -2.875 0.25 0 0 Z " fill="#7D7773" transform="translate(308.875,291.75)"/>
<path d="M0 0 C-2.83034368 2.91879192 -5.72931636 5.6610837 -8.8125 8.3125 C-16.34508653 14.89998672 -22.3704694 21.6121258 -27.921875 29.94921875 C-29.83056027 32.75125483 -31.84545384 35.3844586 -34 38 C-33.79119599 27.55979959 -28.30024402 17.94379831 -21.25 10.5 C-15.34824544 5.03975075 -8.39354249 -0.57262947 0 0 Z " fill="#262422" transform="translate(392,253)"/>
<path d="M0 0 C3.02116914 1.56746851 4.38865263 2.79421437 5.4921875 6.03125 C5.5128125 6.77375 5.5334375 7.51625 5.5546875 8.28125 C0.75718442 11.10132792 -4.02955136 10.79375847 -9.4453125 10.28125 C-13.03790916 9.2939229 -15.77784226 7.94872024 -18.4453125 5.28125 C-18.5703125 2.65625 -18.5703125 2.65625 -18.4453125 0.28125 C-13.39662684 -2.24309283 -5.30717904 -1.55993761 0 0 Z " fill="#C1BDBA" transform="translate(465.4453125,593.71875)"/>
<path d="M0 0 C8.25 0 16.5 0 25 0 C23.72345412 5.10618352 21.18575104 6.20021883 16.9375 8.75 C16.27427734 9.16121094 15.61105469 9.57242188 14.92773438 9.99609375 C13.29181814 11.00824336 11.64675068 12.00557507 10 13 C9.38125 12.21625 8.7625 11.4325 8.125 10.625 C5.45879637 7.33145434 4.12980713 5.82596143 0 5 C0 3.35 0 1.7 0 0 Z " fill="#8A837E" transform="translate(441,701)"/>
<path d="M0 0 C0.99 0 1.98 0 3 0 C3 0.66 3 1.32 3 2 C3.58007812 2.12117187 4.16015625 2.24234375 4.7578125 2.3671875 C9.28028442 3.33735474 13.63750966 4.43397783 18 6 C17.01 8.97 16.02 11.94 15 15 C8.49428427 15.83944719 2.62086404 11.81043202 -3 9 C-2.01 6.03 -1.02 3.06 0 0 Z " fill="#645D59" transform="translate(335,628)"/>
<path d="M0 0 C6.7599278 15.40297834 6.7599278 15.40297834 5 23 C3.84375 24.7734375 3.84375 24.7734375 2 26 C-1.1875 26.1875 -1.1875 26.1875 -4 26 C-3.98839844 24.78183594 -3.97679687 23.56367187 -3.96484375 22.30859375 C-3.95545822 20.68489738 -3.94635884 19.06119933 -3.9375 17.4375 C-3.92912109 16.63763672 -3.92074219 15.83777344 -3.91210938 15.01367188 C-3.89257753 10.22836896 -4.19562982 5.71854949 -5 1 C-2 0 -2 0 0 0 Z " fill="#9F9995" transform="translate(496,698)"/>
<path d="M0 0 C2.2647694 4.52953881 2.31552523 8.03047769 2 13 C1 15.5 1 15.5 0 17 C-2.3125 16.8125 -2.3125 16.8125 -5 16 C-7.30872383 12.92170156 -8.66503776 9.59412911 -10 6 C-10.66 6 -11.32 6 -12 6 C-12 5.01 -12 4.02 -12 3 C-10.37604003 2.49663233 -8.75079459 1.99741024 -7.125 1.5 C-6.22007812 1.2215625 -5.31515625 0.943125 -4.3828125 0.65625 C-2 0 -2 0 0 0 Z " fill="#272524" transform="translate(546,583)"/>
<path d="M0 0 C3.5625 1.5625 3.5625 1.5625 6 3 C6 3.66 6 4.32 6 5 C3.02140954 5.79388678 0.04216284 6.58515639 -2.9375 7.375 C-3.76830078 7.59671875 -4.59910156 7.8184375 -5.45507812 8.046875 C-10.94539739 9.49956648 -16.44859471 10.80121016 -22 12 C-20.05389092 9.61379572 -18.06067271 7.28862324 -16 5 C-15.45859375 4.39414062 -14.9171875 3.78828125 -14.359375 3.1640625 C-9.72856105 -1.44511214 -6.20622572 -1.82139233 0 0 Z " fill="#90807B" transform="translate(559,450)"/>
<path d="M0 0 C-1.03447266 0.81791016 -1.03447266 0.81791016 -2.08984375 1.65234375 C-12.29787486 9.84397365 -20.58294619 18.18767361 -28 29 C-28.92075222 26.4909502 -29.09121531 25.27934687 -28.25 22.703125 C-23.03918501 12.47690059 -17.18084605 6.35474985 -7 1 C-6.30261719 0.59523438 -5.60523438 0.19046875 -4.88671875 -0.2265625 C-3 -1 -3 -1 0 0 Z " fill="#282624" transform="translate(344,294)"/>
<path d="M0 0 C-0.31049726 1.43793392 -0.6234776 2.8753318 -0.9375 4.3125 C-1.19853516 5.51326172 -1.19853516 5.51326172 -1.46484375 6.73828125 C-2 9 -2 9 -3 12 C-13.55808656 11.03644647 -13.55808656 11.03644647 -18 10 C-18.33 8.02 -18.66 6.04 -19 4 C-16.39688008 3.32900016 -13.79264602 2.66304662 -11.1875 2 C-10.44951172 1.80921875 -9.71152344 1.6184375 -8.95117188 1.421875 C-5.89464659 0.64737086 -3.16626522 0 0 0 Z " fill="#97918E" transform="translate(527,691)"/>
<path d="M0 0 C25.45055661 -0.91321346 25.45055661 -0.91321346 35.625 7.75 C36.76257065 8.82012575 37.8925477 9.89873458 39 11 C38.34 11.33 37.68 11.66 37 12 C34.15332438 10.97362703 31.36513213 9.88585754 28.5625 8.75 C18.85140112 4.96101182 9.31646688 3.21302242 -1 2 C-0.67 1.34 -0.34 0.68 0 0 Z " fill="#2F2D2B" transform="translate(473,260)"/>
<path d="M0 0 C1.83203125 0.109375 1.83203125 0.109375 4 1 C5.88671875 3.328125 5.88671875 3.328125 7.6875 6.25 C8.28949219 7.20390625 8.89148438 8.1578125 9.51171875 9.140625 C10.91902429 11.84442462 11.58941132 13.99996539 12 17 C9.20583606 17.50802981 7.52646274 17.34912792 5.14453125 15.76953125 C0.21875 11.65625 0.21875 11.65625 -1 8 C-1.125 4.375 -1.125 4.375 -1 1 C-0.67 0.67 -0.34 0.34 0 0 Z " fill="#7E7874" transform="translate(455,322)"/>
<path d="M0 0 C1.9375 1.0625 1.9375 1.0625 3 3 C2.875 6.5625 2.875 6.5625 2 10 C-1.23253796 12.15502531 -2.25150923 12.46856135 -6 12 C-7.8125 10.875 -7.8125 10.875 -9 9 C-9.39365568 5.85075452 -9.52854531 3.88090884 -7.875 1.125 C-5.11909116 -0.52854531 -3.14924548 -0.39365568 0 0 Z " fill="#B1ACA9" transform="translate(414,603)"/>
<path d="M0 0 C0.13501894 2.43934225 0.23403897 4.87124104 0.3125 7.3125 C0.35439453 8.00279297 0.39628906 8.69308594 0.43945312 9.40429688 C0.48828125 11.42578125 0.48828125 11.42578125 0 15 C-2.4115324 16.99453006 -3.8475744 18 -7 18 C-7 12.39 -7 6.78 -7 1 C-4 0 -4 0 0 0 Z " fill="#9E938E" transform="translate(534,661)"/>
<path d="M0 0 C0.87011719 0.16242187 1.74023438 0.32484375 2.63671875 0.4921875 C3.51972656 0.63914062 4.40273438 0.78609375 5.3125 0.9375 C5.97636719 1.07929687 6.64023437 1.22109375 7.32421875 1.3671875 C6.00421875 2.3571875 4.68421875 3.3471875 3.32421875 4.3671875 C3.65421875 6.0171875 3.98421875 7.6671875 4.32421875 9.3671875 C6.30421875 10.0271875 8.28421875 10.6871875 10.32421875 11.3671875 C10.32421875 12.3571875 10.32421875 13.3471875 10.32421875 14.3671875 C8.25 15.14453125 8.25 15.14453125 5.32421875 15.3671875 C2.84390446 13.97437326 0.75632523 12.62878204 -1.48828125 10.9296875 C-2.38450195 10.2790332 -2.38450195 10.2790332 -3.29882812 9.61523438 C-4.76764804 8.54593348 -6.22309099 7.45830039 -7.67578125 6.3671875 C-3.4252342 0.47003214 -3.4252342 0.47003214 0 0 Z " fill="#98918D" transform="translate(389.67578125,696.6328125)"/>
<path d="M0 0 C2.5 0.4375 2.5 0.4375 4.3125 1.5 C6.16501934 4.52253156 5.87643703 6.98682719 5.5 10.4375 C1.8558226 12.8669516 -0.21241272 12.59929575 -4.5 12.4375 C-5.90457737 9.62834526 -5.74895157 7.54939466 -5.5 4.4375 C-3.9991531 1.43580621 -3.33569239 0.58374617 0 0 Z " fill="#C1BDB9" transform="translate(507.5,618.5625)"/>
<path d="M0 0 C2.93756119 -0.0269501 5.87487555 -0.04681474 8.8125 -0.0625 C9.64587891 -0.07087891 10.47925781 -0.07925781 11.33789062 -0.08789062 C12.14033203 -0.09111328 12.94277344 -0.09433594 13.76953125 -0.09765625 C14.87711792 -0.10551147 14.87711792 -0.10551147 16.00708008 -0.11352539 C18 0 18 0 21 1 C21.33 2.65 21.66 4.3 22 6 C19.31173136 5.88509088 16.62486531 5.75836801 13.9375 5.625 C13.18533203 5.5940625 12.43316406 5.563125 11.65820312 5.53125 C6.81038719 5.27941541 2.61691957 4.50831635 -2 3 C-1.34 2.67 -0.68 2.34 0 2 C0 1.34 0 0.68 0 0 Z " fill="#97908C" transform="translate(444,230)"/>
<path d="M0 0 C11.55 0 23.1 0 35 0 C35 0.33 35 0.66 35 1 C26.75 1 18.5 1 10 1 C10 2.65 10 4.3 10 6 C9 7 9 7 5.5625 7.25 C4.386875 7.1675 3.21125 7.085 2 7 C0 4 0 4 0 0 Z " fill="#595552" transform="translate(431,700)"/>
<path d="M0 0 C1.98 0 3.96 0 6 0 C5.4253379 4.78642607 4.01754357 8.53788787 1.9375 12.875 C1.38964844 14.02742188 0.84179688 15.17984375 0.27734375 16.3671875 C-0.14417969 17.23601562 -0.56570313 18.10484375 -1 19 C-1.33 19 -1.66 19 -2 19 C-2 13.39 -2 7.78 -2 2 C-1.34 2 -0.68 2 0 2 C0 1.34 0 0.68 0 0 Z " fill="#C5BCB6" transform="translate(600,462)"/>
<path d="M0 0 C8.20682962 -0.81705162 14.80139944 0.98904954 22 5 C24.3515625 7.171875 24.3515625 7.171875 26 9 C19.94364701 8.3436874 14.37056667 6.73971507 8.5625 4.9375 C7.64017578 4.65583984 6.71785156 4.37417969 5.76757812 4.08398438 C3.51026202 3.39392401 1.25450816 2.69916877 -1 2 C-0.67 1.34 -0.34 0.68 0 0 Z " fill="#272523" transform="translate(485,315)"/>
<path d="M0 0 C5.61 0.33 11.22 0.66 17 1 C16.01 1.33 15.02 1.66 14 2 C14 3.65 14 5.3 14 7 C9.71 6.67 5.42 6.34 1 6 C0.67 4.02 0.34 2.04 0 0 Z " fill="#827874" transform="translate(395,651)"/>
<path d="M0 0 C1.89646998 0.11493757 3.79218332 0.24239642 5.6875 0.375 C6.74324219 0.44460938 7.79898437 0.51421875 8.88671875 0.5859375 C11.90677269 0.98760089 14.24078054 1.74069019 17 3 C11.88643979 5.98291012 5.89517358 7.36844835 0 7 C0 4.69 0 2.38 0 0 Z " fill="#CDB6AE" transform="translate(399,578)"/>
<path d="M0 0 C1.1648127 3.49443811 0.7761661 4.98303921 0.00390625 8.54296875 C-0.33930664 10.15268555 -0.33930664 10.15268555 -0.68945312 11.79492188 C-0.93630859 12.91447266 -1.18316406 14.03402344 -1.4375 15.1875 C-1.68048828 16.31865234 -1.92347656 17.44980469 -2.17382812 18.61523438 C-2.77560709 21.41173662 -3.38459452 24.20647043 -4 27 C-6.70476889 24.29523111 -6.33044845 22.77797113 -6.375 19 C-6.28235735 12.04408092 -5.08494645 5.08494645 0 0 Z " fill="#312E2C" transform="translate(279,382)"/>
<path d="M0 0 C1.1446875 0.3403125 1.1446875 0.3403125 2.3125 0.6875 C2.4375 3.0625 2.4375 3.0625 2.3125 5.6875 C1.6525 6.3475 0.9925 7.0075 0.3125 7.6875 C3.2825 7.6875 6.2525 7.6875 9.3125 7.6875 C9.3125 8.0175 9.3125 8.3475 9.3125 8.6875 C7.41757994 9.02598652 5.52151534 9.35806911 3.625 9.6875 C2.56925781 9.873125 1.51351563 10.05875 0.42578125 10.25 C-2.33654062 10.63818074 -4.90492043 10.77009976 -7.6875 10.6875 C-7.171875 10.295625 -6.65625 9.90375 -6.125 9.5 C-5.4134375 8.6028125 -5.4134375 8.6028125 -4.6875 7.6875 C-4.8525 6.8625 -5.0175 6.0375 -5.1875 5.1875 C-5.6875 2.6875 -5.6875 2.6875 -4.5625 0.8125 C-2.6875 -0.3125 -2.6875 -0.3125 0 0 Z " fill="#534E4B" transform="translate(492.6875,678.3125)"/>
<path d="M0 0 C-0.43384548 7.03128878 -1.74321997 13.329015 -4 20 C-6.20407015 16.21175443 -6.10907293 13.490581 -5.875 9.21875 C-6.01715692 6.69546462 -6.73957229 5.16636013 -8 3 C-3.375 0 -3.375 0 0 0 Z " fill="#C9BEBB" transform="translate(576,467)"/>
<path d="M0 0 C4 2 4 2 5.25 3.625 C6.35953628 7.13853155 6.12256679 10.32299618 6 14 C4.375 14.75 4.375 14.75 2 15 C-1.25 13.1875 -1.25 13.1875 -4 11 C-4 10.34 -4 9.68 -4 9 C-1.525 9.495 -1.525 9.495 1 10 C0.67 6.7 0.34 3.4 0 0 Z " fill="#3D3835" transform="translate(504,517)"/>
<path d="M0 0 C2.31 0 4.62 0 7 0 C7 3.3 7 6.6 7 10 C5.00045254 10.04254356 2.99958364 10.04080783 1 10 C0 9 0 9 -0.09765625 6.93359375 C-0.08605469 6.10988281 -0.07445312 5.28617188 -0.0625 4.4375 C-0.05347656 3.61121094 -0.04445313 2.78492188 -0.03515625 1.93359375 C-0.02355469 1.29550781 -0.01195312 0.65742187 0 0 Z " fill="#45413E" transform="translate(465,726)"/>
<path d="M0 0 C1.15957207 3.47871621 0.77456651 4.34219645 -0.4375 7.6875 C-0.72496094 8.49574219 -1.01242187 9.30398438 -1.30859375 10.13671875 C-1.53675781 10.75160156 -1.76492188 11.36648438 -2 12 C-4.875 12.125 -4.875 12.125 -8 12 C-8.66 11.34 -9.32 10.68 -10 10 C-7.59983652 5.05848696 -4.47726973 2.95668756 0 0 Z " fill="#C9C6C4" transform="translate(526,691)"/>
<path d="M0 0 C-0.66 3.63 -1.32 7.26 -2 11 C-3.65 11.33 -5.3 11.66 -7 12 C-8 11 -8 11 -8.3125 8.25 C-7.76791665 2.58633321 -5.72892663 0 0 0 Z " fill="#2B2926" transform="translate(404,306)"/>
<path d="M0 0 C1.65 0.33 3.3 0.66 5 1 C5.625 3.8125 5.625 3.8125 6 7 C5.01 8.485 5.01 8.485 4 10 C2.35 9.67 0.7 9.34 -1 9 C-1.625 6.1875 -1.625 6.1875 -2 3 C-1.34 2.01 -0.68 1.02 0 0 Z " fill="#57514E" transform="translate(435,676)"/>
<path d="M0 0 C4.76350585 0.71452588 9.34201396 1.79534844 14 3 C11.8125 5.5625 11.8125 5.5625 9 8 C6.4375 8.125 6.4375 8.125 4 7 C0 2.78378378 0 2.78378378 0 0 Z " fill="#ACDDFB" transform="translate(437,490)"/>
<path d="M0 0 C2.45293506 3.67940259 2.2379918 5.56307429 2.1875 9.9375 C2.17783203 11.77634766 2.17783203 11.77634766 2.16796875 13.65234375 C2.03458647 16.31068356 1.78933154 18.48045374 1 21 C1.66 21.33 2.32 21.66 3 22 C-0.3 22 -3.6 22 -7 22 C-6.67 20.68 -6.34 19.36 -6 18 C-6 18.99 -6 19.98 -6 21 C-4.35 21 -2.7 21 -1 21 C-1.70583522 12.46348556 -1.70583522 12.46348556 -3 4 C-1 6 -1 6 0 9 C0 6.03 0 3.06 0 0 Z " fill="#65615D" transform="translate(491,703)"/>
<path d="M0 0 C0.33 0 0.66 0 1 0 C0.67 11.88 0.34 23.76 0 36 C-0.99 35.67 -1.98 35.34 -3 35 C-2.73729847 30.97955769 -2.47064351 26.95939836 -2.20043945 22.93945312 C-2.10920231 21.57396416 -2.01901594 20.20840454 -1.92993164 18.84277344 C-1.80115521 16.87155885 -1.66819413 14.90061907 -1.53515625 12.9296875 C-1.41732788 11.15440674 -1.41732788 11.15440674 -1.29711914 9.34326172 C-1.01660648 6.18686037 -0.56644464 3.11648297 0 0 Z " fill="#706B67" transform="translate(333,425)"/>
<path d="M0 0 C0.66 0 1.32 0 2 0 C4.59227518 4.86051596 4.18689553 9.65271133 4 15 C2.68 15.33 1.36 15.66 0 16 C0 10.72 0 5.44 0 0 Z " fill="#B9B4B1" transform="translate(497,706)"/>
<path d="M0 0 C0.763125 0.20625 1.52625 0.4125 2.3125 0.625 C2.27125 1.73875 2.23 2.8525 2.1875 4 C1.90128141 7.66866025 1.90128141 7.66866025 4.3125 9.625 C2.125 10.125 2.125 10.125 -0.6875 9.625 C-2.70021839 7.14446058 -4.20637086 4.44859938 -5.6875 1.625 C-2.6875 -0.375 -2.6875 -0.375 0 0 Z " fill="#7C6861" transform="translate(392.6875,578.375)"/>
<path d="M0 0 C9.05293337 -0.13534286 17.97859571 0.24258075 27 1 C26.67 2.32 26.34 3.64 26 5 C17.42 3.68 8.84 2.36 0 1 C0 0.67 0 0.34 0 0 Z " fill="#8A827D" transform="translate(404,699)"/>
<path d="M0 0 C-1.75 5.75 -1.75 5.75 -4 8 C-6.5 7.9375 -6.5 7.9375 -9 7 C-10.3125 4.4375 -10.3125 4.4375 -11 2 C-3.375 0 -3.375 0 0 0 Z " fill="#AEDDFA" transform="translate(570,485)"/>
<path d="M0 0 C1.8984375 0.828125 1.8984375 0.828125 4.5859375 2.328125 C0.82129404 3.58300615 -2.52112736 3.26845798 -6.4140625 3.015625 C-7.50074219 2.96245117 -7.50074219 2.96245117 -8.609375 2.90820312 C-12.32340792 2.67864574 -14.25768744 2.43237504 -17.4140625 0.328125 C-12.62013486 -2.06883882 -5.06369982 -1.40931451 0 0 Z " fill="#312F2C" transform="translate(459.4140625,231.671875)"/>
<path d="M0 0 C1.16835309 3.50505927 0.75193262 4.66433282 -0.3125 8.125 C-0.57675781 9.01445313 -0.84101563 9.90390625 -1.11328125 10.8203125 C-2 13 -2 13 -4 14 C-3.67 12.68 -3.34 11.36 -3 10 C-4.32 9.67 -5.64 9.34 -7 9 C-7 7.35 -7 5.7 -7 4 C-6.030625 3.71125 -5.06125 3.4225 -4.0625 3.125 C-0.89335797 2.35785318 -0.89335797 2.35785318 0 0 Z " fill="#2A2827" transform="translate(339,587)"/>
<path d="M0 0 C0 3.96 0 7.92 0 12 C-0.66 12 -1.32 12 -2 12 C-5 6.25 -5 6.25 -5 4 C-5.66 4 -6.32 4 -7 4 C-7 3.01 -7 2.02 -7 1 C-4.50935112 0.31292445 -2.62113708 0 0 0 Z " fill="#363433" transform="translate(541,585)"/>
<path d="M0 0 C3 1 3 1 4.1875 3.0625 C4.455625 3.701875 4.72375 4.34125 5 5 C0.07262981 6.97094808 -3.78020872 7.1799928 -9 7 C-7.33784732 5.66104368 -5.67036393 4.32869858 -4 3 C-3.29875 2.401875 -2.5975 1.80375 -1.875 1.1875 C-1.25625 0.795625 -0.6375 0.40375 0 0 Z " fill="#5B5652" transform="translate(510,729)"/>
<path d="M0 0 C2.00720923 0.28674418 4.0085944 0.61866701 6 1 C6.33 2.65 6.66 4.3 7 6 C4.6739143 6.38063221 2.33944736 6.71269945 0 7 C-1 6 -1 6 -1.125 3.5 C-1 1 -1 1 0 0 Z " fill="#4F4B4A" transform="translate(333,575)"/>
<path d="M0 0 C1.32 0 2.64 0 4 0 C4.33 2.64 4.66 5.28 5 8 C2.625 8.1875 2.625 8.1875 0 8 C-2 5 -2 5 -1.6875 2.875 C-1 1 -1 1 0 0 Z " fill="#4E4A49" transform="translate(327,592)"/>
<path d="M0 0 C0.43570312 0.3609375 0.87140625 0.721875 1.3203125 1.09375 C4.37118755 3.47105524 6.27445005 4.91464118 10.1875 5.375 C12.53700378 5.06173283 14.73630332 4.69652205 17 4 C16.67 5.32 16.34 6.64 16 8 C15.67 7.34 15.34 6.68 15 6 C14.01 7.32 13.02 8.64 12 10 C7.15175132 9.58443583 5.11963138 7.62551755 2 4 C0.6875 1.6875 0.6875 1.6875 0 0 Z " fill="#A9A09B" transform="translate(455,333)"/>
<path d="M0 0 C0.66 0.33 1.32 0.66 2 1 C-3.28 6.28 -8.56 11.56 -14 17 C-14.66 16.67 -15.32 16.34 -16 16 C-14.27538679 14.07906479 -12.54557391 12.163278 -10.8125 10.25 C-10.32974609 9.71117187 -9.84699219 9.17234375 -9.34960938 8.6171875 C-6.43837795 5.41287909 -3.47293499 2.6158121 0 0 Z " fill="#3E3835" transform="translate(552,431)"/>
<path d="M0 0 C4.62 0 9.24 0 14 0 C13.67 0.99 13.34 1.98 13 3 C9.8125 4.4375 9.8125 4.4375 6 5 C2.5625 3.1875 2.5625 3.1875 0 1 C0 0.67 0 0.34 0 0 Z " fill="#9F867D" transform="translate(380,575)"/>
<path d="M0 0 C0.33 0 0.66 0 1 0 C1.02694851 1.95825873 1.04637218 3.91662226 1.0625 5.875 C1.07410156 6.96554687 1.08570313 8.05609375 1.09765625 9.1796875 C1 12 1 12 0 14 C-1.32 14 -2.64 14 -4 14 C-3.21824485 9.15311808 -1.60155722 4.6233633 0 0 Z " fill="#857F7B" transform="translate(611,449)"/>
<path d="M0 0 C0.66 0 1.32 0 2 0 C-0.15111024 8.34211043 -0.15111024 8.34211043 -3.5 10.9375 C-4.325 11.288125 -5.15 11.63875 -6 12 C-6.99 12.66 -7.98 13.32 -9 14 C-7.65686815 10.21908383 -5.97035316 7.34348084 -3.5 4.1875 C-2.8915625 3.39730469 -2.283125 2.60710937 -1.65625 1.79296875 C-0.83640625 0.90544922 -0.83640625 0.90544922 0 0 Z " fill="#3F3C39" transform="translate(357,350)"/>
<path d="M0 0 C0.66 0.33 1.32 0.66 2 1 C-0.97 3.97 -3.94 6.94 -7 10 C-6.67 10.66 -6.34 11.32 -6 12 C-8.31 12.33 -10.62 12.66 -13 13 C-9.0580583 8.11950075 -4.88049925 3.9419417 0 0 Z " fill="#7A6D68" transform="translate(550,449)"/>
<path d="M0 0 C0.66 0.33 1.32 0.66 2 1 C-2.29 5.29 -6.58 9.58 -11 14 C-11.33 13.01 -11.66 12.02 -12 11 C-10.56564079 9.5385774 -9.12739414 8.08096951 -7.6875 6.625 C-6.88699219 5.81289063 -6.08648437 5.00078125 -5.26171875 4.1640625 C-3 2 -3 2 0 0 Z " fill="#33312E" transform="translate(379,257)"/>
<path d="M0 0 C3.3 0 6.6 0 10 0 C9.67 1.65 9.34 3.3 9 5 C4.68607774 4.5206753 2.83430453 3.2542015 0 0 Z " fill="#A99790" transform="translate(374,661)"/>
<path d="M0 0 C1.85776765 3.13498292 2.20140476 5.37471432 2 9 C0.66144944 8.21718695 -0.67073644 7.42348123 -2 6.625 C-2.7425 6.18414063 -3.485 5.74328125 -4.25 5.2890625 C-5.11625 4.65097656 -5.11625 4.65097656 -6 4 C-6 3.34 -6 2.68 -6 2 C-2.25 0 -2.25 0 0 0 Z " fill="#AC9A93" transform="translate(543,647)"/>
<path d="M0 0 C0.33 0 0.66 0 1 0 C1.33 2.64 1.66 5.28 2 8 C2.66 7.67 3.32 7.34 4 7 C2.80100302 10.0831351 1.52299523 13.06279492 0 16 C-0.33 16 -0.66 16 -1 16 C-1.11138159 10.54230189 -0.91657981 5.38490641 0 0 Z " fill="#6F6A66" transform="translate(596,495)"/>
<path d="M0 0 C6.93 0 13.86 0 21 0 C20.67 1.32 20.34 2.64 20 4 C20 3.01 20 2.02 20 1 C18.54077307 1.11409593 17.08259402 1.24165544 15.625 1.375 C14.81289063 1.44460938 14.00078125 1.51421875 13.1640625 1.5859375 C10.79665809 1.82892588 10.79665809 1.82892588 9 4 C8.67 3.01 8.34 2.02 8 1 C5.36 1 2.72 1 0 1 C0 0.67 0 0.34 0 0 Z " fill="#5B524D" transform="translate(364,660)"/>
<path d="M0 0 C3.3 0 6.6 0 10 0 C9.01 0.33 8.02 0.66 7 1 C7 1.66 7 2.32 7 3 C8.32 3.33 9.64 3.66 11 4 C8.18185434 5.40907283 6.82722796 4.50872691 3.875 3.5625 C2.96492188 3.27503906 2.05484375 2.98757813 1.1171875 2.69140625 C0.41851562 2.46324219 -0.28015625 2.23507812 -1 2 C-0.67 1.34 -0.34 0.68 0 0 Z " fill="#5D5855" transform="translate(485,315)"/>
<path d="M0 0 C0.33 0 0.66 0 1 0 C1.08089542 2.77141717 1.14044062 5.54047819 1.1875 8.3125 C1.21263672 9.09818359 1.23777344 9.88386719 1.26367188 10.69335938 C1.27333984 11.45068359 1.28300781 12.20800781 1.29296875 12.98828125 C1.3086792 13.68477783 1.32438965 14.38127441 1.34057617 15.09887695 C0.90238443 17.54489783 -0.13437358 18.42702086 -2 20 C-1.33333333 13.33333333 -0.66666667 6.66666667 0 0 Z " fill="#3C3937" transform="translate(490,618)"/>
<path d="M0 0 C0.99 0.33 1.98 0.66 3 1 C3 2.65 3 4.3 3 6 C1.35 5.67 -0.3 5.34 -2 5 C-1.125 1.125 -1.125 1.125 0 0 Z " fill="#625D59" transform="translate(401,620)"/>
<path d="M0 0 C2.31 0.33 4.62 0.66 7 1 C7 1.99 7 2.98 7 4 C5.02 4 3.04 4 1 4 C0.67 2.68 0.34 1.36 0 0 Z " fill="#BBB6B3" transform="translate(502,593)"/>
<path d="M0 0 C0.66 0 1.32 0 2 0 C3.26237731 2.52475462 3.09856404 4.31200466 3.0625 7.125 C3.05347656 8.03507813 3.04445313 8.94515625 3.03515625 9.8828125 C3.02355469 10.58148437 3.01195312 11.28015625 3 12 C0.89366282 10.29171079 0.06198392 9.47851584 -0.29296875 6.73828125 C-0.25816406 5.93777344 -0.22335937 5.13726563 -0.1875 4.3125 C-0.16042969 3.50425781 -0.13335937 2.69601562 -0.10546875 1.86328125 C-0.07066406 1.24839844 -0.03585937 0.63351562 0 0 Z " fill="#A09D9B" transform="translate(498,709)"/>
<path d="M0 0 C5.61 0 11.22 0 17 0 C17 0.33 17 0.66 17 1 C15.77023437 1.09087891 15.77023437 1.09087891 14.515625 1.18359375 C12.89914062 1.30927734 12.89914062 1.30927734 11.25 1.4375 C10.18265625 1.51871094 9.1153125 1.59992188 8.015625 1.68359375 C5.56320038 1.94090773 3.36078709 2.31812218 1 3 C0.67 2.01 0.34 1.02 0 0 Z " fill="#706B67" transform="translate(527,321)"/>
<path d="M0 0 C1.75570313 0.04060547 1.75570313 0.04060547 3.546875 0.08203125 C4.43890625 0.11683594 5.3309375 0.15164063 6.25 0.1875 C6.25 0.5175 6.25 0.8475 6.25 1.1875 C4.35507994 1.52598652 2.45901534 1.85806911 0.5625 2.1875 C-0.49324219 2.373125 -1.54898437 2.55875 -2.63671875 2.75 C-5.39904062 3.13818074 -7.96742043 3.27009976 -10.75 3.1875 C-7.26391463 -0.10012011 -4.6928191 -0.14078457 0 0 Z " fill="#5B5652" transform="translate(495.75,685.8125)"/>
<path d="M0 0 C1.41687119 4.25061356 0.19320039 6.71851625 -1 11 C-1.99 10.01 -2.98 9.02 -4 8 C-2.25 2.25 -2.25 2.25 0 0 Z " fill="#363431" transform="translate(279,382)"/>
<path d="M0 0 C2 3 2 3 1.8125 5.5 C0.95559826 8.13662075 0.11007147 9.25689748 -2 11 C-1.125 3.375 -1.125 3.375 0 0 Z " fill="#3B3835" transform="translate(360,280)"/>
<path d="M0 0 C2.31 0 4.62 0 7 0 C6.67 1.32 6.34 2.64 6 4 C4.02 3.34 2.04 2.68 0 2 C0 1.34 0 0.68 0 0 Z " fill="#76706C" transform="translate(424,700)"/>
<path d="M0 0 C0.99 0.33 1.98 0.66 3 1 C2.67 3.31 2.34 5.62 2 8 C1.34 8 0.68 8 0 8 C0 5.36 0 2.72 0 0 Z " fill="#BDB9B6" transform="translate(414,605)"/>
<path d="M0 0 C1.98 0.495 1.98 0.495 4 1 C3.67 2.32 3.34 3.64 3 5 C1.68 4.67 0.36 4.34 -1 4 C-0.67 2.68 -0.34 1.36 0 0 Z " fill="#BBB6B3" transform="translate(498,595)"/>
<path d="M0 0 C4.27786748 0.49360009 7.09567131 1.04783565 11 3 C7.7 3 4.4 3 1 3 C0.67 2.01 0.34 1.02 0 0 Z " fill="#BBA79F" transform="translate(451,566)"/>
<path d="M0 0 C0 0.99 0 1.98 0 3 C-4.07369424 5.03684712 -6.58937864 5.0257259 -11 4 C-11 3.67 -11 3.34 -11 3 C-9.01432292 2.51171875 -7.02864583 2.0234375 -5.04296875 1.53515625 C-3.34316798 1.08989295 -1.66698046 0.55566015 0 0 Z " fill="#504844" transform="translate(527,547)"/>
<path d="M0 0 C2.23551759 3.35327639 2.17283528 3.90743657 1.625 7.6875 C1.51414062 8.49574219 1.40328125 9.30398438 1.2890625 10.13671875 C1.19367187 10.75160156 1.09828125 11.36648438 1 12 C-1.58464442 7.61991557 -0.81479148 4.88874887 0 0 Z " fill="#D3C9C6" transform="translate(571,475)"/>
<path d="M0 0 C0.33 0 0.66 0 1 0 C1 3.96 1 7.92 1 12 C-0.32 11.34 -1.64 10.68 -3 10 C-3 9.34 -3 8.68 -3 8 C-2.34 8 -1.68 8 -1 8 C-0.67 5.36 -0.34 2.72 0 0 Z " fill="#B6B0AC" transform="translate(611,401)"/>
<path d="M0 0 C0 1.65 0 3.3 0 5 C-0.99 5 -1.98 5 -3 5 C-2.67 4.01 -2.34 3.02 -2 2 C-3.98 2 -5.96 2 -8 2 C-8 1.67 -8 1.34 -8 1 C-5.23735711 0.40267181 -2.83967231 0 0 0 Z " fill="#696562" transform="translate(525,647)"/>
<path d="M0 0 C1.32 0.33 2.64 0.66 4 1 C4 2.32 4 3.64 4 5 C2.68 5 1.36 5 0 5 C0 3.35 0 1.7 0 0 Z " fill="#BCB7B4" transform="translate(430,594)"/>
<path d="M0 0 C0.33 0 0.66 0 1 0 C0.67 2.97 0.34 5.94 0 9 C-0.66 9 -1.32 9 -2 9 C-2.25 3.375 -2.25 3.375 0 0 Z " fill="#1B1A18" transform="translate(276,389)"/>
<path d="M0 0 C2.375 0.3125 2.375 0.3125 5 1 C5.66 1.99 6.32 2.98 7 4 C4.69 3.67 2.38 3.34 0 3 C0 2.01 0 1.02 0 0 Z " fill="#3D3A37" transform="translate(504,320)"/>
<path d="M0 0 C-1.65 1.65 -3.3 3.3 -5 5 C-5.33 4.34 -5.66 3.68 -6 3 C-6.99 2.67 -7.98 2.34 -9 2 C-5.86501708 0.14223235 -3.62528568 -0.20140476 0 0 Z " fill="#494643" transform="translate(392,253)"/>
<path d="M0 0 C0.99 0 1.98 0 3 0 C3 1.65 3 3.3 3 5 C1.68 4.67 0.36 4.34 -1 4 C-0.67 2.68 -0.34 1.36 0 0 Z " fill="#BDB9B6" transform="translate(423,605)"/>
<path d="M0 0 C0.99 0.33 1.98 0.66 3 1 C1.68 2.65 0.36 4.3 -1 6 C-1.99 5.67 -2.98 5.34 -4 5 C-2.68 3.35 -1.36 1.7 0 0 Z " fill="#88827E" transform="translate(386,698)"/>
<path d="M0 0 C1.65 0 3.3 0 5 0 C5.33 0.99 5.66 1.98 6 3 C4.02 3 2.04 3 0 3 C0 2.01 0 1.02 0 0 Z " fill="#BFBBB8" transform="translate(439,599)"/>
<path d="M0 0 C5.625 -0.25 5.625 -0.25 9 2 C9 2.66 9 3.32 9 4 C6.03 3.01 3.06 2.02 0 1 C0 0.67 0 0.34 0 0 Z " fill="#4F4743" transform="translate(455,459)"/>
</svg>
