<?xml version="1.0" encoding="UTF-8"?>
<svg version="1.1" xmlns="http://www.w3.org/2000/svg" width="900" height="900">
<path d="M0 0 C0.77975189 0.15239136 1.55950378 0.30478271 2.36288452 0.46179199 C16.64817065 3.29030228 30.15802371 7.23621055 43.5625 13 C44.57151367 13.4336084 45.58052734 13.8672168 46.62011719 14.31396484 C58.85594851 19.67414814 70.18804291 25.55076584 80.5625 34 C81.40844727 34.6811084 81.40844727 34.6811084 82.27148438 35.37597656 C88.39870801 40.34019415 94.25029949 45.50371625 99.73828125 51.17578125 C101.60256818 53.04006818 103.54942725 54.73592787 105.5625 56.4375 C139.69733591 86.12285341 153.02349847 136.05841646 162.02612305 178.50341797 C162.3771181 180.1371346 162.74766328 181.76680305 163.13989258 183.39111328 C164.75445921 190.44546152 164.82624106 197.28518766 164.75 204.5 C164.74935547 205.65886719 164.74871094 206.81773437 164.74804688 208.01171875 C164.7177325 213.97354681 164.50081523 219.79297688 163.67700195 225.70117188 C163.5336895 228.57842147 164.08556984 231.15944732 164.5625 234 C164.66505092 236.58100856 164.72629203 239.13425502 164.73046875 241.71484375 C164.73379715 242.44764053 164.73712555 243.18043732 164.74055481 243.93544006 C164.74559841 245.48437885 164.74796393 247.03332841 164.74780273 248.58227539 C164.7499645 250.89944531 164.76807839 253.2161188 164.78710938 255.53320312 C164.83611131 268.08709647 164.20077704 280.61846807 160.1875 292.625 C159.93838867 293.38659424 159.68927734 294.14818848 159.43261719 294.93286133 C150.30841772 321.88187376 139.16558238 346.00011693 118.48828125 366.0703125 C116.43116448 368.05045241 116.43116448 368.05045241 114.4375 370.75 C111.92244979 373.76806025 108.96250264 376.03201817 105.5625 378 C104.9025 378 104.2425 378 103.5625 378 C103.5625 378.66 103.5625 379.32 103.5625 380 C101.375 381.5078125 101.375 381.5078125 98.5625 383.125 C97.634375 383.66382813 96.70625 384.20265625 95.75 384.7578125 C95.028125 385.16773438 94.30625 385.57765625 93.5625 386 C93.78389648 386.80928955 94.00529297 387.6185791 94.23339844 388.45239258 C101.66989298 415.72792238 101.66989298 415.72792238 104 426.6875 C104.15114258 427.38399658 104.30228516 428.08049316 104.45800781 428.7980957 C106.52251198 438.92417139 106.74412258 449.13438201 106.75 459.4375 C106.76224609 460.59443359 106.77449219 461.75136719 106.78710938 462.94335938 C106.78904297 464.05388672 106.79097656 465.16441406 106.79296875 466.30859375 C106.79707764 467.30689209 106.80118652 468.30519043 106.80541992 469.33374023 C106.55824369 472.0467167 105.95148247 473.68273547 104.5625 476 C102.2525 476 99.9425 476 97.5625 476 C97.541875 476.969375 97.52125 477.93875 97.5 478.9375 C96.34278586 486.89334722 89.02726448 492.78986025 83.26171875 497.78515625 C81.5625 499 81.5625 499 79.5625 499 C79.4696875 500.3303125 79.4696875 500.3303125 79.375 501.6875 C78.37977463 508.52792224 76.16221158 516.52388802 71.09765625 521.34765625 C68.20839525 523.23079554 65.96995232 523.68302769 62.5625 524 C62.92696752 527.6446752 63.26323989 530.46382563 65.0625 533.6875 C67.29781039 538.62381044 67.31081165 543.63643456 67.5625 549 C55.23351721 554.59447532 42.85851028 555.47782177 29.50170898 555.33618164 C27.13034905 555.3125533 24.76012049 555.31565583 22.38867188 555.32226562 C12.27998087 555.30225152 2.57161194 554.43477276 -7.4375 553 C-8.0975 548.05 -8.7575 543.1 -9.4375 538 C-12.0775 538 -14.7175 538 -17.4375 538 C-17.293125 538.66386719 -17.14875 539.32773437 -17 540.01171875 C-16.814375 540.89472656 -16.62875 541.77773438 -16.4375 542.6875 C-16.251875 543.55761719 -16.06625 544.42773438 -15.875 545.32421875 C-15.44777953 547.93712964 -15.36133799 550.35813038 -15.4375 553 C-17.60317544 553.48362696 -19.77009741 553.96167317 -21.9375 554.4375 C-23.74734375 554.83775391 -23.74734375 554.83775391 -25.59375 555.24609375 C-48.10411145 559.66123578 -73.40962771 558.2936778 -95.4375 552 C-95.1075 543.09 -94.7775 534.18 -94.4375 525 C-95.4275 525.33 -96.4175 525.66 -97.4375 526 C-101.98149075 526.37245826 -104.50698519 526.41157386 -108.6875 524.5625 C-112.93813157 520.60168422 -115.02168789 515.79188131 -115.875 510.0625 C-116.060625 509.381875 -116.24625 508.70125 -116.4375 508 C-118.09717014 507.31610144 -119.76512889 506.65222473 -121.4375 506 C-134.54858694 497.29066038 -141.37844304 488.0062106 -145.4375 473 C-146.38109375 473.433125 -146.38109375 473.433125 -147.34375 473.875 C-153.03410958 476.34310777 -157.24334321 477.45882643 -163.4375 477 C-174.23505808 455.31884752 -159.3770221 415.42859728 -152.4375 394.5625 C-152.025 393.38816406 -151.6125 392.21382812 -151.1875 391.00390625 C-150.37072578 387.73255533 -150.20873194 386.13154393 -151.4375 383 C-153.52377512 380.71603312 -153.52377512 380.71603312 -156.25 378.6875 C-157.24902344 377.90503906 -158.24804688 377.12257813 -159.27734375 376.31640625 C-162.23427847 374.14896213 -165.23702661 372.11934825 -168.3125 370.125 C-174.652334 365.99711846 -180.29530281 361.26255723 -185.96826172 356.28125 C-187.27792893 355.13915404 -188.6083429 354.02094884 -189.94140625 352.90625 C-198.43333679 345.69918547 -205.97684931 336.74351397 -211.4375 327 C-211.4375 326.34 -211.4375 325.68 -211.4375 325 C-212.0975 325 -212.7575 325 -213.4375 325 C-219.38895614 315.42582894 -222.01655385 306.78742375 -223.8125 295.75 C-224.17800376 293.63547166 -224.54981498 291.5221656 -224.92446899 289.40924072 C-225.25521188 287.52566938 -225.57020822 285.63935287 -225.88427734 283.75292969 C-226.15301576 281.09983963 -226.15301576 281.09983963 -227.4375 280 C-227.7258358 278.20507187 -227.95373415 276.40037443 -228.15625 274.59375 C-228.28346436 273.46670654 -228.41067871 272.33966309 -228.54174805 271.1784668 C-228.67234619 269.96457275 -228.80294434 268.75067871 -228.9375 267.5 C-229.0713208 266.25839111 -229.2051416 265.01678223 -229.34301758 263.73754883 C-233.30130923 226.19123329 -233.20624074 188.30014633 -223.3671875 151.66796875 C-222.64486965 148.8181517 -222.05329236 146.02214441 -221.515625 143.13671875 C-220.53258942 138.12437486 -219.04605365 133.42324628 -217.3125 128.625 C-217.00683105 127.76994873 -216.70116211 126.91489746 -216.38623047 126.03393555 C-215.41728972 123.35058294 -214.4315742 120.67413773 -213.4375 118 C-213.11974609 117.1445459 -212.80199219 116.2890918 -212.47460938 115.40771484 C-203.68716197 92.02075579 -191.68451942 71.99166154 -175.4375 53 C-174.84582031 52.28585938 -174.25414062 51.57171875 -173.64453125 50.8359375 C-157.06873332 31.18773766 -135.9219097 23.27127524 -110.81640625 20.6171875 C-104.08113121 19.88526166 -100.4851399 18.89103461 -95.71484375 14.0703125 C-81.95568846 1.56198951 -63.92544008 -3.03807907 -45.8125 -3.6875 C-44.84699219 -3.73455078 -43.88148438 -3.78160156 -42.88671875 -3.83007812 C-28.2772308 -4.41254791 -14.28841358 -2.82152214 0 0 Z " fill="#1D1C1A" transform="translate(461.4375,194)"/>
<path d="M0 0 C11.29068241 1.03781233 23.86856701 13.43096952 32.46484375 20.2265625 C33.34970459 20.90779175 33.34970459 20.90779175 34.25244141 21.6027832 C38.42136462 24.900469 38.42136462 24.900469 38.83984375 28.0390625 C38.65421875 29.121875 38.65421875 29.121875 38.46484375 30.2265625 C39.29371094 30.07574219 40.12257813 29.92492187 40.9765625 29.76953125 C46.3019807 30.46726241 48.69991127 33.73615265 52.27734375 37.5390625 C52.98511963 38.27020264 53.69289551 39.00134277 54.42211914 39.75463867 C59.77039663 45.33723684 64.71511286 51.12641793 69.46484375 57.2265625 C70.8982228 58.97993946 72.33585457 60.72984696 73.77734375 62.4765625 C74.5146875 63.38148438 75.25203125 64.28640625 76.01171875 65.21875 C77.30389907 66.80311122 78.5972178 68.38658201 79.90039062 69.96191406 C89.72127673 81.83671779 98.13489445 93.59069366 103.46484375 108.2265625 C103.72265625 108.92910156 103.98046875 109.63164062 104.24609375 110.35546875 C105.4681449 114.07790086 105.58802521 116.49866974 104.46484375 120.2265625 C93.9752758 137.63752569 76.90871853 145.59458511 58.78564453 153.23901367 C56.4236162 154.24410568 54.08031209 155.28517664 51.73828125 156.3359375 C48.38860273 157.83276569 45.00897125 159.20724938 41.58984375 160.5390625 C31.05828696 164.93612111 22.57754744 171.26308915 14.46484375 179.2265625 C13.77648437 179.89042969 13.088125 180.55429687 12.37890625 181.23828125 C6.4152726 187.4258458 2.37317097 194.62998475 -1.50976562 202.23144531 C-2.41626904 203.99524196 -3.37072254 205.73421472 -4.33203125 207.46875 C-11.48910858 222.24350865 -14.11453666 248.17697644 -10.36328125 264.0703125 C-10.11288086 265.14498779 -9.86248047 266.21966309 -9.60449219 267.3269043 C-9.33411133 268.4487915 -9.06373047 269.57067871 -8.78515625 270.7265625 C-8.37571777 272.46063354 -8.37571777 272.46063354 -7.95800781 274.22973633 C-5.66722397 283.85898818 -3.26403577 293.44942637 -0.42578125 302.93359375 C0.46484375 306.2265625 0.46484375 306.2265625 0.46484375 309.2265625 C1.12484375 309.2265625 1.78484375 309.2265625 2.46484375 309.2265625 C3.47158834 312.49535866 4.46906864 315.7669096 5.46484375 319.0390625 C5.75101562 319.96783203 6.0371875 320.89660156 6.33203125 321.85351562 C6.60273438 322.74619141 6.8734375 323.63886719 7.15234375 324.55859375 C7.40371094 325.38077393 7.65507812 326.2029541 7.9140625 327.05004883 C8.46484375 329.2265625 8.46484375 329.2265625 8.46484375 332.2265625 C-8.4363713 332.54181832 -22.4155016 330.17773427 -38.53515625 325.2265625 C-38.78910156 324.05480469 -39.04304688 322.88304687 -39.3046875 321.67578125 C-39.65164909 320.08838967 -39.9993567 318.50116104 -40.34765625 316.9140625 C-40.52925293 316.08608154 -40.71084961 315.25810059 -40.89794922 314.4050293 C-41.86083472 310.07119768 -42.89814291 305.79754854 -44.16015625 301.5390625 C-48.2314286 286.82495318 -48.09274123 271.37837785 -48.53515625 256.2265625 C-51.18797593 276.5253702 -51.59281011 296.1221695 -47.81054688 316.30151367 C-47.53515625 318.2265625 -47.53515625 318.2265625 -47.53515625 322.2265625 C-55.55861994 319.80086418 -55.55861994 319.80086418 -58.53515625 317.2265625 C-59.4940404 314.81590984 -60.14762442 312.4070235 -60.79296875 309.89453125 C-61.48713166 307.39919826 -62.36034404 305.24646911 -63.47265625 302.9140625 C-67.97770775 293.03035636 -70.1123302 282.81102993 -72.02636719 272.18774414 C-73.28425175 265.27249261 -74.91451771 258.53831541 -76.80078125 251.76953125 C-77.63108782 247.76374371 -77.66080508 244.30566203 -77.53515625 240.2265625 C-78.19515625 240.2265625 -78.85515625 240.2265625 -79.53515625 240.2265625 C-80.69175946 247.35942965 -80.72123127 254.40946683 -80.72045898 261.62182617 C-80.72263381 263.89065654 -80.74079578 266.15899047 -80.75976562 268.42773438 C-80.78830352 276.03870662 -80.49401142 283.2506191 -78.97827148 290.74633789 C-78.34511692 294.29025923 -78.39708911 297.63681697 -78.53515625 301.2265625 C-82.50864845 299.6539157 -85.04118535 296.89451961 -87.84765625 293.7890625 C-88.33186035 293.25482666 -88.81606445 292.72059082 -89.31494141 292.17016602 C-93.6997937 287.2224231 -97.32897195 282.01620765 -100.53515625 276.2265625 C-100.99535156 275.4015625 -101.45554687 274.5765625 -101.9296875 273.7265625 C-109.27455445 259.16996819 -110.42531598 242.00136893 -112.2097168 226.05224609 C-112.45559956 223.91732703 -112.74820885 221.78771839 -113.06298828 219.66186523 C-113.76071054 214.07664751 -113.69756019 208.48416431 -113.703125 202.86328125 C-113.7064534 201.67668411 -113.7097818 200.49008698 -113.71321106 199.26753235 C-113.71826033 196.75868108 -113.72062 194.24982314 -113.72045898 191.7409668 C-113.72262725 187.96456316 -113.74075425 184.18846072 -113.75976562 180.41210938 C-113.79719662 164.28081105 -113.53471009 148.31313364 -109.95703125 132.51171875 C-109.47589312 129.90555385 -109.35228588 127.3731675 -109.22265625 124.7265625 C-108.72280126 117.86013343 -106.85063891 111.56524438 -104.91015625 104.99609375 C-103.98640786 101.86368862 -103.15531446 98.7303447 -102.41015625 95.55078125 C-96.37199078 70.03800465 -83.56163593 46.25959689 -65.53515625 27.2265625 C-64.46974609 26.081875 -64.46974609 26.081875 -63.3828125 24.9140625 C-50.24481739 11.22964083 -36.58749223 2.6980067 -17.53515625 1.2265625 C-16.52074463 1.14414307 -16.52074463 1.14414307 -15.48583984 1.06005859 C-10.32788185 0.64639695 -5.15158896 0.46038854 0 0 Z " fill="#A39B96" transform="translate(362.53515625,231.7734375)"/>
<path d="M0 0 C3.35652237 0.65436789 5.81717928 1.95239954 8.75 3.6875 C23.21706815 11.69503178 39.83949061 16.15134759 55.78125 20.2421875 C75.18273735 25.25086796 89.31208817 34.12303725 103 49 C107.68877103 58.37754206 102.15827738 73.32793249 100 83 C98.36804688 82.89558594 98.36804688 82.89558594 96.703125 82.7890625 C82.39273263 82.14690856 73.47406162 86.18226268 62.52734375 95.58984375 C56.74764303 101.10155216 52.39343994 107.34886592 48.125 114.0625 C42.40549536 122.78754825 34.9833104 128.8429144 26 134 C31.41064776 138.26807228 36.59377978 140.67637345 43.125 142.8125 C44.04627686 143.11873291 44.96755371 143.42496582 45.91674805 143.74047852 C53.13020036 146.00695041 59.4279062 146.88504992 67 146 C66.4946875 145.66226563 65.989375 145.32453125 65.46875 144.9765625 C64.49421875 144.30753906 64.49421875 144.30753906 63.5 143.625 C62.52546875 142.96371094 62.52546875 142.96371094 61.53125 142.2890625 C60.77328125 141.65097656 60.77328125 141.65097656 60 141 C60 140.34 60 139.68 60 139 C60.51796143 138.79431396 61.03592285 138.58862793 61.56958008 138.37670898 C70.80789174 134.67871873 79.52194668 131.04795696 87.75390625 125.41015625 C90.7789524 123.51095336 93.51658758 122.69668248 97 122 C97.42684419 143.53191814 96.93212713 162.6327776 81.375 179.0625 C68.0528169 192 68.0528169 192 62 192 C62 192.66 62 193.32 62 194 C61.39414062 194.23074219 60.78828125 194.46148438 60.1640625 194.69921875 C55.80974187 196.39405432 51.61578656 198.1593588 47.5 200.375 C34.10648851 207.14488724 19.80654412 210.26153452 5 212 C4.2476709 212.0920874 3.4953418 212.1841748 2.72021484 212.27905273 C-22.39178226 215.09984536 -46.35409737 212.25721859 -70.96514893 207.39642334 C-73.02235924 206.99564404 -75.08246809 206.61444397 -77.14404297 206.23681641 C-78.46978122 205.98759529 -79.79546711 205.73809536 -81.12109375 205.48828125 C-82.27923584 205.27341064 -83.43737793 205.05854004 -84.63061523 204.8371582 C-94.02050489 202.50414381 -94.02050489 202.50414381 -96.3737793 198.89038086 C-96.60492432 198.08995361 -96.83606934 197.28952637 -97.07421875 196.46484375 C-97.48704102 195.12583008 -97.48704102 195.12583008 -97.90820312 193.75976562 C-98.16537109 192.82841797 -98.42253906 191.89707031 -98.6875 190.9375 C-99.22996973 189.11235605 -99.77553852 187.28813031 -100.32421875 185.46484375 C-100.59234375 184.55629639 -100.86046875 183.64774902 -101.13671875 182.71166992 C-102.25876871 179.18717646 -103.65381452 175.80486388 -105.06079102 172.38647461 C-106.48770404 168.76077281 -107.56915668 165.06004916 -108.625 161.3125 C-108.82867187 160.60544922 -109.03234375 159.89839844 -109.2421875 159.16992188 C-109.64367329 157.7737293 -110.04250327 156.37676987 -110.43847656 154.97900391 C-110.9591494 153.14397172 -111.49082913 151.31207233 -112.0234375 149.48046875 C-112.34570312 148.33191406 -112.66796875 147.18335938 -113 146 C-113.36867188 144.845 -113.73734375 143.69 -114.1171875 142.5 C-115.68590217 136.13918434 -115.20778964 129.50217093 -115.125 123 C-115.11494978 121.63932951 -115.10582754 120.27865183 -115.09765625 118.91796875 C-115.0742082 115.61179353 -115.04138856 112.3059912 -115 109 C-113.06407835 111.41421406 -111.13230398 113.82791643 -109.24609375 116.28125 C-104.22250393 122.44409885 -99.39940807 125.28302985 -92 128 C-91.030625 128.38414062 -90.06125 128.76828125 -89.0625 129.1640625 C-72.96220735 135.28059525 -55.91890528 139.82203031 -39 143 C-39 143.66 -39 144.32 -39 145 C-40.96875 146.7265625 -40.96875 146.7265625 -43.5 148.625 C-44.3353125 149.25664062 -45.170625 149.88828125 -46.03125 150.5390625 C-47.00578125 151.26222656 -47.00578125 151.26222656 -48 152 C-47.67 152.33 -47.34 152.66 -47 153 C-38.36016049 151.49924866 -30.80176335 148.38518964 -23.01171875 144.515625 C-16.39815144 141.31576728 -10.18894146 139.06381146 -2.97265625 137.640625 C0.06465364 137.04481287 0.06465364 137.04481287 3.16796875 135.9296875 C6.26107853 134.91429422 8.76609937 134.84600473 12 135 C10.66572794 132.33145588 9.31716305 132.05666999 6.625 130.8125 C-5.24045715 125.01499031 -15.72191835 117.74926349 -23.8125 107.1875 C-36.10107913 91.30346485 -52.9267091 80.23899742 -71 72 C-72.16813232 71.46173584 -72.16813232 71.46173584 -73.35986328 70.91259766 C-76.31984249 69.88944228 -78.61301867 69.77126223 -81.73828125 69.8046875 C-82.80498047 69.81113281 -83.87167969 69.81757813 -84.97070312 69.82421875 C-86.07349609 69.84097656 -87.17628906 69.85773438 -88.3125 69.875 C-89.43462891 69.88402344 -90.55675781 69.89304687 -91.71289062 69.90234375 C-94.47547909 69.92585514 -97.23762932 69.95871845 -100 70 C-90.70668562 56.87942577 -79.39646346 49.52748155 -64.390625 44.296875 C-57.25959396 41.56933778 -50.35460612 38.27710455 -43.41723633 35.0949707 C-41.04077723 34.01847146 -38.6488516 32.98378105 -36.25390625 31.94921875 C-22.1502509 25.68608233 -7.34701499 13.82967527 0 0 Z " fill="#D1BAB2" transform="translate(482,358)"/>
<path d="M0 0 C0.71760498 -0.00833359 1.43520996 -0.01666718 2.17456055 -0.0252533 C4.50851635 -0.04471024 6.8417571 -0.04469225 9.17578125 -0.0390625 C9.97529205 -0.03885101 10.77480286 -0.03863953 11.59854126 -0.03842163 C37.0083385 0.02848047 61.19787609 3.87263608 84.48828125 14.3359375 C85.22820312 14.65175781 85.968125 14.96757812 86.73046875 15.29296875 C89.0016585 16.27049548 91.24542513 17.29499471 93.48828125 18.3359375 C95.02548828 19.03783203 95.02548828 19.03783203 96.59375 19.75390625 C110.53574862 26.38620164 122.77342241 35.3340076 134.48828125 45.3359375 C135.14183594 45.86703125 135.79539062 46.398125 136.46875 46.9453125 C140.25596486 50.05534324 143.4674668 53.43014873 146.625 57.17578125 C147.87456277 58.62443578 149.17064368 60.03413813 150.5078125 61.40234375 C160.70651992 71.96857216 170.29024917 86.42687029 175.48828125 100.2109375 C176.38004119 102.55976949 177.27211804 104.88404274 178.35668945 107.15136719 C181.66795139 114.13630157 183.65732442 121.39074776 185.67578125 128.8359375 C186.03091797 130.10308594 186.38605469 131.37023437 186.75195312 132.67578125 C188.55527219 139.25259197 189.99264943 145.53024685 190.48828125 152.3359375 C191.14828125 152.3359375 191.80828125 152.3359375 192.48828125 152.3359375 C197.71584878 168.04197744 196.89080472 184.00122533 196.48828125 200.3359375 C192.86014609 198.6487195 190.81914574 196.7439987 188.17578125 193.7109375 C187.38042969 192.81117188 186.58507812 191.91140625 185.765625 190.984375 C184.42409707 189.42424474 183.09699335 187.85113997 181.8046875 186.25 C167.28899542 168.51262065 146.1467824 160.0452942 124.52148438 154.82714844 C86.87570281 145.73213012 86.87570281 145.73213012 74.48828125 131.3359375 C74.48828125 130.6759375 74.48828125 130.0159375 74.48828125 129.3359375 C73.72257812 129.31273437 72.956875 129.28953125 72.16796875 129.265625 C69.48828125 128.3359375 69.48828125 128.3359375 67.93359375 125.34375 C67.47783703 124.0549077 67.03867383 122.76011794 66.61328125 121.4609375 C61.07162471 106.26989846 50.4501354 94.16073312 40.39453125 81.7109375 C39.15013354 80.16054036 37.92018187 78.59840497 36.70703125 77.0234375 C31.52040937 70.34236525 25.81873005 64.22327151 20.01171875 58.0859375 C17.81443536 55.76149926 15.64957925 53.41656586 13.52734375 51.0234375 C7.65932907 44.41245226 1.53377119 38.67952987 -5.51171875 33.3359375 C-6.08438477 32.89894531 -6.65705078 32.46195313 -7.24707031 32.01171875 C-15.70435565 25.58436193 -24.35553169 19.72465468 -33.51171875 14.3359375 C-31.41956784 12.07709423 -29.42756132 10.583135 -26.7109375 9.14453125 C-25.98068359 8.75716797 -25.25042969 8.36980469 -24.49804688 7.97070312 C-23.73943359 7.57560547 -22.98082031 7.18050781 -22.19921875 6.7734375 C-21.07870117 6.17499023 -21.07870117 6.17499023 -19.93554688 5.56445312 C-13.23403532 2.04012879 -7.68968764 0.08830536 0 0 Z " fill="#CCC2BC" transform="translate(410.51171875,207.6640625)"/>
<path d="M0 0 C11.82328816 5.84306352 20.84050582 15.42011912 28.765625 25.703125 C32.10657291 29.8301783 34.18752083 32.39583565 39.625 33 C39.955 31.35 40.285 29.7 40.625 28 C41.615 27.67 42.605 27.34 43.625 27 C44.16032823 28.55759343 44.67765378 30.12138045 45.1875 31.6875 C45.47753906 32.55761719 45.76757812 33.42773438 46.06640625 34.32421875 C47.01496049 38.86799254 46.10473525 41.20371812 43.71875 45.1640625 C32.63893993 60.47462624 16.98771675 67.82406199 -0.05419922 75.01245117 C-2.41622755 76.01754318 -4.75953166 77.05861414 -7.1015625 78.109375 C-10.45124102 79.60620319 -13.8308725 80.98068688 -17.25 82.3125 C-27.78155679 86.70955861 -36.26229631 93.03652665 -44.375 101 C-45.06335938 101.66386719 -45.75171875 102.32773437 -46.4609375 103.01171875 C-52.42457115 109.1992833 -56.46667278 116.40342225 -60.34960938 124.00488281 C-61.25611279 125.76867946 -62.21056629 127.50765222 -63.171875 129.2421875 C-70.32895233 144.01694615 -72.95438041 169.95041394 -69.203125 185.84375 C-68.95272461 186.91842529 -68.70232422 187.99310059 -68.44433594 189.1003418 C-68.17395508 190.222229 -67.90357422 191.34411621 -67.625 192.5 C-67.35204102 193.65604736 -67.07908203 194.81209473 -66.79785156 196.00317383 C-64.50706772 205.63242568 -62.10387952 215.22286387 -59.265625 224.70703125 C-58.375 228 -58.375 228 -58.375 231 C-57.715 231 -57.055 231 -56.375 231 C-55.53320605 233.72681111 -54.70136931 236.45601443 -53.875 239.1875 C-53.51728516 240.34088867 -53.51728516 240.34088867 -53.15234375 241.51757812 C-52.92675781 242.26845703 -52.70117188 243.01933594 -52.46875 243.79296875 C-52.25927734 244.4789917 -52.04980469 245.16501465 -51.83398438 245.87182617 C-51.375 248 -51.375 248 -51.375 253 C-54.675 253 -57.975 253 -61.375 253 C-64.65775049 246.78483207 -67.36564488 240.72989754 -69.375 234 C-69.78226754 232.69261966 -70.1898482 231.38533684 -70.59765625 230.078125 C-72.89455779 222.60792301 -74.85798667 215.30325092 -75.98046875 207.55078125 C-76.32193375 205.34309168 -76.78207337 203.27492481 -77.375 201.125 C-78.71065104 196.16100559 -79.25085277 191.06573151 -79.91015625 185.9765625 C-80.2079544 183.08088301 -80.2079544 183.08088301 -81.375 181 C-84.53377009 159.07913833 -84.38069596 133.49216169 -79.92285156 111.81445312 C-79.23463376 108.27890282 -78.66114676 104.7270946 -78.0859375 101.171875 C-74.05737598 76.54631473 -69.63429489 50.51858978 -58.375 28 C-57.77171875 28.02320313 -57.1684375 28.04640625 -56.546875 28.0703125 C-55.74765625 28.08835937 -54.9484375 28.10640625 -54.125 28.125 C-52.94164062 28.15980469 -52.94164062 28.15980469 -51.734375 28.1953125 C-48.17548463 27.90070237 -46.1724927 26.82537706 -43.69921875 24.265625 C-43.15910156 23.60046875 -42.61898437 22.9353125 -42.0625 22.25 C-34.01150727 12.78534259 -34.01150727 12.78534259 -28.4375 11.125 C-27.756875 11.08375 -27.07625 11.0425 -26.375 11 C-26.33375 10.42765625 -26.2925 9.8553125 -26.25 9.265625 C-22.49202712 -0.46484049 -8.64273287 -2.56080974 0 0 Z " fill="#CDC3BD" transform="translate(421.375,310)"/>
<path d="M0 0 C3.35652237 0.65436789 5.81717928 1.95239954 8.75 3.6875 C23.21706815 11.69503178 39.83949061 16.15134759 55.78125 20.2421875 C75.18273735 25.25086796 89.31208817 34.12303725 103 49 C107.68877103 58.37754206 102.15827738 73.32793249 100 83 C98.92363281 82.93039062 97.84726562 82.86078125 96.73828125 82.7890625 C88.91347762 82.44713226 83.08988611 82.43172207 76 86.25 C70.66836285 89.10599587 70.66836285 89.10599587 67.33984375 88.578125 C65.04937432 87.55020701 63.07895774 86.40020152 61 85 C59.67459597 84.31770506 58.34335047 83.64624433 57 83 C57 82.34 57 81.68 57 81 C56.29746094 80.92136719 55.59492187 80.84273438 54.87109375 80.76171875 C40.79904021 77.02831679 25.17753475 57.93789285 18 46 C17.67 45.34 17.34 44.68 17 44 C17.79177751 54.68899632 22.3011813 63.07185071 28 72 C25.41463444 70.98180703 22.85236821 69.9350763 20.30859375 68.81640625 C0.46734742 60.15104561 -21.67728994 57.57416878 -42.25390625 65.20703125 C-46.46051099 66.91548054 -50.58176797 68.7468294 -54.625 70.8125 C-57 72 -57 72 -59 72 C-59.495 73.98 -59.495 73.98 -60 76 C-62.76491758 75.12686813 -65.47176864 74.24886878 -68.09765625 73.01171875 C-75.05181071 69.81907689 -81.05224265 69.51076344 -88.625 69.75 C-90.27435547 69.77707031 -90.27435547 69.77707031 -91.95703125 69.8046875 C-94.63896703 69.85132986 -97.31899343 69.91675881 -100 70 C-90.70668562 56.87942577 -79.39646346 49.52748155 -64.390625 44.296875 C-57.25959396 41.56933778 -50.35460612 38.27710455 -43.41723633 35.0949707 C-41.04077723 34.01847146 -38.6488516 32.98378105 -36.25390625 31.94921875 C-22.1502509 25.68608233 -7.34701499 13.82967527 0 0 Z " fill="#B29E97" transform="translate(482,358)"/>
<path d="M0 0 C0.72184982 -0.00974854 1.44369965 -0.01949707 2.18742371 -0.02954102 C30.99834967 -0.33697848 58.20519031 2.29888727 84.78125 14.23828125 C85.52117187 14.55410156 86.26109375 14.86992187 87.0234375 15.1953125 C89.29462725 16.17283923 91.53839388 17.19733846 93.78125 18.23828125 C94.80605469 18.70621094 95.83085937 19.17414063 96.88671875 19.65625 C110.82871737 26.28854539 123.06639116 35.23635135 134.78125 45.23828125 C135.43480469 45.769375 136.08835937 46.30046875 136.76171875 46.84765625 C140.54893361 49.95768699 143.76043555 53.33249248 146.91796875 57.078125 C148.16753152 58.52677953 149.46361243 59.93648188 150.80078125 61.3046875 C160.99948867 71.87091591 170.58321792 86.32921404 175.78125 100.11328125 C176.67300994 102.46211324 177.56508679 104.78638649 178.6496582 107.05371094 C181.96092014 114.03864532 183.95029317 121.29309151 185.96875 128.73828125 C186.32388672 130.00542969 186.67902344 131.27257812 187.04492188 132.578125 C188.84824094 139.15493572 190.28561818 145.4325906 190.78125 152.23828125 C191.44125 152.23828125 192.10125 152.23828125 192.78125 152.23828125 C197.54307968 167.11899901 197.20889241 181.73953328 196.78125 197.23828125 C194.13306273 194.86795413 192.66047302 192.41517907 191.0390625 189.265625 C190.27529297 187.79125977 190.27529297 187.79125977 189.49609375 186.28710938 C188.97144531 185.26037109 188.44679688 184.23363281 187.90625 183.17578125 C187.38933594 182.17611328 186.87242187 181.17644531 186.33984375 180.14648438 C184.81042318 177.18202814 183.29384028 174.21135511 181.78125 171.23828125 C181.31114502 170.32071045 180.84104004 169.40313965 180.35668945 168.45776367 C178.22504468 164.2598524 176.22330707 160.14746483 174.71875 155.67578125 C173.2949777 151.60867074 171.69594385 147.71208768 169.90234375 143.796875 C168.7705761 141.21392095 167.7386757 138.60044482 166.71679688 135.97241211 C163.90085122 128.73863005 160.69397066 121.85031108 157.1015625 114.96875 C155.78125 112.23828125 155.78125 112.23828125 155.78125 110.23828125 C155.12125 110.23828125 154.46125 110.23828125 153.78125 110.23828125 C153.78125 109.24828125 153.78125 108.25828125 153.78125 107.23828125 C153.10578125 107.72296875 152.4303125 108.20765625 151.734375 108.70703125 C146.15556211 111.59974905 139.8945954 110.949283 133.78125 110.23828125 C130.42829219 108.9726825 127.63185341 107.40134075 124.78125 105.23828125 C124.78125 104.57828125 124.78125 103.91828125 124.78125 103.23828125 C124.1625 102.99078125 123.54375 102.74328125 122.90625 102.48828125 C120.43056313 101.03199486 119.82999998 99.86015619 118.78125 97.23828125 C118.12125 97.23828125 117.46125 97.23828125 116.78125 97.23828125 C115.63295023 94.96866525 114.48753022 92.69767347 113.34375 90.42578125 C113.01826172 89.78318359 112.69277344 89.14058594 112.35742188 88.47851562 C108.56137032 80.92554706 108.56137032 80.92554706 109.10546875 76.10546875 C110.1063825 66.59858962 110.1063825 66.59858962 106.46484375 58.1953125 C103.34153952 55.87776492 100.23362722 54.0251088 96.78125 52.23828125 C94.85944408 51.1010886 92.94220498 49.95611506 91.03125 48.80078125 C90.21140625 48.34832031 89.3915625 47.89585937 88.546875 47.4296875 C87.96421875 47.03652344 87.3815625 46.64335937 86.78125 46.23828125 C86.78125 45.57828125 86.78125 44.91828125 86.78125 44.23828125 C86.10707031 44.15835938 85.43289063 44.0784375 84.73828125 43.99609375 C80.91429785 43.01610329 77.82566199 41.11773873 74.46875 39.11328125 C66.49963255 34.48993407 58.31588061 30.69062889 49.78125 27.23828125 C49.12777588 26.95799072 48.47430176 26.6777002 47.80102539 26.38891602 C43.15969744 24.48617954 39.30250186 23.85686699 34.21875 23.92578125 C32.97996094 23.92964844 31.74117188 23.93351562 30.46484375 23.9375 C26.58740061 24.25410989 23.46670856 25.04774058 19.78125 26.23828125 C21.10125 27.22828125 22.42125 28.21828125 23.78125 29.23828125 C21.19371844 30.53204703 19.23166015 30.40660522 16.34375 30.42578125 C15.37566406 30.43996094 14.40757812 30.45414063 13.41015625 30.46875 C10.78125 30.23828125 10.78125 30.23828125 7.78125 28.23828125 C7.26953125 26.07421875 7.26953125 26.07421875 7.09375 23.61328125 C7.02800781 22.79601562 6.96226562 21.97875 6.89453125 21.13671875 C6.83845703 20.19699219 6.83845703 20.19699219 6.78125 19.23828125 C-5.2088735 15.27840944 -16.64908781 14.44895613 -29.21875 14.23828125 C-26.82330639 8.88596193 -23.28363079 7.33146453 -18.21875 4.98828125 C-17.49429687 4.63765625 -16.76984375 4.28703125 -16.0234375 3.92578125 C-10.54283519 1.29671003 -6.11996086 0.06753506 0 0 Z " fill="#E4DFDC" transform="translate(410.21875,207.76171875)"/>
<path d="M0 0 C5.79545047 3.67867246 11.5370374 9.52018853 14 16 C14.16885466 18.91345831 14.23644482 21.71576756 14.1875 24.625 C14.17348145 25.83397949 14.17348145 25.83397949 14.15917969 27.06738281 C14.12287124 29.37902094 14.06667188 31.68905813 14 34 C13.97035156 35.05445313 13.94070313 36.10890625 13.91015625 37.1953125 C13.54465552 43.02549488 12.21787464 46.78212536 8 51 C6.05989259 51.34760888 4.10931875 51.6370681 2.15625 51.90234375 C0.92777344 52.07056641 -0.30070313 52.23878906 -1.56640625 52.41210938 C-3.51353516 52.67217773 -3.51353516 52.67217773 -5.5 52.9375 C-7.35431641 53.19176758 -7.35431641 53.19176758 -9.24609375 53.45117188 C-11.83022808 53.80185677 -14.41425896 54.14468077 -17.00073242 54.47680664 C-19.60879578 54.81170987 -22.20443267 55.17978798 -24.8059082 55.56811523 C-37.04062182 57.3171477 -49.24489608 57.27062849 -61.5847168 57.20581055 C-65.19131532 57.18748061 -68.79765641 57.18530214 -72.40429688 57.18554688 C-86.4986397 57.16435009 -100.39850963 56.91530524 -114.375 54.9375 C-115.64085937 54.76089844 -116.90671875 54.58429687 -118.2109375 54.40234375 C-119.13132812 54.26957031 -120.05171875 54.13679687 -121 54 C-121.1864066 39.31530199 -120.60971292 24.67040637 -120 10 C-118.97261719 9.74605469 -117.94523437 9.49210938 -116.88671875 9.23046875 C-115.48693755 8.8829801 -114.0872011 8.53531116 -112.6875 8.1875 C-111.59187744 7.91619263 -111.59187744 7.91619263 -110.47412109 7.6394043 C-106.33233531 6.60691822 -102.22450155 5.5040098 -98.125 4.3125 C-78.93372833 -0.89575072 -57.69542569 1.26801504 -39.1875 7.9375 C-38.51114502 8.17807129 -37.83479004 8.41864258 -37.13793945 8.66650391 C-33.2851873 10.15276975 -30.92632181 11.31142796 -29 15 C-26.0956752 21.58233919 -25.58646204 27.55826725 -25.75 34.6875 C-25.75515625 35.59822266 -25.7603125 36.50894531 -25.765625 37.44726562 C-25.81928017 42.0649635 -26.06628742 46.45944609 -27 51 C-20.31453313 42.73247609 -20.62460376 32.14432575 -20 22 C-20.66 22 -21.32 22 -22 22 C-22.29003906 21.18595703 -22.29003906 21.18595703 -22.5859375 20.35546875 C-22.84632813 19.64003906 -23.10671875 18.92460938 -23.375 18.1875 C-23.63023437 17.47980469 -23.88546875 16.77210938 -24.1484375 16.04296875 C-25.0265769 13.75226641 -25.0265769 13.75226641 -27 11 C-19.55583493 4.73493436 -10.40680966 -2.76776853 0 0 Z " fill="#A49D99" transform="translate(516,588)"/>
<path d="M0 0 C5.39994451 3.87746872 10.72610011 7.85518993 16.06323242 11.81835938 C38.11991041 29.38039337 38.11991041 29.38039337 64.8125 34.4375 C64.8125 35.0975 64.8125 35.7575 64.8125 36.4375 C64.12027344 36.60765625 63.42804688 36.7778125 62.71484375 36.953125 C60.62118832 37.47171159 58.52885881 37.99566535 56.4375 38.5234375 C53.98163768 39.14269589 51.52318876 39.75176962 49.0625 40.3515625 C41.18588808 42.33685608 34.0816473 44.83163546 26.8125 48.4375 C9.78228215 56.76076072 9.78228215 56.76076072 2.8125 54.4375 C4.26537661 53.09822279 5.72497259 51.76623153 7.1875 50.4375 C7.99960937 49.695 8.81171875 48.9525 9.6484375 48.1875 C11.8125 46.4375 11.8125 46.4375 13.8125 46.4375 C13.8125 45.7775 13.8125 45.1175 13.8125 44.4375 C13.21606689 44.39794189 12.61963379 44.35838379 12.00512695 44.31762695 C5.41606379 43.78265306 -0.65592208 42.44493536 -7 40.625 C-8.45273315 40.21580322 -8.45273315 40.21580322 -9.93481445 39.79833984 C-11.84350146 39.25802182 -13.75102882 38.71358616 -15.65722656 38.16455078 C-17.71291069 37.57386887 -19.77371729 37.0010355 -21.8359375 36.43359375 C-38.28879621 31.71767152 -51.45610344 27.03459484 -61.1875 12.4375 C-61.5175 17.3875 -61.8475 22.3375 -62.1875 27.4375 C-62.5175 27.4375 -62.8475 27.4375 -63.1875 27.4375 C-63.91968929 6.67179826 -63.91968929 6.67179826 -59.1875 -3.5625 C-58.98125 -4.696875 -58.775 -5.83125 -58.5625 -7 C-56.55108802 -10.74854051 -53.687875 -11.40427175 -49.79296875 -12.80078125 C-31.06012473 -18.27739982 -15.11409637 -10.69954842 0 0 Z " fill="#8B7C77" transform="translate(429.1875,456.5625)"/>
<path d="M0 0 C1.94853989 2.43334167 3.89550239 4.86730818 5.82421875 7.31640625 C10.3111158 12.72513959 14.3112426 15.78589743 21 18 C20.94199219 19.0415625 20.88398438 20.083125 20.82421875 21.15625 C20.08999579 40.17665384 26.87158682 59.44724382 39.234375 74.12109375 C56.50857638 92.50359566 78.7606454 99.18923672 103 102 C105.33425152 102.32684157 107.66786984 102.65835036 110 103 C110 103.33 110 103.66 110 104 C87.35454042 104.91123909 66.24094753 102.78222896 44.03485107 98.39642334 C41.97764076 97.99564404 39.91753191 97.61444397 37.85595703 97.23681641 C36.53021878 96.98759529 35.20453289 96.73809536 33.87890625 96.48828125 C32.72076416 96.27341064 31.56262207 96.05854004 30.36938477 95.8371582 C20.97949511 93.50414381 20.97949511 93.50414381 18.6262207 89.89038086 C18.39507568 89.08995361 18.16393066 88.28952637 17.92578125 87.46484375 C17.65056641 86.57216797 17.37535156 85.67949219 17.09179688 84.75976562 C16.83462891 83.82841797 16.57746094 82.89707031 16.3125 81.9375 C15.77003027 80.11235605 15.22446148 78.28813031 14.67578125 76.46484375 C14.40765625 75.55629639 14.13953125 74.64774902 13.86328125 73.71166992 C12.74123129 70.18717646 11.34618548 66.80486388 9.93920898 63.38647461 C8.51229596 59.76077281 7.43084332 56.06004916 6.375 52.3125 C6.17132813 51.60544922 5.96765625 50.89839844 5.7578125 50.16992188 C5.35632671 48.7737293 4.95749673 47.37676987 4.56152344 45.97900391 C4.0408506 44.14397172 3.50917087 42.31207233 2.9765625 40.48046875 C2.49316406 38.75763672 2.49316406 38.75763672 2 37 C1.63132812 35.845 1.26265625 34.69 0.8828125 33.5 C-0.68590217 27.13918434 -0.20778964 20.50217093 -0.125 14 C-0.11494978 12.63932951 -0.10582754 11.27865183 -0.09765625 9.91796875 C-0.0742082 6.61179353 -0.04138856 3.3059912 0 0 Z " fill="#B19D96" transform="translate(367,467)"/>
<path d="M0 0 C5.79545047 3.67867246 11.5370374 9.52018853 14 16 C14.16885466 18.91345831 14.23644482 21.71576756 14.1875 24.625 C14.1781543 25.43098633 14.16880859 26.23697266 14.15917969 27.06738281 C14.12287124 29.37902094 14.06667188 31.68905813 14 34 C13.95552734 35.58167969 13.95552734 35.58167969 13.91015625 37.1953125 C13.54465552 43.02549488 12.21787464 46.78212536 8 51 C4.029516 51.72495206 0.02760475 52.23913344 -3.97119141 52.78442383 C-5.96492013 53.05769182 -7.95709463 53.34222322 -9.94921875 53.62695312 C-16.69919731 54.55857302 -23.18641341 55.23160218 -30 55 C-29.67 53.35 -29.34 51.7 -29 50 C-28.34 50.33 -27.68 50.66 -27 51 C-20.31453313 42.73247609 -20.62460376 32.14432575 -20 22 C-20.66 22 -21.32 22 -22 22 C-22.29003906 21.18595703 -22.29003906 21.18595703 -22.5859375 20.35546875 C-22.84632813 19.64003906 -23.10671875 18.92460938 -23.375 18.1875 C-23.75785156 17.12595703 -23.75785156 17.12595703 -24.1484375 16.04296875 C-25.0265769 13.75226641 -25.0265769 13.75226641 -27 11 C-19.55583493 4.73493436 -10.40680966 -2.76776853 0 0 Z " fill="#A49D99" transform="translate(516,588)"/>
<path d="M0 0 C1.63001953 0.01353516 1.63001953 0.01353516 3.29296875 0.02734375 C4.12441406 0.03894531 4.95585938 0.05054688 5.8125 0.0625 C5.69340607 5.86095735 5.56911004 11.65927241 5.44018555 17.45751953 C5.39712081 19.42623945 5.35542841 21.39498991 5.31518555 23.36376953 C5.25678626 26.20875216 5.19330028 29.05358497 5.12890625 31.8984375 C5.11219376 32.76552338 5.09548126 33.63260925 5.07826233 34.52597046 C4.93856326 40.41026037 4.47593501 46.21450101 3.8125 52.0625 C3.4825 52.0625 3.1525 52.0625 2.8125 52.0625 C2.70210666 43.66034035 2.85791351 35.41513176 3.8125 27.0625 C-5.97221842 31.80441478 -5.97221842 31.80441478 -15.375 37.25 C-20.47822797 40.40672311 -27.04778582 44.0625 -33.1875 44.0625 C-33.1875 44.7225 -33.1875 45.3825 -33.1875 46.0625 C-32.61 46.31 -32.0325 46.5575 -31.4375 46.8125 C-28.88640938 48.22977257 -27.20776893 49.97432287 -25.1875 52.0625 C-34.29276125 53.02658649 -41.59455768 51.70480985 -50.1875 48.8125 C-51.53074341 48.3628186 -51.53074341 48.3628186 -52.90112305 47.90405273 C-57.84830805 46.15336735 -61.97350124 44.19527539 -66.1875 41.0625 C-63.48929335 39.62547758 -60.94359606 38.67389948 -58 37.875 C-46.9411179 34.21872465 -38.19187821 23.78832458 -29.9140625 15.89453125 C-21.70182172 8.24707283 -11.55901771 -0.12429051 0 0 Z " fill="#8D7E79" transform="translate(575.1875,452.9375)"/>
<path d="M0 0 C6.25129311 0.66503118 11.94511446 2.30466034 17.74829102 4.73095703 C22.10880545 6.50196017 26.07762635 7.38036618 30.74951172 7.87280273 C40.6858194 8.95621057 40.6858194 8.95621057 44.58203125 12.05078125 C46.26812423 14.29523182 47.60870452 16.56734093 49 19 C49.70898438 19.66644531 50.41796875 20.33289063 51.1484375 21.01953125 C53 23 53 23 53.390625 25.140625 C53.26041667 27.09375 53.13020833 29.046875 53 31 C48.94604804 30.42398884 46.19679623 29.12012695 42.75 26.9375 C40.06817786 24.94688374 40.06817786 24.94688374 37 24 C38.07972738 25.4194169 39.16395863 26.8354083 40.25 28.25 C40.85328125 29.03890625 41.4565625 29.8278125 42.078125 30.640625 C43.93182995 32.91631157 45.88898954 34.96371558 48 37 C46.55280514 40.73858672 46.55280514 40.73858672 44.19921875 41.8515625 C42 42 42 42 39.81640625 40.55859375 C39.07261719 39.85863281 38.32882812 39.15867187 37.5625 38.4375 C36.39074219 37.33728516 36.39074219 37.33728516 35.1953125 36.21484375 C32.59740315 33.59382133 30.25970353 30.91574649 28 28 C29.00056574 31.23259699 30.08502036 34.1667707 31.625 37.1875 C33 40 33 40 33 43 C19.12217858 40.64051665 8.38319647 33.05057717 0 22 C-3.07947079 15.96936969 -2.76947173 8.78933504 -1 2.375 C-0.67 1.59125 -0.34 0.8075 0 0 Z " fill="#AF9B95" transform="translate(332,652)"/>
<path d="M0 0 C4.52520176 2.66702712 8.05503974 6.07920383 10 11 C10.22705078 14.20800781 10.22705078 14.20800781 10.1953125 17.953125 C10.1924826 18.61334656 10.18965271 19.27356812 10.18673706 19.95379639 C10.17558415 22.05271897 10.15048946 24.15120742 10.125 26.25 C10.11496384 27.67707715 10.1058391 29.10416102 10.09765625 30.53125 C10.07566111 34.02097328 10.04116536 37.51044423 10 41 C8.27478202 41.01875031 6.54950363 41.03198149 4.82421875 41.04296875 C3.86346436 41.05094482 2.90270996 41.0589209 1.9128418 41.06713867 C-9.44659887 40.80531266 -20.3333926 36.5555358 -31 33 C-30.43007081 27.77293512 -28.72274472 23.74773781 -26.375 19.125 C-26.01889648 18.41899658 -25.66279297 17.71299316 -25.29589844 16.9855957 C-19.75013791 6.33079713 -13.03672057 -2.55339906 0 0 Z " fill="#A19A96" transform="translate(374,586)"/>
<path d="M0 0 C-2.67478244 1.6627026 -4.9995144 2.99983813 -8 4 C-9.18391223 6.37625345 -9.18391223 6.37625345 -10 9 C-10.33 9.99 -10.66 10.98 -11 12 C-15.455 12.495 -15.455 12.495 -20 13 C-20 15.97 -20 18.94 -20 22 C-18.39125 22.185625 -18.39125 22.185625 -16.75 22.375 C-14.08306813 23.12858195 -13.2290431 23.59116197 -11.85546875 26.04296875 C-11.22176206 27.78229136 -10.60423975 29.52756615 -10 31.27734375 C-7.07696216 39.235771 -1.52237309 46.19340753 6.01638794 50.23797607 C13.42239281 53.0830651 22.39329891 52.08029346 30.1875 52 C32.2090021 52.00810351 34.23049318 52.01979139 36.25195312 52.03515625 C41.16881497 52.06480241 46.08328591 52.04581679 51 52 C51 52.33 51 52.66 51 53 C43.56592553 53.02557714 36.13186262 53.04296122 28.69775391 53.05493164 C26.17431209 53.0599276 23.65087312 53.06672663 21.12744141 53.07543945 C5.5096373 53.12797263 -9.88264999 53.12981368 -25.375 50.9375 C-26.64085937 50.76089844 -27.90671875 50.58429687 -29.2109375 50.40234375 C-30.13132812 50.26957031 -31.05171875 50.13679687 -32 50 C-32.1864066 35.31530199 -31.60971292 20.67040637 -31 6 C-29.45892578 5.61908203 -29.45892578 5.61908203 -27.88671875 5.23046875 C-26.48695776 4.88289868 -25.08721977 4.53523602 -23.6875 4.1875 C-22.96143555 4.00807861 -22.23537109 3.82865723 -21.48730469 3.64379883 C-16.36084417 2.36784705 -11.28705177 0.96358571 -6.234375 -0.58203125 C-3.80110634 -1.03720563 -2.32484228 -0.78383444 0 0 Z " fill="#8A827E" transform="translate(427,592)"/>
<path d="M0 0 C9.47574975 2.53231243 17.72319608 10.70281887 25.171875 16.84765625 C26.08453125 17.52828125 26.9971875 18.20890625 27.9375 18.91015625 C30.171875 20.84765625 30.171875 20.84765625 30.484375 23.59765625 C30.38125 24.34015625 30.278125 25.08265625 30.171875 25.84765625 C31.00074219 25.69683594 31.82960938 25.54601562 32.68359375 25.390625 C38.00901195 26.08835616 40.40694252 29.3572464 43.984375 33.16015625 C44.69215088 33.89129639 45.39992676 34.62243652 46.12915039 35.37573242 C51.47742788 40.95833059 56.42214411 46.74751168 61.171875 52.84765625 C62.60525405 54.60103321 64.04288582 56.35094071 65.484375 58.09765625 C69.21719388 62.66145601 72.92023931 67.24853007 76.609375 71.84765625 C77.12991455 72.49508789 77.6504541 73.14251953 78.18676758 73.80957031 C78.67556396 74.42026367 79.16436035 75.03095703 79.66796875 75.66015625 C80.10294678 76.20285156 80.5379248 76.74554688 80.98608398 77.3046875 C83.48207615 80.5525093 84.171875 81.59886274 84.171875 85.84765625 C81.609375 86.41015625 81.609375 86.41015625 78.171875 85.84765625 C76.08811218 83.67329504 74.40504686 81.38593737 72.6875 78.9140625 C71.33347884 76.73815326 71.33347884 76.73815326 69.171875 75.84765625 C68.49125 74.70296875 68.49125 74.70296875 67.796875 73.53515625 C66.27521589 70.77656358 66.27521589 70.77656358 63.984375 68.66015625 C63.38625 68.06203125 62.788125 67.46390625 62.171875 66.84765625 C62.171875 66.18765625 62.171875 65.52765625 62.171875 64.84765625 C61.511875 64.84765625 60.851875 64.84765625 60.171875 64.84765625 C58.83203125 63.51953125 58.83203125 63.51953125 57.234375 61.59765625 C46.3974544 48.88768765 34.89828225 36.22847625 22.0703125 25.484375 C20.65647135 24.26544611 19.29381351 22.98665956 17.9609375 21.6796875 C12.11897791 16.0362411 6.38089313 12.61549828 -0.921875 9.2578125 C-3.828125 7.84765625 -3.828125 7.84765625 -5.828125 5.84765625 C-5.828125 4.52765625 -5.828125 3.20765625 -5.828125 1.84765625 C-2.828125 -0.15234375 -2.828125 -0.15234375 0 0 Z " fill="#C7BDB7" transform="translate(370.828125,236.15234375)"/>
<path d="M0 0 C-1.53432293 7.79366306 -7.26659478 12.7668003 -13.55664062 17.10302734 C-22.78499922 23.15305804 -32.53052537 27.73167561 -42.67919922 32.01245117 C-45.04122755 33.01754318 -47.38453166 34.05861414 -49.7265625 35.109375 C-53.07624102 36.60620319 -56.4558725 37.98068688 -59.875 39.3125 C-70.40655679 43.70955861 -78.88729631 50.03652665 -87 58 C-87.68835938 58.66386719 -88.37671875 59.32773437 -89.0859375 60.01171875 C-95.04624391 66.19583113 -99.09218665 73.39913684 -102.97460938 80.99609375 C-103.8885545 82.78220366 -104.8402073 84.5489039 -105.796875 86.3125 C-111.91394397 99.15228833 -111.99854126 114.01621635 -113 128 C-113.99 128 -114.98 128 -116 128 C-116.4837577 101.76172659 -113.16913478 75.84321783 -94.1953125 56.14038086 C-92.80967254 54.74740572 -91.40509849 53.37334485 -90 52 C-89.23171875 51.21109375 -88.4634375 50.4221875 -87.671875 49.609375 C-74.70811982 36.99837506 -58.44665592 30.95464551 -41.71826172 24.98876953 C-38.05822211 23.65742766 -34.45688953 22.21542847 -30.875 20.6875 C-29.35519531 20.04361328 -29.35519531 20.04361328 -27.8046875 19.38671875 C-24.85077539 18.00175133 -24.85077539 18.00175133 -21.7578125 15.83203125 C-19 14 -19 14 -17 14 C-17 13.34 -17 12.68 -17 12 C-15.2421875 10.44921875 -15.2421875 10.44921875 -12.875 8.6875 C-10.03210798 6.54749625 -7.24904129 4.39572445 -4.5625 2.0625 C-2 0 -2 0 0 0 Z " fill="#DED8D5" transform="translate(464,353)"/>
<path d="M0 0 C0.74102018 4.19996904 1.1099293 8.1063626 1.0625 12.375 C1.05347656 13.43460938 1.04445313 14.49421875 1.03515625 15.5859375 C1.02355469 16.38257813 1.01195312 17.17921875 1 18 C-14.00656455 20.38162735 -28.82552866 21.17946155 -44 21 C-45.00926479 16.84373632 -45.10239579 12.95634906 -45.0625 8.6875 C-45.05347656 7.43324219 -45.04445313 6.17898438 -45.03515625 4.88671875 C-45.01775391 3.45779297 -45.01775391 3.45779297 -45 2 C-40.84187135 1.70901612 -36.68335762 1.42454236 -32.52441406 1.14550781 C-31.1164211 1.05019161 -29.7085372 0.9532472 -28.30078125 0.85449219 C-18.84537549 0.19261378 -9.48374276 -0.13407215 0 0 Z " fill="#78706C" transform="translate(501,670)"/>
<path d="M0 0 C14.52 0.99 29.04 1.98 44 3 C44 9.27 44 15.54 44 22 C33.78819632 22.16879014 23.80046585 21.95827025 13.625 21.0625 C12.63298584 20.97564941 11.64097168 20.88879883 10.61889648 20.79931641 C6.64803046 20.42864286 2.85456346 20.05743192 -1 19 C-1.10551806 12.45788013 -0.66396147 6.63961468 0 0 Z " fill="#79716D" transform="translate(402,669)"/>
<path d="M0 0 C0.74588379 0.05607422 1.49176758 0.11214844 2.26025391 0.16992188 C5.69513706 0.43419715 9.12544439 0.74521469 12.55664062 1.05322266 C15.45396534 1.31202175 18.3517301 1.56450589 21.25 1.8125 C22.26650635 1.89959229 23.2830127 1.98668457 24.33032227 2.07641602 C39.47773147 3.28534281 54.68783055 3.48861238 69.875 3.8125 C69.49540945 6.29094448 69.17392 7.53028864 67.32446289 9.27636719 C66.3459436 9.93620605 66.3459436 9.93620605 65.34765625 10.609375 C64.28321289 11.33447266 64.28321289 11.33447266 63.19726562 12.07421875 C62.45154297 12.56535156 61.70582031 13.05648437 60.9375 13.5625 C59.8247168 14.32240234 59.8247168 14.32240234 58.68945312 15.09765625 C53.16725278 18.8125 53.16725278 18.8125 50.875 18.8125 C50.875 19.4725 50.875 20.1325 50.875 20.8125 C45.125 19.9375 45.125 19.9375 42.875 18.8125 C42.875 18.1525 42.875 17.4925 42.875 16.8125 C42.20597656 16.73257813 41.53695312 16.65265625 40.84765625 16.5703125 C36.2386106 15.39533897 32.39885731 12.90709108 28.31445312 10.51953125 C24.81432629 8.37295458 24.81432629 8.37295458 20.875 8.13916016 C20.215 8.3613623 19.555 8.58356445 18.875 8.8125 C17.72128906 9.1940625 16.56757813 9.575625 15.37890625 9.96875 C13.4015673 10.64044906 11.42581829 11.31652025 9.45117188 11.99609375 C7.59981719 12.62373456 5.73759194 13.21903691 3.875 13.8125 C3.01390625 14.11027344 2.1528125 14.40804687 1.265625 14.71484375 C-2.39305974 14.86429983 -4.11249392 13.08735416 -6.9375 10.875 C-7.91332031 10.12347656 -8.88914062 9.37195313 -9.89453125 8.59765625 C-10.63058594 8.00855469 -11.36664063 7.41945313 -12.125 6.8125 C-9.24630337 0.39079214 -6.92748289 -0.65313958 0 0 Z " fill="#9A9490" transform="translate(396.125,698.1875)"/>
<path d="M0 0 C25.96445615 -1.18981724 52.06066714 2.80006975 77 10 C77 10.66 77 11.32 77 12 C75.99839844 12.38671875 74.99679687 12.7734375 73.96484375 13.171875 C72.6222845 13.69763247 71.27984284 14.22369027 69.9375 14.75 C69.28072266 15.00265625 68.62394531 15.2553125 67.94726562 15.515625 C64.58471861 16.84076668 61.42994477 18.26264847 58.3125 20.09765625 C51.66958298 23.91263336 44.56137482 25.2998727 37 26 C42.42465753 19.21917808 42.42465753 19.21917808 46 17 C46.66 17 47.32 17 48 17 C48 16.34 48 15.68 48 15 C47.40356689 14.96044189 46.80713379 14.92088379 46.19262695 14.88012695 C39.60338162 14.34513827 33.53190688 13.00674091 27.1875 11.1875 C26.23061279 10.91905273 25.27372559 10.65060547 24.2878418 10.37402344 C21.52199843 9.59346435 18.76036043 8.79970637 16 8 C15.26555664 7.78875488 14.53111328 7.57750977 13.77441406 7.35986328 C3.63880814 4.42587209 3.63880814 4.42587209 0 2 C0 1.34 0 0.68 0 0 Z " fill="#24221F" transform="translate(395,486)"/>
<path d="M0 0 C0 1.65 0 3.3 0 5 C-4.49959409 7.09199565 -8.95110156 7.78008583 -13.8125 8.5 C-14.56208984 8.61730469 -15.31167969 8.73460937 -16.08398438 8.85546875 C-17.75139279 9.11072633 -19.42073296 9.35352534 -21.09130859 9.5871582 C-23.1291019 9.87639007 -25.16320044 10.19232553 -27.19384766 10.52807617 C-39.71480149 12.40362015 -52.23694155 12.33723208 -64.87646484 12.31567383 C-68.70049298 12.31254056 -72.52372469 12.33594696 -76.34765625 12.36132812 C-93.24848672 12.40361419 -110.30373564 11.90891032 -127 9 C-128 8 -128 8 -128.0625 5.4375 C-128.041875 4.633125 -128.02125 3.82875 -128 3 C-122.09673269 2.89392798 -116.42754962 3.32314261 -110.56640625 3.98046875 C-98.35533234 5.23379402 -86.20326714 5.35076966 -73.9375 5.3125 C-72.81412231 5.31167419 -71.69074463 5.31084839 -70.5333252 5.30999756 C-55.72585411 5.28508505 -41.00513446 4.90158218 -26.25 3.625 C-25.14505692 3.53045029 -25.14505692 3.53045029 -24.01779175 3.43399048 C-16.08656093 2.73249436 -7.7973685 0 0 0 Z " fill="#9D9692" transform="translate(525,649)"/>
<path d="M0 0 C8.40932486 -0.57616317 15.78540833 1.14859954 23.875 3.3125 C25.65970703 3.7755957 25.65970703 3.7755957 27.48046875 4.24804688 C29.8459565 4.8620396 32.2099271 5.48191012 34.57226562 6.10791016 C37.85937715 6.963402 41.15688811 7.75597252 44.4609375 8.54296875 C48.86649 9.63868622 52.68996237 10.98049942 56.75 13 C60.18814919 14.67824147 63.4629708 16.21389124 67.125 17.3125 C76.07951347 20.60761203 83.21802532 29.04366351 89.875 35.625 C90.50543213 36.24600586 91.13586426 36.86701172 91.78540039 37.50683594 C95.66931728 41.4181882 98.91201887 45.43260585 102 50 C97.70123211 49.15856341 95.42778787 46.85751281 92.375 43.875 C80.83205836 33.0163049 66.98247173 24.07009604 51.33203125 20.5703125 C49 20 49 20 46.7265625 19.04296875 C43.08050541 17.64827356 39.38048624 16.9631294 35.5625 16.1875 C24.22199093 13.76544525 11.64424672 10.67525341 2 4 C1.29462255 2.68673503 0.62266102 1.35444287 0 0 Z " fill="#DED9D6" transform="translate(495,345)"/>
<path d="M0 0 C1.67987227 1.31665664 3.34466005 2.65263027 5 4 C5.54148682 4.42007324 6.08297363 4.84014648 6.64086914 5.27294922 C8.6062622 7.7703788 8.40432233 9.67012747 8.43359375 12.8203125 C8.44511475 13.98691406 8.45663574 15.15351563 8.46850586 16.35546875 C8.45827393 17.59941406 8.44804199 18.84335937 8.4375 20.125 C8.42920166 21.39730469 8.42090332 22.66960937 8.41235352 23.98046875 C8.23553573 33.87723095 7.10238304 42.6310589 4 52 C3.72671875 52.85158691 3.4534375 53.70317383 3.171875 54.58056641 C1.73546936 59.01814632 0.25221887 63.43935083 -1.31640625 67.83203125 C-1.56849854 68.54077393 -1.82059082 69.2495166 -2.08032227 69.97973633 C-3.11608118 72.25499648 -4.44004087 74.05448823 -6 76 C-5.47097683 35.16291884 -5.47097683 35.16291884 -3.5625 17.75 C-3.44028076 16.62948242 -3.31806152 15.50896484 -3.19213867 14.35449219 C-2.58887705 9.34495125 -1.88075394 4.72223933 0 0 Z " fill="#A8A09B" transform="translate(601,429)"/>
<path d="M0 0 C0.66 0 1.32 0 2 0 C1.36098976 5.49371304 -0.48282016 10.21256927 -2.5 15.3125 C-3.22400652 17.19088636 -3.94660299 19.06981667 -4.66796875 20.94921875 C-5.84519617 24.00601096 -7.02409815 27.06207924 -8.20947266 30.11572266 C-13.15170223 42.93060054 -17.17554273 55.08868179 -18.70117188 68.76733398 C-19.03572009 71.26687926 -19.52895079 73.71164565 -20.02734375 76.18359375 C-21.2378211 82.66575909 -21.44766991 89.1078148 -21.625 95.6875 C-21.66367187 96.87794922 -21.70234375 98.06839844 -21.7421875 99.29492188 C-21.83540995 102.19647053 -21.92121348 105.09802966 -22 108 C-30.32762623 95.50856066 -26.0268283 64.12241516 -23.375 49.75 C-20.01216942 33.31372746 -12.73324584 16.50724895 -2.12890625 3.41796875 C-0.90297009 1.97862744 -0.90297009 1.97862744 0 0 Z " fill="#23221F" transform="translate(351,354)"/>
<path d="M0 0 C0.98484375 0.02707031 1.9696875 0.05414062 2.984375 0.08203125 C3.73203125 0.11683594 4.4796875 0.15164063 5.25 0.1875 C5.58 0.8475 5.91 1.5075 6.25 2.1875 C5.26 2.5175 4.27 2.8475 3.25 3.1875 C-3.28574916 13.3115036 -7.01984635 25.82108841 -10.75 37.1875 C-21.30808656 35.26039294 -21.30808656 35.26039294 -25.75 33.1875 C-25.18007081 27.96043512 -23.47274472 23.93523781 -21.125 19.3125 C-20.76889648 18.60649658 -20.41279297 17.90049316 -20.04589844 17.1730957 C-17.28601116 11.87065921 -14.22054876 7.22163805 -9.75 3.1875 C-9.1415625 2.630625 -8.533125 2.07375 -7.90625 1.5 C-5.11394345 -0.19966486 -3.24128527 -0.11576019 0 0 Z " fill="#88827F" transform="translate(368.75,585.8125)"/>
<path d="M0 0 C-7.26464083 7.80717321 -16.81063221 11.4301152 -27 14 C-27 14.66 -27 15.32 -27 16 C-26.4225 16.2475 -25.845 16.495 -25.25 16.75 C-22.69890938 18.16727257 -21.02026893 19.91182287 -19 22 C-31.55157413 23.30918737 -41.49853357 19.57970645 -53 15 C-53 14.34 -53 13.68 -53 13 C-35.62053734 4.93096376 -19.32286753 -0.72160086 0 0 Z " fill="#252321" transform="translate(569,483)"/>
<path d="M0 0 C7.78101375 1.55620275 14.79440901 4.78177257 22 8 C22 9.32 22 10.64 22 12 C20 13.75 20 13.75 18 15 C17.67 14.67 17.34 14.34 17 14 C16.01 15.485 16.01 15.485 15 17 C13.35 16.67 11.7 16.34 10 16 C10.33 18.31 10.66 20.62 11 23 C11.99 23 12.98 23 14 23 C13.31451369 27.66130687 12.24210399 32.19632724 8.421875 35.26953125 C4.92836723 37.41879798 2.09517542 38.60223168 -2 38 C-3.62929157 36.37070843 -3.17075442 34.55305904 -3.1875 32.3125 C-3.15181515 28.12547737 -2.48656429 24.93502312 -1 21 C0.44345887 14.07139744 0.08797902 7.04809697 0 0 Z " fill="#3B3837" transform="translate(323,575)"/>
<path d="M0 0 C1.92960571 0.24447876 1.92960571 0.24447876 3.89819336 0.49389648 C8.8247557 1.03915505 13.67670329 1.12850688 18.62890625 1.09765625 C19.94156715 1.09553383 19.94156715 1.09553383 21.28074646 1.09336853 C24.04136762 1.08782719 26.80190388 1.07528612 29.5625 1.0625 C31.44856653 1.0574774 33.33463434 1.05291583 35.22070312 1.04882812 C39.81383417 1.03787707 44.40690275 1.02065384 49 1 C49.99 4.3 50.98 7.6 52 11 C34.12176642 13.64135075 16.8060602 13.08239361 -1 10 C-1.125 2.25 -1.125 2.25 0 0 Z " fill="#605A57" transform="translate(380,726)"/>
<path d="M0 0 C0.66 0.33 1.32 0.66 2 1 C2.22432862 9.76127876 1.90607585 17.51404746 -0.5625 25.9140625 C-1.0850598 28.405553 -1.09596773 30.70645223 -1.0625 33.25 C-1.04896484 34.58804688 -1.04896484 34.58804688 -1.03515625 35.953125 C-1.02355469 36.62859375 -1.01195312 37.3040625 -1 38 C4.01535052 37.67039784 4.01535052 37.67039784 8 35 C9.485 35.495 9.485 35.495 11 36 C9.57078892 39.25370726 8.13019761 42.50225282 6.6875 45.75 C6.28337891 46.67039062 5.87925781 47.59078125 5.46289062 48.5390625 C5.06650391 49.42851563 4.67011719 50.31796875 4.26171875 51.234375 C3.90037842 52.05131836 3.53903809 52.86826172 3.16674805 53.70996094 C1.18584272 57.59799022 -0.04999144 59.62744763 -4.1875 61.25 C-5.115625 61.4975 -6.04375 61.745 -7 62 C-10.01235249 58.98764751 -8.91432546 50.94990272 -9.125 46.75 C-9.16068085 46.04157959 -9.19636169 45.33315918 -9.23312378 44.60327148 C-9.9070699 28.52274041 -5.81112 14.8673015 0 0 Z " fill="#262423" transform="translate(322,574)"/>
<path d="M0 0 C4.78342194 1.12551104 9.44327887 2.44187061 14.125 3.9375 C24.26855062 7.08752499 34.40865722 9.19762555 45 10 C45 12.97 45 15.94 45 19 C42.31243045 19.02720824 39.62514202 19.0469388 36.9375 19.0625 C36.18533203 19.07087891 35.43316406 19.07925781 34.65820312 19.08789062 C29.99366882 19.10808341 25.60076827 18.77595959 21 18 C21 17.34 21 16.68 21 16 C19.50919922 15.82984375 19.50919922 15.82984375 17.98828125 15.65625 C13.87658465 15.06812518 10.10008585 13.86259209 6.1875 12.5 C5.52041016 12.27441406 4.85332031 12.04882812 4.16601562 11.81640625 C1.71340808 10.97989631 -0.67938143 10.16030928 -3 9 C-2.44271087 5.65626525 -1.64826111 2.96687001 0 0 Z " fill="#77706C" transform="translate(337,630)"/>
<path d="M0 0 C5.71914513 1.01468704 9.06263305 4.43255685 12.875 8.6875 C14.82073229 11.74070885 15.17121224 14.15040561 15.1875 17.75 C15.21263672 19.03583984 15.21263672 19.03583984 15.23828125 20.34765625 C14.875 22.6875 14.875 22.6875 13.56640625 24.47265625 C10.72617096 26.51264049 8.25208881 26.03685402 4.875 25.6875 C0.17421003 23.96769879 -2.34473468 20.34582374 -4.953125 16.23828125 C-6.82999396 12.15296314 -7.14496304 8.0678064 -6.125 3.6875 C-4.12402099 1.07981015 -3.31230911 0.72870801 0 0 Z " fill="#9B948F" transform="translate(504.125,282.3125)"/>
<path d="M0 0 C5.67181805 0.97502952 9.50452005 5.89627506 12.9375 10.1875 C16.1215773 15.19815736 16.34887559 19.19301073 16.1875 24.9375 C16.17364258 25.73446289 16.15978516 26.53142578 16.14550781 27.35253906 C16.09629731 29.63200673 16.0215743 31.9090864 15.9375 34.1875 C15.89109375 35.7653125 15.89109375 35.7653125 15.84375 37.375 C15.52701972 42.56937651 14.76742126 46.35757874 10.9375 50.1875 C7.1875 50.5625 7.1875 50.5625 3.9375 50.1875 C4.38365672 46.0828582 5.13387549 42.52361005 6.5 38.625 C8.99413993 30.47251275 9.49237375 21.64037857 5.9375 13.75 C3.15788239 8.90369264 -0.62605262 5.5120834 -5.0625 2.1875 C-3.0625 0.1875 -3.0625 0.1875 0 0 Z " fill="#BFBBB8" transform="translate(514.0625,587.8125)"/>
<path d="M0 0 C5.95500185 -0.49625015 10.94463784 -0.23729359 15.92578125 3.41015625 C20.7313907 7.63793691 20.7313907 7.63793691 21.44140625 11.23828125 C21.4375 13.4375 21.4375 13.4375 21 17 C16.94604804 16.42398884 14.19679623 15.12012695 10.75 12.9375 C8.06817786 10.94688374 8.06817786 10.94688374 5 10 C6.07972738 11.4194169 7.16395863 12.8354083 8.25 14.25 C8.85328125 15.03890625 9.4565625 15.8278125 10.078125 16.640625 C11.93182995 18.91631157 13.88898954 20.96371558 16 23 C14.55449133 26.73423074 14.55449133 26.73423074 12.20703125 27.859375 C10 28 10 28 7.74609375 26.48828125 C6.98425781 25.77027344 6.22242188 25.05226563 5.4375 24.3125 C4.29087891 23.25482422 4.29087891 23.25482422 3.12109375 22.17578125 C-1.87839235 17.04739496 -1.87839235 17.04739496 -2.36328125 12.87109375 C-2.34652344 11.73800781 -2.32976562 10.60492187 -2.3125 9.4375 C-2.30863281 8.30183594 -2.30476563 7.16617188 -2.30078125 5.99609375 C-2 3 -2 3 0 0 Z " fill="#C9B3AB" transform="translate(364,666)"/>
<path d="M0 0 C4.10554421 0.47371664 6.10191003 1.72774252 9.25 4.375 C11.16631921 7.77211132 11.47083696 10.51035319 11.25 14.375 C14.6051954 12.59255244 17.24051499 10.50934003 20 7.9375 C23.94077566 4.40878263 28.12490647 1.82108448 33.25 0.375 C33.91 0.705 34.57 1.035 35.25 1.375 C34.34378906 2.11363281 33.43757813 2.85226562 32.50390625 3.61328125 C22.05537263 12.26029402 13.31703137 21.02752409 7.25 33.375 C6.92 33.375 6.59 33.375 6.25 33.375 C6.81820748 27.92020815 8.19637945 23.46440744 10.25 18.375 C8.6721875 18.4678125 8.6721875 18.4678125 7.0625 18.5625 C2.98853741 18.36214118 1.38591505 17.90115379 -1.75 15.375 C-5.26548553 11.13217264 -5.18340201 7.66250449 -4.75 2.375 C-2.75 0.375 -2.75 0.375 0 0 Z " fill="#7E7874" transform="translate(300.75,297.625)"/>
<path d="M0 0 C1.44207941 2.88415883 1.09394887 5.41721528 1.0625 8.625 C1.05347656 9.81351563 1.04445313 11.00203125 1.03515625 12.2265625 C1.02355469 13.14179687 1.01195312 14.05703125 1 15 C-5.47990359 18.47994823 -12.50312314 22 -20 22 C-21.2982126 16.23918159 -22.25706972 10.91260345 -22 5 C-17.60525401 3.70155232 -13.18947607 2.51180759 -8.75 1.375 C-7.73421875 1.11460937 -6.7184375 0.85421875 -5.671875 0.5859375 C-3 0 -3 0 0 0 Z " fill="#776F6C" transform="translate(533,663)"/>
<path d="M0 0 C1.98 0 3.96 0 6 0 C8.96516424 7.58499602 11.26681683 14.780421 10 23 C7.33684806 25.66315194 5.34655932 25.94426493 1.640625 26.09765625 C0.85171875 26.08605469 0.0628125 26.07445312 -0.75 26.0625 C-1.54921875 26.05347656 -2.3484375 26.04445313 -3.171875 26.03515625 C-3.77515625 26.02355469 -4.3784375 26.01195312 -5 26 C-5.33 23.36 -5.66 20.72 -6 18 C-6.66 18 -7.32 18 -8 18 C-8.50546036 15.91798472 -9.00416835 13.83432933 -9.5 11.75 C-9.7784375 10.58984375 -10.056875 9.4296875 -10.34375 8.234375 C-11 5 -11 5 -11 1 C-8.6875 0.75 -8.6875 0.75 -6 1 C-3.3024332 3.91777634 -2.09752051 7.02787162 -0.8125 10.75 C-0.46832031 11.73484375 -0.12414062 12.7196875 0.23046875 13.734375 C0.48441406 14.48203125 0.73835938 15.2296875 1 16 C1.11138159 10.54230189 0.91657981 5.38490641 0 0 Z " fill="#9E9793" transform="translate(490,700)"/>
<path d="M0 0 C0.33 0 0.66 0 1 0 C1.83847335 30.38820925 1.83847335 30.38820925 -3 45 C-3.27328125 45.85158691 -3.5465625 46.70317383 -3.828125 47.58056641 C-5.26453064 52.01814632 -6.74778113 56.43935083 -8.31640625 60.83203125 C-8.56849854 61.54077393 -8.82059082 62.2495166 -9.08032227 62.97973633 C-10.11608118 65.25499648 -11.44004087 67.05448823 -13 69 C-13.23809549 40.20852893 -13.23809549 40.20852893 -6.59375 28.78515625 C-5.05363734 26.09373389 -4.40433227 24.04933923 -4 21 C-3.34 21 -2.68 21 -2 21 C-1.18447923 14.00982196 -0.55789568 7.01524148 0 0 Z " fill="#9E9691" transform="translate(608,436)"/>
<path d="M0 0 C1.27591643 0.92354753 2.5226446 1.88783157 3.75 2.875 C17.67287584 12.53670107 42.66708781 8.19547768 59 8 C56.99907853 10.00092147 55.89689422 10.59271749 53.3125 11.5625 C52.34763672 11.93568359 52.34763672 11.93568359 51.36328125 12.31640625 C38.31482486 16.09075314 18.9901233 15.97511368 6.9375 9.5625 C4.79997012 8.29271968 3.20395862 7.23645752 1.578125 5.3515625 C-0.66946709 3.42664452 -2.28195421 3.69929692 -5.1875 3.8125 C-6.08855469 3.83957031 -6.98960937 3.86664062 -7.91796875 3.89453125 C-8.60503906 3.92933594 -9.29210937 3.96414063 -10 4 C-10 3.01 -10 2.02 -10 1 C-6.51544229 -0.0721716 -3.63176852 -0.47966754 0 0 Z " fill="#2F2B28" transform="translate(469,542)"/>
<path d="M0 0 C11.55 0 23.1 0 35 0 C33.875 4.5 33.875 4.5 30.62109375 6.578125 C29.61079102 7.23554687 29.61079102 7.23554687 28.58007812 7.90625 C27.87302734 8.3496875 27.16597656 8.793125 26.4375 9.25 C25.72658203 9.70890625 25.01566406 10.1678125 24.28320312 10.640625 C22.52886786 11.77093497 20.76528659 12.88687103 19 14 C16.73343156 11.09382458 15.25566905 8.47723736 14 5 C13.319375 5.165 12.63875 5.33 11.9375 5.5 C8.54684118 6.07713342 5.43349708 6.19434889 2 6 C1.34 5.34 0.68 4.68 0 4 C0 2.68 0 1.36 0 0 Z " fill="#89817D" transform="translate(431,702)"/>
<path d="M0 0 C5.28 0.33 10.56 0.66 16 1 C14.68 1.33 13.36 1.66 12 2 C12 7.94 12 13.88 12 20 C3 20 3 20 -1 19 C-1.10372765 12.56888577 -0.72027812 6.39246827 0 0 Z " fill="#504B48" transform="translate(402,669)"/>
<path d="M0 0 C3.98286736 3.32993828 7.59175477 7.01341931 11.14453125 10.79296875 C7.8465589 10.79296875 6.34867579 9.88363604 3.56347656 8.25244141 C-8.51654119 1.195703 -22.1923937 -2.97421896 -36.0546875 -4.78515625 C-36.64894531 -4.924375 -37.24320313 -5.06359375 -37.85546875 -5.20703125 C-38.18546875 -5.86703125 -38.51546875 -6.52703125 -38.85546875 -7.20703125 C-25.03743286 -9.73999461 -11.64006859 -8.40071741 0 0 Z " fill="#2F2D2B" transform="translate(557.85546875,327.20703125)"/>
<path d="M0 0 C4.14876233 1.22022421 6.06544205 2.96065405 9.1875 5.9375 C10.36423198 8.29096396 10.35373866 9.8181033 10.375 12.4375 C10.38917969 13.2315625 10.40335937 14.025625 10.41796875 14.84375 C10.1875 16.9375 10.1875 16.9375 8.1875 18.9375 C4.46824407 19.43340079 2.70472179 19.26226717 -0.5 17.25 C-4.13004165 13.61995835 -5.97244365 10.92070276 -6.1875 5.75 C-6.06375 4.491875 -5.94 3.23375 -5.8125 1.9375 C-2.8125 -0.0625 -2.8125 -0.0625 0 0 Z " fill="#7E7874" transform="translate(286.8125,357.0625)"/>
<path d="M0 0 C1.79244141 0.23009766 1.79244141 0.23009766 3.62109375 0.46484375 C10.08534064 1.1830934 16.56549882 1.35180512 23.0625 1.5625 C24.93325195 1.62727539 24.93325195 1.62727539 26.84179688 1.69335938 C29.89444091 1.79862296 32.94715523 1.90075941 36 2 C36 2.33 36 2.66 36 3 C31.05 3 26.1 3 21 3 C21 5.97 21 8.94 21 12 C18.08302989 11.85895309 15.1665198 11.71235186 12.25 11.5625 C11.0125 11.50352539 11.0125 11.50352539 9.75 11.44335938 C8.95078125 11.40146484 8.1515625 11.35957031 7.328125 11.31640625 C6.5949707 11.27974854 5.86181641 11.24309082 5.10644531 11.20532227 C2.98822395 10.99885215 1.0480544 10.56867914 -1 10 C-1.125 2.25 -1.125 2.25 0 0 Z " fill="#484441" transform="translate(380,726)"/>
<path d="M0 0 C4.26204655 0.43342846 5.7002238 1.3877238 8.6875 4.375 C10.77690868 7.50911302 10.96114412 8.34950472 10.9375 11.9375 C10.94265625 12.72253906 10.9478125 13.50757813 10.953125 14.31640625 C10.6875 16.375 10.6875 16.375 8.6875 18.375 C4.43921625 19.05086332 2.99202241 18.59167941 -0.5625 16.0625 C-5.15039386 11.57887645 -5.15039386 11.57887645 -5.578125 8.40234375 C-5.51997591 0.62490293 -5.51997591 0.62490293 0 0 Z " fill="#7D7773" transform="translate(331.3125,342.625)"/>
<path d="M0 0 C4.60686648 0.78229808 7.16236214 3.21276663 10.3125 6.5625 C11.42695498 8.79140995 11.47730286 10.09305106 11.5 12.5625 C11.51417969 13.26375 11.52835937 13.965 11.54296875 14.6875 C11.3125 16.5625 11.3125 16.5625 9.3125 18.5625 C6 19 6 19 2.3125 18.5625 C-0.85966699 16.0247664 -3.38986078 13.45541767 -4.6875 9.5625 C-5.06448396 4.94444644 -5.28884169 1.10696686 0 0 Z " fill="#7D7773" transform="translate(327.6875,467.4375)"/>
<path d="M0 0 C0.66 0.33 1.32 0.66 2 1 C1.10539062 1.78761719 0.21078125 2.57523437 -0.7109375 3.38671875 C-12.49328251 13.92984946 -21.41701546 25.06438271 -29 39 C-31.11198176 33.26152326 -28.19889048 27.36176446 -26 22 C-23.97691812 18.66815898 -21.63950751 15.85853048 -19 13 C-18.47664063 12.37480469 -17.95328125 11.74960937 -17.4140625 11.10546875 C-12.66413212 5.78786376 -6.64335976 2.50008076 0 0 Z " fill="#272623" transform="translate(380,256)"/>
<path d="M0 0 C5.4399641 0.06217102 9.97594199 0.89569953 14.8125 3.5 C16.375 5.1875 16.375 5.1875 16.625 7.875 C16.5425 8.638125 16.46 9.40125 16.375 10.1875 C9.61875752 12.09388896 2.93776621 11.68135116 -3.625 9.1875 C-5.625 7.875 -5.625 7.875 -6.625 6.1875 C-6.10841943 0.763404 -5.25133391 0.03966264 0 0 Z " fill="#C2BEBA" transform="translate(454.625,593.8125)"/>
<path d="M0 0 C-0.20625 1.11375 -0.4125 2.2275 -0.625 3.375 C-0.74875 4.57125 -0.8725 5.7675 -1 7 C0.83883881 9.28728734 0.83883881 9.28728734 3.625 9.125 C4.40875 9.08375 5.1925 9.0425 6 9 C6.6878236 6.64632287 6.6878236 6.64632287 7 4 C6.34 3.01 5.68 2.02 5 1 C21.26666667 2.26666667 21.26666667 2.26666667 25 6 C23.98292969 6.36351562 23.98292969 6.36351562 22.9453125 6.734375 C21.54925781 7.23710938 21.54925781 7.23710938 20.125 7.75 C19.12597656 8.10964844 18.12695312 8.46929688 17.09765625 8.83984375 C13.40569494 10.22258336 9.79528583 11.76617481 6.19140625 13.36328125 C3.56182121 14.12731398 2.52833534 14.02487016 0 13 C-1.78790221 11.87037088 -3.53671212 10.67737939 -5.25 9.4375 C-6.14203125 8.79683594 -7.0340625 8.15617188 -7.953125 7.49609375 C-8.62859375 7.00238281 -9.3040625 6.50867188 -10 6 C-7.82304683 0.97626191 -5.41372848 -0.29263397 0 0 Z " fill="#9E9793" transform="translate(394,699)"/>
<path d="M0 0 C3.00763844 7.34067687 3.55158587 12.3452424 1 20 C-1.75 20 -1.75 20 -5 19 C-6.30353753 17.10233312 -7.15216936 15.18630041 -8.0546875 13.0703125 C-9.29143696 10.36172896 -11.11634016 8.28730124 -13 6 C-13 5.34 -13 4.68 -13 4 C-8.38987758 1.04952165 -5.63470383 -0.5497272 0 0 Z " fill="#282624" transform="translate(546,582)"/>
<path d="M0 0 C7.10437904 1.6716186 14.03859556 3.81394921 21 6 C21 6.33 21 6.66 21 7 C19.35 7 17.7 7 16 7 C15.67 9.64 15.34 12.28 15 15 C12.37434281 14.18957506 9.74946834 13.37675813 7.125 12.5625 C6.37863281 12.33240234 5.63226563 12.10230469 4.86328125 11.86523438 C-0.7734375 10.11328125 -0.7734375 10.11328125 -3 9 C-2.44271087 5.65626525 -1.64826111 2.96687001 0 0 Z " fill="#665F5B" transform="translate(337,630)"/>
<path d="M0 0 C2.3125 -0.25 2.3125 -0.25 5 0 C9.06782325 3.75491377 10.84621172 9.56822289 11.1875 14.96484375 C11.1875 17.65007739 11.13309871 20.3183074 11 23 C12.32 23.66 13.64 24.32 15 25 C12.03 25 9.06 25 6 25 C5.67 22.36 5.34 19.72 5 17 C4.34 17 3.68 17 3 17 C2.49453964 14.91798472 1.99583165 12.83432933 1.5 10.75 C1.2215625 9.58984375 0.943125 8.4296875 0.65625 7.234375 C0 4 0 4 0 0 Z " fill="#9E9894" transform="translate(479,701)"/>
<path d="M0 0 C7.09174027 -0.19195688 13.19710326 -0.18664538 20 2 C24.32076055 2.75498531 28.6571501 3.38612347 33 4 C30.30093746 5.42942899 27.71754975 6.46966627 24.77734375 7.2890625 C23.59881836 7.61777344 23.59881836 7.61777344 22.39648438 7.953125 C21.58501953 8.17484375 20.77355469 8.3965625 19.9375 8.625 C19.12216797 8.85445312 18.30683594 9.08390625 17.46679688 9.3203125 C11.38292876 11 11.38292876 11 8 11 C7.08854167 9.30729167 6.17708333 7.61458333 5.265625 5.921875 C3.7626795 3.63962443 1.97688971 1.8772146 0 0 Z " fill="#C9B3AC" transform="translate(384,578)"/>
<path d="M0 0 C-0.90621094 0.73863281 -1.81242187 1.47726562 -2.74609375 2.23828125 C-13.19462737 10.88529402 -21.93296863 19.65252409 -28 32 C-28.33 32 -28.66 32 -29 32 C-27.81063616 20.34423439 -21.95655874 11.93653105 -13.16015625 4.546875 C-4.01040892 -2.00520446 -4.01040892 -2.00520446 0 0 Z " fill="#272523" transform="translate(336,299)"/>
<path d="M0 0 C1.82421875 2.1953125 1.82421875 2.1953125 3 4 C1.1863478 3.56730125 -0.62585732 3.12853661 -2.4375 2.6875 C-3.95150391 2.32205078 -3.95150391 2.32205078 -5.49609375 1.94921875 C-8.16260166 1.22685373 -10.68413973 0.4191007 -13.28125 -0.5 C-18.14138551 -2.14878211 -22.9925398 -2.96771511 -28.0625 -3.6875 C-28.92810547 -3.81705078 -29.79371094 -3.94660156 -30.68554688 -4.08007812 C-32.78930608 -4.39389856 -34.89451257 -4.69799214 -37 -5 C-28.00433322 -13.99566678 -8.55274889 -5.77552348 0 0 Z " fill="#32302D" transform="translate(500,267)"/>
<path d="M0 0 C-0.74250597 4.08378283 -1.82923301 8.01939223 -3 12 C-4.75032844 11.85816304 -6.50025534 11.71136571 -8.25 11.5625 C-9.22453125 11.48128906 -10.1990625 11.40007813 -11.203125 11.31640625 C-13.56461753 11.04925416 -15.71901065 10.64628032 -18 10 C-18.33 8.02 -18.66 6.04 -19 4 C-16.39688008 3.32900016 -13.79264602 2.66304662 -11.1875 2 C-10.44951172 1.80921875 -9.71152344 1.6184375 -8.95117188 1.421875 C-5.89464659 0.64737086 -3.16626522 0 0 0 Z " fill="#CAC6C4" transform="translate(527,693)"/>
<path d="M0 0 C14.02187304 0.73291771 28.00754649 1.84113134 42 3 C34.07469295 8.28353803 20.05530345 4.10478648 11 3 C11.66 3.66 12.32 4.32 13 5 C12.44444444 9.55555556 12.44444444 9.55555556 11 11 C8.19048514 11.29573841 6.58371024 11.38243085 4.1875 9.8125 C2.61756915 7.41628976 2.70426159 5.80951486 3 3 C3.33 2.67 3.66 2.34 4 2 C2.68 1.34 1.36 0.68 0 0 Z " fill="#6F6A67" transform="translate(389,698)"/>
<path d="M0 0 C2.92930394 0.23109647 3.88889471 0.87785319 5.88671875 3.07421875 C6.48097656 3.93660156 7.07523437 4.79898437 7.6875 5.6875 C8.28949219 6.53699219 8.89148438 7.38648438 9.51171875 8.26171875 C11.12328882 11.22683849 11.63375408 13.66472045 12 17 C4.64909847 16.63245492 4.64909847 16.63245492 1.5625 13.625 C-1.01637654 9.29248742 -1.18446741 5.98062014 -1 1 C-0.67 0.67 -0.34 0.34 0 0 Z " fill="#7F7975" transform="translate(448,323)"/>
<path d="M0 0 C1.8125 1.125 1.8125 1.125 3 3 C3.4375 6 3.4375 6 3 9 C0.84910944 11.3898784 -0.437695 11.93305893 -3.625 12.3125 C-6 12 -6 12 -8 10 C-8.55416667 3.90416667 -8.55416667 3.90416667 -6.8125 1.0625 C-4.33950907 -0.38718434 -2.82115488 -0.42317323 0 0 Z " fill="#C1BDBA" transform="translate(511,621)"/>
<path d="M0 0 C1.42247747 2.84495493 1.20793601 5.3311796 1.25 8.5 C1.28867187 10.24796875 1.28867187 10.24796875 1.328125 12.03125 C1.21984375 13.0109375 1.1115625 13.990625 1 15 C-2 17 -2 17 -6 17 C-6.08076963 14.54101345 -6.14037143 12.08466258 -6.1875 9.625 C-6.21263672 8.92632813 -6.23777344 8.22765625 -6.26367188 7.5078125 C-6.29296875 5.4765625 -6.29296875 5.4765625 -6 2 C-3 0 -3 0 0 0 Z " fill="#A19692" transform="translate(533,663)"/>
<path d="M0 0 C1.38125018 2.76250036 1.19079306 4.94731099 1 8 C-1 10 -1 10 -2.91015625 10.23046875 C-8.88888889 10.11111111 -8.88888889 10.11111111 -10 9 C-10.45506692 2.85659656 -10.45506692 2.85659656 -8.9375 0 C-5.80758074 -1.6154422 -3.31825907 -0.79884015 0 0 Z " fill="#B3AEAA" transform="translate(416,605)"/>
<path d="M0 0 C3.6277553 4.01644336 6.69132829 8.69893124 8 14 C7.140625 16.13671875 7.140625 16.13671875 6 18 C5.63215869 19.3242287 5.28797019 20.65613912 5 22 C3.35 22 1.7 22 0 22 C-0.66 20.68 -1.32 19.36 -2 18 C-0.02 18.33 1.96 18.66 4 19 C1.62324575 12.92607248 -1.56039218 7.53231419 -5 2 C-3.35 2 -1.7 2 0 2 C0 1.34 0 0.68 0 0 Z " fill="#908985" transform="translate(456,321)"/>
<path d="M0 0 C1.24895564 3.74686692 0.70973763 6.80169393 0.1875 10.625 C0.0942041 11.33978516 0.0009082 12.05457031 -0.09521484 12.79101562 C-0.79165495 17.93790634 -1.7395947 22.95837881 -3 28 C-6.06083197 24.93916803 -6.1988797 22.09361082 -6.3125 17.9375 C-6.26916518 11.41994277 -4.72573075 4.72573075 0 0 Z " fill="#292725" transform="translate(274,389)"/>
<path d="M0 0 C4.29 0 8.58 0 13 0 C13 0.66 13 1.32 13 2 C14.03125 2.0825 15.0625 2.165 16.125 2.25 C20.33397057 3.06463946 22.68168257 4.32915914 26 7 C26 7.66 26 8.32 26 9 C16.77622123 7.38949895 7.94445024 4.71861481 -1 2 C-0.67 1.34 -0.34 0.68 0 0 Z " fill="#4D4946" transform="translate(478,315)"/>
<path d="M0 0 C1.98 0 3.96 0 6 0 C7.3058334 3.92128522 6.38030356 5.97831091 4.59960938 9.68359375 C4.25736328 10.36550781 3.91511719 11.04742187 3.5625 11.75 C3.22412109 12.44738281 2.88574219 13.14476562 2.53710938 13.86328125 C1.70193542 15.58068121 0.85234576 17.29105738 0 19 C-0.33 19 -0.66 19 -1 19 C-1.02714735 16.77090129 -1.04646254 14.54170633 -1.0625 12.3125 C-1.07990234 10.45044922 -1.07990234 10.45044922 -1.09765625 8.55078125 C-1.01478673 5.53764546 -0.70839449 2.91724661 0 0 Z " fill="#C8BFB9" transform="translate(597,458)"/>
<path d="M0 0 C1.10085938 -0.01417969 2.20171875 -0.02835938 3.3359375 -0.04296875 C7.82563601 0.27163008 11.39130762 0.95380762 14.625 4.1875 C11.43751971 4.21682572 8.25007472 4.23440739 5.0625 4.25 C3.71961914 4.26256836 3.71961914 4.26256836 2.34960938 4.27539062 C-2.67497943 4.29379571 -7.42317291 4.05016398 -12.375 3.1875 C-8.81917525 -0.36832475 -4.85740708 0.02830657 0 0 Z " fill="#413E3B" transform="translate(440.375,231.8125)"/>
<path d="M0 0 C5.15171623 -0.09038099 9.91913204 0.15318867 15 1 C14.01 1.33 13.02 1.66 12 2 C12 3.65 12 5.3 12 7 C10.18706911 6.85962479 8.3746557 6.71255111 6.5625 6.5625 C5.04849609 6.44068359 5.04849609 6.44068359 3.50390625 6.31640625 C1 6 1 6 0 5 C-0.04063832 3.33382885 -0.042721 1.66611905 0 0 Z " fill="#807672" transform="translate(397,652)"/>
<path d="M0 0 C4.29 0 8.58 0 13 0 C12.01 0.495 12.01 0.495 11 1 C11.185625 2.093125 11.37125 3.18625 11.5625 4.3125 C12 8 12 8 11 11 C10.01 11 9.02 11 8 11 C7.08854167 9.30729167 6.17708333 7.61458333 5.265625 5.921875 C3.75266009 3.48378953 3.75266009 3.48378953 0 0 Z " fill="#806B64" transform="translate(384,578)"/>
<path d="M0 0 C14.02187304 0.73291771 28.00754649 1.84113134 42 3 C35.30227495 7.46515003 25.99147837 4.62126703 18.48046875 3.43359375 C14.36823928 2.9212958 10.43347589 2.96539132 6.3046875 3.22265625 C3.42947682 2.94488166 2.13462052 1.88377802 0 0 Z " fill="#89827D" transform="translate(389,698)"/>
<path d="M0 0 C6.74841438 4.69978858 6.74841438 4.69978858 7.46484375 8.40234375 C7.44011598 10.63844091 7.30992125 12.78627681 7 15 C4.8125 15.3125 4.8125 15.3125 2 15 C-0.8125 12.5 -0.8125 12.5 -3 10 C-0.525 10.495 -0.525 10.495 2 11 C1.34 7.37 0.68 3.74 0 0 Z " fill="#3B3633" transform="translate(502,519)"/>
<path d="M0 0 C2.31 0 4.62 0 7 0 C7 3.3 7 6.6 7 10 C5.00045254 10.04254356 2.99958364 10.04080783 1 10 C0 9 0 9 -0.09765625 6.93359375 C-0.08605469 6.10988281 -0.07445312 5.28617188 -0.0625 4.4375 C-0.05347656 3.61121094 -0.04445313 2.78492188 -0.03515625 1.93359375 C-0.02355469 1.29550781 -0.01195312 0.65742187 0 0 Z " fill="#423F3C" transform="translate(465,726)"/>
<path d="M0 0 C-1.32 2.64 -2.64 5.28 -4 8 C-6.31 7.67 -8.62 7.34 -11 7 C-11.33 5.02 -11.66 3.04 -12 1 C-10.37681021 0.63762737 -8.7513642 0.28534843 -7.125 -0.0625 C-6.22007812 -0.25972656 -5.31515625 -0.45695313 -4.3828125 -0.66015625 C-2 -1 -2 -1 0 0 Z " fill="#98928E" transform="translate(520,696)"/>
<path d="M0 0 C1.65 0.33 3.3 0.66 5 1 C5.625 3.8125 5.625 3.8125 6 7 C5.01 8.485 5.01 8.485 4 10 C2.35 9.67 0.7 9.34 -1 9 C-1.625 6.1875 -1.625 6.1875 -2 3 C-1.34 2.01 -0.68 1.02 0 0 Z " fill="#57514E" transform="translate(435,677)"/>
<path d="M0 0 C0 4.29 0 8.58 0 13 C-5.80205656 7.35475578 -5.80205656 7.35475578 -8 4 C-8 3.34 -8 2.68 -8 2 C-2.25 0 -2.25 0 0 0 Z " fill="#3A3836" transform="translate(541,584)"/>
<path d="M0 0 C1.1446875 0.3403125 1.1446875 0.3403125 2.3125 0.6875 C2.5 3.5625 2.5 3.5625 2.3125 6.6875 C-0.6875 8.6875 -0.6875 8.6875 -3.375 8.3125 C-4.138125 8.10625 -4.90125 7.9 -5.6875 7.6875 C-5.91482116 4.88387237 -6.02831872 3.22563483 -4.5 0.8125 C-2.6875 -0.3125 -2.6875 -0.3125 0 0 Z " fill="#55504D" transform="translate(492.6875,679.3125)"/>
<path d="M0 0 C-0.66 3.63 -1.32 7.26 -2 11 C-3.65 11.33 -5.3 11.66 -7 12 C-7.48842105 4.67368421 -7.48842105 4.67368421 -5.1875 1.5 C-3 0 -3 0 0 0 Z " fill="#282624" transform="translate(396,309)"/>
<path d="M0 0 C3.88686673 3.88686673 4.8612742 9.74924469 5.19140625 15.10546875 C5.18799315 17.74379577 5.13523771 20.36536914 5 23 C4.01 23.33 3.02 23.66 2 24 C1.93941406 23.02160156 1.87882812 22.04320312 1.81640625 21.03515625 C1.36678488 14.00031117 0.85950635 6.99883741 0 0 Z " fill="#B4B0AE" transform="translate(495,700)"/>
<path d="M0 0 C2.97 0 5.94 0 9 0 C9.38218767 1.65614657 9.71395102 3.32457024 10 5 C9 6 9 6 5.5625 6.1875 C2 6 2 6 0 4 C0 2.68 0 1.36 0 0 Z " fill="#5D5855" transform="translate(431,702)"/>
<path d="M0 0 C0.99 0.66 1.98 1.32 3 2 C2 5 2 5 0 6 C-0.73075648 8.3140622 -1.40138258 10.64828869 -2 13 C-2.33 12.34 -2.66 11.68 -3 11 C-3.99 11 -4.98 11 -6 11 C-6.33 8.69 -6.66 6.38 -7 4 C-5.35 4 -3.7 4 -2 4 C-1.34 2.68 -0.68 1.36 0 0 Z " fill="#292726" transform="translate(340,587)"/>
<path d="M0 0 C0.66 0.33 1.32 0.66 2 1 C0.68 2.32 -0.64 3.64 -2 5 C3.13503344 4.35812082 7.9943454 3.31727753 13 2 C12 4 12 4 9.33984375 5.03515625 C3.20679387 6.88704158 -2.60475457 8.49841212 -9 9 C-6.21000549 5.51250686 -3.74764169 2.49842779 0 0 Z " fill="#5C534F" transform="translate(441,503)"/>
<path d="M0 0 C1.32 0 2.64 0 4 0 C4.38063221 2.3260857 4.71269945 4.66055264 5 7 C4 8 4 8 1.5 8.125 C-1 8 -1 8 -2 7 C-2.1875 4.5625 -2.1875 4.5625 -2 2 C-1.34 1.34 -0.68 0.68 0 0 Z " fill="#4F4B4A" transform="translate(328,592)"/>
<path d="M0 0 C0.93423645 3.01031744 1.04449911 3.86650268 0 7 C-0.06665376 8.39439664 -0.08538199 9.79169875 -0.0625 11.1875 C-0.041875 12.445625 -0.02125 13.70375 0 15 C0.66 11.7 1.32 8.4 2 5 C2.33 5 2.66 5 3 5 C3.21824777 11.0018137 2.5056904 16.19233704 1 22 C-2.16182773 18.83817227 -2.15791478 15.96552323 -2.1875 11.6875 C-2.15917929 7.41673705 -1.71607852 3.96843158 0 0 Z " fill="#585451" transform="translate(270,395)"/>
<path d="M0 0 C0.33 0.99 0.66 1.98 1 3 C-4.61 8.61 -10.22 14.22 -16 20 C-16.66 19.67 -17.32 19.34 -18 19 C-16.29657414 17.09955869 -14.58752883 15.20471126 -12.875 13.3125 C-12.400625 12.78205078 -11.92625 12.25160156 -11.4375 11.70507812 C-8.98923743 9.00868084 -6.52274282 6.53145284 -3.6953125 4.23046875 C-0.97364884 2.28393087 -0.97364884 2.28393087 0 0 Z " fill="#8B8480" transform="translate(382,255)"/>
<path d="M0 0 C0.66 0.33 1.32 0.66 2 1 C-3.28 6.28 -8.56 11.56 -14 17 C-14.66 16.67 -15.32 16.34 -16 16 C-5.62642369 4.29384966 -5.62642369 4.29384966 0 0 Z " fill="#8A837F" transform="translate(332,301)"/>
<path d="M0 0 C0 1.65 0 3.3 0 5 C-1.625 5.75 -1.625 5.75 -4 6 C-7.25 4.125 -7.25 4.125 -10 2 C-10 1.67 -10 1.34 -10 1 C-3.375 0 -3.375 0 0 0 Z " fill="#A7948E" transform="translate(386,661)"/>
<path d="M0 0 C2 2 2 2 2.1953125 5.9140625 C2.18200376 7.48449351 2.15813602 9.05486221 2.125 10.625 C2.11597656 11.42679687 2.10695313 12.22859375 2.09765625 13.0546875 C2.07406223 15.03658523 2.03819065 17.01832981 2 19 C1.01 18.34 0.02 17.68 -1 17 C-1.0562279 14.03471821 -0.95683804 11.31149974 -0.6875 8.375 C-0.62626953 7.57320313 -0.56503906 6.77140625 -0.50195312 5.9453125 C-0.34851492 3.96241876 -0.17604307 1.98101481 0 0 Z " fill="#474441" transform="translate(313,486)"/>
<path d="M0 0 C0.33 0 0.66 0 1 0 C1.33 5.28 1.66 10.56 2 16 C1.01 16 0.02 16 -1 16 C-1.02685095 13.52076199 -1.04676547 11.0418116 -1.0625 8.5625 C-1.07506836 7.50192383 -1.07506836 7.50192383 -1.08789062 6.41992188 C-1.09653588 4.61306441 -1.05220011 2.80612397 -1 1 C-0.67 0.67 -0.34 0.34 0 0 Z " fill="#E6E1DE" transform="translate(349,465)"/>
<path d="M0 0 C0.33 0 0.66 0 1 0 C1 9.9 1 19.8 1 30 C0.01 29.34 -0.98 28.68 -2 28 C-2.1875 25.375 -2.1875 25.375 -2 23 C-1.67 23 -1.34 23 -1 23 C-0.67 15.41 -0.34 7.82 0 0 Z " fill="#746F6B" transform="translate(329,436)"/>
<path d="M0 0 C0.66 0 1.32 0 2 0 C1.40895235 4.84659077 0.02055843 8.60748167 -2 13 C-2.33 11.68 -2.66 10.36 -3 9 C-4.32 9.99 -5.64 10.98 -7 12 C-5.62159784 9.16661778 -4.13581614 6.44311194 -2.5 3.75 C-1.86578125 2.69039063 -1.86578125 2.69039063 -1.21875 1.609375 C-0.61546875 0.81273437 -0.61546875 0.81273437 0 0 Z " fill="#504C49" transform="translate(351,354)"/>
<path d="M0 0 C1.32 1.32 2.64 2.64 4 4 C1.50494038 6.49505962 0.32671112 6.35948376 -3.125 6.625 C-4.03507812 6.69976563 -4.94515625 6.77453125 -5.8828125 6.8515625 C-6.93082031 6.92503906 -6.93082031 6.92503906 -8 7 C-7.236875 6.401875 -6.47375 5.80375 -5.6875 5.1875 C-3.6516425 3.53040668 -1.8021721 1.89702326 0 0 Z " fill="#514C49" transform="translate(511,729)"/>
<path d="M0 0 C0.66 0 1.32 0 2 0 C2 0.66 2 1.32 2 2 C2.99 1.67 3.98 1.34 5 1 C9 6.625 9 6.625 9 10 C4.71095765 8.4114658 2.67654474 5.56872632 0 2 C0 1.34 0 0.68 0 0 Z " fill="#D0C9C4" transform="translate(598,398)"/>
<path d="M0 0 C2.475 0.495 2.475 0.495 5 1 C5.33 3.31 5.66 5.62 6 8 C4.02 8.33 2.04 8.66 0 9 C0 6.03 0 3.06 0 0 Z " fill="#BFA197" transform="translate(395,579)"/>
<path d="M0 0 C0.66 2.31 1.32 4.62 2 7 C-1.11373372 5.50079488 -4.12228205 3.91847864 -7 2 C-7 1.34 -7 0.68 -7 0 C-3.86650268 -1.04449911 -3.01031744 -0.93423645 0 0 Z " fill="#A89690" transform="translate(544,651)"/>
<path d="M0 0 C0.66 0.33 1.32 0.66 2 1 C-2.29 5.29 -6.58 9.58 -11 14 C-11.66 13.67 -12.32 13.34 -13 13 C-4.738041 3.40546697 -4.738041 3.40546697 0 0 Z " fill="#383431" transform="translate(550,448)"/>
<path d="M0 0 C1.15242187 0.00902344 2.30484375 0.01804687 3.4921875 0.02734375 C4.36101563 0.03894531 5.22984375 0.05054688 6.125 0.0625 C6.125 0.3925 6.125 0.7225 6.125 1.0625 C2.825 1.0625 -0.475 1.0625 -3.875 1.0625 C-3.545 2.0525 -3.215 3.0425 -2.875 4.0625 C-4.3550841 3.94887738 -5.83410074 3.82127092 -7.3125 3.6875 C-8.13621094 3.61789062 -8.95992187 3.54828125 -9.80859375 3.4765625 C-10.49050781 3.33992188 -11.17242188 3.20328125 -11.875 3.0625 C-12.205 2.4025 -12.535 1.7425 -12.875 1.0625 C-8.52167264 0.22226812 -4.43057481 -0.04520995 0 0 Z " fill="#625E5A" transform="translate(531.875,318.9375)"/>
<path d="M0 0 C1.65 0 3.3 0 5 0 C4.01 0.495 4.01 0.495 3 1 C3.33 6.28 3.66 11.56 4 17 C2.04020631 14.06030946 1.51679931 12.44977414 0.875 9.0625 C0.70742188 8.20785156 0.53984375 7.35320313 0.3671875 6.47265625 C0 4 0 4 0 0 Z " fill="#746E6A" transform="translate(479,701)"/>
<path d="M0 0 C0.66 0.33 1.32 0.66 2 1 C-1.96 4.465 -1.96 4.465 -6 8 C-7.32 7.01 -8.64 6.02 -10 5 C-8.38007835 4.13624104 -6.75388139 3.28424146 -5.125 2.4375 C-4.22007812 1.96183594 -3.31515625 1.48617188 -2.3828125 0.99609375 C-1.20332031 0.50302734 -1.20332031 0.50302734 0 0 Z " fill="#353230" transform="translate(334,298)"/>
<path d="M0 0 C7.26 0.33 14.52 0.66 22 1 C22 1.33 22 1.66 22 2 C21.05125 2.12375 20.1025 2.2475 19.125 2.375 C15.91332809 2.71687177 15.91332809 2.71687177 14 5 C13.67 4.01 13.34 3.02 13 2 C11.783125 2.020625 10.56625 2.04125 9.3125 2.0625 C6.08022678 2.06824116 3.15065259 1.78766315 0 1 C0 0.67 0 0.34 0 0 Z " fill="#5C524E" transform="translate(361,660)"/>
<path d="M0 0 C5.61 0.33 11.22 0.66 17 1 C13.68629 3.20914 12.6553979 3.22481553 8.8125 3.125 C7.91144531 3.10695313 7.01039063 3.08890625 6.08203125 3.0703125 C5.39496094 3.04710937 4.70789063 3.02390625 4 3 C4 2.34 4 1.68 4 1 C2.68 0.67 1.36 0.34 0 0 Z " fill="#766F6B" transform="translate(414,700)"/>
<path d="M0 0 C3.63970867 -0.42820102 5.04569463 0.02586488 8.3125 1.875 C9.199375 2.57625 10.08625 3.2775 11 4 C11 4.66 11 5.32 11 6 C6.87248551 5.39301257 3.6678852 3.96189209 0 2 C0 1.34 0 0.68 0 0 Z " fill="#403D3A" transform="translate(493,318)"/>
<path d="M0 0 C3.3 0 6.6 0 10 0 C9.67 0.99 9.34 1.98 9 3 C6.36 3 3.72 3 1 3 C0.67 2.01 0.34 1.02 0 0 Z " fill="#5D544F" transform="translate(479,585)"/>
<path d="M0 0 C2.0625 0.4375 2.0625 0.4375 4 1 C3.67 2.65 3.34 4.3 3 6 C1.68 6 0.36 6 -1 6 C-1.042721 4.33388095 -1.04063832 2.66617115 -1 1 C-0.67 0.67 -0.34 0.34 0 0 Z " fill="#655F5C" transform="translate(401,621)"/>
<path d="M0 0 C8.77578475 -0.76681614 8.77578475 -0.76681614 11.77734375 1.11328125 C13.125 2.5 13.125 2.5 15 5 C13.06077578 4.54901762 11.12366406 4.08894441 9.1875 3.625 C8.10855469 3.36976563 7.02960938 3.11453125 5.91796875 2.8515625 C3 2 3 2 0 0 Z " fill="#4C4945" transform="translate(488,266)"/>
<path d="M0 0 C0.33 0 0.66 0 1 0 C1 4.62 1 9.24 1 14 C0.01 14.33 -0.98 14.66 -2 15 C-2 12.36 -2 9.72 -2 7 C-1.67 7 -1.34 7 -1 7 C-0.67 4.69 -0.34 2.38 0 0 Z " fill="#676360" transform="translate(492,709)"/>
<path d="M0 0 C-0.33 0.99 -0.66 1.98 -1 3 C-3.31 3 -5.62 3 -8 3 C-8 2.01 -8 1.02 -8 0 C-4.94736336 -0.98120464 -3.05263664 -0.98120464 0 0 Z " fill="#34302D" transform="translate(467,543)"/>
<path d="M0 0 C0.66 0.33 1.32 0.66 2 1 C1.34 1.66 0.68 2.32 0 3 C0.99 3.66 1.98 4.32 3 5 C-0.3 5.33 -3.6 5.66 -7 6 C-4.74259377 3.66475218 -2.7194239 1.81294927 0 0 Z " fill="#393431" transform="translate(514,487)"/>
<path d="M0 0 C0.33 0 0.66 0 1 0 C1.66 5.28 2.32 10.56 3 16 C1.68 15.34 0.36 14.68 -1 14 C-0.34 14 0.32 14 1 14 C0.835 13.175 0.67 12.35 0.5 11.5 C-0.05896045 7.58727683 -0.06807187 3.94816827 0 0 Z " fill="#726C68" transform="translate(312,538)"/>
<path d="M0 0 C0.5625 1.9375 0.5625 1.9375 1 4 C0 5 0 5 -3.4375 5.25 C-4.613125 5.1675 -5.78875 5.085 -7 5 C-7.66 4.01 -8.32 3.02 -9 2 C-6.03 2.33 -3.06 2.66 0 3 C0 2.01 0 1.02 0 0 Z " fill="#6F6A67" transform="translate(440,703)"/>
<path d="M0 0 C0.33 0 0.66 0 1 0 C1 3.63 1 7.26 1 11 C0.01 11 -0.98 11 -2 11 C-1.34 7.37 -0.68 3.74 0 0 Z " fill="#918B86" transform="translate(607,448)"/>
<path d="M0 0 C1.125 1.625 1.125 1.625 2 4 C1.25 7.1875 1.25 7.1875 0 10 C-0.99 10.495 -0.99 10.495 -2 11 C-1 3.57142857 -1 3.57142857 0 0 Z " fill="#4A4643" transform="translate(309,320)"/>
<path d="M0 0 C0.66 0.33 1.32 0.66 2 1 C-0.97 3.475 -0.97 3.475 -4 6 C-4.99 5.01 -5.98 4.02 -7 3 C-4.69631264 1.93347808 -2.35981813 0.93578995 0 0 Z " fill="#373532" transform="translate(380,256)"/>
<path d="M0 0 C0.66 0.33 1.32 0.66 2 1 C2 2.98 2 4.96 2 7 C1.01 7.33 0.02 7.66 -1 8 C-1.125 2.25 -1.125 2.25 0 0 Z " fill="#BEBAB7" transform="translate(415,606)"/>
<path d="M0 0 C2.31 0 4.62 0 7 0 C7 0.99 7 1.98 7 3 C5.02 3 3.04 3 1 3 C0.67 2.01 0.34 1.02 0 0 Z " fill="#BEBAB6" transform="translate(439,600)"/>
<path d="M0 0 C0.66 0.33 1.32 0.66 2 1 C-0.31 3.31 -2.62 5.62 -5 8 C-5.66 7.34 -6.32 6.68 -7 6 C-4.69 4.02 -2.38 2.04 0 0 Z " fill="#898380" transform="translate(496,593)"/>
<path d="M0 0 C2.31 0.33 4.62 0.66 7 1 C7 1.99 7 2.98 7 4 C5.35 4 3.7 4 2 4 C1.34 2.68 0.68 1.36 0 0 Z " fill="#A49C97" transform="translate(454,339)"/>
<path d="M0 0 C0.66 0 1.32 0 2 0 C2 2.31 2 4.62 2 7 C1.01 7.33 0.02 7.66 -1 8 C-0.67 5.36 -0.34 2.72 0 0 Z " fill="#C8C5C3" transform="translate(498,716)"/>
<path d="M0 0 C1.32 0.33 2.64 0.66 4 1 C3.67 2.32 3.34 3.64 3 5 C2.01 5 1.02 5 0 5 C0 3.35 0 1.7 0 0 Z " fill="#BDB8B5" transform="translate(423,606)"/>
<path d="M0 0 C0.99 0 1.98 0 3 0 C3 1.65 3 3.3 3 5 C1.68 4.67 0.36 4.34 -1 4 C-0.67 2.68 -0.34 1.36 0 0 Z " fill="#BDB9B5" transform="translate(431,595)"/>
<path d="M0 0 C2.31 0.33 4.62 0.66 7 1 C7 1.66 7 2.32 7 3 C5.02 3 3.04 3 1 3 C0.67 2.01 0.34 1.02 0 0 Z " fill="#C0BCB9" transform="translate(503,595)"/>
<path d="M0 0 C1.37562854 1.28965176 2.70766393 2.62689293 4 4 C4 4.66 4 5.32 4 6 C3.34 6 2.68 6 2 6 C1.67 6.99 1.34 7.98 1 9 C0.67 6.03 0.34 3.06 0 0 Z " fill="#C7B1A9" transform="translate(498,401)"/>
<path d="M0 0 C1.32 0.66 2.64 1.32 4 2 C2 4 2 4 -0.625 4.125 C-1.40875 4.08375 -2.1925 4.0425 -3 4 C-2.01 2.68 -1.02 1.36 0 0 Z " fill="#605B57" transform="translate(511,731)"/>
<path d="M0 0 C0.66 1.32 1.32 2.64 2 4 C3.98 4 5.96 4 8 4 C8 4.33 8 4.66 8 5 C5.03 5 2.06 5 -1 5 C-0.67 3.35 -0.34 1.7 0 0 Z " fill="#7F7976" transform="translate(487,638)"/>
<path d="M0 0 C2.97 0.33 5.94 0.66 9 1 C5.71299843 2.64350079 3.52069985 3.41321669 0 4 C0 2.66666667 0 1.33333333 0 0 Z " fill="#92837D" transform="translate(408,581)"/>
<path d="M0 0 C2.475 0.495 2.475 0.495 5 1 C5.33 1.99 5.66 2.98 6 4 C4.35 3.67 2.7 3.34 1 3 C0.67 2.01 0.34 1.02 0 0 Z " fill="#4A4746" transform="translate(333,579)"/>
</svg>
