<?xml version="1.0" encoding="UTF-8"?>
<svg version="1.1" xmlns="http://www.w3.org/2000/svg" width="900" height="900">
<path d="M0 0 C0.97839844 0.4640625 1.95679688 0.928125 2.96484375 1.40625 C8.01723132 3.85437846 12.71718827 6.31767353 17.171875 9.734375 C19.44808226 11.3102108 21.84509948 12.4956232 24.3125 13.75 C29.38772052 16.45724587 33.30729091 19.70817603 37.46875 23.65234375 C40.04808884 26.04460091 42.73369393 28.20313892 45.5 30.375 C51.25468299 35.02964373 56.41417721 40.18068041 61 46 C61 46.66 61 47.32 61 48 C61.99 48.33 62.98 48.66 64 49 C69.26814358 54.46283584 79 65.11835496 79 73 C79.66 73 80.32 73 81 73 C87.68093066 85.41576002 94.11633667 97.41696252 98.09765625 111.0078125 C98.8256316 113.42179137 99.62663751 115.72526828 100.5625 118.0625 C102.21503849 122.29657159 103.19328708 126.66638048 104.2578125 131.078125 C104.87299245 133.49999133 105.56099541 135.82780131 106.375 138.1875 C111.79148945 154.00708824 114.86149732 169.02477805 115.6875 185.75 C115.73616211 186.7085791 115.78482422 187.6671582 115.83496094 188.65478516 C116.02029193 193.2444993 115.99843934 197.63820915 115.45703125 202.203125 C115.01904475 205.96839601 115.12339649 209.23346284 115.70654297 212.96728516 C120.49586233 246.14188835 114.89096659 284.61301436 96.67578125 313.26171875 C95.34333391 315.43898118 94.21708886 317.55351057 93.109375 319.84375 C91.03063526 324.06328882 88.59783215 327.93775157 85.9375 331.8125 C85.4636084 332.5031958 84.9897168 333.1938916 84.50146484 333.90551758 C79.96004603 340.34804762 74.76201632 345.64186333 69 351 C67.72576172 352.28970703 67.72576172 352.28970703 66.42578125 353.60546875 C61.87663806 358.09600784 54.71836439 365 48 365 C49.09895588 368.83484644 50.20510933 372.66758157 51.3125 376.5 C51.7755957 378.11648438 51.7755957 378.11648438 52.24804688 379.765625 C54.21227015 386.54910678 54.21227015 386.54910678 56.59765625 393.19140625 C58.27756217 397.50153599 59.19900318 401.91493154 60.125 406.4375 C60.78024247 411.63187988 60.78024247 411.63187988 63 416 C63.22932157 417.89034838 63.39555987 419.78841648 63.53515625 421.6875 C63.62216797 422.86183594 63.70917969 424.03617188 63.79882812 425.24609375 C63.88583984 426.48488281 63.97285156 427.72367188 64.0625 429 C64.15337891 430.20785156 64.24425781 431.41570312 64.33789062 432.66015625 C64.58721864 436.10575689 64.80628317 439.55085109 65 443 C65.04962891 443.88099365 65.09925781 444.7619873 65.15039062 445.66967773 C65.4588546 455.59992521 59.62344748 464.83806086 53 472 C49.50737711 474.66104601 48.48597195 475 44 475 C44 475.66 44 476.32 44 477 C42.35 477.33 40.7 477.66 39 478 C38.7525 479.216875 38.505 480.43375 38.25 481.6875 C37.84319149 483.46062398 37.42519358 485.23119469 37 487 C36.74347656 488.0828125 36.48695313 489.165625 36.22265625 490.28125 C34.55710879 496.51454351 33.070991 501.02794329 27.9765625 505.14453125 C25.26957891 506.31613087 22.91336655 506.14361666 20 506 C20.85252502 514.29410436 20.85252502 514.29410436 23.5625 522.0625 C25.86800855 526.77375659 25.75680793 531.81749311 26 537 C13.67101721 542.59447532 1.29601028 543.47782177 -12.06079102 543.33618164 C-14.43215095 543.3125533 -16.80237951 543.31565583 -19.17382812 543.32226562 C-29.28251913 543.30225152 -38.99088806 542.43477276 -49 541 C-49.99 534.73 -50.98 528.46 -52 522 C-54.64 522 -57.28 522 -60 522 C-59.68289063 522.84820313 -59.36578125 523.69640625 -59.0390625 524.5703125 C-57.97128768 528.09477225 -57.59958921 531.20670957 -57.375 534.875 C-57.30023438 536.02742187 -57.22546875 537.17984375 -57.1484375 538.3671875 C-57.07496094 539.67042969 -57.07496094 539.67042969 -57 541 C-59.16567544 541.48362696 -61.33259741 541.96167317 -63.5 542.4375 C-65.30984375 542.83775391 -65.30984375 542.83775391 -67.15625 543.24609375 C-89.37350139 547.6037457 -115.29498816 546.72796863 -137 540 C-136.86164197 535.54140138 -136.71305421 531.08320214 -136.5625 526.625 C-136.52318359 525.35398437 -136.48386719 524.08296875 -136.44335938 522.7734375 C-136.40146484 521.56171875 -136.35957031 520.35 -136.31640625 519.1015625 C-136.27974854 517.98088379 -136.24309082 516.86020508 -136.20532227 515.70556641 C-136 513 -136 513 -135 511 C-135.99 511.33 -136.98 511.66 -138 512 C-142.37748349 512.35881012 -145.04728847 512.38108461 -149.125 510.75 C-152.16252857 507.84453789 -152.76406376 506.20300793 -154.25 502.375 C-158.30612457 493.35400165 -167.46561436 489.98753045 -176 486 C-176 485.34 -176 484.68 -176 484 C-176.58652344 483.74734375 -177.17304688 483.4946875 -177.77734375 483.234375 C-183.43171276 480.09416303 -187.64239441 473.89401397 -190 468 C-190.6875 465.125 -190.6875 465.125 -191 463 C-191.825 463.33 -192.65 463.66 -193.5 464 C-197.5873983 465.16782809 -200.76923344 465.1458885 -205 465 C-214.05022163 446.0429514 -206.11332865 417.08914148 -200.57128906 398.06494141 C-199.69054145 394.88145281 -199.03552454 391.67407026 -198.375 388.4375 C-197.22520029 382.84618829 -195.76336944 377.42767613 -194 372 C-194.58265625 371.59910156 -195.1653125 371.19820312 -195.765625 370.78515625 C-205.76149897 363.85405496 -215.42747845 356.50137597 -225 349 C-226.52012147 347.81158888 -228.04095955 346.62409383 -229.5625 345.4375 C-230.67625 344.56351563 -230.67625 344.56351563 -231.8125 343.671875 C-233.20470501 342.6078326 -234.61983966 341.57268629 -236.0625 340.578125 C-240.9882153 337.15321358 -244.443959 333.26099779 -248.04296875 328.46484375 C-249.97990234 325.91629102 -249.97990234 325.91629102 -252.46875 323.60546875 C-255.26074105 320.73161377 -257.2269949 317.79192926 -259.3125 314.375 C-259.67150391 313.80265625 -260.03050781 313.2303125 -260.40039062 312.640625 C-262.09419427 309.86601332 -263 308.31104838 -263 305 C-263.66 305 -264.32 305 -265 305 C-267.41735959 299.12926957 -268.94633924 293.29518761 -270.3125 287.09765625 C-270.84659716 284.69118438 -271.42642521 282.31781114 -272.0625 279.9375 C-273.19598923 275.52633776 -273.84616074 271.03746296 -274.53515625 266.5390625 C-274.87471731 264.01820677 -274.87471731 264.01820677 -276 262 C-276.20532132 260.65115298 -276.36589844 259.2952783 -276.5 257.9375 C-276.5825 257.14085937 -276.665 256.34421875 -276.75 255.5234375 C-276.91666667 253.84114583 -277.08333333 252.15885417 -277.25 250.4765625 C-277.37375 249.28160156 -277.37375 249.28160156 -277.5 248.0625 C-277.5721875 247.33160156 -277.644375 246.60070312 -277.71875 245.84765625 C-277.91678044 243.9101711 -277.91678044 243.9101711 -279 242 C-279.2405836 239.40293575 -279.42666255 236.82549363 -279.5703125 234.22265625 C-279.61620514 233.43253143 -279.66209778 232.64240662 -279.7093811 231.82833862 C-279.85543063 229.24007086 -279.99179563 226.65145949 -280.125 224.0625 C-280.170802 223.18296661 -280.216604 222.30343323 -280.26379395 221.39724731 C-281.27214578 201.48411378 -281.3937923 181.71227697 -278 162 C-277.82016824 160.43896042 -277.6523165 158.8764641 -277.5 157.3125 C-276.45044156 147.61742628 -274.12355765 138.34413989 -271.53222656 128.95703125 C-271.00180718 127.00664513 -270.49347448 125.05181028 -269.9921875 123.09375 C-268.04383794 115.54581312 -265.81397338 108.26685433 -263 101 C-262.59652344 99.91589844 -262.19304687 98.83179688 -261.77734375 97.71484375 C-259.75667825 92.33258181 -257.7025038 87.05341084 -255.02734375 81.9609375 C-254.26258149 80.50120117 -253.53066846 79.02416214 -252.81640625 77.5390625 C-250.60885385 72.95890705 -248.29478779 68.86735813 -245.2265625 64.8203125 C-243.83478838 62.75481333 -242.8909999 60.64820841 -241.875 58.375 C-238.74855182 51.88465188 -234.05085737 46.79899258 -229.29541016 41.46289062 C-228.18185505 40.20536665 -227.09412795 38.92505556 -226.01171875 37.640625 C-220.06543017 30.58709647 -213.28686983 24.2212459 -205 20 C-204.34 20 -203.68 20 -203 20 C-203 19.34 -203 18.68 -203 18 C-192.78231737 12.2554964 -182.23086371 9.21350903 -170.625 7.9375 C-162.15195887 7.0007265 -156.29624935 5.48135592 -149.8828125 -0.328125 C-141.77363464 -7.52880575 -133.01894781 -11.30157698 -123 -15 C-122.15953125 -15.36222656 -121.3190625 -15.72445312 -120.453125 -16.09765625 C-85.18314381 -29.07116844 -32.76286898 -15.95409272 0 0 Z " fill="#1D1C1A" transform="translate(503,206)"/>
<path d="M0 0 C6.19357318 0.08862399 11.40183286 4.30221631 16.453125 7.4921875 C17.51724609 8.14058594 18.58136719 8.78898438 19.67773438 9.45703125 C24.99455639 12.73341334 30.22512133 16.14094803 35.37109375 19.6796875 C36.26594482 20.29199219 37.1607959 20.90429688 38.08276367 21.53515625 C40.49427501 23.82850954 40.84931599 25.22896302 41.140625 28.4921875 C42.09195313 28.62753906 43.04328125 28.76289063 44.0234375 28.90234375 C49.98584809 30.61852276 53.8426967 35.59054603 58.015625 39.9296875 C59.35343018 41.29468384 59.35343018 41.29468384 60.71826172 42.68725586 C65.83510222 47.9540938 70.72159649 53.27436331 75.22265625 59.078125 C77.34198586 61.74563152 79.62055449 64.19698294 81.953125 66.6796875 C93.6308784 79.46356351 107.92302587 96.33859343 110.515625 114.0546875 C110.00340678 117.3841059 108.26125806 118.89735206 106.140625 121.4921875 C105.60824219 122.33136719 105.07585937 123.17054688 104.52734375 124.03515625 C96.27437288 136.87943505 82.55906302 143.16083439 69.140625 149.4921875 C68.13 150.00523437 67.119375 150.51828125 66.078125 151.046875 C63.32212042 152.40288789 60.56052286 153.55699359 57.703125 154.6796875 C46.75745533 159.21315516 36.00275831 164.52709386 27.140625 172.4921875 C26.18542969 173.33136719 25.23023438 174.17054688 24.24609375 175.03515625 C16.14242942 182.45646074 11.0137006 190.71191624 6.140625 200.4921875 C5.65110352 201.43658691 5.16158203 202.38098633 4.65722656 203.35400391 C-0.0059764 213.00320076 -1.55520614 222.82124788 -2.07055664 233.43066406 C-2.17185579 235.49179658 -2.29981078 237.54999225 -2.43164062 239.609375 C-3.1175959 251.19182198 -2.69165685 262.42272541 -0.046875 273.7421875 C0.12908203 274.51594727 0.30503906 275.28970703 0.48632812 276.08691406 C1.59096639 280.73936739 2.97933351 284.93782086 5.13671875 289.21875 C6.95526629 293.3370172 7.96575725 297.71865379 9.11328125 302.0625 C10.00185363 305.02891274 11.11687676 307.72755444 12.37133789 310.55078125 C13.89519931 314.39646389 14.81994361 318.42437472 15.828125 322.4296875 C16.16553711 323.74163086 16.16553711 323.74163086 16.50976562 325.08007812 C17.05839292 327.21622271 17.60188464 329.35353216 18.140625 331.4921875 C7.41955799 335.0658765 -6.13902848 332.10915785 -16.94189453 329.87158203 C-18.56921488 329.54959886 -20.21192938 329.30702686 -21.85546875 329.08203125 C-24.41988362 328.58093869 -25.85736298 328.17580724 -27.859375 326.4921875 C-29.96708224 322.3347833 -30.86659144 318.02527472 -31.859375 313.4921875 C-32.37123527 311.58649236 -32.88316975 309.68081319 -33.3996582 307.77636719 C-37.32951272 292.93882389 -39.22040316 277.72498459 -40.859375 262.4921875 C-45.28542179 277.69043472 -41.81420174 296.75538544 -39.19458008 311.99633789 C-39.01048584 313.06746826 -38.8263916 314.13859863 -38.63671875 315.2421875 C-38.46390381 316.18578125 -38.29108887 317.129375 -38.11303711 318.1015625 C-37.859375 320.4921875 -37.859375 320.4921875 -38.859375 323.4921875 C-43.63090637 322.35762338 -46.93211294 320.92651444 -49.65234375 316.71875 C-51.20805221 313.35138105 -52.57601612 309.97221587 -53.859375 306.4921875 C-54.23835938 305.49703125 -54.61734375 304.501875 -55.0078125 303.4765625 C-55.65614791 301.73141907 -56.29020038 299.98082145 -56.90234375 298.22265625 C-57.43291219 296.70891201 -57.97681568 295.19898744 -58.57324219 293.70996094 C-60.57680704 288.65977687 -61.76047457 283.70349577 -62.734375 278.3671875 C-64.20668798 270.66844612 -65.81118714 263.01101082 -67.546875 255.3671875 C-67.76134277 254.41312012 -67.97581055 253.45905273 -68.19677734 252.47607422 C-68.39867676 251.59193848 -68.60057617 250.70780273 -68.80859375 249.796875 C-68.98737061 249.01296387 -69.16614746 248.22905273 -69.3503418 247.42138672 C-69.8057394 245.42927284 -69.8057394 245.42927284 -70.859375 243.4921875 C-73.86758808 256.16965693 -73.14859924 268.70102256 -71.984375 281.5546875 C-71.90606445 282.43495605 -71.82775391 283.31522461 -71.74707031 284.22216797 C-71.24927678 289.2125005 -70.32583474 293.70175237 -68.859375 298.4921875 C-68.734375 301.4296875 -68.734375 301.4296875 -68.859375 303.4921875 C-72.71691773 301.92059602 -75.00300432 299.48141263 -77.859375 296.4921875 C-78.39691406 295.986875 -78.93445313 295.4815625 -79.48828125 294.9609375 C-85.86831136 288.90918635 -91.47249112 281.66055451 -94.859375 273.4921875 C-94.859375 272.5021875 -94.859375 271.5121875 -94.859375 270.4921875 C-95.519375 270.4921875 -96.179375 270.4921875 -96.859375 270.4921875 C-102.44067581 245.09111706 -107.49249354 219.58294168 -107.859375 193.4921875 C-107.87983887 192.24131348 -107.90030273 190.99043945 -107.92138672 189.70166016 C-108.18790474 171.86002394 -107.94644208 154.23756251 -105.859375 136.4921875 C-105.73747803 135.31430664 -105.61558105 134.13642578 -105.48999023 132.92285156 C-104.42590179 123.3430981 -102.61018919 114.12505044 -100.24780273 104.78320312 C-99.67318214 102.49738725 -99.12405569 100.20641426 -98.57617188 97.9140625 C-96.35768117 88.88985728 -93.44581465 80.56183155 -89.5144043 72.140625 C-88.31376733 69.56683482 -87.26761584 66.97560876 -86.29003906 64.30908203 C-81.15396897 50.32025359 -71.97506748 38.23943021 -61.859375 27.4921875 C-61.12332031 26.67621094 -60.38726562 25.86023438 -59.62890625 25.01953125 C-55.23091328 20.34099088 -50.37186315 16.44091691 -45.234375 12.6171875 C-44.61264404 12.15223877 -43.99091309 11.68729004 -43.3503418 11.20825195 C-34.37573823 4.71423975 -24.7870562 2.36160018 -13.921875 1.3671875 C-13.06658203 1.28082031 -12.21128906 1.19445312 -11.33007812 1.10546875 C-9.63303154 0.94236587 -7.93401121 0.79856311 -6.23364258 0.67480469 C-4.14977727 0.51452384 -2.07322874 0.26439962 0 0 Z " fill="#A39B96" transform="translate(348.859375,229.5078125)"/>
<path d="M0 0 C4.60762682 0.5979363 8.22350689 2.57861398 12.25 4.75 C24.15607819 10.91734575 36.68996829 13.98631532 49.828125 16.32421875 C53 17 53 17 55.421875 18.01953125 C58.14173105 19.18015064 58.14173105 19.18015064 61.82421875 19.3984375 C66.34123773 19.88750775 69.83076232 21.51332363 73.8125 23.625 C74.50827148 23.9869043 75.20404297 24.34880859 75.92089844 24.72167969 C77.9582516 25.79540715 79.98102475 26.89217057 82 28 C83.51400391 28.82371094 83.51400391 28.82371094 85.05859375 29.6640625 C87.84322495 31.30493371 90.41187708 33.06361691 93 35 C93.80606689 35.59409668 93.80606689 35.59409668 94.62841797 36.20019531 C104.17331333 43.49298555 104.17331333 43.49298555 105.52001953 49.20605469 C106.01705116 54.19712386 105.63490414 59.03834172 105 64 C102.69 63.34 100.38 62.68 98 62 C98 61.34 98 60.68 98 60 C82.71259068 60.47256288 72.35123532 65.33795819 61.5859375 76.50390625 C56.25845728 82.81969994 51.74868462 89.69386006 47.26171875 96.6171875 C44.12189611 101.36632653 41.62326986 105.04106996 36.3125 107.4375 C32.60770854 109.34494338 32.60770854 109.34494338 30.6875 113.0625 C31.08629418 116.81116527 32.34416482 117.42004582 35 120 C35.55209056 121.88360308 36.09373664 123.77414793 36.49609375 125.6953125 C37.07523372 128.34409222 37.8352188 130.90657895 38.625 133.5 C38.88539063 134.3559375 39.14578125 135.211875 39.4140625 136.09375 C39.70410156 137.03734375 39.70410156 137.03734375 40 138 C40.66 138 41.32 138 42 138 C43.19140625 139.6875 43.19140625 139.6875 44.5625 142 C48.79743931 148.57038378 54.35946666 154.63562764 62 157 C68.03606852 157.59745656 73.32491634 157.21466679 79 155 C80.32 155 81.64 155 83 155 C83 154.34 83 153.68 83 153 C84.40176951 152.11107299 85.80379296 151.22254412 87.20703125 150.3359375 C91.8255626 146.89467885 95.61834998 142.23029025 98 137 C98.66 137 99.32 137 100 137 C101.15908039 148.9256493 97.89502694 162.53821394 90.57421875 172.1640625 C90.05472656 172.76992188 89.53523437 173.37578125 89 174 C88.51144531 174.58523438 88.02289062 175.17046875 87.51953125 175.7734375 C82.21731964 181.56004869 75.52080088 185.72612569 69 190 C68.19820312 190.53625 67.39640625 191.0725 66.5703125 191.625 C54.4261604 199.35691691 40.89067274 204.47575753 27 208 C26.0821875 208.27457031 25.164375 208.54914063 24.21875 208.83203125 C-6.10347009 217.88410578 -42.83477917 214.01779858 -73.625 208.0625 C-74.45451172 207.90483154 -75.28402344 207.74716309 -76.13867188 207.5847168 C-81.08540773 206.58098022 -85.53719168 205.39861532 -90 203 C-91.234375 201.08984375 -91.234375 201.08984375 -91.75 198.9375 C-92.06904297 197.74447266 -92.06904297 197.74447266 -92.39453125 196.52734375 C-92.59433594 195.69332031 -92.79414063 194.85929688 -93 194 C-93.46778055 192.33010185 -93.94704912 190.66338102 -94.4375 189 C-94.68371094 188.1646875 -94.92992187 187.329375 -95.18359375 186.46875 C-96.23452496 183.29081447 -97.61641395 180.32405369 -99.02734375 177.29296875 C-100.40993464 174.0336079 -101.31814491 170.67571091 -102.28125 167.2734375 C-102.99212875 164.80762426 -102.99212875 164.80762426 -104.5625 161.9375 C-106.12861957 158.7371687 -106.77163865 155.83122576 -107.46484375 152.359375 C-108.16255425 149.28333746 -109.20689049 146.38272114 -110.31640625 143.43359375 C-112.46974726 135.76769976 -112.24911918 127.71041728 -112.29516602 119.81103516 C-112.30666266 118.44406768 -112.32707827 117.07714429 -112.35668945 115.71044922 C-112.55611422 106.46115097 -111.5927775 98.61292012 -108 90 C-104.43932552 90 -103.49533702 90.53062487 -101 93 C-100.59350586 95.28979492 -100.59350586 95.28979492 -100.71484375 97.98046875 C-100.74384766 98.97191895 -100.77285156 99.96336914 -100.80273438 100.98486328 C-100.84720703 102.0417334 -100.89167969 103.09860352 -100.9375 104.1875 C-101.28294784 122.90575832 -98.52637942 137.37757302 -86 152 C-73.03945675 164.23884246 -56.48783265 166.62584019 -39.46875 166.24609375 C-25.61455656 165.66787679 -14.2921591 157.92022531 -5 148 C-0.29053084 141.81688951 2.26149947 135.04120313 4.62890625 127.6875 C6 125 6 125 8.65234375 123.625 C9.42707031 123.41875 10.20179688 123.2125 11 123 C11.43210483 119.92125309 11.67132031 117.97670712 11 115 C7.54077923 110.52853906 3.226376 107.88755859 -2.0234375 105.921875 C-11.67521237 101.42025668 -19.47066527 93.25098619 -26.1875 85.1875 C-38.04952007 71.50467324 -53.72294058 60.8463237 -70.83203125 55.15625 C-74 54 -74 54 -76 52 C-69.90355899 48.8841711 -63.75049023 45.95253973 -57.50073242 43.15771484 C-34.05720391 32.64808649 -14.08107359 22.28213843 0 0 Z " fill="#D0B9B2" transform="translate(473,353)"/>
<path d="M0 0 C1.09006348 0.01313232 2.18012695 0.02626465 3.30322266 0.03979492 C6.47395277 0.08773707 9.64264521 0.1622801 12.8125 0.25 C13.63540527 0.27078613 14.45831055 0.29157227 15.30615234 0.31298828 C32.16874649 0.80992131 47.94993152 3.52969061 63.8125 9.25 C65.55853224 9.76368417 67.30820185 10.26529596 69.0625 10.75 C73.60334084 12.07976371 77.80226653 13.94621723 82.07421875 15.96875 C84.01957243 16.87898681 85.9937873 17.72862503 87.984375 18.53515625 C102.83220726 24.87232628 116.05697998 34.32485605 127.8125 45.25 C129.14242435 46.35827029 130.47526694 47.46305943 131.8125 48.5625 C142.42474649 57.96777425 151.3738266 68.55006646 158.79882812 80.60742188 C159.69429452 82.05845702 160.61849796 83.49167253 161.546875 84.921875 C165.81985992 91.66173781 168.8154211 98.87192192 171.8125 106.25 C172.19535156 107.17425781 172.57820312 108.09851563 172.97265625 109.05078125 C176.64934601 118.03979842 179.35719386 127.1615442 181.90161133 136.5222168 C183.07527172 140.78297037 184.35424508 144.93147855 185.9375 149.0625 C190.67060389 161.53719892 191.99465348 174.08618836 191.875 187.3125 C191.87048828 188.27349609 191.86597656 189.23449219 191.86132812 190.22460938 C191.84967706 192.56647422 191.83332025 194.90820181 191.8125 197.25 C191.1525 197.25 190.4925 197.25 189.8125 197.25 C189.8125 196.59 189.8125 195.93 189.8125 195.25 C188.94818359 194.9096875 188.94818359 194.9096875 188.06640625 194.5625 C185.19392222 192.88978833 183.75939949 190.89414438 181.75 188.25 C169.07400636 172.44107785 153.78870404 162.5896799 134.8125 156.25 C133.94496094 155.88648438 133.07742188 155.52296875 132.18359375 155.1484375 C129.59936232 154.16923943 127.23541958 153.75416707 124.5 153.375 C116.80203905 152.15953248 109.32415177 150.28920338 101.8125 148.25 C101.1201123 148.06566406 100.42772461 147.88132812 99.71435547 147.69140625 C86.507961 144.11794752 75.28057611 138.41941508 65.8125 128.25 C65.8125 127.59 65.8125 126.93 65.8125 126.25 C65.19157471 126.15195068 64.57064941 126.05390137 63.9309082 125.95288086 C61.8125 125.25 61.8125 125.25 59.91796875 122.00390625 C59.26750327 120.61192356 58.62881683 119.21439535 58 117.8125 C54.82732951 111.12236787 51.36449727 105.11968069 46.8125 99.25 C45.83796875 97.98929688 45.83796875 97.98929688 44.84375 96.703125 C41.24527768 92.13583321 37.51180733 87.71519965 33.6484375 83.37109375 C31.5305598 80.92426909 29.520672 78.40261252 27.5 75.875 C23.6160858 71.08815874 19.43316218 66.76211511 15.0234375 62.4609375 C13.27860357 60.71610357 11.71088755 58.99485066 10.1875 57.0625 C7.62643597 54.02966101 4.85396295 51.59098247 1.8359375 49.02734375 C-0.03219961 47.38641251 -1.72917277 45.67916022 -3.4375 43.875 C-14.51193806 32.6758498 -29.81608918 22.67486602 -44.1875 16.25 C-40.81027682 12.46785465 -37.04858645 10.15517583 -32.6875 7.6875 C-32.04296875 7.30142578 -31.3984375 6.91535156 -30.734375 6.51757812 C-21.04661089 1.00719292 -10.98590616 -0.23041924 0 0 Z " fill="#CCC2BC" transform="translate(408.1875,203.75)"/>
<path d="M0 0 C7.04324168 4.9213818 13.04379586 10.84289215 19 17 C19.928125 17.9075 20.85625 18.815 21.8125 19.75 C24 22 24 22 26 24.75 C28.31243196 27.35148596 29.59332791 27.71611066 33 28 C33.66 26.02 34.32 24.04 35 22 C38 23 38 23 38.94921875 24.671875 C41.68582626 32.37491835 41.68582626 32.37491835 41 36 C39.68258619 37.67927854 38.34682945 39.34422043 37 41 C36.20142578 42.25876953 36.20142578 42.25876953 35.38671875 43.54296875 C27.13374788 56.38724755 13.41843802 62.66864689 0 69 C-1.010625 69.51304687 -2.02125 70.02609375 -3.0625 70.5546875 C-5.81850458 71.91070039 -8.58010214 73.06480609 -11.4375 74.1875 C-22.38316967 78.72096766 -33.13786669 84.03490636 -42 92 C-42.95519531 92.83917969 -43.91039062 93.67835938 -44.89453125 94.54296875 C-52.99819558 101.96427324 -58.1269244 110.21972874 -63 120 C-63.48952148 120.94439941 -63.97904297 121.88879883 -64.48339844 122.86181641 C-69.1466014 132.51101326 -70.69583114 142.32906038 -71.21118164 152.93847656 C-71.31248079 154.99960908 -71.44043578 157.05780475 -71.57226562 159.1171875 C-72.2582209 170.69963448 -71.83228185 181.93053791 -69.1875 193.25 C-69.01154297 194.02375977 -68.83558594 194.79751953 -68.65429688 195.59472656 C-67.54965861 200.24717989 -66.16129149 204.44563336 -64.00390625 208.7265625 C-62.18535871 212.8448297 -61.17486775 217.22646629 -60.02734375 221.5703125 C-59.13877137 224.53672524 -58.02374824 227.23536694 -56.76928711 230.05859375 C-55.24542569 233.90427639 -54.32068139 237.93218722 -53.3125 241.9375 C-53.08755859 242.81212891 -52.86261719 243.68675781 -52.63085938 244.58789062 C-52.08224525 246.72398394 -51.54041943 248.86181878 -51 251 C-54.63 251 -58.26 251 -62 251 C-63.19056302 248.14264876 -64.38037697 245.28501897 -65.56640625 242.42578125 C-66.47669358 240.25051698 -67.39972805 238.08050896 -68.33984375 235.91796875 C-75.71469627 218.81458737 -75.71469627 218.81458737 -75 210 C-75.66 210 -76.32 210 -77 210 C-77.12117188 209.24976563 -77.24234375 208.49953125 -77.3671875 207.7265625 C-78.6380162 199.96473186 -80.05527451 192.26100413 -81.7578125 184.58203125 C-82.02335937 183.37933594 -82.28890625 182.17664063 -82.5625 180.9375 C-82.81128906 179.83277344 -83.06007813 178.72804688 -83.31640625 177.58984375 C-84.75040578 170.05929765 -85.15823538 162.63481479 -85.16796875 154.98046875 C-85.17129715 154.04181473 -85.17462555 153.10316071 -85.17805481 152.13606262 C-85.18309124 150.15524785 -85.18546416 148.17442468 -85.18530273 146.19360352 C-85.18746621 143.23373521 -85.20559355 140.27425457 -85.22460938 137.31445312 C-85.27200423 121.33220747 -84.53471463 105.56145588 -80.84765625 89.9609375 C-79.88241146 85.70109684 -79.24182927 81.39549442 -78.56567383 77.08203125 C-77.24660238 68.67479084 -75.94851459 60.5917575 -72.9375 52.59375 C-71.88416132 49.67951298 -71.15371191 46.76405847 -70.4375 43.75 C-69.29420915 38.97691688 -67.79312024 34.56430606 -66 30 C-65.649081 28.67118672 -65.31118348 27.33867611 -65 26 C-64.33613281 26.05800781 -63.67226563 26.11601562 -62.98828125 26.17578125 C-61.66376953 26.24345703 -61.66376953 26.24345703 -60.3125 26.3125 C-59.44238281 26.37050781 -58.57226562 26.42851562 -57.67578125 26.48828125 C-53.85858688 25.79171293 -52.54615813 23.87086259 -50 21 C-48.16953715 19.1221976 -46.33614386 17.24724781 -44.5 15.375 C-43.5821875 14.43398438 -42.664375 13.49296875 -41.71875 12.5234375 C-39.24077725 10.22348003 -36.91773124 8.6644443 -34 7 C-33.236875 6.21625 -32.47375 5.4325 -31.6875 4.625 C-22.26500328 -4.57836889 -11.55408241 -6.81345391 0 0 Z " fill="#CCC2BC" transform="translate(418,310)"/>
<path d="M0 0 C1.09006348 0.01313232 2.18012695 0.02626465 3.30322266 0.03979492 C6.47395277 0.08773707 9.64264521 0.1622801 12.8125 0.25 C13.63540527 0.27078613 14.45831055 0.29157227 15.30615234 0.31298828 C32.16874649 0.80992131 47.94993152 3.52969061 63.8125 9.25 C65.55853224 9.76368417 67.30820185 10.26529596 69.0625 10.75 C73.60334084 12.07976371 77.80226653 13.94621723 82.07421875 15.96875 C84.01957243 16.87898681 85.9937873 17.72862503 87.984375 18.53515625 C102.83220726 24.87232628 116.05697998 34.32485605 127.8125 45.25 C129.14242435 46.35827029 130.47526694 47.46305943 131.8125 48.5625 C142.42474649 57.96777425 151.3738266 68.55006646 158.79882812 80.60742188 C159.69429452 82.05845702 160.61849796 83.49167253 161.546875 84.921875 C165.81985992 91.66173781 168.8154211 98.87192192 171.8125 106.25 C172.19535156 107.17425781 172.57820312 108.09851563 172.97265625 109.05078125 C176.64934601 118.03979842 179.35719386 127.1615442 181.90161133 136.5222168 C183.07527172 140.78297037 184.35424508 144.93147855 185.9375 149.0625 C191.38457862 163.85375414 191.15382316 177.61739941 190.8125 193.25 C187.8125 189.5 187.8125 189.5 187.8125 187.25 C187.1525 187.25 186.4925 187.25 185.8125 187.25 C185.3278125 186.26902344 184.843125 185.28804687 184.34375 184.27734375 C183.66711608 182.91383939 182.98999315 181.55057763 182.3125 180.1875 C181.9501123 179.45724609 181.58772461 178.72699219 181.21435547 177.97460938 C179.48535793 174.51212534 177.73885469 171.07064042 175.8515625 167.69140625 C171.06918704 159.09289037 167.24846917 150.28438855 163.53271484 141.17504883 C158.43904214 128.75689071 152.36384379 116.9630086 145.8125 105.25 C145.14089844 105.57355469 144.46929688 105.89710938 143.77734375 106.23046875 C140.18332833 107.46635547 137.17196906 107.55102879 133.375 107.5625 C132.09753906 107.57925781 130.82007813 107.59601563 129.50390625 107.61328125 C122.03954338 106.87869316 116.18308402 102.23490473 110.8125 97.25 C104.32701339 89.27557165 99.37351692 80.66378348 100.33642578 70.30957031 C100.73759969 64.79851862 101.01877706 60.78174811 97.49609375 56.30859375 C94.3753518 53.95309121 91.28051532 52.05204839 87.8125 50.25 C86.96558594 49.80011719 86.11867188 49.35023438 85.24609375 48.88671875 C83.65589215 48.08244875 82.05106391 47.30651195 80.43359375 46.55859375 C77.29029904 44.98928864 74.39822278 43.14049719 71.4375 41.25 C65.44445374 37.49905811 59.37819731 34.81675986 52.8125 32.25 C51.35014822 31.5921947 49.89151375 30.92603592 48.4375 30.25 C34.60705713 23.95271972 34.60705713 23.95271972 19.8125 24.25 C18.87664062 24.4253125 17.94078125 24.600625 16.9765625 24.78125 C14.57989721 25.23775767 12.19554679 25.72775783 9.8125 26.25 C11.1325 26.58 12.4525 26.91 13.8125 27.25 C13.8125 27.91 13.8125 28.57 13.8125 29.25 C10.83784237 30.95754834 8.67389168 31.52317355 5.25 31.5 C4.48558594 31.50515625 3.72117187 31.5103125 2.93359375 31.515625 C0.8125 31.25 0.8125 31.25 -2.1875 29.25 C-2.48046875 26.8671875 -2.48046875 26.8671875 -2.375 24.125 C-2.33439453 22.75988281 -2.33439453 22.75988281 -2.29296875 21.3671875 C-2.25816406 20.66851562 -2.22335937 19.96984375 -2.1875 19.25 C-2.950625 19.12625 -3.71375 19.0025 -4.5 18.875 C-6.45056504 18.54439576 -8.40075841 18.20260924 -10.33203125 17.7734375 C-19.84747841 15.76545338 -29.4993243 15.61057853 -39.1875 15.25 C-38.59293273 11.86401221 -38.39065102 11.40098671 -35.44921875 9.21484375 C-34.26565131 8.52542568 -33.07379197 7.85009109 -31.875 7.1875 C-31.31232422 6.84912109 -30.74964844 6.51074219 -30.16992188 6.16210938 C-20.75905455 0.83306402 -10.62953241 -0.22294463 0 0 Z " fill="#E4DFDC" transform="translate(408.1875,203.75)"/>
<path d="M0 0 C4.60762682 0.5979363 8.22350689 2.57861398 12.25 4.75 C24.15607819 10.91734575 36.68996829 13.98631532 49.828125 16.32421875 C53 17 53 17 55.421875 18.01953125 C58.14173105 19.18015064 58.14173105 19.18015064 61.82421875 19.3984375 C66.34123773 19.88750775 69.83076232 21.51332363 73.8125 23.625 C74.50827148 23.9869043 75.20404297 24.34880859 75.92089844 24.72167969 C77.9582516 25.79540715 79.98102475 26.89217057 82 28 C83.51400391 28.82371094 83.51400391 28.82371094 85.05859375 29.6640625 C87.84322495 31.30493371 90.41187708 33.06361691 93 35 C93.80606689 35.59409668 93.80606689 35.59409668 94.62841797 36.20019531 C104.17331333 43.49298555 104.17331333 43.49298555 105.52001953 49.20605469 C106.01705116 54.19712386 105.63490414 59.03834172 105 64 C102.69 63.34 100.38 62.68 98 62 C98 61.34 98 60.68 98 60 C83.5702905 60.44604975 74.93411487 64.49274834 64 74 C61.75095963 76.53383506 59.78708384 79.12342207 58 82 C57.3090625 81.26910156 56.618125 80.53820312 55.90625 79.78515625 C53.0484366 76.92834913 49.8568183 74.6688885 46.5 72.4375 C38.38295578 66.98533225 38.38295578 66.98533225 35 64 C35 63.34 35 62.68 35 62 C34.44570313 61.79246094 33.89140625 61.58492188 33.3203125 61.37109375 C30.160201 59.50375514 28.13879263 56.88720267 25.875 54.0625 C25.43285156 53.52431641 24.99070312 52.98613281 24.53515625 52.43164062 C22.56370487 50.01646378 20.7306461 47.59596915 19 45 C19.369295 50.73043966 20.20063113 54.88810902 23 60 C23 60.99 23 61.98 23 63 C23.66 63 24.32 63 25 63 C26.8597711 65.59240819 28.57205423 68.14410847 30 71 C25.23457826 69.48059017 20.56030882 67.85112784 15.9375 65.9375 C8.74874968 63.03093737 1.73433778 61.50314149 -6 61 C-7.00675781 60.93425781 -8.01351562 60.86851562 -9.05078125 60.80078125 C-16.11887583 60.56436286 -22.67429918 61.28170168 -29.5625 62.75 C-30.32425537 62.90686279 -31.08601074 63.06372559 -31.87084961 63.2253418 C-36.48051636 64.29407917 -39.47281265 65.675364 -43 69 C-46.63466997 67.70144891 -49.29228012 66.13184303 -52.3125 63.75 C-57.42965384 60.04180531 -62.71530225 57.98343435 -68.6418457 55.95410156 C-73.82870426 54.17129574 -73.82870426 54.17129574 -76 52 C-69.90355899 48.8841711 -63.75049023 45.95253973 -57.50073242 43.15771484 C-34.05720391 32.64808649 -14.08107359 22.28213843 0 0 Z " fill="#B29E97" transform="translate(473,353)"/>
<path d="M0 0 C0 0.66 0 1.32 0 2 C0.70125 2.185625 1.4025 2.37125 2.125 2.5625 C6.91570121 4.95785061 9.99080528 8.72503562 12.15234375 13.59765625 C14.75306434 24.03649328 14.1530861 36.89078643 10.75390625 47.0390625 C4.94077954 53.5383712 -7.31623787 53.37377704 -15.5 54.5625 C-16.23384918 54.67016693 -16.96769836 54.77783386 -17.7237854 54.88876343 C-39.06811068 57.99933005 -60.00144309 59.17739668 -81.5625 59.25 C-83.04839127 59.25817245 -83.04839127 59.25817245 -84.56430054 59.26651001 C-98.2631246 59.32259628 -111.54673907 58.82691588 -125 56 C-124.16520545 41.65471473 -123.08030133 27.32853814 -122 13 C-115.4375 11.25 -115.4375 11.25 -113.39550781 10.70751953 C-109.94349654 9.789602 -106.49418824 8.86378892 -103.05078125 7.9140625 C-79.96410517 1.6025971 -55.550092 -0.22213017 -33.78125 11.78125 C-28.64078871 15.88206743 -27.07797191 20.65344036 -26 27 C-25.24473642 34.99577509 -25.68094378 43.08566266 -27 51 C-26.54625 49.96875 -26.0925 48.9375 -25.625 47.875 C-25.36976563 47.29492188 -25.11453125 46.71484375 -24.8515625 46.1171875 C-21.6064189 38.04898644 -20.98235828 30.57363153 -22 22 C-23.54048294 18.51152264 -25.403517 15.78194607 -28 13 C-25.45902293 7.0582203 -19.93515983 3.61675554 -14.125 1.125 C-9.4853425 -0.4554411 -4.84261457 -0.26793154 0 0 Z " fill="#A39C98" transform="translate(515,582)"/>
<path d="M0 0 C6.8357061 -0.59860703 12.37256655 1.5826141 18.75 3.875 C25.69335475 6.35602196 32.35698304 8.39263621 39.64208984 9.57910156 C42.38951215 10.06952981 44.85656732 10.88224181 47.4375 11.9375 C53.19479532 14.1412105 59.00779933 15.58429879 65 17 C67.87700676 17.70031054 70.7511351 18.41192368 73.625 19.125 C74.32455811 19.29580078 75.02411621 19.46660156 75.74487305 19.64257812 C80.77278789 20.88639394 80.77278789 20.88639394 83 22 C81.85098887 30.60971356 75.59750994 38.05000348 69.125 43.5 C57.61460438 51.88389969 46.70548124 52.05804434 32.8125 50.4375 C22.06782962 48.35508744 13.15108855 41.94833531 7 33 C0.8874787 22.32262903 -0.37505982 12.12693413 0 0 Z " fill="#D6C9C5" transform="translate(383,457)"/>
<path d="M0 0 C2.7134607 1.17760647 4.12786992 1.79653746 6 4 C6.72330394 7.7595995 6.40977781 11.443785 6.1875 15.25 C5.6946329 33.57096532 8.7922436 45.6883654 19 61 C19.19916016 62.58554687 19.19916016 62.58554687 19.40234375 64.203125 C20.09304131 68.59108599 21.53801285 71.84053058 23.5625 75.75 C24.10148926 76.79933716 24.10148926 76.79933716 24.65136719 77.86987305 C35.12368488 97.78328239 50.87539725 110.49548126 72 118 C81.42522425 120.77086345 90.52618699 121.51424711 100.3125 121.6875 C101.65042142 121.72078971 102.9883133 121.75528937 104.32617188 121.79101562 C107.55069638 121.8725018 110.77498285 121.94196957 114 122 C114 122.33 114 122.66 114 123 C110.02092789 123.74161126 106.25664925 124.12811988 102.2109375 124.1328125 C101.11442871 124.13490723 100.01791992 124.13700195 98.88818359 124.13916016 C97.72883301 124.1344873 96.56948242 124.12981445 95.375 124.125 C94.17311035 124.12161621 92.9712207 124.11823242 91.73291016 124.11474609 C72.03433603 124.00206302 52.73335456 122.80670119 33.375 119.0625 C32.54548828 118.90483154 31.71597656 118.74716309 30.86132812 118.5847168 C25.91459227 117.58098022 21.46280832 116.39861532 17 114 C15.765625 112.08984375 15.765625 112.08984375 15.25 109.9375 C14.93095703 108.74447266 14.93095703 108.74447266 14.60546875 107.52734375 C14.40566406 106.69332031 14.20585937 105.85929688 14 105 C13.53221945 103.33010185 13.05295088 101.66338102 12.5625 100 C12.31628906 99.1646875 12.07007813 98.329375 11.81640625 97.46875 C10.76547504 94.29081447 9.38358605 91.32405369 7.97265625 88.29296875 C6.59006536 85.0336079 5.68185509 81.67571091 4.71875 78.2734375 C4.00787125 75.80762426 4.00787125 75.80762426 2.4375 72.9375 C0.87138043 69.7371687 0.22836135 66.83122576 -0.46484375 63.359375 C-1.16255425 60.28333746 -2.20689049 57.38272114 -3.31640625 54.43359375 C-5.46974726 46.76769976 -5.24911918 38.71041728 -5.29516602 30.81103516 C-5.30666266 29.44406768 -5.32707827 28.07714429 -5.35668945 26.71044922 C-5.55466115 17.52854383 -4.76861196 9.49970772 -1 1 C-0.67 0.67 -0.34 0.34 0 0 Z " fill="#AF9C95" transform="translate(366,442)"/>
<path d="M0 0 C0 0.66 0 1.32 0 2 C0.70125 2.185625 1.4025 2.37125 2.125 2.5625 C6.91570121 4.95785061 9.99080528 8.72503562 12.15234375 13.59765625 C14.75306434 24.03649328 14.1530861 36.89078643 10.75390625 47.0390625 C5.48610722 52.92867299 -5.40717751 53.07613052 -12.75 54.1875 C-13.85988281 54.36474609 -14.96976562 54.54199219 -16.11328125 54.72460938 C-20.79244847 55.45379368 -25.25470917 56.10627811 -30 56 C-29.505 53.03 -29.505 53.03 -29 50 C-28.34 50.33 -27.68 50.66 -27 51 C-26.54625 49.96875 -26.0925 48.9375 -25.625 47.875 C-25.36976563 47.29492188 -25.11453125 46.71484375 -24.8515625 46.1171875 C-21.6064189 38.04898644 -20.98235828 30.57363153 -22 22 C-23.54048294 18.51152264 -25.403517 15.78194607 -28 13 C-25.45902293 7.0582203 -19.93515983 3.61675554 -14.125 1.125 C-9.4853425 -0.4554411 -4.84261457 -0.26793154 0 0 Z " fill="#A39C98" transform="translate(515,582)"/>
<path d="M0 0 C2.97 0.495 2.97 0.495 6 1 C6 1.66 6 2.32 6 3 C6.85722656 3.18175781 7.71445312 3.36351562 8.59765625 3.55078125 C14.73004158 4.89893811 20.31821884 6.34044286 26 9 C29.19503923 9.96404984 32.31940556 10.27016534 35.640625 10.53515625 C37.24550781 10.66567383 37.24550781 10.66567383 38.8828125 10.79882812 C40.54957031 10.9293457 40.54957031 10.9293457 42.25 11.0625 C43.37664062 11.15337891 44.50328125 11.24425781 45.6640625 11.33789062 C48.44248351 11.56157706 51.22111501 11.78216636 54 12 C53.67 13.65 53.34 15.3 53 17 C49.34361463 18.3542168 47.48672608 17.51496224 44 16 C44.5053125 16.71285156 45.010625 17.42570313 45.53125 18.16015625 C51.98418278 27.67311072 51.98418278 27.67311072 51 34 C46.44299575 33.47515308 43.807126 31.68492697 40.1875 28.9375 C39.21167969 28.20402344 38.23585938 27.47054687 37.23046875 26.71484375 C36.49441406 26.14894531 35.75835937 25.58304688 35 25 C36.86593389 29.12568298 39.57971737 32.30676703 42.44140625 35.78125 C43.95393305 37.93442099 44.57389287 39.43168306 45 42 C42 44 42 44 40.0625 43.85546875 C33.91477899 41.30556174 29.33485416 34.55809027 26 29 C27.0681847 34.11365014 28.23107476 39.07227969 30 44 C17.86177457 42.17926619 9.32764925 36.35335258 1.83984375 26.74609375 C-1.87537874 21.20086783 -3.91819755 16.73344873 -3 10 C-2.15700939 6.60865848 -1.13725745 3.30346213 0 0 Z " fill="#AF9C95" transform="translate(326,646)"/>
<path d="M0 0 C5.71529596 5.71529596 5.25184598 11.95726867 5.26171875 19.58398438 C5.25785156 20.60814453 5.25398438 21.63230469 5.25 22.6875 C5.25580078 24.22954102 5.25580078 24.22954102 5.26171875 25.80273438 C5.26042969 26.79724609 5.25914062 27.79175781 5.2578125 28.81640625 C5.25668457 29.71560791 5.25555664 30.61480957 5.25439453 31.54125977 C5.12333145 34.15831752 4.70379488 36.57272724 4.125 39.125 C-11.0756163 39.77749068 -22.32264785 35.33153517 -35.875 29.125 C-35.35406461 24.80060863 -34.40705912 21.84976071 -32.0625 18.1875 C-30.25287699 15.33222218 -28.55934398 12.52833713 -27.0625 9.5 C-24.16492064 4.38662466 -19.04444229 -0.95200371 -13.33984375 -2.61328125 C-8.2925182 -3.14920964 -4.30098198 -2.80498825 0 0 Z " fill="#A19B97" transform="translate(374.875,584.875)"/>
<path d="M0 0 C-0.03825139 13.65574772 -3.07159073 25.54309458 -12.16015625 36.22265625 C-16.60576341 40.51724491 -20.97993294 42.19398024 -27.125 42.5625 C-31.06722088 42.36388429 -33.66877268 41.64804189 -36.5625 38.74609375 C-48 24.85326087 -48 24.85326087 -48 16 C-47.44127197 15.83918945 -46.88254395 15.67837891 -46.30688477 15.51269531 C-43.72346495 14.76505271 -41.14302117 14.0075842 -38.5625 13.25 C-37.68400391 12.99734375 -36.80550781 12.7446875 -35.90039062 12.484375 C-30.77107203 10.97018501 -25.94989496 9.18949771 -21.09643555 6.94580078 C-17.99553289 5.54683759 -14.83631187 4.43610471 -11.625 3.3125 C-9.84996094 2.68794922 -9.84996094 2.68794922 -8.0390625 2.05078125 C-2.10780669 0 -2.10780669 0 0 0 Z " fill="#D5C9C5" transform="translate(568,456)"/>
<path d="M0 0 C5.79996309 0.39545203 11.07586518 2.20421692 16.59375 3.95703125 C19.77547186 4.93125113 22.95513842 5.77523668 26.1875 6.5625 C27.16332031 6.80742187 28.13914062 7.05234375 29.14453125 7.3046875 C31.00937544 7.75878089 32.88204512 8.18214793 34.76171875 8.5703125 C40.87456862 10.01400499 43.5964199 12.0773841 47.0390625 17.35546875 C47.51472656 18.16951172 47.51472656 18.16951172 48 19 C50.3431213 18.74438677 52.67843403 18.40729228 55 18 C55.33 17.34 55.66 16.68 56 16 C60.29 16.66 64.58 17.32 69 18 C67.83414147 23.82929267 66.93389658 24.44106806 62.3515625 27.57421875 C51.01233504 34.44933175 38.75443515 34.36433535 25.91015625 31.875 C15.50617431 28.74682288 7.01586934 22.0049539 1.625 12.6015625 C-0.21429282 8.75692959 -1.677901 5.33856642 -1 1 C-0.67 0.67 -0.34 0.34 0 0 Z " fill="#FAEBE7" transform="translate(387,475)"/>
<path d="M0 0 C-0.598125 0.86625 -1.19625 1.7325 -1.8125 2.625 C-3.82044534 5.62619944 -5.44655098 8.73775706 -7 12 C-8.423125 11.9071875 -8.423125 11.9071875 -9.875 11.8125 C-11.421875 11.9053125 -11.421875 11.9053125 -13 12 C-15.4294516 15.6441774 -15.16179575 17.71241272 -15 22 C-13.14375 22.433125 -13.14375 22.433125 -11.25 22.875 C-8.48645291 23.90228714 -7.29801715 24.44082295 -5.89453125 27.07421875 C-5.31960469 28.79360007 -4.74682401 30.51369989 -4.17578125 32.234375 C-0.9304046 39.86801841 6.35383675 46.76575177 14 50 C18.00665054 50.69889131 21.93918585 50.78962933 26 50.8125 C27.06089844 50.83763672 28.12179687 50.86277344 29.21484375 50.88867188 C31.81026955 50.94712741 34.40402503 50.98371128 37 51 C37 51.33 37 51.66 37 52 C30.74187336 52.05004653 24.48386737 52.08602039 18.22558594 52.10986328 C16.10382046 52.1198201 13.98206833 52.13339042 11.86035156 52.15087891 C-2.35253384 52.26495778 -16.03785147 51.92192798 -30 49 C-29.16520545 34.65471473 -28.08030133 20.32853814 -27 6 C-26.03320312 5.74605469 -25.06640625 5.49210938 -24.0703125 5.23046875 C-22.75513133 4.88310391 -21.44003275 4.53542628 -20.125 4.1875 C-19.44477783 4.00807861 -18.76455566 3.82865723 -18.0637207 3.64379883 C-13.28065856 2.37136536 -8.55660951 0.96926646 -3.85546875 -0.58203125 C-2 -1 -2 -1 0 0 Z " fill="#8A837E" transform="translate(420,589)"/>
<path d="M0 0 C9.01869251 0.08376495 15.92185424 3.6348012 23.875 7.5625 C25.53371422 8.24871379 27.19703351 8.92480832 28.875 9.5625 C28.875 10.2225 28.875 10.8825 28.875 11.5625 C29.67035156 11.7584375 30.46570313 11.954375 31.28515625 12.15625 C36.18387211 14.07522466 40.06882485 16.98911671 44.3125 20.0625 C46.08617663 21.32831367 47.86092783 22.59262291 49.63671875 23.85546875 C50.51505371 24.48114746 51.39338867 25.10682617 52.29833984 25.75146484 C56.65120176 28.81092379 61.09420534 31.73195091 65.55639648 34.62890625 C67.01193063 35.58279256 68.44628532 36.56889388 69.875 37.5625 C69.875 37.8925 69.875 38.2225 69.875 38.5625 C64.83487727 38.11248904 60.72012696 37.25693431 56.04516602 35.35522461 C53.93466596 34.58429496 51.908172 34.06551315 49.7109375 33.60546875 C37.30846704 30.93793015 25.12692366 27.81247107 13.13452148 23.66210938 C7.90261678 21.86153024 2.66373679 20.40444151 -2.7421875 19.203125 C-5.0847788 18.57331357 -6.9731254 17.66075965 -9.125 16.5625 C-11.11610401 16.17959538 -13.11600513 15.83645385 -15.125 15.5625 C-14.49032318 12.13054384 -13.14911502 9.80558259 -11.1875 6.9375 C-10.66285156 6.16148437 -10.13820313 5.38546875 -9.59765625 4.5859375 C-6.6217647 0.49704673 -5.00596655 0.17674825 0 0 Z " fill="#7A6D68" transform="translate(385.125,419.4375)"/>
<path d="M0 0 C2.42811925 5.82748619 2.61727907 11.7757491 3 18 C-12.82803517 21.70969574 -27.78321936 23.27027968 -44 23 C-44 16.4 -44 9.8 -44 3 C-39.34130514 2.56854425 -34.68251545 2.13994625 -30.02294922 1.71826172 C-28.44207212 1.57437003 -26.86133788 1.42889878 -25.28076172 1.28173828 C-16.82886438 0.49588824 -8.49914593 -0.20438828 0 0 Z " fill="#766E6A" transform="translate(500,664)"/>
<path d="M0 0 C4.19445815 1.15932236 7.35964135 3.10658397 10.98046875 5.47265625 C12.02569702 6.14494263 12.02569702 6.14494263 13.09204102 6.83081055 C15.16838394 8.17691119 17.23189257 9.54082497 19.29296875 10.91015625 C19.88529297 11.29751953 20.47761719 11.68488281 21.08789062 12.08398438 C30.02149046 17.96606012 30.02149046 17.96606012 31.078125 21.640625 C31.18447266 22.76404297 31.18447266 22.76404297 31.29296875 23.91015625 C32.24429688 24.04550781 33.195625 24.18085938 34.17578125 24.3203125 C40.13819184 26.03649151 43.99504045 31.00851478 48.16796875 35.34765625 C49.05983887 36.25765381 49.95170898 37.16765137 50.87060547 38.10522461 C55.9807569 43.3651774 60.86057819 48.67943701 65.359375 54.47265625 C67.5718521 57.26171829 69.94020924 59.85763844 72.35546875 62.47265625 C75.59999986 66.01629257 78.78741176 69.58705184 81.85546875 73.28515625 C82.49613281 74.05601562 83.13679688 74.826875 83.796875 75.62109375 C85.41294002 78.09371543 85.91787475 80.00189317 86.29296875 82.91015625 C83.6640625 83.28515625 83.6640625 83.28515625 80.29296875 82.91015625 C78.02663562 80.95137557 76.2577735 79.1749238 74.35546875 76.91015625 C73.86884766 76.35714844 73.38222656 75.80414063 72.88085938 75.234375 C70.85101235 72.91987052 68.85251133 70.58069846 66.88012695 68.21704102 C61.09463563 61.41030955 54.70900922 55.17593295 48.38696289 48.8737793 C46.36033895 46.85251357 44.33911328 44.82596051 42.31835938 42.79882812 C33.0910971 33.54685921 33.0910971 33.54685921 23.29296875 24.91015625 C22.77210693 24.47195557 22.25124512 24.03375488 21.71459961 23.58227539 C14.91983279 17.93834968 8.09287452 13.37192243 0.05444336 9.68579102 C-1.78515625 8.796875 -1.78515625 8.796875 -4.70703125 6.91015625 C-5.62890625 4.1796875 -5.62890625 4.1796875 -5.70703125 1.91015625 C-2.70703125 -0.08984375 -2.70703125 -0.08984375 0 0 Z " fill="#C7BEB8" transform="translate(358.70703125,234.08984375)"/>
<path d="M0 0 C1.93676758 -0.32592773 1.93676758 -0.32592773 4.33203125 -0.24609375 C5.23131348 -0.2188623 6.1305957 -0.19163086 7.05712891 -0.16357422 C12.27454491 0.1264265 17.47959919 0.51075244 22.6875 0.9375 C43.81833234 2.56992482 64.80693381 3.1663506 86 3 C85.6796875 5.38671875 85.6796875 5.38671875 85 8 C82.125 9.8125 82.125 9.8125 80.22265625 10.75 C76.4681426 12.86150152 73.24942155 15.74228345 69.94140625 18.48828125 C65.99022865 20.51896615 63.11056117 20.30279834 59 19 C54.53905448 16.90181117 50.37473474 14.31762876 46.15820312 11.7734375 C45.30806641 11.2784375 44.45792969 10.7834375 43.58203125 10.2734375 C42.82124268 9.81372559 42.0604541 9.35401367 41.27661133 8.88037109 C38.42960021 7.77942502 36.88824303 8.13908141 34 9 C32.0347237 9.83947718 32.0347237 9.83947718 30.1875 10.875 C19.74872422 16.26211869 19.74872422 16.26211869 15.97705078 15.69677734 C12.65530789 14.52608653 9.80856816 12.53635575 6.875 10.625 C5.92560547 10.02558594 5.92560547 10.02558594 4.95703125 9.4140625 C1.9366799 7.46462129 0.01833072 6.02749608 -2 3 C-1.34 2.01 -0.68 1.02 0 0 Z " fill="#98918D" transform="translate(381,694)"/>
<path d="M0 0 C1 3 1 3 -0.125 5.34765625 C-8.93203283 18.09950586 -22.29621522 24.53400894 -36 31 C-37.010625 31.51304687 -38.02125 32.02609375 -39.0625 32.5546875 C-41.81850458 33.91070039 -44.58010214 35.06480609 -47.4375 36.1875 C-58.38316967 40.72096766 -69.13786669 46.03490636 -78 54 C-78.95519531 54.83917969 -79.91039062 55.67835938 -80.89453125 56.54296875 C-89.00668025 63.97204347 -94.10255078 72.22256846 -99 82 C-99.80050781 83.52173828 -99.80050781 83.52173828 -100.6171875 85.07421875 C-102.0719994 88.15233771 -103.0950802 91.17490609 -104.0625 94.4375 C-104.38347656 95.50871094 -104.70445312 96.57992187 -105.03515625 97.68359375 C-105.35355469 98.77800781 -105.67195313 99.87242187 -106 101 C-106.35707031 102.03382813 -106.71414063 103.06765625 -107.08203125 104.1328125 C-108.3689951 109.55449 -108.4667596 114.88260264 -108.625 120.4375 C-108.66367187 121.55060547 -108.70234375 122.66371094 -108.7421875 123.81054688 C-108.83590966 126.54020476 -108.92162294 129.26986563 -109 132 C-109.99 131.67 -110.98 131.34 -112 131 C-112.43335954 116.43911949 -112.81107851 102.88652206 -108 89 C-107.60296875 87.84371094 -107.2059375 86.68742187 -106.796875 85.49609375 C-105.62111135 82.28506833 -104.33871482 79.14597983 -103 76 C-102.690625 75.175 -102.38125 74.35 -102.0625 73.5 C-93.58465337 53.36511425 -70.65124753 38.57628035 -51.25 30.4375 C-48.08264857 29.19160127 -46.56464924 29 -43 29 C-43 28.34 -43 27.68 -43 27 C-41.83984375 26.59910156 -40.6796875 26.19820313 -39.484375 25.78515625 C-25.56028675 20.79220529 -15.92536913 13.96499885 -5.05859375 3.84765625 C-3 2 -3 2 0 0 Z " fill="#DFDAD7" transform="translate(454,348)"/>
<path d="M0 0 C14.52 0 29.04 0 44 0 C44 6.6 44 13.2 44 20 C39.51975009 20.04634741 35.0403588 20.08603697 30.56005859 20.10986328 C29.04147496 20.11981384 27.52290993 20.13337916 26.00439453 20.15087891 C16.7837455 20.25434493 8.06879307 19.9458199 -1 18 C-1.09896353 11.76529746 -0.701923 6.31730701 0 0 Z " fill="#7B736F" transform="translate(402,667)"/>
<path d="M0 0 C-0.33 1.65 -0.66 3.3 -1 5 C-10.50894873 8.04027612 -20.06540625 9.76889836 -29.9375 11.1875 C-31.07864258 11.35411133 -32.21978516 11.52072266 -33.39550781 11.69238281 C-49.017767 13.84946822 -64.57066815 14.20194859 -80.3125 14.1875 C-81.22477356 14.18789276 -82.13704712 14.18828552 -83.07696533 14.18869019 C-124.44614157 14.16744277 -124.44614157 14.16744277 -133 11 C-134.25 7.9375 -134.25 7.9375 -135 5 C-133.69160156 5.0721875 -132.38320313 5.144375 -131.03515625 5.21875 C-86.98972092 7.39054717 -43.09030138 -0.95756225 0 0 Z " fill="#9B9491" transform="translate(524,643)"/>
<path d="M0 0 C7.08700853 -0.37667171 13.14228285 0.33107137 19.9765625 2.2109375 C22.91769734 2.9785205 25.81140437 3.52529587 28.8125 4 C29.80121094 4.15984375 30.78992188 4.3196875 31.80859375 4.484375 C34.07145019 4.84997727 36.33448995 5.21444573 38.59765625 5.578125 C46.68819957 7.01718751 53.58600694 9.23260465 60.9765625 12.6953125 C63.69934393 13.87025953 66.08132958 14.55514689 69 15 C69 15.66 69 16.32 69 17 C70.32 17 71.64 17 73 17 C73 17.66 73 18.32 73 19 C73.68449219 19.21398437 74.36898437 19.42796875 75.07421875 19.6484375 C78.89073829 21.4114759 81.67705758 23.85900835 84.8125 26.625 C85.73953735 27.43251709 85.73953735 27.43251709 86.68530273 28.25634766 C93.27316224 34.03984031 99.67391955 40.00951941 105 47 C105 47.66 105 48.32 105 49 C101.35769569 47.45934714 99.01037578 45.2404877 96.1875 42.5 C84.9785957 32.21278279 73.37412141 25.80218955 59 21 C58.13246094 20.63648438 57.26492188 20.27296875 56.37109375 19.8984375 C53.78686232 18.91923943 51.42291958 18.50416707 48.6875 18.125 C40.99077933 16.90972832 33.50909371 15.04570742 26 13 C25.29697754 12.81034668 24.59395508 12.62069336 23.86962891 12.42529297 C15.5854736 10.14975981 7.57801279 7.8262399 1 2 C0.67 1.34 0.34 0.68 0 0 Z " fill="#DED9D6" transform="translate(484,339)"/>
<path d="M0 0 C0.66 0 1.32 0 2 0 C3.69140625 1.71484375 3.69140625 1.71484375 5.5625 3.9375 C6.18253906 4.66839844 6.80257812 5.39929688 7.44140625 6.15234375 C7.95574219 6.76207031 8.47007812 7.37179687 9 8 C9.33 8.33 9.66 8.66 10 9 C12.08840564 31.94867008 8.47407215 54.47444074 -2 75 C-2.33 75 -2.66 75 -3 75 C-3.05092508 67.75922669 -3.08582786 60.5185 -3.10986328 53.27758789 C-3.11988885 50.81695835 -3.13351274 48.35634063 -3.15087891 45.89575195 C-3.17527878 42.34844028 -3.18651787 38.80128686 -3.1953125 35.25390625 C-3.20563507 34.1629213 -3.21595764 33.07193634 -3.22659302 31.94789124 C-3.22740111 26.38238681 -2.89303559 21.31512674 -1.47106934 15.92285156 C-0.70414361 12.79234781 -0.5619367 9.64657999 -0.375 6.4375 C-0.30023437 5.21933594 -0.22546875 4.00117188 -0.1484375 2.74609375 C-0.09945312 1.83988281 -0.05046875 0.93367188 0 0 Z " fill="#A09893" transform="translate(593,420)"/>
<path d="M0 0 C2.3841572 0.50015138 4.71004488 1.06363088 7.0625 1.6875 C8.51425569 2.06276016 9.96608076 2.43775204 11.41796875 2.8125 C12.16997559 3.0084375 12.92198242 3.204375 13.69677734 3.40625 C15.97795476 3.99431694 18.26297748 4.56330882 20.55078125 5.125 C21.63830688 5.39244019 21.63830688 5.39244019 22.74780273 5.6652832 C24.14677102 6.00872325 25.54601546 6.35104073 26.94555664 6.69213867 C31.77696129 7.88848064 31.77696129 7.88848064 34 9 C33.46014954 13.61872062 31.56034183 16.52395069 28.9375 20.3125 C28.20402344 21.38113281 27.47054688 22.44976562 26.71484375 23.55078125 C26.14894531 24.35902344 25.58304687 25.16726563 25 26 C24.67 25.01 24.34 24.02 24 23 C19.71 22.34 15.42 21.68 11 21 C10.67 21.99 10.34 22.98 10 24 C6.8125 24.875 6.8125 24.875 3 25 C-1.01984051 21.242323 -2.75380933 18.20047876 -3.16796875 12.81640625 C-3.2059559 8.4326891 -3.10852365 4.96898568 -1 1 C-0.67 0.67 -0.34 0.34 0 0 Z " fill="#92BED8" transform="translate(432,470)"/>
<path d="M0 0 C0.94182853 2.52714239 1.09404412 3.72301434 0.21484375 6.3125 C-0.20667969 7.199375 -0.62820313 8.08625 -1.0625 9 C-3.91260307 15.44647267 -5.91071743 22.02415059 -7.85571289 28.79296875 C-8.96524446 32.63216785 -10.1123845 36.40665438 -11.55078125 40.13671875 C-12.99441253 43.88622802 -14.07499904 47.66446988 -15.0625 51.5625 C-15.38347656 52.80128906 -15.70445312 54.04007812 -16.03515625 55.31640625 C-18.79659993 67.76983681 -19.36396512 80.24331946 -19.625 92.9375 C-19.66332052 94.50717975 -19.70237949 96.07684165 -19.7421875 97.64648438 C-19.83659681 101.43083899 -19.92115856 105.21529039 -20 109 C-22 108 -22 108 -23 105 C-26.46956897 81.25891855 -26.14076587 54.61726986 -18 32 C-17.73268066 31.24154785 -17.46536133 30.4830957 -17.18994141 29.70166016 C-13.45137549 19.44527521 -7.79767612 7.79767612 0 0 Z " fill="#22201E" transform="translate(343,352)"/>
<path d="M0 0 C0.495 0.99 0.495 0.99 1 2 C0.39671875 2.23589844 -0.2065625 2.47179687 -0.828125 2.71484375 C-5.18046861 5.29024132 -6.82407397 10.60384175 -9 15 C-9.34708008 15.69303223 -9.69416016 16.38606445 -10.05175781 17.10009766 C-11.17384827 19.35166723 -12.27740686 21.61139676 -13.375 23.875 C-13.73303711 24.60017822 -14.09107422 25.32535645 -14.45996094 26.07250977 C-16.25565158 29.85265755 -17.48781452 32.71059643 -17 37 C-22.6143991 35.43551329 -27.86810338 33.83604813 -33 31 C-32.71336074 25.55385415 -30.37173705 21.93102496 -27.53125 17.44921875 C-26.28276149 15.45227411 -25.22825436 13.48060026 -24.1875 11.375 C-21.29026041 6.26222426 -16.17513846 0.9402348 -10.48046875 -0.74609375 C-6.75579482 -1.12735959 -3.68893442 -0.67630464 0 0 Z " fill="#87817E" transform="translate(372,583)"/>
<path d="M0 0 C0.05395478 1.62463842 0.09277195 3.24978541 0.125 4.875 C0.14820313 5.77992188 0.17140625 6.68484375 0.1953125 7.6171875 C0 10 0 10 -2 12 C-3.72999375 12.60251506 -5.48598231 13.13089033 -7.25 13.625 C-13.65118845 15.52323426 -19.91560309 17.71171945 -26.1875 20 C-27.10112305 20.33209473 -28.01474609 20.66418945 -28.95605469 21.00634766 C-34.35144094 22.98323117 -39.69008426 25.06244392 -44.99731445 27.265625 C-47 28 -47 28 -49 28 C-47.75794193 24.27382578 -45.8889325 22.60708543 -43 20 C-42.34 20 -41.68 20 -41 20 C-41 19.34 -41 18.68 -41 18 C-29.49463571 5.78401027 -17.05702012 -3.41140402 0 0 Z " fill="#776A65" transform="translate(576,427)"/>
<path d="M0 0 C3.1683755 1.23053116 5.77327158 2.81023609 8.6171875 4.6796875 C9.2042749 5.06398926 9.7913623 5.44829102 10.39624023 5.84423828 C16.92814619 10.1609616 23.32445748 14.68092306 29.71313477 19.20581055 C32.98099871 21.51711623 36.209667 23.78543691 39.64453125 25.84375 C40.27488281 26.22273438 40.90523438 26.60171875 41.5546875 26.9921875 C41.5546875 27.3221875 41.5546875 27.6521875 41.5546875 27.9921875 C36.51385108 27.54211282 32.39888459 26.68593967 27.72314453 24.78442383 C25.62151272 24.0166018 23.60611525 23.50016705 21.41796875 23.04296875 C9.27988557 20.43352306 -2.93303875 17.71855677 -14.4453125 12.9921875 C-12.89725473 9.23014766 -10.59546105 6.92913196 -7.6328125 4.1796875 C-6.35470703 2.96345703 -6.35470703 2.96345703 -5.05078125 1.72265625 C-2.4453125 -0.0078125 -2.4453125 -0.0078125 0 0 Z " fill="#8D7E79" transform="translate(413.4453125,430.0078125)"/>
<path d="M0 0 C1.92960571 0.24447876 1.92960571 0.24447876 3.89819336 0.49389648 C8.8247557 1.03915505 13.67670329 1.12850688 18.62890625 1.09765625 C19.94156715 1.09553383 19.94156715 1.09553383 21.28074646 1.09336853 C24.04136762 1.08782719 26.80190388 1.07528612 29.5625 1.0625 C31.44856653 1.0574774 33.33463434 1.05291583 35.22070312 1.04882812 C39.81383417 1.03787707 44.40690275 1.02065384 49 1 C49.99 4.3 50.98 7.6 52 11 C34.12176642 13.64135075 16.8060602 13.08239361 -1 10 C-1.125 2.25 -1.125 2.25 0 0 Z " fill="#605A57" transform="translate(380,726)"/>
<path d="M0 0 C2.61476449 1.0459058 5.22905547 2.09263041 7.83984375 3.1484375 C20.00821187 7.96668162 32.00269974 11.35914482 45 13 C45.125 19.75 45.125 19.75 44 22 C36.66789763 22.22331276 30.06733182 21.99947644 23 20 C22.23429687 19.80535156 21.46859375 19.61070312 20.6796875 19.41015625 C11.99810665 17.05133444 4.00549799 13.0414229 -4 9 C-2.94124926 5.59687262 -1.99097846 2.98646769 0 0 Z " fill="#766F6B" transform="translate(332,624)"/>
<path d="M0 0 C2.13828396 0.71276132 4.27645346 1.4258409 6.4140625 2.140625 C8.0942751 2.69900381 9.77648115 3.25143199 11.4609375 3.796875 C12.23695313 4.04953125 13.01296875 4.3021875 13.8125 4.5625 C14.87404297 4.90474609 14.87404297 4.90474609 15.95703125 5.25390625 C18.06519278 6.02380845 20.0131411 6.95968961 22 8 C21.6875 9.9375 21.6875 9.9375 21 12 C20.01 12.33 19.02 12.66 18 13 C17.67 13.99 17.34 14.98 17 16 C15.35 16.33 13.7 16.66 12 17 C11.92472126 19.63475597 11.93320463 21.77871702 12.69921875 24.31640625 C13.11542829 28.02986023 11.87938264 29.64698085 9.875 32.75 C8.97394531 34.19632813 8.97394531 34.19632813 8.0546875 35.671875 C6 38 6 38 3.4453125 38.890625 C1 39 1 39 -2 38 C-1.5971437 33.01730369 -1.09146825 28.18208235 0.0625 23.3125 C1.58813795 16.16249527 2.32872098 6.98616295 0 0 Z " fill="#3B3938" transform="translate(319,573)"/>
<path d="M0 0 C0.33 0 0.66 0 1 0 C0.84638769 7.06616638 -2.49340114 11.71004551 -7 17 C-11.97553672 21.38950353 -17.02096929 22.40816208 -23.4921875 22.3515625 C-28.42749392 21.65969711 -30.67633596 18.50015258 -33.875 14.875 C-35 13 -35 13 -35 10 C-31.2318169 8.65909207 -27.46004479 7.3285821 -23.6875 6 C-22.61564453 5.6184375 -21.54378906 5.236875 -20.43945312 4.84375 C-19.41142578 4.4828125 -18.38339844 4.121875 -17.32421875 3.75 C-16.37635498 3.41484375 -15.42849121 3.0796875 -14.4519043 2.734375 C-12 2 -12 2 -9 2 C-8.7525 2.639375 -8.505 3.27875 -8.25 3.9375 C-7.18437567 6.18741541 -7.18437567 6.18741541 -4.875 6.75 C-4.25625 6.8325 -3.6375 6.915 -3 7 C-2.690625 6.21625 -2.38125 5.4325 -2.0625 4.625 C-1 2 -1 2 0 0 Z " fill="#F9EBE6" transform="translate(562,476)"/>
<path d="M0 0 C4.69243974 -0.92187754 8.82630396 -0.69922317 12.9375 1.75 C18 7.27272727 18 7.27272727 18 11 C18.66 11 19.32 11 20 11 C20.08121924 12.60332791 20.13929134 14.20784026 20.1875 15.8125 C20.23970703 17.15248047 20.23970703 17.15248047 20.29296875 18.51953125 C20 21 20 21 18.7578125 22.82421875 C15.88168036 24.74803158 13.58070421 24.13630064 10.28125 23.6328125 C5.35196421 22.26544213 2.34401255 18.82759926 -0.375 14.6875 C-2.47969931 10.67980174 -2.44692988 7.46929875 -2 3 C-1.34 2.01 -0.68 1.02 0 0 Z " fill="#9B948F" transform="translate(489,278)"/>
<path d="M0 0 C2.05078125 0.03255208 4.1015625 0.06510417 6.15234375 0.09765625 C6.15234375 0.75765625 6.15234375 1.41765625 6.15234375 2.09765625 C6.85359375 2.28328125 7.55484375 2.46890625 8.27734375 2.66015625 C13.06804496 5.05550686 16.14314903 8.82269187 18.3046875 13.6953125 C19.44222894 18.26120463 19.53442488 22.59495216 19.52734375 27.28515625 C19.5281897 28.68266113 19.5281897 28.68266113 19.52905273 30.10839844 C19.42368186 36.70703354 19.14055779 45.10944221 14.15234375 50.09765625 C11.81936942 50.13858562 9.4852915 50.14007348 7.15234375 50.09765625 C7.44109375 49.10507812 7.72984375 48.1125 8.02734375 47.08984375 C11.13424912 35.93511364 14.11073932 23.88811163 8.42578125 13.0625 C5.3685937 8.34542842 1.89188383 4.1965863 -2.84765625 1.09765625 C-1.84765625 0.09765625 -1.84765625 0.09765625 0 0 Z " fill="#BFBBB8" transform="translate(508.84765625,581.90234375)"/>
<path d="M0 0 C5.72840191 -0.36564268 10.91198589 0.14690798 16 3 C19.37981329 6.48175662 21.27276035 10.11202328 21.3125 15 C21.209375 15.99 21.10625 16.98 21 18 C16.44299575 17.47515308 13.807126 15.68492697 10.1875 12.9375 C9.21167969 12.20402344 8.23585938 11.47054687 7.23046875 10.71484375 C6.12638672 9.86599609 6.12638672 9.86599609 5 9 C6.86593389 13.12568298 9.57971737 16.30676703 12.44140625 19.78125 C13.95393305 21.93442099 14.57389287 23.43168306 15 26 C12 28 12 28 10.0703125 27.8671875 C7.39318057 26.7458228 5.88461121 25.21102229 3.875 23.125 C3.19179688 22.42632813 2.50859375 21.72765625 1.8046875 21.0078125 C-1.85537337 16.93579673 -2.30607257 14.60502833 -2.203125 9.36328125 C-1.91670412 6.03088443 -1.07629618 3.16162004 0 0 Z " fill="#C9B3AC" transform="translate(356,662)"/>
<path d="M0 0 C1.98 0 3.96 0 6 0 C8.61177122 8.0918269 10.71240023 15.41161947 10 24 C9.34 24 8.68 24 8 24 C8 24.66 8 25.32 8 26 C4.71480525 27.09506492 2.26336585 27.09960608 -1.1875 27.0625 C-2.81751953 27.04896484 -2.81751953 27.04896484 -4.48046875 27.03515625 C-5.31191406 27.02355469 -6.14335937 27.01195312 -7 27 C-7.48019629 24.14600317 -7.95918577 21.29181234 -8.4375 18.4375 C-8.63956055 17.23770508 -8.63956055 17.23770508 -8.84570312 16.01367188 C-9.62621829 11.34961786 -10.35235992 6.68438698 -11 2 C-9.02 2 -7.04 2 -5 2 C-3.02 6.62 -1.04 11.24 1 16 C1.09752461 10.53862186 0.77249145 5.40744018 0 0 Z " fill="#8D8783" transform="translate(491,694)"/>
<path d="M0 0 C1.44207941 2.88415883 1.09394887 5.41721528 1.0625 8.625 C1.05347656 9.81351563 1.04445313 11.00203125 1.03515625 12.2265625 C1.02355469 13.14179687 1.01195312 14.05703125 1 15 C-4.87398946 18.1545499 -10.59012524 20.2125216 -17 22 C-17.99 22.33 -18.98 22.66 -20 23 C-20.34018163 21.29301718 -20.6718089 19.58432867 -21 17.875 C-21.185625 16.92367187 -21.37125 15.97234375 -21.5625 14.9921875 C-22.00725046 11.95041204 -22.07286471 9.06942607 -22 6 C-19.08666921 4.99009308 -16.16884681 3.99384048 -13.25 3 C-12.0125 2.57074219 -12.0125 2.57074219 -10.75 2.1328125 C-9.95078125 1.86210938 -9.1515625 1.59140625 -8.328125 1.3125 C-7.5949707 1.06113281 -6.86181641 0.80976562 -6.10644531 0.55078125 C-4 0 -4 0 0 0 Z " fill="#78706C" transform="translate(533,656)"/>
<path d="M0 0 C7.92103109 -0.13683163 15.77835316 0.10730904 23.6875 0.5 C36.45887525 1.12304614 49.21654384 1.1003411 62 1 C61.69140625 3.375 61.69140625 3.375 61 6 C57.9375 8 57.9375 8 56.0546875 8.953125 C53.80294424 10.10040103 51.69693915 11.39793534 49.5625 12.75 C48.88316406 13.17796875 48.20382812 13.6059375 47.50390625 14.046875 C47.00761719 14.36140625 46.51132812 14.6759375 46 15 C41 9.25 41 9.25 41 7 C39.78763672 7.16048828 39.78763672 7.16048828 38.55078125 7.32421875 C37.48214844 7.44410156 36.41351563 7.56398438 35.3125 7.6875 C34.25675781 7.81511719 33.20101562 7.94273437 32.11328125 8.07421875 C28.43559432 7.98654491 27.06560923 6.94233257 24 5 C20.50967337 4.03076071 20.50967337 4.03076071 16.75 3.375 C16.0912085 3.25020264 15.43241699 3.12540527 14.75366211 2.99682617 C9.84829469 2.09078515 4.96697728 1.43569976 0 1 C0 0.67 0 0.34 0 0 Z " fill="#867E79" transform="translate(405,696)"/>
<path d="M0 0 C-0.59453303 15.74487472 -0.59453303 15.74487472 -4 23 C-4.66 22.67 -5.32 22.34 -6 22 C-7.485 24.475 -7.485 24.475 -9 27 C-11.3125 26.9375 -11.3125 26.9375 -14 26 C-17.84304364 20.03665642 -17.3059317 13.90045944 -17 7 C-17.66 6.67 -18.32 6.34 -19 6 C-16.72930578 5.18710947 -14.45845099 4.37467262 -12.1875 3.5625 C-11.22360352 3.21735352 -11.22360352 3.21735352 -10.24023438 2.86523438 C-2.22588315 0 -2.22588315 0 0 0 Z " fill="#92BBD4" transform="translate(568,456)"/>
<path d="M0 0 C2.64691825 0 3.23568684 0.74164021 5.125 2.5625 C9.14680656 7.33962145 8.55163819 12.50353086 8.40625 18.4765625 C8.02869644 21.75111353 7.32179343 24.01839726 6 27 C5.67637153 28.43064332 5.38367027 29.86869759 5.125 31.3125 C4.28860827 35.3271803 2.88831878 38.6010262 0.90234375 42.17578125 C-0.04786818 44.09677247 -0.55241438 45.90972903 -1 48 C-1.66 48 -2.32 48 -3 48 C-3.05868218 44.0208966 -3.0938239 40.04190647 -3.125 36.0625 C-3.14175781 34.94552734 -3.15851562 33.82855469 -3.17578125 32.67773438 C-3.20980269 26.87707908 -2.92986362 21.64186617 -1.48095703 16.02172852 C-0.72709091 12.8528121 -0.56400173 9.68202964 -0.375 6.4375 C-0.30023437 5.21933594 -0.22546875 4.00117188 -0.1484375 2.74609375 C-0.09945312 1.83988281 -0.05046875 0.93367188 0 0 Z " fill="#A8A19C" transform="translate(593,420)"/>
<path d="M0 0 C14.52 0 29.04 0 44 0 C44 4.95 44 9.9 44 15 C43.67 15 43.34 15 43 15 C43 10.38 43 5.76 43 1 C32.77 1 22.54 1 12 1 C12 6.94 12 12.88 12 19 C22.56 19 33.12 19 44 19 C44 19.33 44 19.66 44 20 C39.52003377 20.05008562 35.04022339 20.08603769 30.56005859 20.10986328 C29.04147496 20.11981384 27.52290993 20.13337916 26.00439453 20.15087891 C16.7837455 20.25434493 8.06879307 19.9458199 -1 18 C-1.09896353 11.76529746 -0.701923 6.31730701 0 0 Z " fill="#514C49" transform="translate(402,667)"/>
<path d="M0 0 C2.95906404 0.64262502 5.91723516 1.2889461 8.875 1.9375 C9.71675781 2.11990234 10.55851562 2.30230469 11.42578125 2.49023438 C12.23144531 2.66748047 13.03710938 2.84472656 13.8671875 3.02734375 C14.61081543 3.18968506 15.35444336 3.35202637 16.12060547 3.51928711 C18 4 18 4 20 5 C19.46014954 9.61872062 17.56034183 12.52395069 14.9375 16.3125 C14.20402344 17.38113281 13.47054688 18.44976562 12.71484375 19.55078125 C12.14894531 20.35902344 11.58304687 21.16726563 11 22 C10.67 21.01 10.34 20.02 10 19 C9.30132812 18.93941406 8.60265625 18.87882812 7.8828125 18.81640625 C6.97273438 18.73261719 6.06265625 18.64882813 5.125 18.5625 C4.22007812 18.48128906 3.31515625 18.40007812 2.3828125 18.31640625 C0 18 0 18 -2 17 C-1.34 11.39 -0.68 5.78 0 0 Z " fill="#D4C8C5" transform="translate(446,474)"/>
<path d="M0 0 C1.96484375 1.171875 1.96484375 1.171875 3.9375 2.75 C15.10829254 10.49068054 28.81355033 11.34478133 42 10 C45.7496088 9.28344426 49.28734126 8.30090036 52.8125 6.8125 C55 6 55 6 58 7 C56.68 7.66 55.36 8.32 54 9 C54 9.66 54 10.32 54 11 C52.60721983 11.65239158 51.21060788 12.29660552 49.8125 12.9375 C49.03519531 13.29714844 48.25789062 13.65679688 47.45703125 14.02734375 C36.11791615 18.51611904 21.81340635 17.2681836 10.8046875 12.57177734 C7.48120947 11.00633115 5.01429325 9.3424134 2.625 6.5625 C0.32999857 3.76621539 0.32999857 3.76621539 -2.34375 3.84765625 C-4.61758887 4.096796 -6.77942141 4.4571919 -9 5 C-9.33 4.01 -9.66 3.02 -10 2 C-6.47638304 0.38920368 -3.87173568 -0.35304581 0 0 Z " fill="#2C2926" transform="translate(466,534)"/>
<path d="M0 0 C0.268125 0.556875 0.53625 1.11375 0.8125 1.6875 C2.10122647 4.19712523 3.52926478 6.59334236 5 9 C-3.16921388 12.14200534 -11.59966429 12.16964278 -20.25 12.125 C-21.61838013 12.12209961 -21.61838013 12.12209961 -23.0144043 12.11914062 C-30.04863193 12.07438809 -37.00017915 11.72725411 -44 11 C-44.33 7.7 -44.66 4.4 -45 1 C-42.36 1 -39.72 1 -37 1 C-37 2.98 -37 4.96 -37 7 C-33.18776488 7.11745244 -29.37600318 7.18766603 -25.5625 7.25 C-24.49322266 7.28351562 -23.42394531 7.31703125 -22.32226562 7.3515625 C-13.66278199 7.45748891 -6.66527021 5.79588714 0 0 Z " fill="#5E5955" transform="translate(510,725)"/>
<path d="M0 0 C3.96257984 2.18503959 7.30182666 5.0353727 8.83984375 9.36328125 C9.67399923 15.08989924 9.67399923 15.08989924 7.6953125 17.76171875 C6 19 6 19 2.6875 19.0625 C-1.89864753 17.74106766 -4.47647251 16.07646749 -7 12 C-7.92359229 8.97123647 -8.43810571 6.15076024 -8 3 C-5.80365393 -0.26211399 -3.79289337 -0.54594677 0 0 Z " fill="#7E7874" transform="translate(280,357)"/>
<path d="M0 0 C1.79244141 0.23009766 1.79244141 0.23009766 3.62109375 0.46484375 C10.08534064 1.1830934 16.56549882 1.35180512 23.0625 1.5625 C24.93325195 1.62727539 24.93325195 1.62727539 26.84179688 1.69335938 C29.89444091 1.79862296 32.94715523 1.90075941 36 2 C36 2.33 36 2.66 36 3 C31.05 3 26.1 3 21 3 C21 5.97 21 8.94 21 12 C18.08302989 11.85895309 15.1665198 11.71235186 12.25 11.5625 C11.0125 11.50352539 11.0125 11.50352539 9.75 11.44335938 C8.95078125 11.40146484 8.1515625 11.35957031 7.328125 11.31640625 C6.5949707 11.27974854 5.86181641 11.24309082 5.10644531 11.20532227 C2.98822395 10.99885215 1.0480544 10.56867914 -1 10 C-1.125 2.25 -1.125 2.25 0 0 Z " fill="#484441" transform="translate(380,726)"/>
<path d="M0 0 C7.25867508 0.36908517 7.25867508 0.36908517 10.9375 3.5 C11.618125 4.325 12.29875 5.15 13 6 C13.33 6.33 13.66 6.66 14 7 C14.07205511 8.68608966 14.08386068 10.37500659 14.0625 12.0625 C14.05347656 12.98160156 14.04445313 13.90070313 14.03515625 14.84765625 C14.02355469 15.55792969 14.01195312 16.26820313 14 17 C11.14675563 18.42662219 9.16545451 18.31033868 6 18 C3.125 16.125 3.125 16.125 1 14 C1 13.34 1 12.68 1 12 C0.34 12 -0.32 12 -1 12 C-2.50934217 8.98131566 -2.17510672 6.32702771 -2 3 C-1.34 2.01 -0.68 1.02 0 0 Z " fill="#7D7773" transform="translate(319,467)"/>
<path d="M0 0 C4.26204655 0.43342846 5.7002238 1.3877238 8.6875 4.375 C10.68575961 7.37238941 10.96300398 8.00847508 10.9375 11.375 C10.94265625 12.055625 10.9478125 12.73625 10.953125 13.4375 C10.6875 15.375 10.6875 15.375 8.6875 18.375 C5.9375 18.875 5.9375 18.875 2.6875 18.375 C-0.8758205 15.90808581 -4.05882675 13.63748906 -5.3125 9.375 C-5.5625 5.75 -5.5625 5.75 -5.3125 2.375 C-3.3125 0.375 -3.3125 0.375 0 0 Z " fill="#7D7773" transform="translate(322.3125,341.625)"/>
<path d="M0 0 C4.39342272 0.59142229 6.18361525 2.30142468 9.25 5.4375 C11.76156712 9.58704567 11.23461878 12.78293852 10.25 17.4375 C9.25 18.4375 9.25 18.4375 7.359375 18.52734375 C2.88696353 18.23856221 0.75180544 17.84713709 -2.8125 14.9375 C-5.18013301 11.57382827 -5.23721286 8.40698025 -5.12109375 4.390625 C-4.49576487 1.09942037 -3.19328221 0.50802217 0 0 Z " fill="#7D7773" transform="translate(290.75,296.5625)"/>
<path d="M0 0 C3.55597538 0.92525379 6.96472322 1.89819128 10 4 C10.96875 6.45703125 10.96875 6.45703125 11 9 C9.88671875 10.78515625 9.88671875 10.78515625 8 12 C0.99076721 13.25690604 -5.15835325 12.01155691 -11 8 C-11.66 7.34 -12.32 6.68 -13 6 C-12.8125 4 -12.8125 4 -12 2 C-7.89232026 -0.73845316 -4.82142536 -0.59623733 0 0 Z " fill="#C1BDBA" transform="translate(458,589)"/>
<path d="M0 0 C16.15492806 -0.5535318 29.67046737 0.97531645 42 12.25 C43.67482573 13.82470028 45.34431547 15.40518623 47 17 C44 18 44 18 40.875 16.55859375 C39.58083787 15.85614066 38.28935015 15.14874691 37 14.4375 C30.84663243 11.19723486 24.70627605 8.68043468 18.0625 6.625 C17.29486328 6.3870874 16.52722656 6.1491748 15.73632812 5.90405273 C10.54238267 4.34956626 5.30556095 3.10993685 0 2 C0 1.34 0 0.68 0 0 Z " fill="#2E2C29" transform="translate(512,313)"/>
<path d="M0 0 C-0.89460938 0.83660156 -1.78921875 1.67320312 -2.7109375 2.53515625 C-12.93964658 12.30421183 -21.12124586 22.52250346 -27.08349609 35.40283203 C-28 37 -28 37 -30 38 C-29.26382799 25.48507588 -23.97770972 14.68810618 -15 6 C-5.31366231 -1.62848246 -5.31366231 -1.62848246 0 0 Z " fill="#282624" transform="translate(369,256)"/>
<path d="M0 0 C7.40934639 -0.37674643 7.40934639 -0.37674643 10.39453125 1.52734375 C13.61279027 3.34635972 15.36407724 3.1024619 19 2.75 C24.4561968 2.57529419 24.4561968 2.57529419 26.890625 4.4765625 C28.67657152 6.97072919 30 8.88454501 30 12 C26.64132092 14.23911939 25.16820348 14.20533784 21.26904297 13.59667969 C17.01158764 12.47711644 13.35149341 10.31585123 9.5625 8.125 C8.74845703 7.67769531 7.93441406 7.23039063 7.09570312 6.76953125 C1.13250471 3.39751413 1.13250471 3.39751413 0 0 Z " fill="#9D9793" transform="translate(421,700)"/>
<path d="M0 0 C0.68449219 0.27585937 1.36898438 0.55171875 2.07421875 0.8359375 C5.31107709 2.12376632 8.56021876 3.37664963 11.8125 4.625 C12.97394531 5.07101562 14.13539063 5.51703125 15.33203125 5.9765625 C16.21246094 6.31429687 17.09289062 6.65203125 18 7 C17.01 7.495 17.01 7.495 16 8 C15.31527335 9.88764903 15.31527335 9.88764903 14.875 12.0625 C14.70742188 12.79597656 14.53984375 13.52945313 14.3671875 14.28515625 C14.24601562 14.85105469 14.12484375 15.41695312 14 16 C15.32 16.33 16.64 16.66 18 17 C17.34 17.33 16.68 17.66 16 18 C13.50151716 17.16027322 11.11623483 16.25946462 8.6875 15.25 C8.02298828 14.98445312 7.35847656 14.71890625 6.67382812 14.4453125 C2.90374891 12.90893996 -0.56181034 11.20788969 -4 9 C-2.94124926 5.59687262 -1.99097846 2.98646769 0 0 Z " fill="#645E5A" transform="translate(332,624)"/>
<path d="M0 0 C6.82636852 -0.39808197 13.28839973 0.2050618 20 1.375 C20.7417749 1.50108643 21.4835498 1.62717285 22.24780273 1.75708008 C25.74020571 2.39960527 28.00793467 3.00528978 31 5 C28.12605502 5.81639318 25.2509487 6.62822141 22.375 7.4375 C21.56675781 7.66759766 20.75851562 7.89769531 19.92578125 8.13476562 C15.6331826 9.3387872 11.42457793 10.37712252 7 11 C6.6596875 9.88625 6.6596875 9.88625 6.3125 8.75 C4.75626034 5.48930737 2.836696 4.16484695 0 2 C0 1.34 0 0.68 0 0 Z " fill="#AB938B" transform="translate(382,575)"/>
<path d="M0 0 C1.98 0 3.96 0 6 0 C8.61177122 8.0918269 10.71240023 15.41161947 10 24 C7.36 24.66 4.72 25.32 2 26 C2.03480469 24.44152344 2.03480469 24.44152344 2.0703125 22.8515625 C2.19104158 14.98908095 2.06158401 7.65731203 0 0 Z " fill="#9F9995" transform="translate(491,694)"/>
<path d="M0 0 C-0.31182069 1.41681634 -0.62448737 2.83344651 -0.9375 4.25 C-1.19853516 5.43335938 -1.19853516 5.43335938 -1.46484375 6.640625 C-1.947556 8.76878703 -2.46163178 10.88532842 -3 13 C-8.4185766 13.22577402 -12.77487721 12.46670113 -18 11 C-18.33 9.02 -18.66 7.04 -19 5 C-17.68 5 -16.36 5 -15 5 C-15 4.34 -15 3.68 -15 3 C-13.25183142 2.49363393 -11.50137737 1.99515381 -9.75 1.5 C-8.77546875 1.2215625 -7.8009375 0.943125 -6.796875 0.65625 C-4 0 -4 0 0 0 Z " fill="#958F8B" transform="translate(528,686)"/>
<path d="M0 0 C0.60585938 0.45890625 1.21171875 0.9178125 1.8359375 1.390625 C-2.09841468 2.70207573 -3.33964156 1.69689098 -7.1015625 0.078125 C-17.88042735 -4.22626683 -28.65383616 -4.96235044 -40.1640625 -5.609375 C-40.1640625 -6.269375 -40.1640625 -6.929375 -40.1640625 -7.609375 C-24.21434295 -11.5615179 -13.23735953 -9.69382021 0 0 Z " fill="#2E2C29" transform="translate(491.1640625,263.609375)"/>
<path d="M0 0 C-0.67804688 0.51046875 -1.35609375 1.0209375 -2.0546875 1.546875 C-12.94400319 10.05321025 -20.94479383 20.13230221 -28 32 C-29.69888137 28.60223726 -28.15283179 25.46653313 -27.13671875 21.94921875 C-23.59078563 12.74928919 -15.26426347 5.1025489 -6.6875 0.5 C-3 -1 -3 -1 0 0 Z " fill="#292725" transform="translate(326,298)"/>
<path d="M0 0 C4.01241838 1.33747279 5.40486719 3.95954175 7.6875 7.3125 C8.10322266 7.89451172 8.51894531 8.47652344 8.94726562 9.07617188 C11.25357531 12.42013157 12 13.82159123 12 18 C9.4375 18.5 9.4375 18.5 6 18 C1.99235987 14.43222281 -1.84374756 10.50003902 -2.1875 5 C-2 2 -2 2 0 0 Z " fill="#7F7975" transform="translate(439,318)"/>
<path d="M0 0 C2.64 0 5.28 0 8 0 C8 1.98 8 3.96 8 6 C10.64 6.33 13.28 6.66 16 7 C16 7.99 16 8.98 16 10 C22.27 10 28.54 10 35 10 C35 10.33 35 10.66 35 11 C23.6184852 11.10492107 12.33439373 11.17759935 1 10 C0.67 6.7 0.34 3.4 0 0 Z " fill="#474340" transform="translate(465,726)"/>
<path d="M0 0 C9.75 2.875 9.75 2.875 12 4 C12 4.66 12 5.32 12 6 C8.92209798 7.03774122 5.83699754 8.05216917 2.75 9.0625 C1.87730469 9.35705078 1.00460937 9.65160156 0.10546875 9.95507812 C-0.73886719 10.22900391 -1.58320312 10.50292969 -2.453125 10.78515625 C-3.22817383 11.04176025 -4.00322266 11.29836426 -4.80175781 11.56274414 C-7 12 -7 12 -11 11 C-7.37 7.37 -3.74 3.74 0 0 Z " fill="#8F807A" transform="translate(544,439)"/>
<path d="M0 0 C0.99 0.66 1.98 1.32 3 2 C3.37331109 5.42201828 3.63763183 7.90185629 1.875 10.9375 C-0.84949899 12.48138276 -2.92891945 12.3267107 -6 12 C-8 10 -8 10 -8.3125 6.5625 C-8 3 -8 3 -6.8125 1.0625 C-4.3648354 -0.37233787 -2.79523674 -0.34940459 0 0 Z " fill="#C1BDBA" transform="translate(509,615)"/>
<path d="M0 0 C12.07181834 -0.41706858 23.99785846 0.84331534 36 2 C36.625 3.875 36.625 3.875 37 6 C35 8 35 8 32.1875 8.3125 C29 8 29 8 26.75390625 6.58203125 C23.4366417 4.67636864 20.5051063 4.07811661 16.75 3.375 C16.0912085 3.25020264 15.43241699 3.12540527 14.75366211 2.99682617 C9.84829469 2.09078515 4.96697728 1.43569976 0 1 C0 0.67 0 0.34 0 0 Z " fill="#605B58" transform="translate(405,696)"/>
<path d="M0 0 C1.41179301 2.82358602 1.28379289 5.29085463 1.375 8.4375 C1.42398438 9.59121094 1.47296875 10.74492188 1.5234375 11.93359375 C1 15 1 15 -1.3984375 16.91015625 C-4 18 -4 18 -6 18 C-6 12.72 -6 7.44 -6 2 C-2 0 -2 0 0 0 Z " fill="#9C928D" transform="translate(533,656)"/>
<path d="M0 0 C0.763125 0.0825 1.52625 0.165 2.3125 0.25 C2.3125 0.91 2.3125 1.57 2.3125 2.25 C3.3025 2.58 4.2925 2.91 5.3125 3.25 C5.35491723 5.58294775 5.35342937 7.91702567 5.3125 10.25 C4.3125 11.25 4.3125 11.25 2.02734375 11.34765625 C0.65255859 11.33025391 0.65255859 11.33025391 -0.75 11.3125 C-1.66910156 11.30347656 -2.58820313 11.29445313 -3.53515625 11.28515625 C-4.24542969 11.27355469 -4.95570313 11.26195312 -5.6875 11.25 C-6.04858597 4.99117647 -6.04858597 4.99117647 -4.5 1.8125 C-2.6875 0.25 -2.6875 0.25 0 0 Z " fill="#B2ADA9" transform="translate(409.6875,599.75)"/>
<path d="M0 0 C2.40569331 3.05783908 4.36189615 6.22457996 6.25 9.625 C6.79140625 10.58664062 7.3328125 11.54828125 7.890625 12.5390625 C8.25671875 13.35117187 8.6228125 14.16328125 9 15 C8.67 15.66 8.34 16.32 8 17 C7.67 17 7.34 17 7 17 C6.34 18.98 5.68 20.96 5 23 C2.5625 22.625 2.5625 22.625 0 22 C-0.33 21.34 -0.66 20.68 -1 20 C0.98 20 2.96 20 5 20 C2.91768958 14.36551299 -0.03704136 9.8871193 -3.57421875 5.0390625 C-5 3 -5 3 -5 2 C-3.35 2 -1.7 2 0 2 C0 1.34 0 0.68 0 0 Z " fill="#938C87" transform="translate(446,316)"/>
<path d="M0 0 C-0.59453303 15.74487472 -0.59453303 15.74487472 -4 23 C-4.33 23 -4.66 23 -5 23 C-5.04898438 21.95199219 -5.09796875 20.90398437 -5.1484375 19.82421875 C-5.22348143 18.44528646 -5.29902857 17.0663815 -5.375 15.6875 C-5.4059375 14.99720703 -5.436875 14.30691406 -5.46875 13.59570312 C-5.68124919 9.93009211 -5.91933861 8.12099208 -8 5 C-8 4.01 -8 3.02 -8 2 C-2.25 0 -2.25 0 0 0 Z " fill="#C4BBB8" transform="translate(568,456)"/>
<path d="M0 0 C1.30839844 0.06058594 2.61679687 0.12117187 3.96484375 0.18359375 C27.63128945 1.21086218 51.31689933 1.56105873 75 2 C75 2.33 75 2.66 75 3 C67.49675235 3.02567014 59.99351631 3.04299894 52.49023438 3.05493164 C49.94563372 3.05991412 47.40103585 3.06670252 44.85644531 3.07543945 C30.53503127 3.12332774 16.28733654 3.05554452 2 2 C1.67 2.66 1.34 3.32 1 4 C0.67 2.68 0.34 1.36 0 0 Z " fill="#6F6A67" transform="translate(389,648)"/>
<path d="M0 0 C5.28 0 10.56 0 16 0 C16.66 1.32 17.32 2.64 18 4 C20.0335948 5.26804566 20.0335948 5.26804566 22 6 C19.08302989 5.85895309 16.1665198 5.71235186 13.25 5.5625 C12.0125 5.50352539 12.0125 5.50352539 10.75 5.44335938 C9.95078125 5.40146484 9.1515625 5.35957031 8.328125 5.31640625 C7.5949707 5.27974854 6.86181641 5.24309082 6.10644531 5.20532227 C3.98822395 4.99885215 2.0480544 4.56867914 0 4 C0 2.68 0 1.36 0 0 Z " fill="#847B76" transform="translate(391,650)"/>
<path d="M0 0 C0.33 0 0.66 0 1 0 C1.28994872 9.13338455 0.1741788 17.96301675 -1 27 C-1.66 27 -2.32 27 -3 27 C-5.5194982 19.4415054 -4.48771179 10.46313537 -2 3 C-1.34 2.01 -0.68 1.02 0 0 Z " fill="#201E1C" transform="translate(265,391)"/>
<path d="M0 0 C1.28648437 -0.02578125 2.57296875 -0.0515625 3.8984375 -0.078125 C7.83578501 0.26855969 10.24475473 1.26162043 13.625 3.25 C13.625 3.58 13.625 3.91 13.625 4.25 C10.25001842 4.27922646 6.87506979 4.29687468 3.5 4.3125 C2.07300781 4.32506836 2.07300781 4.32506836 0.6171875 4.33789062 C-4.16518487 4.35449608 -8.67271569 4.25537055 -13.375 3.25 C-9.61406757 -0.51093243 -5.12530959 0.06138095 0 0 Z " fill="#42403D" transform="translate(429.375,227.75)"/>
<path d="M0 0 C1.98 0 3.96 0 6 0 C6.49456314 4.94563138 5.3260355 7.86965706 2.97265625 12.0703125 C1.98177096 14.03616525 1.45337523 15.8524331 1 18 C0.34 18 -0.32 18 -1 18 C-1.02717692 15.93757383 -1.0464758 13.87504297 -1.0625 11.8125 C-1.07410156 10.66394531 -1.08570313 9.51539063 -1.09765625 8.33203125 C-1.01192832 5.40699414 -0.67849023 2.83683709 0 0 Z " fill="#C8BEB9" transform="translate(591,450)"/>
<path d="M0 0 C10.94366902 -0.88599419 17.41507862 0.65027644 27 6 C27 6.66 27 7.32 27 8 C21.84496189 7.06770587 16.81531068 6.00520104 11.8125 4.4375 C7.85977835 3.20110365 4.11389563 2.44716257 0 2 C0 1.34 0 0.68 0 0 Z " fill="#373532" transform="translate(467,310)"/>
<path d="M0 0 C1.1446875 0.3403125 1.1446875 0.3403125 2.3125 0.6875 C2.4375 3.5625 2.4375 3.5625 2.3125 6.6875 C1.6525 7.3475 0.9925 8.0075 0.3125 8.6875 C1.3025 9.3475 2.2925 10.0075 3.3125 10.6875 C-0.3175 11.0175 -3.9475 11.3475 -7.6875 11.6875 C-6.6975 10.6975 -5.7075 9.7075 -4.6875 8.6875 C-5.0175 8.3575 -5.3475 8.0275 -5.6875 7.6875 C-5.9857732 4.85390458 -6.04352594 3.24964622 -4.5 0.8125 C-2.6875 -0.3125 -2.6875 -0.3125 0 0 Z " fill="#57514E" transform="translate(492.6875,673.3125)"/>
<path d="M0 0 C0.66 0.66 1.32 1.32 2 2 C1.44444444 6.55555556 1.44444444 6.55555556 0 8 C-3.72224599 8.29386153 -4.77786243 8.14809171 -8 6 C-8.1875 2.875 -8.1875 2.875 -8 0 C-5.09288879 -1.4535556 -3.10402897 -0.71133997 0 0 Z " fill="#6F6B68" transform="translate(401,698)"/>
<path d="M0 0 C0 5.28 0 10.56 0 16 C-1.32 14.35 -2.64 12.7 -4 11 C-4.91363597 9.9348928 -5.82976272 8.87190897 -6.75 7.8125 C-9 5 -9 5 -9 3 C-2.25 0 -2.25 0 0 0 Z " fill="#393635" transform="translate(539,576)"/>
<path d="M0 0 C3.63 0 7.26 0 11 0 C11 2.97 11 5.94 11 9 C11.66 9.33 12.32 9.66 13 10 C11.02 10.33 9.04 10.66 7 11 C6.6596875 9.88625 6.6596875 9.88625 6.3125 8.75 C4.75626034 5.48930737 2.836696 4.16484695 0 2 C0 1.34 0 0.68 0 0 Z " fill="#7D6962" transform="translate(382,575)"/>
<path d="M0 0 C6.73742646 -0.11044961 13.29980211 0.29867087 20 1 C19.67 2.65 19.34 4.3 19 6 C14.98846379 7.60461448 11.92685226 6.45438973 8 5 C7.34 4.01 6.68 3.02 6 2 C2.93443402 1.26656572 2.93443402 1.26656572 0 1 C0 0.67 0 0.34 0 0 Z " fill="#564D4A" transform="translate(360,657)"/>
<path d="M0 0 C3.39527689 1.40494216 5.30647023 2.69761694 7 6 C7.24492511 9.01726886 7.17422028 11.98018176 7 15 C3.05879291 14.43697042 0.2491277 13.3208055 -3 11 C-3 10.34 -3 9.68 -3 9 C-0.03 9.495 -0.03 9.495 3 10 C2.05066101 6.64566891 1.10251165 3.30753495 0 0 Z " fill="#3A3532" transform="translate(498,510)"/>
<path d="M0 0 C0.33 0 0.66 0 1 0 C1 6.93 1 13.86 1 21 C0.34 21 -0.32 21 -1 21 C-1 20.34 -1 19.68 -1 19 C-1.88751953 18.61134766 -1.88751953 18.61134766 -2.79296875 18.21484375 C-5.15831069 16.91285907 -6.550917 15.59509577 -8.3125 13.5625 C-8.84488281 12.96566406 -9.37726562 12.36882812 -9.92578125 11.75390625 C-10.28027344 11.17511719 -10.63476562 10.59632813 -11 10 C-10.67 9.01 -10.34 8.02 -10 7 C-8.35 8.65 -6.7 10.3 -5 12 C-4.34 11.67 -3.68 11.34 -3 11 C-2.34 12.32 -1.68 13.64 -1 15 C-0.67 10.05 -0.34 5.1 0 0 Z " fill="#B8B2AF" transform="translate(599,380)"/>
<path d="M0 0 C1.65 0.33 3.3 0.66 5 1 C5.625 3.8125 5.625 3.8125 6 7 C5.01 8.485 5.01 8.485 4 10 C2.35 9.67 0.7 9.34 -1 9 C-1.625 6.1875 -1.625 6.1875 -2 3 C-1.34 2.01 -0.68 1.02 0 0 Z " fill="#57524E" transform="translate(435,673)"/>
<path d="M0 0 C0.66 0.33 1.32 0.66 2 1 C2 9.58 2 18.16 2 27 C1.67 27 1.34 27 1 27 C1 25.35 1 23.7 1 22 C0.01 22 -0.98 22 -2 22 C-1.855625 20.96875 -1.71125 19.9375 -1.5625 18.875 C-0.7706178 12.60781804 -0.41593834 6.30102341 0 0 Z " fill="#7C7672" transform="translate(601,428)"/>
<path d="M0 0 C-0.33 2.97 -0.66 5.94 -1 9 C-3.3125 9.625 -3.3125 9.625 -6 10 C-6.99 9.34 -7.98 8.68 -9 8 C-5.8 0 -5.8 0 0 0 Z " fill="#CECBC8" transform="translate(526,688)"/>
<path d="M0 0 C4.62 0.99 9.24 1.98 14 3 C12 7 12 7 8.6875 8.125 C5 8 5 8 3.4296875 6.78515625 C0 2.77732143 0 2.77732143 0 0 Z " fill="#AFDEFB" transform="translate(430,487)"/>
<path d="M0 0 C0.33 0 0.66 0 1 0 C1.33 5.61 1.66 11.22 2 17 C1.34 16.67 0.68 16.34 0 16 C-0.33 22.6 -0.66 29.2 -1 36 C-1.33 36 -1.66 36 -2 36 C-2.05859908 31.68755812 -2.09379686 27.37522026 -2.125 23.0625 C-2.14175781 21.85013672 -2.15851563 20.63777344 -2.17578125 19.38867188 C-2.21267208 12.5823144 -1.80060558 6.57150148 0 0 Z " fill="#484441" transform="translate(308,487)"/>
<path d="M0 0 C-0.66 3.96 -1.32 7.92 -2 12 C-3.65 12 -5.3 12 -7 12 C-7.48842105 4.67368421 -7.48842105 4.67368421 -5.1875 1.5 C-3 0 -3 0 0 0 Z " fill="#262523" transform="translate(386,306)"/>
<path d="M0 0 C0.33 0.66 0.66 1.32 1 2 C0.22265625 3.7265625 0.22265625 3.7265625 -0.9375 5.625 C-1.618125 6.73875 -2.29875 7.8525 -3 9 C-4.65 8.67 -6.3 8.34 -8 8 C-8.33 6.68 -8.66 5.36 -9 4 C-7.35 3.67 -5.7 3.34 -4 3 C-4 2.34 -4 1.68 -4 1 C-2.68 0.67 -1.36 0.34 0 0 Z " fill="#B0DEFB" transform="translate(562,474)"/>
<path d="M0 0 C3.11944532 2.26868751 3.83598349 5.06205884 4.66015625 8.7265625 C5.2222951 12.48707755 5.15794996 16.209201 5 20 C4.01 20 3.02 20 2 20 C1.93941406 18.97519531 1.87882812 17.95039062 1.81640625 16.89453125 C1.73194974 15.53384305 1.64730433 14.17316657 1.5625 12.8125 C1.52318359 12.13896484 1.48386719 11.46542969 1.44335938 10.77148438 C1.21072435 7.10300898 0.82792989 3.58305794 0 0 Z " fill="#BEBBB8" transform="translate(496,697)"/>
<path d="M0 0 C2.125 0.375 2.125 0.375 4 1 C4.38133299 2.9914056 4.71325582 4.99279077 5 7 C4 8 4 8 1.5 8.125 C-1 8 -1 8 -2 7 C-2.1875 4.5625 -2.1875 4.5625 -2 2 C-1.34 1.34 -0.68 0.68 0 0 Z " fill="#4F4B4A" transform="translate(326,591)"/>
<path d="M0 0 C0.33 0.66 0.66 1.32 1 2 C0.34 2 -0.32 2 -1 2 C-1.268125 2.680625 -1.53625 3.36125 -1.8125 4.0625 C-3.16053306 7.39710809 -4.57536298 10.69743237 -6 14 C-8.09749995 11.64031256 -8.96905704 10.45383006 -9.1875 7.25 C-9.125625 6.5075 -9.06375 5.765 -9 5 C-8.071875 4.731875 -7.14375 4.46375 -6.1875 4.1875 C-3.23759634 3.08851629 -1.94384814 2.37581439 0 0 Z " fill="#2B2928" transform="translate(339,585)"/>
<path d="M0 0 C5.94 0.99 5.94 0.99 12 2 C8.8388984 5.1611016 8.4438418 5.38812741 4.3125 5.6875 C3.50425781 5.75324219 2.69601562 5.81898438 1.86328125 5.88671875 C0.94095703 5.94279297 0.94095703 5.94279297 0 6 C0 4.02 0 2.04 0 0 Z " fill="#CAB4AC" transform="translate(397,577)"/>
<path d="M0 0 C7.10392456 -0.19228668 13.24034544 -0.20723414 20 2 C23.29219428 2.16847091 23.29219428 2.16847091 26 2 C26 2.99 26 3.98 26 5 C24.10416667 4.70833333 22.20833333 4.41666667 20.3125 4.125 C19.13945312 3.94453125 17.96640625 3.7640625 16.7578125 3.578125 C9.57226562 2.47265625 9.57226562 2.47265625 2.38671875 1.3671875 C1.59910156 1.24601563 0.81148438 1.12484375 0 1 C0 0.67 0 0.34 0 0 Z " fill="#79736E" transform="translate(405,696)"/>
<path d="M0 0 C0.33 0 0.66 0 1 0 C0.67 6.27 0.34 12.54 0 19 C-0.99 19 -1.98 19 -3 19 C-2.88573491 16.58239124 -2.75900339 14.16652782 -2.625 11.75 C-2.5940625 11.06808594 -2.563125 10.38617187 -2.53125 9.68359375 C-2.31740626 6.01260962 -1.98922945 3.13748384 0 0 Z " fill="#403C3A" transform="translate(391,665)"/>
<path d="M0 0 C3 1 3 1 4.6875 3.9375 C6 7 6 7 6 9 C5.01 9 4.02 9 3 9 C3 8.34 3 7.68 3 7 C1.02 6.34 -0.96 5.68 -3 5 C-2.625 3.0625 -2.625 3.0625 -2 1 C-1.34 0.67 -0.68 0.34 0 0 Z " fill="#AE9B95" transform="translate(539,641)"/>
<path d="M0 0 C0 0.33 0 0.66 0 1 C-0.71027344 1.04898438 -1.42054688 1.09796875 -2.15234375 1.1484375 C-3.53099609 1.26058594 -3.53099609 1.26058594 -4.9375 1.375 C-5.85402344 1.44460937 -6.77054687 1.51421875 -7.71484375 1.5859375 C-8.84599609 1.79089844 -8.84599609 1.79089844 -10 2 C-10.33 2.66 -10.66 3.32 -11 4 C-14.63 4 -18.26 4 -22 4 C-22 3.34 -22 2.68 -22 2 C-14.58569409 0.16282685 -7.62314474 -0.23576736 0 0 Z " fill="#5B5653" transform="translate(473,254)"/>
<path d="M0 0 C1.08644535 4.3457814 0.90680911 4.94960548 -0.9375 8.75 C-1.31777344 9.54921875 -1.69804687 10.3484375 -2.08984375 11.171875 C-2.39019531 11.77515625 -2.69054687 12.3784375 -3 13 C-3.66 12.34 -4.32 11.68 -5 11 C-5.99 11 -6.98 11 -8 11 C-5.36 7.37 -2.72 3.74 0 0 Z " fill="#45413F" transform="translate(343,352)"/>
<path d="M0 0 C0.33 0 0.66 0 1 0 C1 9.24 1 18.48 1 28 C0.34 27.67 -0.32 27.34 -1 27 C-1.40729228 24.67843403 -1.74438677 22.3431213 -2 20 C-1.67 20 -1.34 20 -1 20 C-0.67 13.4 -0.34 6.8 0 0 Z " fill="#484442" transform="translate(322,433)"/>
<path d="M0 0 C12.87 0.495 12.87 0.495 26 1 C26 1.33 26 1.66 26 2 C18.08 2 10.16 2 2 2 C1.67 2.66 1.34 3.32 1 4 C0.67 2.68 0.34 1.36 0 0 Z " fill="#595350" transform="translate(389,648)"/>
<path d="M0 0 C2.97 0 5.94 0 9 0 C8.67 1.65 8.34 3.3 8 5 C4.75791433 4.64950425 3.38472296 4.43778819 1.1875 1.9375 C0.795625 1.298125 0.40375 0.65875 0 0 Z " fill="#AD9993" transform="translate(370,659)"/>
<path d="M0 0 C0.66 0.33 1.32 0.66 2 1 C-1.96 4.96 -5.92 8.92 -10 13 C-10.66 12.67 -11.32 12.34 -12 12 C-10.75479583 10.55834372 -9.50362077 9.12184348 -8.25 7.6875 C-7.55390625 6.88699219 -6.8578125 6.08648437 -6.140625 5.26171875 C-4.20854665 3.22034399 -2.30056874 1.60107149 0 0 Z " fill="#393431" transform="translate(543,421)"/>
<path d="M0 0 C3.375 1.5 3.375 1.5 6 3 C5.67 3.99 5.34 4.98 5 6 C4.195625 5.525625 3.39125 5.05125 2.5625 4.5625 C-1.66939929 2.70640382 -5.43172078 2.29440022 -10 2 C-6.4190055 0.07118107 -4.11100659 -0.41110066 0 0 Z " fill="#BCB4AF" transform="translate(438,226)"/>
<path d="M0 0 C-0.66 2.97 -1.32 5.94 -2 9 C-3.04449911 5.86650268 -2.93423645 5.01031744 -2 2 C-3.216875 2.33 -4.43375 2.66 -5.6875 3 C-8.87210604 3.80322213 -11.6972843 4.20641973 -15 4 C-10.22894198 1.32820751 -5.46088946 0 0 0 Z " fill="#7A7875" transform="translate(528,686)"/>
<path d="M0 0 C0.99 0.495 0.99 0.495 2 1 C3.85831876 6.78143614 4.25181858 11.95635404 4 18 C3.67 18 3.34 18 3 18 C2.49490792 15.75113762 1.99610821 13.50086131 1.5 11.25 C1.2215625 9.99703125 0.943125 8.7440625 0.65625 7.453125 C0 4 0 4 0 0 Z " fill="#D0CAC6" transform="translate(342,479)"/>
<path d="M0 0 C0.33 0 0.66 0 1 0 C1.09688221 5.44693314 1.12862175 10.63904667 0 16 C-0.33 16 -0.66 16 -1 16 C-1 13.03 -1 10.06 -1 7 C-1.66 7.66 -2.32 8.32 -3 9 C-2.5020163 5.26512223 -2.12508244 3.18762365 0 0 Z " fill="#3B3836" transform="translate(265,391)"/>
<path d="M0 0 C0.99 0 1.98 0 3 0 C1.61085525 4.29718953 -0.38031985 6.70687757 -3.625 9.8125 C-4.44226563 10.60269531 -5.25953125 11.39289063 -6.1015625 12.20703125 C-6.72804688 12.79871094 -7.35453125 13.39039063 -8 14 C-8.66 13.67 -9.32 13.34 -10 13 C-8.9171875 11.96939453 -8.9171875 11.96939453 -7.8125 10.91796875 C-6.884375 10.01691406 -5.95625 9.11585938 -5 8.1875 C-4.071875 7.29417969 -3.14375 6.40085937 -2.1875 5.48046875 C0.33071315 3.17620272 0.33071315 3.17620272 0 0 Z " fill="#8C8581" transform="translate(368,253)"/>
<path d="M0 0 C1.98 0.495 1.98 0.495 4 1 C3.67 2.65 3.34 4.3 3 6 C1.68 5.67 0.36 5.34 -1 5 C-0.67 3.35 -0.34 1.7 0 0 Z " fill="#635D5A" transform="translate(399,618)"/>
<path d="M0 0 C0.99 0.33 1.98 0.66 3 1 C2.34 2.32 1.68 3.64 1 5 C0.34 5 -0.32 5 -1 5 C-1 5.66 -1 6.32 -1 7 C-1.66 7 -2.32 7 -3 7 C-3.1875 4.625 -3.1875 4.625 -3 2 C-2.01 1.34 -1.02 0.68 0 0 Z " fill="#95867F" transform="translate(549,660)"/>
<path d="M0 0 C0 0.66 0 1.32 0 2 C0.99 2.66 1.98 3.32 3 4 C2.01 4 1.02 4 0 4 C0 4.66 0 5.32 0 6 C-1.98 5.34 -3.96 4.68 -6 4 C-2.25 0 -2.25 0 0 0 Z " fill="#B5B0AC" transform="translate(370,216)"/>
<path d="M0 0 C0.66 1.32 1.32 2.64 2 4 C4.64 4 7.28 4 10 4 C10 4.33 10 4.66 10 5 C6.37 5.33 2.74 5.66 -1 6 C-0.67 4.02 -0.34 2.04 0 0 Z " fill="#78736F" transform="translate(486,632)"/>
<path d="M0 0 C0.99 0.33 1.98 0.66 3 1 C0.36 3.64 -2.28 6.28 -5 9 C-5.66 8.67 -6.32 8.34 -7 8 C-4.69 5.36 -2.38 2.72 0 0 Z " fill="#34322F" transform="translate(355,261)"/>
<path d="M0 0 C0.99 0 1.98 0 3 0 C3 3.63 3 7.26 3 11 C1.04783565 7.09567131 0.49360009 4.27786748 0 0 Z " fill="#908984" transform="translate(480,696)"/>
<path d="M0 0 C0.66 0 1.32 0 2 0 C2 2.31 2 4.62 2 7 C1.01 7.33 0.02 7.66 -1 8 C-1.04241723 5.66705225 -1.04092937 3.33297433 -1 1 C-0.67 0.67 -0.34 0.34 0 0 Z " fill="#BDB8B5" transform="translate(413,603)"/>
<path d="M0 0 C1.98 0.495 1.98 0.495 4 1 C4 2.32 4 3.64 4 5 C2.35 4.67 0.7 4.34 -1 4 C-0.67 2.68 -0.34 1.36 0 0 Z " fill="#BBB6B3" transform="translate(421,602)"/>
<path d="M0 0 C3.3 0 6.6 0 10 0 C8.515 1.485 8.515 1.485 7 3 C3.3125 2.6875 3.3125 2.6875 0 2 C0 1.34 0 0.68 0 0 Z " fill="#6E635E" transform="translate(476,580)"/>
<path d="M0 0 C2.97 0 5.94 0 9 0 C8.01 0.495 8.01 0.495 7 1 C7 1.66 7 2.32 7 3 C4.69 2.67 2.38 2.34 0 2 C0 1.34 0 0.68 0 0 Z " fill="#45423F" transform="translate(512,313)"/>
<path d="M0 0 C1.98 0 3.96 0 6 0 C6.33 0.99 6.66 1.98 7 3 C4.69 3 2.38 3 0 3 C0 2.01 0 1.02 0 0 Z " fill="#BEB9B6" transform="translate(437,596)"/>
<path d="M0 0 C-3 2 -3 2 -6 3 C-5.67 3.66 -5.34 4.32 -5 5 C-6.65 4.67 -8.3 4.34 -10 4 C-10 3.34 -10 2.68 -10 2 C-6.49223216 0.39644899 -3.85645121 -0.22036864 0 0 Z " fill="#443E3A" transform="translate(466,534)"/>
<path d="M0 0 C-2.31 1.65 -4.62 3.3 -7 5 C-7 4.34 -7 3.68 -7 3 C-7.66 2.67 -8.32 2.34 -9 2 C-3.375 -1.125 -3.375 -1.125 0 0 Z " fill="#3B3836" transform="translate(326,298)"/>
<path d="M0 0 C0 0.66 0 1.32 0 2 C-3.3 1.34 -6.6 0.68 -10 0 C-10 -0.33 -10 -0.66 -10 -1 C-5.94568308 -2.15837626 -3.78187881 -1.83691257 0 0 Z " fill="#504C49" transform="translate(494,316)"/>
<path d="M0 0 C0.99 0 1.98 0 3 0 C3 1.65 3 3.3 3 5 C1.68 4.67 0.36 4.34 -1 4 C-0.67 2.68 -0.34 1.36 0 0 Z " fill="#BEB9B6" transform="translate(429,591)"/>
<path d="M0 0 C-3.6441774 2.4294516 -5.71241272 2.16179575 -10 2 C-7.85732894 -2.28534211 -3.95706306 -0.79141261 0 0 Z " fill="#242220" transform="translate(469,536)"/>
<path d="M0 0 C2 3 2 3 1.625 5.1875 C1.41875 5.785625 1.2125 6.38375 1 7 C0.67 6.67 0.34 6.34 0 6 C-0.66 6.66 -1.32 7.32 -2 8 C-1.125 1.125 -1.125 1.125 0 0 Z " fill="#423F3C" transform="translate(278,472)"/>
<path d="M0 0 C2.97 0.33 5.94 0.66 9 1 C8.67 1.66 8.34 2.32 8 3 C5.125 3.1875 5.125 3.1875 2 3 C1.34 2.01 0.68 1.02 0 0 Z " fill="#6D6966" transform="translate(432,701)"/>
<path d="M0 0 C1.65 0 3.3 0 5 0 C5.33 0.99 5.66 1.98 6 3 C4.02 3 2.04 3 0 3 C0 2.01 0 1.02 0 0 Z " fill="#C1BDBA" transform="translate(501,589)"/>
<path d="M0 0 C7.50769231 -0.36923077 7.50769231 -0.36923077 10 1.5 C10.495 2.2425 10.495 2.2425 11 3 C9.741875 2.87625 8.48375 2.7525 7.1875 2.625 C6.12595703 2.52058594 6.12595703 2.52058594 5.04296875 2.4140625 C3 2 3 2 0 0 Z " fill="#605652" transform="translate(444,455)"/>
<path d="M0 0 C0.99 0.33 1.98 0.66 3 1 C3 3.31 3 5.62 3 8 C2.34 8 1.68 8 1 8 C0.67 5.36 0.34 2.72 0 0 Z " fill="#5A5552" transform="translate(261,410)"/>
<path d="M0 0 C0.33 0.99 0.66 1.98 1 3 C-0.8125 3.6875 -0.8125 3.6875 -3 4 C-4.75 2.5625 -4.75 2.5625 -6 1 C-4.02 0.67 -2.04 0.34 0 0 Z " fill="#ACA49E" transform="translate(451,335)"/>
<path d="M0 0 C0.66 0.33 1.32 0.66 2 1 C1.44855089 5.08072342 1.08669204 5.91330796 -2 9 C-1.34 6.03 -0.68 3.06 0 0 Z " fill="#353330" transform="translate(299,321)"/>
</svg>
