<?xml version="1.0" encoding="UTF-8"?>
<svg version="1.1" xmlns="http://www.w3.org/2000/svg" width="900" height="900">
<path d="M0 0 C5.98460372 4.68561997 11.65930976 9.71795194 17.20703125 14.91015625 C18.14417969 15.7815625 19.08132813 16.65296875 20.046875 17.55078125 C52.88569758 48.80124269 66.55605019 90.20224808 76.51953125 133.16015625 C76.69660614 133.9172287 76.87368103 134.67430115 77.05612183 135.45431519 C80.04325021 148.27959382 81.3760391 160.22247012 81.33203125 173.41015625 C81.33589844 174.56902344 81.33976562 175.72789062 81.34375 176.921875 C81.33821048 181.82434632 81.30233863 186.64082879 80.6875 191.5078125 C80.12656717 196.4139856 80.18136477 201.25848481 80.25 206.1875 C80.26023193 207.04425323 80.27046387 207.90100647 80.28100586 208.78372192 C80.32610278 212.35917523 80.37416808 215.93416289 80.45385742 219.5090332 C81.32418088 260.68787464 62.89512249 302.14529088 34.72851562 331.90893555 C26.57011412 340.24903162 17.77474244 346.8448543 7.20703125 351.91015625 C7.20703125 353.56015625 7.20703125 355.21015625 7.20703125 356.91015625 C7.86703125 356.91015625 8.52703125 356.91015625 9.20703125 356.91015625 C11.95021581 367.558464 14.61696234 378.2235913 17.20703125 388.91015625 C17.46162109 389.95220215 17.71621094 390.99424805 17.97851562 392.06787109 C21.1922497 405.55252554 25.25836519 424.87044926 20.37353516 438.18139648 C19.20703125 439.91015625 19.20703125 439.91015625 16.20703125 440.91015625 C15.32504714 442.77589187 14.44431497 444.64223084 13.5703125 446.51171875 C10.02995531 452.74031277 4.68767391 458.73659273 -1.79296875 461.91015625 C-3.11296875 461.91015625 -4.43296875 461.91015625 -5.79296875 461.91015625 C-5.85484375 462.96203125 -5.91671875 464.01390625 -5.98046875 465.09765625 C-6.88154873 472.20476598 -9.35213505 480.74504796 -14.23046875 486.16015625 C-17.14473274 488.15038531 -19.29557233 488.66615185 -22.79296875 488.91015625 C-22.42832233 495.04272691 -22.42832233 495.04272691 -20.29296875 500.72265625 C-18.00614047 505.58216634 -18.04222471 510.59842585 -17.79296875 515.91015625 C-30.12195154 521.50463157 -42.49695847 522.38797802 -55.85375977 522.24633789 C-58.2251197 522.22270955 -60.59534826 522.22581208 -62.96679688 522.23242188 C-73.04459629 522.21246894 -82.8287926 521.40268954 -92.79296875 519.91015625 C-93.73046875 512.53515625 -93.73046875 512.53515625 -94.01928711 510.21728516 C-94.4801333 506.44437287 -94.4801333 506.44437287 -95.79296875 502.91015625 C-98.10296875 503.24015625 -100.41296875 503.57015625 -102.79296875 503.91015625 C-102.64859375 504.64621094 -102.50421875 505.38226562 -102.35546875 506.140625 C-102.16984375 507.11644531 -101.98421875 508.09226562 -101.79296875 509.09765625 C-101.60734375 510.06058594 -101.42171875 511.02351562 -101.23046875 512.015625 C-100.82419263 514.70357685 -100.71363303 517.19786644 -100.79296875 519.91015625 C-102.95864419 520.39378321 -105.12556616 520.87182942 -107.29296875 521.34765625 C-109.1028125 521.74791016 -109.1028125 521.74791016 -110.94921875 522.15625 C-133.4595802 526.57139203 -158.76509646 525.20383405 -180.79296875 518.91015625 C-180.46296875 509.67015625 -180.13296875 500.43015625 -179.79296875 490.91015625 C-180.78296875 491.24015625 -181.77296875 491.57015625 -182.79296875 491.91015625 C-187.3369595 492.28261451 -189.86245394 492.32173011 -194.04296875 490.47265625 C-198.10340675 486.68906629 -199.74696413 482.10387449 -201.453125 476.89453125 C-203.55359866 473.78362566 -206.75751383 472.41271298 -209.98046875 470.66015625 C-216.09850995 467.15545771 -220.70084387 463.75604894 -224.79296875 457.91015625 C-225.62054688 456.811875 -225.62054688 456.811875 -226.46484375 455.69140625 C-229.9388281 450.86091373 -231.72906573 446.76162285 -232.79296875 440.91015625 C-233.94796875 441.40515625 -235.10296875 441.90015625 -236.29296875 442.41015625 C-240.64579767 444.06578582 -244.16818908 444.1579123 -248.79296875 443.91015625 C-251.34189456 439.05409996 -251.0546978 434.37183434 -250.98046875 429.03515625 C-250.97982422 428.16246094 -250.97917969 427.28976562 -250.97851562 426.390625 C-250.95310676 422.6357587 -250.81480221 419.06249046 -250.28125 415.33984375 C-249.67493728 411.83409675 -249.67493728 411.83409675 -249.96484375 407.95703125 C-250.03543075 401.5444735 -248.20270059 395.43114977 -246.59472656 389.2734375 C-246.04840984 387.18099611 -245.51695183 385.08524278 -244.98828125 382.98828125 C-242.59365261 373.57249902 -239.98423865 364.2253789 -236.79785156 355.04223633 C-235.93065312 352.44867061 -235.50548333 350.6341984 -235.79296875 347.91015625 C-238.17905506 344.47472666 -241.41993476 342.32585699 -244.79296875 339.91015625 C-246.43101206 338.65075099 -248.0542617 337.37377527 -249.67700195 336.09472656 C-250.84942241 335.17073232 -252.02511826 334.25088074 -253.20385742 333.33496094 C-259.73272638 328.24444935 -265.95199975 322.81349873 -272.15966797 317.33935547 C-273.56636454 316.1084434 -274.99237206 314.89966341 -276.421875 313.6953125 C-293.31521088 299.32863207 -305.29955213 279.07928863 -309.04296875 257.28515625 C-309.28773035 255.91663217 -309.53268924 254.54814335 -309.77783203 253.1796875 C-310.49522032 249.09653309 -311.14983826 245.00566808 -311.79296875 240.91015625 C-312.06415527 239.22841309 -312.06415527 239.22841309 -312.34082031 237.51269531 C-317.18433368 206.07319005 -317.36756303 171.25511868 -311.79296875 139.91015625 C-311.61604492 138.90629883 -311.43912109 137.90244141 -311.25683594 136.86816406 C-303.87983674 96.33926174 -289.86853153 56.29503456 -263.79296875 23.91015625 C-263.36516113 23.37551758 -262.93735352 22.84087891 -262.49658203 22.29003906 C-247.23830281 3.33394857 -228.10702445 -12.17482392 -203.20703125 -14.93359375 C-199.78543834 -15.27773084 -196.36222273 -15.59491157 -192.9375 -15.90625 C-191.83019531 -16.01839844 -190.72289062 -16.13054687 -189.58203125 -16.24609375 C-188.58896973 -16.33697266 -187.5959082 -16.42785156 -186.57275391 -16.52148438 C-181.50167122 -17.55832615 -178.24108589 -20.54256236 -174.37792969 -23.83203125 C-171.74987255 -25.91763667 -168.87129583 -27.52255465 -165.91796875 -29.08984375 C-165.27738525 -29.43088135 -164.63680176 -29.77191895 -163.97680664 -30.12329102 C-114.1466334 -55.65695494 -41.80230851 -31.27865043 0 0 Z M-233.79296875 340.91015625 C-232.79296875 342.91015625 -232.79296875 342.91015625 -232.79296875 342.91015625 Z " fill="#1D1C1A" transform="translate(546.79296875,227.08984375)"/>
<path d="M0 0 C1.06309752 0.81082045 2.12690762 1.6207074 3.19140625 2.4296875 C4.70541016 3.60917969 4.70541016 3.60917969 6.25 4.8125 C7.61898437 5.87404297 7.61898437 5.87404297 9.015625 6.95703125 C11 9 11 9 11 13 C11.83789062 13.185625 12.67578125 13.37125 13.5390625 13.5625 C18.18111053 15.49057412 20.92976668 18.41333171 24.375 22 C25.03983398 22.6798999 25.70466797 23.3597998 26.38964844 24.06030273 C31.28569315 29.12246753 35.75669034 34.37932571 40 40 C41.27951578 41.62596447 42.5674942 43.24503771 43.85522461 44.86450195 C45.75689993 47.26481365 47.63686744 49.68171813 49.51611328 52.09960938 C50.5168445 53.38123027 51.52317079 54.65849941 52.53466797 55.93164062 C63.40368469 69.62284787 73.02227708 85.11138539 76.5 102.5 C75.81792179 105.91039106 74.09954483 107.60272636 71.7578125 110.11328125 C69.97987032 111.97144306 69.97987032 111.97144306 68.4296875 113.98046875 C57.06386949 128.17401443 36.55725905 134.86445854 20 141 C7.16435143 145.97402246 -4.66387772 151.78736927 -15 161 C-15.77085937 161.67675781 -16.54171875 162.35351562 -17.3359375 163.05078125 C-23.84709212 169.12859964 -31.42419451 177.9610046 -33 187 C-33.66 187 -34.32 187 -35 187 C-35.11472656 187.50144531 -35.22945313 188.00289062 -35.34765625 188.51953125 C-35.8723841 190.51475389 -36.48337769 192.4871864 -37.12109375 194.44921875 C-43.08966817 213.30104139 -44.54904391 233.93899832 -41.6875 253.5 C-41.56955078 254.38558594 -41.45160156 255.27117187 -41.33007812 256.18359375 C-40.48763359 262.06774484 -39.04644747 267.4276359 -37 273 C-34.33690496 280.63367894 -31.78534337 288.00471724 -30.53515625 296.015625 C-29.38694417 302.4187931 -27.62718739 308.70452257 -26 315 C-36.84511125 318.61503708 -49.88607121 314.11352565 -60.5625 311.5 C-61.44397705 311.28641846 -62.3254541 311.07283691 -63.23364258 310.8527832 C-64.06532959 310.64355225 -64.8970166 310.43432129 -65.75390625 310.21875 C-66.49970947 310.03248047 -67.2455127 309.84621094 -68.01391602 309.65429688 C-70 309 -70 309 -73 307 C-73.66015625 304.20703125 -73.66015625 304.20703125 -74.0625 300.8125 C-74.64870333 296.01679847 -75.63572422 291.63338944 -77 287 C-79.874597 274.45238408 -81.01315377 261.81305553 -82 249 C-83.00077286 254.06440925 -83.2118961 258.97619503 -83.31640625 264.1171875 C-83.33718735 264.97434357 -83.35796844 265.83149963 -83.37937927 266.71463013 C-83.44441261 269.43467714 -83.50354341 272.15481517 -83.5625 274.875 C-83.60572924 276.72657166 -83.6493449 278.57813434 -83.69335938 280.4296875 C-83.80004621 284.95303331 -83.90144194 289.47647007 -84 294 C-83.34 294 -82.68 294 -82 294 C-81.505 298.95 -81.505 298.95 -81 304 C-89.75 301.25 -89.75 301.25 -92 299 C-92.70512717 297.34923718 -93.36862463 295.68035335 -94 294 C-94.30679688 293.31421875 -94.61359375 292.6284375 -94.9296875 291.921875 C-98.145206 284.5341548 -99.81665701 276.89659276 -101.54296875 269.06152344 C-102.19082896 266.13923089 -102.8785243 263.22652147 -103.5625 260.3125 C-110.18094319 231.46472046 -110.18094319 231.46472046 -110 222 C-110.66 222 -111.32 222 -112 222 C-113.97924429 230.68455426 -114.30349506 239.05286266 -114.25 247.9375 C-114.25773437 249.21818359 -114.26546875 250.49886719 -114.2734375 251.81835938 C-114.25913461 258.83750137 -113.81452043 265.49465599 -112.48974609 272.3918457 C-111.76665802 276.2426682 -111.38971494 280.10285064 -111 284 C-118.48142181 277.89271689 -124.67555997 271.06733338 -130 263 C-130 262.34 -130 261.68 -130 261 C-130.66 261 -131.32 261 -132 261 C-138.36499201 250.43171139 -140.23547305 240.22105108 -140 228 C-140.66 228 -141.32 228 -142 228 C-143.05838127 221.99139451 -143.11662571 216.15372439 -143.0625 210.0625 C-143.05798828 209.09248047 -143.05347656 208.12246094 -143.04882812 207.12304688 C-143.0371315 204.7486324 -143.02074086 202.37434979 -143 200 C-143.66 200 -144.32 200 -145 200 C-145.75464762 134.91720414 -142.73163208 60.76523354 -94.77734375 10.8125 C-82.99094559 -1.12309308 -68.1626216 -14.09096977 -50.66796875 -15.53515625 C-49.09885742 -15.66567383 -49.09885742 -15.66567383 -47.49804688 -15.79882812 C-46.40556641 -15.88583984 -45.31308594 -15.97285156 -44.1875 -16.0625 C-43.10662109 -16.15337891 -42.02574219 -16.24425781 -40.91210938 -16.33789062 C-23.24983497 -17.77993022 -13.60410915 -10.77372402 0 0 Z " fill="#A39B96" transform="translate(395,245)"/>
<path d="M0 0 C3.81002555 0.65159582 6.4456756 2.44996299 9.6875 4.5 C23.88749377 12.9873972 40.50983932 17.37180306 56.29296875 21.97314453 C72.56693004 26.76098142 85.08353133 33.99925644 97 46 C98.40378906 47.38058594 98.40378906 47.38058594 99.8359375 48.7890625 C102.68018434 53.00922659 102.58511617 55.92596803 102.3125 60.875 C102.27866211 62.050625 102.27866211 62.050625 102.24414062 63.25 C102.18568018 65.1675026 102.09601283 67.0840106 102 69 C101.01 69 100.02 69 99 69 C99 68.34 99 67.68 99 67 C87.94511784 64.60975521 78.09806374 65.78153753 68 71 C63.50990981 74.14865246 59.76202779 78.03490822 56 82 C55.175 82.85335937 54.35 83.70671875 53.5 84.5859375 C49.7887811 88.56045234 46.51763458 92.60200081 43.5 97.125 C39.01600519 103.73628537 33.64304426 109.31823009 26 112 C25.50838057 116.91619434 26.66217296 119.58586444 28.94140625 123.75 C30.10137527 126.21546922 30.65911595 128.53045278 31.25 131.1875 C34.01154911 141.97855333 41.08687154 152.83629888 50.73046875 158.64453125 C57.64822704 161.51246688 66.17018473 161.30121434 73.2421875 158.8984375 C79.12145395 155.85294491 83.612457 151.90037271 88 147 C88.97295781 146.0146636 89.95149105 145.03477623 90.9375 144.0625 C91.618125 143.381875 92.29875 142.70125 93 142 C93.24991456 148.65050424 92.73955334 154.56986533 91 161 C90.34 161 89.68 161 89 161 C88.95875 161.804375 88.9175 162.60875 88.875 163.4375 C85.04892426 179.01509408 68.78030372 188.06980263 56.04296875 195.79296875 C46.57742194 201.18403421 36.49649331 204.69160093 26.0625 207.6875 C25.37212646 207.88996338 24.68175293 208.09242676 23.97045898 208.30102539 C11.32012844 211.7913236 -1.23745626 212.32438496 -14.26708984 212.26074219 C-16.86449677 212.25004326 -19.46120795 212.26068839 -22.05859375 212.2734375 C-32.54864549 212.2820905 -42.62227537 211.53520127 -53 210 C-54.67393037 209.79367483 -56.34833648 209.59112614 -58.0234375 209.39453125 C-67.85624156 208.12695671 -77.45212927 206.11893573 -87.0625 203.6875 C-88.19929199 203.41591064 -89.33608398 203.14432129 -90.50732422 202.86450195 C-98.41629119 200.76685415 -98.41629119 200.76685415 -101.12890625 197.203125 C-101.41636719 196.14609375 -101.70382812 195.0890625 -102 194 C-102.49113281 192.34677734 -102.49113281 192.34677734 -102.9921875 190.66015625 C-103.42917969 188.87931641 -103.42917969 188.87931641 -103.875 187.0625 C-105.23831522 181.6618299 -106.81021511 176.39094981 -108.625 171.125 C-110.22372021 166.4458189 -111.57896932 161.88090954 -112.5390625 157.03515625 C-113.04342079 154.80828618 -113.74338905 152.71621929 -114.5 150.5625 C-117.67800072 141.21406679 -118.29589492 132.27249574 -118.20581055 122.44042969 C-118.18747003 120.37161968 -118.18530221 118.30325824 -118.18554688 116.234375 C-118.16773704 109.75217752 -118.02969282 103.40880814 -117 97 C-116.34 97 -115.68 97 -115 97 C-114.92652344 96.09507812 -114.92652344 96.09507812 -114.8515625 95.171875 C-114.73941406 93.97304688 -114.73941406 93.97304688 -114.625 92.75 C-114.55539062 91.96109375 -114.48578125 91.1721875 -114.4140625 90.359375 C-113.98492887 87.914123 -113.21399362 86.15163097 -112 84 C-109.53199953 85.15173355 -107.95216435 86.04783565 -106 88 C-105.82055664 90.79052734 -105.82055664 90.79052734 -105.91015625 94.3359375 C-105.93013672 95.62886719 -105.95011719 96.92179687 -105.97070312 98.25390625 C-106.01369426 100.29853548 -106.06163821 102.34286028 -106.11645508 104.38720703 C-106.51438034 120.3787059 -103.29345919 135.13279034 -93.1875 147.9375 C-84.95428742 156.53904051 -72.3872296 163.54770621 -60.31445312 164.12939453 C-59.31349609 164.13052246 -58.31253906 164.13165039 -57.28125 164.1328125 C-56.18425781 164.13410156 -55.08726562 164.13539063 -53.95703125 164.13671875 C-52.24580078 164.13091797 -52.24580078 164.13091797 -50.5 164.125 C-49.35917969 164.12886719 -48.21835937 164.13273438 -47.04296875 164.13671875 C-45.94597656 164.13542969 -44.84898437 164.13414062 -43.71875 164.1328125 C-42.21731445 164.13112061 -42.21731445 164.13112061 -40.68554688 164.12939453 C-38.26905504 164.01296356 -36.27199777 163.8217449 -34 163 C-33.67 162.34 -33.34 161.68 -33 161 C-30.67843403 160.59270772 -28.3431213 160.25561323 -26 160 C-26 159.34 -26 158.68 -26 158 C-24.3125 156.80859375 -24.3125 156.80859375 -22 155.4375 C-15.9187909 151.52404051 -11.01989408 146.50279192 -7.3984375 140.22265625 C-6.93695313 139.48917969 -6.47546875 138.75570312 -6 138 C-5.34 138 -4.68 138 -4 138 C-3.731875 136.96875 -3.46375 135.9375 -3.1875 134.875 C-0.64113278 126.07845868 -0.64113278 126.07845868 3.1875 123.5625 C5.34601432 122.02235593 5.34601432 122.02235593 5.6875 118.6875 C4.85517576 114.22321542 3.67816447 113.12503018 0.18359375 110.453125 C-2.10072013 108.93297337 -4.43402601 107.55521648 -6.8125 106.1875 C-15.72247701 100.96533825 -22.31017614 93.80380655 -28.83276367 85.94360352 C-41.59949426 70.61683682 -55.70633071 59.79469387 -74 52 C-75.33974268 51.34630912 -76.67666338 50.68629616 -78 50 C-78 49.34 -78 48.68 -78 48 C-76.97261719 47.62488281 -75.94523437 47.24976563 -74.88671875 46.86328125 C-67.62687912 44.1902684 -60.49005889 41.42838569 -53.484375 38.1328125 C-51.14141502 37.06448169 -48.78713824 36.14848102 -46.375 35.25 C-28.56373827 28.1937813 -9.83971443 16.99587037 0 0 Z " fill="#D0B9B1" transform="translate(485,357)"/>
<path d="M0 0 C0.76473129 -0.01111313 1.52946259 -0.02222626 2.31736755 -0.03367615 C4.80032991 -0.0607703 7.2825209 -0.06706204 9.765625 -0.06640625 C10.61476471 -0.06747375 11.46390442 -0.06854126 12.33877563 -0.06964111 C27.39001775 -0.04235222 41.42377671 1.45425283 56.015625 5.37109375 C56.88123047 5.60103027 57.74683594 5.8309668 58.63867188 6.06787109 C95.22125165 16.09331431 133.00442232 37.65798355 155.015625 69.37109375 C155.55574219 70.11746094 156.09585938 70.86382812 156.65234375 71.6328125 C166.41875413 85.26189305 174.50239769 99.14585508 179.015625 115.37109375 C179.75158002 117.37630452 180.50225671 119.37615795 181.265625 121.37109375 C183.6147808 127.86786883 185.46338979 134.43673504 187.203125 141.12109375 C187.45288086 142.07886719 187.70263672 143.03664063 187.95996094 144.0234375 C192.3855047 161.34337937 192.3855047 161.34337937 192.015625 168.37109375 C192.675625 168.37109375 193.335625 168.37109375 194.015625 168.37109375 C195.22640201 172.00342477 195.14006664 175.32231362 195.11328125 179.1015625 C195.11115883 180.22719353 195.11115883 180.22719353 195.10899353 181.37556458 C195.1034006 183.76994835 195.09084944 186.16423828 195.078125 188.55859375 C195.07310908 190.18294136 195.06854634 191.80729043 195.06445312 193.43164062 C195.05343348 197.41149444 195.03617373 201.39127819 195.015625 205.37109375 C191.6589614 203.79107791 189.70483237 202.19331715 187.265625 199.37109375 C186.564375 198.56542969 185.863125 197.75976562 185.140625 196.9296875 C183.10671396 194.48076888 181.18878061 191.96975521 179.265625 189.43359375 C163.01784582 169.05288434 139.68033601 161.75479836 115.48876953 155.20947266 C99.34140294 150.77282755 85.83081685 145.01247806 74.20703125 132.5078125 C72.22618847 130.2995237 72.22618847 130.2995237 69.953125 129.5625 C66.70698648 127.56638659 65.81210783 124.02923946 64.453125 120.62109375 C63.86993981 119.2090356 63.28532407 117.79756734 62.69921875 116.38671875 C62.4153833 115.70150146 62.13154785 115.01628418 61.83911133 114.31030273 C56.52210555 101.78940831 47.3722751 91.0006438 39.015625 80.37109375 C38.34789062 79.51902344 37.68015625 78.66695313 36.9921875 77.7890625 C31.49566063 70.8454908 25.76586199 64.10435158 20.015625 57.37109375 C19.42136719 56.66210938 18.82710938 55.953125 18.21484375 55.22265625 C5.90859986 40.7483148 -8.15623301 28.89586044 -24.09912109 18.63012695 C-27.02333335 16.74043495 -29.58279233 14.88614055 -31.984375 12.37109375 C-29.11416222 10.73752956 -26.23741243 9.11582645 -23.359375 7.49609375 C-22.14701172 6.80580078 -22.14701172 6.80580078 -20.91015625 6.1015625 C-20.11738281 5.65683594 -19.32460938 5.21210938 -18.5078125 4.75390625 C-17.78513184 4.34543457 -17.06245117 3.93696289 -16.31787109 3.51611328 C-10.88998459 0.85271218 -5.99848643 0.04675566 0 0 Z " fill="#CCC2BC" transform="translate(414.984375,205.62890625)"/>
<path d="M0 0 C5.99996835 3.12049328 10.3509683 7.45460727 15 12.296875 C16.20366211 13.50923828 16.20366211 13.50923828 17.43164062 14.74609375 C21.9147737 19.32071934 25.94161564 23.97807503 29.62036133 29.22558594 C31.64967535 31.40978484 33.50516982 32.13187564 36.3125 33.046875 C36.6425 31.066875 36.9725 29.086875 37.3125 27.046875 C38.3025 27.046875 39.2925 27.046875 40.3125 27.046875 C44.14702211 37.5233372 44.14702211 37.5233372 43.3125 41.046875 C42.02045421 42.89330923 40.60780319 44.51182321 39.0703125 46.16015625 C37.29237032 48.01831806 37.29237032 48.01831806 35.7421875 50.02734375 C24.37636949 64.22088943 3.86975905 70.91133354 -12.6875 77.046875 C-25.52314857 82.02089746 -37.35137772 87.83424427 -47.6875 97.046875 C-48.84378906 98.06201172 -48.84378906 98.06201172 -50.0234375 99.09765625 C-56.53459212 105.17547464 -64.11169451 114.0078796 -65.6875 123.046875 C-66.3475 123.046875 -67.0075 123.046875 -67.6875 123.046875 C-67.80222656 123.54832031 -67.91695313 124.04976563 -68.03515625 124.56640625 C-68.5598841 126.56162889 -69.17087769 128.5340614 -69.80859375 130.49609375 C-75.77716817 149.34791639 -77.23654391 169.98587332 -74.375 189.546875 C-74.25705078 190.43246094 -74.13910156 191.31804687 -74.01757812 192.23046875 C-73.17513359 198.11461984 -71.73394747 203.4745109 -69.6875 209.046875 C-67.02440496 216.68055394 -64.47284337 224.05159224 -63.22265625 232.0625 C-62.07444417 238.4656681 -60.31468739 244.75139757 -58.6875 251.046875 C-62.3175 251.046875 -65.9475 251.046875 -69.6875 251.046875 C-73.40430622 242.45852665 -76.36701117 234.30956358 -78.046875 225.0703125 C-78.65498675 222.2003217 -79.58790281 219.75530907 -80.6875 217.046875 C-80.94271217 215.03707918 -81.19611881 213.02672679 -81.40625 211.01171875 C-81.65070783 208.85711974 -81.65070783 208.85711974 -82.6875 206.171875 C-83.87075522 202.47420244 -84.1588123 198.97936619 -84.44140625 195.12109375 C-84.46910641 193.05897784 -84.46910641 193.05897784 -85.6875 192.046875 C-87.42324184 182.14772233 -88.30905854 172.08258178 -88.6875 162.046875 C-88.71618164 161.30824219 -88.74486328 160.56960938 -88.77441406 159.80859375 C-90.18525883 116.73318136 -81.34227395 69.42292786 -63.5 30.046875 C-63.15582031 29.28375 -62.81164062 28.520625 -62.45703125 27.734375 C-62.20308594 27.1775 -61.94914062 26.620625 -61.6875 26.046875 C-61.02363281 26.10488281 -60.35976563 26.16289062 -59.67578125 26.22265625 C-58.35126953 26.29033203 -58.35126953 26.29033203 -57 26.359375 C-56.12988281 26.41738281 -55.25976562 26.47539062 -54.36328125 26.53515625 C-50.56055832 25.84122871 -49.23719872 23.89046423 -46.6875 21.046875 C-44.88730514 19.34625424 -43.07455939 17.6588288 -41.25 15.984375 C-40.34378906 15.14777344 -39.43757813 14.31117188 -38.50390625 13.44921875 C-35.68738425 11.04677627 -32.79924875 9.04669219 -29.6875 7.046875 C-28.92566406 6.51964844 -28.16382813 5.99242187 -27.37890625 5.44921875 C-18.5200576 -0.64631931 -10.39135185 -4.95292713 0 0 Z " fill="#CCC2BC" transform="translate(427.6875,308.953125)"/>
<path d="M0 0 C0.76473129 -0.01111313 1.52946259 -0.02222626 2.31736755 -0.03367615 C4.80032991 -0.0607703 7.2825209 -0.06706204 9.765625 -0.06640625 C10.61476471 -0.06747375 11.46390442 -0.06854126 12.33877563 -0.06964111 C27.39001775 -0.04235222 41.42377671 1.45425283 56.015625 5.37109375 C56.88123047 5.60103027 57.74683594 5.8309668 58.63867188 6.06787109 C95.22125165 16.09331431 133.00442232 37.65798355 155.015625 69.37109375 C155.55574219 70.11746094 156.09585938 70.86382812 156.65234375 71.6328125 C166.41875413 85.26189305 174.50239769 99.14585508 179.015625 115.37109375 C179.75158002 117.37630452 180.50225671 119.37615795 181.265625 121.37109375 C186.75093002 136.59362661 190.29589379 152.44403472 193.015625 168.37109375 C193.18980957 169.12527588 193.36399414 169.87945801 193.54345703 170.65649414 C194.09243043 173.81266538 194.12790956 176.78077533 194.11328125 179.984375 C194.11005859 181.23154297 194.10683594 182.47871094 194.10351562 183.76367188 C194.09513672 185.05724609 194.08675781 186.35082031 194.078125 187.68359375 C194.07361328 188.99650391 194.06910156 190.30941406 194.06445312 191.66210938 C194.05268449 194.89848385 194.0362426 198.13476553 194.015625 201.37109375 C190.42294915 198.97597651 189.2504938 196.32727027 187.453125 192.55859375 C187.14955078 191.94177734 186.84597656 191.32496094 186.53320312 190.68945312 C184.87922831 187.29862458 183.41288904 183.87267111 182.015625 180.37109375 C181.02117388 178.30591259 180.02036304 176.24378979 179.015625 174.18359375 C174.08457955 163.83945088 170.21012579 153.06015133 166.15527344 142.35205078 C164.67672648 138.48464324 163.13776113 134.64385554 161.578125 130.80859375 C159.52031762 125.71362591 157.67018694 120.61053989 156.015625 115.37109375 C155.355625 115.37109375 154.695625 115.37109375 154.015625 115.37109375 C153.685625 113.72109375 153.355625 112.07109375 153.015625 110.37109375 C152.51417969 110.69207031 152.01273438 111.01304687 151.49609375 111.34375 C145.38592869 113.87441679 136.49584187 113.45684386 130.2109375 111.49609375 C123.99066266 108.22453051 118.31190697 103.47089845 115.578125 96.93359375 C115.3925 96.08796875 115.206875 95.24234375 115.015625 94.37109375 C114.355625 94.37109375 113.695625 94.37109375 113.015625 94.37109375 C109.72442195 87.1763708 106.70903216 79.65895185 108.6796875 71.68359375 C109.41945819 68.54625298 109.69957188 66.53767898 109.015625 63.37109375 C104.99583183 58.78540736 100.13510696 55.6265592 95.015625 52.37109375 C94.27618652 51.89607422 93.53674805 51.42105469 92.77490234 50.93164062 C88.24790476 48.0487958 83.66223401 45.28002531 79.03271484 42.56542969 C77.3194095 41.55096712 75.62782094 40.49996896 73.94140625 39.44140625 C64.52338637 33.6105637 54.24308176 29.55155722 44.015625 25.37109375 C43.1491333 25.00250244 42.2826416 24.63391113 41.38989258 24.25415039 C35.09954343 21.91459328 27.18527005 24.3145454 21.015625 26.37109375 C22.335625 26.70109375 23.655625 27.03109375 25.015625 27.37109375 C25.015625 28.03109375 25.015625 28.69109375 25.015625 29.37109375 C21.96621827 30.38756266 19.71192597 30.56954051 16.515625 30.62109375 C15.5565625 30.646875 14.5975 30.67265625 13.609375 30.69921875 C11.015625 30.37109375 11.015625 30.37109375 9.18359375 29.1171875 C7.10807367 26.01431969 7.83667495 23.00974468 8.015625 19.37109375 C-4.29211988 13.49891265 -16.54341513 13.455576 -29.984375 13.37109375 C-28.57171505 9.13311391 -25.56177769 8.23208432 -21.796875 6.30859375 C-21.13623047 5.95732422 -20.47558594 5.60605469 -19.79492188 5.24414062 C-13.22633583 1.81395107 -7.47894679 0.05829522 0 0 Z " fill="#E5E0DD" transform="translate(414.984375,205.62890625)"/>
<path d="M0 0 C3.81002555 0.65159582 6.4456756 2.44996299 9.6875 4.5 C23.88749377 12.9873972 40.50983932 17.37180306 56.29296875 21.97314453 C72.56693004 26.76098142 85.08353133 33.99925644 97 46 C98.40378906 47.38058594 98.40378906 47.38058594 99.8359375 48.7890625 C102.68018434 53.00922659 102.58511617 55.92596803 102.3125 60.875 C102.27866211 62.050625 102.27866211 62.050625 102.24414062 63.25 C102.18568018 65.1675026 102.09601283 67.0840106 102 69 C101.01 69 100.02 69 99 69 C99 68.34 99 67.68 99 67 C87.97393996 64.61598702 78.05849869 65.74722846 68 71 C64.52320467 73.5599025 61.45619105 76.50875075 58.42578125 79.57421875 C56 82 56 82 53 84 C52.38125 83.34 51.7625 82.68 51.125 82 C46.34935805 77.21071336 40.8411239 73.15488321 35.4609375 69.07421875 C28.15326467 62.9148945 21.9575471 54.14568029 17 46 C17 45.34 17 44.68 17 44 C16.34 44 15.68 44 15 44 C16.51861845 52.25915295 18.77120221 59.24880211 22.79296875 66.63671875 C24 69 24 69 24 71 C20.45179445 70.22678329 17.1872123 68.95553173 13.8125 67.625 C8.02228413 65.37754244 8.02228413 65.37754244 2.1875 63.25 C1.24970703 62.91742188 1.24970703 62.91742188 0.29296875 62.578125 C-14.9533394 58.73408138 -31.19479297 60.36820339 -46 65 C-45.34 66.32 -44.68 67.64 -44 69 C-47.65465817 67.35233636 -50.70137548 65.1020905 -53.9375 62.75 C-60.29420415 58.22876569 -66.82589293 55.07750022 -74 52 C-75.33901949 51.34482901 -76.67503024 50.68313788 -78 50 C-78 49.34 -78 48.68 -78 48 C-76.97261719 47.62488281 -75.94523437 47.24976563 -74.88671875 46.86328125 C-67.62687912 44.1902684 -60.49005889 41.42838569 -53.484375 38.1328125 C-51.14141502 37.06448169 -48.78713824 36.14848102 -46.375 35.25 C-28.56373827 28.1937813 -9.83971443 16.99587037 0 0 Z " fill="#B29E97" transform="translate(485,357)"/>
<path d="M0 0 C2.5625 1.3125 2.5625 1.3125 4 3 C4 3.99 4 4.98 4 6 C4.5775 6.0825 5.155 6.165 5.75 6.25 C9.67829621 7.55943207 11.50012588 10.17502437 13.59765625 13.63671875 C15.23314318 17.55915397 15.45568718 20.94814093 15.375 25.125 C15.36702393 25.86911133 15.35904785 26.61322266 15.35083008 27.37988281 C15.18677485 33.8119553 14.28242551 39.95110277 12 46 C11.66742187 46.8971875 11.33484375 47.794375 10.9921875 48.71875 C7.83721701 52.33150053 4.04166937 52.23955994 -0.5625 52.75 C-2.29327233 52.97159999 -4.02375843 53.19545073 -5.75390625 53.421875 C-6.52033447 53.51049805 -7.2867627 53.59912109 -8.07641602 53.69042969 C-10.077503 53.91399437 -10.077503 53.91399437 -12 55 C-97.57940213 67.21029893 -97.57940213 67.21029893 -122 55 C-121.34 41.14 -120.68 27.28 -120 13 C-113.23470745 9.61735372 -113.23470745 9.61735372 -110.1171875 8.68359375 C-109.43188965 8.47758545 -108.7465918 8.27157715 -108.04052734 8.05932617 C-83.77440482 1.09136517 -57.6575588 -0.46023483 -34.36328125 10.90625 C-29.40324152 13.99403315 -27.39098035 17.4101597 -26 23 C-23.87290563 33.43561063 -24.06874422 44.0548589 -28 54 C-27.20313394 52.46101439 -26.41276859 50.91866216 -25.625 49.375 C-24.96371094 48.08722656 -24.96371094 48.08722656 -24.2890625 46.7734375 C-20.45554668 38.52557012 -19.4668094 29.52131072 -21.5703125 20.57421875 C-22.83252058 17.47184416 -24.5369561 15.22846829 -27 13 C-27 12.34 -27 11.68 -27 11 C-19.21218289 4.5207915 -10.52466507 -1.73687989 0 0 Z " fill="#A49D99" transform="translate(515,585)"/>
<path d="M0 0 C6.89296965 1.40956363 13.46738719 3.33762393 20.140625 5.5546875 C21.70668488 6.06891769 21.70668488 6.06891769 23.30438232 6.59353638 C26.62093372 7.68331878 29.93553988 8.77887553 33.25 9.875 C37.60877352 11.31172643 41.9683011 12.74615194 46.328125 14.1796875 C47.3662886 14.52132935 48.40445221 14.86297119 49.47407532 15.21496582 C56.62454415 17.56295304 63.78934953 19.84283163 71 22 C72.01803711 22.30663574 73.03607422 22.61327148 74.08496094 22.92919922 C76.38906154 23.62257428 78.69402426 24.3128921 81 25 C81 30.65408709 78.22142429 33.53338677 75 38 C74.401875 38.886875 73.80375 39.77375 73.1875 40.6875 C66.13923884 48.13851895 56.50279777 53.01520644 46.25244141 53.47265625 C33.30813958 53.64406342 21.52593257 50.21172863 12.03515625 41.1171875 C1.13659528 29.36609639 -0.56930116 15.4343871 0 0 Z " fill="#D8CCC8" transform="translate(390,457)"/>
<path d="M0 0 C2.46800047 1.15173355 4.04783565 2.04783565 6 4 C6.17944336 6.79052734 6.17944336 6.79052734 6.08984375 10.3359375 C6.06986328 11.62886719 6.04988281 12.92179687 6.02929688 14.25390625 C5.98630574 16.29853548 5.93836179 18.34286028 5.88354492 20.38720703 C5.58329746 32.45330932 6.87502522 42.74346929 12.5 53.5 C13.0878125 54.6446875 13.675625 55.789375 14.28125 56.96875 C15.71301183 59.49385723 17.18535038 61.74275291 19 64 C18.34 64 17.68 64 17 64 C17.35847324 70.33302729 19.14701042 74.9959022 21.94140625 80.6796875 C23 83 23 83 23 85 C23.66 85 24.32 85 25 85 C25.23332031 85.51046875 25.46664063 86.0209375 25.70703125 86.546875 C34.7145741 104.49830315 51.96695441 115.81160373 70.53125 122.21875 C80.22692 125.27594324 88.53085624 126.19265729 98.6875 126.1875 C99.98067139 126.18814453 101.27384277 126.18878906 102.60620117 126.18945312 C112.52403831 126.13505801 122.19695972 125.46979988 132 124 C123.02097121 129.98601919 108.20611674 128.31189818 97.73291016 128.26074219 C95.13550323 128.25004326 92.53879205 128.26068839 89.94140625 128.2734375 C79.45135451 128.2820905 69.37772463 127.53520127 59 126 C57.32606963 125.79367483 55.65166352 125.59112614 53.9765625 125.39453125 C44.14375844 124.12695671 34.54787073 122.11893573 24.9375 119.6875 C23.80070801 119.41591064 22.66391602 119.14432129 21.49267578 118.86450195 C13.58370881 116.76685415 13.58370881 116.76685415 10.87109375 113.203125 C10.58363281 112.14609375 10.29617188 111.0890625 10 110 C9.67257812 108.89785156 9.34515625 107.79570313 9.0078125 106.66015625 C8.57082031 104.87931641 8.57082031 104.87931641 8.125 103.0625 C6.76168478 97.6618299 5.18978489 92.39094981 3.375 87.125 C1.77627979 82.4458189 0.42103068 77.88090954 -0.5390625 73.03515625 C-1.04342079 70.80828618 -1.74338905 68.71621929 -2.5 66.5625 C-5.67800072 57.21406679 -6.29589492 48.27249574 -6.20581055 38.44042969 C-6.18747003 36.37161968 -6.18530221 34.30325824 -6.18554688 32.234375 C-6.16773704 25.75217752 -6.02969282 19.40880814 -5 13 C-4.34 13 -3.68 13 -3 13 C-2.95101563 12.39671875 -2.90203125 11.7934375 -2.8515625 11.171875 C-2.77679688 10.37265625 -2.70203125 9.5734375 -2.625 8.75 C-2.52058594 7.56664062 -2.52058594 7.56664062 -2.4140625 6.359375 C-1.98492887 3.914123 -1.21399362 2.15163097 0 0 Z " fill="#AD9A93" transform="translate(373,441)"/>
<path d="M0 0 C2.5625 1.3125 2.5625 1.3125 4 3 C4 3.99 4 4.98 4 6 C4.5775 6.0825 5.155 6.165 5.75 6.25 C9.67829621 7.55943207 11.50012588 10.17502437 13.59765625 13.63671875 C15.23314318 17.55915397 15.45568718 20.94814093 15.375 25.125 C15.36702393 25.86911133 15.35904785 26.61322266 15.35083008 27.37988281 C15.18677485 33.8119553 14.28242551 39.95110277 12 46 C11.66742187 46.8971875 11.33484375 47.794375 10.9921875 48.71875 C7.83721701 52.33150053 4.04166937 52.23955994 -0.5625 52.75 C-2.29327233 52.97159999 -4.02375843 53.19545073 -5.75390625 53.421875 C-6.90354858 53.55480957 -6.90354858 53.55480957 -8.07641602 53.69042969 C-10.077503 53.91399437 -10.077503 53.91399437 -12 55 C-14.87910588 55.23274209 -17.74146495 55.41972757 -20.625 55.5625 C-21.42679687 55.60568359 -22.22859375 55.64886719 -23.0546875 55.69335938 C-25.0362511 55.79951457 -27.01810271 55.90026855 -29 56 C-28.59007812 55.20335937 -28.18015625 54.40671875 -27.7578125 53.5859375 C-27.21898437 52.52632812 -26.68015625 51.46671875 -26.125 50.375 C-25.59132813 49.33085938 -25.05765625 48.28671875 -24.5078125 47.2109375 C-20.54968989 38.78198211 -19.4102596 29.76184103 -21.5703125 20.57421875 C-22.83252058 17.47184416 -24.5369561 15.22846829 -27 13 C-27 12.34 -27 11.68 -27 11 C-19.21218289 4.5207915 -10.52466507 -1.73687989 0 0 Z " fill="#A29B98" transform="translate(515,585)"/>
<path d="M0 0 C3.85515751 0.61470031 7.32588551 1.79390085 10.97583008 3.12036133 C20.64164483 6.59341361 29.79140917 8.24760386 40 9 C41.30453125 9.10957031 42.6090625 9.21914063 43.953125 9.33203125 C46.96780669 9.57672944 49.9820459 9.8005526 53 10 C53 11.65 53 13.3 53 15 C51.375 15.75 51.375 15.75 49 16 C45.75 14.0625 45.75 14.0625 43 12 C44.75162032 15.21130391 46.65963687 17.7069484 49.1875 20.3125 C51.63666746 23.05798649 52.39456757 24.74575116 52.375 28.4375 C52.189375 30.2009375 52.189375 30.2009375 52 32 C47.65136348 31.43555175 44.82172345 29.84572036 41.1875 27.4375 C40.21167969 26.79683594 39.23585938 26.15617188 38.23046875 25.49609375 C37.12638672 24.75552734 37.12638672 24.75552734 36 24 C37.90450701 28.43377294 41.08463664 31.37202767 44.41796875 34.78125 C46 37 46 37 45.73828125 39.28125 C45.49464844 39.8484375 45.25101562 40.415625 45 41 C42.75 41.6875 42.75 41.6875 40 42 C34.39910421 38.77524182 30.47336606 33.31859179 27 28 C28.0681847 33.11365014 29.23107476 38.07227969 31 43 C28.03 42.34 25.06 41.68 22 41 C22 40.34 22 39.68 22 39 C21.01 38.9071875 21.01 38.9071875 20 38.8125 C11.2426345 36.44071351 4.98268469 29.82395474 -0.4375 22.875 C-3.59353256 16.90156498 -2.86000692 8.85903064 -0.9765625 2.59765625 C-0.65429688 1.74042969 -0.33203125 0.88320313 0 0 Z " fill="#B19D96" transform="translate(330,650)"/>
<path d="M0 0 C4.75150247 2.5015936 7.39847627 5.59644462 9.5 10.5 C11.14269644 20.45280781 10.15984773 31.03773644 9 41 C-0.19012194 41.36706108 -8.19353881 40.70968037 -17 38 C-17 37.34 -17 36.68 -17 36 C-17.99580078 35.81824219 -17.99580078 35.81824219 -19.01171875 35.6328125 C-23.53424459 34.77452292 -27.79938524 33.96028689 -32 32 C-29.67257881 20.36289404 -22.78149807 7.74586074 -13 1 C-8.95600113 -1.02199943 -4.3757032 -0.70670846 0 0 Z " fill="#A09995" transform="translate(373,585)"/>
<path d="M0 0 C-0.89054177 13.13549115 -4.85469323 26.9978397 -15.0625 36 C-20.98322021 40.03112865 -25.77409331 42.35404378 -33 41 C-35.63003731 39.34978051 -37.02709881 38.24767852 -39 36 C-39.51433594 35.44183594 -40.02867187 34.88367188 -40.55859375 34.30859375 C-45.45457655 28.46027515 -49 20.71562464 -49 13 C-48.24082275 12.78384033 -47.48164551 12.56768066 -46.69946289 12.3449707 C-43.15359551 11.33489348 -39.60804444 10.32371018 -36.0625 9.3125 C-35.42562256 9.13114502 -34.78874512 8.94979004 -34.13256836 8.76293945 C-24.80076591 6.10578648 -24.80076591 6.10578648 -15.49609375 3.35546875 C-14.72064209 3.12239014 -13.94519043 2.88931152 -13.14624023 2.64916992 C-11.75496741 2.22835381 -10.36505263 1.80301078 -8.97680664 1.37231445 C-5.7717246 0.40339512 -3.40421608 0 0 0 Z " fill="#D2C6C3" transform="translate(575,465)"/>
<path d="M0 0 C8.77403669 2.30788821 17.47478291 4.84510583 26.13647461 7.54150391 C27.67995755 8.01674926 29.22660912 8.4818147 30.77612305 8.93701172 C33.04536036 9.60512173 35.3018633 10.3065721 37.55859375 11.015625 C38.24714951 11.21069641 38.93570526 11.40576782 39.64512634 11.60675049 C43.52854669 12.87141748 45.47157254 14.21990999 47.46508789 17.68652344 C47.97160889 18.7799707 48.47812988 19.87341797 49 21 C54.01535052 20.67039784 54.01535052 20.67039784 58 18 C60.05859375 18.171875 60.05859375 18.171875 62.4375 18.75 C63.21996094 18.93046875 64.00242187 19.1109375 64.80859375 19.296875 C67 20 67 20 70 22 C67.59901426 27.60230006 63.24342677 29.50695967 58 32 C56.90429688 32.53496094 55.80859375 33.06992187 54.6796875 33.62109375 C44.2735936 37.52061726 31.94423315 35.30961383 22 31 C12.83111723 26.26857652 5.60928891 18.73963892 2 9 C1.18617608 6.01907922 0.55932037 3.03705736 0 0 Z " fill="#FAEBE7" transform="translate(391,475)"/>
<path d="M0 0 C8.02385289 0.03163148 16.21982958 2.79741479 23.375 6.375 C23.375 7.035 23.375 7.695 23.375 8.375 C24.65890625 8.73271484 24.65890625 8.73271484 25.96875 9.09765625 C29.72310733 10.50554025 32.68464361 12.44688953 35.875 14.8125 C36.77968018 15.47076782 36.77968018 15.47076782 37.70263672 16.14233398 C43.22238363 20.19019609 48.59375707 24.42322668 53.953125 28.6796875 C59.01179816 32.68664339 64.19223364 36.53064034 69.375 40.375 C66.1203051 41.45532253 64.26892896 41.29279249 61.04394531 40.19091797 C60.19495667 39.90666962 59.34596802 39.62242126 58.47125244 39.32955933 C57.10102936 38.85318527 57.10102936 38.85318527 55.703125 38.3671875 C54.74790955 38.04469025 53.79269409 37.72219299 52.80853271 37.3899231 C49.74391208 36.35311725 46.68440756 35.3020778 43.625 34.25 C40.61638739 33.22535914 37.60677467 32.20370593 34.59692383 31.18270874 C32.63211869 30.51608422 30.66775954 29.8481437 28.70385742 29.17886353 C21.70193142 26.79953726 14.66979131 24.55073064 7.59472656 22.39941406 C3.83883834 21.2044105 0.20631803 19.80509192 -3.4296875 18.2890625 C-6.79305148 16.88865828 -10.20884907 15.64024109 -13.625 14.375 C-13.01966304 10.70094092 -11.44162645 8.55954714 -9.125 5.6875 C-8.4959375 4.89988281 -7.866875 4.11226563 -7.21875 3.30078125 C-4.71534709 0.27583606 -3.9748482 0.15242781 0 0 Z " fill="#796C67" transform="translate(391.625,419.625)"/>
<path d="M0 0 C-2.77042109 2.77042109 -4.76533805 2.39796106 -8.625 2.625 C-9.81351562 2.69976563 -11.00203125 2.77453125 -12.2265625 2.8515625 C-13.59941406 2.92503906 -13.59941406 2.92503906 -15 3 C-15.29648437 3.74636719 -15.59296875 4.49273438 -15.8984375 5.26171875 C-17.21393463 8.53180203 -18.60390535 11.76359877 -20 15 C-21.11375 14.95875 -22.2275 14.9175 -23.375 14.875 C-27.04366025 14.58878141 -27.04366025 14.58878141 -29 17 C-29.33333333 20.5 -29.33333333 20.5 -29 24 C-27.12052548 26.26313679 -27.12052548 26.26313679 -24.125 26.5 C-19.81260581 28.56994921 -19.57995981 30.99737085 -18.03125 35.34375 C-14.78652674 43.70137052 -8.86243257 47.80328097 -1.4140625 52.43359375 C-0.61742187 52.95050781 0.17921875 53.46742188 1 54 C1 54.33 1 54.66 1 55 C-8.27541444 55.13135224 -17.43897635 54.75283448 -26.6875 54.0625 C-27.94755859 53.97548828 -29.20761719 53.88847656 -30.50585938 53.79882812 C-39.74410006 53.12794997 -39.74410006 53.12794997 -42 52 C-41.34 38.14 -40.68 24.28 -40 10 C-33.23470745 6.61735372 -33.23470745 6.61735372 -30.1171875 5.68359375 C-29.43043945 5.47758545 -28.74369141 5.27157715 -28.03613281 5.05932617 C-27.32295898 4.85412354 -26.60978516 4.6489209 -25.875 4.4375 C-25.13088867 4.22134033 -24.38677734 4.00518066 -23.62011719 3.7824707 C-15.858934 1.58658708 -8.1029352 -0.16030987 0 0 Z " fill="#8C847F" transform="translate(435,588)"/>
<path d="M0 0 C8.65033013 2.48572705 16.48285586 10.00719443 23.46875 15.53125 C24.18458252 16.08586914 24.90041504 16.64048828 25.63793945 17.21191406 C26.29882568 17.74526367 26.95971191 18.27861328 27.640625 18.828125 C28.23456055 19.30088867 28.82849609 19.77365234 29.44042969 20.26074219 C30.71875 21.78125 30.71875 21.78125 30.71875 25.78125 C31.55664062 25.966875 32.39453125 26.1525 33.2578125 26.34375 C37.89986053 28.27182412 40.64851668 31.19458171 44.09375 34.78125 C44.75858398 35.4611499 45.42341797 36.1410498 46.10839844 36.84155273 C51.00444315 41.90371753 55.47544034 47.16057571 59.71875 52.78125 C60.54937148 53.8367751 61.38290576 54.89001209 62.21875 55.94140625 C64.56300895 58.89039039 66.88723012 61.85415943 69.19970703 64.828125 C70.25832622 66.18925543 71.31938854 67.54848773 72.38232422 68.90625 C74.06743399 71.0650409 75.7383214 73.23416788 77.40625 75.40625 C77.93573242 76.08123535 78.46521484 76.7562207 79.01074219 77.45166016 C79.49575195 78.08894043 79.98076172 78.7262207 80.48046875 79.3828125 C81.129552 80.22320068 81.129552 80.22320068 81.79174805 81.08056641 C82.71875 82.78125 82.71875 82.78125 82.71875 86.78125 C79.94921875 87.04296875 79.94921875 87.04296875 76.71875 86.78125 C74.76953125 85.05078125 74.76953125 85.05078125 73.03125 82.59375 C69.89815272 78.36646035 66.69242229 74.28381832 63.28125 70.28125 C62.81912109 69.7346875 62.35699219 69.188125 61.88085938 68.625 C58.13344842 64.211965 54.25400921 59.93719287 50.30078125 55.70703125 C48.71875 53.78125 48.71875 53.78125 48.71875 51.78125 C47.72875 51.45125 46.73875 51.12125 45.71875 50.78125 C44.29663086 49.34228516 44.29663086 49.34228516 42.74609375 47.4453125 C38.35141412 42.26953597 33.60108247 37.47750655 28.8034668 32.68066406 C27.28207442 31.15707561 25.76889083 29.62563619 24.25585938 28.09375 C17.61937343 21.41741464 11.08024266 15.03647394 2.40625 11.09375 C-0.68835497 9.68004506 -3.15777843 8.49572013 -5.28125 5.78125 C-5.28125 2.78125 -5.28125 2.78125 -4.09375 1.03125 C-2.28125 -0.21875 -2.28125 -0.21875 0 0 Z " fill="#C7BDB8" transform="translate(375.28125,232.21875)"/>
<path d="M0 0 C-2.35811808 8.38441984 -9.43509337 13.84023526 -16.5859375 18.14453125 C-28.0030018 24.3494575 -39.82285867 29.48757706 -52 34 C-64.83564857 38.97402246 -76.66387772 44.78736927 -87 54 C-88.15628906 55.01513672 -88.15628906 55.01513672 -89.3359375 56.05078125 C-95.84709212 62.12859964 -103.42419451 70.9610046 -105 80 C-105.66 80 -106.32 80 -107 80 C-107.14187744 80.5765332 -107.28375488 81.15306641 -107.42993164 81.74707031 C-107.96377226 83.85682674 -108.53296588 85.95168492 -109.12109375 88.046875 C-109.33443359 88.81 -109.54777344 89.573125 -109.76757812 90.359375 C-110.20984854 91.93762278 -110.65254822 93.51575034 -111.09570312 95.09375 C-111.73824056 97.3937639 -112.37013344 99.69648799 -113 102 C-113.19271484 102.680625 -113.38542969 103.36125 -113.58398438 104.0625 C-114.88888018 108.88349685 -115.40358259 113.5181083 -115.625 118.5 C-115.66367187 119.22703125 -115.70234375 119.9540625 -115.7421875 120.703125 C-115.83509655 122.46839688 -115.9185657 124.23416157 -116 126 C-116.66 126 -117.32 126 -118 126 C-118.495 126.99 -118.495 126.99 -119 128 C-119.69079165 109.30345837 -118.4194139 92.01216868 -110 75 C-109.58234375 74.10410156 -109.1646875 73.20820313 -108.734375 72.28515625 C-102.54804172 59.89471286 -93.05778296 50.17241878 -82 42 C-81.32066406 41.47148437 -80.64132812 40.94296875 -79.94140625 40.3984375 C-69.93945716 33.10656818 -57.64170091 28.72122454 -45.9375 25 C-30.17787668 19.91542356 -17.86727401 13.19662368 -5.42602539 2.17993164 C-3.5567964 0.63328146 -2.45083797 0 0 0 Z " fill="#DDD8D5" transform="translate(467,352)"/>
<path d="M0 0 C1.22899346 6.06815522 2.27560214 11.79895188 2 18 C-1.51677803 19.56010428 -4.53014674 20.32531182 -8.359375 20.6328125 C-9.38554932 20.7167627 -10.41172363 20.80071289 -11.46899414 20.88720703 C-13.09309204 21.00491455 -13.09309204 21.00491455 -14.75 21.125 C-15.85786865 21.20991699 -16.9657373 21.29483398 -18.10717773 21.38232422 C-27.10459876 22.02960196 -35.98286722 22.16247086 -45 22 C-45 15.73 -45 9.46 -45 3 C-42.86660156 2.86722656 -40.73320312 2.73445312 -38.53515625 2.59765625 C-36.43998977 2.46576648 -34.3448713 2.33313717 -32.24975586 2.20043945 C-30.80774699 2.10949906 -29.36569037 2.01931228 -27.92358398 1.92993164 C-18.35144961 1.35718451 -18.35144961 1.35718451 -8.80859375 0.43359375 C-5.81647439 0.09295247 -3.00275629 -0.09686311 0 0 Z " fill="#77706C" transform="translate(501,667)"/>
<path d="M0 0 C14.52 0.66 29.04 1.32 44 2 C44 8.27 44 14.54 44 21 C39.48333236 21.02312287 34.96687527 21.04298528 30.45019531 21.05493164 C28.91796162 21.05991896 27.38573258 21.06671122 25.85351562 21.07543945 C3.40003631 21.20001816 3.40003631 21.20001816 -1 19 C-1.10551806 12.45788013 -0.66396147 6.63961468 0 0 Z " fill="#7A726E" transform="translate(402,668)"/>
<path d="M0 0 C5.6519311 0.68724444 11.26969645 0.93910243 16.95703125 1.14453125 C22.5246774 1.34644723 28.06180099 1.57178542 33.60546875 2.140625 C41.61793524 2.91327362 49.66430343 3.00692276 57.70703125 3.20703125 C59.34310751 3.25032913 60.97917534 3.29394655 62.61523438 3.33789062 C66.58324593 3.44378466 70.55134606 3.54536648 74.51953125 3.64453125 C73.91333917 7.23841828 73.55555374 7.61503289 70.5 10.1171875 C69.24338141 10.99164542 67.97868055 11.8545789 66.70703125 12.70703125 C65.45035893 13.57268168 64.19384444 14.43856127 62.9375 15.3046875 C62.3398584 15.70574707 61.7422168 16.10680664 61.12646484 16.52001953 C59.37762295 17.7005794 59.37762295 17.7005794 57.3828125 19.515625 C55.51953125 20.64453125 55.51953125 20.64453125 53.19116211 20.35571289 C50.5045628 19.64054668 48.35866419 18.70095338 45.91015625 17.39453125 C45.07355469 16.95109375 44.23695313 16.50765625 43.375 16.05078125 C42.51519531 15.58671875 41.65539062 15.12265625 40.76953125 14.64453125 C39.89425781 14.18046875 39.01898438 13.71640625 38.1171875 13.23828125 C31.68024554 9.80524554 31.68024554 9.80524554 30.51953125 8.64453125 C22.47291497 9.04026648 14.10570385 10.92265645 7.1171875 15.0703125 C4.00872934 15.75744536 3.56830359 15.37338995 0.96875 13.72265625 C-0.29903646 12.79869879 -1.55267968 11.85508468 -2.79296875 10.89453125 C-3.43814453 10.4253125 -4.08332031 9.95609375 -4.74804688 9.47265625 C-6.37513758 8.26051672 -7.93436429 6.95840622 -9.48046875 5.64453125 C-9.48046875 3.64453125 -9.48046875 3.64453125 -7.60546875 1.45703125 C-4.2115939 -0.51141616 -3.66806499 -0.50848546 0 0 Z " fill="#89817C" transform="translate(391.48046875,696.35546875)"/>
<path d="M0 0 C2.31 0 4.62 0 7 0 C7 1.65 7 3.3 7 5 C0.68156579 7.01287261 -5.70695569 8.03941994 -12.25 9.0625 C-13.31863281 9.23587891 -14.38726562 9.40925781 -15.48828125 9.58789062 C-26.68020989 11.36255246 -37.6219958 12.15293688 -48.953125 12.1328125 C-50.17038269 12.13376923 -51.38764038 12.13472595 -52.64178467 12.13571167 C-55.21008354 12.13638891 -57.77838416 12.1345666 -60.34667969 12.13037109 C-64.19730679 12.12507251 -68.04781425 12.13030269 -71.8984375 12.13671875 C-83.61974613 12.1410576 -95.332874 12.05618279 -107.046875 11.6171875 C-108.4575827 11.5716423 -108.4575827 11.5716423 -109.89678955 11.525177 C-118.30567697 11.15580116 -118.30567697 11.15580116 -122 9 C-122.8125 6.375 -122.8125 6.375 -123 4 C-119.99993377 3.97233545 -117.00013654 3.95285158 -114 3.9375 C-112.77023437 3.92493164 -112.77023437 3.92493164 -111.515625 3.91210938 C-106.23244106 3.89209731 -101.01251749 4.11419673 -95.7421875 4.48828125 C-85.21120619 5.21094893 -74.67704218 5.23916425 -64.125 5.25 C-63.08161469 5.25233643 -62.03822937 5.25467285 -60.96322632 5.25708008 C-43.15204759 5.27204245 -25.61773256 4.31015725 -7.92700195 2.27539062 C-5.26154363 2.02460766 -2.67479799 1.94800809 0 2 C0 1.34 0 0.68 0 0 Z " fill="#9E9793" transform="translate(517,647)"/>
<path d="M0 0 C8.32807155 0.48280421 16.13185868 2.34805473 24.1875 4.4375 C26.03504883 4.90639648 26.03504883 4.90639648 27.91992188 5.38476562 C39.51738243 8.34196177 50.45650658 11.55674637 61.1328125 17.06640625 C62.90679446 17.95339723 64.73455409 18.73033856 66.5625 19.5 C74.40769624 22.92335836 78.58535239 26.48139511 84 33 C86.38273167 35.44543514 88.81955443 37.82544527 91.2734375 40.19921875 C92.09070313 40.99972656 92.90796875 41.80023438 93.75 42.625 C94.52859375 43.38039063 95.3071875 44.13578125 96.109375 44.9140625 C98 47 98 47 99 50 C94.92393351 49.46589474 93.05517507 47.38612476 90.1875 44.5625 C72.91343315 28.28160331 51.88822684 21.8406665 29.4375 15.7578125 C5.99367589 9.32281829 5.99367589 9.32281829 1.1171875 2.28125 C0.74851562 1.5284375 0.37984375 0.775625 0 0 Z " fill="#DBD6D3" transform="translate(498,344)"/>
<path d="M0 0 C3.84063367 1.50882037 5.74220251 3.57164483 8 7 C8.42578125 10.26708984 8.42578125 10.26708984 8.3125 13.9609375 C8.29413086 14.6285611 8.27576172 15.29618469 8.25683594 15.98403931 C8.21273662 17.39807652 8.15831695 18.81182489 8.09423828 20.22509766 C8.0018049 22.33382403 7.9494125 24.44061478 7.90234375 26.55078125 C7.59736822 36.18716071 5.86853788 44.78899146 3 54 C2.34 54 1.68 54 1 54 C0.9175 54.78375 0.835 55.5675 0.75 56.375 C-0.60277346 62.91340503 -2.91882977 68.71134995 -7 74 C-7.10075666 63.09933492 -6.92069902 52.25296965 -6.31030273 41.36816406 C-6.18641962 39.10526531 -6.08045154 36.84193076 -5.97460938 34.578125 C-5.54778916 26.37382846 -4.46607591 18.86742546 -2 11 C-1.56862796 8.9446391 -1.16212139 6.88333441 -0.8125 4.8125 C-0.65394531 3.89082031 -0.49539063 2.96914063 -0.33203125 2.01953125 C-0.22246094 1.35308594 -0.11289062 0.68664062 0 0 Z " fill="#A59D98" transform="translate(602,431)"/>
<path d="M0 0 C0.33 0.99 0.66 1.98 1 3 C0.01 4.485 0.01 4.485 -1 6 C-1.5477728 7.97603965 -1.9407864 9.95405962 -2.33984375 11.96484375 C-3 14 -3 14 -4.35180664 15.63208008 C-6.57437295 18.82518786 -7.75181867 22.28033256 -9.03125 25.921875 C-9.30843872 26.69952209 -9.58562744 27.47716919 -9.87121582 28.27838135 C-10.45637197 29.92794831 -11.03778922 31.5788457 -11.61572266 33.23095703 C-12.48407766 35.704642 -13.37202946 38.17064065 -14.26171875 40.63671875 C-19.4483276 55.23663643 -22.36976817 69.46589387 -23 85 C-23.04366699 86.07008301 -23.08733398 87.14016602 -23.13232422 88.24267578 C-23.44811723 96.16089325 -23.73348562 104.07998091 -24 112 C-24.66 112 -25.32 112 -26 112 C-27.72628902 106.02184571 -28.29565333 100.6937247 -28.265625 94.48828125 C-28.26753845 93.5981987 -28.2694519 92.70811615 -28.27142334 91.7910614 C-28.27277733 89.91612463 -28.26913614 88.04117824 -28.26074219 86.16625977 C-28.25009535 83.33783183 -28.26063148 80.51004825 -28.2734375 77.68164062 C-28.27987907 67.92297787 -27.96368758 58.59366503 -26 49 C-25.34 49 -24.68 49 -24 49 C-24.05285156 47.99195313 -24.10570312 46.98390625 -24.16015625 45.9453125 C-23.47535836 29.07590099 -10.33455815 12.46500956 0 0 Z " fill="#23221F" transform="translate(355,350)"/>
<path d="M0 0 C22.59489033 6.33774608 22.59489033 6.33774608 33 10 C33 16.53513989 28.64742373 21.52711803 24.125 26.0625 C23.073125 27.0215625 23.073125 27.0215625 22 28 C22 27.01 22 26.02 22 25 C20.75579353 24.4654744 19.50429064 23.94791389 18.25 23.4375 C17.55390625 23.14746094 16.8578125 22.85742188 16.140625 22.55859375 C13.63286269 21.90419592 12.41110151 22.10318785 10 23 C9.01 23.66 8.02 24.32 7 25 C4.5625 25.4375 4.5625 25.4375 2 25 C-2.06464668 20.82244646 -3.15511511 17.40431473 -3.25 11.6875 C-3.28867187 10.30111328 -3.28867187 10.30111328 -3.328125 8.88671875 C-2.93458818 5.42453176 -1.69437625 3.01866505 0 0 Z " fill="#94BED8" transform="translate(438,472)"/>
<path d="M0 0 C5.875 1.875 5.875 1.875 7 3 C9.32817964 3.36760731 11.6618385 3.70241581 14 4 C14 4.66 14 5.32 14 6 C14.763125 6.144375 15.52625 6.28875 16.3125 6.4375 C19 7 19 7 22 8 C22.25 10.75 22.25 10.75 22 14 C20 16.375 20 16.375 18 18 C17.67 17.67 17.34 17.34 17 17 C16.34 17.99 15.68 18.98 15 20 C12.375 20.1875 12.375 20.1875 10 20 C10.33 21.98 10.66 23.96 11 26 C11.99 26 12.98 26 14 26 C10.13157895 36.63815789 10.13157895 36.63815789 5.75 39.4375 C5.1725 39.623125 4.595 39.80875 4 40 C4 40.66 4 41.32 4 42 C2.00045254 42.04254356 -0.00041636 42.04080783 -2 42 C-3.55693587 40.44306413 -3.20754302 38.98134388 -3.25 36.8125 C-3.20987776 31.1873618 -2.00331959 26.02135595 -0.734375 20.5625 C0.32902699 15.40386906 0.72103204 10.2522933 1 5 C0.34 5 -0.32 5 -1 5 C-0.67 3.35 -0.34 1.7 0 0 Z " fill="#3B3837" transform="translate(322,571)"/>
<path d="M0 0 C1.04285156 -0.00257813 2.08570313 -0.00515625 3.16015625 -0.0078125 C5.9375 0.125 5.9375 0.125 8.9375 1.125 C8.6075 4.425 8.2775 7.725 7.9375 11.125 C1.00921439 13.93376444 -5.79503914 16.52855235 -13.0234375 18.453125 C-18.98795857 20.07418064 -24.8684037 21.91533863 -30.75 23.8125 C-31.74966797 24.13283203 -32.74933594 24.45316406 -33.77929688 24.78320312 C-36.20771772 25.5616921 -38.63542982 26.34231242 -41.0625 27.125 C-36.29279006 16.94722996 -23.24378303 9.24585535 -14.0625 3.125 C-12.7425 3.125 -11.4225 3.125 -10.0625 3.125 C-10.0625 2.465 -10.0625 1.805 -10.0625 1.125 C-6.66481132 0.09341259 -3.54110037 -0.00877596 0 0 Z " fill="#786B66" transform="translate(575.0625,434.875)"/>
<path d="M0 0 C1.50433594 0.01353516 1.50433594 0.01353516 3.0390625 0.02734375 C3.80992187 0.03894531 4.58078125 0.05054688 5.375 0.0625 C4.93929688 0.75472656 4.50359375 1.44695313 4.0546875 2.16015625 C-0.16967785 9.10018504 -3.37514032 15.98011014 -6.26953125 23.546875 C-7.90721889 27.79447982 -9.73620997 31.9216911 -11.625 36.0625 C-22.18308656 34.13539294 -22.18308656 34.13539294 -26.625 32.0625 C-24.29757881 20.42539404 -17.40649807 7.80836074 -7.625 1.0625 C-4.98041621 -0.25979189 -2.94738699 -0.03427194 0 0 Z " fill="#898380" transform="translate(367.625,584.9375)"/>
<path d="M0 0 C3.94805448 1.34354992 6.79030518 3.64739979 10.05078125 6.203125 C11.08283691 6.99589844 11.08283691 6.99589844 12.13574219 7.8046875 C13.60093035 8.93084024 15.063426 10.06050335 16.5234375 11.19335938 C18.83329676 12.97825062 21.15811901 14.74171618 23.48828125 16.5 C25.00925753 17.65085277 26.5300947 18.80188941 28.05078125 19.953125 C28.76524414 20.49227539 29.47970703 21.03142578 30.21582031 21.58691406 C33.63941581 24.19685198 36.85410661 26.79380374 39.80078125 29.953125 C33.86604965 29.3304531 28.56536676 27.71547192 22.9296875 25.79296875 C22.00735825 25.48363907 21.08502899 25.17430939 20.13475037 24.85560608 C17.20898952 23.87292968 14.28613322 22.88191584 11.36328125 21.890625 C9.37193118 21.2201493 7.38039653 20.55022153 5.38867188 19.88085938 C0.52388234 18.24461577 -4.33832097 16.60089233 -9.19921875 14.953125 C-9.19921875 14.293125 -9.19921875 13.633125 -9.19921875 12.953125 C-10.51921875 12.623125 -11.83921875 12.293125 -13.19921875 11.953125 C-11.22394352 9.59772807 -9.2170102 7.27215072 -7.19921875 4.953125 C-6.35359375 3.963125 -5.50796875 2.973125 -4.63671875 1.953125 C-2.19921875 -0.046875 -2.19921875 -0.046875 0 0 Z " fill="#90807B" transform="translate(421.19921875,431.046875)"/>
<path d="M0 0 C1.92960571 0.24447876 1.92960571 0.24447876 3.89819336 0.49389648 C8.8247557 1.03915505 13.67670329 1.12850688 18.62890625 1.09765625 C19.94156715 1.09553383 19.94156715 1.09553383 21.28074646 1.09336853 C24.04136762 1.08782719 26.80190388 1.07528612 29.5625 1.0625 C31.44856653 1.0574774 33.33463434 1.05291583 35.22070312 1.04882812 C39.81383417 1.03787707 44.40690275 1.02065384 49 1 C49.99 4.3 50.98 7.6 52 11 C34.12176642 13.64135075 16.8060602 13.08239361 -1 10 C-1.125 2.25 -1.125 2.25 0 0 Z " fill="#605A57" transform="translate(380,726)"/>
<path d="M0 0 C0.59319036 6.54882155 -3.23680568 10.95199792 -7 16 C-11.48489583 20.84853603 -16.8521781 24.08799094 -23.5 24.5 C-29.53822798 24.29669266 -31.93392523 21.19936992 -35.9375 16.9375 C-37 15 -37 15 -37.0625 12.9375 C-35.07012597 9.30434736 -30.99980714 8.31764385 -27.22973633 7.11987305 C-23.95294216 6.17248587 -20.66753664 5.26609936 -17.375 4.375 C-15.67730469 3.90707031 -15.67730469 3.90707031 -13.9453125 3.4296875 C-1.46834591 0 -1.46834591 0 0 0 Z " fill="#F5E8E3" transform="translate(570,482)"/>
<path d="M0 0 C7.89766135 1.57953227 15.91433113 3.57825292 23.21484375 7.0546875 C27.48790855 8.50501244 31.83397957 8.73886608 36.3125 9.125 C37.70952148 9.25455078 37.70952148 9.25455078 39.13476562 9.38671875 C41.42264973 9.59790805 43.71093346 9.80211266 46 10 C46.02689216 11.47906892 46.04634621 12.95827483 46.0625 14.4375 C46.07410156 15.26121094 46.08570313 16.08492187 46.09765625 16.93359375 C46 19 46 19 45 20 C42.02476962 19.98797887 39.09377899 19.90436418 36.125 19.75 C35.26543701 19.70625244 34.40587402 19.66250488 33.52026367 19.61743164 C27.06881546 19.21857952 21.10979894 18.18305176 15 16 C15 15.34 15 14.68 15 14 C14.34773438 13.89042969 13.69546875 13.78085937 13.0234375 13.66796875 C3.15722851 11.87808128 3.15722851 11.87808128 -1 9 C-2 6.5625 -2 6.5625 -2 4 C-1.37375407 2.64721094 -0.7118815 1.30975072 0 0 Z " fill="#756E6A" transform="translate(334,628)"/>
<path d="M0 0 C1.258125 -0.04125 2.51625 -0.0825 3.8125 -0.125 C4.52019531 -0.14820313 5.22789062 -0.17140625 5.95703125 -0.1953125 C8 0 8 0 11 2 C11 2.99 11 3.98 11 5 C11.5775 5.0825 12.155 5.165 12.75 5.25 C16.67829621 6.55943207 18.50012588 9.17502437 20.59765625 12.63671875 C22.23314318 16.55915397 22.45568718 19.94814093 22.375 24.125 C22.36702393 24.86911133 22.35904785 25.61322266 22.35083008 26.37988281 C22.14041214 34.62968672 21.03421182 43.21107493 16 50 C12.3125 50.3125 12.3125 50.3125 9 50 C9.28740942 48.62410383 9.58017742 47.24932678 9.875 45.875 C10.03742187 45.10929688 10.19984375 44.34359375 10.3671875 43.5546875 C11 41 11 41 12.046875 38.18359375 C14.23535394 30.87371534 14.30861167 21.02706153 11.375 13.9375 C8.70223062 8.98193826 5.47375275 3.82458425 0 2 C0 1.34 0 0.68 0 0 Z " fill="#BCB8B5" transform="translate(508,586)"/>
<path d="M0 0 C3.85623589 2.11714912 7.21615418 4.57372822 10 8 C10 9.32 10 10.64 10 12 C10.66 12 11.32 12 12 12 C12.10824843 13.6026782 12.18570645 15.20745748 12.25 16.8125 C12.29640625 17.70582031 12.3428125 18.59914063 12.390625 19.51953125 C12 22 12 22 10.1640625 23.796875 C7.17111485 25.46082423 5.38623905 25.47407347 2 25 C-3.75175729 22.24394963 -7.3506508 17.70839157 -10 12 C-10.60287418 8.88760077 -10.79868738 6.08330477 -10 3 C-7.1225024 -0.74921011 -4.58373333 -0.54383277 0 0 Z " fill="#9C9590" transform="translate(512,283)"/>
<path d="M0 0 C13.2720499 0.97929689 13.2720499 0.97929689 18.3125 6.125 C20.62769401 8.93757584 21.38147764 10.79059066 21.375 14.4375 C21.25125 15.613125 21.1275 16.78875 21 18 C16.65136348 17.43555175 13.82172345 15.84572036 10.1875 13.4375 C9.21167969 12.79683594 8.23585938 12.15617188 7.23046875 11.49609375 C6.49441406 11.00238281 5.75835937 10.50867188 5 10 C6.90450701 14.43377294 10.08463664 17.37202767 13.41796875 20.78125 C15 23 15 23 14.73828125 25.28125 C14.49464844 25.8484375 14.25101562 26.415625 14 27 C11.7578125 27.69921875 11.7578125 27.69921875 9 28 C6.8671875 26.70703125 6.8671875 26.70703125 4.875 24.8125 C4.21242188 24.20019531 3.54984375 23.58789062 2.8671875 22.95703125 C2.25101562 22.31121094 1.63484375 21.66539062 1 21 C0.14728516 20.11054687 0.14728516 20.11054687 -0.72265625 19.203125 C-2.54144054 16.06613926 -2.36167249 13.53465681 -2.3125 9.9375 C-2.30863281 8.70902344 -2.30476563 7.48054687 -2.30078125 6.21484375 C-2 3 -2 3 0 0 Z " fill="#C7B1A9" transform="translate(361,664)"/>
<path d="M0 0 C0 4.62 0 9.24 0 14 C-13.98514879 21.2423092 -13.98514879 21.2423092 -21 21 C-21.34018163 19.29301718 -21.6718089 17.58432867 -22 15.875 C-22.185625 14.92367187 -22.37125 13.97234375 -22.5625 12.9921875 C-23.00725046 9.95041204 -23.07286471 7.06942607 -23 4 C-20.10767725 3.13200283 -17.21215302 2.2803444 -14.3125 1.4375 C-13.49587891 1.19064453 -12.67925781 0.94378906 -11.83789062 0.68945312 C-11.04189453 0.46064453 -10.24589844 0.23183594 -9.42578125 -0.00390625 C-8.33390503 -0.32597046 -8.33390503 -0.32597046 -7.2199707 -0.65454102 C-5 -1 -5 -1 0 0 Z " fill="#78706C" transform="translate(534,661)"/>
<path d="M0 0 C6.50647383 -0.22055843 12.47454288 0.48534048 18.890625 1.5546875 C22.66416391 2.09511895 26.19744844 2.14911967 30 2 C30.33 3.32 30.66 4.64 31 6 C32.9490625 6.2784375 32.9490625 6.2784375 34.9375 6.5625 C35.66839844 6.66691406 36.39929688 6.77132812 37.15234375 6.87890625 C38.06693359 6.93884766 38.06693359 6.93884766 39 7 C39.33 6.67 39.66 6.34 40 6 C42.3125 5.5625 42.3125 5.5625 45 6 C47.375 8.6875 47.375 8.6875 49 12 C48.75 14.875 48.75 14.875 48 17 C45.49493148 17.91924188 44.30301721 18.10368102 41.74169922 17.22729492 C40.93748535 16.81584229 40.13327148 16.40438965 39.3046875 15.98046875 C37.98404297 15.31241211 37.98404297 15.31241211 36.63671875 14.63085938 C35.72535156 14.15455078 34.81398438 13.67824219 33.875 13.1875 C32.95589844 12.72279297 32.03679687 12.25808594 31.08984375 11.77929688 C24.30944549 8.30944549 24.30944549 8.30944549 22 6 C16.44658663 5.75344254 11.17260847 7.42609259 6.04296875 9.37890625 C4 10 4 10 0 10 C0.185625 8.906875 0.37125 7.81375 0.5625 6.6875 C1.2578068 3.06375867 1.2578068 3.06375867 0 0 Z " fill="#9E9793" transform="translate(400,699)"/>
<path d="M0 0 C0.33 0 0.66 0 1 0 C1.46948075 12.1152115 0.86923708 22.4441089 -3 34 C-3.66 34 -4.32 34 -5 34 C-5.0825 34.78375 -5.165 35.5675 -5.25 36.375 C-6.58642793 42.83440167 -8.83722957 48.83816467 -13 54 C-13.16139646 40.63995943 -12.66509667 27.34261759 -12 14 C-11.67 14 -11.34 14 -11 14 C-10.67 17.63 -10.34 21.26 -10 25 C-6.20824206 16.83313674 -3.10815709 8.44382677 0 0 Z " fill="#9B948F" transform="translate(608,451)"/>
<path d="M0 0 C0.74636719 0.76699219 1.49273437 1.53398438 2.26171875 2.32421875 C5.15828215 5.15466943 7.64265589 6.5798913 11.3125 8.25 C12.38113281 8.75015625 13.44976562 9.2503125 14.55078125 9.765625 C21.54457916 12.26850172 28.71586953 12.18196373 36.0625 12.1875 C37.35124023 12.20586914 37.35124023 12.20586914 38.66601562 12.22460938 C43.8721373 12.2365409 48.04967909 11.57568204 53 10 C55.4375 10.375 55.4375 10.375 57 11 C52.89463905 15.62184184 47.07363889 17.57512364 41.00097656 18.20849609 C27.89972545 18.92426292 15.81294634 18.09980779 5 10 C3.7625 8.576875 3.7625 8.576875 2.5 7.125 C-0.95417061 4.18895498 -3.59146923 4.59956412 -7.98828125 4.82421875 C-8.98408203 4.91123047 -8.98408203 4.91123047 -10 5 C-10 4.01 -10 3.02 -10 2 C-6.52953178 0.41350024 -3.81372653 -0.66740214 0 0 Z " fill="#302D2A" transform="translate(469,537)"/>
<path d="M0 0 C5.0170536 0.71672194 8.78057771 1.44042594 13.4375 3.0625 C15.01337891 3.60583984 15.01337891 3.60583984 16.62109375 4.16015625 C17.40613281 4.43730469 18.19117188 4.71445312 19 5 C19 11.53513989 14.64742373 16.52711803 10.125 21.0625 C9.42375 21.701875 8.7225 22.34125 8 23 C8 22.01 8 21.02 8 20 C3.05 18.02 3.05 18.02 -2 16 C-1.34 10.72 -0.68 5.44 0 0 Z " fill="#D4C8C4" transform="translate(452,477)"/>
<path d="M0 0 C-0.53951066 6.68993219 -1.88706171 12.63460728 -4 19 C-4.66 18.67 -5.32 18.34 -6 18 C-8.33817209 18.64949225 -10.67126625 19.31744011 -13 20 C-14.32 20 -15.64 20 -17 20 C-18.86987216 16.26025568 -18.30641834 11.53209172 -17.5 7.5 C-17.335 7.005 -17.17 6.51 -17 6 C-19.31 6.33 -21.62 6.66 -24 7 C-20.32634213 4.55089476 -16.77135062 3.59065459 -12.5625 2.375 C-11.79873047 2.14554687 -11.03496094 1.91609375 -10.24804688 1.6796875 C-9.50748047 1.463125 -8.76691406 1.2465625 -8.00390625 1.0234375 C-7.33174072 0.82669434 -6.6595752 0.62995117 -5.96704102 0.42724609 C-4 0 -4 0 0 0 Z " fill="#92B9D1" transform="translate(575,465)"/>
<path d="M0 0 C13.365 0.495 13.365 0.495 27 1 C27 1.33 27 1.66 27 2 C22.05 2 17.1 2 12 2 C12.33 7.61 12.66 13.22 13 19 C15.97 19.33 18.94 19.66 22 20 C22 20.33 22 20.66 22 21 C3.62867647 21.31433824 3.62867647 21.31433824 -1 19 C-1.10551806 12.45788013 -0.66396147 6.63961468 0 0 Z " fill="#4F4A47" transform="translate(402,668)"/>
<path d="M0 0 C2.91062522 1.86046645 5.42878395 3.8575679 7 7 C7.45220283 14.12219451 7.45220283 14.12219451 5.9375 17.0625 C2.57640943 18.68883415 0.51576544 18.07260641 -3 17 C-6.88810315 13.99516304 -9.22612724 10.61535121 -10.0625 5.75 C-10 2 -10 2 -9 -0.0625 C-5.68284786 -1.61741506 -3.47826657 -0.94325873 0 0 Z " fill="#7E7874" transform="translate(293,353)"/>
<path d="M0 0 C1.79244141 0.23009766 1.79244141 0.23009766 3.62109375 0.46484375 C10.08534064 1.1830934 16.56549882 1.35180512 23.0625 1.5625 C24.93325195 1.62727539 24.93325195 1.62727539 26.84179688 1.69335938 C29.89444091 1.79862296 32.94715523 1.90075941 36 2 C36 2.33 36 2.66 36 3 C31.05 3 26.1 3 21 3 C21 5.97 21 8.94 21 12 C18.08302989 11.85895309 15.1665198 11.71235186 12.25 11.5625 C11.0125 11.50352539 11.0125 11.50352539 9.75 11.44335938 C8.95078125 11.40146484 8.1515625 11.35957031 7.328125 11.31640625 C6.5949707 11.27974854 5.86181641 11.24309082 5.10644531 11.20532227 C2.98822395 10.99885215 1.0480544 10.56867914 -1 10 C-1.125 2.25 -1.125 2.25 0 0 Z " fill="#484441" transform="translate(380,726)"/>
<path d="M0 0 C4.37448285 2.51127719 4.37448285 2.51127719 6 5 C6.61047828 8.40582619 6.6266971 11.59534748 6 15 C4 17 4 17 1.3125 17.5 C-3.32031328 16.80070743 -5.84580543 14.35404712 -9 11 C-10.60725635 7.78548731 -10.05748185 4.56387464 -10 1 C-6.39940027 -1.35423828 -4.07778555 -1.22333567 0 0 Z " fill="#7E7773" transform="translate(333,465)"/>
<path d="M0 0 C0 0.99 0 1.98 0 3 C-1.65234375 4.5078125 -1.65234375 4.5078125 -3.9375 6.125 C-16.05681355 15.23342159 -24.68796488 26.84837619 -32 40 C-32.33 40 -32.66 40 -33 40 C-32.61583579 28.47507379 -27.28893642 19.43435587 -19.4296875 11.19140625 C-13.7441991 6.0634979 -7.0815134 2.77102698 0 0 Z " fill="#2A2826" transform="translate(387,252)"/>
<path d="M0 0 C4.93686538 0.57596763 6.31728969 1.9230585 9.75 5.4375 C10.92664871 8.96744613 10.94850603 11.73205413 10.75 15.4375 C9.76 16.9225 9.76 16.9225 8.75 18.4375 C5.9375 18.9375 5.9375 18.9375 2.75 18.4375 C0.0625 16.1875 0.0625 16.1875 -2.25 13.4375 C-2.848125 12.81875 -3.44625 12.2 -4.0625 11.5625 C-5.80261165 8.448616 -5.57361203 5.93250989 -5.25 2.4375 C-3.25 0.4375 -3.25 0.4375 0 0 Z " fill="#7D7773" transform="translate(334.25,338.5625)"/>
<path d="M0 0 C3.7408371 0.43643099 5.81270475 1.15369056 8.58984375 3.73828125 C10.78499572 6.95340283 10.91396949 10.63055613 10.75 14.4375 C9.75 17.4375 9.75 17.4375 7.75 18.4375 C5 18.9375 5 18.9375 1.75 18.4375 C-1.16166342 15.86878077 -3.51337192 12.91075616 -5.25 9.4375 C-5.4375 5.9375 -5.4375 5.9375 -5.25 2.4375 C-3.25 0.4375 -3.25 0.4375 0 0 Z " fill="#7D7773" transform="translate(305.25,292.5625)"/>
<path d="M0 0 C18.08714915 -0.83586312 30.6710256 3.1789635 44.3125 15.23046875 C46 17 46 17 46 19 C42.9305283 17.85503834 40.01125225 16.52785471 37.09375 15.046875 C27.4617237 10.20338405 18.05281149 6.52101542 7.59179688 3.85253906 C6.74423828 3.63436523 5.89667969 3.41619141 5.0234375 3.19140625 C4.26981934 3.00779541 3.51620117 2.82418457 2.73974609 2.63500977 C1 2 1 2 0 0 Z " fill="#302E2B" transform="translate(525,320)"/>
<path d="M0 0 C8.29210025 -0.29151915 15.29141855 -0.45557099 23 3 C25.9792224 3.77534968 28.97987811 4.40576305 32 5 C29.20213856 7.79786144 25.88195813 8.4933049 22.1875 9.625 C21.47529297 9.85445312 20.76308594 10.08390625 20.02929688 10.3203125 C12.78134941 12.57314353 12.78134941 12.57314353 9 12 C7 9.25 7 9.25 5 6 C3.34808509 4.64843325 1.68477344 3.31037934 0 2 C0 1.34 0 0.68 0 0 Z " fill="#B1968C" transform="translate(382,575)"/>
<path d="M0 0 C6.1646808 0.08855343 10.2859621 0.8484621 14.75 5.3125 C14.875 7.9375 14.875 7.9375 14.75 10.3125 C6.89686748 12.50078861 0.2186697 11.27878017 -7.25 8.3125 C-7.875 5.4375 -7.875 5.4375 -8.25 2.3125 C-5.50090732 -0.43659268 -3.83354488 0.01312858 0 0 Z " fill="#C2BEBA" transform="translate(455.25,591.6875)"/>
<path d="M0 0 C1.32547852 0.17015625 1.32547852 0.17015625 2.67773438 0.34375 C4.85118695 0.62571142 7.01963879 0.92827019 9.1875 1.25 C9.1875 1.58 9.1875 1.91 9.1875 2.25 C7.2075 2.25 5.2275 2.25 3.1875 2.25 C4.1775 3.735 4.1775 3.735 5.1875 5.25 C5.15606707 7.98990408 4.63271663 10.53417854 4.1875 13.25 C2.14453125 14.546875 2.14453125 14.546875 -0.8125 15.25 C-3.54878333 14.0758688 -5.78055012 12.31568106 -8.125 10.5 C-8.77017578 10.03078125 -9.41535156 9.5615625 -10.08007812 9.078125 C-11.70716883 7.86598547 -13.26639554 6.56387497 -14.8125 5.25 C-14.8125 3.25 -14.8125 3.25 -12.92578125 1.078125 C-8.43317279 -1.55994371 -5.01182964 -0.74747646 0 0 Z " fill="#98918D" transform="translate(396.8125,696.75)"/>
<path d="M0 0 C1.98 0 3.96 0 6 0 C11.15965495 8.52264433 12.86589563 15.05823537 12 25 C9.69 25 7.38 25 5 25 C4.34 19.39 3.68 13.78 3 8 C2.34 8 1.68 8 1 8 C0.67 5.36 0.34 2.72 0 0 Z " fill="#968F8B" transform="translate(479,699)"/>
<path d="M0 0 C7.21930632 1.44386126 14.05110733 3.57788174 21 6 C19.68 6.33 18.36 6.66 17 7 C16.67 8.98 16.34 10.96 16 13 C12.16905403 14.45279835 9.65799654 13.5027187 5.875 12.1875 C4.82054687 11.83042969 3.76609375 11.47335937 2.6796875 11.10546875 C0 10 0 10 -2 8 C-1.69347955 5.0574037 -1.32728846 2.65457692 0 0 Z " fill="#645E5A" transform="translate(334,628)"/>
<path d="M0 0 C3.23828193 6.57403722 5.54341194 14.67226944 4 22 C2.84765625 23.77734375 2.84765625 23.77734375 1 25 C-2.1875 25.1875 -2.1875 25.1875 -5 25 C-4.98839844 23.78183594 -4.97679687 22.56367187 -4.96484375 21.30859375 C-4.95545822 19.68489738 -4.94635884 18.06119933 -4.9375 16.4375 C-4.92912109 15.63763672 -4.92074219 14.83777344 -4.91210938 14.01367188 C-4.89257753 9.22836896 -5.19562982 4.71854949 -6 0 C-3 -1 -3 -1 0 0 Z " fill="#9F9995" transform="translate(497,698)"/>
<path d="M0 0 C3.95950311 0.85789234 7.09689487 2.09777718 10.75 3.8125 C10.75 4.4725 10.75 5.1325 10.75 5.8125 C9.11804688 6.28429687 9.11804688 6.28429687 7.453125 6.765625 C-1.17751654 9.27440654 -9.75098771 11.88124143 -18.25 14.8125 C-16.7114092 11.00513971 -14.37165284 8.87380455 -11.3125 6.1875 C-10.43722656 5.41148437 -9.56195312 4.63546875 -8.66015625 3.8359375 C-3.8280387 -0.22084839 -3.8280387 -0.22084839 0 0 Z " fill="#8F7F7A" transform="translate(552.25,447.1875)"/>
<path d="M0 0 C-0.67804688 0.46148437 -1.35609375 0.92296875 -2.0546875 1.3984375 C-13.5252457 9.43736056 -22.67822452 18.35644905 -29 31 C-29.66 31 -30.32 31 -31 31 C-29.46667843 20.60748711 -24.38432068 12.12594301 -16.18359375 5.5078125 C-5.35915821 -1.96666356 -5.35915821 -1.96666356 0 0 Z " fill="#2E2C2A" transform="translate(341,295)"/>
<path d="M0 0 C2.06476498 1.56105308 2.80726227 2.97132276 3.77734375 5.34375 C0.07019116 4.75690345 -3.24929143 3.62272796 -6.74438477 2.27392578 C-16.74021402 -1.55268419 -26.63197772 -3.33096202 -37.22265625 -4.65625 C-36.89265625 -5.31625 -36.56265625 -5.97625 -36.22265625 -6.65625 C-23.00665685 -10.32736095 -11.56542865 -6.19053686 0 0 Z " fill="#373532" transform="translate(505.22265625,265.65625)"/>
<path d="M0 0 C-1.33333333 4 -2.66666667 8 -4 12 C-14.55808656 11.03644647 -14.55808656 11.03644647 -19 10 C-19 8.35 -19 6.7 -19 5 C-17.68 5 -16.36 5 -15 5 C-15 4.34 -15 3.68 -15 3 C-13.25183142 2.49363393 -11.50137737 1.99515381 -9.75 1.5 C-8.77546875 1.2215625 -7.8009375 0.943125 -6.796875 0.65625 C-4 0 -4 0 0 0 Z " fill="#C2BFBD" transform="translate(528,690)"/>
<path d="M0 0 C0.99 0 1.98 0 3 0 C5.04296875 2.44921875 5.04296875 2.44921875 7.1875 5.6875 C7.90292969 6.74324219 8.61835938 7.79898437 9.35546875 8.88671875 C10.99963683 11.99931248 11.38940333 13.55920662 11 17 C6.57381642 16.82642417 4.48068377 16.40909257 1.0625 13.5 C-1.76852925 9.68507207 -1.67338454 5.56939509 -1 1 C-0.67 0.67 -0.34 0.34 0 0 Z " fill="#7E7874" transform="translate(452,321)"/>
<path d="M0 0 C11.4681489 -0.34176603 22.61855043 0.71758315 34 2 C34.625 4.375 34.625 4.375 35 7 C34.34 7.66 33.68 8.32 33 9 C30.125 8.875 30.125 8.875 27 8 C26.44828125 7.33484375 25.8965625 6.6696875 25.328125 5.984375 C22.01807711 3.16305901 18.78260713 3.40357462 14.625 3.375 C9.34181272 3.283278 4.9945307 2.98195663 0 1 C0 0.67 0 0.34 0 0 Z " fill="#726C68" transform="translate(406,698)"/>
<path d="M0 0 C12.05276854 -0.11114233 23.97960136 0.05985709 36 1 C36 1.33 36 1.66 36 2 C29.07 2 22.14 2 15 2 C15 3.65 15 5.3 15 7 C4.66519824 7.40528634 4.66519824 7.40528634 1 5 C0.375 2.41796875 0.375 2.41796875 0 0 Z " fill="#766E6A" transform="translate(394,651)"/>
<path d="M0 0 C2.3431213 0.25561323 4.67843403 0.59270772 7 1 C8.52491998 4.04983996 8.23562548 6.6423369 8 10 C6.875 11.9375 6.875 11.9375 5 13 C1.9375 13.375 1.9375 13.375 -1 13 C-3.32579101 9.51131349 -3.41865457 8.10281481 -3 4 C-1.5 1.625 -1.5 1.625 0 0 Z " fill="#BFBBB8" transform="translate(505,618)"/>
<path d="M0 0 C2.625 0.375 2.625 0.375 5 1 C5.08075665 3.29109597 5.13907731 5.58299267 5.1875 7.875 C5.22230469 9.15117188 5.25710938 10.42734375 5.29296875 11.7421875 C5.19628906 12.81726563 5.09960938 13.89234375 5 15 C2 17 2 17 -1 17 C-2.29205445 12.15479581 -2.51999304 6.97959436 -2 2 C-1.34 1.34 -0.68 0.68 0 0 Z " fill="#9E948F" transform="translate(529,660)"/>
<path d="M0 0 C0 0.66 0 1.32 0 2 C0.99 2 1.98 2 3 2 C3.125 8.75 3.125 8.75 2 11 C0.52093108 11.02689216 -0.95827483 11.04634621 -2.4375 11.0625 C-3.67306641 11.07990234 -3.67306641 11.07990234 -4.93359375 11.09765625 C-7 11 -7 11 -8 10 C-8.4626087 3.75478261 -8.4626087 3.75478261 -6.8125 1.0625 C-4.43958382 -0.32851983 -2.70313576 -0.21917317 0 0 Z " fill="#B1ACA9" transform="translate(413,602)"/>
<path d="M0 0 C0.33 0 0.66 0 1 0 C1.33 11.55 1.66 23.1 2 35 C2.99 24.605 2.99 24.605 4 14 C4.33 14 4.66 14 5 14 C4.67 25.88 4.34 37.76 4 50 C3.34 50 2.68 50 2 50 C0.20423886 43.86085809 -0.27033015 38.40767739 -0.1953125 32.03125 C-0.1924826 31.11033569 -0.18965271 30.18942139 -0.18673706 29.24060059 C-0.17562775 26.32692948 -0.15054078 23.41357669 -0.125 20.5 C-0.11495823 18.5130253 -0.10583448 16.52604574 -0.09765625 14.5390625 C-0.07571879 9.69258748 -0.04125361 4.84634753 0 0 Z " fill="#4B4744" transform="translate(327,412)"/>
<path d="M0 0 C1.86718689 2.80078034 3.54204238 5.62725376 5.1875 8.5625 C5.73792969 9.53316406 6.28835938 10.50382812 6.85546875 11.50390625 C7.23316406 12.32761719 7.61085938 13.15132813 8 14 C7 16 7 16 5 18 C4.3574765 20.06874034 4.3574765 20.06874034 4 22 C1.625 21.75 1.625 21.75 -1 21 C-2.3125 18.9375 -2.3125 18.9375 -3 17 C-1.02 17.33 0.96 17.66 3 18 C1.69139194 12.89642856 -0.74749251 9.18773781 -3.7578125 4.953125 C-5 3 -5 3 -5 1 C-3.35 0.67 -1.7 0.34 0 0 Z " fill="#97908B" transform="translate(460,320)"/>
<path d="M0 0 C2.46105545 3.69158318 2.25575793 6.46623554 2.1953125 10.73046875 C2.1924826 11.48088943 2.18965271 12.23131012 2.18673706 13.00447083 C2.17555062 15.39897675 2.15044928 17.79310731 2.125 20.1875 C2.11496819 21.81184355 2.10584269 23.43619297 2.09765625 25.06054688 C2.07561637 29.040509 2.0410974 33.02019088 2 37 C-5.13759486 33.65796991 -9.94088086 26.5960686 -14 20 C-12.68 20 -11.36 20 -10 20 C-8.62109375 21.49609375 -8.62109375 21.49609375 -7.4375 23.4375 C-5.52207895 26.60381888 -5.52207895 26.60381888 -2 28 C-1.34 29.32 -0.68 30.64 0 32 C0 21.44 0 10.88 0 0 Z " fill="#A5A09D" transform="translate(608,374)"/>
<path d="M0 0 C0.66 0 1.32 0 2 0 C1.63167647 4.27449154 1.20199465 8.3056434 0 12.4375 C-1.26214961 16.93390799 -1.64494103 21.35620237 -2 26 C-2.66 26 -3.32 26 -4 26 C-6.61729176 20.76541648 -5.7645576 12.57169376 -4.140625 7.109375 C-1.75872093 1.75872093 -1.75872093 1.75872093 0 0 Z " fill="#23221F" transform="translate(275,385)"/>
<path d="M0 0 C8.42110231 -0.85541671 15.49926007 1.13783039 23 5 C25.3828125 7.171875 25.3828125 7.171875 27 9 C20.94364701 8.3436874 15.37056667 6.73971507 9.5625 4.9375 C8.64017578 4.65583984 7.71785156 4.37417969 6.76757812 4.08398438 C4.51026202 3.39392401 2.25450816 2.69916877 0 2 C0 1.34 0 0.68 0 0 Z " fill="#4B4845" transform="translate(481,314)"/>
<path d="M0 0 C-0.53951066 6.68993219 -1.88706171 12.63460728 -4 19 C-6.57461344 16.42538656 -6.31009568 15.1374488 -6.5 11.5625 C-6.70556548 7.70300811 -6.80291034 6.29563449 -9 3 C-5.55930376 0.70620251 -4.27709699 0 0 0 Z " fill="#BDB4B2" transform="translate(575,465)"/>
<path d="M0 0 C1.64453125 0.8515625 1.64453125 0.8515625 2.64453125 2.8515625 C-0.73074431 2.71171295 -4.10561006 2.56360981 -7.48046875 2.4140625 C-8.43179687 2.37474609 -9.383125 2.33542969 -10.36328125 2.29492188 C-15.10175862 2.08103227 -19.69141176 1.78594429 -24.35546875 0.8515625 C-18.44505568 -5.05885057 -7.10823862 -2.53591216 0 0 Z " fill="#373533" transform="translate(458.35546875,232.1484375)"/>
<path d="M0 0 C5.27586207 2.63793103 5.27586207 2.63793103 7 6 C7.24492511 9.01726886 7.17422028 11.98018176 7 15 C4.8125 15.3125 4.8125 15.3125 2 15 C-0.8125 12.5 -0.8125 12.5 -3 10 C-1.35 10 0.3 10 2 10 C1.34 6.7 0.68 3.4 0 0 Z " fill="#332F2C" transform="translate(502,515)"/>
<path d="M0 0 C2.31 0 4.62 0 7 0 C6.57664615 6.49142565 4.08900201 11.33492989 1 17 C0.67 17 0.34 17 0 17 C0 11.39 0 5.78 0 0 Z " fill="#C7BDB7" transform="translate(597,460)"/>
<path d="M0 0 C2.31 0 4.62 0 7 0 C7 2.97 7 5.94 7 9 C8.65 9 10.3 9 12 9 C12 9.33 12 9.66 12 10 C8.37 10 4.74 10 1 10 C0.67 6.7 0.34 3.4 0 0 Z " fill="#46423F" transform="translate(465,726)"/>
<path d="M0 0 C0.66 0.66 1.32 1.32 2 2 C1.625 4.625 1.625 4.625 1 7 C-2.01268757 7.92054342 -3.42729162 8.27861489 -6.3125 6.875 C-8 5 -8 5 -8.25 2.3125 C-8.1675 1.549375 -8.085 0.78625 -8 0 C-5.09288879 -1.4535556 -3.10402897 -0.71133997 0 0 Z " fill="#706B68" transform="translate(400,700)"/>
<path d="M0 0 C2.625 0.375 2.625 0.375 5 1 C5.125 3.375 5.125 3.375 5 6 C4.34 6.66 3.68 7.32 3 8 C4.65 8.33 6.3 8.66 8 9 C8 9.33 8 9.66 8 10 C0.62957075 10.36248013 0.62957075 10.36248013 -2.0625 8.8125 C-3 7 -3 7 -2.8125 4.4375 C-2 2 -2 2 0 0 Z " fill="#55504C" transform="translate(490,677)"/>
<path d="M0 0 C1.93816735 0.1141866 3.87555099 0.24173423 5.8125 0.375 C6.89144531 0.44460938 7.97039062 0.51421875 9.08203125 0.5859375 C12 1 12 1 15 3 C9.63999211 5.25684543 5.8022175 6.36263859 0 6 C0 4.02 0 2.04 0 0 Z " fill="#CBB5AD" transform="translate(399,578)"/>
<path d="M0 0 C-0.66 3.63 -1.32 7.26 -2 11 C-3.65 11.33 -5.3 11.66 -7 12 C-7.33 11.67 -7.66 11.34 -8 11 C-7.77968006 7.10768107 -7.53011508 4.68914961 -5.125 1.5625 C-3 0 -3 0 0 0 Z " fill="#1F1E1C" transform="translate(400,306)"/>
<path d="M0 0 C-0.99 2.64 -1.98 5.28 -3 8 C-5.64 7.67 -8.28 7.34 -11 7 C-11 5.35 -11 3.7 -11 2 C-9.68 2 -8.36 2 -7 2 C-7 1.34 -7 0.68 -7 0 C-3.98968256 -0.93423645 -3.13349732 -1.04449911 0 0 Z " fill="#97918D" transform="translate(520,693)"/>
<path d="M0 0 C1.7890625 0.7734375 1.7890625 0.7734375 3.0390625 2.8359375 C3.2865625 3.4753125 3.5340625 4.1146875 3.7890625 4.7734375 C-1.85493108 7.21408337 -7.18845228 6.96632849 -13.2109375 6.7734375 C-11.18172865 4.74422865 -9.31117383 3.5209167 -6.8359375 2.0859375 C-6.06507813 1.62832031 -5.29421875 1.17070313 -4.5 0.69921875 C-2.2109375 -0.2265625 -2.2109375 -0.2265625 0 0 Z " fill="#5B5552" transform="translate(511.2109375,729.2265625)"/>
<path d="M0 0 C2.97 0 5.94 0 9 0 C9.625 2.375 9.625 2.375 10 5 C9.34 5.66 8.68 6.32 8 7 C5.0574037 6.69347955 2.65457692 6.32728846 0 5 C0 3.35 0 1.7 0 0 Z " fill="#5E5955" transform="translate(431,700)"/>
<path d="M0 0 C2.625 0.375 2.625 0.375 5 1 C5.625 3.3125 5.625 3.3125 6 6 C5.01 7.485 5.01 7.485 4 9 C-0.875 8.125 -0.875 8.125 -2 7 C-2.1875 4.5625 -2.1875 4.5625 -2 2 C-1.34 1.34 -0.68 0.68 0 0 Z " fill="#55504C" transform="translate(435,676)"/>
<path d="M0 0 C6.93 0.33 13.86 0.66 21 1 C21 2.65 21 4.3 21 6 C19.4375 6.75 19.4375 6.75 17 7 C15.34765488 6.04163983 13.69846857 5.07635058 12.08203125 4.05859375 C8.30543878 2.13841259 4.15548761 1.6354468 0 1 C0 0.67 0 0.34 0 0 Z " fill="#8F7F79" transform="translate(362,659)"/>
<path d="M0 0 C2.375 -0.1875 2.375 -0.1875 5 0 C7.29633824 3.44450737 7.54016485 5.93812283 8 10 C5.75 10.375 5.75 10.375 3 10 C0.625 7.25 0.625 7.25 -1 4 C-0.75 1.625 -0.75 1.625 0 0 Z " fill="#856F68" transform="translate(388,577)"/>
<path d="M0 0 C4.94542276 0.58116416 9.36336291 1.63655341 14.0703125 3.25 C14.71443085 3.46817383 15.35854919 3.68634766 16.02218628 3.91113281 C18.05847555 4.6016578 20.09187398 5.3002219 22.125 6 C24.1656056 6.69869872 26.20679271 7.39556124 28.24923706 8.08886719 C30.0973647 8.71672457 31.94351669 9.35038856 33.78955078 9.984375 C36.90990799 11.04674645 36.90990799 11.04674645 39.86279297 11.515625 C40.56807129 11.67546875 41.27334961 11.8353125 42 12 C42.495 12.99 42.495 12.99 43 14 C37.5239157 13.3908448 32.64493636 12.05951506 27.44140625 10.27734375 C26.65225327 10.01240616 25.86310028 9.74746857 25.05003357 9.47450256 C22.55223852 8.63449458 20.05737155 7.78614657 17.5625 6.9375 C15.86021322 6.36337702 14.15774095 5.78980368 12.45507812 5.21679688 C8.30121323 3.81754566 4.14995182 2.4108123 0 1 C0 0.67 0 0.34 0 0 Z " fill="#5F5651" transform="translate(418,447)"/>
<path d="M0 0 C0 3.96 0 7.92 0 12 C-3 11 -3 11 -4.5625 8.1875 C-5.036875 7.135625 -5.51125 6.08375 -6 5 C-6.5878125 3.824375 -6.5878125 3.824375 -7.1875 2.625 C-7.455625 2.08875 -7.72375 1.5525 -8 1 C-3.375 -1.125 -3.375 -1.125 0 0 Z " fill="#373433" transform="translate(541,584)"/>
<path d="M0 0 C1.41805831 0.28482368 2.83440379 0.57818144 4.25 0.875 C5.03890625 1.03742188 5.8278125 1.19984375 6.640625 1.3671875 C8.96831144 1.99150075 10.89031952 2.84838542 13 4 C10.83530323 5.92417491 9.36405057 6.92718989 6.5 7.5 C4 7 4 7 1.6875 4.625 C0 2 0 2 0 0 Z " fill="#AFDFFD" transform="translate(436,490)"/>
<path d="M0 0 C-0.59927826 3.35595828 -1.84622436 5.37801226 -4 8 C-6.86724686 7.42655063 -7.8614515 7.1385485 -10 5 C-10 4.01 -10 3.02 -10 2 C-3.375 0 -3.375 0 0 0 Z " fill="#AFDDFA" transform="translate(568,483)"/>
<path d="M0 0 C1.2065625 0.0309375 1.2065625 0.0309375 2.4375 0.0625 C2.7675 2.3725 3.0975 4.6825 3.4375 7.0625 C1.0625 7.6875 1.0625 7.6875 -1.5625 8.0625 C-3.5625 6.0625 -3.5625 6.0625 -3.75 3.5 C-3.4919783 0.14571793 -3.38163728 0.08247896 0 0 Z " fill="#4F4B4A" transform="translate(328.5625,591.9375)"/>
<path d="M0 0 C0.66 1.32 1.32 2.64 2 4 C1.34 4 0.68 4 0 4 C-0.66 6.64 -1.32 9.28 -2 12 C-3.32 11.67 -4.64 11.34 -6 11 C-7.25 7.9375 -7.25 7.9375 -8 5 C-7 4 -7 4 -4.4375 3.9375 C-3.2309375 3.9684375 -3.2309375 3.9684375 -2 4 C-1.34 2.68 -0.68 1.36 0 0 Z " fill="#292726" transform="translate(339,586)"/>
<path d="M0 0 C0.66 0 1.32 0 2 0 C2 7.92 2 15.84 2 24 C1.67 24 1.34 24 1 24 C0.67 20.37 0.34 16.74 0 13 C-0.33 14.98 -0.66 16.96 -1 19 C-1.33 19 -1.66 19 -2 19 C-2.24794402 12.4294834 -1.32388229 6.43028541 0 0 Z " fill="#635E5B" transform="translate(313,481)"/>
<path d="M0 0 C0.33 0 0.66 0 1 0 C0.67 11.88 0.34 23.76 0 36 C-0.66 36 -1.32 36 -2 36 C-2.33 34.35 -2.66 32.7 -3 31 C-2.34 31 -1.68 31 -1 31 C-1.00523682 30.27409668 -1.01047363 29.54819336 -1.01586914 28.80029297 C-1.03673497 25.49187088 -1.04969069 22.18346269 -1.0625 18.875 C-1.07087891 17.73289062 -1.07925781 16.59078125 -1.08789062 15.4140625 C-1.09111328 14.30546875 -1.09433594 13.196875 -1.09765625 12.0546875 C-1.10289307 11.03874512 -1.10812988 10.02280273 -1.11352539 8.97607422 C-0.99652309 5.90885274 -0.56776417 3.01366866 0 0 Z " fill="#696460" transform="translate(331,426)"/>
<path d="M0 0 C0.33 0.66 0.66 1.32 1 2 C1.66 2 2.32 2 3 2 C4.00496852 5.01490557 4.10335303 7.04181692 4.0625 10.1875 C4.05347656 11.08855469 4.04445313 11.98960937 4.03515625 12.91796875 C4.02355469 13.60503906 4.01195312 14.29210937 4 15 C3.01 15.33 2.02 15.66 1 16 C0.67 10.72 0.34 5.44 0 0 Z " fill="#A8A4A2" transform="translate(497,705)"/>
<path d="M0 0 C6.15234375 0.5859375 6.15234375 0.5859375 8 1 C8.33 1.66 8.66 2.32 9 3 C8.01 4.485 8.01 4.485 7 6 C4.5 6.3125 4.5 6.3125 2 6 C1.34 5.34 0.68 4.68 0 4 C0 2.68 0 1.36 0 0 Z " fill="#4F4B4A" transform="translate(331,576)"/>
<path d="M0 0 C0.33 0.99 0.66 1.98 1 3 C0.01 4.485 0.01 4.485 -1 6 C-1.5807525 8.07296379 -2.0050213 10.14947884 -2.4375 12.2578125 C-2.623125 12.83273437 -2.80875 13.40765625 -3 14 C-3.99 14.495 -3.99 14.495 -5 15 C-4.67 13.02 -4.34 11.04 -4 9 C-5.65 10.32 -7.3 11.64 -9 13 C-7.50923566 9.7173068 -5.61379679 7.06922559 -3.375 4.25 C-2.74335938 3.45078125 -2.11171875 2.6515625 -1.4609375 1.828125 C-0.97882813 1.22484375 -0.49671875 0.6215625 0 0 Z " fill="#4E4A47" transform="translate(355,350)"/>
<path d="M0 0 C-0.33 0.99 -0.66 1.98 -1 3 C-1.7425 2.54625 -2.485 2.0925 -3.25 1.625 C-8.12213424 -0.85814088 -13.64597165 -1.26360452 -19 -2 C-19 -2.33 -19 -2.66 -19 -3 C-11.76696616 -4.32851642 -6.16735581 -4.29846011 0 0 Z " fill="#B9B1AD" transform="translate(462,232)"/>
<path d="M0 0 C1.875 1.5 1.875 1.5 2.625 5.125 C2.74875 6.795625 2.74875 6.795625 2.875 8.5 C1.946875 7.860625 1.01875 7.22125 0.0625 6.5625 C-2.96719943 4.41377907 -2.96719943 4.41377907 -6.125 3.5 C-5.795 2.51 -5.465 1.52 -5.125 0.5 C-2.125 -0.5 -2.125 -0.5 0 0 Z " fill="#A99790" transform="translate(542.125,646.5)"/>
<path d="M0 0 C0.33 0.99 0.66 1.98 1 3 C-2.82989106 4.80230168 -5.78121808 5.19622241 -10 5 C-10 4.01 -10 3.02 -10 2 C-6.49223216 0.39644899 -3.85645121 -0.22036864 0 0 Z " fill="#433D39" transform="translate(469,537)"/>
<path d="M0 0 C0.66 0.33 1.32 0.66 2 1 C-0.31 3.31 -2.62 5.62 -5 8 C-4.34 8.66 -3.68 9.32 -3 10 C-7.455 11.485 -7.455 11.485 -12 13 C-9.9686484 8.93729679 -8.24522343 7.18814351 -4.875 4.25 C-3.96492187 3.45078125 -3.05484375 2.6515625 -2.1171875 1.828125 C-1.06917969 0.92320312 -1.06917969 0.92320312 0 0 Z " fill="#726662" transform="translate(546,449)"/>
<path d="M0 0 C6.95230941 -0.44534366 11.59696035 -0.67289916 17 4 C13.02623171 5.56393356 10.18622097 4.36145292 6.25 3.0625 C4.49429687 2.49208984 4.49429687 2.49208984 2.703125 1.91015625 C1.81109375 1.60980469 0.9190625 1.30945313 0 1 C0 0.67 0 0.34 0 0 Z " fill="#4C4845" transform="translate(491,318)"/>
<path d="M0 0 C0.66 0.33 1.32 0.66 2 1 C0.21427748 2.83947337 -1.57802449 4.67157741 -3.375 6.5 C-3.88289063 7.02464844 -4.39078125 7.54929687 -4.9140625 8.08984375 C-6.23832604 9.43153181 -7.61605865 10.71995815 -9 12 C-9.66 12 -10.32 12 -11 12 C-9.49650623 8.33213607 -7.36271208 6.31089607 -4.375 3.75 C-3.14910156 2.69039063 -3.14910156 2.69039063 -1.8984375 1.609375 C-1.27195312 1.07828125 -0.64546875 0.5471875 0 0 Z " fill="#33312F" transform="translate(374,258)"/>
<path d="M0 0 C-0.33 0.99 -0.66 1.98 -1 3 C-1.66 3 -2.32 3 -3 3 C-5.5654594 5.5654594 -5.54046087 7.47686668 -6 11 C-5.01 11.33 -4.02 11.66 -3 12 C-4.65 11.67 -6.3 11.34 -8 11 C-7.51282051 4.66666667 -7.51282051 4.66666667 -5.125 1.5625 C-3 0 -3 0 0 0 Z " fill="#3D3A37" transform="translate(400,306)"/>
<path d="M0 0 C5.66153846 1.47692308 5.66153846 1.47692308 7.375 4.125 C7.58125 4.74375 7.7875 5.3625 8 6 C3.39146203 5.27991594 -0.67237409 3.68704061 -5 2 C-4.360625 1.855625 -3.72125 1.71125 -3.0625 1.5625 C-1.02454854 1.18992819 -1.02454854 1.18992819 0 0 Z " fill="#4E4B47" transform="translate(501,265)"/>
<path d="M0 0 C0 0.33 0 0.66 0 1 C-6.93 0.67 -13.86 0.34 -21 0 C-21 -0.33 -21 -0.66 -21 -1 C-18.25048307 -1.22212255 -15.50134388 -1.42815588 -12.75 -1.625 C-11.97269531 -1.68945312 -11.19539063 -1.75390625 -10.39453125 -1.8203125 C-3.27568856 -2.30707097 -3.27568856 -2.30707097 0 0 Z " fill="#5B5753" transform="translate(461,234)"/>
<path d="M0 0 C0.66 0 1.32 0 2 0 C1.67 2.97 1.34 5.94 1 9 C0.34 8.34 -0.32 7.68 -1 7 C-1.99 7.66 -2.98 8.32 -4 9 C-2.94124926 5.59687262 -1.99097846 2.98646769 0 0 Z " fill="#474340" transform="translate(275,385)"/>
<path d="M0 0 C1.98 0.495 1.98 0.495 4 1 C3.67 2.65 3.34 4.3 3 6 C1.68 5.67 0.36 5.34 -1 5 C-0.67 3.35 -0.34 1.7 0 0 Z " fill="#645E5B" transform="translate(400,620)"/>
<path d="M0 0 C2.31 0.33 4.62 0.66 7 1 C7 1.99 7 2.98 7 4 C4.69 3.67 2.38 3.34 0 3 C0 2.01 0 1.02 0 0 Z " fill="#BDB8B5" transform="translate(438,598)"/>
<path d="M0 0 C0.33 0 0.66 0 1 0 C1.33 3.63 1.66 7.26 2 11 C2.33 11 2.66 11 3 11 C3 12.65 3 14.3 3 16 C2.34 16 1.68 16 1 16 C-0.50156874 12.99686252 -0.09281204 10.20932478 -0.0625 6.875 C-0.05347656 5.59367187 -0.04445313 4.31234375 -0.03515625 2.9921875 C-0.02355469 2.00476563 -0.01195312 1.01734375 0 0 Z " fill="#5F5B57" transform="translate(270,395)"/>
<path d="M0 0 C-2.64 1.65 -5.28 3.3 -8 5 C-8 4.34 -8 3.68 -8 3 C-8.66 2.67 -9.32 2.34 -10 2 C-4.5 -1.125 -4.5 -1.125 0 0 Z " fill="#403D3A" transform="translate(341,295)"/>
<path d="M0 0 C0.99 0.33 1.98 0.66 3 1 C3 4.3 3 7.6 3 11 C1.35 11.33 -0.3 11.66 -2 12 C-2.33 11.34 -2.66 10.68 -3 10 C-1.35 10 0.3 10 2 10 C1.34 6.7 0.68 3.4 0 0 Z " fill="#7E706B" transform="translate(502,515)"/>
<path d="M0 0 C0.33 0 0.66 0 1 0 C1.19456705 1.95764383 1.38044247 3.91615321 1.5625 5.875 C1.66691406 6.96554687 1.77132812 8.05609375 1.87890625 9.1796875 C2 12 2 12 1 14 C0.34 14 -0.32 14 -1 14 C-0.67 9.38 -0.34 4.76 0 0 Z " fill="#514D4A" transform="translate(594,496)"/>
<path d="M0 0 C0.33 0 0.66 0 1 0 C1 3.3 1 6.6 1 10 C0.67 10 0.34 10 0 10 C-0.33 8.35 -0.66 6.7 -1 5 C-2.98 5.99 -2.98 5.99 -5 7 C-1.125 1.125 -1.125 1.125 0 0 Z " fill="#A08F89" transform="translate(577,499)"/>
<path d="M0 0 C0.33 0 0.66 0 1 0 C1 4.95 1 9.9 1 15 C0.34 15 -0.32 15 -1 15 C-1.33 13.35 -1.66 11.7 -2 10 C-1.34 10 -0.68 10 0 10 C0 6.7 0 3.4 0 0 Z " fill="#7E7874" transform="translate(330,447)"/>
<path d="M0 0 C0.33 0 0.66 0 1 0 C1 3.3 1 6.6 1 10 C0.01 10 -0.98 10 -2 10 C-1.54177532 6.53058454 -1.10868317 3.32604951 0 0 Z " fill="#8F8984" transform="translate(608,451)"/>
<path d="M0 0 C0.33 0.66 0.66 1.32 1 2 C3.97 2 6.94 2 10 2 C8.68 2.33 7.36 2.66 6 3 C6.33 3.99 6.66 4.98 7 6 C3.62496331 4.8141763 1.35277269 3.72426311 -1 1 C-0.67 0.67 -0.34 0.34 0 0 Z " fill="#B6AEA9" transform="translate(384,217)"/>
<path d="M0 0 C0.66 0.33 1.32 0.66 2 1 C2.59528685 3.83906038 3.06881101 6.14434325 3 9 C1.5625 11 1.5625 11 0 12 C-0.66 11.34 -1.32 10.68 -2 10 C-1.34 10 -0.68 10 0 10 C0 6.7 0 3.4 0 0 Z " fill="#938C88" transform="translate(315,300)"/>
<path d="M0 0 C2 2 2 2 2.125 5.125 C2.08375 6.07375 2.0425 7.0225 2 8 C1.01 8.33 0.02 8.66 -1 9 C-0.67 6.03 -0.34 3.06 0 0 Z " fill="#C3C0BE" transform="translate(499,712)"/>
<path d="M0 0 C4.455 0.99 4.455 0.99 9 2 C8.67 2.66 8.34 3.32 8 4 C2.25 3.125 2.25 3.125 0 2 C0 1.34 0 0.68 0 0 Z " fill="#736F6B" transform="translate(431,703)"/>
<path d="M0 0 C0.66 0.33 1.32 0.66 2 1 C0.35 3.64 -1.3 6.28 -3 9 C-4 7 -4 7 -3.1875 3.9375 C-2 1 -2 1 0 0 Z " fill="#403E3B" transform="translate(490,631)"/>
<path d="M0 0 C0.66 0.33 1.32 0.66 2 1 C1.67 3.31 1.34 5.62 1 8 C0.34 8 -0.32 8 -1 8 C-1.125 2.25 -1.125 2.25 0 0 Z " fill="#BEBAB7" transform="translate(414,605)"/>
<path d="M0 0 C0.99 0 1.98 0 3 0 C3 1.65 3 3.3 3 5 C1.68 5 0.36 5 -1 5 C-0.67 3.35 -0.34 1.7 0 0 Z " fill="#BCB8B5" transform="translate(430,593)"/>
<path d="M0 0 C1.98 0 3.96 0 6 0 C6.33 0.99 6.66 1.98 7 3 C5.02 3 3.04 3 1 3 C0.67 2.01 0.34 1.02 0 0 Z " fill="#BEB9B6" transform="translate(502,593)"/>
<path d="M0 0 C2.31 0.66 4.62 1.32 7 2 C7 2.66 7 3.32 7 4 C4.69 3.67 2.38 3.34 0 3 C0 2.01 0 1.02 0 0 Z " fill="#242320" transform="translate(493,315)"/>
<path d="M0 0 C0 0.99 0 1.98 0 3 C-2.5 4.6875 -2.5 4.6875 -5 6 C-5 5.34 -5 4.68 -5 4 C-5.66 3.67 -6.32 3.34 -7 3 C-4.69 2.01 -2.38 1.02 0 0 Z " fill="#484442" transform="translate(387,252)"/>
<path d="M0 0 C1.32 0.99 2.64 1.98 4 3 C3.67 4.32 3.34 5.64 3 7 C1.68 5.35 0.36 3.7 -1 2 C-0.67 1.34 -0.34 0.68 0 0 Z " fill="#C0B8B3" transform="translate(605,404)"/>
</svg>
