<?xml version="1.0" encoding="UTF-8"?>
<svg version="1.1" xmlns="http://www.w3.org/2000/svg" width="900" height="900">
<path d="M0 0 C18.86149452 -0.20605694 37.71372379 2.84043818 55.92724609 7.54223633 C56.7093042 7.74373291 57.4913623 7.94522949 58.29711914 8.15283203 C63.00684108 9.41854757 67.32417857 11.08744516 71.80224609 13.04223633 C73.24305033 13.5335264 74.68874266 14.01063789 76.13818359 14.47583008 C89.84502332 18.95100014 102.52639431 25.4416021 114.18847656 33.87963867 C115.67952559 34.95382558 117.19504435 35.99382601 118.71240234 37.03051758 C125.28491585 41.59817804 131.06601726 46.81130597 136.85693359 52.30786133 C138.69485124 54.04571357 140.52624235 55.62101544 142.50927734 57.20629883 C145.46394319 59.57204491 147.51234548 62.03265266 149.80224609 65.04223633 C149.80224609 65.70223633 149.80224609 66.36223633 149.80224609 67.04223633 C150.79224609 67.37223633 151.78224609 67.70223633 152.80224609 68.04223633 C155.80224609 71.48668077 155.80224609 71.48668077 155.80224609 74.04223633 C156.46224609 74.04223633 157.12224609 74.04223633 157.80224609 74.04223633 C159.39432215 76.26401411 160.86290113 78.47456903 162.30224609 80.79223633 C162.70572266 81.42645508 163.10919922 82.06067383 163.52490234 82.71411133 C165.09891401 85.20759516 166.61315078 87.65053889 167.89599609 90.30786133 C168.71255994 92.10159103 168.71255994 92.10159103 170.19677734 93.35473633 C172.60474975 95.88574382 173.96536447 98.93618943 175.48974609 102.04223633 C175.81007813 102.67129883 176.13041016 103.30036133 176.46044922 103.94848633 C177.89536512 106.83667526 178.80224609 108.77470493 178.80224609 112.04223633 C179.46224609 112.04223633 180.12224609 112.04223633 180.80224609 112.04223633 C181.20056641 113.26040039 181.59888672 114.47856445 182.00927734 115.73364258 C182.54427065 117.35739419 183.07943606 118.98108911 183.61474609 120.60473633 C184.00629883 121.80453125 184.00629883 121.80453125 184.40576172 123.02856445 C185.61110386 126.67435241 186.84688549 130.25080949 188.40771484 133.76098633 C189.71767112 136.84323638 190.56721721 139.72023325 191.30224609 142.97973633 C192.29368039 147.14169488 193.4776041 151.0259513 195.05224609 154.99536133 C196.61069126 159.24861793 197.64840182 163.66599795 198.80224609 168.04223633 C199.55138934 170.7108262 200.30089574 173.37927605 201.05615234 176.04614258 C203.1782833 184.56799829 204.1476335 192.63193039 204.36474609 201.41723633 C204.43889052 203.81567613 204.51311169 206.21411355 204.58740234 208.61254883 C204.63985107 210.45187988 204.63985107 210.45187988 204.69335938 212.32836914 C204.83449571 217.14219418 205.00270898 221.9548167 205.17602539 226.76757812 C205.26019172 229.11788633 205.34108231 231.46831412 205.41870117 233.81884766 C205.60423969 239.30241347 205.83155445 244.77426798 206.19287109 250.24926758 C207.1881283 265.89398983 206.36217723 280.49607321 200.76708984 295.30395508 C199.70250384 298.17389895 199.70250384 298.17389895 198.91162109 301.76879883 C197.73934107 306.5958676 195.97273189 311.13000205 194.11474609 315.72973633 C193.7617041 316.60605713 193.40866211 317.48237793 193.04492188 318.38525391 C189.05404173 328.11045511 184.31408672 337.22710875 178.25927734 345.84692383 C176.660443 348.18298635 176.660443 348.18298635 175.00146484 351.38598633 C172.77477258 355.32758441 169.93498463 358.42593754 166.80224609 361.66723633 C165.75902027 362.762107 164.71732474 363.85843804 163.67724609 364.95629883 C163.1805542 365.47877197 162.6838623 366.00124512 162.17211914 366.53955078 C160.96599775 367.86260856 159.85377937 369.26998389 158.75927734 370.68676758 C153.6436281 376.84392625 145.89664087 381.41956665 138.80224609 385.04223633 C138.14224609 385.04223633 137.48224609 385.04223633 136.80224609 385.04223633 C137.40315089 387.04321878 138.00815098 389.04297153 138.61474609 391.04223633 C138.95119141 392.15598633 139.28763672 393.26973633 139.63427734 394.41723633 C140.75533835 398.05012323 140.75533835 398.05012323 142.21630859 401.52270508 C144.4019075 407.26845861 145.59146462 413.29599043 146.90942383 419.28613281 C147.36172576 421.34101446 147.82243083 423.39386611 148.28466797 425.4465332 C149.14960226 429.30649125 149.97997025 433.17296301 150.80224609 437.04223633 C151.01703613 438.01862061 151.23182617 438.99500488 151.453125 440.00097656 C152.92038364 447.17721704 153.10228801 454.16944675 153.05224609 461.47973633 C153.05998047 462.63666992 153.06771484 463.79360352 153.07568359 464.9855957 C153.07181641 466.65138672 153.07181641 466.65138672 153.06787109 468.35083008 C153.06561523 469.34912842 153.06335938 470.34742676 153.06103516 471.37597656 C152.79348702 474.13247958 152.36476539 475.76459404 150.80224609 478.04223633 C149.81224609 478.37223633 148.82224609 478.70223633 147.80224609 479.04223633 C146.47645885 481.0568565 145.23856081 483.12995928 144.05224609 485.22973633 C137.23458131 496.77337174 137.23458131 496.77337174 130.81005859 498.61254883 C128.86474609 498.91723633 128.86474609 498.91723633 125.80224609 499.04223633 C125.74037109 500.25911133 125.67849609 501.47598633 125.61474609 502.72973633 C124.80089946 509.95119233 122.70796805 518.2838727 117.33740234 523.38208008 C114.4477046 525.27440911 112.21464116 525.72480423 108.80224609 526.04223633 C109.10490311 532.71411649 109.10490311 532.71411649 111.30224609 538.91723633 C113.61563543 543.73679744 113.55424314 548.75720789 113.80224609 554.04223633 C101.4732633 559.63671165 89.09825637 560.52005809 75.74145508 560.37841797 C73.37009514 560.35478963 70.99986658 560.35789216 68.62841797 560.36450195 C58.55061855 560.34454901 48.76642224 559.53476962 38.80224609 558.04223633 C37.86474609 550.66723633 37.86474609 550.66723633 37.57592773 548.34936523 C37.11508155 544.57645295 37.11508155 544.57645295 35.80224609 541.04223633 C33.49224609 541.37223633 31.18224609 541.70223633 28.80224609 542.04223633 C28.94662109 542.77829102 29.09099609 543.5143457 29.23974609 544.27270508 C29.42537109 545.24852539 29.61099609 546.2243457 29.80224609 547.22973633 C29.98787109 548.19266602 30.17349609 549.1555957 30.36474609 550.14770508 C30.77102222 552.83565693 30.88158181 555.32994652 30.80224609 558.04223633 C28.63657066 558.52586329 26.46964868 559.0039095 24.30224609 559.47973633 C22.49240234 559.87999023 22.49240234 559.87999023 20.64599609 560.28833008 C-1.86436536 564.70347211 -27.16988162 563.33591412 -49.19775391 557.04223633 C-48.86775391 547.80223633 -48.53775391 538.56223633 -48.19775391 529.04223633 C-49.18775391 529.37223633 -50.17775391 529.70223633 -51.19775391 530.04223633 C-55.74174466 530.41469459 -58.2672391 530.45381019 -62.44775391 528.60473633 C-66.62567012 524.71167804 -68.42576918 519.93279277 -69.88525391 514.46801758 C-71.74422521 511.03224026 -74.50444384 510.12310285 -77.94775391 508.66723633 C-83.82186874 505.94425447 -87.57503974 503.4038533 -91.19775391 498.04223633 C-91.87580078 497.14762695 -92.55384766 496.25301758 -93.25244141 495.33129883 C-101.19775391 484.78467405 -101.19775391 484.78467405 -101.19775391 479.04223633 C-102.35275391 479.53723633 -103.50775391 480.03223633 -104.69775391 480.54223633 C-109.05058282 482.1978659 -112.57297424 482.28999238 -117.19775391 482.04223633 C-119.67494964 477.26408804 -119.46470761 472.78421885 -119.38525391 467.54223633 C-119.3773584 466.65020508 -119.36946289 465.75817383 -119.36132812 464.83911133 C-119.13972984 447.56068761 -116.29836483 431.72005484 -111.65673828 415.10571289 C-109.34464583 406.79479147 -107.40722599 398.58811144 -106.19775391 390.04223633 C-106.97103027 389.58357178 -107.74430664 389.12490723 -108.54101562 388.65234375 C-111.24936461 387.01095783 -113.77239418 385.2313443 -116.32275391 383.35473633 C-119.1971308 381.24326376 -122.07059724 379.13321603 -124.97119141 377.05786133 C-130.70622661 372.94966992 -136.208793 368.64444775 -141.63134766 364.13208008 C-143.85398107 362.32217311 -146.11307548 360.6396522 -148.44775391 358.97973633 C-151.94002169 356.39602602 -154.66267955 353.4797697 -157.42822266 350.13989258 C-159.16005329 348.02990693 -159.16005329 348.02990693 -161.06103516 346.16333008 C-170.4812612 336.51656553 -177.70505732 323.29731887 -180.19775391 310.04223633 C-180.71473015 307.54724088 -181.24137529 305.05438188 -181.76855469 302.56152344 C-182.13400223 300.81783958 -182.4919279 299.07255995 -182.84179688 297.32568359 C-183.3258248 293.36043635 -183.3258248 293.36043635 -185.19775391 290.04223633 C-185.57290309 287.39567609 -185.90395101 284.76043908 -186.19775391 282.10473633 C-186.60354069 276.91710327 -186.60354069 276.91710327 -188.19775391 272.04223633 C-192.13968925 243.00125954 -192.77869388 213.12458454 -189.19775391 184.04223633 C-189.05337891 182.73770508 -188.90900391 181.43317383 -188.76025391 180.08911133 C-184.958487 148.18142477 -175.81754904 112.04820672 -156.95947266 85.63208008 C-155.26672246 83.14362468 -154.00913596 80.71193222 -152.76025391 77.97973633 C-149.86333294 71.90303005 -145.58732855 67.09367058 -141.19775391 62.04223633 C-140.60865234 61.33067383 -140.01955078 60.61911133 -139.41259766 59.88598633 C-133.01993499 52.26919677 -125.55872682 45.44203134 -117.19775391 40.04223633 C-116.53775391 40.04223633 -115.87775391 40.04223633 -115.19775391 40.04223633 C-115.19775391 39.38223633 -115.19775391 38.72223633 -115.19775391 38.04223633 C-102.96110093 31.64439239 -102.96110093 31.64439239 -96.19775391 32.04223633 C-96.19775391 31.38223633 -96.19775391 30.72223633 -96.19775391 30.04223633 C-95.19357422 29.93266602 -94.18939453 29.8230957 -93.15478516 29.71020508 C-77.58298158 28.8887462 -77.58298158 28.8887462 -64.57275391 22.29223633 C-64.22857422 21.77016602 -63.88439453 21.2480957 -63.52978516 20.71020508 C-54.59337829 9.52004164 -35.03219882 3.09473369 -21.19775391 1.04223633 C-14.14573028 0.29256688 -7.08426171 0.136145 0 0 Z " fill="#1D1C1A" transform="translate(415.19775390625,188.957763671875)"/>
<path d="M0 0 C0.92063232 0.53439697 1.84126465 1.06879395 2.78979492 1.61938477 C8.62842101 5.06213112 14.34365722 8.64352968 19.875 12.5625 C20.50849365 12.99804199 21.1419873 13.43358398 21.79467773 13.88232422 C23.51953125 15.15234375 23.51953125 15.15234375 26.0625 17.625 C26.44921875 20.44140625 26.44921875 20.44140625 26.0625 22.625 C26.93720947 22.52251953 27.81191895 22.42003906 28.71313477 22.31445312 C33.02547292 22.71428505 34.81254003 24.58651767 37.65234375 27.59375 C38.15995743 28.10748169 38.66757111 28.62121338 39.19056702 29.1505127 C40.80829521 30.79510488 42.40378298 32.45955005 44 34.125 C45.06831682 35.21486135 46.13796707 36.30341733 47.20898438 37.390625 C52.68258945 42.97307853 57.99296999 48.67125925 63.0625 54.625 C64.04725577 55.75471001 65.03291176 56.88363604 66.01953125 58.01171875 C86.27753887 81.36353711 86.27753887 81.36353711 91.0625 93.625 C91.74968215 94.87517476 92.43721612 96.12515618 93.125 97.375 C95.22125512 101.52810695 96.57136336 105.93420502 96.0625 110.625 C94.75390625 112.07421875 94.75390625 112.07421875 93.0625 113.625 C92.05849071 115.28925453 91.05883459 116.95613956 90.0625 118.625 C84.35305848 126.02348463 78.19420281 131.10738733 70.0625 135.625 C69.12591553 136.14876221 69.12591553 136.14876221 68.17041016 136.68310547 C60.58553936 140.89692258 52.92181143 144.78802549 44.9375 148.1875 C33.8483266 152.92126689 23.29564181 157.99971988 14.11328125 165.9609375 C12.0625 167.625 12.0625 167.625 9.91796875 168.6015625 C7.54448083 169.91072847 7.14935509 171.1853084 6.0625 173.625 C5.15947342 174.73723215 4.219937 175.82060938 3.25 176.875 C-1.41856756 182.21538582 -4.80688298 187.71336954 -7.12109375 194.41796875 C-8.11250641 197.09810346 -9.29703802 199.65819563 -10.5 202.25 C-14.44998221 210.86167292 -16.0616593 218.44160008 -16.0703125 227.95703125 C-16.07174759 228.97200935 -16.07174759 228.97200935 -16.07321167 230.00749207 C-16.07388769 231.43020725 -16.07207407 232.85292563 -16.06787109 234.27563477 C-16.06253985 236.42145949 -16.06782287 238.56707252 -16.07421875 240.71289062 C-16.08402419 252.67769105 -15.09080551 263.18567584 -11.625 274.6875 C-11.32916016 275.71166016 -11.03332031 276.73582031 -10.72851562 277.79101562 C-9.10020758 283.29490782 -7.21562167 288.48086928 -4.79663086 293.68383789 C-3.69623189 296.17013293 -3.00289883 298.67058605 -2.375 301.3125 C-1.6027442 304.33890785 -0.88888128 306.71818589 0.5625 309.5 C3.00776155 314.59429489 3.90988108 320.11531807 5.0625 325.625 C1.14252959 326.9316568 -2.60236383 326.80921613 -6.6875 326.8125 C-7.47382813 326.82474609 -8.26015625 326.83699219 -9.0703125 326.84960938 C-14.06518453 326.86205507 -18.13494778 326.13389097 -22.9375 324.625 C-26.20396022 324.1055982 -29.47164932 323.69100555 -32.75390625 323.28515625 C-36.53670383 322.50074792 -38.82024463 321.97164894 -41.9375 319.625 C-43.51688297 316.16179829 -44.30594578 312.58136767 -45.125 308.875 C-45.3734668 307.83311523 -45.62193359 306.79123047 -45.87792969 305.71777344 C-46.59056679 302.69210922 -47.26800647 299.66045546 -47.9375 296.625 C-48.2612538 295.22905875 -48.58540172 293.83320878 -48.91015625 292.4375 C-50.75897251 283.964533 -51.70011257 275.46140091 -52.5078125 266.83984375 C-52.83566881 263.40350938 -53.31774953 260.02275477 -53.9375 256.625 C-55.62480357 262.22886758 -55.12875827 268.14150324 -55.125 273.9375 C-55.1237915 275.83604736 -55.1237915 275.83604736 -55.12255859 277.77294922 C-55.04674809 289.34519949 -53.91319811 300.3017683 -51.20703125 311.57421875 C-50.90637018 313.86185735 -51.24252841 315.4415077 -51.9375 317.625 C-56.65816633 316.50253045 -59.9923105 315.0784914 -62.6953125 310.921875 C-64.25903443 307.53244631 -65.62857306 304.12056 -66.9375 300.625 C-67.61619141 298.94664062 -67.61619141 298.94664062 -68.30859375 297.234375 C-71.73859531 288.64410404 -74.51103369 280.02970282 -76.3984375 270.9765625 C-77.01160049 268.30175005 -77.7866741 265.69450749 -78.5625 263.0625 C-79.870565 258.3955344 -80.21073986 254.45223746 -79.9375 249.625 C-80.5975 249.625 -81.2575 249.625 -81.9375 249.625 C-82.4325 243.685 -82.4325 243.685 -82.9375 237.625 C-83.5975 237.625 -84.2575 237.625 -84.9375 237.625 C-85.71419475 241.74988932 -86.06581673 245.6485501 -86.0703125 249.84375 C-86.07224609 251.01776367 -86.07417969 252.19177734 -86.07617188 253.40136719 C-86.07166016 254.63016602 -86.06714844 255.85896484 -86.0625 257.125 C-86.06056641 258.37700195 -86.05863281 259.62900391 -86.05664062 260.91894531 C-86.01788123 269.19407711 -85.80437637 277.38967449 -84.9375 285.625 C-84.2775 285.625 -83.6175 285.625 -82.9375 285.625 C-82.2775 290.245 -81.6175 294.865 -80.9375 299.625 C-86.84132672 295.48196371 -91.39786777 291.20619288 -95.9375 285.625 C-96.65679687 284.7690625 -97.37609375 283.913125 -98.1171875 283.03125 C-104.30905578 275.53930974 -104.30905578 275.53930974 -104.9375 271.625 C-105.5975 271.625 -106.2575 271.625 -106.9375 271.625 C-111.44977952 260.29629822 -115.81797829 247.95169606 -114.9375 235.625 C-115.5975 235.625 -116.2575 235.625 -116.9375 235.625 C-117.02052368 234.79307129 -117.02052368 234.79307129 -117.10522461 233.94433594 C-117.35878107 231.4209083 -117.61684505 228.89796117 -117.875 226.375 C-117.96201172 225.50230469 -118.04902344 224.62960937 -118.13867188 223.73046875 C-118.26918945 222.46396484 -118.26918945 222.46396484 -118.40234375 221.171875 C-118.480896 220.39682617 -118.55944824 219.62177734 -118.64038086 218.82324219 C-118.8914069 216.64254142 -118.8914069 216.64254142 -119.45117188 214.62841797 C-122.96426257 200.15631844 -121.05763447 182.82000433 -121.11373901 167.93414307 C-121.12112763 166.13200254 -121.1317013 164.32987166 -121.14578247 162.527771 C-121.2338855 150.09435855 -120.51314123 137.95888603 -118.9375 125.625 C-118.7921582 124.47862061 -118.64681641 123.33224121 -118.49707031 122.15112305 C-117.53213942 114.95149761 -116.0021247 107.85297544 -114.5 100.75 C-114.29463623 99.76225586 -114.08927246 98.77451172 -113.87768555 97.75683594 C-112.70828998 92.36892023 -111.2140956 87.63733654 -108.9375 82.625 C-108.3650958 80.4177639 -108.3650958 80.4177639 -108.0625 78.375 C-107.12207677 73.73610556 -105.31481671 69.74066482 -103.25390625 65.49609375 C-102.2256066 63.25336306 -101.35345087 61.0687908 -100.51953125 58.75390625 C-95.65853685 45.60709076 -87.2930668 34.73367408 -78.25097656 24.19726562 C-77.16892172 22.90201782 -76.16273926 21.54377835 -75.1796875 20.171875 C-74.76976562 19.66140625 -74.35984375 19.1509375 -73.9375 18.625 C-73.2775 18.625 -72.6175 18.625 -71.9375 18.625 C-71.9375 17.965 -71.9375 17.305 -71.9375 16.625 C-70.53564453 15.28393555 -70.53564453 15.28393555 -68.5703125 13.76171875 C-67.49644287 12.92906494 -67.49644287 12.92906494 -66.40087891 12.07958984 C-65.62921387 11.4964502 -64.85754883 10.91331055 -64.0625 10.3125 C-63.28181152 9.72162598 -62.50112305 9.13075195 -61.69677734 8.52197266 C-50.06764696 -0.13894225 -38.95093163 -3.92980336 -24.625 -5.625 C-23.85994141 -5.71740967 -23.09488281 -5.80981934 -22.30664062 -5.9050293 C-13.28107435 -6.85753055 -7.73586695 -4.51905483 0 0 Z " fill="#A39B96" transform="translate(363.9375,238.375)"/>
<path d="M0 0 C5.54021075 1.62385488 10.39461209 3.6690265 15.5 6.375 C25.13944244 11.39739804 35.75426793 14.91435944 46.63671875 15.6328125 C51.36870898 16.36803082 55.87007824 18.17215222 60.375 19.7578125 C63.23071142 20.73638602 66.01370172 21.52892813 68.9375 22.25 C78.98485327 25.20014567 89.67471417 31.53760989 97 39 C97.64710938 39.52207031 98.29421875 40.04414063 98.9609375 40.58203125 C102.4882496 43.78170764 104.13390342 46.30167767 104.4375 51.0703125 C104.50881203 55.06467195 104.30444591 59.01804081 104 63 C103.18208984 62.7834375 103.18208984 62.7834375 102.34765625 62.5625 C93.43873863 60.36953566 85.42325869 59.87095162 77 64 C64.08740328 72.09773014 56.36456099 82.36072713 48.1171875 94.8515625 C44.2749672 100.55458905 40.28087093 106.06193298 33.8515625 108.97265625 C31.65792549 109.91313034 31.65792549 109.91313034 31.0625 112.9375 C31.041875 113.948125 31.02125 114.95875 31 116 C31.44730469 116.41378906 31.89460937 116.82757813 32.35546875 117.25390625 C34.77921248 119.82733487 35.26844726 122.62677649 36.25 126 C39.47154992 136.4111832 45.18255546 147.21890199 54.5625 153.25 C55.32691406 153.75015625 56.09132813 154.2503125 56.87890625 154.765625 C62.26113376 157.8978237 67.96816568 157.81511275 74 157 C82.6841895 153.95682248 89.70496648 149.70894586 95 142 C95.41765625 141.39285156 95.8353125 140.78570312 96.265625 140.16015625 C97.18761519 138.78041741 98.09562386 137.3913479 99 136 C99.33 136 99.66 136 100 136 C100.92407616 149.14241646 99.09587208 161.43245969 90.75 172 C89.20223813 173.69975158 87.62016934 175.36911879 86 177 C85.00033203 178.03833984 85.00033203 178.03833984 83.98046875 179.09765625 C60.1247973 202.04106493 23.49790632 213.12545992 -8.8984375 213.16796875 C-9.81348053 213.17129715 -10.72852356 213.17462555 -11.67129517 213.17805481 C-13.59905501 213.18308425 -15.52682344 213.18546438 -17.45458984 213.18530273 C-20.33316308 213.18746852 -23.21133908 213.20561016 -26.08984375 213.22460938 C-41.58290544 213.27194686 -57.31486951 212.95713258 -72.31640625 208.72265625 C-76.04397968 207.7188701 -79.81379888 207.12284393 -83.625 206.52734375 C-86.11282195 205.97494907 -87.8876492 205.43272489 -90 204 C-91.046875 201.94140625 -91.046875 201.94140625 -91.75 199.5625 C-91.99234375 198.78003906 -92.2346875 197.99757813 -92.484375 197.19140625 C-93 195 -93 195 -93 192 C-93.66 192 -94.32 192 -95 192 C-95.19634033 191.33468262 -95.39268066 190.66936523 -95.5949707 189.98388672 C-96.49506043 186.94585246 -97.403697 183.91043859 -98.3125 180.875 C-98.7755957 179.30492187 -98.7755957 179.30492187 -99.24804688 177.703125 C-100.80632488 172.51980026 -102.49241927 167.81146442 -105 163 C-105.72065447 160.78769676 -106.38585082 158.55670348 -107 156.3125 C-107.33644531 155.08789062 -107.67289062 153.86328125 -108.01953125 152.6015625 C-108.34308594 151.41304687 -108.66664063 150.22453125 -109 149 C-109.29261719 147.99710938 -109.58523438 146.99421875 -109.88671875 145.9609375 C-110.15097656 145.04570312 -110.41523438 144.13046875 -110.6875 143.1875 C-111.03361328 142.00220703 -111.03361328 142.00220703 -111.38671875 140.79296875 C-114.9910367 124.37839976 -114.10997053 106.92303316 -109 91 C-103.125 91.875 -103.125 91.875 -102 93 C-101.97352117 94.64452427 -102.01246218 96.29016757 -102.078125 97.93359375 C-102.63590549 117.53079112 -100.87786737 134.62336096 -87.875 150.125 C-77.39143008 161.21008623 -63.58089352 166.87904859 -48.40649414 167.5402832 C-40.08467932 167.62601683 -32.75810259 166.118453 -25 163 C-24.26523437 162.72285156 -23.53046875 162.44570313 -22.7734375 162.16015625 C-11.74512146 157.39293597 -3.97617372 147.512685 1.125 137 C1.64513672 135.95199219 1.64513672 135.95199219 2.17578125 134.8828125 C3.60880638 131.9728381 4.95276735 129.1278362 6.078125 126.08203125 C7 124 7 124 9.625 122.6875 C10.40875 122.460625 11.1925 122.23375 12 122 C11.9175 120.72125 11.835 119.4425 11.75 118.125 C11.70359375 117.40570313 11.6571875 116.68640625 11.609375 115.9453125 C11.19667963 113.83896805 11.19667963 113.83896805 9.21264648 113.0234375 C8.11738647 112.51683594 8.11738647 112.51683594 7 112 C-5.24228927 105.08051137 -15.84113586 97.97327079 -25 87.203125 C-34.22225256 77.04423742 -45.02799255 69.34509887 -56.6875 62.25 C-57.30536377 61.87278809 -57.92322754 61.49557617 -58.55981445 61.10693359 C-64.45030264 57.5882269 -70.09394525 54.8422018 -77 54 C-74.62782725 51.29980747 -72.29576078 50.05742296 -69.01171875 48.640625 C-68.03122559 48.20943359 -67.05073242 47.77824219 -66.04052734 47.33398438 C-64.53546631 46.67366211 -64.53546631 46.67366211 -63 46 C-36.58141596 34.44982846 -36.58141596 34.44982846 -14 17 C-13.5265918 16.51031738 -13.05318359 16.02063477 -12.56542969 15.51611328 C-5.59188534 8.29867995 -5.59188534 8.29867995 0 0 Z " fill="#D0BAB2" transform="translate(475,355)"/>
<path d="M0 0 C1.82870433 0.30050338 3.66240997 0.57224038 5.5 0.8125 C16.09275251 2.5073404 26.1140174 6.4528416 35.92578125 10.69140625 C37.67258437 11.43496285 39.42866768 12.15928713 41.20825195 12.82055664 C47.81136318 15.30895794 53.60802882 18.54556416 59.5625 22.3125 C60.44357422 22.85583984 61.32464844 23.39917969 62.23242188 23.95898438 C68.11556906 27.63649409 73.60108843 31.64753839 79 36 C79.99128906 36.78246094 80.98257813 37.56492188 82.00390625 38.37109375 C104.59913017 56.61975551 126.10938298 83.90123005 133.33203125 112.62890625 C134.1056417 115.37499716 135.13218268 118.00021997 136.14624023 120.66479492 C137.7983591 125.1836731 139.20527273 129.77893375 140.625 134.375 C140.93695312 135.35210937 141.24890625 136.32921875 141.5703125 137.3359375 C143.49282485 143.56752926 144.63345922 149.48630218 145 156 C145.66 156 146.32 156 147 156 C150.70024439 167.10073318 149.1057492 180.42290323 149 192 C144.38135271 190.60952696 142.40780377 188.47071653 139.5 184.6875 C131.46822672 174.32255314 122.17415288 166.74791893 111 160 C110.20335937 159.49726563 109.40671875 158.99453125 108.5859375 158.4765625 C98.77999337 152.87739803 88.18889903 150.46930238 77.1875 148.5 C57.27766699 144.91683299 39.96524783 140.26189856 25.05859375 125.8203125 C23.03966506 123.79570454 23.03966506 123.79570454 20 123 C18.49632097 120.41098066 17.16150018 117.88066797 15.875 115.1875 C15.33552734 114.09985352 15.33552734 114.09985352 14.78515625 112.99023438 C13.1644492 109.67294447 11.80449656 106.6182258 11 103 C10.34 103 9.68 103 9 103 C7.80859375 101.41796875 7.80859375 101.41796875 6.4375 99.1875 C2.71151038 93.42833816 -1.56826516 88.22450852 -6 83 C-6.46792969 82.44570313 -6.93585938 81.89140625 -7.41796875 81.3203125 C-16.25886153 70.87831316 -25.53231979 60.87446343 -35 51 C-35.86753906 50.08992188 -36.73507812 49.17984375 -37.62890625 48.2421875 C-50.86851962 34.64730723 -69.06297776 19.7762084 -87 13 C-87 12.34 -87 11.68 -87 11 C-82.9410923 8.64302622 -78.86796199 6.31467077 -74.77734375 4.01318359 C-73.30639976 3.1746647 -71.85368 2.30426663 -70.40625 1.42578125 C-51.92809052 -9.11056653 -19.66571779 -5.77321072 0 0 Z " fill="#CCC2BC" transform="translate(452,210)"/>
<path d="M0 0 C2.01399575 0.99367276 3.94560185 2.06518622 5.87890625 3.20703125 C6.86890625 3.74328125 7.85890625 4.27953125 8.87890625 4.83203125 C9.53890625 5.28578125 10.19890625 5.73953125 10.87890625 6.20703125 C10.87890625 6.86703125 10.87890625 7.52703125 10.87890625 8.20703125 C11.66265625 8.45453125 12.44640625 8.70203125 13.25390625 8.95703125 C16.20207733 10.36092224 16.78138395 11.21378862 17.87890625 14.20703125 C18.53890625 14.20703125 19.19890625 14.20703125 19.87890625 14.20703125 C21.32421875 15.67578125 21.32421875 15.67578125 23.00390625 17.70703125 C30.45016642 27.13194194 30.45016642 27.13194194 40.87890625 32.20703125 C41.20890625 30.55703125 41.53890625 28.90703125 41.87890625 27.20703125 C43.75390625 27.76953125 43.75390625 27.76953125 45.87890625 29.20703125 C47.6335644 33.6354542 48.20721904 36.6537941 46.87890625 41.20703125 C45.3828125 43.78515625 45.3828125 43.78515625 43.44140625 46.45703125 C42.82394531 47.3284375 42.20648438 48.19984375 41.5703125 49.09765625 C34.8345903 57.34416854 26.62277905 62.97860582 17.25390625 67.83203125 C16.20211182 68.38979248 15.15031738 68.94755371 14.06665039 69.5222168 C7.62461942 72.89919517 1.11849137 75.99808796 -5.58300781 78.8190918 C-15.89434292 83.17315713 -25.56281472 88.16686532 -34.0703125 95.54296875 C-36.12109375 97.20703125 -36.12109375 97.20703125 -38.265625 98.18359375 C-40.63911292 99.49275972 -41.03423866 100.76733965 -42.12109375 103.20703125 C-43.02412033 104.3192634 -43.96365675 105.40264063 -44.93359375 106.45703125 C-49.60216131 111.79741707 -52.99047673 117.29540079 -55.3046875 124 C-56.29610016 126.68013471 -57.48063177 129.24022688 -58.68359375 131.83203125 C-62.63357596 140.44370417 -64.24525305 148.02363133 -64.25390625 157.5390625 C-64.25486298 158.21571457 -64.2558197 158.89236664 -64.25680542 159.58952332 C-64.25748144 161.0122385 -64.25566782 162.43495688 -64.25146484 163.85766602 C-64.2461336 166.00349074 -64.25141662 168.14910377 -64.2578125 170.29492188 C-64.26761794 182.2597223 -63.27439926 192.76770709 -59.80859375 204.26953125 C-59.51275391 205.29369141 -59.21691406 206.31785156 -58.91210938 207.37304688 C-57.28380133 212.87693907 -55.39921542 218.06290053 -52.98022461 223.26586914 C-51.87982564 225.75216418 -51.18649258 228.2526173 -50.55859375 230.89453125 C-49.78633795 233.9209391 -49.07247503 236.30021714 -47.62109375 239.08203125 C-45.1758322 244.17632614 -44.27371267 249.69734932 -43.12109375 255.20703125 C-46.82903749 255.49032067 -50.41936411 255.61833454 -54.12109375 255.20703125 C-57.51677165 252.02358322 -58.25221488 246.75198885 -59.47265625 242.31640625 C-59.9302788 240.24180696 -59.9302788 240.24180696 -61.12109375 239.20703125 C-61.16173207 237.5408601 -61.16381475 235.8731503 -61.12109375 234.20703125 C-61.78109375 234.20703125 -62.44109375 234.20703125 -63.12109375 234.20703125 C-71.79616785 204.25956801 -71.79616785 204.25956801 -74.12109375 191.20703125 C-74.2593457 190.45067383 -74.39759766 189.69431641 -74.54003906 188.91503906 C-79.74534094 159.0579915 -80.68606001 121.7630268 -73.58056641 92.17773438 C-72.96565925 89.54036427 -72.60336781 86.89023234 -72.24609375 84.20703125 C-70.69061015 73.77181845 -68.40779979 63.31409857 -64.83203125 53.375 C-63.94975836 50.68455245 -63.32701003 47.96403541 -62.68359375 45.20703125 C-61.40070499 39.88440767 -59.55611254 35.10178983 -57.12109375 30.20703125 C-56.52941406 30.26503906 -55.93773437 30.32304687 -55.328125 30.3828125 C-49.83636791 30.70312577 -49.83636791 30.70312577 -45.18359375 27.89453125 C-43.76516992 26.04628202 -42.41343228 24.14553905 -41.12109375 22.20703125 C-40.46109375 22.20703125 -39.80109375 22.20703125 -39.12109375 22.20703125 C-38.62609375 20.72203125 -38.62609375 20.72203125 -38.12109375 19.20703125 C-36.6328125 17.671875 -36.6328125 17.671875 -34.80859375 16.14453125 C-34.21433594 15.63792969 -33.62007813 15.13132812 -33.0078125 14.609375 C-31.12109375 13.20703125 -31.12109375 13.20703125 -29.03125 12.16796875 C-26.88922923 11.22078847 -26.88922923 11.22078847 -24.87109375 8.89453125 C-18.36027258 2.53168329 -9.29549469 -3.47511128 0 0 Z " fill="#CDC3BD" transform="translate(412.12109375,308.79296875)"/>
<path d="M0 0 C14.94908197 -0.44451226 30.02054847 -0.1479527 44.44775391 4.08740234 C46.27645824 4.38790572 48.11016388 4.65964273 49.94775391 4.89990234 C60.54050642 6.59474275 70.5617713 10.54024394 80.37353516 14.77880859 C82.12033828 15.5223652 83.87642158 16.24668947 85.65600586 16.90795898 C92.25911708 19.39636028 98.05578273 22.6329665 104.01025391 26.39990234 C104.89132812 26.94324219 105.77240234 27.48658203 106.68017578 28.04638672 C112.56332297 31.72389644 118.04884234 35.73494074 123.44775391 40.08740234 C124.43904297 40.86986328 125.43033203 41.65232422 126.45166016 42.45849609 C149.04688408 60.70715785 170.55713689 87.98863239 177.77978516 116.71630859 C178.55339561 119.46239951 179.57993659 122.08762231 180.59399414 124.75219727 C182.24611301 129.27107544 183.65302664 133.8663361 185.07275391 138.46240234 C185.38470703 139.43951172 185.69666016 140.41662109 186.01806641 141.42333984 C187.94057876 147.6549316 189.08121313 153.57370453 189.44775391 160.08740234 C190.10775391 160.08740234 190.76775391 160.08740234 191.44775391 160.08740234 C194.7577912 170.01751422 193.55834506 181.71641002 193.44775391 192.08740234 C192.78775391 192.41740234 192.12775391 192.74740234 191.44775391 193.08740234 C190.44291187 191.1315491 189.44401586 189.17263998 188.44775391 187.21240234 C187.89087891 186.12185547 187.33400391 185.03130859 186.76025391 183.90771484 C185.44775391 181.08740234 185.44775391 181.08740234 185.44775391 179.08740234 C184.78775391 179.08740234 184.12775391 179.08740234 183.44775391 179.08740234 C182.44042991 177.15370003 181.44212102 175.21529928 180.44775391 173.27490234 C179.89087891 172.19595703 179.33400391 171.11701172 178.76025391 170.00537109 C177.44775391 167.08740234 177.44775391 167.08740234 177.44775391 164.08740234 C176.78775391 164.08740234 176.12775391 164.08740234 175.44775391 164.08740234 C174.02858868 160.80091445 172.62089961 157.51449507 171.27587891 154.19677734 C169.2684528 149.26495272 167.25575779 144.61707001 164.47900391 140.06005859 C163.04853725 137.32374927 162.02681143 134.47914493 160.94775391 131.58740234 C159.42887353 127.53705466 157.90487833 123.75072836 155.62744141 120.05224609 C153.88000893 117.14178737 152.29889791 114.14233556 150.69775391 111.14990234 C150.08416016 110.00650391 149.47056641 108.86310547 148.83837891 107.68505859 C148.37947266 106.82783203 147.92056641 105.97060547 147.44775391 105.08740234 C146.77228516 105.40837891 146.09681641 105.72935547 145.40087891 106.06005859 C139.131315 108.24113704 131.08715615 108.26717963 124.74853516 106.21240234 C122.4628998 104.99977905 120.49136678 103.67240918 118.44775391 102.08740234 C117.75166016 101.57951172 117.05556641 101.07162109 116.33837891 100.54833984 C110.91149375 96.243555 107.52454762 91.2505748 104.44775391 85.08740234 C104.10615234 84.41322266 103.76455078 83.73904297 103.41259766 83.04443359 C101.47759143 78.39141861 101.54955562 74.96027576 102.1159668 69.95239258 C102.4663474 66.15694749 102.72993913 62.73160072 101.44775391 59.08740234 C97.52677565 54.49155469 91.86155409 51.87504643 86.55371094 49.18505859 C83.91248503 47.80841221 81.51399375 46.1646932 79.07275391 44.46240234 C63.69942449 34.73451408 41.40015743 22.87582608 22.82275391 24.33740234 C21.57236328 24.42505859 20.32197266 24.51271484 19.03369141 24.60302734 C15.60997417 25.06549024 12.67413471 25.87626863 9.44775391 27.08740234 C11.92275391 28.07740234 11.92275391 28.07740234 14.44775391 29.08740234 C12.44775391 31.08740234 12.44775391 31.08740234 9.95166016 31.35302734 C8.49566406 31.34529297 8.49566406 31.34529297 7.01025391 31.33740234 C5.558125 31.34513672 5.558125 31.34513672 4.07666016 31.35302734 C1.44775391 31.08740234 1.44775391 31.08740234 -1.55224609 29.08740234 C-2.06396484 26.92333984 -2.06396484 26.92333984 -2.23974609 24.46240234 C-2.30548828 23.64513672 -2.37123047 22.82787109 -2.43896484 21.98583984 C-2.49503906 21.04611328 -2.49503906 21.04611328 -2.55224609 20.08740234 C-13.91304404 16.2027424 -25.67077419 16.36073056 -37.55224609 16.08740234 C-36.6721455 12.37653042 -35.34271218 10.6746071 -32.20068359 8.70068359 C-21.40813246 2.64294564 -12.36622565 0.42348467 0 0 Z " fill="#E4DFDC" transform="translate(407.55224609375,205.91259765625)"/>
<path d="M0 0 C5.54021075 1.62385488 10.39461209 3.6690265 15.5 6.375 C25.13944244 11.39739804 35.75426793 14.91435944 46.63671875 15.6328125 C51.36870898 16.36803082 55.87007824 18.17215222 60.375 19.7578125 C63.23071142 20.73638602 66.01370172 21.52892813 68.9375 22.25 C78.98485327 25.20014567 89.67471417 31.53760989 97 39 C97.64710938 39.52207031 98.29421875 40.04414063 98.9609375 40.58203125 C102.4882496 43.78170764 104.13390342 46.30167767 104.4375 51.0703125 C104.50881203 55.06467195 104.30444591 59.01804081 104 63 C103.18208984 62.7834375 103.18208984 62.7834375 102.34765625 62.5625 C93.43873863 60.36953566 85.42325869 59.87095162 77 64 C70.25464884 68.23013547 64.40231542 73.17242943 59 79 C58.34 79.66 57.68 80.32 57 81 C57 80.34 57 79.68 57 79 C55.96552734 78.64035156 55.96552734 78.64035156 54.91015625 78.2734375 C39.82894018 71.67414027 27.68244268 57.8719532 18 45 C18.36386106 54.46038756 23.16021804 62.07377026 28 70 C22.91610161 69.16519012 18.47489686 67.23078609 13.7421875 65.25390625 C5.11442235 62.3629745 -3.56726709 61.58620746 -12.625 61.5625 C-13.66027832 61.55863281 -14.69555664 61.55476563 -15.76220703 61.55078125 C-25.19165399 61.69067105 -33.19230252 63.86239784 -42 67 C-42.66 67 -43.32 67 -44 67 C-44 67.66 -44 68.32 -44 69 C-49.202441 67.15622302 -53.63912718 64.2668598 -58.296875 61.36523438 C-64.28338735 57.69391405 -69.91987985 54.86342929 -77 54 C-74.62782725 51.29980747 -72.29576078 50.05742296 -69.01171875 48.640625 C-68.03122559 48.20943359 -67.05073242 47.77824219 -66.04052734 47.33398438 C-64.53546631 46.67366211 -64.53546631 46.67366211 -63 46 C-36.58141596 34.44982846 -36.58141596 34.44982846 -14 17 C-13.5265918 16.51031738 -13.05318359 16.02063477 -12.56542969 15.51611328 C-5.59188534 8.29867995 -5.59188534 8.29867995 0 0 Z " fill="#B29E97" transform="translate(475,355)"/>
<path d="M0 0 C1.75570312 0.61294922 1.75570312 0.61294922 3.546875 1.23828125 C13.52799763 4.75782558 13.52799763 4.75782558 16 9 C19.05493711 15.73846211 19.30855279 22.84936648 19.375 30.125 C19.39566528 31.37700195 19.39566528 31.37700195 19.41674805 32.65429688 C19.37296595 38.58064203 18.18109641 43.50005984 16 49 C2.13323272 50.91070648 -11.51389564 51.31938029 -25.5 51.25 C-26.54995148 51.2478952 -27.59990295 51.24579041 -28.68167114 51.24362183 C-73.86269457 51.13730543 -73.86269457 51.13730543 -77 48 C-77.02915671 46.17448725 -76.98623647 44.34775595 -76.9140625 42.5234375 C-76.87079834 41.38366455 -76.82753418 40.2438916 -76.78295898 39.06958008 C-76.73083252 37.85036865 -76.67870605 36.63115723 -76.625 35.375 C-76.57609619 34.14998779 -76.52719238 32.92497559 -76.47680664 31.6628418 C-76.12262691 23.09735927 -75.67284437 14.54655514 -75 6 C-74.18208984 5.74476563 -74.18208984 5.74476563 -73.34765625 5.484375 C-69.40325155 4.21677144 -65.69432564 2.87969602 -62 1 C-44.25613139 -6.87270621 -17.71183477 -7.64379462 0 0 Z " fill="#A49D99" transform="translate(470,592)"/>
<path d="M0 0 C7.2121155 0.5754745 13.75570381 2.1569246 20.6875 4.1875 C22.90735635 4.82360015 25.12741252 5.4590033 27.34765625 6.09375 C28.45898926 6.4134375 29.57032227 6.733125 30.71533203 7.0625 C35.6743001 8.47787367 40.64813013 9.83665407 45.625 11.1875 C46.53064697 11.43371094 47.43629395 11.67992187 48.36938477 11.93359375 C50.91249013 12.62400849 53.45608711 13.31256723 56 14 C56.72960937 14.19722656 57.45921875 14.39445312 58.2109375 14.59765625 C66.45237238 16.82128868 74.71058967 18.96237958 83 21 C81.16442661 29.59821217 75.4590671 37.22496605 69 43 C65.78669035 45.01321687 62.50878093 46.57473662 59 48 C58.28328125 48.36480469 57.5665625 48.72960937 56.828125 49.10546875 C46.96604998 52.22482673 32.96658884 51.16432026 23.5078125 47.32421875 C14.90478949 42.78150099 7.89047159 36.02951313 4 27 C4 26.01 4 25.02 4 24 C3.34 24 2.68 24 2 24 C-0.25943749 15.95075394 -0.19676277 8.29683005 0 0 Z " fill="#D6C9C6" transform="translate(385,460)"/>
<path d="M0 0 C5.875 0.875 5.875 0.875 7 2 C7.02647883 3.64452427 6.98753782 5.29016757 6.921875 6.93359375 C6.30897644 28.46732298 9.41463831 44.86657134 23 62 C22.01 62 21.02 62 20 62 C20.28875 62.68707031 20.5775 63.37414062 20.875 64.08203125 C21.24625 64.98308594 21.6175 65.88414062 22 66.8125 C22.37125 67.70582031 22.7425 68.59914063 23.125 69.51953125 C24 72 24 72 24 75 C24.66 75 25.32 75 26 75 C26.3403125 75.67804688 26.680625 76.35609375 27.03125 77.0546875 C37.59926984 97.34753411 53.97841716 109.61420098 75.41943359 116.81274414 C86.64409802 120.18257437 98.35215364 120.58870403 110 121 C110 121.33 110 121.66 110 122 C104.09994683 122.05031533 98.20002482 122.08614094 92.29980469 122.10986328 C90.30238666 122.11977682 88.30498256 122.13331164 86.30761719 122.15087891 C69.68344438 122.29318049 52.80043287 122.27194843 36.68359375 117.72265625 C32.95602032 116.7188701 29.18620112 116.12284393 25.375 115.52734375 C22.88717805 114.97494907 21.1123508 114.43272489 19 113 C17.953125 110.94140625 17.953125 110.94140625 17.25 108.5625 C17.00765625 107.78003906 16.7653125 106.99757813 16.515625 106.19140625 C16 104 16 104 16 101 C15.34 101 14.68 101 14 101 C13.80365967 100.33468262 13.60731934 99.66936523 13.4050293 98.98388672 C12.50493957 95.94585246 11.596303 92.91043859 10.6875 89.875 C10.2244043 88.30492187 10.2244043 88.30492187 9.75195312 86.703125 C8.19367512 81.51980026 6.50758073 76.81146442 4 72 C3.27934553 69.78769676 2.61414918 67.55670348 2 65.3125 C1.66355469 64.08789062 1.32710938 62.86328125 0.98046875 61.6015625 C0.65691406 60.41304688 0.33335937 59.22453125 0 58 C-0.29261719 56.99710937 -0.58523438 55.99421875 -0.88671875 54.9609375 C-1.15097656 54.04570312 -1.41523438 53.13046875 -1.6875 52.1875 C-1.91824219 51.39730469 -2.14898437 50.60710937 -2.38671875 49.79296875 C-5.9910367 33.37839976 -5.10997053 15.92303316 0 0 Z " fill="#AF9B95" transform="translate(366,446)"/>
<path d="M0 0 C7.04254592 4.47112453 12.87811836 10.8323551 15 19 C16.49599285 30.09930181 15.32565913 41.51151131 9 51 C6.43725586 51.70776367 6.43725586 51.70776367 3.21484375 52.16796875 C2.04373047 52.33876953 0.87261719 52.50957031 -0.33398438 52.68554688 C-1.56439453 52.85119141 -2.79480469 53.01683594 -4.0625 53.1875 C-5.26583984 53.36474609 -6.46917969 53.54199219 -7.70898438 53.72460938 C-14.20465673 54.64344015 -20.44161032 55.20472906 -27 55 C-26.40261487 51.1684954 -25.19580929 48.31146773 -23.4375 44.875 C-19.79329846 36.51846888 -20.58014921 27.91949683 -21 19 C-21.66 19 -22.32 19 -23 19 C-27 13.58823529 -27 13.58823529 -27 11 C-19.69985837 4.78233868 -10.18831518 -2.81628225 0 0 Z " fill="#A29B97" transform="translate(515,585)"/>
<path d="M0 0 C4.28621904 0.63905977 8.34285087 1.59352286 12.5 2.8125 C14.32917969 3.34230469 14.32917969 3.34230469 16.1953125 3.8828125 C18.71259749 4.62197421 21.22826085 5.3666833 23.7421875 6.1171875 C24.94101562 6.47039063 26.13984375 6.82359375 27.375 7.1875 C28.53 7.53039062 29.685 7.87328125 30.875 8.2265625 C33.56333584 8.89192562 35.64189522 9.09452857 38.375 9.0625 C44.45126469 10.63394776 46.72398169 15.94754922 50 21 C50.66 21.66 51.32 22.32 52 23 C52.26991906 25.68839385 52.08737357 28.29141936 52 31 C47.24583878 30.50506533 44.44779417 29.27876594 40.625 26.4375 C39.31402344 25.47650391 39.31402344 25.47650391 37.9765625 24.49609375 C37.32429688 24.00238281 36.67203125 23.50867188 36 23 C39.92857553 29.34261862 39.92857553 29.34261862 44.9375 34.8125 C45.618125 35.534375 46.29875 36.25625 47 37 C46.8125 39.3125 46.8125 39.3125 46 41 C43.8203125 41.7578125 43.8203125 41.7578125 41 42 C38.4296875 40.3046875 38.4296875 40.3046875 35.875 37.875 C35.02679688 37.08867188 34.17859375 36.30234375 33.3046875 35.4921875 C31.10753702 33.11628579 29.62521222 30.77920907 28 28 C27.34 27.67 26.68 27.34 26 27 C26.433125 27.90363281 26.86625 28.80726563 27.3125 29.73828125 C27.869375 30.91777344 28.42625 32.09726562 29 33.3125 C29.556875 34.48425781 30.11375 35.65601563 30.6875 36.86328125 C32 40 32 40 32 43 C21.32592918 41.52771437 11.25497994 36.30023432 4.3125 28 C-0.97465103 20.57308121 -2.95738912 14.15012883 -2 5 C-1 1.875 -1 1.875 0 0 Z " fill="#AF9B94" transform="translate(329,650)"/>
<path d="M0 0 C4.64378857 4.27867497 6.00544942 8.81775318 6.30737305 15.02929688 C6.349129 18.78075257 6.32657893 22.52600174 6.27734375 26.27734375 C6.26832031 27.58123047 6.25929688 28.88511719 6.25 30.22851562 C6.22652772 33.43248207 6.19369102 36.63606639 6.15234375 39.83984375 C-6.91102813 40.04855501 -17.38453892 38.23505651 -29.38671875 32.92578125 C-31.90453571 31.76883831 -31.90453571 31.76883831 -34.84765625 30.83984375 C-33.97265625 25.08984375 -33.97265625 25.08984375 -32.84765625 22.83984375 C-32.18765625 22.83984375 -31.52765625 22.83984375 -30.84765625 22.83984375 C-30.6775 21.76669922 -30.6775 21.76669922 -30.50390625 20.671875 C-28.3878097 11.53991073 -22.51753328 4.05536013 -14.84765625 -1.16015625 C-10.06641342 -2.86907703 -4.35629404 -2.73534742 0 0 Z " fill="#A29B97" transform="translate(375.84765625,586.16015625)"/>
<path d="M0 0 C-0.79890097 12.20390103 -2.88702338 22.8711213 -10 33 C-10.61875 33.94875 -11.2375 34.8975 -11.875 35.875 C-16.44806986 40.44806986 -21.18139455 42.24689483 -27.625 42.5625 C-31.75667337 42.37443763 -34.63020788 41.83646482 -37.6640625 38.75 C-42.19666439 32.81255659 -48 24.70071649 -48 17 C-27.48197644 8.39794201 -27.48197644 8.39794201 -19.640625 5.859375 C-17.47854514 5.15573954 -15.32457648 4.4346662 -13.171875 3.703125 C-12.49535889 3.47423584 -11.81884277 3.24534668 -11.12182617 3.00952148 C-9.76453217 2.55011729 -8.40790504 2.08873743 -7.05200195 1.62524414 C-2.22485866 0 -2.22485866 0 0 0 Z " fill="#D4C7C3" transform="translate(570,458)"/>
<path d="M0 0 C10.23814658 2.21826509 20.25070899 4.67740913 30.1640625 8.0859375 C33.46383268 9.14949979 36.76270819 9.92850982 40.16015625 10.60546875 C42 11 42 11 45 12 C46.01691264 13.99145391 47.01642648 15.99187074 48 18 C50.75698184 20.28138945 50.75698184 20.28138945 53.5625 19.8125 C56.33255117 19.16627558 56.33255117 19.16627558 58 16 C62.3177458 16.50797009 66.03302114 17.19682779 70 19 C69.9375 21.1875 69.9375 21.1875 69 24 C66.6485177 26.05129307 64.66894155 27.47489054 62 29 C61.35675781 29.39703125 60.71351563 29.7940625 60.05078125 30.203125 C49.92654091 35.36521523 34.92132847 34.60597928 24.25 31.4375 C14.66338455 27.545498 6.93380956 20.66276378 2.74609375 11.15234375 C0 3.89002613 0 3.89002613 0 0 Z " fill="#FBECE8" transform="translate(387,477)"/>
<path d="M0 0 C13.00638258 0.14466148 22.88254802 5.69132593 33.6875 12.3125 C34.58984375 12.85777344 35.4921875 13.40304687 36.421875 13.96484375 C43.72780442 18.49230607 50.68976711 23.51018232 57.69140625 28.48828125 C61.9640373 31.5203739 66.2938137 34.45848155 70.6875 37.3125 C69.6975 37.8075 69.6975 37.8075 68.6875 38.3125 C66.84683618 37.61929093 65.00829476 36.91998262 63.18017578 36.19433594 C58.29263901 34.46526808 53.18429868 33.53397417 48.125 32.4375 C39.45195365 30.506657 31.09849849 28.30493336 22.73046875 25.3359375 C19.22615177 24.15733538 15.76861798 23.41606092 12.13671875 22.76171875 C2.8138558 21.05178376 -5.67199712 18.18847026 -14.3125 14.3125 C-13.67811334 10.84716285 -12.29881946 8.51375787 -10.3125 5.625 C-9.77625 4.83738281 -9.24 4.04976563 -8.6875 3.23828125 C-6.10015333 -0.38547417 -4.48855572 0.09320498 0 0 Z " fill="#7A6C67" transform="translate(386.3125,422.6875)"/>
<path d="M0 0 C-4.75 4 -4.75 4 -7 4 C-7.99 6.97 -8.98 9.94 -10 13 C-11.11375 12.95875 -12.2275 12.9175 -13.375 12.875 C-17.04366025 12.58878141 -17.04366025 12.58878141 -19 15 C-19.25003964 18.54178598 -19.25003964 18.54178598 -19 22 C-17.03177114 23.96822886 -13.65191291 23.66248381 -11 24 C-10.6596875 25.7325 -10.6596875 25.7325 -10.3125 27.5 C-7.97124994 36.71867212 -1.69501176 43.90681578 6.13354492 49.06445312 C9.97455931 51.22403918 13.54859592 51.60157402 17.90234375 51.609375 C18.6249086 51.62591125 19.34747345 51.64244751 20.0919342 51.65948486 C22.3738788 51.70762566 24.65515889 51.72925802 26.9375 51.75 C28.49547554 51.77818839 30.05342057 51.8081198 31.61132812 51.83984375 C35.40749725 51.91337405 39.20330482 51.9631543 43 52 C43 52.33 43 52.66 43 53 C-16.52927393 53.47308996 -16.52927393 53.47308996 -31 51 C-32 50 -32 50 -32.03759766 47.64599609 C-31.99683105 46.61555176 -31.95606445 45.58510742 -31.9140625 44.5234375 C-31.87079834 43.38366455 -31.82753418 42.2438916 -31.78295898 41.06958008 C-31.73083252 39.85036865 -31.67870605 38.63115723 -31.625 37.375 C-31.57609619 36.14998779 -31.52719238 34.92497559 -31.47680664 33.6628418 C-31.12262691 25.09735927 -30.67284437 16.54655514 -30 8 C-29.18208984 7.74476563 -29.18208984 7.74476563 -28.34765625 7.484375 C-24.19950462 6.15129379 -20.20979956 4.69850434 -16.25 2.875 C-10.66418075 0.34301965 -6.1556181 -0.12069839 0 0 Z " fill="#8B837E" transform="translate(425,590)"/>
<path d="M0 0 C9.88604949 1.35979119 19.35997529 9.03220925 27.375 14.6875 C28.0354834 15.13851074 28.6959668 15.58952148 29.37646484 16.05419922 C31.2109375 17.38671875 31.2109375 17.38671875 34 20 C34.4140625 22.83203125 34.4140625 22.83203125 34 25 C34.87470947 24.89751953 35.74941895 24.79503906 36.65063477 24.68945312 C40.96297292 25.08928505 42.75004003 26.96151767 45.58984375 29.96875 C46.09745743 30.48248169 46.60507111 30.99621338 47.12806702 31.5255127 C48.74579521 33.17010488 50.34128298 34.83455005 51.9375 36.5 C53.00581682 37.58986135 54.07546707 38.67841733 55.14648438 39.765625 C60.62023771 45.34823183 65.92784599 51.04834353 71 57 C72.0080373 58.15328624 73.01713185 59.30564935 74.02734375 60.45703125 C91 79.96701389 91 79.96701389 91 84 C87.7734375 84.30859375 87.7734375 84.30859375 84 84 C81.6640625 81.91015625 81.6640625 81.91015625 79.625 79.0625 C75.96032416 74.18047057 72.08437262 69.96693685 67.65234375 65.77734375 C66 64 66 64 66 62 C65.45472656 61.79375 64.90945313 61.5875 64.34765625 61.375 C61.1053721 59.47602493 58.88260417 56.79817589 56.4375 54 C52.57853059 49.61717975 52.57853059 49.61717975 48 46 C48 45.34 48 44.68 48 44 C47.45472656 43.78472656 46.90945313 43.56945312 46.34765625 43.34765625 C43.19638136 41.53868814 40.9212332 39.04305997 38.4375 36.4375 C32.96041681 30.82730204 27.16879892 25.84558224 21 21 C20.22914063 20.3503125 19.45828125 19.700625 18.6640625 19.03125 C14.07911104 15.23458844 9.82744146 12.93418427 4.2421875 10.8984375 C1.3212983 9.72804636 -0.81458446 8.25826273 -3 6 C-3 5.01 -3 4.02 -3 3 C-2.01 3 -1.02 3 0 3 C0 2.01 0 1.02 0 0 Z " fill="#C7BDB7" transform="translate(356,236)"/>
<path d="M0 0 C0.34274406 1.66475686 0.67364302 3.33195323 1 5 C1.185625 5.928125 1.37125 6.85625 1.5625 7.8125 C2.08209772 11.59814054 2.06584893 15.18076223 2 19 C-13.81084455 21.23772053 -29.02601172 22.31736401 -45 22 C-45 15.73 -45 9.46 -45 3 C-39.55581848 2.57059977 -34.11156316 2.14262648 -28.66699219 1.71826172 C-26.81634081 1.57358855 -24.96575373 1.4280904 -23.11523438 1.28173828 C-20.44938526 1.07105021 -17.78331606 0.86336809 -15.1171875 0.65625 C-14.29507782 0.59062866 -13.47296814 0.52500732 -12.62594604 0.45739746 C-8.40455178 0.13248624 -4.2381354 -0.07152971 0 0 Z " fill="#776F6B" transform="translate(501,667)"/>
<path d="M0 0 C-0.78722766 6.70336277 -5.26287859 10.53698502 -10 15 C-13.48763402 17.69093807 -17.15225371 19.86236317 -21 22 C-21.62438965 22.3491748 -22.2487793 22.69834961 -22.89208984 23.05810547 C-30.47696064 27.27192258 -38.14068857 31.16302549 -46.125 34.5625 C-57.2141734 39.29626689 -67.76685819 44.37471988 -76.94921875 52.3359375 C-79 54 -79 54 -81.14453125 54.9765625 C-83.51801917 56.28572847 -83.91314491 57.5603084 -85 60 C-85.90302658 61.11223215 -86.842563 62.19560938 -87.8125 63.25 C-92.48106756 68.59038582 -95.86938298 74.08836954 -98.18359375 80.79296875 C-99.17500641 83.47310346 -100.35953802 86.03319563 -101.5625 88.625 C-106.31392248 98.98395713 -107.15454905 108.16869108 -107.5625 119.4375 C-107.60568359 120.55060547 -107.64886719 121.66371094 -107.69335938 122.81054688 C-107.79879888 125.54025844 -107.90092029 128.27005143 -108 131 C-108.66 131 -109.32 131 -110 131 C-110.495 131.99 -110.495 131.99 -111 133 C-111.05901588 128.60422496 -111.09393248 124.20855438 -111.125 119.8125 C-111.14175781 118.58595703 -111.15851563 117.35941406 -111.17578125 116.09570312 C-111.23548881 104.7811196 -110.21189996 93.96868939 -106.25 83.3125 C-105.85530518 82.23053345 -105.85530518 82.23053345 -105.45263672 81.12670898 C-96.63280519 57.74286144 -77.32447274 41.39505899 -55.18164062 31.11572266 C-50.09173307 28.82485608 -44.94149831 26.81553587 -39.6875 24.9375 C-28.05568214 20.74918022 -18.32766235 14.93339285 -9.40234375 6.296875 C-2.81632653 0 -2.81632653 0 0 0 Z " fill="#DFDAD7" transform="translate(455,352)"/>
<path d="M0 0 C14.72677468 -0.41161793 29.32792384 0.84601648 44 2 C44 8.27 44 14.54 44 21 C39.51975009 21.04634741 35.0403588 21.08603697 30.56005859 21.10986328 C29.04147496 21.11981384 27.52290993 21.13337916 26.00439453 21.15087891 C16.7837455 21.25434493 8.06879307 20.9458199 -1 19 C-1.10349817 12.58311325 -0.74507544 6.37305598 0 0 Z " fill="#7A726E" transform="translate(402,668)"/>
<path d="M0 0 C1.17985474 0.06900513 1.17985474 0.06900513 2.38354492 0.1394043 C3.25889893 0.18581055 4.13425293 0.2322168 5.03613281 0.2800293 C5.9693335 0.34061523 6.90253418 0.40120117 7.86401367 0.46362305 C8.81074951 0.51776367 9.75748535 0.5719043 10.73291016 0.62768555 C13.50667163 0.79027802 16.27902852 0.96818025 19.05151367 1.15112305 C20.13916016 1.21952393 20.13916016 1.21952393 21.2487793 1.28930664 C31.84264131 1.96273556 31.84264131 1.96273556 36.05151367 3.15112305 C36.05151367 3.81112305 36.05151367 4.47112305 36.05151367 5.15112305 C36.62830872 4.98846451 37.20510376 4.82580597 37.79937744 4.65821838 C39.98688864 4.16567414 41.84982686 4.03033835 44.08569336 4.03759766 C45.25645416 4.03771095 45.25645416 4.03771095 46.4508667 4.03782654 C47.28329895 4.04298782 48.1157312 4.04814911 48.97338867 4.0534668 C49.83337463 4.05488174 50.6933606 4.05629669 51.57940674 4.05775452 C54.32014476 4.06334208 57.06080043 4.0758923 59.80151367 4.08862305 C61.66218957 4.09363965 63.52286676 4.09820228 65.38354492 4.10229492 C69.93956613 4.11330744 74.49552595 4.13056354 79.05151367 4.15112305 C79.05151367 5.14112305 79.05151367 6.13112305 79.05151367 7.15112305 C76.96166992 8.72924805 76.96166992 8.72924805 74.11401367 10.40112305 C69.39789045 13.24172236 65.24700605 16.3246811 61.12182617 19.96362305 C59.05151367 21.15112305 59.05151367 21.15112305 56.73095703 20.87963867 C53.91780913 20.11477003 51.67021163 19.07114054 49.11010742 17.68237305 C48.19680664 17.19381836 47.28350586 16.70526367 46.3425293 16.2019043 C45.40086914 15.69014648 44.45920898 15.17838867 43.48901367 14.65112305 C41.6148483 13.63674861 39.73862102 12.62617221 37.86010742 11.61987305 C37.03309326 11.17063477 36.2060791 10.72139648 35.35400391 10.25854492 C31.95502168 8.62374656 30.03293439 7.86766481 26.36010742 8.9284668 C25.41264648 9.31131836 24.46518555 9.69416992 23.48901367 10.08862305 C18.33625943 12.15112305 18.33625943 12.15112305 15.05151367 12.15112305 C15.05151367 12.81112305 15.05151367 13.47112305 15.05151367 14.15112305 C12.49889624 15.24838717 10.77490614 15.96085954 8.05151367 16.15112305 C5.20792279 14.98900453 2.9885335 13.2008661 0.61401367 11.27612305 C-0.02213867 10.79014648 -0.65829102 10.30416992 -1.3137207 9.8034668 C-2.8745301 8.60645508 -4.41378916 7.38143506 -5.94848633 6.15112305 C-3.19355055 0.24768924 -3.19355055 0.24768924 0 0 Z " fill="#89817C" transform="translate(387.948486328125,695.848876953125)"/>
<path d="M0 0 C0 1.32 0 2.64 0 4 C-19.02496648 9.48354369 -36.6423027 12.16775448 -56.53515625 12.1328125 C-57.77510849 12.13376923 -59.01506073 12.13472595 -60.29258728 12.13571167 C-62.89842785 12.13638714 -65.50427016 12.13457745 -68.11010742 12.13037109 C-72.02852305 12.12504617 -75.94682239 12.13032134 -79.86523438 12.13671875 C-116.46123488 12.14772254 -116.46123488 12.14772254 -130 10 C-130 8.02 -130 6.04 -130 4 C-127.27076141 3.97243193 -124.54181461 3.95289501 -121.8125 3.9375 C-121.06291016 3.92912109 -120.31332031 3.92074219 -119.54101562 3.91210938 C-115.14835483 3.89373004 -110.84649123 4.08310529 -106.47265625 4.4921875 C-96.68856937 5.29484142 -86.87675774 5.18600101 -77.06591797 5.18530273 C-73.66751256 5.18747285 -70.26944132 5.20563383 -66.87109375 5.22460938 C-47.90904603 5.27385429 -29.21113692 4.34664966 -10.59375 0.5859375 C-6.99509556 -0.00079964 -3.63902725 -0.1031683 0 0 Z " fill="#9C9591" transform="translate(524,647)"/>
<path d="M0 0 C9.83068953 0.26145451 18.76749019 1.44406758 28.25390625 4.02734375 C31.57404054 4.88940156 34.79734821 5.50551005 38.1875 6 C48.01300168 7.52900229 57.16289876 10.88477081 66.24609375 14.8515625 C69.12472606 16.05201342 72.0313007 17.04686827 75 18 C75 18.66 75 19.32 75 20 C76.00740234 20.28617187 76.00740234 20.28617187 77.03515625 20.578125 C81.21333335 22.58188846 84.12465187 25.55275475 87.4375 28.75 C88.08009766 29.3584375 88.72269531 29.966875 89.38476562 30.59375 C93.32015477 34.33336852 97.17618305 38.14663269 101 42 C100.505 42.99 100.505 42.99 100 44 C95.96069307 41.71105941 92.37420877 39.00631849 88.75 36.125 C75.21011282 25.61100794 60.95962022 20.51633232 44.1875 17.5 C28.94863038 14.7560588 12.5639039 11.73012917 0 2 C0 1.34 0 0.68 0 0 Z " fill="#DCD7D4" transform="translate(485,341)"/>
<path d="M0 0 C3.97523208 1.619539 6.49485141 3.49107612 9 7 C9.71650801 11.3823264 9.61182264 15.69541823 9.5 20.125 C9.4808252 21.38022461 9.46165039 22.63544922 9.44189453 23.92871094 C9.08450231 39.01645803 7.20097317 52.51818676 1.40234375 66.484375 C0.02028126 69.94915561 -1.00476668 73.40831352 -2 77 C-2.495 77.99 -2.495 77.99 -3 79 C-3.66 79 -4.32 79 -5 79 C-4.90634725 72.20860135 -4.798899 65.41751332 -4.68261719 58.62646484 C-4.64473682 56.32442967 -4.6098193 54.02234349 -4.578125 51.72021484 C-4.33472247 34.24847727 -3.55253115 17.15796959 0 0 Z " fill="#9F9792" transform="translate(595,423)"/>
<path d="M0 0 C0.90540527 0.24907104 0.90540527 0.24907104 1.82910156 0.50317383 C17.8695071 4.92407389 17.8695071 4.92407389 34 9 C32.50114631 16.18472257 28.42827313 22.19210094 23 27 C23 26.01 23 25.02 23 24 C22.319375 23.87625 21.63875 23.7525 20.9375 23.625 C17.5722588 22.90899123 14.29986575 21.97054875 11 21 C10.773125 21.639375 10.54625 22.27875 10.3125 22.9375 C9 25 9 25 6.6875 26 C4 26 4 26 1.3125 24.375 C-2.78255956 20.16926316 -3.29251409 16.186779 -3.3125 10.4375 C-3.32925781 9.32246094 -3.34601563 8.20742188 -3.36328125 7.05859375 C-2.96272698 3.68618524 -2.09572967 2.5660653 0 0 Z " fill="#93BED8" transform="translate(434,472)"/>
<path d="M0 0 C0.66 0 1.32 0 2 0 C1.5875 1.19625 1.175 2.3925 0.75 3.625 C-2.21536457 12.5350156 -4.64284272 21.60088979 -7 30.6875 C-8.15577489 35.08397703 -9.42723458 39.32200185 -11.0625 43.5625 C-13.10151507 48.90889385 -14.26616415 54.33082077 -15.38671875 59.93359375 C-15.72224374 61.61121868 -16.07690521 63.28697613 -16.51976013 64.93951416 C-17.00242817 67.01041817 -17.19378617 68.91240945 -17.29711914 71.03417969 C-17.33708511 71.81468689 -17.37705109 72.59519409 -17.41822815 73.39935303 C-17.45681442 74.23178528 -17.4954007 75.06421753 -17.53515625 75.921875 C-17.57813339 76.78186096 -17.62111053 77.64184692 -17.66539001 78.52789307 C-17.80148913 81.26842665 -17.93206538 84.00919155 -18.0625 86.75 C-18.15393266 88.61069502 -18.24572531 90.47137238 -18.33789062 92.33203125 C-18.56276805 96.8878267 -18.78269344 101.4438374 -19 106 C-22.68784838 99.1142751 -23.30679728 91.81868569 -23.265625 84.125 C-23.26753845 83.31562988 -23.2694519 82.50625977 -23.27142334 81.67236328 C-23.27277376 79.9749317 -23.26915803 78.27748938 -23.26074219 76.58007812 C-23.25002611 74.00627072 -23.26067655 71.43316112 -23.2734375 68.859375 C-23.2721157 67.19791515 -23.26955289 65.53645573 -23.265625 63.875 C-23.26967346 63.11848145 -23.27372192 62.36196289 -23.27789307 61.58251953 C-23.23119951 56.16785709 -22.33110023 51.23815617 -21 46 C-20.70480469 44.74316406 -20.40960938 43.48632812 -20.10546875 42.19140625 C-18.42323421 35.54121098 -16.58498501 29.38659582 -13.24609375 23.34375 C-11.88795315 20.88112075 -11.88795315 20.88112075 -10.6328125 17.68359375 C-8.95919565 13.71242628 -6.7781719 10.17087674 -4.4375 6.5625 C-3.83905273 5.60827148 -3.83905273 5.60827148 -3.22851562 4.63476562 C-2.20977651 3.05138313 -1.11104081 1.52003876 0 0 Z " fill="#282624" transform="translate(343,356)"/>
<path d="M0 0 C0.78761719 0.07863281 1.57523437 0.15726563 2.38671875 0.23828125 C3.33998047 0.46064453 3.33998047 0.46064453 4.3125 0.6875 C4.8075 1.6775 4.8075 1.6775 5.3125 2.6875 C4.55195313 2.90148437 3.79140625 3.11546875 3.0078125 3.3359375 C-0.49909693 5.09447469 -1.17883385 6.78628071 -2.8125 10.3125 C-3.31910156 11.39789062 -3.82570313 12.48328125 -4.34765625 13.6015625 C-5.62915953 16.55312982 -6.83121805 19.4967465 -7.8984375 22.53125 C-9.65018202 27.31819542 -11.70733299 31.99145175 -13.6875 36.6875 C-12.0375 37.3475 -10.3875 38.0075 -8.6875 38.6875 C-9.6775 39.1825 -9.6775 39.1825 -10.6875 39.6875 C-13.22209617 38.80053819 -15.65673115 37.85739274 -18.125 36.8125 C-23.35800372 34.6242522 -23.35800372 34.6242522 -28.6875 32.6875 C-27.8125 26.9375 -27.8125 26.9375 -26.6875 24.6875 C-26.0275 24.6875 -25.3675 24.6875 -24.6875 24.6875 C-24.51734375 23.61435547 -24.51734375 23.61435547 -24.34375 22.51953125 C-22.22765345 13.38756698 -16.35737703 5.90301638 -8.6875 0.6875 C-5.67476286 -0.42370679 -3.17113682 -0.35118375 0 0 Z " fill="#88827F" transform="translate(369.6875,584.3125)"/>
<path d="M0 0 C1.50240234 0.02320313 1.50240234 0.02320313 3.03515625 0.046875 C5.7525822 0.23705824 8.284436 0.64636709 10.9375 1.25 C11.10802933 4.44230902 10.98046041 7.21066587 9.9375 10.25 C7.25759456 12.44091796 4.21650548 13.2500196 0.9375 14.25 C-0.10535156 14.61996094 -1.14820313 14.98992187 -2.22265625 15.37109375 C-10.42106401 18.25 -10.42106401 18.25 -14.0625 18.25 C-14.0625 18.91 -14.0625 19.57 -14.0625 20.25 C-16.55850303 21.24052547 -19.05854797 22.21744057 -21.5625 23.1875 C-22.60664062 23.60418945 -22.60664062 23.60418945 -23.671875 24.02929688 C-28.50441767 25.88624614 -32.90317888 26.79100634 -38.0625 27.25 C-32.05622133 20.07176451 -25.89184699 13.74898209 -18.5 8 C-17.95786865 7.57549561 -17.4157373 7.15099121 -16.85717773 6.71362305 C-11.37883901 2.53368131 -7.00152103 -0.18068441 0 0 Z " fill="#7B6D68" transform="translate(567.0625,428.75)"/>
<path d="M0 0 C3.12232073 0.76154164 5.03239571 2.15270002 7.5234375 4.140625 C9.78335775 5.78577767 12.17461411 7.09778205 14.60888672 8.46484375 C18.19780656 10.59612931 21.55042745 13.06536295 24.9375 15.5 C26.43296317 16.56598935 27.92905154 17.63110219 29.42578125 18.6953125 C30.13686035 19.20094727 30.84793945 19.70658203 31.58056641 20.22753906 C35.18907182 22.77189543 38.86002465 25.21997328 42.5625 27.625 C41.5725 28.12 41.5725 28.12 40.5625 28.625 C38.72183618 27.93179093 36.88329476 27.23248262 35.05517578 26.50683594 C30.16759093 24.77775107 25.05927368 23.8467861 20 22.75 C10.26458307 20.57718362 0.92922542 18.04459817 -8.4375 14.625 C-10.43565076 13.95281104 -12.43511487 13.28446816 -14.4375 12.625 C-5.27704074 1.35308737 -5.27704074 1.35308737 0 0 Z " fill="#8E7E79" transform="translate(414.4375,432.375)"/>
<path d="M0 0 C1.92960571 0.24447876 1.92960571 0.24447876 3.89819336 0.49389648 C8.8247557 1.03915505 13.67670329 1.12850688 18.62890625 1.09765625 C19.94156715 1.09553383 19.94156715 1.09553383 21.28074646 1.09336853 C24.04136762 1.08782719 26.80190388 1.07528612 29.5625 1.0625 C31.44856653 1.0574774 33.33463434 1.05291583 35.22070312 1.04882812 C39.81383417 1.03787707 44.40690275 1.02065384 49 1 C49.99 4.3 50.98 7.6 52 11 C34.12176642 13.64135075 16.8060602 13.08239361 -1 10 C-1.125 2.25 -1.125 2.25 0 0 Z " fill="#605A57" transform="translate(380,726)"/>
<path d="M0 0 C7.29483419 0.99701606 15.86293546 2.90862364 22 7 C29.8121682 9.08233752 37.96324448 9.51447264 46 10 C46.02689216 11.47906892 46.04634621 12.95827483 46.0625 14.4375 C46.07410156 15.26121094 46.08570313 16.08492187 46.09765625 16.93359375 C46 19 46 19 45 20 C36.94617617 20.75333064 29.62140936 19.30255178 21.875 17.25 C20.85535156 16.99734375 19.83570313 16.7446875 18.78515625 16.484375 C11.03317332 14.49413548 4.12615046 11.58395845 -3 8 C-1.125 1.125 -1.125 1.125 0 0 Z " fill="#776F6B" transform="translate(334,628)"/>
<path d="M0 0 C6.85921925 1.61191652 13.46207289 3.35968328 20 6 C19.42655063 8.86724686 19.1385485 9.8614515 17 12 C13.77208445 14.1519437 12.71599191 14.20086443 9 14 C9.33 15.98 9.66 17.96 10 20 C10.99 20 11.98 20 13 20 C11.00513584 25.80324119 8.15844939 31.56103374 3 35 C0.66800612 35.07905064 -1.66832622 35.08798769 -4 35 C-4.44687143 27.81695547 -3.35720858 21.48499495 -1.734375 14.49609375 C-0.72426932 9.68734597 -0.28992622 4.89875329 0 0 Z " fill="#3B3837" transform="translate(323,577)"/>
<path d="M0 0 C0.66 0 1.32 0 2 0 C0.84833447 8.78144963 -3.00735705 15.87166387 -9.91796875 21.5859375 C-15.15268964 24.62963089 -21.10395626 25.06218803 -27 24 C-30.64342875 22.10222996 -32.73009455 19.40485817 -35 16 C-35 14.68 -35 13.36 -35 12 C-32.3349556 11.03694987 -29.66811249 10.07948284 -27 9.125 C-26.25621094 8.85558594 -25.51242187 8.58617187 -24.74609375 8.30859375 C-19.87704757 6.57267294 -15.03374074 5.17835295 -10 4 C-9.5875 4.639375 -9.175 5.27875 -8.75 5.9375 C-6.99276136 8.41464576 -6.99276136 8.41464576 -3 9 C-2.01 6.03 -1.02 3.06 0 0 Z " fill="#F9EAE6" transform="translate(564,476)"/>
<path d="M0 0 C3.99375018 -0.49921877 6.62441422 -0.82233373 10.13671875 1.27734375 C15.58600203 5.8547417 19.73942829 11.21828487 22 18 C22.75464812 29.36920694 22.54715325 40.17927013 16 50 C12.375 50.1875 12.375 50.1875 9 50 C9.28609307 48.60301364 9.57916905 47.2074567 9.875 45.8125 C10.03742187 45.03519531 10.19984375 44.25789062 10.3671875 43.45703125 C11 41 11 41 12.0390625 38.703125 C14.94831225 30.51938179 14.08346789 20.07111967 10.4375 12.3125 C7.63624657 7.44540574 4.48927473 4.3220633 0 1 C0 0.67 0 0.34 0 0 Z " fill="#BDB9B6" transform="translate(508,586)"/>
<path d="M0 0 C5.55441072 0.9364461 9.04683183 4.18273136 12.75 8.25 C14.89553377 11.46830065 15.04583868 12.51786507 15.0625 16.25 C15.07925781 17.11625 15.09601563 17.9825 15.11328125 18.875 C14.75 21.25 14.75 21.25 13.47265625 23.0703125 C10.92004014 24.81836253 8.67615704 24.26292813 5.7421875 23.7578125 C0.58920673 22.4443076 -2.27951769 19.54069667 -5.25 15.25 C-5.25 14.59 -5.25 13.93 -5.25 13.25 C-5.91 13.25 -6.57 13.25 -7.25 13.25 C-8.68160127 6.21129374 -8.68160127 6.21129374 -6.875 2.1875 C-4.05499864 0.10607043 -3.36020942 -0.11045671 0 0 Z " fill="#9B948F" transform="translate(495.25,279.75)"/>
<path d="M0 0 C12.79743976 0.94427711 12.79743976 0.94427711 17.8125 5.625 C20.73966972 9.32055177 20.39373801 12.43263907 20 17 C15.24583878 16.50506533 12.44779417 15.27876594 8.625 12.4375 C7.75101562 11.79683594 6.87703125 11.15617188 5.9765625 10.49609375 C5.32429688 10.00238281 4.67203125 9.50867188 4 9 C7.92857553 15.34261862 7.92857553 15.34261862 12.9375 20.8125 C13.9584375 21.8953125 13.9584375 21.8953125 15 23 C14.8125 25.3125 14.8125 25.3125 14 27 C11.828125 27.76953125 11.828125 27.76953125 9 28 C6.359375 26.19921875 6.359375 26.19921875 3.75 23.6875 C2.87859375 22.86636719 2.0071875 22.04523437 1.109375 21.19921875 C-2.4169081 17.52274211 -2.16159516 15.08285708 -2.1875 10.0625 C-2.20167969 8.81597656 -2.21585937 7.56945312 -2.23046875 6.28515625 C-2 3 -2 3 0 0 Z " fill="#C9B3AB" transform="translate(361,664)"/>
<path d="M0 0 C4.39342272 0.59142229 6.18361525 2.30142468 9.25 5.4375 C11.76818192 9.59797448 11.16577017 12.76707215 10.25 17.4375 C10.889375 16.7775 11.52875 16.1175 12.1875 15.4375 C23.97205965 3.71970839 23.97205965 3.71970839 31.25 0.4375 C33.44921875 0.84765625 33.44921875 0.84765625 35.25 1.4375 C34.6209375 1.91058594 33.991875 2.38367188 33.34375 2.87109375 C23.99594357 10.0931189 17.29589015 17.91910501 11.13061523 27.91650391 C10.19210679 29.4371093 9.22391875 30.9393274 8.25 32.4375 C7.92 32.4375 7.59 32.4375 7.25 32.4375 C7.84619955 27.56853697 8.81976822 23.10959049 10.25 18.4375 C8.6721875 18.5303125 8.6721875 18.5303125 7.0625 18.625 C2.18298097 18.38502365 -0.00603382 17.00105588 -3.5625 13.8125 C-5.37248679 10.19252642 -5.34114845 6.41431684 -4.75 2.4375 C-2.75 0.4375 -2.75 0.4375 0 0 Z " fill="#7D7773" transform="translate(291.75,299.5625)"/>
<path d="M0 0 C0 4.95 0 9.9 0 15 C-6.47990359 18.47994823 -13.50312314 22 -21 22 C-21.34018163 20.29301718 -21.6718089 18.58432867 -22 16.875 C-22.185625 15.92367187 -22.37125 14.97234375 -22.5625 13.9921875 C-23.00725046 10.95041204 -23.07286471 8.06942607 -23 5 C-21.95199219 4.72285156 -20.90398438 4.44570313 -19.82421875 4.16015625 C-18.44529933 3.79432048 -17.0663938 3.42843233 -15.6875 3.0625 C-14.65206055 2.78889648 -14.65206055 2.78889648 -13.59570312 2.50976562 C-4.14985795 0 -4.14985795 0 0 0 Z " fill="#79716D" transform="translate(534,660)"/>
<path d="M0 0 C-0.51599184 7.8822202 -2.0921453 15.34458305 -4 23 C-4.33 22.01 -4.66 21.02 -5 20 C-4.67 19.34 -4.34 18.68 -4 18 C-4.66 18 -5.32 18 -6 18 C-6.12375 18.928125 -6.2475 19.85625 -6.375 20.8125 C-7 24 -7 24 -9 27 C-11.25 27 -11.25 27 -14 26 C-17.89451238 21.23451041 -18.4162299 16.16518155 -18.23828125 10.19921875 C-18 8 -18 8 -17 5 C-14.50638252 3.95485926 -12.13580564 3.09898584 -9.5625 2.3125 C-8.86833984 2.08755859 -8.17417969 1.86261719 -7.45898438 1.63085938 C-2.33838336 0 -2.33838336 0 0 0 Z " fill="#95B9CF" transform="translate(570,458)"/>
<path d="M0 0 C3.39756226 1.45609811 5.74310036 3.04677028 8 6 C9.80038287 16.8022972 7.2717608 26.09413307 3 36 C2.52304687 37.16789062 2.04609375 38.33578125 1.5546875 39.5390625 C0.39420103 42.37064948 -0.79022636 45.18920678 -2 48 C-2.33 48 -2.66 48 -3 48 C-3.02953391 44.08334973 -3.04697503 40.16672887 -3.0625 36.25 C-3.07087891 35.15816406 -3.07925781 34.06632812 -3.08789062 32.94140625 C-3.11588989 23.47765395 -2.77466412 14.0582982 -0.9375 4.75 C-0.67259766 3.38101562 -0.67259766 3.38101562 -0.40234375 1.984375 C-0.26957031 1.32953125 -0.13679687 0.6746875 0 0 Z " fill="#A9A19C" transform="translate(595,423)"/>
<path d="M0 0 C1.11181641 0.09087891 1.11181641 0.09087891 2.24609375 0.18359375 C11.49093014 0.91910705 20.74095913 1.47883243 30 2 C30 2.66 30 3.32 30 4 C30.66 4 31.32 4 32 4 C32.42925781 4.50144531 32.85851562 5.00289062 33.30078125 5.51953125 C34.93639221 7.26046094 34.93639221 7.26046094 37.48046875 7.07421875 C38.37378906 6.94660156 39.26710938 6.81898438 40.1875 6.6875 C41.08855469 6.56761719 41.98960937 6.44773437 42.91796875 6.32421875 C43.60503906 6.21722656 44.29210937 6.11023438 45 6 C47.475 9.465 47.475 9.465 50 13 C48.54658873 16.75464579 48.54658873 16.75464579 46.25195312 17.78466797 C43.09930944 18.08612414 41.48217443 17.01915126 38.71875 15.5078125 C37.71199219 14.96769531 36.70523438 14.42757812 35.66796875 13.87109375 C34.62253906 13.29488281 33.57710938 12.71867188 32.5 12.125 C30.4290947 10.99889736 28.35625238 9.87634772 26.28125 8.7578125 C25.36408203 8.2539502 24.44691406 7.75008789 23.50195312 7.23095703 C20.01484439 5.51530498 18.08737242 4.68594033 14.30859375 5.77734375 C12.88740234 6.35162109 12.88740234 6.35162109 11.4375 6.9375 C6.28474576 9 6.28474576 9 3 9 C3 9.66 3 10.32 3 11 C2.01 11 1.02 11 0 11 C0 10.34 0 9.68 0 9 C-1.32 8.67 -2.64 8.34 -4 8 C-2.35 7.67 -0.7 7.34 1 7 C1.15149298 3.37114676 1.15149298 3.37114676 0 0 Z " fill="#9E9793" transform="translate(400,699)"/>
<path d="M0 0 C2.17578125 1.20703125 2.17578125 1.20703125 4.3125 2.8125 C15.67816775 10.81755502 29.51836938 11.44571398 42.9453125 9.3984375 C48.42836345 8.24594908 53.70317483 6.82923392 59 5 C58 8 58 8 55.05078125 9.75390625 C53.80974262 10.36710969 52.56335871 10.96958532 51.3125 11.5625 C50.69955078 11.86607422 50.08660156 12.16964844 49.45507812 12.48242188 C38.17797374 17.97148965 28.30292599 18.1538565 16.1875 15.125 C11.78225936 13.57020919 8.15437017 11.28839418 4.33984375 8.62109375 C-0.35824099 5.36616025 -3.20773384 4.77722053 -9 5 C-9 4.01 -9 3.02 -9 2 C-5.83842169 0.12647211 -3.65985014 -0.33221854 0 0 Z " fill="#2F2C29" transform="translate(468,536)"/>
<path d="M0 0 C5.14390023 0.64298753 9.57829107 1.27614426 14.5 2.5625 C15.5415625 2.83191406 16.583125 3.10132813 17.65625 3.37890625 C18.81640625 3.68634766 18.81640625 3.68634766 20 4 C18.50114631 11.18472257 14.42827313 17.19210094 9 22 C9 21.01 9 20.02 9 19 C8.29875 18.87625 7.5975 18.7525 6.875 18.625 C3.86038936 17.96964986 0.9267089 16.97556963 -2 16 C-1.34 10.72 -0.68 5.44 0 0 Z " fill="#D5C9C5" transform="translate(448,477)"/>
<path d="M0 0 C9.06335876 -0.10234659 17.98175113 -0.06996173 27 1 C27 1.33 27 1.66 27 2 C22.05 2 17.1 2 12 2 C12.33 7.61 12.66 13.22 13 19 C17.29 19.33 21.58 19.66 26 20 C26 20.33 26 20.66 26 21 C16.71854592 21.22823248 8.13029973 20.90427108 -1 19 C-1.10349817 12.58311325 -0.74507544 6.37305598 0 0 Z " fill="#4F4A47" transform="translate(402,668)"/>
<path d="M0 0 C5.30222933 1.56459226 8.04449369 4.38101278 10.8125 9.125 C11.56455295 12.22518951 11.37069944 13.88744325 10.8125 17.125 C7.8125 19.125 7.8125 19.125 4.4375 19.0625 C-0.53969754 17.77529374 -2.59690229 15.29399687 -5.5625 11.25 C-6.51744695 8.00318037 -5.91178195 5.38426877 -5.1875 2.125 C-3.1875 0.125 -3.1875 0.125 0 0 Z " fill="#7E7874" transform="translate(279.1875,359.875)"/>
<path d="M0 0 C5.00407143 0.65627166 7.46366199 2.84844217 10.8125 6.5 C12.33741998 9.54983996 12.04812548 12.1423369 11.8125 15.5 C10.6875 17.4375 10.6875 17.4375 8.8125 18.5 C6 19.0625 6 19.0625 2.8125 18.5 C0.4796865 16.77022672 -1.4732474 14.84645924 -3.1875 12.5 C-3.1875 11.84 -3.1875 11.18 -3.1875 10.5 C-3.8475 10.5 -4.5075 10.5 -5.1875 10.5 C-5.3828125 4.4453125 -5.3828125 4.4453125 -5.1875 2.5 C-3.1875 0.5 -3.1875 0.5 0 0 Z " fill="#7E7874" transform="translate(323.1875,344.5)"/>
<path d="M0 0 C1.79244141 0.23009766 1.79244141 0.23009766 3.62109375 0.46484375 C10.08534064 1.1830934 16.56549882 1.35180512 23.0625 1.5625 C24.93325195 1.62727539 24.93325195 1.62727539 26.84179688 1.69335938 C29.89444091 1.79862296 32.94715523 1.90075941 36 2 C36 2.33 36 2.66 36 3 C31.05 3 26.1 3 21 3 C21 5.97 21 8.94 21 12 C18.08302989 11.85895309 15.1665198 11.71235186 12.25 11.5625 C11.0125 11.50352539 11.0125 11.50352539 9.75 11.44335938 C8.95078125 11.40146484 8.1515625 11.35957031 7.328125 11.31640625 C6.5949707 11.27974854 5.86181641 11.24309082 5.10644531 11.20532227 C2.98822395 10.99885215 1.0480544 10.56867914 -1 10 C-1.125 2.25 -1.125 2.25 0 0 Z " fill="#484441" transform="translate(380,726)"/>
<path d="M0 0 C4.72272672 0 7.86086365 0.38074027 11.5 3.5 C14.4569116 6.81045538 14.58228134 9.73410712 14.40625 14.046875 C14 16 14 16 12 18 C8.82107291 18.5914283 6.83776298 18.54198136 4.0859375 16.76171875 C-0.74922986 12.75231043 -0.74922986 12.75231043 -2 9 C-2.1875 5.4375 -2.1875 5.4375 -2 2 C-1.34 1.34 -0.68 0.68 0 0 Z " fill="#7D7773" transform="translate(321,470)"/>
<path d="M0 0 C-1.56420026 2.38746356 -2.73156876 3.85087153 -5.25 5.25 C-9.29350619 7.8231403 -11.9982083 11.3013638 -15 15 C-15.7425 15.91265625 -15.7425 15.91265625 -16.5 16.84375 C-22.03801728 23.94685912 -27.12885141 31.86268766 -31 40 C-31.33 40 -31.66 40 -32 40 C-31.17642379 27.23456879 -26.08758383 16.49502573 -16.6875 7.75 C-5.38335129 -1.79445043 -5.38335129 -1.79445043 0 0 Z " fill="#2D2B29" transform="translate(372,257)"/>
<path d="M0 0 C1.31097656 1.02480469 1.31097656 1.02480469 2.6484375 2.0703125 C3.62683594 2.96363281 3.62683594 2.96363281 4.625 3.875 C4.625 4.535 4.625 5.195 4.625 5.875 C0.77875498 5.14911552 -2.39174529 3.43298051 -5.875 1.6875 C-11.9925119 -1.26112385 -18.19001985 -3.53234155 -24.6875 -5.5 C-25.49832031 -5.75031982 -26.30914063 -6.00063965 -27.14453125 -6.25854492 C-32.25604151 -7.75061219 -37.11114655 -8.50859766 -42.43041992 -8.80322266 C-43.07213135 -8.90940918 -43.71384277 -9.0155957 -44.375 -9.125 C-44.705 -9.785 -45.035 -10.445 -45.375 -11.125 C-28.12527213 -14.26131416 -13.72531302 -10.84011209 0 0 Z " fill="#2E2C29" transform="translate(555.375,327.125)"/>
<path d="M0 0 C2.88795553 0.96964024 3.80975749 1.74891742 6 4 C7 6.625 7 6.625 7 9 C4.26053485 11.73946515 2.63379385 11.29930796 -1.1875 11.3125 C-6.58009431 11.21097829 -10.50507152 11.06472396 -15 8 C-15.9375 4.8125 -15.9375 4.8125 -16 2 C-11.11558374 -1.25627751 -5.70907283 -0.56740478 0 0 Z " fill="#C2BDBA" transform="translate(463,592)"/>
<path d="M0 0 C4.95002347 0.10919169 9.68905928 1.14584967 14.5 2.25 C13.51 2.91 12.52 3.57 11.5 4.25 C11.83 4.58 12.16 4.91 12.5 5.25 C12.6875 7.6875 12.6875 7.6875 12.5 10.25 C11.84 10.91 11.18 11.57 10.5 12.25 C10.5 13.24 10.5 14.23 10.5 15.25 C7.00711845 16.48455296 7.00711845 16.48455296 4.76074219 15.44555664 C4.19516602 15.02137451 3.62958984 14.59719238 3.046875 14.16015625 C2.428125 13.70576172 1.809375 13.25136719 1.171875 12.78320312 C0.53765625 12.29787109 -0.0965625 11.81253906 -0.75 11.3125 C-1.3996875 10.83103516 -2.049375 10.34957031 -2.71875 9.85351562 C-4.32095394 8.66364358 -5.91162434 7.45826972 -7.5 6.25 C-4.74137931 0.33866995 -4.74137931 0.33866995 0 0 Z " fill="#948E8A" transform="translate(389.5,695.75)"/>
<path d="M0 0 C6.32111254 0.86393338 13.07719043 2.64967874 19 5 C19.33 5.66 19.66 6.32 20 7 C19.01 7 18.02 7 17 7 C16.34 9.64 15.68 12.28 15 15 C8.38223191 13.42035192 2.73760939 11.69757049 -3 8 C-1.125 1.125 -1.125 1.125 0 0 Z " fill="#645D5A" transform="translate(334,628)"/>
<path d="M0 0 C1.98 0 3.96 0 6 0 C11.54455446 15.79207921 11.54455446 15.79207921 10 23 C8.84765625 24.7734375 8.84765625 24.7734375 7 26 C3.8125 26.1875 3.8125 26.1875 1 26 C1.00523682 25.42556152 1.01047363 24.85112305 1.01586914 24.25927734 C1.03678576 21.63119623 1.04970659 19.00313271 1.0625 16.375 C1.07087891 15.47136719 1.07925781 14.56773437 1.08789062 13.63671875 C1.10491895 8.97095711 0.96829423 4.58986715 0 0 Z " fill="#9C9692" transform="translate(491,697)"/>
<path d="M0 0 C2.70587546 0.91980299 5.34152528 1.94577727 8 3 C7.34 3.66 6.68 4.32 6 5 C5.01 5 4.02 5 3 5 C3 5.66 3 6.32 3 7 C0.50399697 7.99052547 -1.99604797 8.96744057 -4.5 9.9375 C-5.19609375 10.21529297 -5.8921875 10.49308594 -6.609375 10.77929688 C-11.44191767 12.63624614 -15.84067888 13.54100634 -21 14 C-7.82982792 -1.73996176 -7.82982792 -1.73996176 0 0 Z " fill="#8D7E79" transform="translate(550,442)"/>
<path d="M0 0 C1.98 0 3.96 0 6 0 C10.88476217 8.19942221 12.91509904 14.44229897 12 24 C10.02 24 8.04 24 6 24 C4 16 2 8 0 0 Z " fill="#9B9490" transform="translate(479,699)"/>
<path d="M0 0 C-0.30893932 1.6256807 -0.6222695 3.25052748 -0.9375 4.875 C-1.19853516 6.23238281 -1.19853516 6.23238281 -1.46484375 7.6171875 C-2 10 -2 10 -3 12 C-13.55808656 11.03644647 -13.55808656 11.03644647 -18 10 C-18.33 8.02 -18.66 6.04 -19 4 C-16.39688008 3.32900016 -13.79264602 2.66304662 -11.1875 2 C-10.44951172 1.80921875 -9.71152344 1.6184375 -8.95117188 1.421875 C-5.89464659 0.64737086 -3.16626522 0 0 0 Z " fill="#C6C2C0" transform="translate(527,690)"/>
<path d="M0 0 C-0.6290625 0.47308594 -1.258125 0.94617188 -1.90625 1.43359375 C-11.25405643 8.6556189 -17.95410985 16.48160501 -24.11938477 26.47900391 C-25.05789321 27.9996093 -26.02608125 29.5018274 -27 31 C-27.33 31 -27.66 31 -28 31 C-27.61580398 22.54768761 -23.50937387 14.26651242 -17.75 8.125 C-6.14140947 -2.37185469 -6.14140947 -2.37185469 0 0 Z " fill="#2A2826" transform="translate(327,301)"/>
<path d="M0 0 C0.87011719 -0.00644531 1.74023438 -0.01289063 2.63671875 -0.01953125 C9.31970092 0.23243038 14.04267091 3.70802131 19 8 C19.66 8.99 20.32 9.98 21 11 C19.865625 10.5875 18.73125 10.175 17.5625 9.75 C4.79624977 5.54794271 -7.59448262 3.36084838 -21 3 C-14.58356244 -1.27762504 -7.40859641 -0.14496739 0 0 Z " fill="#33312E" transform="translate(472,257)"/>
<path d="M0 0 C9.48839486 -0.38408795 17.84802826 0.44596137 27 3 C24.43731026 5.56268974 22.20609823 6.05976424 18.75 7.125 C17.63109375 7.47820313 16.5121875 7.83140625 15.359375 8.1953125 C12.04118713 8.99013424 9.39124973 9.36543639 6 9 C3.75 6.1875 3.75 6.1875 2 3 C1.34 2.01 0.68 1.02 0 0 Z " fill="#C0ABA4" transform="translate(385,578)"/>
<path d="M0 0 C3.98619959 1.52624759 5.78204105 3.96556041 8.25 7.375 C8.95640625 8.33148438 9.6628125 9.28796875 10.390625 10.2734375 C12 13 12 13 12 17 C4.67002519 16.51133501 4.67002519 16.51133501 1.625 14.1875 C-1.48118763 10.00609358 -2.46229235 7.31636205 -2 2 C-1.34 1.34 -0.68 0.68 0 0 Z " fill="#7F7975" transform="translate(440,321)"/>
<path d="M0 0 C18.71897312 -0.38029517 18.71897312 -0.38029517 27 2 C27 2.66 27 3.32 27 4 C27.78117187 3.75443359 27.78117187 3.75443359 28.578125 3.50390625 C31.6756875 2.85941341 34.58841094 2.90588411 37.75 2.9375 C39.50570312 2.95103516 39.50570312 2.95103516 41.296875 2.96484375 C42.18890625 2.97644531 43.0809375 2.98804688 44 3 C44.56640625 4.88671875 44.56640625 4.88671875 45 7 C43.9375 8.8125 43.9375 8.8125 42 10 C38.8125 9.6875 38.8125 9.6875 36 9 C35.505 7.515 35.505 7.515 35 6 C31.43143288 4.81047763 28.03413854 4.68691028 24.3125 4.5 C8.61220121 3.61220121 8.61220121 3.61220121 7 2 C4.67182036 1.63239269 2.3381615 1.29758419 0 1 C0 0.67 0 0.34 0 0 Z " fill="#76706B" transform="translate(397,697)"/>
<path d="M0 0 C2.5625 0.3125 2.5625 0.3125 4.375 1.4375 C6.11448782 4.18405972 5.96019128 6.13096974 5.5625 9.3125 C4.5 11.25 4.5 11.25 2.5625 12.3125 C-3.88194444 11.86805556 -3.88194444 11.86805556 -5.4375 10.3125 C-4.66652961 0.59827303 -4.66652961 0.59827303 0 0 Z " fill="#C1BDBA" transform="translate(507.4375,617.6875)"/>
<path d="M0 0 C0.78375 0.04125 1.5675 0.0825 2.375 0.125 C2.45576963 2.58398655 2.51537143 5.04033742 2.5625 7.5 C2.60020508 8.54800781 2.60020508 8.54800781 2.63867188 9.6171875 C2.66796875 11.6484375 2.66796875 11.6484375 2.375 15.125 C-0.625 17.125 -0.625 17.125 -3.625 17.125 C-4.58828543 13.87294841 -4.78968233 10.88614248 -4.8125 7.5 C-4.82667969 6.53835938 -4.84085938 5.57671875 -4.85546875 4.5859375 C-4.52116183 1.01621957 -3.56595025 0.16980715 0 0 Z " fill="#9D938E" transform="translate(531.625,659.875)"/>
<path d="M0 0 C0 0.66 0 1.32 0 2 C0.99 2 1.98 2 3 2 C3.09765625 8.15234375 3.09765625 8.15234375 3 10 C2 11 2 11 -0.03125 11.1328125 C-0.8459375 11.13023437 -1.660625 11.12765625 -2.5 11.125 C-3.3146875 11.12757813 -4.129375 11.13015625 -4.96875 11.1328125 C-7 11 -7 11 -8 10 C-8.4626087 3.75478261 -8.4626087 3.75478261 -6.8125 1.0625 C-4.43958382 -0.32851983 -2.70313576 -0.21917317 0 0 Z " fill="#B2ACA9" transform="translate(413,602)"/>
<path d="M0 0 C4.01315542 3.63095014 6.12313215 7.99501908 8 13 C8.37125 13.928125 8.7425 14.85625 9.125 15.8125 C9.41375 16.534375 9.7025 17.25625 10 18 C9.01 18 8.02 18 7 18 C6.67 19.32 6.34 20.64 6 22 C3.125 21.6875 3.125 21.6875 0 21 C-0.66 20.01 -1.32 19.02 -2 18 C0.31 18.33 2.62 18.66 5 19 C2.99021577 13.44353771 0.16530853 9.38826508 -3.57421875 4.8203125 C-5 3 -5 3 -5 2 C-3.35 2 -1.7 2 0 2 C0 1.34 0 0.68 0 0 Z " fill="#948D88" transform="translate(447,319)"/>
<path d="M0 0 C5.94 0 11.88 0 18 0 C16.68 0.33 15.36 0.66 14 1 C14.33 2.98 14.66 4.96 15 7 C9.84828377 7.09038099 5.08086796 6.84681133 0 6 C0 4.02 0 2.04 0 0 Z " fill="#756C68" transform="translate(394,651)"/>
<path d="M0 0 C1.485 2.97 1.485 2.97 3 6 C-5.1322276 9.12777985 -13.45462126 9.14931336 -22.0625 9.0625 C-23.3609082 9.05573242 -23.3609082 9.05573242 -24.68554688 9.04882812 C-26.79039539 9.03719913 -28.89520758 9.01927073 -31 9 C-31 8.67 -31 8.34 -31 8 C-30.03320312 7.97421875 -29.06640625 7.9484375 -28.0703125 7.921875 C-19.2530566 7.53775692 -11.14489825 6.91724493 -3.85546875 1.3671875 C-2 0 -2 0 0 0 Z " fill="#534E4A" transform="translate(512,728)"/>
<path d="M0 0 C0.33 5.28 0.66 10.56 1 16 C0.34 16.33 -0.32 16.66 -1 17 C-1.5775 15.948125 -2.155 14.89625 -2.75 13.8125 C-4.13830569 11.34937701 -5.46985506 9.44125345 -7.3125 7.25 C-7.869375 6.5075 -8.42625 5.765 -9 5 C-8.67 4.01 -8.34 3.02 -8 2 C-5.10441559 0.5522078 -3.25811062 0 0 0 Z " fill="#393736" transform="translate(540,579)"/>
<path d="M0 0 C2.37109375 1.5078125 2.37109375 1.5078125 3.37109375 3.5078125 C0.0350275 2.85443547 -3.29707958 2.18245566 -6.62890625 1.5078125 C-7.84191406 1.26675781 -9.05492187 1.02570313 -10.3046875 0.77734375 C-11.54605469 0.52339844 -12.78742188 0.26945312 -14.06640625 0.0078125 C-15.82791016 -0.34796875 -15.82791016 -0.34796875 -17.625 -0.7109375 C-20.62890625 -1.4921875 -20.62890625 -1.4921875 -23.62890625 -3.4921875 C-14.55600761 -5.98723463 -8.25294921 -4.35251079 0 0 Z " fill="#595551" transform="translate(491.62890625,316.4921875)"/>
<path d="M0 0 C0.33 0 0.66 0 1 0 C1.20324671 6.10586993 0.41502291 11.90741659 -0.5 17.9375 C-0.71462891 19.3925293 -0.71462891 19.3925293 -0.93359375 20.87695312 C-1.28458671 23.25200552 -1.64016096 25.62627459 -2 28 C-6.10103825 22.90254928 -5.59239304 18.36043056 -5 12 C-3.16778523 3.16778523 -3.16778523 3.16778523 0 0 Z " fill="#33312E" transform="translate(267,393)"/>
<path d="M0 0 C2.31 0 4.62 0 7 0 C6.52877252 6.9113364 3.79363994 12.72204161 1 19 C0.67 19 0.34 19 0 19 C0 12.73 0 6.46 0 0 Z " fill="#C9BFB9" transform="translate(592,452)"/>
<path d="M0 0 C2.92540283 0.31343602 4.01407811 1.01327365 6.1875 3.0625 C8.55174801 6.8942123 8.77612136 9.52242714 9 14 C8 15 8 15 5.75 15.375 C1.89386948 14.84916402 0.49874064 12.85570359 -2 10 C-0.35 10 1.3 10 3 10 C3 7.69 3 5.38 3 3 C2.34 3 1.68 3 1 3 C0.67 2.01 0.34 1.02 0 0 Z " fill="#383330" transform="translate(499,512)"/>
<path d="M0 0 C0 0.66 0 1.32 0 2 C-7.92 2 -15.84 2 -24 2 C-23 0 -23 0 -20.625 -1.125 C-13.68498845 -2.8001752 -6.63212116 -2.86794428 0 0 Z " fill="#5A5754" transform="translate(440,232)"/>
<path d="M0 0 C2.31 0 4.62 0 7 0 C7 2.97 7 5.94 7 9 C8.65 9 10.3 9 12 9 C12 9.33 12 9.66 12 10 C8.37 10 4.74 10 1 10 C0.67 6.7 0.34 3.4 0 0 Z " fill="#464340" transform="translate(465,726)"/>
<path d="M0 0 C4.62 0 9.24 0 14 0 C12.02 0.99 12.02 0.99 10 2 C10 3.65 10 5.3 10 7 C11.98 7 13.96 7 16 7 C12.59658679 9.09440813 9.96176976 9.66029496 6 9 C3.75 6.1875 3.75 6.1875 2 3 C1.34 2.01 0.68 1.02 0 0 Z " fill="#816D66" transform="translate(385,578)"/>
<path d="M0 0 C-1.32 2.64 -2.64 5.28 -4 8 C-6.31 7.67 -8.62 7.34 -11 7 C-11.33 5.02 -11.66 3.04 -12 1 C-10.37681021 0.63762737 -8.7513642 0.28534843 -7.125 -0.0625 C-6.22007812 -0.25972656 -5.31515625 -0.45695313 -4.3828125 -0.66015625 C-2 -1 -2 -1 0 0 Z " fill="#938D89" transform="translate(520,693)"/>
<path d="M0 0 C-0.42089996 5.60461531 -0.91613111 10.72086547 -3 16 C-5.46301423 13.53698577 -5.76766521 11.72639964 -6.625 8.375 C-6.88539063 7.37210937 -7.14578125 6.36921875 -7.4140625 5.3359375 C-7.60742188 4.56507813 -7.80078125 3.79421875 -8 3 C-2.25 0 -2.25 0 0 0 Z " fill="#C8BDBA" transform="translate(570,458)"/>
<path d="M0 0 C6.72 0.72 6.72 0.72 8 2 C8.125 4.5 8.125 4.5 8 7 C7 8 7 8 3.4375 8.0625 C2.303125 8.041875 1.16875 8.02125 0 8 C-0.38063221 5.6739143 -0.71269945 3.33944736 -1 1 C-0.67 0.67 -0.34 0.34 0 0 Z " fill="#6E6966" transform="translate(394,699)"/>
<path d="M0 0 C3.3 0 6.6 0 10 0 C11 4 11 4 9.9375 5.8125 C8 7 8 7 4.9375 6.875 C2 6 2 6 0 3 C0 2.01 0 1.02 0 0 Z " fill="#5D5855" transform="translate(431,700)"/>
<path d="M0 0 C0.33 0 0.66 0 1 0 C1.02505615 1.28165039 1.0501123 2.56330078 1.07592773 3.88378906 C1.17011595 8.6399125 1.2703089 13.39589379 1.37231445 18.15185547 C1.41562009 20.21008987 1.45729829 22.26835918 1.49731445 24.32666016 C1.55512275 27.28558879 1.61878696 30.2443424 1.68359375 33.203125 C1.70866249 34.58301605 1.70866249 34.58301605 1.73423767 35.99078369 C1.75418289 36.8513739 1.77412811 37.71196411 1.79467773 38.59863281 C1.81022202 39.35364075 1.8257663 40.10864868 1.84178162 40.88653564 C1.92394523 43.02497986 1.92394523 43.02497986 2.63783264 45.08758545 C3 47 3 47 1 50 C0.34 50 -0.32 50 -1 50 C-0.67 33.5 -0.34 17 0 0 Z " fill="#5E5A57" transform="translate(591,452)"/>
<path d="M0 0 C-0.66 4.29 -1.32 8.58 -2 13 C-3.65 12.67 -5.3 12.34 -7 12 C-7.32325181 7.87853942 -7.39022067 5.6324266 -5.1875 2.0625 C-3 0 -3 0 0 0 Z " fill="#22201E" transform="translate(387,308)"/>
<path d="M0 0 C2.625 0.375 2.625 0.375 5 1 C5.625 3.3125 5.625 3.3125 6 6 C5.01 7.485 5.01 7.485 4 9 C-0.875 8.125 -0.875 8.125 -2 7 C-2.1875 4.5625 -2.1875 4.5625 -2 2 C-1.34 1.34 -0.68 0.68 0 0 Z " fill="#55504D" transform="translate(435,676)"/>
<path d="M0 0 C1.41681634 0.31182069 2.83344651 0.62448737 4.25 0.9375 C5.43335938 1.19853516 5.43335938 1.19853516 6.640625 1.46484375 C8.76878703 1.947556 10.88532842 2.46163178 13 3 C12.3125 4.9375 12.3125 4.9375 11 7 C8.6875 8 8.6875 8 6 8 C3.14451192 6.24776868 1.3380389 5.13160581 0.359375 1.85546875 C0.24078125 1.24316406 0.1221875 0.63085938 0 0 Z " fill="#B1DFFC" transform="translate(432,490)"/>
<path d="M0 0 C1 4 1 4 -0.4375 6.75 C-1.2109375 7.86375 -1.2109375 7.86375 -2 9 C-4.375 8.8125 -4.375 8.8125 -7 8 C-8.3125 5.4375 -8.3125 5.4375 -9 3 C-6.03 2.01 -3.06 1.02 0 0 Z " fill="#AEDCF9" transform="translate(563,476)"/>
<path d="M0 0 C1.1446875 0.3403125 1.1446875 0.3403125 2.3125 0.6875 C2.4375 3.0625 2.4375 3.0625 2.3125 5.6875 C0.3125 7.6875 0.3125 7.6875 -2.3125 7.8125 C-3.09625 7.77125 -3.88 7.73 -4.6875 7.6875 C-5.375 5.375 -5.375 5.375 -5.6875 2.6875 C-4.0011022 -0.12316299 -3.27764429 -0.38112143 0 0 Z " fill="#534E4B" transform="translate(492.6875,677.3125)"/>
<path d="M0 0 C3.54387173 3.54387173 2.61802781 8.93610877 2.8125 13.75 C2.87630859 14.83539062 2.94011719 15.92078125 3.00585938 17.0390625 C3.26072671 22.91178015 3.3436926 27.05790138 0 32 C1.98 32 3.96 32 6 32 C6 32.33 6 32.66 6 33 C3.36 33 0.72 33 -2 33 C-1.67257812 31.77410156 -1.34515625 30.54820312 -1.0078125 29.28515625 C0.31499188 23.33253655 0.22013703 17.50797429 0.125 11.4375 C0.11597656 10.33341797 0.10695313 9.22933594 0.09765625 8.09179688 C0.07430128 5.3942983 0.04155054 2.69726923 0 0 Z " fill="#595552" transform="translate(488,608)"/>
<path d="M0 0 C1.2065625 0.0309375 1.2065625 0.0309375 2.4375 0.0625 C2.7675 2.3725 3.0975 4.6825 3.4375 7.0625 C1.0625 7.6875 1.0625 7.6875 -1.5625 8.0625 C-3.5625 6.0625 -3.5625 6.0625 -3.75 3.5 C-3.4919783 0.14571793 -3.38163728 0.08247896 0 0 Z " fill="#4F4B4A" transform="translate(328.5625,591.9375)"/>
<path d="M0 0 C4.10801767 1.18676066 5.89448334 1.89448334 9 5 C6.03 6.32 3.06 7.64 0 9 C0 6.03 0 3.06 0 0 Z " fill="#100F0E" transform="translate(578,430)"/>
<path d="M0 0 C3.63 0 7.26 0 11 0 C11 1.65 11 3.3 11 5 C9.234375 5.6484375 9.234375 5.6484375 7 6 C5.078125 5.0390625 5.078125 5.0390625 3.25 3.625 C2.63640625 3.16351562 2.0228125 2.70203125 1.390625 2.2265625 C0.93171875 1.82179688 0.4728125 1.41703125 0 1 C0 0.67 0 0.34 0 0 Z " fill="#9C8B85" transform="translate(372,660)"/>
<path d="M0 0 C0.66 1.32 1.32 2.64 2 4 C1.34 4 0.68 4 0 4 C-0.2475 4.969375 -0.495 5.93875 -0.75 6.9375 C-1.1625 7.948125 -1.575 8.95875 -2 10 C-4.125 10.875 -4.125 10.875 -6 11 C-6.66 9.02 -7.32 7.04 -8 5 C-7 4 -7 4 -4.4375 3.9375 C-3.2309375 3.9684375 -3.2309375 3.9684375 -2 4 C-1.34 2.68 -0.68 1.36 0 0 Z " fill="#282625" transform="translate(339,586)"/>
<path d="M0 0 C0.66 0.99 1.32 1.98 2 3 C0 5 0 5 -2.1640625 5.1953125 C-3.38222656 5.16050781 -3.38222656 5.16050781 -4.625 5.125 C-5.44226563 5.10695313 -6.25953125 5.08890625 -7.1015625 5.0703125 C-7.72804688 5.04710937 -8.35453125 5.02390625 -9 5 C-9 4.01 -9 3.02 -9 2 C-5.89782379 0.16167336 -3.60591321 -0.47446226 0 0 Z " fill="#423C39" transform="translate(468,536)"/>
<path d="M0 0 C2 3 2 3 2 6 C2.66 6 3.32 6 4 6 C4 9.3 4 12.6 4 16 C3.01 16.33 2.02 16.66 1 17 C0.67 11.39 0.34 5.78 0 0 Z " fill="#B9B6B3" transform="translate(497,704)"/>
<path d="M0 0 C0 0.99 0 1.98 0 3 C-1.32 4.32 -2.64 5.64 -4 7 C0.29 6.01 4.58 5.02 9 4 C8 6 8 6 4.9453125 7.10546875 C3.68460938 7.46253906 2.42390625 7.81960938 1.125 8.1875 C-0.13054688 8.55230469 -1.38609375 8.91710937 -2.6796875 9.29296875 C-6 10 -6 10 -9 9 C-6.03 6.03 -3.06 3.06 0 0 Z " fill="#635954" transform="translate(538,446)"/>
<path d="M0 0 C1.25 2.375 1.25 2.375 2 5 C1.67 5.99 1.34 6.98 1 8 C0.236875 7.360625 -0.52625 6.72125 -1.3125 6.0625 C-3.88246713 3.85767219 -3.88246713 3.85767219 -7 3 C-6.67 2.01 -6.34 1.02 -6 0 C-3 -1 -3 -1 0 0 Z " fill="#AE9B94" transform="translate(543,647)"/>
<path d="M0 0 C0.33 0 0.66 0 1 0 C1 7.26 1 14.52 1 22 C-0.32 22 -1.64 22 -3 22 C-2.68289063 21.00871094 -2.36578125 20.01742188 -2.0390625 18.99609375 C-0.90616541 15.03095395 -0.593831 11.18381716 -0.375 7.0625 C-0.33632813 6.37865234 -0.29765625 5.69480469 -0.2578125 4.99023438 C-0.16477588 3.32720487 -0.08136213 1.66364153 0 0 Z " fill="#86807C" transform="translate(603,430)"/>
<path d="M0 0 C1.916588 -0.02712153 3.8332873 -0.04645097 5.75 -0.0625 C7.35101563 -0.07990234 7.35101563 -0.07990234 8.984375 -0.09765625 C11.53368501 -0.01510087 13.57933591 0.25382442 16 1 C16 1.66 16 2.32 16 3 C10.21101581 3.20674944 5.57067277 2.59162079 0 1 C0 0.67 0 0.34 0 0 Z " fill="#2A2826" transform="translate(468,313)"/>
<path d="M0 0 C0.66 0.33 1.32 0.66 2 1 C-2.62 5.62 -7.24 10.24 -12 15 C-12.66 14.67 -13.32 14.34 -14 14 C-13.04882866 12.8274869 -12.08882991 11.66212985 -11.125 10.5 C-10.59132813 9.8503125 -10.05765625 9.200625 -9.5078125 8.53125 C-9.01023437 8.0259375 -8.51265625 7.520625 -8 7 C-7.34 7 -6.68 7 -6 7 C-6 6.34 -6 5.68 -6 5 C-4.04072937 3.2856382 -2.04119788 1.61594832 0 0 Z " fill="#8A837F" transform="translate(298,250)"/>
<path d="M0 0 C2.64 0 5.28 0 8 0 C7.01 0.33 6.02 0.66 5 1 C5 2.32 5 3.64 5 5 C5.99 5.33 6.98 5.66 8 6 C5.69 6 3.38 6 1 6 C0.67 4.02 0.34 2.04 0 0 Z " fill="#BDA197" transform="translate(394,579)"/>
<path d="M0 0 C1.9375 0.3125 1.9375 0.3125 4 1 C5.35015859 5.05047576 4.62084998 7.7920168 4 12 C2.68 12.33 1.36 12.66 0 13 C-0.66 12.01 -1.32 11.02 -2 10 C-0.35 10 1.3 10 3 10 C3 7.69 3 5.38 3 3 C2.34 3 1.68 3 1 3 C0.67 2.01 0.34 1.02 0 0 Z " fill="#635955" transform="translate(499,512)"/>
<path d="M0 0 C6.625 -0.125 6.625 -0.125 10 1 C10 1.66 10 2.32 10 3 C6.7 3 3.4 3 0 3 C0 2.01 0 1.02 0 0 Z " fill="#21201E" transform="translate(430,231)"/>
<path d="M0 0 C0.66 0.33 1.32 0.66 2 1 C1.42655063 3.86724686 1.1385485 4.8614515 -1 7 C-4.0625 6.75 -4.0625 6.75 -7 6 C-7.33 5.34 -7.66 4.68 -8 4 C-5.36 4 -2.72 4 0 4 C0 2.68 0 1.36 0 0 Z " fill="#716C68" transform="translate(440,700)"/>
<path d="M0 0 C1.98 0.495 1.98 0.495 4 1 C3.67 2.65 3.34 4.3 3 6 C1.68 5.67 0.36 5.34 -1 5 C-0.67 3.35 -0.34 1.7 0 0 Z " fill="#645F5B" transform="translate(400,620)"/>
<path d="M0 0 C2.31 0.33 4.62 0.66 7 1 C7 1.99 7 2.98 7 4 C5.02 4 3.04 4 1 4 C0.67 2.68 0.34 1.36 0 0 Z " fill="#BBB6B3" transform="translate(502,592)"/>
<path d="M0 0 C2.31 0.33 4.62 0.66 7 1 C7 1.99 7 2.98 7 4 C4.69 3.67 2.38 3.34 0 3 C0 2.01 0 1.02 0 0 Z " fill="#BCB8B4" transform="translate(438,598)"/>
<path d="M0 0 C1.125 3.75 1.125 3.75 0 6 C-1.98 5.34 -3.96 4.68 -6 4 C-6 3.34 -6 2.68 -6 2 C-2.25 0 -2.25 0 0 0 Z " fill="#B5B0AC" transform="translate(371,219)"/>
<path d="M0 0 C-1 3 -1 3 -3 4.3125 C-5.72514939 6.6118448 -5.69281994 8.54422433 -6 12 C-6.33 12 -6.66 12 -7 12 C-7.32325181 7.87853942 -7.39022067 5.6324266 -5.1875 2.0625 C-3 0 -3 0 0 0 Z " fill="#393634" transform="translate(387,308)"/>
<path d="M0 0 C1.98 0.495 1.98 0.495 4 1 C4 2.32 4 3.64 4 5 C2.35 4.67 0.7 4.34 -1 4 C-0.67 2.68 -0.34 1.36 0 0 Z " fill="#BAB5B2" transform="translate(422,604)"/>
<path d="M0 0 C2.97 0.495 2.97 0.495 6 1 C6.33 1.99 6.66 2.98 7 4 C3.37 4 -0.26 4 -4 4 C-4 3.67 -4 3.34 -4 3 C-1.69 3 0.62 3 3 3 C3 2.34 3 1.68 3 1 C2.01 0.67 1.02 0.34 0 0 Z " fill="#78736F" transform="translate(437,231)"/>
<path d="M0 0 C3.3 0 6.6 0 10 0 C8.515 1.485 8.515 1.485 7 3 C3.875 2.8125 3.875 2.8125 1 2 C0.67 1.34 0.34 0.68 0 0 Z " fill="#978781" transform="translate(477,583)"/>
<path d="M0 0 C3 0.1875 3 0.1875 6 1 C6.66 1.99 7.32 2.98 8 4 C4.7 3.34 1.4 2.68 -2 2 C-1.34 1.34 -0.68 0.68 0 0 Z " fill="#383533" transform="translate(487,316)"/>
<path d="M0 0 C0.66 0.33 1.32 0.66 2 1 C2 2.98 2 4.96 2 7 C1.01 7.33 0.02 7.66 -1 8 C-1.125 2.25 -1.125 2.25 0 0 Z " fill="#BDB9B6" transform="translate(414,605)"/>
<path d="M0 0 C0.66 0 1.32 0 2 0 C1.71758359 1.46015291 1.42373386 2.91809793 1.125 4.375 C0.96257813 5.18710937 0.80015625 5.99921875 0.6328125 6.8359375 C0 9 0 9 -2 11 C-2.95465783 8.83032311 -3.14401212 7.43671207 -2.3984375 5.17578125 C-1.64129615 3.4315257 -0.82390802 1.71372869 0 0 Z " fill="#DFD9D8" transform="translate(564,476)"/>
<path d="M0 0 C0.33 0 0.66 0 1 0 C1.16702456 4.34263862 1.12999997 7.20960634 -1 11 C-1.22174933 9.54364629 -1.42698698 8.08477044 -1.625 6.625 C-1.74101562 5.81289063 -1.85703125 5.00078125 -1.9765625 4.1640625 C-1.98429687 3.44992187 -1.99203125 2.73578125 -2 2 C-1.34 1.34 -0.68 0.68 0 0 Z " fill="#413E3C" transform="translate(267,393)"/>
<path d="M0 0 C1.32 0.33 2.64 0.66 4 1 C4 2.32 4 3.64 4 5 C2.68 5 1.36 5 0 5 C0 3.35 0 1.7 0 0 Z " fill="#BCB7B4" transform="translate(497,594)"/>
<path d="M0 0 C2.64 0 5.28 0 8 0 C8 1.32 8 2.64 8 4 C5.125 3.6875 5.125 3.6875 2 3 C1.34 2.01 0.68 1.02 0 0 Z " fill="#A59D98" transform="translate(445,337)"/>
<path d="M0 0 C0.99 0 1.98 0 3 0 C3 1.65 3 3.3 3 5 C1.68 4.67 0.36 4.34 -1 4 C-0.67 2.68 -0.34 1.36 0 0 Z " fill="#BEBAB7" transform="translate(430,593)"/>
<path d="M0 0 C-1 3 -1 3 -3.375 4.3125 C-4.24125 4.539375 -5.1075 4.76625 -6 5 C-6.99 4.34 -7.98 3.68 -9 3 C-2.25 0 -2.25 0 0 0 Z " fill="#675D58" transform="translate(527,541)"/>
<path d="M0 0 C0.66 0 1.32 0 2 0 C1.34 2.31 0.68 4.62 0 7 C-1.32 7.33 -2.64 7.66 -4 8 C-2.66666667 5.33333333 -1.33333333 2.66666667 0 0 Z " fill="#403D3A" transform="translate(343,356)"/>
<path d="M0 0 C0.763125 0.556875 1.52625 1.11375 2.3125 1.6875 C2.3125 2.3475 2.3125 3.0075 2.3125 3.6875 C-1.04345828 3.08822174 -3.06551226 1.84127564 -5.6875 -0.3125 C-2.6875 -1.3125 -2.6875 -1.3125 0 0 Z " fill="#575450" transform="translate(557.6875,329.3125)"/>
</svg>
