<?xml version="1.0" encoding="UTF-8"?>
<svg version="1.1" xmlns="http://www.w3.org/2000/svg" width="900" height="900">
<path d="M0 0 C2.17488345 0.54583963 4.34890639 0.9892026 6.54858398 1.42163086 C13.03227375 2.84370408 19.19122754 5.28444538 25.38061523 7.64428711 C26.02395813 7.88855438 26.66730103 8.13282166 27.33013916 8.38449097 C37.54472409 12.28590155 47.1095491 16.65832818 56.31811523 22.58178711 C56.93750977 22.96657227 57.5569043 23.35135742 58.19506836 23.74780273 C76.2601105 34.97643015 95.63457097 50.37114857 106.95874023 68.56616211 C108.2717511 70.66571231 108.2717511 70.66571231 110.22119141 72.40942383 C112.35119223 74.61605409 113.72584938 76.69047246 115.22827148 79.35522461 C115.74325195 80.26272461 116.25823242 81.17022461 116.78881836 82.10522461 C117.31411133 83.04624023 117.8394043 83.98725586 118.38061523 84.95678711 C119.17435547 86.35670898 119.17435547 86.35670898 119.98413086 87.78491211 C122.55081497 92.33216176 124.9920372 96.90627609 127.31811523 101.58178711 C127.7942627 102.4833252 128.27041016 103.38486328 128.76098633 104.3137207 C132.6331129 111.73973466 135.45265019 119.2204857 137.94311523 127.20678711 C138.32846436 128.42430664 138.71381348 129.64182617 139.11083984 130.89624023 C146.31811523 154.06981348 146.31811523 154.06981348 146.31811523 163.58178711 C146.97811523 163.58178711 147.63811523 163.58178711 148.31811523 163.58178711 C153.47452765 183.3480347 154.64583602 203.29736313 152.31811523 223.58178711 C152.64811523 223.91178711 152.97811523 224.24178711 153.31811523 224.58178711 C153.54183671 227.1603402 153.70011862 229.71234503 153.81030273 232.29663086 C153.84507217 233.09076889 153.87984161 233.88490692 153.91566467 234.70310974 C154.9341724 259.95771896 153.2509703 283.00069309 143.31811523 306.58178711 C142.98263672 307.38310059 142.6471582 308.18441406 142.30151367 309.01000977 C130.69494295 336.39671108 113.05856742 368.26445046 84.31811523 380.58178711 C83.65811523 380.58178711 82.99811523 380.58178711 82.31811523 380.58178711 C83.39975745 384.31144635 84.48358706 388.04046608 85.56811523 391.76928711 C85.88876953 392.87320801 86.20942383 393.97712891 86.53979492 395.11450195 C88.15723031 400.66595233 89.80785788 406.19910688 91.56811523 411.70678711 C96.12407045 426.41098591 97.49687623 440.69981257 97.50561523 456.01928711 C97.51786133 457.1762207 97.53010742 458.3331543 97.54272461 459.52514648 C97.5446582 460.63567383 97.5465918 461.74620117 97.54858398 462.89038086 C97.55269287 463.8886792 97.55680176 464.88697754 97.56103516 465.91552734 C97.31385893 468.62850381 96.7070977 470.26452258 95.31811523 472.58178711 C93.33811523 472.58178711 91.35811523 472.58178711 89.31811523 472.58178711 C89.29749023 473.55116211 89.27686523 474.52053711 89.25561523 475.51928711 C88.17143555 483.0627345 81.46284746 488.80584411 75.89624023 493.48803711 C74.31811523 494.58178711 74.31811523 494.58178711 71.31811523 495.58178711 C70.33165288 497.51861759 70.33165288 497.51861759 69.66967773 499.91381836 C69.38608398 500.79489258 69.10249023 501.6759668 68.81030273 502.58374023 C68.23615711 504.44454102 67.66578865 506.30651181 67.09936523 508.16967773 C65.43097904 513.32889899 64.26961201 516.7668417 59.31811523 519.58178711 C56.00561523 520.33178711 56.00561523 520.33178711 53.31811523 520.58178711 C53.75370009 526.19309432 53.75370009 526.19309432 55.81811523 531.33178711 C58.0789184 536.23019396 58.06763132 541.24388843 58.31811523 546.58178711 C45.98913244 552.17626243 33.61412551 553.05960887 20.25732422 552.91796875 C17.88596428 552.89434041 15.51573572 552.89744294 13.14428711 552.90405273 C3.0355961 552.88403863 -6.67277283 552.01655987 -16.68188477 550.58178711 C-17.67188477 542.16678711 -17.67188477 542.16678711 -18.68188477 533.58178711 C-19.34188477 533.91178711 -20.00188477 534.24178711 -20.68188477 534.58178711 C-22.68148489 534.62177911 -24.68235719 534.6252551 -26.68188477 534.58178711 C-26.53750977 535.3178418 -26.39313477 536.05389648 -26.24438477 536.81225586 C-26.05875977 537.78807617 -25.87313477 538.76389648 -25.68188477 539.76928711 C-25.49625977 540.7322168 -25.31063477 541.69514648 -25.11938477 542.68725586 C-24.71310864 545.37520771 -24.60254905 547.8694973 -24.68188477 550.58178711 C-26.8475602 551.06541407 -29.01448218 551.54346028 -31.18188477 552.01928711 C-32.99172852 552.41954102 -32.99172852 552.41954102 -34.83813477 552.82788086 C-57.34849622 557.24302289 -82.65401248 555.87546491 -104.68188477 549.58178711 C-104.35188477 540.67178711 -104.02188477 531.76178711 -103.68188477 522.58178711 C-104.67188477 522.91178711 -105.66188477 523.24178711 -106.68188477 523.58178711 C-111.22587552 523.95424537 -113.75136996 523.99336097 -117.93188477 522.14428711 C-122.13513267 518.22762429 -123.84243807 513.45243385 -125.43579102 508.00366211 C-127.13072533 504.70943241 -129.09152121 503.92672627 -132.36938477 502.26928711 C-138.1439474 499.0788068 -141.73718296 495.79304758 -145.68188477 490.58178711 C-146.31094727 489.83541992 -146.94000977 489.08905273 -147.58813477 488.32006836 C-152.04429942 482.94162372 -154.68188477 478.7443776 -154.68188477 471.58178711 C-155.31094727 471.79834961 -155.94000977 472.01491211 -156.58813477 472.23803711 C-162.19634405 474.06239435 -166.79157073 474.90902678 -172.68188477 474.58178711 C-174.99059164 469.99185796 -174.99187306 465.91144377 -174.93188477 460.89428711 C-174.92366699 460.05341553 -174.91544922 459.21254395 -174.90698242 458.34619141 C-174.62330845 442.05323985 -171.57795292 427.14381666 -167.41918945 411.4128418 C-166.35803093 407.33827418 -165.38489669 403.2452947 -164.43188477 399.14428711 C-164.27252441 398.46172852 -164.11316406 397.77916992 -163.94897461 397.07592773 C-162.8272399 392.2516251 -161.73769423 387.42091383 -160.68188477 382.58178711 C-169.39458369 374.96595379 -169.39458369 374.96595379 -178.68188477 368.08178711 C-183.37635139 364.90634302 -187.62832897 361.33525535 -191.91601562 357.6418457 C-195.11865012 354.88665561 -198.36806068 352.25013651 -201.74438477 349.70678711 C-204.91282474 347.29273761 -207.30907344 344.80881051 -209.68188477 341.58178711 C-210.34188477 341.25178711 -211.00188477 340.92178711 -211.68188477 340.58178711 C-211.68188477 339.92178711 -211.68188477 339.26178711 -211.68188477 338.58178711 C-212.34188477 338.58178711 -213.00188477 338.58178711 -213.68188477 338.58178711 C-215.20696175 336.42151106 -216.61425244 334.26968133 -217.99438477 332.01928711 C-218.80523934 330.71878059 -219.61772132 329.41928723 -220.43188477 328.12084961 C-220.82118164 327.49984375 -221.21047852 326.87883789 -221.61157227 326.23901367 C-222.81327856 324.37834252 -224.12366867 322.63338316 -225.49438477 320.89428711 C-230.66422904 313.06566578 -232.3401949 304.16569114 -233.97094727 295.06225586 C-234.57572899 291.66634732 -234.57572899 291.66634732 -235.67016602 288.86694336 C-237.18564949 283.94601054 -237.64536085 278.93458345 -238.24438477 273.83178711 C-238.49243287 271.7532712 -238.74357821 269.67512182 -238.99829102 267.59741211 C-239.15986694 266.22504395 -239.15986694 266.22504395 -239.32470703 264.82495117 C-239.57118596 262.55234927 -239.57118596 262.55234927 -240.68188477 260.58178711 C-242.33064816 250.38523717 -242.37702228 239.88127277 -242.68188477 229.58178711 C-242.72265137 228.30883789 -242.76341797 227.03588867 -242.80541992 225.72436523 C-243.67069278 196.45658811 -241.12890203 167.72856194 -232.68188477 139.58178711 C-232.23450755 137.60482971 -231.79613043 135.62580044 -231.36938477 133.64428711 C-229.78171131 127.14675642 -227.19147515 121.03925785 -224.63769531 114.87304688 C-223.0199902 110.96627544 -221.49530028 107.09534651 -220.23266602 103.05834961 C-218.63157256 98.13145144 -216.3308004 93.69050328 -213.86938477 89.14428711 C-213.42143555 88.30881348 -212.97348633 87.47333984 -212.51196289 86.61254883 C-211.24543452 84.2632395 -209.96676738 81.92109691 -208.68188477 79.58178711 C-207.87170898 78.0987207 -207.87170898 78.0987207 -207.04516602 76.58569336 C-201.24311148 66.46119132 -193.6651065 57.37318898 -185.74438477 48.84741211 C-183.70045186 46.6589147 -183.70045186 46.6589147 -182.05688477 44.50366211 C-175.25906955 35.87043679 -164.64663952 29.90611465 -154.68188477 25.58178711 C-153.69188477 25.58178711 -152.70188477 25.58178711 -151.68188477 25.58178711 C-151.68188477 24.92178711 -151.68188477 24.26178711 -151.68188477 23.58178711 C-143.33943572 21.59863757 -135.17336226 20.12156248 -126.63330078 19.40454102 C-119.79071481 18.74164248 -114.50115533 16.84407959 -109.68188477 11.89428711 C-81.52132836 -14.11112467 -33.99611371 -8.96189357 0 0 Z " fill="#1D1C1A" transform="translate(470.681884765625,196.418212890625)"/>
<path d="M0 0 C0.80179687 0.39058594 1.60359375 0.78117188 2.4296875 1.18359375 C9.20606439 4.65034888 14.96124105 8.87577482 20.859375 13.6328125 C24.13661487 16.10297091 27.40279723 18.03871106 31 20 C31 21.98 31 23.96 31 26 C31.87785156 25.896875 32.75570312 25.79375 33.66015625 25.6875 C38.14483242 26.10711882 39.39369586 27.74856336 42.4375 31 C42.91775635 31.50547363 43.3980127 32.01094727 43.89282227 32.53173828 C47.04661195 35.87603957 50.10410089 39.3072267 53.08203125 42.80859375 C55.03231572 45.03692285 57.06092196 47.17940305 59.10083008 49.32543945 C65.60259589 56.20212689 71.36645184 63.49220126 77.02734375 71.0703125 C79.34694708 74.1714178 81.7863563 77.12604333 84.3125 80.0625 C91.13113447 88.51356179 99.57496271 102.76255353 98.796875 113.91015625 C96.05854732 124.52788759 85.81004909 132.44440934 77 138 C66.41614907 144 66.41614907 144 62 144 C62 144.66 62 145.32 62 146 C55.30998701 148.81553619 48.60332918 151.58984722 41.875 154.3125 C40.89841431 154.71202881 40.89841431 154.71202881 39.90209961 155.11962891 C35.23080346 157 35.23080346 157 33 157 C33 157.66 33 158.32 33 159 C32.18917969 159.40089844 31.37835938 159.80179688 30.54296875 160.21484375 C19.02327009 166.12891489 9.31067368 173.10791764 2 184 C1.29230469 185.00933594 0.58460938 186.01867187 -0.14453125 187.05859375 C-11.18076762 203.50405365 -15.63106133 221.24018032 -16.125 240.8125 C-16.14409424 241.53756744 -16.16318848 242.26263489 -16.18286133 243.00967407 C-16.41875216 254.12729086 -15.49361042 264.28783946 -11.77197266 274.80175781 C-10.4329679 278.61466066 -9.3323266 282.50029187 -8.1875 286.375 C-6.11651485 293.32997666 -3.99943684 300.26807331 -1.8125 307.1875 C-1.57490967 307.94015137 -1.33731934 308.69280273 -1.0925293 309.46826172 C-0.14329194 312.45973728 0.80623983 315.44590207 1.84228516 318.40869141 C2.11733887 319.19808105 2.39239258 319.9874707 2.67578125 320.80078125 C2.92884033 321.51016846 3.18189941 322.21955566 3.44262695 322.95043945 C4 325 4 325 4 329 C-6.4864817 329.43592765 -16.46527952 329.07197947 -26.8125 327.1875 C-27.73627441 327.02217773 -28.66004883 326.85685547 -29.61181641 326.68652344 C-34.49879788 325.73300987 -38.83061763 324.85702406 -43 322 C-44.10329541 319.05691668 -44.76183535 316.65393508 -45.30078125 313.60546875 C-45.46748825 312.78049393 -45.63419525 311.9555191 -45.80595398 311.10554504 C-46.3324895 308.47031545 -46.82274223 305.82978528 -47.3125 303.1875 C-47.65976068 301.42076069 -48.00934539 299.65447649 -48.36132812 297.88867188 C-52.04284728 279.26001136 -52.04284728 279.26001136 -52.28125 273.29296875 C-52.33732422 272.04290039 -52.33732422 272.04290039 -52.39453125 270.76757812 C-52.46564083 269.02802719 -52.53593567 267.28844279 -52.60546875 265.54882812 C-52.64285156 264.72189453 -52.68023437 263.89496094 -52.71875 263.04296875 C-52.74904297 262.29039795 -52.77933594 261.53782715 -52.81054688 260.76245117 C-52.81628804 258.97455126 -52.81628804 258.97455126 -54 258 C-57.76075185 275.56028484 -54.83532093 295.12805165 -52.27539062 312.66357422 C-52 315 -52 315 -52 319 C-55.9238156 318.88368136 -58.72796456 318.21401201 -62 316 C-64.69202248 311.46412651 -65.85536406 306.20479653 -67.27685547 301.16772461 C-68.00789988 298.97631904 -68.93457428 297.08473128 -70.03125 295.0546875 C-72.34836627 290.63710478 -73.23942119 286.19088411 -74.125 281.3125 C-75.49695709 273.99530582 -75.49695709 273.99530582 -78 267 C-80.74914463 257.72163688 -82.20831223 247.67163922 -82 238 C-82.66 238 -83.32 238 -84 238 C-84.144375 238.78375 -84.28875 239.5675 -84.4375 240.375 C-85 243 -85 243 -86 245 C-86.0973979 247.06979722 -86.13076859 249.14275719 -86.1328125 251.21484375 C-86.13410156 252.45814453 -86.13539063 253.70144531 -86.13671875 254.98242188 C-86.13091797 256.94018555 -86.13091797 256.94018555 -86.125 258.9375 C-86.12886719 260.23880859 -86.13273437 261.54011719 -86.13671875 262.88085938 C-86.13478516 264.74774414 -86.13478516 264.74774414 -86.1328125 266.65234375 C-86.13112061 268.36925415 -86.13112061 268.36925415 -86.12939453 270.12084961 C-86.12823513 273.07082167 -86.12823513 273.07082167 -85 276 C-84.78542501 277.77072853 -84.61215771 279.54663034 -84.46484375 281.32421875 C-84.33432617 282.86625977 -84.33432617 282.86625977 -84.20117188 284.43945312 C-84.11416016 285.51130859 -84.02714844 286.58316406 -83.9375 287.6875 C-83.84662109 288.77095703 -83.75574219 289.85441406 -83.66210938 290.97070312 C-83.43811227 293.64687907 -83.2175438 296.32329301 -83 299 C-95.03053058 293.18341395 -104.29904039 278.37932725 -109.08203125 266.2578125 C-112.13749141 257.26308708 -113.37126328 248.03710802 -114.56103516 238.65136719 C-114.94839126 236.31171909 -115.44063814 234.04242526 -115.97558594 231.73339844 C-119.53030778 215.95362425 -119.40069536 199.58905062 -119.375 183.5 C-119.37545319 182.39036896 -119.37590637 181.28073792 -119.37637329 180.13748169 C-119.35293364 160.48606618 -117.90037026 141.41730441 -115 122 C-114.76689477 120.20232925 -114.53721235 118.4042079 -114.3125 116.60546875 C-112.9687496 106.56209293 -110.00914841 97.27625311 -106.62109375 87.7421875 C-105.58872641 84.829874 -104.72233341 81.97582574 -104.05078125 78.9609375 C-102.93413864 74.25277156 -100.87634686 70.07660769 -98.75 65.75 C-98.34450928 64.9151709 -97.93901855 64.0803418 -97.52124023 63.22021484 C-96.71414083 61.56109696 -95.90424607 59.90333546 -95.09130859 58.24707031 C-94.17599852 56.36239158 -93.29651804 54.4603695 -92.42578125 52.5546875 C-86.81481831 40.49674422 -78.03230081 30.63103287 -69 21 C-68.46375 20.38769531 -67.9275 19.77539062 -67.375 19.14453125 C-61.88876243 13.15081671 -54.88024904 9.19646395 -48 5 C-47.21882813 4.47921875 -46.43765625 3.9584375 -45.6328125 3.421875 C-38.70920604 -0.31728338 -31.63960689 -1.54340399 -23.875 -2.1875 C-22.59302734 -2.3102832 -22.59302734 -2.3102832 -21.28515625 -2.43554688 C-13.51309576 -3.14589649 -7.10123485 -3.66200934 0 0 Z " fill="#A39C97" transform="translate(366,235)"/>
<path d="M0 0 C3.01832445 1.16838366 5.98436636 2.42770136 8.9375 3.75 C10.62453743 4.50103992 12.31209906 5.25090275 14 6 C15.08023438 6.47953125 16.16046875 6.9590625 17.2734375 7.453125 C30.26381225 13.40284154 30.26381225 13.40284154 44.109375 16.37109375 C49.9928168 16.95704504 55.36720466 18.84298888 60.9375 20.75 C62.46793945 21.25273437 62.46793945 21.25273437 64.02929688 21.765625 C73.49407969 24.95477964 82.13285965 28.59961885 89.625 35.3125 C90.16987061 35.79396484 90.71474121 36.27542969 91.27612305 36.77148438 C92.35730631 37.73282063 93.43422723 38.69897697 94.50634766 39.67041016 C95.83791911 40.85572205 97.21890062 41.98498866 98.60546875 43.10546875 C103.77813009 47.54571786 103.77813009 47.54571786 104.36401367 51.38598633 C104.17920117 58.23675088 103.51307228 64.91086784 102.5 71.6875 C102.35691406 72.68716797 102.21382812 73.68683594 102.06640625 74.71679688 C101.71777276 77.14561017 101.36223988 79.57318549 101 82 C99.88882813 81.95359375 98.77765625 81.9071875 97.6328125 81.859375 C83.3617277 81.43543369 74.71284417 84.1125435 64 94 C58.46397712 99.38409086 54.06358938 105.23974507 49.875 111.6875 C43.58342468 121.35932051 36.49604378 127.38883028 27 134 C30.7032101 138.25808848 35.77618201 139.30510506 41 141 C42.68996094 141.54914063 42.68996094 141.54914063 44.4140625 142.109375 C51.96686732 144.42043279 59.10607816 145.71084535 67 146 C65.7934375 144.8553125 65.7934375 144.8553125 64.5625 143.6875 C62 141 62 141 61 138 C61.58265625 137.78085937 62.1653125 137.56171875 62.765625 137.3359375 C70.87941413 134.1975851 78.99380425 130.74935002 86.1875 125.8125 C88.76202243 124.15336332 90.79217016 123.31145401 93.67578125 122.38671875 C94.89068237 121.99359497 94.89068237 121.99359497 96.13012695 121.5925293 C96.74718506 121.39699463 97.36424316 121.20145996 98 121 C98.64989951 140.95691423 98.52125105 160.05132774 84.9375 176.0625 C79.83233063 181.46448154 74.11827828 185.80784636 68 190 C67.21109375 190.54398438 66.4221875 191.08796875 65.609375 191.6484375 C58.58265634 196.16561378 50.87022445 199.0817807 43.12670898 202.12084961 C40.95752436 203.01755881 38.86506572 204.02602274 36.75 205.04296875 C31.22020362 207.5215759 25.49322214 208.5783872 19.5625 209.6875 C18.49451172 209.89955078 17.42652344 210.11160156 16.32617188 210.33007812 C-14.19553778 216.24051304 -46.69448709 213.42625699 -76.98001099 207.34939575 C-78.35403196 207.07762798 -79.73080884 206.81939674 -81.1100769 206.57565308 C-91.7565068 204.65567667 -91.7565068 204.65567667 -94.66162109 200.78759766 C-95.72363975 198.20123511 -96.40564543 195.72892389 -97 193 C-97.43254672 191.69273045 -97.8789897 190.38991674 -98.34375 189.09375 C-99.11458333 186.69791667 -99.88541667 184.30208333 -100.65625 181.90625 C-101.63222017 178.95495607 -102.76966846 176.10127376 -103.9609375 173.23046875 C-106.13510751 167.86445384 -107.66512027 162.40870562 -109.125 156.8125 C-109.62729579 154.92309507 -110.12989312 153.03377028 -110.6328125 151.14453125 C-110.84824707 150.32315674 -111.06368164 149.50178223 -111.28564453 148.65551758 C-111.83089977 146.6286067 -112.43841284 144.61834134 -113.07324219 142.61767578 C-114.02460424 138.90395531 -114.22930862 135.79721951 -114.1953125 131.97265625 C-114.18886719 130.68681641 -114.18242187 129.40097656 -114.17578125 128.07617188 C-114.15907601 126.73827846 -114.14214619 125.40038783 -114.125 124.0625 C-114.11495322 122.69727217 -114.10583036 121.3320372 -114.09765625 119.96679688 C-114.07417605 116.64434801 -114.04133359 113.32226679 -114 110 C-113.37528809 110.78173584 -112.75057617 111.56347168 -112.10693359 112.36889648 C-105.01026742 121.23109479 -99.55416165 127.04863048 -88 129 C-88 129.66 -88 130.32 -88 131 C-86.76056641 131.16048828 -86.76056641 131.16048828 -85.49609375 131.32421875 C-82.26138731 131.94947486 -79.32677161 132.88819789 -76.23852539 134.01879883 C-65.43207277 137.96043211 -54.51797355 139.92321403 -43.16625977 141.61450195 C-41 142 -41 142 -38 143 C-39.4258086 146.45195767 -41.09746334 148.1014256 -44.125 150.25 C-44.84945312 150.77078125 -45.57390625 151.2915625 -46.3203125 151.828125 C-46.87460937 152.21484375 -47.42890625 152.6015625 -48 153 C-38.25393055 151.512822 -29.53390664 148.37584345 -20.75 144 C-9.96349938 138.67535987 1.09235461 136.3673216 13 135 C11.55779992 132.11559985 9.59333557 131.72427255 6.6875 130.375 C-5.68593743 124.30584364 -15.31994373 116.7498925 -24.1875 106.25 C-37.15056663 91.32463429 -52.67132869 80.39139879 -71 73 C-72.299375 72.43152344 -72.299375 72.43152344 -73.625 71.8515625 C-78.69851363 70.57143985 -83.66669544 70.79161581 -88.875 70.875 C-89.94492187 70.88402344 -91.01484375 70.89304687 -92.1171875 70.90234375 C-94.74502439 70.92580658 -97.37239406 70.95863541 -100 71 C-88.04236496 54.31158475 -71.89861549 45.46043297 -52 41 C-52 40.34 -52 39.68 -52 39 C-50.86304688 38.52691406 -49.72609375 38.05382812 -48.5546875 37.56640625 C-28.60499488 29.09185493 -12.22019533 18.330293 0 0 Z " fill="#D1BAB2" transform="translate(480,357)"/>
<path d="M0 0 C4.80545878 4.21262279 9.03009128 8.78867007 13.12890625 13.671875 C13.61335205 14.24873047 14.09779785 14.82558594 14.59692383 15.41992188 C24.3333769 27.07423547 33.04425831 39.73260257 38.7109375 53.91015625 C39.55569119 56.02035771 40.50057527 58.01032659 41.50390625 60.046875 C43.94076476 65.4388791 45.37506172 71.08686882 46.8527832 76.79956055 C47.77957764 80.32687831 48.77148576 83.54486529 50.22265625 86.90625 C51.85123416 90.73514062 52.76614976 94.43054973 53.62890625 98.484375 C54.48451335 102.47465025 55.34799794 106.38179716 56.70263672 110.23803711 C59.83073025 119.19752343 60.17301987 127.33194656 59.94140625 136.671875 C59.92127686 138.10609438 59.90303765 139.54034158 59.88671875 140.97460938 C59.84330966 144.43679064 59.77465339 147.89789478 59.69140625 151.359375 C56.06327109 149.672157 54.02227074 147.7674362 51.37890625 144.734375 C50.58097656 143.83332031 49.78304687 142.93226563 48.9609375 142.00390625 C47.63828681 140.46271087 46.33381878 138.90481465 45.078125 137.30859375 C37.26882867 127.56210763 25.54749621 120.29403751 14.69140625 114.359375 C14.09070313 114.01777344 13.49 113.67617188 12.87109375 113.32421875 C9.84558698 111.98497113 6.71020197 111.25033639 3.50390625 110.484375 C2.80410645 110.31292969 2.10430664 110.14148438 1.38330078 109.96484375 C-3.00182322 108.89610995 -7.39675777 107.871575 -11.79443359 106.85595703 C-15.30342647 106.0413837 -18.80641868 105.20269671 -22.30859375 104.359375 C-23.50355469 104.07578125 -24.69851563 103.7921875 -25.9296875 103.5 C-38.7768102 100.17520548 -50.83755119 94.80637938 -60.30859375 85.359375 C-62.92869439 83.20507003 -65.48590238 81.24116924 -68.30859375 79.359375 C-69.34838867 77.56274414 -69.34838867 77.56274414 -70.2890625 75.39453125 C-70.64403809 74.60006592 -70.99901367 73.80560059 -71.36474609 72.98706055 C-71.73809082 72.14054932 -72.11143555 71.29403809 -72.49609375 70.421875 C-76.0439438 62.68104573 -79.93867141 56.00137659 -85.30859375 49.359375 C-86.18749172 48.22074904 -87.06362867 47.07998835 -87.9375 45.9375 C-92.72883764 39.70539872 -97.6673123 33.70550606 -103.0065918 27.92919922 C-105.23106282 25.44592613 -107.30694875 22.8923368 -109.37890625 20.28125 C-114.41961219 14.09549353 -119.90115809 8.4108402 -125.55859375 2.796875 C-126.06537659 2.29224731 -126.57215942 1.78761963 -127.09429932 1.2677002 C-140.71684104 -12.26208364 -155.80785249 -22.87553789 -172.30859375 -32.640625 C-170.94842935 -35.3609538 -169.422721 -35.68286508 -166.68359375 -36.953125 C-163.40851665 -38.53001397 -160.45550076 -40.13271117 -157.55859375 -42.328125 C-114.65492501 -72.85573545 -33.03163354 -27.50389078 0 0 Z " fill="#CCC2BC" transform="translate(545.30859375,254.640625)"/>
<path d="M0 0 C0 0.66 0 1.32 0 2 C0.70253906 2.23460937 1.40507812 2.46921875 2.12890625 2.7109375 C9.99463352 6.24248852 16.93394707 13.22107951 21.7734375 20.25390625 C24.75959165 24.50489639 28.78403092 28.00444302 33 31 C33.99 31 34.98 31 36 31 C36.33 29.68 36.66 28.36 37 27 C38.98 27.495 38.98 27.495 41 28 C42.64822733 32.84772744 43.26877361 36.03063671 42 41 C34.70626225 53.83767143 22.58463292 62.57890236 9 68 C8.01 68 7.02 68 6 68 C6 68.66 6 69.32 6 70 C-0.69001299 72.81553619 -7.39667082 75.58984722 -14.125 78.3125 C-14.77605713 78.57885254 -15.42711426 78.84520508 -16.09790039 79.11962891 C-20.76919654 81 -20.76919654 81 -23 81 C-23 81.66 -23 82.32 -23 83 C-23.81082031 83.40089844 -24.62164062 83.80179687 -25.45703125 84.21484375 C-36.97672991 90.12891489 -46.68932632 97.10791764 -54 108 C-55.06154297 109.51400391 -55.06154297 109.51400391 -56.14453125 111.05859375 C-67.18076762 127.50405365 -71.63106133 145.24018032 -72.125 164.8125 C-72.14409424 165.53756744 -72.16318848 166.26263489 -72.18286133 167.00967407 C-72.41875216 178.12729086 -71.49361042 188.28783946 -67.77197266 198.80175781 C-66.4329679 202.61466066 -65.3323266 206.50029187 -64.1875 210.375 C-62.11651485 217.32997666 -59.99943684 224.26807331 -57.8125 231.1875 C-57.57490967 231.94015137 -57.33731934 232.69280273 -57.0925293 233.46826172 C-56.14007694 236.46986919 -55.1838872 239.46646061 -54.15771484 242.44384766 C-53.88266113 243.24226074 -53.60760742 244.04067383 -53.32421875 244.86328125 C-53.07115967 245.58427002 -52.81810059 246.30525879 -52.55737305 247.0480957 C-52 249 -52 249 -52 252 C-55.63 252 -59.26 252 -63 252 C-71.78846645 231.2442601 -79.26929383 210.72496198 -80 188 C-80.66 188 -81.32 188 -82 188 C-85.41693718 165.4884139 -84.91452413 141.7843141 -83.125 119.125 C-83.04660889 118.12855469 -82.96821777 117.13210938 -82.88745117 116.10546875 C-82.42587808 110.94363894 -81.63305919 106.03057367 -80.42822266 100.99267578 C-79.84697931 98.28793906 -79.72070881 95.63583102 -79.625 92.875 C-79.21438423 86.48432553 -77.72694737 80.69581975 -75.96875 74.5546875 C-75.14243475 71.52264364 -74.54087683 68.60024986 -74.0625 65.5 C-73.21043893 60.41025464 -71.65179534 55.64351789 -69.96386719 50.78417969 C-68.02523797 45.19099171 -66.42872188 39.54706539 -64.89453125 33.828125 C-64 31 -64 31 -62 28 C-59.79296875 27.6640625 -59.79296875 27.6640625 -57.1875 27.625 C-53.47376422 27.348332 -52.31775233 27.25124603 -49.3125 24.875 C-48.549375 23.92625 -47.78625 22.9775 -47 22 C-39.32643935 14.00447177 -39.32643935 14.00447177 -35 11 C-34.01 11 -33.02 11 -32 11 C-32 10.34 -32 9.68 -32 9 C-31.34 9 -30.68 9 -30 9 C-29.77054687 8.40574219 -29.54109375 7.81148438 -29.3046875 7.19921875 C-27.65018855 4.41034776 -25.92028824 3.42580434 -23.125 1.8125 C-21.82949219 1.04873047 -21.82949219 1.04873047 -20.5078125 0.26953125 C-13.78894328 -3.13176547 -6.88185443 -2.75274177 0 0 Z " fill="#CDC3BD" transform="translate(422,311)"/>
<path d="M0 0 C3.01832445 1.16838366 5.98436636 2.42770136 8.9375 3.75 C10.62453743 4.50103992 12.31209906 5.25090275 14 6 C15.08023438 6.47953125 16.16046875 6.9590625 17.2734375 7.453125 C30.26381225 13.40284154 30.26381225 13.40284154 44.109375 16.37109375 C49.9928168 16.95704504 55.36720466 18.84298888 60.9375 20.75 C62.46793945 21.25273437 62.46793945 21.25273437 64.02929688 21.765625 C73.49407969 24.95477964 82.13285965 28.59961885 89.625 35.3125 C90.16987061 35.79396484 90.71474121 36.27542969 91.27612305 36.77148438 C92.35730631 37.73282063 93.43422723 38.69897697 94.50634766 39.67041016 C95.83791911 40.85572205 97.21890062 41.98498866 98.60546875 43.10546875 C103.77813009 47.54571786 103.77813009 47.54571786 104.36401367 51.38598633 C104.17920117 58.23675088 103.51307228 64.91086784 102.5 71.6875 C102.35691406 72.68716797 102.21382812 73.68683594 102.06640625 74.71679688 C101.71777276 77.14561017 101.36223988 79.57318549 101 82 C99.88882813 81.95359375 98.77765625 81.9071875 97.6328125 81.859375 C88.35167944 81.59011465 79.99986935 81.53588897 72.19921875 87.33984375 C69.16637873 88.25023445 67.40448558 87.16622166 64.66796875 85.78759766 C63.99378906 85.42456543 63.31960938 85.0615332 62.625 84.6875 C61.92761719 84.32446777 61.23023438 83.96143555 60.51171875 83.58740234 C55.55699211 80.9588437 50.7396963 78.12261433 46 75.125 C45.39494629 74.74432373 44.78989258 74.36364746 44.16650391 73.97143555 C42.73836501 73.03852149 41.36262984 72.0262306 40 71 C40 70.34 40 69.68 40 69 C39.41347656 68.73703125 38.82695313 68.4740625 38.22265625 68.203125 C29.30559221 63.37631353 23.04213855 52.9080931 17 45 C17.47197838 50.87063516 18.63914617 55.09783735 21.4375 60.25 C21.75009766 60.848125 22.06269531 61.44625 22.38476562 62.0625 C23.24820334 63.71270655 24.12365971 65.35660898 25 67 C25.67181297 68.33074774 26.34128942 69.66271821 27 71 C23.91969649 70.04657272 21.07521822 69.03865964 18.203125 67.5625 C1.12649503 59.2324366 -22.64579742 58.86601673 -40.50415039 64.78979492 C-45.74483272 66.71711731 -50.77116473 69.11310852 -55.6796875 71.765625 C-58 73 -58 73 -61 74 C-61 74.66 -61 75.32 -61 76 C-60.01 76 -59.02 76 -58 76 C-58 76.66 -58 77.32 -58 78 C-60.98494415 77.06199993 -63.81032448 76.09328304 -66.62109375 74.7109375 C-77.37304428 69.61084446 -88.35088535 70.51480684 -100 71 C-88.04236496 54.31158475 -71.89861549 45.46043297 -52 41 C-52 40.34 -52 39.68 -52 39 C-50.86304688 38.52691406 -49.72609375 38.05382812 -48.5546875 37.56640625 C-28.60499488 29.09185493 -12.22019533 18.330293 0 0 Z " fill="#B29E97" transform="translate(480,357)"/>
<path d="M0 0 C4.80545878 4.21262279 9.03009128 8.78867007 13.12890625 13.671875 C13.61335205 14.24873047 14.09779785 14.82558594 14.59692383 15.41992188 C24.3333769 27.07423547 33.04425831 39.73260257 38.7109375 53.91015625 C39.55569119 56.02035771 40.50057527 58.01032659 41.50390625 60.046875 C43.94076476 65.4388791 45.37506172 71.08686882 46.8527832 76.79956055 C47.77957764 80.32687831 48.77148576 83.54486529 50.22265625 86.90625 C51.85123416 90.73514062 52.76614976 94.43054973 53.62890625 98.484375 C54.48776641 102.48982148 55.36486188 106.41277474 56.70263672 110.29077148 C59.62738962 118.77670166 60.1855956 126.23548415 59.94140625 135.171875 C59.92335938 136.44869141 59.9053125 137.72550781 59.88671875 139.04101562 C59.84017274 142.1479619 59.77480971 145.2532375 59.69140625 148.359375 C59.03140625 148.689375 58.37140625 149.019375 57.69140625 149.359375 C57.12099609 147.97685547 57.12099609 147.97685547 56.5390625 146.56640625 C54.27729498 141.29249033 51.69307106 136.17857408 49.12890625 131.046875 C48.63455078 130.04591797 48.14019531 129.04496094 47.63085938 128.01367188 C47.15455078 127.05912109 46.67824219 126.10457031 46.1875 125.12109375 C45.75622803 124.25444092 45.32495605 123.38778809 44.88061523 122.49487305 C43.75011906 120.23558723 43.75011906 120.23558723 41.69140625 118.359375 C40.86937412 116.40091951 40.10723693 114.41707402 39.37890625 112.421875 C37.78267324 108.15745192 36.11758396 103.98516258 34.19140625 99.859375 C32.43697651 96.09679799 30.92047076 92.3236404 29.50390625 88.421875 C27.19068133 82.32940044 24.47936977 76.46863229 21.62890625 70.609375 C20.99335815 69.26758179 20.99335815 69.26758179 20.3449707 67.89868164 C19.93206787 67.0658667 19.51916504 66.23305176 19.09375 65.375 C18.54448853 64.25013184 18.54448853 64.25013184 17.98413086 63.10253906 C16.81037258 61.20203133 16.81037258 61.20203133 14.66625977 60.54589844 C12.61608344 60.17647982 12.61608344 60.17647982 10.69140625 61.359375 C0.7328013 62.34278724 -6.24752949 61.64825977 -14.30859375 55.359375 C-15.21609375 54.76125 -16.12359375 54.163125 -17.05859375 53.546875 C-22.69025559 48.07164821 -29.12817453 39.04057573 -29.38549805 30.93774414 C-29.24197627 29.29470685 -29.07839999 27.65330925 -28.89575195 26.01416016 C-28.0155913 18.41505646 -28.0155913 18.41505646 -30.5859375 11.46875 C-34.57197814 7.52960396 -39.37854486 4.93551275 -44.30859375 2.359375 C-45.44554687 1.70324219 -46.5825 1.04710937 -47.75390625 0.37109375 C-50.24281816 -1.04232228 -52.74187386 -2.37594181 -55.30859375 -3.640625 C-55.30859375 -4.300625 -55.30859375 -4.960625 -55.30859375 -5.640625 C-55.97503906 -5.72699219 -56.64148438 -5.81335938 -57.328125 -5.90234375 C-61.21802543 -6.86589707 -64.46071269 -8.60038304 -67.99609375 -10.453125 C-74.94045807 -14.01374766 -81.89564246 -17.16964124 -89.30859375 -19.640625 C-89.30859375 -20.300625 -89.30859375 -20.960625 -89.30859375 -21.640625 C-92.65511339 -22.39008464 -95.75240422 -22.76869667 -99.1796875 -22.7734375 C-100.08396484 -22.77472656 -100.98824219 -22.77601563 -101.91992188 -22.77734375 C-102.85255859 -22.77347656 -103.78519531 -22.76960938 -104.74609375 -22.765625 C-105.67486328 -22.76949219 -106.60363281 -22.77335937 -107.56054688 -22.77734375 C-112.2563296 -22.77065936 -116.69089444 -22.61196075 -121.30859375 -21.640625 C-121.30859375 -20.980625 -121.30859375 -20.320625 -121.30859375 -19.640625 C-119.65859375 -19.310625 -118.00859375 -18.980625 -116.30859375 -18.640625 C-116.63859375 -17.980625 -116.96859375 -17.320625 -117.30859375 -16.640625 C-119.07867089 -16.55948394 -120.84981473 -16.50136995 -122.62109375 -16.453125 C-123.60722656 -16.41832031 -124.59335937 -16.38351563 -125.609375 -16.34765625 C-128.30859375 -16.640625 -128.30859375 -16.640625 -130.12109375 -17.890625 C-132.19186679 -20.94229054 -132.01146734 -24.01568277 -132.30859375 -27.640625 C-133.68151243 -28.12572293 -135.05706078 -28.60338013 -136.43359375 -29.078125 C-137.19929688 -29.34496094 -137.965 -29.61179688 -138.75390625 -29.88671875 C-145.45686381 -31.86480867 -152.24649638 -31.94255669 -159.18359375 -32.203125 C-160.25351562 -32.24630859 -161.3234375 -32.28949219 -162.42578125 -32.33398438 C-165.05327129 -32.43955317 -167.68084797 -32.54166291 -170.30859375 -32.640625 C-167.05624076 -36.05765409 -163.85915333 -38.81083916 -159.87109375 -41.328125 C-158.96488281 -41.90949219 -158.05867188 -42.49085938 -157.125 -43.08984375 C-109.89216923 -69.09738025 -35.78869076 -29.79956292 0 0 Z " fill="#E4DFDC" transform="translate(545.30859375,254.640625)"/>
<path d="M0 0 C4.01163032 -0.4760748 6.23926002 -0.07527272 9.6484375 2.1875 C14.76917407 6.62195229 20.12758375 11.51619102 21.34838867 18.47436523 C21.48948324 20.7017342 21.491468 22.8786528 21.42578125 25.109375 C21.40704956 26.28922974 21.40704956 26.28922974 21.38793945 27.49291992 C21.14097444 35.74391134 20.19789888 44.72589944 14.98828125 51.421875 C12.39900501 52.21804283 10.29506184 52.6614633 7.64453125 52.96875 C6.92019897 53.07028381 6.1958667 53.17181763 5.44958496 53.27642822 C3.13143097 53.59595688 0.81055581 53.88400168 -1.51171875 54.171875 C-3.04324107 54.37951159 -4.57449641 54.5891276 -6.10546875 54.80078125 C-18.11114681 56.42857727 -29.96842151 57.5760579 -42.09765625 57.58984375 C-43.79021545 57.59599197 -43.79021545 57.59599197 -45.51696777 57.6022644 C-49.14024967 57.61175677 -52.76342631 57.6118032 -56.38671875 57.609375 C-57.61505432 57.60976776 -58.84338989 57.61016052 -60.10894775 57.61056519 C-111.84291485 57.5906789 -111.84291485 57.5906789 -115.01171875 54.421875 C-115.14453125 52.63671875 -115.14453125 52.63671875 -115.13671875 50.359375 C-115.13929688 49.62589844 -115.141875 48.89242187 -115.14453125 48.13671875 C-115.01171875 45.421875 -115.01171875 45.421875 -114.5390625 41.95703125 C-113.75232239 35.97288929 -113.65120638 29.9483913 -113.44921875 23.921875 C-113.40603516 22.71789062 -113.36285156 21.51390625 -113.31835938 20.2734375 C-113.21298707 17.32301307 -113.11085972 14.37251429 -113.01171875 11.421875 C-110.86791041 10.70727222 -108.72392295 9.99329518 -106.57885742 9.2824707 C-104.95520851 8.73816615 -103.33501856 8.18333224 -101.7199707 7.61401367 C-83.85960258 1.38557121 -62.0980737 -0.65173366 -44.01171875 5.421875 C-42.47170831 5.91127205 -40.93131047 6.39945096 -39.390625 6.88671875 C-36.19493195 7.91446981 -33.0017629 8.94843141 -29.8203125 10.01953125 C-28.82729126 10.35223022 -28.82729126 10.35223022 -27.81420898 10.69165039 C-24.94214394 11.85518101 -23.27267571 12.91567086 -21.84375 15.6875 C-18.15303595 26.49096947 -18.61644321 37.13067716 -19.01171875 48.421875 C-18.35171875 48.421875 -17.69171875 48.421875 -17.01171875 48.421875 C-16.82609375 46.875 -16.82609375 46.875 -16.63671875 45.296875 C-16.01171875 41.421875 -16.01171875 41.421875 -14.94921875 38.671875 C-12.72763782 30.97039445 -13.45653287 24.26568677 -17.13671875 17.19921875 C-18.01171875 15.421875 -18.01171875 15.421875 -18.01171875 13.421875 C-18.67171875 13.421875 -19.33171875 13.421875 -20.01171875 13.421875 C-17.52487718 7.14950794 -10.81528977 3.73783691 -4.94921875 0.984375 C-3.29718037 0.66802723 -1.64624471 0.3452319 0 0 Z " fill="#A49D99" transform="translate(509.01171875,586.578125)"/>
<path d="M0 0 C20.95721903 15.80569399 20.95721903 15.80569399 46.0859375 20.0703125 C46.0859375 20.7303125 46.0859375 21.3903125 46.0859375 22.0703125 C45.00957031 22.31265625 43.93320312 22.555 42.82421875 22.8046875 C30.23895637 25.67366388 18.28088839 28.85955961 6.62304688 34.48779297 C-0.49382793 37.89626501 -7.88547469 41.43261339 -15.9140625 41.0703125 C-13.42424059 38.50935282 -10.96176244 36.10825563 -8.1640625 33.8828125 C-5.83918862 32.26722173 -5.83918862 32.26722173 -4.9140625 30.0703125 C-5.75831787 29.96541504 -5.75831787 29.96541504 -6.61962891 29.85839844 C-18.05358995 28.40905591 -28.94645203 26.70079467 -39.9140625 23.0703125 C-40.58824219 22.85020508 -41.26242187 22.63009766 -41.95703125 22.40332031 C-46.28674756 20.98965611 -50.60414214 19.54317044 -54.9140625 18.0703125 C-54.9140625 17.4103125 -54.9140625 16.7503125 -54.9140625 16.0703125 C-55.4709375 16.06773437 -56.0278125 16.06515625 -56.6015625 16.0625 C-64.40467082 15.66707221 -68.63254829 12.49146562 -73.93359375 6.96484375 C-78.54469183 1.80905384 -78.54469183 1.80905384 -79.9140625 -0.9296875 C-80.2440625 5.6703125 -80.5740625 12.2703125 -80.9140625 19.0703125 C-81.2440625 19.0703125 -81.5740625 19.0703125 -81.9140625 19.0703125 C-82.74592302 -15.54361711 -82.74592302 -15.54361711 -74.9140625 -23.9296875 C-47.88876986 -38.20720059 -20.67464279 -15.51381735 0 0 Z " fill="#8B7C77" transform="translate(446.9140625,469.9296875)"/>
<path d="M0 0 C0.62471191 0.78173584 1.24942383 1.56347168 1.89306641 2.36889648 C7.60347361 9.49995771 12.68264999 14.9036606 21 19 C20.94199219 19.969375 20.88398438 20.93875 20.82421875 21.9375 C20.26518007 35.64430032 23.58344501 46.87984057 30 59 C30 59.99 30 60.98 30 62 C30.66 62 31.32 62 32 62 C33.26171875 63.6875 33.26171875 63.6875 34.6875 66 C47.65125499 85.89641054 68.04794985 95.80162484 90.71044922 100.61352539 C94.64509598 101.27769108 98.58011788 101.46767132 102.5625 101.625 C103.38041016 101.66367187 104.19832031 101.70234375 105.04101562 101.7421875 C107.02702969 101.83510044 109.01348208 101.91856777 111 102 C111 102.33 111 102.66 111 103 C86.00714755 103.51874468 61.59945254 102.28132263 37.01998901 97.34939575 C35.64596804 97.07762798 34.26919116 96.81939674 32.8899231 96.57565308 C22.2434932 94.65567667 22.2434932 94.65567667 19.33837891 90.78759766 C18.27636025 88.20123511 17.59435457 85.72892389 17 83 C16.56745328 81.69273045 16.1210103 80.38991674 15.65625 79.09375 C14.88541667 76.69791667 14.11458333 74.30208333 13.34375 71.90625 C12.36777983 68.95495607 11.23033154 66.10127376 10.0390625 63.23046875 C7.86489249 57.86445384 6.33487973 52.40870562 4.875 46.8125 C4.37270421 44.92309507 3.87010688 43.03377028 3.3671875 41.14453125 C3.04403564 39.91246948 3.04403564 39.91246948 2.71435547 38.65551758 C2.16910023 36.6286067 1.56158716 34.61834134 0.92675781 32.61767578 C-0.02460424 28.90395531 -0.22930862 25.79721951 -0.1953125 21.97265625 C-0.18886719 20.68681641 -0.18242187 19.40097656 -0.17578125 18.07617188 C-0.15907601 16.73827846 -0.14214619 15.40038783 -0.125 14.0625 C-0.11495322 12.69727217 -0.10583036 11.3320372 -0.09765625 9.96679688 C-0.07417605 6.64434801 -0.04133359 3.32226679 0 0 Z " fill="#B19D96" transform="translate(366,467)"/>
<path d="M0 0 C4.01163032 -0.4760748 6.23926002 -0.07527272 9.6484375 2.1875 C14.76917407 6.62195229 20.12758375 11.51619102 21.34838867 18.47436523 C21.48948324 20.7017342 21.491468 22.8786528 21.42578125 25.109375 C21.41329346 25.89594482 21.40080566 26.68251465 21.38793945 27.49291992 C21.1411543 35.73790224 20.20321151 44.73623822 14.98828125 51.421875 C12.36667301 52.22895185 10.22311308 52.68492332 7.5390625 53.00390625 C6.8076152 53.10781174 6.07616791 53.21171722 5.32255554 53.31877136 C2.98428496 53.64495086 0.6431597 53.93931962 -1.69921875 54.234375 C-3.25612842 54.45054499 -4.81277426 54.66862428 -6.36914062 54.88867188 C-7.8786707 55.09547672 -9.38843121 55.30060777 -10.8984375 55.50390625 C-11.93794807 55.64443169 -11.93794807 55.64443169 -12.99845886 55.78779602 C-17.71462253 56.37846328 -22.27075587 56.49974781 -27.01171875 56.421875 C-25.03171875 55.926875 -25.03171875 55.926875 -23.01171875 55.421875 C-22.02171875 51.131875 -21.03171875 46.841875 -20.01171875 42.421875 C-19.68171875 42.421875 -19.35171875 42.421875 -19.01171875 42.421875 C-19.01171875 44.401875 -19.01171875 46.381875 -19.01171875 48.421875 C-18.35171875 48.421875 -17.69171875 48.421875 -17.01171875 48.421875 C-16.88796875 47.390625 -16.76421875 46.359375 -16.63671875 45.296875 C-16.01171875 41.421875 -16.01171875 41.421875 -14.94921875 38.671875 C-12.72763782 30.97039445 -13.45653287 24.26568677 -17.13671875 17.19921875 C-18.01171875 15.421875 -18.01171875 15.421875 -18.01171875 13.421875 C-18.67171875 13.421875 -19.33171875 13.421875 -20.01171875 13.421875 C-17.52487718 7.14950794 -10.81528977 3.73783691 -4.94921875 0.984375 C-3.29718037 0.66802723 -1.64624471 0.3452319 0 0 Z " fill="#A39C98" transform="translate(509.01171875,586.578125)"/>
<path d="M0 0 C-0.33 8.91 -0.66 17.82 -1 27 C-3.145 28.051875 -5.29 29.10375 -7.5 30.1875 C-11.51238024 32.17274676 -15.43918458 34.16541357 -19.1875 36.625 C-24.89776011 40.33728573 -31.11001937 44 -38 44 C-37.195625 44.763125 -36.39125 45.52625 -35.5625 46.3125 C-33 49 -33 49 -32 52 C-40.13452899 52.90945045 -47.08089415 51.46451901 -54.875 49.25 C-55.77822998 48.99782715 -56.68145996 48.7456543 -57.61206055 48.48583984 C-62.72711606 46.96362059 -66.74368642 45.23086509 -71 42 C-67.76969537 40.11565563 -64.63495841 39.42516815 -61 38.7578125 C-58.3088714 37.73812705 -56.97024173 36.08218729 -55 34 C-53.34614767 32.65080468 -51.678298 31.31866272 -50 30 C-45.73410184 26.55555633 -41.87264035 22.93691604 -38.0625 19 C-26.68165468 7.347434 -16.86245244 0 0 0 Z " fill="#8F7F7A" transform="translate(579,451)"/>
<path d="M0 0 C1.85625 0.6496875 1.85625 0.6496875 3.75 1.3125 C8.50738007 2.90833003 13.31953451 4.11052594 18.203125 5.25390625 C21 6 21 6 23.40234375 7.0625 C26.73128102 8.26392097 29.78363311 8.26087643 33.3125 8.4375 C37.59317361 8.81639887 40.40429562 9.44552994 43.65234375 12.46875 C45.61031935 15.23981417 47.30673509 18.06297091 49 21 C49.55816406 21.52335938 50.11632812 22.04671875 50.69140625 22.5859375 C52 24 52 24 52.29296875 26.04296875 C52.1953125 28.02864583 52.09765625 30.01432292 52 32 C50.35 31.67 48.7 31.34 47 31 C47 30.34 47 29.68 47 29 C46.13375 28.7525 45.2675 28.505 44.375 28.25 C40.81697746 26.93221387 38.0773845 25.19813178 35 23 C40.1381225 30.99979329 40.1381225 30.99979329 47 37 C47 37.99 47 38.98 47 40 C44.98527904 41.22322344 43.60371632 42.0343471 41.21484375 41.8984375 C37.90064056 40.55405172 35.74425896 38.09732689 33.3125 35.5625 C32.81427734 35.05912109 32.31605469 34.55574219 31.80273438 34.03710938 C28.15518811 30.31037621 28.15518811 30.31037621 27 28 C27.53198267 32.25586138 29.15879533 35.50551586 31.16015625 39.23046875 C32 41 32 41 32 43 C21.74571048 42.12729451 11.70763765 37.11207387 4.7265625 29.53125 C-1.54290842 21.83587053 -3.97630699 17.04605744 -3 7 C-2.23321971 4.420427 -1.27410455 2.38894603 0 0 Z " fill="#AE9B94" transform="translate(332,651)"/>
<path d="M0 0 C4.70249854 2.82328037 7.29379778 5.7741077 9 11 C9.22705078 14.3215332 9.22705078 14.3215332 9.1953125 18.05078125 C9.1924826 18.70958786 9.18965271 19.36839447 9.18673706 20.04716492 C9.17560924 22.13580062 9.15051948 24.22399556 9.125 26.3125 C9.11496059 27.73501982 9.10583642 29.1575464 9.09765625 30.58007812 C9.07569447 34.05352681 9.04121646 37.52672033 9 41 C1.66542026 41.17639951 -5.02704435 41.17637627 -12.125 39.25 C-12.79023682 39.06953125 -13.45547363 38.8890625 -14.14086914 38.703125 C-16.1006953 38.15929271 -18.05064188 37.58023707 -20 37 C-21.13050781 36.66484375 -22.26101563 36.3296875 -23.42578125 35.984375 C-28.98615501 34.16697657 -28.98615501 34.16697657 -31 33 C-31.921875 31.1015625 -31.921875 31.1015625 -32 29 C-31.14453125 27.2109375 -31.14453125 27.2109375 -29.8125 25.375 C-27.7478377 22.33441809 -26.38614033 19.53423753 -25.1875 16.0625 C-22.56365177 9.17888197 -17.98749257 4.16116484 -12.0625 -0.125 C-7.76023392 -1.35421888 -4.28087234 -1.34520467 0 0 Z " fill="#A19B97" transform="translate(374,586)"/>
<path d="M0 0 C-4.75 4 -4.75 4 -7 4 C-7.268125 4.928125 -7.53625 5.85625 -7.8125 6.8125 C-9.49565217 11.33043478 -9.49565217 11.33043478 -12 13 C-13.66617115 13.04063832 -15.33388095 13.042721 -17 13 C-19.21370051 14.78657757 -19.21370051 14.78657757 -19.1953125 17.1640625 C-19.17210937 17.97617187 -19.14890625 18.78828125 -19.125 19.625 C-19.09792969 20.85089844 -19.09792969 20.85089844 -19.0703125 22.1015625 C-19.04710937 22.72804688 -19.02390625 23.35453125 -19 24 C-16.69 24 -14.38 24 -12 24 C-11.77957031 24.94359375 -11.77957031 24.94359375 -11.5546875 25.90625 C-8.80976369 36.38113168 -2.53345628 44.49907909 6.84375 50.1015625 C8.2034761 50.78783935 9.59824477 51.40425403 11 52 C11 52.33 11 52.66 11 53 C1.5399271 53.1351153 -7.81531867 52.73777415 -17.25 52.0625 C-18.56613281 51.97548828 -19.88226563 51.88847656 -21.23828125 51.79882812 C-22.48480469 51.71181641 -23.73132813 51.62480469 -25.015625 51.53515625 C-26.70606934 51.41732788 -26.70606934 51.41732788 -28.43066406 51.29711914 C-31 51 -31 51 -32 50 C-32.1328125 48.21484375 -32.1328125 48.21484375 -32.125 45.9375 C-32.12757813 45.20402344 -32.13015625 44.47054687 -32.1328125 43.71484375 C-32 41 -32 41 -31.52734375 37.53515625 C-30.74060364 31.55101429 -30.63948763 25.5265163 -30.4375 19.5 C-30.39431641 18.29601562 -30.35113281 17.09203125 -30.30664062 15.8515625 C-30.20126832 12.90113807 -30.09914097 9.95063929 -30 7 C-29.10704224 6.70343506 -29.10704224 6.70343506 -28.19604492 6.40087891 C-23.27267596 4.76403554 -23.27267596 4.76403554 -18.36328125 3.0859375 C-12.16952069 0.93876717 -6.59894776 -0.1571178 0 0 Z " fill="#8B837E" transform="translate(426,591)"/>
<path d="M0 0 C0.99 0 1.98 0 3 0 C0.92604691 9.65749872 -7.19100818 14.8683768 -15 20 C-25.52459016 26 -25.52459016 26 -30 26 C-30 26.66 -30 27.32 -30 28 C-36.69001299 30.81553619 -43.39667082 33.58984722 -50.125 36.3125 C-50.77605713 36.57885254 -51.42711426 36.84520508 -52.09790039 37.11962891 C-56.76919654 39 -56.76919654 39 -59 39 C-59 39.66 -59 40.32 -59 41 C-59.81082031 41.40089844 -60.62164062 41.80179687 -61.45703125 42.21484375 C-72.97672991 48.12891489 -82.68932632 55.10791764 -90 66 C-91.06154297 67.51400391 -91.06154297 67.51400391 -92.14453125 69.05859375 C-104.09375167 86.8875893 -108.04480174 106.12814367 -107.95263672 127.30029297 C-108.0218962 131.24808318 -108.4860989 135.08706801 -109 139 C-115.8035732 128.7946402 -112.57006876 108.88100643 -110.3125 97.5 C-108.7011548 89.92842583 -106.41529451 82.9672008 -103 76 C-102.63261719 75.15566406 -102.26523437 74.31132812 -101.88671875 73.44140625 C-92.37729471 52.49453061 -71.52333442 37.18924021 -50.50146484 29.03027344 C-47.94725202 28.11648389 -45.38499734 27.23592031 -42.8125 26.375 C-28.12824238 21.46067404 -14.71584284 14.94360877 -3.7578125 3.69921875 C-2 2 -2 2 0 2 C0 1.34 0 0.68 0 0 Z " fill="#DDD8D5" transform="translate(458,353)"/>
<path d="M0 0 C8.63874388 2.05684378 16.02675862 9.0049434 22.87133789 14.47241211 C25.32293733 16.41495284 27.20228228 17.76273993 30.19921875 18.76171875 C30.19921875 20.74171875 30.19921875 22.72171875 30.19921875 24.76171875 C31.07707031 24.65859375 31.95492187 24.55546875 32.859375 24.44921875 C37.34405117 24.86883757 38.59291461 26.51028211 41.63671875 29.76171875 C42.1169751 30.26719238 42.59723145 30.77266602 43.09204102 31.29345703 C46.2458307 34.63775832 49.30331964 38.06894545 52.28125 41.5703125 C54.23168632 43.7988151 56.26045244 45.94145973 58.30053711 48.08764648 C65.34422134 55.537632 71.58391583 63.49122602 77.67871094 71.72900391 C78.74017757 73.14804231 79.82058894 74.55301972 80.91503906 75.94677734 C81.46514648 76.6527002 82.01525391 77.35862305 82.58203125 78.0859375 C83.0836377 78.71975342 83.58524414 79.35356934 84.10205078 80.0065918 C85.19921875 81.76171875 85.19921875 81.76171875 85.19921875 84.76171875 C82.5625 85.16015625 82.5625 85.16015625 79.19921875 84.76171875 C76.96453379 82.66877494 75.23912564 80.77752348 73.38671875 78.38671875 C72.32383619 77.08258338 71.26002954 75.7792006 70.1953125 74.4765625 C69.68081543 73.8357373 69.16631836 73.19491211 68.63623047 72.53466797 C54.87755248 55.55955421 38.95747744 38.81901267 22.19921875 24.76171875 C21.22726562 23.92382812 20.2553125 23.0859375 19.25390625 22.22265625 C18.19449248 21.3184453 17.13459679 20.41479869 16.07421875 19.51171875 C15.10226562 18.6815625 14.1303125 17.85140625 13.12890625 16.99609375 C9.16896695 13.97598004 5.10600244 12.13057991 0.51171875 10.26171875 C-4.08897569 8.17838542 -4.08897569 8.17838542 -5.80078125 5.76171875 C-5.80078125 2.76171875 -5.80078125 2.76171875 -4.67578125 1.01171875 C-2.80078125 -0.23828125 -2.80078125 -0.23828125 0 0 Z " fill="#C6BDB7" transform="translate(366.80078125,236.23828125)"/>
<path d="M0 0 C0.93972656 0.00902344 1.87945312 0.01804687 2.84765625 0.02734375 C3.53730469 0.03894531 4.22695313 0.05054688 4.9375 0.0625 C5.2771019 1.93637477 5.60888691 3.81166697 5.9375 5.6875 C6.123125 6.73164062 6.30875 7.77578125 6.5 8.8515625 C6.92465797 11.96824865 7.01295206 14.92180812 6.9375 18.0625 C-8.96901578 21.06418127 -23.86571193 22.49155399 -40.0625 22.0625 C-40.0625 15.4625 -40.0625 8.8625 -40.0625 2.0625 C-38.36222656 2.00191406 -36.66195313 1.94132813 -34.91015625 1.87890625 C-32.64843105 1.79444348 -30.38671265 1.7097984 -28.125 1.625 C-26.44954102 1.56602539 -26.44954102 1.56602539 -24.74023438 1.50585938 C-19.11837931 1.29153645 -13.57438117 0.95379229 -7.99047852 0.26977539 C-5.321042 -0.01721354 -2.68266749 -0.03395782 0 0 Z " fill="#766F6B" transform="translate(496.0625,668.9375)"/>
<path d="M0 0 C14.72677468 -0.41161793 29.32792384 0.84601648 44 2 C44 8.27 44 14.54 44 21 C33.11 21 22.22 21 11 21 C11 20.34 11 19.68 11 19 C7.04 19 3.08 19 -1 19 C-1.10349817 12.58311325 -0.74507544 6.37305598 0 0 Z " fill="#7A726E" transform="translate(402,669)"/>
<path d="M0 0 C0.98009033 0.06509766 1.96018066 0.13019531 2.9699707 0.19726562 C9.79174058 0.6771836 16.58110608 1.42689556 23.37451172 2.20092773 C37.79244572 3.70250212 52.39200462 3.63709386 66.875 3.9375 C66.49828533 6.52939557 66.08504257 7.72837826 64.2043457 9.60083008 C61.87794176 11.33594079 59.54491862 13.05716298 57.1875 14.75 C56.38376953 15.36037109 55.58003906 15.97074219 54.75195312 16.59960938 C48.85970366 20.87305604 48.85970366 20.87305604 44.890625 21.1328125 C40.51582319 19.39875893 36.43044091 17.27075937 32.3125 15 C29.17651741 13.293195 26.03070825 11.60749023 22.875 9.9375 C22.00101562 9.45667969 21.12703125 8.97585938 20.2265625 8.48046875 C16.62241692 7.64828231 14.21092192 8.86447799 10.8125 10.1875 C9.60464844 10.64640625 8.39679688 11.1053125 7.15234375 11.578125 C4.01954007 12.80627031 4.01954007 12.80627031 1.75390625 14.109375 C-0.79312073 15.23197317 -2.35883208 15.32616933 -5.125 14.9375 C-8.01953125 13.2578125 -8.01953125 13.2578125 -10.9375 11.0625 C-11.91332031 10.34320312 -12.88914062 9.62390625 -13.89453125 8.8828125 C-14.63058594 8.24085938 -15.36664063 7.59890625 -16.125 6.9375 C-16.125 4.9375 -16.125 4.9375 -13.7578125 2.30859375 C-9.4483847 -1.11804361 -5.2458468 -0.46536107 0 0 Z " fill="#958E8A" transform="translate(399.125,697.0625)"/>
<path d="M0 0 C0 1.32 0 2.64 0 4 C-10.63458891 7.1888287 -20.92548417 9.14419565 -32 10 C-33.12712402 10.08830078 -34.25424805 10.17660156 -35.41552734 10.26757812 C-47.42302881 11.12651372 -59.42209391 11.1528055 -71.45556641 11.13037109 C-74.86235017 11.12501987 -78.26900151 11.1303436 -81.67578125 11.13671875 C-97.16165465 11.1420559 -112.6303139 11.05691769 -128 9 C-128.33 6.69 -128.66 4.38 -129 2 C-127.66679321 1.97222486 -126.33340287 1.95326659 -125 1.9375 C-124.2575 1.92589844 -123.515 1.91429687 -122.75 1.90234375 C-120 2 -120 2 -116.34912109 2.47192383 C-100.98633963 4.4295688 -85.32530518 4.21426045 -69.86865234 4.24023438 C-66.40047098 4.2499288 -62.93288699 4.281075 -59.46484375 4.3125 C-42.74898459 4.39005406 -26.56242921 2.88258105 -10.04443359 0.40722656 C-6.66771663 -0.04444656 -3.40274059 -0.06944369 0 0 Z " fill="#9C9692" transform="translate(524,649)"/>
<path d="M0 0 C5.9971219 -0.30107668 11.14682949 0.82044165 16.9375 2.3125 C23.49739411 3.9511821 30.02184836 5.42931496 36.6875 6.5625 C41.83169825 7.49640159 46.40725771 8.64810488 51.17578125 10.77734375 C53.53342126 11.79800948 55.87761207 12.69750183 58.29296875 13.56640625 C66.9099599 16.69336741 74.22933021 19.63929737 81 26 C81.93972656 26.825 82.87945313 27.65 83.84765625 28.5 C92.50594814 36.15225191 100.72947844 44.23793802 107 54 C102.98582442 53.48376456 101.65644745 51.71240174 99.1875 48.625 C90.95797091 39.14610346 79.95998916 31.99146074 69 26 C68.39929688 25.65839844 67.79859375 25.31679688 67.1796875 24.96484375 C64.15418073 23.62559613 61.01879572 22.89096139 57.8125 22.125 C57.1127002 21.95355469 56.41290039 21.78210938 55.69189453 21.60546875 C51.30677053 20.53673495 46.91183598 19.5122 42.51416016 18.49658203 C39.00516728 17.6820087 35.50217507 16.84332171 32 16 C30.80503906 15.71640625 29.61007812 15.4328125 28.37890625 15.140625 C21.64939947 13.39905003 15.48239369 11.03760204 9.25 8 C8.55769287 7.66774414 7.86538574 7.33548828 7.15209961 6.99316406 C4.31274411 5.54627716 2.29777515 4.4610712 0.546875 1.75 C0.36640625 1.1725 0.1859375 0.595 0 0 Z " fill="#DCD7D4" transform="translate(491,343)"/>
<path d="M0 0 C11.35497537 -0.21574785 22.61899702 -0.14202491 33.9375 0.875 C34.84129395 0.95347168 35.74508789 1.03194336 36.67626953 1.11279297 C41.67780293 1.60196115 46.16745895 2.57257525 51 4 C54.15426868 4.58555845 57.32477552 5.04353013 60.5 5.5 C66.15713392 6.31326886 71.53823323 7.29686843 77 9 C77 9.66 77 10.32 77 11 C46.33253396 25.32676604 46.33253396 25.32676604 38 25 C40.48982191 22.43904032 42.95230006 20.03794313 45.75 17.8125 C48.07487388 16.19690923 48.07487388 16.19690923 49 14 C48.43716309 13.93006836 47.87432617 13.86013672 47.29443359 13.78808594 C31.2435681 11.75351526 15.7968423 8.93823227 1 2 C0.67 1.34 0.34 0.68 0 0 Z " fill="#22201E" transform="translate(393,486)"/>
<path d="M0 0 C2.76526181 0 3.57546844 0.9113256 5.625 2.75 C11.518799 9.66081629 9.62358161 19.52585412 9 28 C8.95166016 28.73412109 8.90332031 29.46824219 8.85351562 30.22460938 C8.09221214 40.71477821 5.42759477 50.1505111 2 60 C1.46938007 61.57138782 0.93945082 63.14300901 0.41015625 64.71484375 C-0.12084912 66.26875857 -0.65336578 67.82215789 -1.1875 69.375 C-1.43725586 70.10710693 -1.68701172 70.83921387 -1.94433594 71.59350586 C-3.76569305 76.76569305 -3.76569305 76.76569305 -6 79 C-5.33515497 22.81875804 -5.33515497 22.81875804 0 0 Z " fill="#9F9792" transform="translate(599,427)"/>
<path d="M0 0 C1.27531922 3.82595766 0.47213059 4.71582255 -1.1875 8.3125 C-3.58967275 13.82104409 -5.2758996 19.28066045 -6.83984375 25.07421875 C-7.87464901 28.73966222 -9.18500728 32.27309829 -10.52148438 35.83764648 C-19.68490994 60.59501453 -20.89167066 84.90112432 -21 111 C-27.14160648 104.85839352 -25.33389766 87.29773555 -25.37109375 78.8671875 C-25.37093262 78.06506836 -25.37077148 77.26294922 -25.37060547 76.43652344 C-25.37499774 74.0012504 -25.41155468 71.56777029 -25.44921875 69.1328125 C-25.55338226 54.46314936 -22.61387571 40.63369816 -17 27 C-16.34 26.34 -15.68 25.68 -15 25 C-14.46614891 23.59573953 -13.97223872 22.17616094 -13.5 20.75 C-10.69800935 13.41758768 -5.57741374 5.57741374 0 0 Z " fill="#282624" transform="translate(349,355)"/>
<path d="M0 0 C0.66 0.66 1.32 1.32 2 2 C1.23816406 2.21785156 0.47632813 2.43570313 -0.30859375 2.66015625 C-3.77146829 4.3840546 -4.44069193 5.96348773 -6.0625 9.4375 C-6.56394531 10.50871094 -7.06539063 11.57992187 -7.58203125 12.68359375 C-9.26293159 16.6149557 -10.76705881 20.57659438 -12.140625 24.625 C-13 27 -13 27 -14.1015625 29.078125 C-15.47385409 32.0136357 -15.12252605 34.81432259 -15 38 C-16.89825285 37.57312017 -18.79353183 37.13300518 -20.6875 36.6875 C-21.74324219 36.44386719 -22.79898437 36.20023438 -23.88671875 35.94921875 C-26.97575628 35.00739175 -29.31817964 33.77627063 -32 32 C-31.62575925 28.8189536 -30.99777705 26.9967039 -29.1875 24.3125 C-27.30387757 21.46015747 -26.3520543 19.35162034 -25.25 16.1875 C-22.58879218 9.25159615 -18.04243525 4.20091061 -12.0625 -0.125 C-7.91472921 -1.31007737 -4.16742708 -1.1085356 0 0 Z " fill="#87827F" transform="translate(374,586)"/>
<path d="M0 0 C1.92960571 0.24447876 1.92960571 0.24447876 3.89819336 0.49389648 C8.8247557 1.03915505 13.67670329 1.12850688 18.62890625 1.09765625 C19.94156715 1.09553383 19.94156715 1.09553383 21.28074646 1.09336853 C24.04136762 1.08782719 26.80190388 1.07528612 29.5625 1.0625 C31.44856653 1.0574774 33.33463434 1.05291583 35.22070312 1.04882812 C39.81383417 1.03787707 44.40690275 1.02065384 49 1 C49.99 4.3 50.98 7.6 52 11 C34.12176642 13.64135075 16.8060602 13.08239361 -1 10 C-1.125 2.25 -1.125 2.25 0 0 Z " fill="#605A57" transform="translate(380,726)"/>
<path d="M0 0 C-3.60738722 3.97702462 -7.1778666 6.41352963 -12.0625 8.6875 C-12.67416016 8.98205078 -13.28582031 9.27660156 -13.91601562 9.58007812 C-15.60732057 10.39373293 -17.30349506 11.19724379 -19 12 C-19.72058594 12.39832031 -20.44117188 12.79664063 -21.18359375 13.20703125 C-23 14 -23 14 -27 14 C-25.7934375 15.1446875 -25.7934375 15.1446875 -24.5625 16.3125 C-22 19 -22 19 -21 22 C-32.11915305 22.94765509 -43.17409926 20.36413969 -53 15 C-53 14.34 -53 13.68 -53 13 C-44.72493575 9.6958224 -36.38654109 6.73338564 -27.91845703 3.96826172 C-23.8819929 2.67910672 -23.8819929 2.67910672 -20 1 C-13.30048984 0.04292712 -6.76046157 -0.11372739 0 0 Z " fill="#23211F" transform="translate(568,481)"/>
<path d="M0 0 C7.1178153 2.03807293 14.06707281 4.40344742 21 7 C20.30621489 10.26011642 19.54106009 11.79038253 17 14 C16.67 13.34 16.34 12.68 16 12 C15.67 12.99 15.34 13.98 15 15 C13.02 15 11.04 15 9 15 C9 16.65 9 18.3 9 20 C10.32 20.66 11.64 21.32 13 22 C11.31606919 27.56992498 9.70789009 31.52500401 5.25 35.375 C1.30021952 37.34989024 -0.77560958 37.0138537 -5 36 C-5.22858169 30.42555617 -4.39507635 25.64820004 -3.0625 20.25 C-1.47185435 13.50704563 -0.30581117 6.9419136 0 0 Z " fill="#3B3938" transform="translate(324,576)"/>
<path d="M0 0 C3.33658057 0.43052652 6.00260385 1.42874256 9 2.875 C20.63094462 8.13752576 33.44639914 8.87322484 46 10 C46.02689216 11.47906892 46.04634621 12.95827483 46.0625 14.4375 C46.07410156 15.26121094 46.08570313 16.08492187 46.09765625 16.93359375 C46 19 46 19 45 20 C28.1375151 21.36038809 12.19537585 15.68048956 -3 9 C-2.38550003 5.66177043 -1.65439171 2.97790508 0 0 Z " fill="#756E6A" transform="translate(336,629)"/>
<path d="M0 0 C2.84280937 -0.55620183 4.23636321 -0.71414331 7 0 C12.92681583 4.08432944 18.33609748 9.18072081 21 16 C21.51177324 18.92089449 21.52461661 21.72901978 21.4375 24.6875 C21.42501221 25.47406982 21.41252441 26.26063965 21.3996582 27.07104492 C21.1588553 35.11616296 20.36646338 44.62660958 15 51 C11.3125 51.3125 11.3125 51.3125 8 51 C8.28875 50.030625 8.5775 49.06125 8.875 48.0625 C12.22944444 36.20326252 15.21148357 22.38771988 9 11 C6.33054629 7.34591172 3.77768493 4.51845662 0 2 C0 1.34 0 0.68 0 0 Z " fill="#BFBBB8" transform="translate(509,587)"/>
<path d="M0 0 C5.21733886 2.71301621 9.34961922 6.69923844 12 12 C12.14640501 13.64142541 12.22096589 15.2898141 12.25 16.9375 C12.27578125 17.81277344 12.3015625 18.68804687 12.328125 19.58984375 C12 22 12 22 10.66015625 23.7890625 C8.01877678 25.71571576 6.1860818 25.43730535 3 25 C-2.56506054 22.04711073 -6.330409 18.10066901 -9.3125 12.5625 C-10.37649541 8.59669891 -10.97235631 4.77312033 -8.9375 1.0625 C-5.8132757 -0.65078429 -3.50010732 -0.41526697 0 0 Z " fill="#9B948F" transform="translate(504,282)"/>
<path d="M0 0 C1.98 0 3.96 0 6 0 C6.64633275 1.77065111 7.2920483 3.54152753 7.9375 5.3125 C8.29714844 6.29863281 8.65679687 7.28476562 9.02734375 8.30078125 C10.35589473 11.98764361 11.1191544 14.7783465 11.0625 18.6875 C11.05347656 19.49574219 11.04445313 20.30398438 11.03515625 21.13671875 C11.02355469 21.75160156 11.01195312 22.36648438 11 23 C5.20200116 27.0333905 0.98629919 27.50604984 -6 27 C-6.10957031 26.24976563 -6.21914063 25.49953125 -6.33203125 24.7265625 C-7.26866171 18.68034636 -8.46083475 12.9579166 -10.4140625 7.15625 C-11 5 -11 5 -11 1 C-9.02 1 -7.04 1 -5 1 C-3 5.66666667 -1 10.33333333 1 15 C1.20589721 7.43592467 1.20589721 7.43592467 0 0 Z " fill="#9D9692" transform="translate(490,699)"/>
<path d="M0 0 C0 0.99 0 1.98 0 3 C-1.6875 4.54296875 -1.6875 4.54296875 -4 6.1875 C-12.66594231 12.69374822 -18.49400366 19.67465429 -24 29 C-25 30.66666667 -26 32.33333333 -27 34 C-28.31225809 30.06322574 -27.3393954 28.2205738 -26.0625 24.3125 C-25.68222656 23.13300781 -25.30195313 21.95351563 -24.91015625 20.73828125 C-24.60980469 19.83464844 -24.30945313 18.93101562 -24 18 C-24.66 18.33 -25.32 18.66 -26 19 C-28.6875 19.5625 -28.6875 19.5625 -32 19 C-35.52550756 16.27991902 -38.50128398 13.18521371 -39.51171875 8.7578125 C-39.5625 6.625 -39.5625 6.625 -39 3 C-37 1 -37 1 -34.25 0.625 C-30.17285613 1.09543968 -28.15647356 2.41743072 -25 5 C-22.61973982 8.24580934 -22.9465217 11.07469255 -23 15 C-22.13117188 14.32453125 -21.26234375 13.6490625 -20.3671875 12.953125 C-19.20320632 12.05197828 -18.03913923 11.15094253 -16.875 10.25 C-16.30523437 9.8065625 -15.73546875 9.363125 -15.1484375 8.90625 C-4.52326095 0.6958863 -4.52326095 0.6958863 0 0 Z " fill="#7E7874" transform="translate(332,298)"/>
<path d="M0 0 C13.2720499 0.97929689 13.2720499 0.97929689 18.3125 6.125 C20.62769401 8.93757584 21.38147764 10.79059066 21.375 14.4375 C21.25125 15.613125 21.1275 16.78875 21 18 C19.35 17.67 17.7 17.34 16 17 C16 16.34 16 15.68 16 15 C14.700625 14.62875 14.700625 14.62875 13.375 14.25 C9.81697746 12.93221387 7.0773845 11.19813178 4 9 C9.1381225 16.99979329 9.1381225 16.99979329 16 23 C16 23.99 16 24.98 16 26 C13.93022589 27.25664857 12.60355667 28.05742083 10.15234375 27.82421875 C7.21093632 26.69783587 5.53494585 24.96877239 3.3125 22.75 C2.52488281 21.98171875 1.73726563 21.2134375 0.92578125 20.421875 C-2.17099022 16.5273551 -2.15051026 12.71325736 -2.1875 7.875 C-2.20167969 7.02679687 -2.21585937 6.17859375 -2.23046875 5.3046875 C-2 3 -2 3 0 0 Z " fill="#C8B2AB" transform="translate(363,665)"/>
<path d="M0 0 C1.44207941 2.88415883 1.09394887 5.41721528 1.0625 8.625 C1.05347656 9.81351563 1.04445313 11.00203125 1.03515625 12.2265625 C1.02355469 13.14179687 1.01195312 14.05703125 1 15 C-5.47990359 18.47994823 -12.50312314 22 -20 22 C-22.29612756 10.47835991 -22.29612756 10.47835991 -22 5 C-18.26363853 3.9102279 -14.52926527 2.86831904 -10.75 1.9375 C-3 0 -3 0 0 0 Z " fill="#78706C" transform="translate(533,662)"/>
<path d="M0 0 C7.92 0.33 15.84 0.66 24 1 C24 1.66 24 2.32 24 3 C25.093125 3.103125 26.18625 3.20625 27.3125 3.3125 C31.1734414 4.03233653 31.5030346 4.38953617 34 7 C36.58416247 7.33374277 36.58416247 7.33374277 39 7 C39.33 6.67 39.66 6.34 40 6 C42.3125 5.5625 42.3125 5.5625 45 6 C47.375 8.6875 47.375 8.6875 49 12 C48.75 14.875 48.75 14.875 48 17 C45.09479441 17.84756721 43.47142328 18.16868531 40.58398438 17.13549805 C39.35131836 16.45547729 39.35131836 16.45547729 38.09375 15.76171875 C36.73056641 15.02598633 36.73056641 15.02598633 35.33984375 14.27539062 C33.93412109 13.48938477 33.93412109 13.48938477 32.5 12.6875 C30.63649596 11.66859648 28.77194541 10.65160413 26.90625 9.63671875 C26.08447266 9.17998779 25.26269531 8.72325684 24.41601562 8.25268555 C19.21088907 5.41009965 19.21088907 5.41009965 13.484375 5.86328125 C12.23306933 6.32922102 10.98822753 6.8128418 9.75 7.3125 C9.11320312 7.55162109 8.47640625 7.79074219 7.8203125 8.03710938 C4.66865703 9.11079705 4.66865703 9.11079705 2 11 C-0.33297433 11.04092937 -2.66705225 11.04241723 -5 11 C-5.33 10.01 -5.66 9.02 -6 8 C-2.535 7.505 -2.535 7.505 1 7 C1.15149298 3.37114676 1.15149298 3.37114676 0 0 Z " fill="#9E9793" transform="translate(400,700)"/>
<path d="M0 0 C2 0 2 0 4.625 2.0625 C8.85055293 7.33819035 7.61463093 14.67442338 7 21 C6.24316366 24.76698086 5.26652954 28.37380529 4 32 C3.34 32 2.68 32 2 32 C1.9175 32.969375 1.835 33.93875 1.75 34.9375 C1.1000875 39.67119101 -0.92305323 43.73984407 -3 48 C-3.33 48 -3.66 48 -4 48 C-4.34809683 33.30852864 -4.06016557 19.39704839 -1 5 C-0.66624718 3.33341729 -0.33271212 1.66679079 0 0 Z " fill="#AAA29D" transform="translate(599,427)"/>
<path d="M0 0 C2.41795048 1.37865598 4.68522802 2.87337547 6.94921875 4.4921875 C15.95363333 8.94251276 26.38727686 8.27963471 36.1875 8.1875 C37.50169922 8.18685547 38.81589844 8.18621094 40.16992188 8.18554688 C46.53276311 8.15666862 52.71221691 7.9986949 59 7 C57.6875 8.5 57.6875 8.5 56 10 C55.01 10 54.02 10 53 10 C53 10.66 53 11.32 53 12 C44.27497182 14.03160739 35.93077006 14.27319866 27 14 C25.94296875 13.99355469 24.8859375 13.98710938 23.796875 13.98046875 C15.87291216 13.70043341 9.69705378 11.21316998 3 7 C2.23429687 6.15115234 2.23429687 6.15115234 1.453125 5.28515625 C0.0406246 3.76074301 0.0406246 3.76074301 -2.26171875 3.92578125 C-3.06222656 4.05339844 -3.86273438 4.18101562 -4.6875 4.3125 C-5.49574219 4.43238281 -6.30398438 4.55226563 -7.13671875 4.67578125 C-7.75160156 4.78277344 -8.36648438 4.88976562 -9 5 C-9 3.68 -9 2.36 -9 1 C-5.4886345 -0.17045517 -3.70166281 -0.47112072 0 0 Z " fill="#2A2725" transform="translate(468,541)"/>
<path d="M0 0 C9.06335876 -0.10234659 17.98175113 -0.06996173 27 1 C27 1.33 27 1.66 27 2 C22.38 2.33 17.76 2.66 13 3 C13 8.28 13 13.56 13 19 C17.29 19.33 21.58 19.66 26 20 C26 20.33 26 20.66 26 21 C21.05 21 16.1 21 11 21 C11 20.34 11 19.68 11 19 C7.04 19 3.08 19 -1 19 C-1.10349817 12.58311325 -0.74507544 6.37305598 0 0 Z " fill="#4F4A47" transform="translate(402,669)"/>
<path d="M0 0 C3.83128677 0 5.97885919 0.19176113 9.0234375 2.6015625 C12.23260962 5.99411588 13.8577798 8.13245679 14.625 12.8125 C14 16 14 16 12.875 17.9375 C9.8598776 19.64606936 8.42661533 19.72486093 5 19 C0.8999735 15.67973314 -1.60847154 12.30509487 -3.125 7.25 C-2.98887864 3.71084464 -2.4700642 2.4700642 0 0 Z " fill="#7E7874" transform="translate(281,358)"/>
<path d="M0 0 C0 0.66 0 1.32 0 2 C0.5775 2.2475 1.155 2.495 1.75 2.75 C4.49892155 4.27717864 6.12021847 5.44886792 8 8 C8.46376329 10.85044753 8.28369615 13.06847312 8 16 C6 18 6 18 2.3125 18.625 C-0.53914035 18.55722793 -1.7674802 18.17231768 -4.08203125 16.45703125 C-7.29498839 13.07393789 -8.86021867 10.85266611 -9.625 6.1875 C-9 3 -9 3 -7.875 1.0625 C-5.214973 -0.44484863 -2.99793795 -0.19986253 0 0 Z " fill="#7E7874" transform="translate(332,343)"/>
<path d="M0 0 C1.79244141 0.23009766 1.79244141 0.23009766 3.62109375 0.46484375 C10.08534064 1.1830934 16.56549882 1.35180512 23.0625 1.5625 C24.93325195 1.62727539 24.93325195 1.62727539 26.84179688 1.69335938 C29.89444091 1.79862296 32.94715523 1.90075941 36 2 C36 2.33 36 2.66 36 3 C31.05 3 26.1 3 21 3 C21 5.97 21 8.94 21 12 C18.08302989 11.85895309 15.1665198 11.71235186 12.25 11.5625 C11.0125 11.50352539 11.0125 11.50352539 9.75 11.44335938 C8.95078125 11.40146484 8.1515625 11.35957031 7.328125 11.31640625 C6.5949707 11.27974854 5.86181641 11.24309082 5.10644531 11.20532227 C2.98822395 10.99885215 1.0480544 10.56867914 -1 10 C-1.125 2.25 -1.125 2.25 0 0 Z " fill="#484441" transform="translate(380,726)"/>
<path d="M0 0 C4.69271824 0.16181787 7.90514331 0.38904996 11.5 3.5625 C13.72296526 6.06333592 14.40140971 7.84775379 14.5 11.1875 C14 15 14 15 12 18 C8.6875 18.5 8.6875 18.5 5 18 C2.1875 15.625 2.1875 15.625 0 13 C-0.66 12.34 -1.32 11.68 -2 11 C-2.46376812 3.69565217 -2.46376812 3.69565217 0 0 Z " fill="#7D7773" transform="translate(324,469)"/>
<path d="M0 0 C3.91061327 1.3703306 7.06701812 3.06701812 10 6 C9.75 8.5625 9.75 8.5625 9 11 C5.04681036 12.97659482 0.30683492 12.4399455 -4 12 C-7.25989269 10.86522723 -10.51856589 9.48143411 -13 7 C-13.25 4.5625 -13.25 4.5625 -13 2 C-8.72550786 -0.84966143 -5.01892796 -0.62273257 0 0 Z " fill="#C1BDBA" transform="translate(461,593)"/>
<path d="M0 0 C-0.7734375 0.68964844 -1.546875 1.37929688 -2.34375 2.08984375 C-12.77115124 11.45973327 -20.93634053 20.82612672 -28 33 C-28.45890625 33.78761719 -28.9178125 34.57523437 -29.390625 35.38671875 C-30.27250104 36.91758102 -31.13896803 38.45731773 -32 40 C-33.88576971 34.34269087 -31.01437865 28.41037723 -29 23 C-24.44463642 14.47782111 -11.28112526 -3.76037509 0 0 Z " fill="#292725" transform="translate(379,257)"/>
<path d="M0 0 C8.25 0 16.5 0 25 0 C23.9563478 4.1746088 23.84955499 4.51796118 20.62109375 6.796875 C19.61079102 7.52197266 19.61079102 7.52197266 18.58007812 8.26171875 C17.51950195 8.99841797 17.51950195 8.99841797 16.4375 9.75 C15.72658203 10.25660156 15.01566406 10.76320313 14.28320312 11.28515625 C12.52898568 12.53312303 10.76536641 13.76785497 9 15 C8.70351563 14.38382813 8.40703125 13.76765625 8.1015625 13.1328125 C7.03843105 10.9216706 7.03843105 10.9216706 5.375 8.875 C4 7 4 7 4 5 C2.68 5 1.36 5 0 5 C0 3.35 0 1.7 0 0 Z " fill="#88807B" transform="translate(441,701)"/>
<path d="M0 0 C14.91420644 -0.8125173 28.11728664 0.89118863 40 11 C42.17740141 13.24530374 44.07158166 15.52766879 46 18 C42.99822251 17.09248587 40.33982278 16.20865005 37.65917969 14.56274414 C34.86955091 12.92333781 32.19549432 11.86742262 29.140625 10.80859375 C27.46613281 10.22754883 27.46613281 10.22754883 25.7578125 9.63476562 C24.60023438 9.23966797 23.44265625 8.84457031 22.25 8.4375 C21.10789062 8.03853516 19.96578125 7.63957031 18.7890625 7.22851562 C12.56668858 5.08644552 6.45787201 3.27096417 0 2 C0 1.34 0 0.68 0 0 Z " fill="#2C2A27" transform="translate(519,318)"/>
<path d="M0 0 C1.98 0 3.96 0 6 0 C6.64633275 1.77065111 7.2920483 3.54152753 7.9375 5.3125 C8.29714844 6.29863281 8.65679687 7.28476562 9.02734375 8.30078125 C10.35589473 11.98764361 11.1191544 14.7783465 11.0625 18.6875 C11.05347656 19.49574219 11.04445313 20.30398438 11.03515625 21.13671875 C11.02355469 21.75160156 11.01195312 22.36648438 11 23 C5.375 26 5.375 26 2 26 C2.03480469 24.44152344 2.03480469 24.44152344 2.0703125 22.8515625 C2.19104158 14.98908095 2.06158401 7.65731203 0 0 Z " fill="#9E9894" transform="translate(490,699)"/>
<path d="M0 0 C6.44585225 0.83172287 12.26516986 4.10007456 18 7 C17.01 9.64 16.02 12.28 15 15 C10.51006131 14.41347648 6.77456816 13.2356462 2.625 11.4375 C1.56539063 10.98246094 0.50578125 10.52742187 -0.5859375 10.05859375 C-1.38257813 9.70925781 -2.17921875 9.35992188 -3 9 C-2.38550003 5.66177043 -1.65439171 2.97790508 0 0 Z " fill="#665F5B" transform="translate(336,629)"/>
<path d="M0 0 C9.62295183 -0.43814452 18.73402562 0.29948875 28 3 C28.33 3.66 28.66 4.32 29 5 C26.64995631 5.84686259 24.2960687 6.67750196 21.9375 7.5 C20.95233398 7.85771484 20.95233398 7.85771484 19.94726562 8.22265625 C15.52898493 9.74620132 11.73341744 10.49392182 7 10 C4.75 7.25 4.75 7.25 3 4 C2.01687835 2.65417327 1.02005747 1.31805179 0 0 Z " fill="#BEAAA2" transform="translate(384,578)"/>
<path d="M0 0 C0 0.99 0 1.98 0 3 C-1.6875 4.54296875 -1.6875 4.54296875 -4 6.1875 C-12.66594231 12.69374822 -18.49400366 19.67465429 -24 29 C-25 30.66666667 -26 32.33333333 -27 34 C-28.18414294 30.44757118 -27.69535532 29.30169438 -26.5625 25.8125 C-26.27503906 24.91144531 -25.98757813 24.01039063 -25.69140625 23.08203125 C-25.46324219 22.39496094 -25.23507812 21.70789063 -25 21 C-24.34 21 -23.68 21 -23 21 C-22.95875 20.319375 -22.9175 19.63875 -22.875 18.9375 C-20.27858643 10.22096871 -11.48085543 5.27179767 -4 1 C-1.6328125 0.2734375 -1.6328125 0.2734375 0 0 Z " fill="#23221F" transform="translate(332,298)"/>
<path d="M0 0 C-0.66498383 4.38889325 -2.18757677 7.9811485 -4 12 C-5.58409994 11.88512252 -7.16728963 11.75765492 -8.75 11.625 C-10.07257812 11.52058594 -10.07257812 11.52058594 -11.421875 11.4140625 C-14.10219527 10.98358682 -15.80820921 10.60928784 -18 9 C-18.75 6.375 -18.75 6.375 -19 4 C-16.39688008 3.32900016 -13.79264602 2.66304662 -11.1875 2 C-10.44951172 1.80921875 -9.71152344 1.6184375 -8.95117188 1.421875 C-5.89464659 0.64737086 -3.16626522 0 0 0 Z " fill="#CBC7C5" transform="translate(527,692)"/>
<path d="M0 0 C7.37443404 1.80263943 13.61273171 4.61273171 19 10 C16.16668861 11.4166557 14.80003164 10.53733955 11.79296875 9.63671875 C10.73650146 9.32742432 9.68003418 9.01812988 8.59155273 8.69946289 C7.46821533 8.36551514 6.34487793 8.03156738 5.1875 7.6875 C-3.51426312 5.16437896 -11.95876506 2.88075649 -21 2 C-15.31097036 -1.79268643 -6.67313054 -0.71447399 0 0 Z " fill="#33302E" transform="translate(481,259)"/>
<path d="M0 0 C17.43420865 0.52556346 34.66882127 2.12964031 52 4 C52.125 6.375 52.125 6.375 52 9 C50 11 50 11 47.5625 11.3125 C44.44881468 10.93278228 44.15107393 10.15107393 42 8 C39.69011685 7.25613932 37.35684056 6.57809297 35 6 C35 5.34 35 4.68 35 4 C33.88882813 4.02320313 32.77765625 4.04640625 31.6328125 4.0703125 C24.29896115 4.17674369 17.33397892 4.24672561 10.16015625 2.51171875 C6.8034449 1.71654843 3.42560272 1.38062252 0 1 C0 0.67 0 0.34 0 0 Z " fill="#625D59" transform="translate(389,697)"/>
<path d="M0 0 C4.16540478 1.38846826 5.46159133 4.31780625 7.6875 7.875 C8.10322266 8.51308594 8.51894531 9.15117187 8.94726562 9.80859375 C12 14.61076047 12 14.61076047 12 18 C9.23776197 18.5022251 7.54325877 18.35673215 5.1796875 16.8046875 C1.98863443 14.14770189 -0.45120505 11.9286506 -2 8 C-2.0777346 5.66796188 -2.08967728 3.33160941 -2 1 C-1.34 0.67 -0.68 0.34 0 0 Z " fill="#7F7974" transform="translate(446,322)"/>
<path d="M0 0 C2.55375615 3.17494007 4.37447153 6.48103661 6.1875 10.125 C6.71730469 11.17945313 7.24710937 12.23390625 7.79296875 13.3203125 C9 16 9 16 9 18 C8.01 18 7.02 18 6 18 C5.67 19.65 5.34 21.3 5 23 C2.29068581 22.84518205 0.53415961 22.51827919 -1.4453125 20.59765625 C-2.67679642 19.10228292 -3.8429837 17.5537076 -5 16 C-4.195625 16.433125 -4.195625 16.433125 -3.375 16.875 C-0.64719516 18.16711808 2.12612718 19.08558592 5 20 C2.113311 13.89495986 -0.96712129 8.41557999 -5 3 C-5 2.67 -5 2.34 -5 2 C-3.35 2 -1.7 2 0 2 C0 1.34 0 0.68 0 0 Z " fill="#958E89" transform="translate(453,320)"/>
<path d="M0 0 C2.3431213 0.25561323 4.67843403 0.59270772 7 1 C8.38550197 3.77100394 8.1877467 5.9334706 8 9 C7.01 10.485 7.01 10.485 6 12 C2.5 12.3125 2.5 12.3125 -1 12 C-3 10 -3 10 -3.3125 7.125 C-2.9736202 3.73620199 -2.27183419 2.46115371 0 0 Z " fill="#C2BEBB" transform="translate(505,620)"/>
<path d="M0 0 C1.32 0 2.64 0 4 0 C5.42247747 2.84495493 5.20793601 5.3311796 5.25 8.5 C5.28867187 10.24796875 5.28867187 10.24796875 5.328125 12.03125 C5.21984375 13.0109375 5.1115625 13.990625 5 15 C2 17 2 17 -1 17 C-1.96328543 13.74794841 -2.16468233 10.76114248 -2.1875 7.375 C-2.20167969 6.41335938 -2.21585938 5.45171875 -2.23046875 4.4609375 C-2 2 -2 2 0 0 Z " fill="#A09691" transform="translate(529,662)"/>
<path d="M0 0 C0 0.66 0 1.32 0 2 C0.66 2 1.32 2 2 2 C3.125 8.75 3.125 8.75 2 11 C0.52093108 11.02689216 -0.95827483 11.04634621 -2.4375 11.0625 C-3.67306641 11.07990234 -3.67306641 11.07990234 -4.93359375 11.09765625 C-7 11 -7 11 -8 10 C-8.4626087 3.75478261 -8.4626087 3.75478261 -6.8125 1.0625 C-4.43958382 -0.32851983 -2.70313576 -0.21917317 0 0 Z " fill="#B3AEAB" transform="translate(414,603)"/>
<path d="M0 0 C5.77759884 -0.12036664 11.27959989 0.1679418 17 1 C15.68 1.33 14.36 1.66 13 2 C13.33 3.65 13.66 5.3 14 7 C15.65 7 17.3 7 19 7 C19 7.33 19 7.66 19 8 C12.8894576 8.11269443 7.04829486 7.89604368 1 7 C0.67 4.69 0.34 2.38 0 0 Z " fill="#706864" transform="translate(395,651)"/>
<path d="M0 0 C7.37480394 0.06152995 13.53241679 1.71528582 19.1875 6.5625 C19.64125 7.14 20.095 7.7175 20.5625 8.3125 C15.22759659 7.6279952 10.04734688 6.60377296 4.8125 5.375 C4.05839844 5.20548828 3.30429687 5.03597656 2.52734375 4.86132812 C-0.94358502 4.05062274 -3.44311643 3.30875572 -6.4375 1.3125 C-4.69139203 -0.43360797 -2.37632616 0.05751617 0 0 Z " fill="#4A4743" transform="translate(480.4375,313.6875)"/>
<path d="M0 0 C1.16377775 3.49133325 0.49527879 5.29453551 -0.44824219 8.7578125 C-1.35961179 12.46136048 -1.72462049 16.21280368 -2.125 20 C-2.21136719 20.77472656 -2.29773438 21.54945313 -2.38671875 22.34765625 C-2.59600552 24.23123721 -2.79870627 26.11554808 -3 28 C-6.68649204 23.87347575 -6.48766237 20.52934191 -6.36328125 15.1875 C-5.72684678 9.6033008 -4.03294755 4.03294755 0 0 Z " fill="#353330" transform="translate(272,390)"/>
<path d="M0 0 C0 0.33 0 0.66 0 1 C-8.58 1 -17.16 1 -26 1 C-26 0.34 -26 -0.32 -26 -1 C-17.45892063 -4.79603528 -8.27647775 -3.81991281 0 0 Z " fill="#625F5C" transform="translate(450,234)"/>
<path d="M0 0 C0 5.28 0 10.56 0 16 C-2.52387865 12.84515168 -4.68510124 10.07163963 -6.75 6.6875 C-7.17796875 5.99011719 -7.6059375 5.29273438 -8.046875 4.57421875 C-8.36140625 4.05472656 -8.6759375 3.53523437 -9 3 C-3.375 0 -3.375 0 0 0 Z " fill="#393736" transform="translate(541,582)"/>
<path d="M0 0 C4.29 0 8.58 0 13 0 C12.01 0.495 12.01 0.495 11 1 C11 3.64 11 6.28 11 9 C11.99 9.33 12.98 9.66 14 10 C10.75 10.375 10.75 10.375 7 10 C4.75 7.25 4.75 7.25 3 4 C2.01 2.68 1.02 1.36 0 0 Z " fill="#78655F" transform="translate(384,578)"/>
<path d="M0 0 C5.27586207 2.63793103 5.27586207 2.63793103 7 6 C7.24492511 9.01726886 7.17422028 11.98018176 7 15 C1.46153846 14.50769231 1.46153846 14.50769231 -0.875 11.9375 C-1.24625 11.298125 -1.6175 10.65875 -2 10 C-0.68 10 0.64 10 2 10 C1.34 6.7 0.68 3.4 0 0 Z " fill="#3D3835" transform="translate(501,518)"/>
<path d="M0 0 C1.98 0 3.96 0 6 0 C4.91081033 6.86476118 3.09761199 12.77470211 0 19 C-0.33 19 -0.66 19 -1 19 C-1.10655578 12.55929529 -0.96205088 6.37358711 0 0 Z " fill="#CAC0BA" transform="translate(596,456)"/>
<path d="M0 0 C1.8125 0.0859375 1.8125 0.0859375 4 0.375 C5.0828125 0.51035156 5.0828125 0.51035156 6.1875 0.6484375 C8 1 8 1 9 2 C9.125 4.5 9.125 4.5 9 7 C8 8 8 8 4.5625 8.1875 C1 8 1 8 -1 6 C-1.1875 3.4375 -1.1875 3.4375 -1 1 C-0.67 0.67 -0.34 0.34 0 0 Z " fill="#706B68" transform="translate(393,700)"/>
<path d="M0 0 C2.31 0 4.62 0 7 0 C7 3.3 7 6.6 7 10 C5.02 10 3.04 10 1 10 C0.67 6.7 0.34 3.4 0 0 Z " fill="#45413E" transform="translate(465,726)"/>
<path d="M0 0 C-1.32 2.64 -2.64 5.28 -4 8 C-6.875 7.6875 -6.875 7.6875 -10 7 C-12 4 -12 4 -12 1 C-10.37681021 0.63762737 -8.7513642 0.28534843 -7.125 -0.0625 C-6.22007812 -0.25972656 -5.31515625 -0.45695313 -4.3828125 -0.66015625 C-2 -1 -2 -1 0 0 Z " fill="#97918D" transform="translate(520,695)"/>
<path d="M0 0 C0.66 0.33 1.32 0.66 2 1 C2.02895225 4.29164829 2.0467823 7.58326399 2.0625 10.875 C2.07087891 11.81214844 2.07925781 12.74929688 2.08789062 13.71484375 C2.09111328 14.61074219 2.09433594 15.50664062 2.09765625 16.4296875 C2.10289307 17.25710449 2.10812988 18.08452148 2.11352539 18.93701172 C2 21 2 21 1 23 C-0.32 23 -1.64 23 -3 23 C-2.690625 21.80375 -2.38125 20.6075 -2.0625 19.375 C-0.62245192 12.99180815 -0.35230768 6.51769209 0 0 Z " fill="#7E7974" transform="translate(606,434)"/>
<path d="M0 0 C2.625 0.375 2.625 0.375 5 1 C5.625 3.3125 5.625 3.3125 6 6 C5.01 7.485 5.01 7.485 4 9 C-0.875 8.125 -0.875 8.125 -2 7 C-2.1875 4.5625 -2.1875 4.5625 -2 2 C-1.34 1.34 -0.68 0.68 0 0 Z " fill="#55504C" transform="translate(435,677)"/>
<path d="M0 0 C0.33 0 0.66 0 1 0 C1.03758423 1.62010986 1.03758423 1.62010986 1.07592773 3.27294922 C1.16995572 7.27242312 1.27018754 11.27172147 1.37231445 15.27099609 C1.4156808 17.00337626 1.45735463 18.73579963 1.49731445 20.46826172 C1.55497594 22.95553627 1.61868198 25.44259293 1.68359375 27.9296875 C1.70030624 28.70682098 1.71701874 29.48395447 1.73423767 30.28463745 C1.76473429 34.27274216 1.76473429 34.27274216 3 38 C2.06421005 40.35981813 1.06652192 42.69631264 0 45 C-0.33 45 -0.66 45 -1 45 C-0.67 30.15 -0.34 15.3 0 0 Z " fill="#7A7570" transform="translate(594,461)"/>
<path d="M0 0 C0.66 1.32 1.32 2.64 2 4 C1.01 4.495 1.01 4.495 0 5 C-0.73075648 7.3140622 -1.40138258 9.64828869 -2 12 C-6.875 10.125 -6.875 10.125 -8 9 C-8.04063832 7.33382885 -8.042721 5.66611905 -8 4 C-3.25 2.875 -3.25 2.875 -1 4 C-0.67 2.68 -0.34 1.36 0 0 Z " fill="#2A2827" transform="translate(340,587)"/>
<path d="M0 0 C0.94875 0.04125 1.8975 0.0825 2.875 0.125 C3 3 3 3 2.875 6.125 C0.875 8.125 0.875 8.125 -1.6875 8.3125 C-4.125 8.125 -4.125 8.125 -5.125 7.125 C-5.3125 4.6875 -5.3125 4.6875 -5.125 2.125 C-3.125 0.125 -3.125 0.125 0 0 Z " fill="#55504C" transform="translate(492.125,678.875)"/>
<path d="M0 0 C-0.66 3.63 -1.32 7.26 -2 11 C-3.65 11.33 -5.3 11.66 -7 12 C-7.48842105 4.67368421 -7.48842105 4.67368421 -5.1875 1.5 C-3 0 -3 0 0 0 Z " fill="#272523" transform="translate(393,309)"/>
<path d="M0 0 C2 1 2 1 3.125 3.5 C4.1889199 7.7556796 4.17434209 11.64144777 4 16 C2.68 16.33 1.36 16.66 0 17 C0 11.39 0 5.78 0 0 Z " fill="#ADA9A7" transform="translate(497,706)"/>
<path d="M0 0 C0.33 0 0.66 0 1 0 C2.32594359 5.96674616 2.0884587 11.92583615 2 18 C1.34 17.34 0.68 16.68 0 16 C-0.33 18.31 -0.66 20.62 -1 23 C-1.33 23 -1.66 23 -2 23 C-2.24923458 15.06603268 -1.70994772 7.7558343 0 0 Z " fill="#484542" transform="translate(312,488)"/>
<path d="M0 0 C1.65 0.33 3.3 0.66 5 1 C5.38133299 2.9914056 5.71325582 4.99279077 6 7 C5 8 5 8 2.5 8.125 C0 8 0 8 -1 7 C-0.71269945 4.66055264 -0.38063221 2.3260857 0 0 Z " fill="#4F4B4A" transform="translate(327,592)"/>
<path d="M0 0 C0.66 0.33 1.32 0.66 2 1 C-3.61 6.61 -9.22 12.22 -15 18 C-15.66 17.67 -16.32 17.34 -17 17 C-15.29657414 15.09955869 -13.58752883 13.20471126 -11.875 11.3125 C-11.400625 10.78205078 -10.92625 10.25160156 -10.4375 9.70507812 C-7.18500869 6.12294242 -3.77952775 3.02250068 0 0 Z " fill="#3F3A36" transform="translate(551,444)"/>
<path d="M0 0 C2.64 0 5.28 0 8 0 C7.01 0.33 6.02 0.66 5 1 C5 2.65 5 4.3 5 6 C5.99 6.33 6.98 6.66 8 7 C5.36 7.33 2.72 7.66 0 8 C0 5.36 0 2.72 0 0 Z " fill="#B2978D" transform="translate(395,579)"/>
<path d="M0 0 C1.32 1.32 2.64 2.64 4 4 C0.86730295 7.13269705 -1.97328423 7.05494397 -6.25 7.0625 C-8.10625 7.0315625 -8.10625 7.0315625 -10 7 C-6.76478258 4.51137122 -3.40739705 2.24578442 0 0 Z " fill="#5F5955" transform="translate(511,729)"/>
<path d="M0 0 C3.63 0 7.26 0 11 0 C11 1.65 11 3.3 11 5 C9.234375 5.6484375 9.234375 5.6484375 7 6 C5.078125 5.0390625 5.078125 5.0390625 3.25 3.625 C2.63640625 3.16351562 2.0228125 2.70203125 1.390625 2.2265625 C0.93171875 1.82179688 0.4728125 1.41703125 0 1 C0 0.67 0 0.34 0 0 Z " fill="#9D8C85" transform="translate(374,661)"/>
<path d="M0 0 C0.33 0 0.66 0 1 0 C1.02701408 2.10409639 1.04640223 4.20829178 1.0625 6.3125 C1.07410156 7.48425781 1.08570313 8.65601563 1.09765625 9.86328125 C1 13 1 13 0 16 C0.66 16.33 1.32 16.66 2 17 C-1.3 17 -4.6 17 -8 17 C-8 16.67 -8 16.34 -8 16 C-6.02 16 -4.04 16 -2 16 C-2 12.37 -2 8.74 -2 5 C-1.67 5 -1.34 5 -1 5 C-0.67 3.35 -0.34 1.7 0 0 Z " fill="#615D5A" transform="translate(492,709)"/>
<path d="M0 0 C0.99 2.97 1.98 5.94 3 9 C-0.11089621 7.44455189 -3.03851491 5.80979645 -6 4 C-5.67 3.01 -5.34 2.02 -5 1 C-3 0 -3 0 0 0 Z " fill="#A18F89" transform="translate(543,648)"/>
<path d="M0 0 C0.66 0.66 1.32 1.32 2 2 C-0.39763185 4.39763185 -1.33273498 4.34280586 -4.625 4.625 C-5.44226563 4.69976563 -6.25953125 4.77453125 -7.1015625 4.8515625 C-7.72804688 4.90054688 -8.35453125 4.94953125 -9 5 C-9 3.68 -9 2.36 -9 1 C-5.75778445 -0.08073852 -3.39597063 -0.21676408 0 0 Z " fill="#3E3936" transform="translate(468,541)"/>
<path d="M0 0 C0.33 0 0.66 0 1 0 C1.92470553 4.71599818 2.22923777 7.67265609 0 12 C1.98 12 3.96 12 6 12 C6 12.33 6 12.66 6 13 C1.59085217 14.10228696 -2.48382401 14.07654536 -7 14 C-5.68 13.67 -4.36 13.34 -3 13 C-2.01 8.71 -1.02 4.42 0 0 Z " fill="#76716E" transform="translate(489,629)"/>
<path d="M0 0 C0.99 0.33 1.98 0.66 3 1 C2.34 1.66 1.68 2.32 1 3 C3.64 2.67 6.28 2.34 9 2 C7.13022903 4.44710376 6.17497517 4.96931493 3.08203125 5.51171875 C1.46361328 5.59873047 1.46361328 5.59873047 -0.1875 5.6875 C-1.27417969 5.75324219 -2.36085938 5.81898438 -3.48046875 5.88671875 C-4.72763672 5.94279297 -4.72763672 5.94279297 -6 6 C-4 4 -2 2 0 0 Z " fill="#48413E" transform="translate(512,486)"/>
<path d="M0 0 C3 1 3 1 5 2 C5 2.33 5 2.66 5 3 C3.06280622 3.05406122 1.12518079 3.09282025 -0.8125 3.125 C-1.89144531 3.14820313 -2.97039062 3.17140625 -4.08203125 3.1953125 C-7 3 -7 3 -10 1 C-6.82587823 -0.58706088 -3.46361333 -0.28477127 0 0 Z " fill="#201F1D" transform="translate(445,232)"/>
<path d="M0 0 C0.66 0.33 1.32 0.66 2 1 C-1.63 4.63 -5.26 8.26 -9 12 C-9.66 11.67 -10.32 11.34 -11 11 C-7.81316569 6.66590534 -4.13621084 3.3810038 0 0 Z " fill="#3C3A38" transform="translate(383,402)"/>
<path d="M0 0 C6.4 0.49230769 6.4 0.49230769 9.4375 3.0625 C10.2109375 4.0215625 10.2109375 4.0215625 11 5 C6.94393835 4.53199289 3.53411321 4.12046792 0 2 C0 1.34 0 0.68 0 0 Z " fill="#353330" transform="translate(490,317)"/>
<path d="M0 0 C0.53625 0.28875 1.0725 0.5775 1.625 0.875 C4.35280484 2.16711808 7.12612718 3.08558592 10 4 C10.33 3.34 10.66 2.68 11 2 C10.67 3.65 10.34 5.3 10 7 C7.29068581 6.84518205 5.53415961 6.51827919 3.5546875 4.59765625 C2.32320358 3.10228292 1.1570163 1.5537076 0 0 Z " fill="#AAA19C" transform="translate(448,336)"/>
<path d="M0 0 C0.66 0.33 1.32 0.66 2 1 C0.54782324 2.50596108 -0.91192861 4.00462104 -2.375 5.5 C-3.18710937 6.3353125 -3.99921875 7.170625 -4.8359375 8.03125 C-7 10 -7 10 -9 10 C-7.61811547 6.78956118 -6.07578097 4.95063635 -3.375 2.75 C-2.74335938 2.22921875 -2.11171875 1.7084375 -1.4609375 1.171875 C-0.73777344 0.59179688 -0.73777344 0.59179688 0 0 Z " fill="#353330" transform="translate(320,304)"/>
<path d="M0 0 C1.98 0 3.96 0 6 0 C5.01 0.33 4.02 0.66 3 1 C3 3.64 3 6.28 3 9 C0.23776722 6.23776722 0.42143709 3.79293383 0 0 Z " fill="#7B7571" transform="translate(479,700)"/>
<path d="M0 0 C2.31 0.33 4.62 0.66 7 1 C6.67 1.99 6.34 2.98 6 4 C3.03 3.505 3.03 3.505 0 3 C0 2.01 0 1.02 0 0 Z " fill="#BFBBB7" transform="translate(439,599)"/>
<path d="M0 0 C2.375 -0.1875 2.375 -0.1875 5 0 C5.66 0.99 6.32 1.98 7 3 C6 4 6 4 3.4375 4.0625 C2.2309375 4.0315625 2.2309375 4.0315625 1 4 C0.67 2.68 0.34 1.36 0 0 Z " fill="#BDB8B5" transform="translate(503,594)"/>
<path d="M0 0 C0.66 0.33 1.32 0.66 2 1 C0.515 2.485 0.515 2.485 -1 4 C-0.67 4.66 -0.34 5.32 0 6 C-2.64 6 -5.28 6 -8 6 C-5.33333333 4 -2.66666667 2 0 0 Z " fill="#514D49" transform="translate(509,730)"/>
<path d="M0 0 C-3 2 -3 2 -6 2 C-6 2.66 -6 3.32 -6 4 C-7.32 3.67 -8.64 3.34 -10 3 C-9.34 3 -8.68 3 -8 3 C-8 2.01 -8 1.02 -8 0 C-4.71303767 -0.79953138 -3.28976808 -1.09658936 0 0 Z " fill="#504845" transform="translate(527,549)"/>
<path d="M0 0 C4.455 0.99 4.455 0.99 9 2 C8.67 2.66 8.34 3.32 8 4 C5.6875 4.25 5.6875 4.25 3 4 C1.1875 2 1.1875 2 0 0 Z " fill="#706B68" transform="translate(431,704)"/>
<path d="M0 0 C1.32 0 2.64 0 4 0 C4 1.65 4 3.3 4 5 C2.68 5 1.36 5 0 5 C0 3.35 0 1.7 0 0 Z " fill="#605B58" transform="translate(400,621)"/>
<path d="M0 0 C0.763125 0.0825 1.52625 0.165 2.3125 0.25 C1.52875 0.78625 0.745 1.3225 -0.0625 1.875 C-3.02176299 4.55242842 -3.73358256 6.43433025 -4.6875 10.25 C-5.0175 10.25 -5.3475 10.25 -5.6875 10.25 C-5.90929212 6.99704886 -5.97351103 4.82202207 -4.5 1.875 C-2.6875 0.25 -2.6875 0.25 0 0 Z " fill="#B9B5B1" transform="translate(507.6875,619.75)"/>
<path d="M0 0 C0.66 0.33 1.32 0.66 2 1 C1.34 1.804375 0.68 2.60875 0 3.4375 C-2.10254514 5.58961915 -2.10254514 5.58961915 -2 7 C-3.65 7 -5.3 7 -7 7 C-4.66666667 4.66666667 -2.33333333 2.33333333 0 0 Z " fill="#46403D" transform="translate(438,504)"/>
<path d="M0 0 C0.33 0 0.66 0 1 0 C2.35384615 6.27692308 2.35384615 6.27692308 0.5625 9.9375 C-0.2109375 10.9584375 -0.2109375 10.9584375 -1 12 C-2.45606519 7.47907032 -1.27032841 4.48351204 0 0 Z " fill="#524F4C" transform="translate(489,629)"/>
<path d="M0 0 C0 0.99 0 1.98 0 3 C-2.5 4.6875 -2.5 4.6875 -5 6 C-5 5.34 -5 4.68 -5 4 C-5.66 3.67 -6.32 3.34 -7 3 C-4.69 2.01 -2.38 1.02 0 0 Z " fill="#4B4744" transform="translate(332,298)"/>
<path d="M0 0 C1 3 1 3 0.25 5.125 C-1 7 -1 7 -4 8 C-2.25 2.25 -2.25 2.25 0 0 Z " fill="#413E3B" transform="translate(272,390)"/>
<path d="M0 0 C-1.98 1.32 -3.96 2.64 -6 4 C-6.99 3.34 -7.98 2.68 -9 2 C-3.375 -1.125 -3.375 -1.125 0 0 Z " fill="#3C3A37" transform="translate(379,257)"/>
<path d="M0 0 C0.66 0.33 1.32 0.66 2 1 C2 2.65 2 4.3 2 6 C1.01 6.33 0.02 6.66 -1 7 C-0.67 4.69 -0.34 2.38 0 0 Z " fill="#BFBBB8" transform="translate(415,606)"/>
<path d="M0 0 C0.99 0.33 1.98 0.66 3 1 C3 2.32 3 3.64 3 5 C1.68 4.67 0.36 4.34 -1 4 C-0.67 2.68 -0.34 1.36 0 0 Z " fill="#BFBBB7" transform="translate(431,594)"/>
<path d="M0 0 C1.1875 1.6875 1.1875 1.6875 2 4 C0.625 6.75 0.625 6.75 -1 9 C-2.25541557 5.23375329 -1.37061958 3.62811066 0 0 Z " fill="#413E3B" transform="translate(306,323)"/>
</svg>
