<?xml version="1.0" encoding="UTF-8"?>
<svg version="1.1" xmlns="http://www.w3.org/2000/svg" width="900" height="900">
<path d="M0 0 C6.63495835 -0.16015156 13.0249013 0.89845688 19.55834961 1.96777344 C20.65727539 2.14179688 21.75620117 2.31582031 22.88842773 2.49511719 C25.09678403 2.84647617 27.30415954 3.20405649 29.51049805 3.56787109 C31.60986882 3.9084723 33.71209019 4.23210256 35.81713867 4.53564453 C43.13263894 5.62927246 49.89008132 7.54477128 56.87084961 9.96777344 C57.87760742 10.30679688 58.88436523 10.64582031 59.92163086 10.99511719 C69.02430338 14.09214548 77.91716944 17.48763066 86.49584961 21.84277344 C87.51545776 22.35928467 87.51545776 22.35928467 88.55566406 22.88623047 C126.02217683 42.03974938 153.5518704 71.83907166 172.74584961 109.09277344 C173.0794751 109.72143311 173.41310059 110.35009277 173.75683594 110.99780273 C176.37367879 116.03048184 178.30271297 121.14173187 180.05834961 126.53027344 C180.35612305 127.4393042 180.65389648 128.34833496 180.96069336 129.28491211 C184.2026131 139.32141207 187.17718481 149.41895429 189.84008789 159.62451172 C190.45937119 161.99581592 191.09115023 164.36388256 191.73364258 166.72900391 C196.999716 186.39836191 198.38082829 204.47041699 197.84767151 224.77128601 C197.71348211 230.73635968 197.84240328 236.66688664 198.08178711 242.62792969 C198.11665726 243.50289597 198.1515274 244.37786224 198.18745422 245.27934265 C198.23968391 246.58655022 198.23968391 246.58655022 198.29296875 247.92016602 C198.89866575 263.1425253 199.29064015 277.37918166 194.74584961 292.09277344 C194.29174405 293.69405819 193.83865072 295.29563027 193.38647461 296.89746094 C188.32769491 314.24061228 181.28083535 329.77525443 171.74584961 345.09277344 C171.11420898 346.135625 170.48256836 347.17847656 169.83178711 348.25292969 C160.95864194 362.65659684 146.93295571 381.90054341 129.55419922 386.69775391 C128.65906616 386.89328857 128.65906616 386.89328857 127.74584961 387.09277344 C128.98662853 391.98687223 130.23187186 396.8798054 131.48120117 401.77172852 C131.90527172 403.43482962 132.32813717 405.09823851 132.74975586 406.76196289 C133.3572366 409.15821653 133.96909353 411.55331684 134.58178711 413.94824219 C134.86159927 415.05790596 134.86159927 415.05790596 135.14706421 416.18998718 C136.11361921 419.94993859 137.22695865 423.52053639 138.74584961 427.09277344 C142.16828492 439.30896615 142.90436445 452.83589044 142.99584961 465.46777344 C143.00503418 466.16265869 143.01421875 466.85754395 143.02368164 467.57348633 C142.98716972 473.49645068 141.85730759 476.98131546 137.74584961 481.09277344 C136.79931448 482.79000883 135.85306589 484.4874067 134.90991211 486.18652344 C131.88262178 491.14396532 128.14190924 495.72377165 122.74584961 498.09277344 C118.93334961 498.78027344 118.93334961 498.78027344 115.74584961 499.09277344 C115.68397461 500.30964844 115.62209961 501.52652344 115.55834961 502.78027344 C114.73604669 510.08834588 112.31482479 518.71122555 107.37084961 524.34277344 C104.14759864 526.49160741 101.57962042 526.86725751 97.74584961 527.09277344 C98.07584961 527.75277344 98.40584961 528.41277344 98.74584961 529.09277344 C98.89855604 530.50672188 99.01952414 531.92421692 99.12084961 533.34277344 C99.42641858 536.45267701 99.74776281 538.09636069 101.24584961 540.90527344 C103.53267789 545.76478352 103.49659365 550.78104304 103.74584961 556.09277344 C91.41686682 561.68724876 79.04185989 562.5705952 65.68505859 562.42895508 C63.31369866 562.40532674 60.9434701 562.40842926 58.57202148 562.41503906 C48.49422206 562.39508612 38.71002576 561.58530672 28.74584961 560.09277344 C27.80834961 552.78027344 27.80834961 552.78027344 27.51953125 550.48999023 C27.13590446 547.55801354 26.68334793 544.9052684 25.74584961 542.09277344 C23.10584961 542.09277344 20.46584961 542.09277344 17.74584961 542.09277344 C18.06295898 542.77726563 18.38006836 543.46175781 18.70678711 544.16699219 C19.88701918 547.49027723 20.15782205 550.39031879 20.37084961 553.90527344 C20.44561523 555.06671875 20.52038086 556.22816406 20.59741211 557.42480469 C20.67088867 558.74544922 20.67088867 558.74544922 20.74584961 560.09277344 C18.58017417 560.5764004 16.4132522 561.05444661 14.24584961 561.53027344 C12.43600586 561.93052734 12.43600586 561.93052734 10.58959961 562.33886719 C-11.62765178 566.69651914 -37.54913855 565.82074207 -59.25415039 559.09277344 C-59.11579236 554.63417482 -58.9672046 550.17597558 -58.81665039 545.71777344 C-58.77733398 544.44675781 -58.73801758 543.17574219 -58.69750977 541.86621094 C-58.65561523 540.65449219 -58.6137207 539.44277344 -58.57055664 538.19433594 C-58.53389893 537.07365723 -58.49724121 535.95297852 -58.45947266 534.79833984 C-58.25415039 532.09277344 -58.25415039 532.09277344 -57.25415039 530.09277344 C-58.09977539 530.44339844 -58.94540039 530.79402344 -59.81665039 531.15527344 C-63.83173955 532.25029775 -66.23187721 532.11662479 -70.25415039 531.09277344 C-75.15403712 528.24400208 -77.22731715 524.21052736 -79.25415039 519.09277344 C-80.00415039 516.09277344 -80.00415039 516.09277344 -80.25415039 514.09277344 C-81.12040039 513.84527344 -81.98665039 513.59777344 -82.87915039 513.34277344 C-86.51099131 511.99764717 -89.1126489 510.35465451 -92.25415039 508.09277344 C-92.88450195 507.65964844 -93.51485352 507.22652344 -94.16430664 506.78027344 C-102.60461297 500.79562463 -108.3661617 493.73211867 -112.25415039 484.09277344 C-112.25415039 483.43277344 -112.25415039 482.77277344 -112.25415039 482.09277344 C-113.24415039 482.42277344 -114.23415039 482.75277344 -115.25415039 483.09277344 C-119.34009872 484.27928604 -123.01757433 484.24142523 -127.25415039 484.09277344 C-128.94716996 480.39654352 -129.51032059 477.49976953 -129.51977539 473.44433594 C-129.52388428 472.3637793 -129.52799316 471.28322266 -129.53222656 470.16992188 C-129.51832886 468.4611084 -129.51832886 468.4611084 -129.50415039 466.71777344 C-129.49810791 465.54762695 -129.49206543 464.37748047 -129.48583984 463.171875 C-129.38840097 454.64685909 -128.84982154 446.48259154 -127.25415039 438.09277344 C-127.05950195 437.03574219 -126.86485352 435.97871094 -126.66430664 434.88964844 C-123.64169288 419.79446494 -119.32327695 404.93173806 -115.25415039 390.09277344 C-119.19664118 386.76721489 -123.20095505 383.57925993 -127.31665039 380.46777344 C-136.32969143 373.5946601 -144.88890324 366.20912468 -153.36743164 358.69042969 C-155.41278812 356.95844046 -157.53932299 355.37692251 -159.69165039 353.78027344 C-167.55858323 347.65107062 -173.31533723 340.45959312 -178.44165039 331.96777344 C-178.83344482 331.33049316 -179.22523926 330.69321289 -179.62890625 330.03662109 C-186.86598721 317.55889531 -190.24610229 304.18632931 -192.50415039 290.09277344 C-192.74756905 288.66285153 -192.99236014 287.23316257 -193.23852539 285.80371094 C-195.53883849 272.26042687 -197.44699934 258.71358846 -197.87915039 244.96777344 C-197.93280762 243.36494507 -197.93280762 243.36494507 -197.98754883 241.72973633 C-198.08744438 238.51761867 -198.17210028 235.30538988 -198.25415039 232.09277344 C-198.28283203 231.18285645 -198.31151367 230.27293945 -198.34106445 229.33544922 C-199.12743793 202.69331505 -195.75417373 176.88675294 -189.25415039 151.09277344 C-189.01607666 150.08706299 -188.77800293 149.08135254 -188.53271484 148.04516602 C-186.91336765 141.27606659 -184.88190178 134.79605696 -182.44165039 128.28027344 C-182.08546631 127.32306396 -181.72928223 126.36585449 -181.36230469 125.37963867 C-180.6507222 123.47455793 -179.93606277 121.57062305 -179.21801758 119.66796875 C-178.40718046 117.50162886 -177.62425265 115.32901102 -176.85571289 113.14746094 C-171.03812251 97.38707971 -162.07518889 82.66209157 -152.25415039 69.09277344 C-151.74327881 68.37927734 -151.23240723 67.66578125 -150.70605469 66.93066406 C-137.70254325 48.91954463 -118.78170902 31.59541269 -96.24243164 27.74951172 C-92.92460862 27.25697373 -89.60816504 26.85475034 -86.27368164 26.48730469 C-83.33856455 26.27146539 -83.33856455 26.27146539 -81.25415039 25.09277344 C-79.37971991 24.87937674 -77.50460898 24.67193728 -75.62915039 24.46777344 C-70.02612831 23.56598527 -67.5187117 22.05803641 -63.59790039 18.11230469 C-60.47240688 15.41917111 -57.07737245 13.57816452 -53.44165039 11.65527344 C-52.45297974 11.12426025 -52.45297974 11.12426025 -51.44433594 10.58251953 C-48.52655761 9.06637118 -46.58793545 8.09277344 -43.25415039 8.09277344 C-43.25415039 7.43277344 -43.25415039 6.77277344 -43.25415039 6.09277344 C-41.21405284 5.44200048 -39.1719937 4.7973752 -37.12915039 4.15527344 C-35.99219727 3.795625 -34.85524414 3.43597656 -33.68383789 3.06542969 C-26.95595665 1.1574087 -20.39191426 0.8153885 -13.44165039 0.53027344 C-12.02142578 0.46549805 -12.02142578 0.46549805 -10.57250977 0.39941406 C-7.04890496 0.2466356 -3.52384539 0.14502992 0 0 Z " fill="#1D1C1A" transform="translate(425.254150390625,186.9072265625)"/>
<path d="M0 0 C12.83993417 0.29276723 25.37812201 12.56592573 35.2109375 20.1171875 C35.79633301 20.54725098 36.38172852 20.97731445 36.98486328 21.42041016 C38.65234375 22.69921875 38.65234375 22.69921875 41.2109375 25.1171875 C41.2109375 26.4371875 41.2109375 27.7571875 41.2109375 29.1171875 C42.77328125 29.45363281 42.77328125 29.45363281 44.3671875 29.796875 C48.49434879 30.98229205 50.74935047 33.11510001 53.7109375 36.2421875 C54.18668213 36.73936279 54.66242676 37.23653809 55.15258789 37.7487793 C58.96693712 41.76398605 62.6297161 45.89466086 66.2109375 50.1171875 C67.15930166 51.21428099 68.10860585 52.31056223 69.05859375 53.40625 C73.98274205 59.09692585 78.87754882 64.7882129 83.43359375 70.78125 C84.81923687 72.60238095 86.22752998 74.4062855 87.64453125 76.203125 C96.86661314 87.91742838 106.4616656 101.50705163 108.56640625 116.6796875 C108.08265277 119.99685424 106.67503689 121.57185735 104.5234375 124.1171875 C103.83894531 124.9421875 103.15445313 125.7671875 102.44921875 126.6171875 C98.52156041 131.00410083 94.35746478 134.97208882 89.8359375 138.7421875 C88.49402344 139.87527344 88.49402344 139.87527344 87.125 141.03125 C83.96505128 143.2931972 80.79320698 144.70292927 77.2109375 146.1171875 C75.50845812 146.84307981 73.80808805 147.57393078 72.109375 148.30859375 C70.26823389 149.09896933 68.42708796 149.8893337 66.5859375 150.6796875 C65.6578125 151.07865234 64.7296875 151.47761719 63.7734375 151.88867188 C62.87367188 152.27474609 61.97390625 152.66082031 61.046875 153.05859375 C60.23782715 153.40607666 59.4287793 153.75355957 58.59521484 154.11157227 C57.80840332 154.44342529 57.0215918 154.77527832 56.2109375 155.1171875 C55.34807129 155.489646 54.48520508 155.86210449 53.59619141 156.24584961 C51.2109375 157.1171875 51.2109375 157.1171875 48.2109375 157.1171875 C48.2109375 157.7771875 48.2109375 158.4371875 48.2109375 159.1171875 C46.8909375 159.1171875 45.5709375 159.1171875 44.2109375 159.1171875 C44.2109375 159.7771875 44.2109375 160.4371875 44.2109375 161.1171875 C43.2621875 161.4884375 42.3134375 161.8596875 41.3359375 162.2421875 C30.98452477 166.76444797 23.17518023 173.2804654 15.2109375 181.1171875 C14.62441406 181.67921875 14.03789062 182.24125 13.43359375 182.8203125 C3.29309331 193.49452349 -1.77206776 208.28724848 -5.7890625 222.1171875 C-5.96864502 222.71257324 -6.14822754 223.30795898 -6.33325195 223.92138672 C-7.37669842 228.94803778 -7.23210758 234.19964007 -7.40161133 239.32177734 C-7.47513505 241.45085184 -7.56632301 243.57868157 -7.65820312 245.70703125 C-8.13765347 258.4887415 -6.49423278 270.4423984 -3.1640625 282.8046875 C-2.71040475 284.51609863 -2.25974258 286.22830745 -1.8125 287.94140625 C-1.61575684 288.67447998 -1.41901367 289.40755371 -1.21630859 290.1628418 C-0.7890625 292.1171875 -0.7890625 292.1171875 -0.7890625 295.1171875 C-0.1290625 295.1171875 0.5309375 295.1171875 1.2109375 295.1171875 C3.73022546 303.55267218 6.22546461 311.99328501 8.5234375 320.4921875 C8.84957031 321.69617188 9.17570312 322.90015625 9.51171875 324.140625 C10.2109375 327.1171875 10.2109375 327.1171875 10.2109375 330.1171875 C10.8709375 330.1171875 11.5309375 330.1171875 12.2109375 330.1171875 C12.2109375 330.7771875 12.2109375 331.4371875 12.2109375 332.1171875 C0.42533471 332.42394038 -10.43690063 332.66365155 -21.7890625 329.1171875 C-24.42959466 328.54901782 -27.07582601 328.0438032 -29.73046875 327.546875 C-31.7890625 327.1171875 -31.7890625 327.1171875 -34.7890625 326.1171875 C-35.76532867 323.50961205 -36.5003953 321.05940154 -37.1640625 318.3671875 C-37.37321289 317.54025391 -37.58236328 316.71332031 -37.79785156 315.86132812 C-42.32207249 297.23852903 -45.52627584 278.3006134 -45.7890625 259.1171875 C-46.82604847 267.30687071 -46.98071778 275.43146547 -46.9765625 283.6796875 C-46.97765015 284.66956665 -46.97765015 284.66956665 -46.97875977 285.67944336 C-46.97764663 294.86172033 -46.58833342 303.78871473 -45.2265625 312.8671875 C-44.80537215 315.99603007 -44.71217676 318.96487231 -44.7890625 322.1171875 C-48.8197112 321.68735977 -51.57346385 320.60668323 -54.7890625 318.1171875 C-57.83829812 313.21794966 -59.30712708 307.43370506 -60.94482422 301.9453125 C-61.81474645 299.0311485 -62.73653238 296.13723114 -63.66796875 293.2421875 C-72.43745461 265.65276831 -72.43745461 265.65276831 -71.7890625 253.1171875 C-72.4490625 253.1171875 -73.1090625 253.1171875 -73.7890625 253.1171875 C-74.4490625 249.8171875 -75.1090625 246.5171875 -75.7890625 243.1171875 C-77.89357056 247.32620362 -78.08060017 250.23015342 -78.0546875 254.77734375 C-78.05660095 255.52245712 -78.0585144 256.2675705 -78.06048584 257.03526306 C-78.06184512 258.61294899 -78.05816658 260.19064619 -78.04980469 261.76831055 C-78.03920705 264.14723887 -78.04965308 266.52539362 -78.0625 268.90429688 C-78.06958981 277.21982806 -77.57673089 284.9648493 -75.7890625 293.1171875 C-75.40194378 295.78043581 -75.0918369 298.44268034 -74.7890625 301.1171875 C-78.6909546 300.53912941 -80.92367508 298.7621605 -83.7890625 296.1171875 C-84.80257914 294.45870573 -85.80027045 292.79052789 -86.7890625 291.1171875 C-87.84394594 290.00574195 -88.90760359 288.9026024 -89.9765625 287.8046875 C-99.71169704 276.72890943 -103.09960904 263.63351845 -105.38208008 249.43115234 C-105.77852616 247.17709357 -106.28464296 244.9775068 -106.82421875 242.75390625 C-108.05999035 237.34148706 -108.44153632 231.89362731 -108.8515625 226.3671875 C-109.00652749 224.35136195 -109.163992 222.33572665 -109.32421875 220.3203125 C-109.3900415 219.44020508 -109.45586426 218.56009766 -109.52368164 217.65332031 C-109.74223367 215.13173832 -109.74223367 215.13173832 -110.29458618 212.75105286 C-110.76388003 210.25132383 -110.9342822 207.97787168 -110.96606445 205.43920898 C-110.97871841 204.5334462 -110.99137238 203.62768341 -111.00440979 202.69447327 C-111.0157621 201.23115822 -111.0157621 201.23115822 -111.02734375 199.73828125 C-111.03704697 198.71024887 -111.04675018 197.68221649 -111.05674744 196.62303162 C-111.08181485 193.26687746 -111.09430397 189.91092619 -111.1015625 186.5546875 C-111.10418091 185.4120343 -111.10679932 184.2693811 -111.10949707 183.09210205 C-111.11312259 168.30902676 -110.73877515 153.68387968 -109.0390625 138.9921875 C-108.96056061 138.29366669 -108.88205872 137.59514587 -108.80117798 136.87545776 C-107.21429902 123.17886302 -104.34757282 109.60215791 -99.6640625 96.6171875 C-98.13128359 92.30968573 -96.7394655 88.10798629 -95.83203125 83.62109375 C-94.85059063 78.98073857 -93.19703593 74.85674358 -91.2265625 70.5546875 C-90.87577637 69.78165283 -90.52499023 69.00861816 -90.16357422 68.2121582 C-77.99923771 41.88118058 -58.17362031 13.64024308 -29.7890625 3.1171875 C-20.14311227 0.40001842 -9.9443385 0.41782935 0 0 Z " fill="#A39B96" transform="translate(356.7890625,228.8828125)"/>
<path d="M0 0 C3.91589752 0.47465424 6.57824422 1.90751398 9.9465332 3.87695312 C13.6865415 5.92237438 17.62670239 7.49873956 21.5625 9.125 C22.38685547 9.47175781 23.21121094 9.81851562 24.06054688 10.17578125 C29.82218081 12.57991627 35.40807699 14.87671985 41.625 15.75 C61.8508154 19.34997529 80.89397118 26.76071054 96 41 C97.21042969 42.09634766 97.21042969 42.09634766 98.4453125 43.21484375 C102.2815602 47.01767466 104.47972294 49.65799215 104.5625 55.1875 C104.4244273 56.79667459 104.24050774 58.40292049 104 60 C103.835 61.19625 103.67 62.3925 103.5 63.625 C103.335 64.40875 103.17 65.1925 103 66 C102.47792969 65.7834375 101.95585938 65.566875 101.41796875 65.34375 C93.16735496 62.22267718 85.70356458 61.54900548 77.4375 65 C64.43045212 71.60528605 55.39794676 82.25707937 47.4375 94.1875 C42.66170987 101.33504238 37.7156389 108.54872656 29 111 C28.53179704 115.68202965 29.57001953 118.45716729 31.80078125 122.53515625 C33.28701203 125.58991724 34.3030377 128.71467483 35.375 131.9375 C39.17527874 142.74923526 44.84535585 150.74318658 54.796875 156.6640625 C61.34783347 159.39629152 69.2572008 159.18888916 75.98828125 157.05078125 C84.30367958 153.05080967 89.53963423 147.63653544 94.58203125 140.01171875 C95.04996094 139.34785156 95.51789063 138.68398438 96 138 C96.33 138 96.66 138 97 138 C97.21567586 144.53563203 96.61623824 150.18745798 94.9375 156.5 C94.60685547 157.74946411 94.60685547 157.74946411 94.26953125 159.02416992 C92.40457214 165.54960549 89.7745858 170.1361696 85 175 C83.88625 176.5159375 83.88625 176.5159375 82.75 178.0625 C76.22543999 185.75595513 65.94033498 191.58501976 57 196 C56.01 196 55.02 196 54 196 C54 196.66 54 197.32 54 198 C53.29875 198.24234375 52.5975 198.4846875 51.875 198.734375 C45.4300407 200.99791252 45.4300407 200.99791252 39.3125 204 C18.47069255 214.73796976 -8.31955684 212.38678881 -31 212 C-31.95116699 211.98598145 -32.90233398 211.97196289 -33.88232422 211.95751953 C-48.09116222 211.68711394 -62.03729033 209.54431598 -76 207 C-76.93521484 206.84080078 -77.87042969 206.68160156 -78.83398438 206.51757812 C-92.07906279 204.16528343 -92.07906279 204.16528343 -95.99609375 199.75 C-97.46606092 196.52614677 -98.21714161 193.45995449 -99 190 C-99.50936534 188.24922688 -100.03118429 186.50204963 -100.5625 184.7578125 C-105.04528617 169.88757832 -105.04528617 169.88757832 -106 163 C-106.66 163 -107.32 163 -108 163 C-109.21440828 158.99923363 -110.36923554 154.98708158 -111.46533203 150.95263672 C-111.93824361 149.22553772 -112.43421103 147.50478796 -112.93359375 145.78515625 C-117.60660851 126.98130258 -117.39428925 105.01037597 -110 87 C-106.48283697 87 -105.62878252 87.82445585 -103 90 C-103.15855469 91.11117187 -103.31710937 92.22234375 -103.48046875 93.3671875 C-105.84836364 112.50381581 -103.82669345 129.59525353 -93 146 C-86.88672788 153.41396832 -79.85424438 157.98062701 -70.875 161.1875 C-70.17246094 161.44724609 -69.46992188 161.70699219 -68.74609375 161.97460938 C-56.88362646 166.31371603 -41.12044246 167.70754908 -29.1875 162.9375 C-26.4915732 161.58360432 -26.4915732 161.58360432 -24 160 C-23.12472656 159.48050781 -22.24945313 158.96101562 -21.34765625 158.42578125 C-9.37238618 150.70038146 -1.45696911 139.37103428 2.9453125 125.93359375 C4 124 4 124 6.1171875 123.22265625 C6.73851562 123.14917969 7.35984375 123.07570313 8 123 C8.736457 117.89459187 8.736457 117.89459187 6.828125 113.34375 C3.44327486 110.31350321 -0.29527876 108.27029226 -4.3125 106.1875 C-13.02743451 101.6145536 -19.99907879 94.73802999 -26 87 C-26 86.34 -26 85.68 -26 85 C-26.66 85 -27.32 85 -28 85 C-29.16979266 83.58936768 -30.33695767 82.17648927 -31.4921875 80.75390625 C-41.36549323 69.26915425 -56.23931734 60.03353009 -70 54 C-70.75539063 53.66355469 -71.51078125 53.32710938 -72.2890625 52.98046875 C-73.85038908 52.29933225 -75.42339178 51.64497609 -77 51 C-74.44292741 47.9279614 -71.71834021 46.95680935 -68 45.625 C-62.71120074 43.67185055 -57.60964886 41.50158087 -52.5 39.125 C-50.25144449 38.11315002 -48.00375845 37.2172758 -45.6875 36.375 C-40.14525888 34.30840161 -35.23163972 31.61981225 -30.26953125 28.44140625 C-28.63626645 27.40410038 -26.98545565 26.39423556 -25.32421875 25.40234375 C-18.89700109 21.49978697 -11.47690775 16.95381549 -8 10 C-7.34 10 -6.68 10 -6 10 C-5.62875 9.195625 -5.62875 9.195625 -5.25 8.375 C-3.70303025 5.43575748 -1.86985631 2.74245592 0 0 Z " fill="#D0B9B1" transform="translate(479,355)"/>
<path d="M0 0 C2.1300644 0.03111002 4.25937904 0.04099028 6.38964844 0.046875 C18.52938705 0.11309495 30.65089109 0.20065492 42.38964844 3.59375 C43.19450684 3.81522705 43.99936523 4.0367041 44.82861328 4.26489258 C50.26056954 5.78211668 55.62368922 7.46874936 60.92871094 9.38671875 C63.32125752 10.14139253 65.57482735 10.63889428 68.03027344 11.109375 C73.12630553 12.21120548 77.34600821 14.34135922 81.88964844 16.84375 C82.71295654 17.28847656 83.53626465 17.73320312 84.38452148 18.19140625 C103.65082937 28.68438043 122.75411239 40.13707968 136.97167969 57.19140625 C138.27010029 58.70481589 139.63088373 60.16543836 141.02636719 61.58984375 C148.81073826 69.61862208 154.25551766 78.60558403 159.76464844 88.28125 C160.18166016 89.00151367 160.59867188 89.72177734 161.02832031 90.46386719 C169.87110275 105.83616017 174.60337898 121.77485301 178.68652344 138.953125 C179.70781603 143.17170339 181.0399865 147.22640018 182.48339844 151.31933594 C188.22043277 168.08312066 188.45683961 183.79898584 187.76464844 201.28125 C183.71674534 199.4526482 181.49210493 196.82002078 178.76464844 193.40625 C174.86470158 188.66889124 170.84398237 184.13123916 166.51464844 179.78125 C166.04414062 179.30187988 165.57363281 178.82250977 165.08886719 178.32861328 C159.09084289 172.3786233 152.56071521 168.40171855 144.95214844 164.84375 C144.12610107 164.45687012 143.30005371 164.06999023 142.44897461 163.67138672 C131.54507962 158.67934197 120.48598333 154.75031082 108.63964844 152.78125 C92.95065765 150.08592189 77.06066072 143.72879319 66.18261719 131.72265625 C64.71181138 130.07606606 64.71181138 130.07606606 62.07714844 128.90625 C58.42400584 126.33917683 57.11720111 122.45225041 55.76464844 118.28125 C55.76464844 117.29125 55.76464844 116.30125 55.76464844 115.28125 C55.10464844 115.28125 54.44464844 115.28125 53.76464844 115.28125 C53.35988281 114.25902344 52.95511719 113.23679687 52.53808594 112.18359375 C50.91900405 108.41927558 48.80898211 105.13992826 46.38964844 101.84375 C45.96047119 101.25102295 45.53129395 100.6582959 45.08911133 100.04760742 C40.06110021 93.189768 34.66199897 86.63188766 29.24414062 80.08105469 C27.95788431 78.51632176 26.69148383 76.93530777 25.42871094 75.3515625 C20.47716927 69.14833 15.18441817 63.33564165 9.72387695 57.58178711 C7.08594056 54.79823215 4.50214765 52.01198911 2.07324219 49.04296875 C-1.0300275 45.33059706 -4.5227907 42.36522913 -8.23535156 39.28125 C-8.9765625 38.66378906 -9.71777344 38.04632813 -10.48144531 37.41015625 C-20.85953668 28.94067939 -31.83539204 21.3073475 -43.23535156 14.28125 C-40.556785 11.23092509 -37.26709213 9.3027571 -33.79785156 7.28125 C-32.96737305 6.76691406 -32.96737305 6.76691406 -32.12011719 6.2421875 C-22.11596511 0.41106882 -11.29514965 -0.16542096 0 0 Z " fill="#CCC2BC" transform="translate(417.2353515625,204.71875)"/>
<path d="M0 0 C13.26115903 4.99050684 22.92056974 17.48844969 32.20117188 27.63623047 C35.82530968 31.67527936 35.82530968 31.67527936 40.8359375 33.39453125 C40.9596875 32.61078125 41.0834375 31.82703125 41.2109375 31.01953125 C41.8359375 28.39453125 41.8359375 28.39453125 43.8359375 26.39453125 C44.51350632 27.95233457 45.17753207 29.51603221 45.8359375 31.08203125 C46.2071875 31.95214844 46.5784375 32.82226562 46.9609375 33.71875 C47.89836962 36.58545089 48.26387311 38.40838714 47.8359375 41.39453125 C46.26171875 43.89453125 46.26171875 43.89453125 44.1484375 46.39453125 C43.46394531 47.21953125 42.77945313 48.04453125 42.07421875 48.89453125 C38.14656041 53.28144458 33.98246478 57.24943257 29.4609375 61.01953125 C28.56632812 61.77492188 27.67171875 62.5303125 26.75 63.30859375 C23.59005128 65.57054095 20.41820698 66.98027302 16.8359375 68.39453125 C15.13345812 69.12042356 13.43308805 69.85127453 11.734375 70.5859375 C9.89323389 71.37631308 8.05208796 72.16667745 6.2109375 72.95703125 C5.2828125 73.35599609 4.3546875 73.75496094 3.3984375 74.16601562 C2.04878906 74.74512695 2.04878906 74.74512695 0.671875 75.3359375 C-0.13717285 75.68342041 -0.9462207 76.03090332 -1.77978516 76.38891602 C-2.56659668 76.72076904 -3.3534082 77.05262207 -4.1640625 77.39453125 C-5.02692871 77.76698975 -5.88979492 78.13944824 -6.77880859 78.52319336 C-9.1640625 79.39453125 -9.1640625 79.39453125 -12.1640625 79.39453125 C-12.1640625 80.05453125 -12.1640625 80.71453125 -12.1640625 81.39453125 C-13.4840625 81.39453125 -14.8040625 81.39453125 -16.1640625 81.39453125 C-16.1640625 82.05453125 -16.1640625 82.71453125 -16.1640625 83.39453125 C-17.5871875 83.95140625 -17.5871875 83.95140625 -19.0390625 84.51953125 C-29.39047523 89.04179172 -37.19981977 95.55780915 -45.1640625 103.39453125 C-45.75058594 103.9565625 -46.33710938 104.51859375 -46.94140625 105.09765625 C-57.08190669 115.77186724 -62.14706776 130.56459223 -66.1640625 144.39453125 C-66.34364502 144.98991699 -66.52322754 145.58530273 -66.70825195 146.19873047 C-67.75169842 151.22538153 -67.60710758 156.47698382 -67.77661133 161.59912109 C-67.85013505 163.72819559 -67.94132301 165.85602532 -68.03320312 167.984375 C-68.51265347 180.76608525 -66.86923278 192.71974215 -63.5390625 205.08203125 C-63.08540475 206.79344238 -62.63474258 208.5056512 -62.1875 210.21875 C-61.99075684 210.95182373 -61.79401367 211.68489746 -61.59130859 212.44018555 C-61.1640625 214.39453125 -61.1640625 214.39453125 -61.1640625 217.39453125 C-60.5040625 217.39453125 -59.8440625 217.39453125 -59.1640625 217.39453125 C-55.57232656 229.33132176 -52.2776504 241.32440965 -49.1640625 253.39453125 C-52.7940625 253.39453125 -56.4240625 253.39453125 -60.1640625 253.39453125 C-64.28581502 245.79883187 -66.82538481 238.43505896 -68.9765625 230.08203125 C-69.28787109 228.92896484 -69.59917969 227.77589844 -69.91992188 226.58789062 C-72.360079 217.33674549 -72.360079 217.33674549 -72.1640625 212.39453125 C-72.8240625 212.39453125 -73.4840625 212.39453125 -74.1640625 212.39453125 C-74.27476074 211.68433838 -74.38545898 210.97414551 -74.49951172 210.24243164 C-75.0097311 206.98016006 -75.52436624 203.71859937 -76.0390625 200.45703125 C-76.21308594 199.34005859 -76.38710938 198.22308594 -76.56640625 197.07226562 C-77.33363403 192.22736429 -78.1146132 187.41779058 -79.234375 182.640625 C-80.8923544 175.49438785 -81.32214412 168.29322585 -81.3671875 160.9765625 C-81.37424713 160.20581894 -81.38130676 159.43507538 -81.38858032 158.64097595 C-81.4984807 143.10354198 -81.53748545 127.82237441 -78.72509766 112.49023438 C-78.16713414 109.41148009 -77.64945197 106.32829704 -77.13983154 103.24127197 C-76.51351987 99.45707764 -75.87042731 95.67577185 -75.2265625 91.89453125 C-75.10545105 91.17664429 -74.9843396 90.45875732 -74.85955811 89.71911621 C-73.39393957 81.11024441 -71.59165985 72.79409242 -69.05957031 64.42626953 C-68.21188499 61.55643409 -67.50535236 58.68880454 -66.8515625 55.76953125 C-64.66922886 46.77047006 -61.30904654 38.09259956 -58.1640625 29.39453125 C-57.33003906 29.36617188 -56.49601562 29.3378125 -55.63671875 29.30859375 C-48.81290992 28.73017238 -44.81279512 27.86719316 -40.2265625 22.58203125 C-38.86611533 20.8578015 -37.51133425 19.12907544 -36.1640625 17.39453125 C-33.05206131 14.29648522 -30.43398801 12.46201263 -26.1640625 11.39453125 C-25.92300781 10.81316406 -25.68195313 10.23179687 -25.43359375 9.6328125 C-20.58548556 1.08522483 -8.95053934 -2.50421227 0 0 Z " fill="#CCC2BC" transform="translate(417.1640625,306.60546875)"/>
<path d="M0 0 C2.1300644 0.03111002 4.25937904 0.04099028 6.38964844 0.046875 C18.52938705 0.11309495 30.65089109 0.20065492 42.38964844 3.59375 C43.19450684 3.81522705 43.99936523 4.0367041 44.82861328 4.26489258 C50.26056954 5.78211668 55.62368922 7.46874936 60.92871094 9.38671875 C63.32125752 10.14139253 65.57482735 10.63889428 68.03027344 11.109375 C73.12630553 12.21120548 77.34600821 14.34135922 81.88964844 16.84375 C82.71295654 17.28847656 83.53626465 17.73320312 84.38452148 18.19140625 C103.65082937 28.68438043 122.75411239 40.13707968 136.97167969 57.19140625 C138.27010029 58.70481589 139.63088373 60.16543836 141.02636719 61.58984375 C148.81073826 69.61862208 154.25551766 78.60558403 159.76464844 88.28125 C160.18166016 89.00151367 160.59867188 89.72177734 161.02832031 90.46386719 C169.87110275 105.83616017 174.60337898 121.77485301 178.68652344 138.953125 C179.70781603 143.17170339 181.0399865 147.22640018 182.48339844 151.31933594 C188.22043277 168.08312066 188.45683961 183.79898584 187.76464844 201.28125 C186.77464844 200.95125 185.78464844 200.62125 184.76464844 200.28125 C183.77464844 194.83625 183.77464844 194.83625 182.76464844 189.28125 C182.10464844 189.28125 181.44464844 189.28125 180.76464844 189.28125 C178.86685193 185.34469335 176.97178052 181.40683051 175.07714844 177.46875 C174.28147461 175.81842773 174.28147461 175.81842773 173.46972656 174.13476562 C164.26333201 154.98772419 164.26333201 154.98772419 160.82714844 145.40625 C157.15667469 135.37537988 152.61052769 125.79278985 147.76464844 116.28125 C147.0136127 114.78176831 146.26360077 113.28177338 145.51464844 111.78125 C144.93714844 110.62625 144.35964844 109.47125 143.76464844 108.28125 C142.77464844 108.61125 141.78464844 108.94125 140.76464844 109.28125 C129.67463868 109.92271886 121.01293288 109.97871 112.13964844 102.71875 C107.63171012 98.48284244 104.43451621 93.84751978 101.76464844 88.28125 C101.48451904 87.69980225 101.20438965 87.11835449 100.91577148 86.51928711 C98.89188227 81.85266227 98.6482856 78.30922531 99.11401367 73.27905273 C99.83011882 65.36363352 99.83011882 65.36363352 96.63183594 58.3984375 C94.04798405 56.4760517 91.46279699 54.83333146 88.62207031 53.31884766 C86.61612828 52.1982833 84.75853408 50.95071958 82.87402344 49.63671875 C75.19068195 44.2678341 75.19068195 44.2678341 66.7980957 40.13476562 C61.10625097 37.7456806 55.59523143 34.9047904 50.03808594 32.22070312 C49.04808594 31.74439453 48.05808594 31.26808594 47.03808594 30.77734375 C46.14524902 30.34607178 45.25241211 29.9147998 44.33251953 29.47045898 C34.62568657 24.97511925 24.38374151 24.50101776 13.76464844 25.28125 C11.43038058 26.18152238 11.43038058 26.18152238 9.76464844 27.28125 C10.75464844 27.94125 11.74464844 28.60125 12.76464844 29.28125 C9.97863621 30.20992074 8.15398755 30.44467217 5.26464844 30.46875 C4.10449219 30.49001953 4.10449219 30.49001953 2.92089844 30.51171875 C0.76464844 30.28125 0.76464844 30.28125 -2.23535156 28.28125 C-2.74707031 26.1171875 -2.74707031 26.1171875 -2.92285156 23.65625 C-2.98859375 22.83898437 -3.05433594 22.02171875 -3.12207031 21.1796875 C-3.17814453 20.23996094 -3.17814453 20.23996094 -3.23535156 19.28125 C-4.07839844 19.07628906 -4.92144531 18.87132812 -5.79003906 18.66015625 C-6.88574219 18.39074219 -7.98144531 18.12132812 -9.11035156 17.84375 C-10.20089844 17.57691406 -11.29144531 17.31007812 -12.41503906 17.03515625 C-15.23535156 16.28125 -15.23535156 16.28125 -17.23535156 15.28125 C-18.974039 15.12858388 -20.71782657 15.03192404 -22.46191406 14.96484375 C-23.49316406 14.92294922 -24.52441406 14.88105469 -25.58691406 14.83789062 C-26.66714844 14.79857422 -27.74738281 14.75925781 -28.86035156 14.71875 C-29.94832031 14.67556641 -31.03628906 14.63238281 -32.15722656 14.58789062 C-34.84980326 14.4816047 -37.54247409 14.37956943 -40.23535156 14.28125 C-38.45329042 10.32663011 -36.63284348 8.93174723 -32.86035156 6.71875 C-31.90386719 6.13996094 -30.94738281 5.56117188 -29.96191406 4.96484375 C-20.45118661 0.25707446 -10.39172296 -0.15218999 0 0 Z " fill="#E4DFDC" transform="translate(417.2353515625,204.71875)"/>
<path d="M0 0 C3.91589752 0.47465424 6.57824422 1.90751398 9.9465332 3.87695312 C13.6865415 5.92237438 17.62670239 7.49873956 21.5625 9.125 C22.38685547 9.47175781 23.21121094 9.81851562 24.06054688 10.17578125 C29.82218081 12.57991627 35.40807699 14.87671985 41.625 15.75 C61.8508154 19.34997529 80.89397118 26.76071054 96 41 C97.21042969 42.09634766 97.21042969 42.09634766 98.4453125 43.21484375 C102.2815602 47.01767466 104.47972294 49.65799215 104.5625 55.1875 C104.4244273 56.79667459 104.24050774 58.40292049 104 60 C103.835 61.19625 103.67 62.3925 103.5 63.625 C103.335 64.40875 103.17 65.1925 103 66 C102.47792969 65.7834375 101.95585938 65.566875 101.41796875 65.34375 C93.16735496 62.22267718 85.70356458 61.54900548 77.4375 65 C68.80677189 69.3646825 61.96943168 75.45966524 56 83 C55.0409375 81.948125 55.0409375 81.948125 54.0625 80.875 C51.85957797 78.65977114 49.58315739 77.02973844 46.9375 75.375 C37.5701373 69.27532196 22.83140613 57.63794459 19.23046875 46.65234375 C19.15441406 46.10707031 19.07835937 45.56179688 19 45 C18.34 45 17.68 45 17 45 C18.56191741 53.21593953 20.58515801 59.90419786 25 67 C25.68047084 68.32634146 26.35132925 69.65781951 27 71 C24.34630304 70.18347786 21.74555449 69.37949395 19.265625 68.1171875 C2.64087577 59.67181489 -18.59823638 58.54426441 -36.43359375 63.1484375 C-39.86525134 64.26892846 -39.86525134 64.26892846 -43 66 C-43.80528889 68.05000871 -43.80528889 68.05000871 -44 70 C-44.87140625 69.34773438 -45.7428125 68.69546875 -46.640625 68.0234375 C-56.2037741 60.96759236 -65.98230775 55.50723774 -77 51 C-74.44292741 47.9279614 -71.71834021 46.95680935 -68 45.625 C-62.71120074 43.67185055 -57.60964886 41.50158087 -52.5 39.125 C-50.25144449 38.11315002 -48.00375845 37.2172758 -45.6875 36.375 C-40.14525888 34.30840161 -35.23163972 31.61981225 -30.26953125 28.44140625 C-28.63626645 27.40410038 -26.98545565 26.39423556 -25.32421875 25.40234375 C-18.89700109 21.49978697 -11.47690775 16.95381549 -8 10 C-7.34 10 -6.68 10 -6 10 C-5.62875 9.195625 -5.62875 9.195625 -5.25 8.375 C-3.70303025 5.43575748 -1.86985631 2.74245592 0 0 Z " fill="#B29E97" transform="translate(479,355)"/>
<path d="M0 0 C1.69189453 0.70576172 1.69189453 0.70576172 3.41796875 1.42578125 C7.47215316 3.89754572 8.01900119 6.65507103 9.30859375 11.07421875 C10.17146959 15.9735985 10.39647285 20.7197227 10.4375 25.6875 C10.44765137 26.56583496 10.45780273 27.44416992 10.46826172 28.34912109 C10.38788426 34.37743064 9.23168925 39.40674911 7 45 C-17.52701437 49.8675963 -43.60292838 48.5389807 -68.5 47.625 C-69.44109619 47.59422363 -70.38219238 47.56344727 -71.35180664 47.53173828 C-77.11704056 47.27854076 -82.39947346 46.40013163 -88 45 C-87.16520545 30.65471473 -86.08030133 16.32853814 -85 2 C-84.24871826 1.80083984 -83.49743652 1.60167969 -82.72338867 1.39648438 C-81.7357251 1.13158203 -80.74806152 0.86667969 -79.73046875 0.59375 C-78.75231201 0.33271484 -77.77415527 0.07167969 -76.76635742 -0.19726562 C-73.80749426 -1.00400842 -73.80749426 -1.00400842 -70.3125 -2.5 C-47.98771374 -10.87179485 -21.55651346 -9.59715046 0 0 Z " fill="#A49D99" transform="translate(479,594)"/>
<path d="M0 0 C11.12882607 1.19237422 21.45169911 4.63972887 32.09375 7.99023438 C37.32810342 9.62136211 42.53938861 11.16474103 47.875 12.4296875 C55.1636766 14.20135774 62.18445887 16.69788077 69.25 19.1875 C70.59227986 19.65608065 71.93472701 20.12418236 73.27734375 20.59179688 C76.52016932 21.72237034 79.7607077 22.85933652 83 24 C79.59285415 34.70276158 72.91323897 42.68985161 63 48 C52.4264949 52.99676191 40.97598099 53.79656944 29.75 50.4375 C17.59411362 45.73199559 9.59236521 39.05123144 3.65625 27.3515625 C-0.22533557 18.34073885 -0.14486273 9.65751518 0 0 Z " fill="#D5C8C4" transform="translate(386,457)"/>
<path d="M0 0 C1.98 1.32 3.96 2.64 6 4 C5.84144531 5.11117188 5.68289063 6.22234375 5.51953125 7.3671875 C2.93532526 28.25197835 6.28852404 45.43278606 18 63 C17.95875 63.86625 17.9175 64.7325 17.875 65.625 C18.02584808 69.69789825 19.33101777 72.34256698 21.125 75.94921875 C22 78 22 78 22 81 C22.66 81 23.32 81 24 81 C24.30550781 81.65484375 24.61101562 82.3096875 24.92578125 82.984375 C34.43037641 101.9400183 52.26339931 114.54673305 72.16015625 121.2265625 C84.43015214 124.56832204 97.36965131 124.55524395 110 125 C110 125.33 110 125.66 110 126 C83.8857537 126.15721275 58.78827735 125.69919721 33 121 C32.06478516 120.84080078 31.12957031 120.68160156 30.16601562 120.51757812 C16.92093721 118.16528343 16.92093721 118.16528343 13.00390625 113.75 C11.53393908 110.52614677 10.78285839 107.45995449 10 104 C9.49063466 102.24922688 8.96881571 100.50204963 8.4375 98.7578125 C3.95471383 83.88757832 3.95471383 83.88757832 3 77 C2.34 77 1.68 77 1 77 C-0.21440828 72.99923363 -1.36923554 68.98708158 -2.46533203 64.95263672 C-2.93824361 63.22553772 -3.43421103 61.50478796 -3.93359375 59.78515625 C-8.55369678 41.19421536 -8.65943443 18.75482014 -1 1 C-0.67 0.67 -0.34 0.34 0 0 Z " fill="#B19D96" transform="translate(370,441)"/>
<path d="M0 0 C2.41253875 1.67995076 4.21393751 3.14356613 6.25 5.1875 C6.765625 5.67025391 7.28125 6.15300781 7.8125 6.65039062 C12.18777253 10.85087778 14.7790516 13.81867608 15.3984375 19.93359375 C15.41094948 21.43486402 15.40216521 22.93642338 15.375 24.4375 C15.36702393 25.22648682 15.35904785 26.01547363 15.35083008 26.82836914 C14.93094134 44.40168727 14.93094134 44.40168727 10.69726562 49.59936523 C8.72815967 51.22433084 7.38508276 51.62974394 4.89453125 52.1328125 C4.08274414 52.2987793 3.27095703 52.46474609 2.43457031 52.63574219 C1.56928711 52.79719727 0.70400391 52.95865234 -0.1875 53.125 C-1.51442871 53.38265137 -1.51442871 53.38265137 -2.86816406 53.64550781 C-10.90017626 55.12971531 -18.83955727 55.77205467 -27 56 C-25.85405103 52.39180932 -24.54710231 49.07505542 -22.875 45.6875 C-19.41491847 37.13448947 -19.61701353 26.15543038 -22.5 17.4375 C-22.995 16.303125 -23.49 15.16875 -24 14 C-24.66 14 -25.32 14 -26 14 C-26 13.01 -26 12.02 -26 11 C-25.34 11 -24.68 11 -24 11 C-24 10.34 -24 9.68 -24 9 C-16.91065249 3.87912323 -8.95003418 -0.95859327 0 0 Z " fill="#A39C98" transform="translate(514,583)"/>
<path d="M0 0 C4.42699756 0.69944855 8.41539038 2.24257969 12.5625 3.875 C26.48749041 9.15211994 39.16684072 10.62270913 54 11 C53.67 12.65 53.34 14.3 53 16 C51.375 16.75 51.375 16.75 49 17 C45.75 15.0625 45.75 15.0625 43 13 C45.53675337 17.91034112 45.53675337 17.91034112 49.25 21.875 C52.00904041 25.22526335 51.32108932 28.82583885 51 33 C44.73581469 31.51637716 40.08486495 27.75837844 35 24 C37.65557443 29.09870291 40.68160538 33.10070827 44.609375 37.30078125 C46 39 46 39 46 41 C42.5963039 43.06652977 42.5963039 43.06652977 40.109375 42.7890625 C33.92523081 40.47573449 29.29631593 33.49385988 26 28 C26.62269071 31.98522054 27.89042866 35.50571382 29.37890625 39.23046875 C30 41 30 41 30 43 C17.95400329 40.23054655 8.07217314 35.94490837 1.234375 25.234375 C-2.27301798 18.84239713 -4.36060755 13.30840624 -3 6 C-1.5 2.375 -1.5 2.375 0 0 Z " fill="#B09C95" transform="translate(328,648)"/>
<path d="M0 0 C3.67853298 2.69759085 6.48022702 5.65369923 7.51342773 10.15869141 C7.88898376 13.49939032 7.98807561 16.72451652 7.97265625 20.0859375 C7.96943359 21.32988281 7.96621094 22.57382812 7.96289062 23.85546875 C7.95032227 25.78326172 7.95032227 25.78326172 7.9375 27.75 C7.93298828 29.05839844 7.92847656 30.36679687 7.92382812 31.71484375 C7.91207594 34.93494281 7.89564543 38.1549477 7.875 41.375 C0.13640246 45.24429877 -10.45452007 40.82955358 -18.125 38.375 C-21.37068021 37.1385504 -24.55715028 35.82775336 -27.734375 34.42578125 C-30.1946016 33.30055411 -30.1946016 33.30055411 -33.125 32.375 C-32.61982854 26.63441524 -30.32938271 22.37271736 -27.5625 17.4375 C-27.11430908 16.63570312 -26.66611816 15.83390625 -26.2043457 15.0078125 C-22.33084292 8.31215681 -18.33808685 3.73843896 -11.5625 -0.0625 C-7.60820109 -0.97503052 -3.91863734 -1.15254039 0 0 Z " fill="#A09A96" transform="translate(373.125,583.625)"/>
<path d="M0 0 C1.07494492 11.7049558 -2.53369903 22.58842733 -9.38671875 32.09765625 C-12.80822055 36.13221164 -17.87817488 41.5379054 -23.26953125 42.3359375 C-29.06740698 42.42499857 -32.53549762 42.05863853 -37 38 C-42.71813246 31.62038693 -48.20562314 23.75899998 -48 15 C-47.37246826 14.82460693 -46.74493652 14.64921387 -46.09838867 14.46850586 C-33.43458405 10.90778404 -20.98765479 7.09624527 -8.703125 2.3828125 C-2.3220339 0 -2.3220339 0 0 0 Z " fill="#D4C8C4" transform="translate(571,460)"/>
<path d="M0 0 C8.24907662 -0.82279792 15.46444003 2.19150492 23.125 4.875 C24.48268839 5.34096566 25.84075925 5.80581847 27.19921875 6.26953125 C29.69928997 7.12451645 32.1962446 7.98703252 34.69189453 8.85498047 C36.89571139 9.6177776 39.11155871 10.34667103 41.33789062 11.04101562 C45.55999679 12.56196509 46.11310145 15.08105687 48 19 C53.01535052 18.67039784 53.01535052 18.67039784 57 16 C59.27734375 16.171875 59.27734375 16.171875 61.9375 16.75 C62.81277344 16.93046875 63.68804687 17.1109375 64.58984375 17.296875 C67 18 67 18 70 20 C67.56635498 26.12379155 61.37418793 28.49476525 55.64453125 31.05078125 C44.24135398 35.08104993 31.86589246 34.01502729 21 29 C11.62072635 24.36078938 4.58628156 17.77120318 0.79296875 7.83984375 C0.01985657 5.07111195 -0.16800577 2.85609815 0 0 Z " fill="#FAECE7" transform="translate(389,476)"/>
<path d="M0 0 C-0.33 0.99 -0.66 1.98 -1 3 C-1.66 3 -2.32 3 -3 3 C-3.66 5.64 -4.32 8.28 -5 11 C-7.64 11 -10.28 11 -13 11 C-14.29449495 14.88348484 -14.13203312 17.90697336 -14 22 C-12.87465895 23.35618499 -12.87465895 23.35618499 -9.9375 23.0625 C-8.4834375 23.0315625 -8.4834375 23.0315625 -7 23 C-6.78085937 23.70125 -6.56171875 24.4025 -6.3359375 25.125 C-4.14215093 31.68852404 -1.80234605 36.97286328 3 42 C3.66773438 42.73734375 4.33546875 43.4746875 5.0234375 44.234375 C14.02430277 52.4487569 25.45655263 51.20953692 37 51 C37 51.33 37 51.66 37 52 C5.39637089 52.1893654 5.39637089 52.1893654 -9.5 51.625 C-10.43972656 51.59414307 -11.37945312 51.56328613 -12.34765625 51.53149414 C-18.11446508 51.27914379 -23.39802455 50.40049386 -29 49 C-28.16520545 34.65471473 -27.08030133 20.32853814 -26 6 C-25.25524414 5.80301514 -24.51048828 5.60603027 -23.74316406 5.40307617 C-22.76057617 5.13986572 -21.77798828 4.87665527 -20.765625 4.60546875 C-19.79399414 4.34660889 -18.82236328 4.08774902 -17.82128906 3.82104492 C-15.37948261 3.11043614 -13.09697738 2.28161706 -10.75 1.3125 C-6.71610464 -0.09936338 -4.19507868 -0.26219242 0 0 Z " fill="#8B837E" transform="translate(420,590)"/>
<path d="M0 0 C19.78118644 0.36372761 35.37129275 13.06254378 50.6875 24.25 C51.75484375 25.01957031 52.8221875 25.78914063 53.921875 26.58203125 C59.22243274 30.41102531 64.4726142 34.30521533 69.6875 38.25 C66.86793214 39.65978393 65.17657932 38.59729067 62.3125 37.65820312 C61.260625 37.30145508 61.260625 37.30145508 60.1875 36.9375 C55.87287144 35.48131286 51.67136732 34.20449471 47.1796875 33.421875 C39.67588157 31.99995711 32.51686431 29.29595698 25.3125 26.8125 C16.70146328 23.85076066 8.18480304 20.93601438 -0.71044922 18.92431641 C-5.07425324 17.79344507 -9.18669238 16.04819491 -13.3125 14.25 C-12.70716304 10.57594092 -11.12912645 8.43454714 -8.8125 5.5625 C-8.1834375 4.77488281 -7.554375 3.98726563 -6.90625 3.17578125 C-4.46080827 0.22087249 -3.85866382 0.07385003 0 0 Z " fill="#7B6D68" transform="translate(387.3125,419.75)"/>
<path d="M0 0 C10.63827429 0.55990917 19.98845962 9.7841497 28 16 C28.6909375 16.51046875 29.381875 17.0209375 30.09375 17.546875 C31.75 18.8125 31.75 18.8125 34 21 C34 22.32 34 23.64 34 25 C35.0415625 25.22429687 36.083125 25.44859375 37.15625 25.6796875 C41.28341129 26.86510455 43.53841297 28.99791251 46.5 32.125 C46.97574463 32.62217529 47.45148926 33.11935059 47.94165039 33.6315918 C51.75599962 37.64679855 55.4187786 41.77747336 59 46 C59.94836416 47.09709349 60.89766835 48.19337473 61.84765625 49.2890625 C66.76370393 54.97037674 71.65544353 60.64975934 76.19921875 66.63671875 C77.6602393 68.55411015 79.14379856 70.44592523 80.64453125 72.33203125 C81.57556915 73.51298274 82.50655883 74.69397225 83.4375 75.875 C83.88754395 76.43517822 84.33758789 76.99535645 84.80126953 77.57250977 C88 81.66129475 88 81.66129475 88 85 C85.30859375 85.3125 85.30859375 85.3125 82 85 C79.47265625 82.875 79.47265625 82.875 77.0625 80 C76.63138916 79.49670166 76.20027832 78.99340332 75.75610352 78.47485352 C74.49072806 76.99453628 73.24495793 75.49752927 72 74 C70.81658373 72.64226308 69.62959821 71.28762054 68.4375 69.9375 C67.89609375 69.31230469 67.3546875 68.68710937 66.796875 68.04296875 C63.89423954 64.74279843 60.90258255 61.52292916 57.91796875 58.296875 C56.2035891 56.24380935 55.05775205 54.44010525 54 52 C53.34 52 52.68 52 52 52 C50.58984375 50.53125 50.58984375 50.53125 48.9375 48.5 C45.52296638 44.45154453 41.77659612 41.06152129 37.72265625 37.6640625 C37.15417969 37.11492187 36.58570313 36.56578125 36 36 C36 35.34 36 34.68 36 34 C35.45601563 33.78730469 34.91203125 33.57460938 34.3515625 33.35546875 C31.16376186 31.51798233 28.88105474 28.95869995 26.375 26.3125 C19.3830486 19.14609765 12.23766678 13.67059946 2.91796875 9.84375 C0.67555602 8.85727108 -1.153071 7.60602522 -3 6 C-2.67 4.68 -2.34 3.36 -2 2 C-1.34 2 -0.68 2 0 2 C0 1.34 0 0.68 0 0 Z " fill="#C7BDB7" transform="translate(364,233)"/>
<path d="M0 0 C-1.14390846 7.435405 -6.8759416 11.94268318 -12.52392578 16.23950195 C-18.30305129 20.47304738 -24.49584788 23.34605374 -31.05761719 26.14697266 C-33.07708141 27.03385149 -35.05765447 27.98047733 -37.0390625 28.94921875 C-37.70244629 29.27124268 -38.36583008 29.5932666 -39.04931641 29.92504883 C-40.88800421 30.82045987 -42.72529823 31.71873137 -44.5625 32.6171875 C-48.09200123 34.03700959 -51.22669259 34.62459442 -55 35 C-55 35.66 -55 36.32 -55 37 C-56.32 37 -57.64 37 -59 37 C-59 37.66 -59 38.32 -59 39 C-59.94875 39.37125 -60.8975 39.7425 -61.875 40.125 C-72.22641273 44.64726047 -80.03575727 51.1632779 -88 59 C-88.58652344 59.56203125 -89.17304688 60.1240625 -89.77734375 60.703125 C-99.87335319 71.33050336 -105.11963522 86.17398363 -109 100 C-109.25523437 100.89976562 -109.51046875 101.79953125 -109.7734375 102.7265625 C-111.71888298 110.93126734 -111.65260317 119.60762388 -112 128 C-112.66 128 -113.32 128 -114 128 C-114.495 128.99 -114.495 128.99 -115 130 C-115.7222507 110.99369509 -115.04114619 91.19341566 -106 74 C-105.52046875 73.03449219 -105.0409375 72.06898438 -104.546875 71.07421875 C-96.48098395 55.98003913 -83.21756245 43.99549267 -68.5625 35.4375 C-67.97098145 35.09033936 -67.37946289 34.74317871 -66.77001953 34.38549805 C-63.47990475 32.54712638 -61.87875158 32 -58 32 C-58 31.34 -58 30.68 -58 30 C-57.39414062 29.82984375 -56.78828125 29.6596875 -56.1640625 29.484375 C-50.80909126 27.93555255 -45.64463254 26.15996062 -40.49609375 24.0234375 C-38.85526172 23.35067069 -37.20132215 22.70888129 -35.53515625 22.1015625 C-23.57214195 17.67921598 -14.00252389 9.88335219 -4.3359375 1.76171875 C-2 0 -2 0 0 0 Z " fill="#DED9D6" transform="translate(460,351)"/>
<path d="M0 0 C1.69070505 0.06926538 3.37836215 0.21080211 5.0625 0.375 C30.95373157 2.5280022 57.03804902 2.4868984 83 3 C83 4.32 83 5.64 83 7 C80.91015625 8.67578125 80.91015625 8.67578125 78.0625 10.3125 C73.32641163 13.12245719 69.196293 16.1728518 65.0703125 19.8125 C63 21 63 21 60.67285156 20.73071289 C57.87037803 19.96456352 55.69241057 18.91989462 53.1640625 17.49609375 C52.26429688 17.00302734 51.36453125 16.50996094 50.4375 16.00195312 C48.56679639 14.96137424 46.6995714 13.91451619 44.8359375 12.86132812 C37.84988333 9.05021323 37.84988333 9.05021323 30 9 C27.37843446 10.30523042 27.37843446 10.30523042 25 12 C23.190094 12.82433937 21.35522145 13.59594677 19.5 14.3125 C18.5821875 14.67988281 17.664375 15.04726563 16.71875 15.42578125 C13.28474368 16.15106707 12.06395327 15.67508625 9 14 C6.83972134 12.49837594 4.75998579 10.98665359 2.6875 9.375 C1.86282227 8.74464844 1.86282227 8.74464844 1.02148438 8.1015625 C-0.32292168 7.07279961 -1.66201413 6.0370991 -3 5 C-1.125 1.125 -1.125 1.125 0 0 Z " fill="#9C9591" transform="translate(384,695)"/>
<path d="M0 0 C1.27037109 0.01353516 1.27037109 0.01353516 2.56640625 0.02734375 C3.18386719 0.03894531 3.80132812 0.05054688 4.4375 0.0625 C4.95218115 1.55752619 5.44838241 3.05891629 5.9375 4.5625 C6.2159375 5.3978125 6.494375 6.233125 6.78125 7.09375 C7.61217413 10.8526925 7.53612195 14.21624412 7.4375 18.0625 C6.85782471 18.14814209 6.27814941 18.23378418 5.6809082 18.32202148 C3.03707725 18.71337717 0.39353804 19.10667081 -2.25 19.5 C-3.16201172 19.63470703 -4.07402344 19.76941406 -5.01367188 19.90820312 C-5.89990234 20.04033203 -6.78613281 20.17246094 -7.69921875 20.30859375 C-8.51092529 20.42904053 -9.32263184 20.5494873 -10.15893555 20.67358398 C-11.7923907 20.93789014 -13.41869605 21.24983515 -15.03515625 21.60351562 C-17.70251311 22.08792742 -20.15401739 22.1759999 -22.86328125 22.16015625 C-23.83974609 22.15693359 -24.81621094 22.15371094 -25.82226562 22.15039062 C-26.82966797 22.14201172 -27.83707031 22.13363281 -28.875 22.125 C-29.90173828 22.12048828 -30.92847656 22.11597656 -31.98632812 22.11132812 C-34.51174388 22.09958201 -37.03712952 22.08164771 -39.5625 22.0625 C-39.5625 15.4625 -39.5625 8.8625 -39.5625 2.0625 C-37.86222656 2.00191406 -36.16195313 1.94132813 -34.41015625 1.87890625 C-32.14843105 1.79444348 -29.88671265 1.7097984 -27.625 1.625 C-25.94954102 1.56602539 -25.94954102 1.56602539 -24.24023438 1.50585938 C-18.60852948 1.29116095 -13.05308017 0.95501102 -7.45922852 0.26977539 C-4.96579081 -0.00270866 -2.50648615 -0.03530262 0 0 Z " fill="#776F6B" transform="translate(495.5625,665.9375)"/>
<path d="M0 0 C21.78 0.495 21.78 0.495 44 1 C44 7.6 44 14.2 44 21 C39.51975009 21.04634741 35.0403588 21.08603697 30.56005859 21.10986328 C29.04147496 21.11981384 27.52290993 21.13337916 26.00439453 21.15087891 C16.7837455 21.25434493 8.06879307 20.9458199 -1 19 C-1.10551806 12.45788013 -0.66396147 6.63961468 0 0 Z " fill="#79726E" transform="translate(402,667)"/>
<path d="M0 0 C2.31 0 4.62 0 7 0 C6.67 1.65 6.34 3.3 6 5 C5.35933594 5.12117187 4.71867188 5.24234375 4.05859375 5.3671875 C-2.11282195 6.56284181 -8.03291895 8.01097298 -14 10 C-33.84210276 13.06953093 -53.70383638 13.45397016 -73.72662354 13.3225708 C-76.53654001 13.30900427 -79.3463019 13.31442744 -82.15623665 13.31945992 C-109.72177669 13.35622713 -109.72177669 13.35622713 -123 11 C-123.66 9.02 -124.32 7.04 -125 5 C-123.80685181 5.04543945 -123.80685181 5.04543945 -122.58959961 5.09179688 C-105.60078957 5.71926908 -88.62589253 6.10668747 -71.625 6.125 C-70.83181366 6.12749756 -70.03862732 6.12999512 -69.22140503 6.13256836 C-52.64013128 6.17555231 -36.21753349 5.45965893 -19.75 3.4375 C-6.19108618 1.7942269 -6.19108618 1.7942269 0 2 C0 1.34 0 0.68 0 0 Z " fill="#9C9591" transform="translate(517,645)"/>
<path d="M0 0 C17.86337638 1.29762503 36.38888373 5.38774546 52.98730469 12.17724609 C54.39889738 12.75427998 55.81687843 13.31581453 57.23925781 13.86572266 C75.15925677 20.81375744 86.36307333 31.83257811 99 46 C98.505 46.99 98.505 46.99 98 48 C93.92136788 45.89888648 91.11846019 43.23617134 88.0390625 39.9140625 C82.74357768 34.9432051 76.73092558 31.62238015 70.1875 28.5625 C68.94842896 27.98218018 68.94842896 27.98218018 67.68432617 27.39013672 C56.78119802 22.39844305 45.72115964 18.46684918 33.875 16.5 C22.46664113 14.55694286 8.94487901 10.67625435 0 3 C0 2.01 0 1.02 0 0 Z " fill="#DDD8D5" transform="translate(492,341)"/>
<path d="M0 0 C5.14903059 0.58571316 9.79396697 1.76963593 14.68359375 3.50390625 C15.73414696 3.86801857 15.73414696 3.86801857 16.80592346 4.23948669 C19.01857023 5.00788725 21.22802727 5.78502596 23.4375 6.5625 C24.94706256 7.08847378 26.45682647 7.61387007 27.96679688 8.13867188 C31.64689197 9.41911873 35.32415492 10.70740561 39 12 C37.61934196 16.37472872 36.08622447 19.65961832 33.375 23.375 C32.74335938 24.24898438 32.11171875 25.12296875 31.4609375 26.0234375 C30.97882813 26.67570312 30.49671875 27.32796875 30 28 C29.25234375 27.69964844 28.5046875 27.39929688 27.734375 27.08984375 C26.74953125 26.70957031 25.7646875 26.32929688 24.75 25.9375 C23.77546875 25.55464844 22.8009375 25.17179687 21.796875 24.77734375 C18.89698762 23.97136946 17.73841709 23.88239815 15 25 C14.01 25.66 13.02 26.32 12 27 C9.625 27.625 9.625 27.625 7 27 C2.97901837 23.06666919 1.66750675 18.84785561 1.5625 13.3125 C1.65774991 9.44087122 2.41514997 6.53249705 4 3 C2.68 2.01 1.36 1.02 0 0 Z " fill="#8FB8D1" transform="translate(430,469)"/>
<path d="M0 0 C3.90935432 1.53581777 5.83836744 3.39727906 8 7 C8.58665596 10.88068653 8.51984717 14.70779506 8.4375 18.625 C8.41224243 20.30517212 8.41224243 20.30517212 8.38647461 22.01928711 C7.94104248 40.65696499 4.40835251 58.15063326 -4 75 C-4.99 75.495 -4.99 75.495 -6 76 C-5.93005609 69.93883857 -5.84160897 63.87829884 -5.73754883 57.81762695 C-5.704728 55.76496407 -5.67657007 53.71222018 -5.65356445 51.65942383 C-5.51420202 39.54082286 -4.86239312 27.85180689 -2.69311523 15.91552734 C-2.10261349 12.57968126 -1.67198479 9.30930917 -1.375 5.9375 C-1 2 -1 2 0 0 Z " fill="#9F9793" transform="translate(598,426)"/>
<path d="M0 0 C1.33212533 3.996376 0.27718534 5.64951365 -1.1875 9.5625 C-1.42017578 10.19091797 -1.65285156 10.81933594 -1.89257812 11.46679688 C-3.20946739 14.99894645 -4.58703032 18.50537129 -6 22 C-10.13972134 32.2491488 -13.535959 42.48762533 -16.08984375 53.23046875 C-17.07606488 57.31503265 -18.20018725 61.3447701 -19.38671875 65.375 C-20.87267459 71.7352696 -21.17075679 78.15341204 -21.31640625 84.65625 C-21.33718735 85.44398804 -21.35796844 86.23172607 -21.37937927 87.04333496 C-21.44410974 89.52881206 -21.50339906 92.01438333 -21.5625 94.5 C-21.60575823 96.19792592 -21.64937468 97.89584275 -21.69335938 99.59375 C-21.79971113 103.72907325 -21.90118749 107.86449001 -22 112 C-27.40413591 106.59586409 -26.23951018 94.44066073 -26.27575684 87.24700928 C-26.27420631 85.88846009 -26.26918224 84.52991057 -26.26074219 83.17138672 C-26.25004454 81.13348406 -26.26069771 79.09646959 -26.2734375 77.05859375 C-26.28628597 65.81651686 -25.67328994 54.70707478 -22 44 C-21.69062415 42.42845342 -21.4079801 40.85133529 -21.15625 39.26953125 C-20.07300599 33.65702568 -17.98922235 28.81037871 -15.5 23.6875 C-15.06510254 22.7797583 -14.63020508 21.8720166 -14.18212891 20.93676758 C-10.32963917 13.15926904 -5.69997281 6.53677733 0 0 Z " fill="#272523" transform="translate(349,351)"/>
<path d="M0 0 C0.515625 0.495 1.03125 0.99 1.5625 1.5 C0.61375 1.726875 -0.335 1.95375 -1.3125 2.1875 C-4.55749944 3.13386476 -4.55749944 3.13386476 -5.38671875 5.59375 C-5.73347656 6.5528125 -6.08023437 7.511875 -6.4375 8.5 C-7.03489505 9.74343512 -7.64967564 10.97859953 -8.27734375 12.20703125 C-8.61830078 12.87669922 -8.95925781 13.54636719 -9.31054688 14.23632812 C-10.01461212 15.60957832 -10.72031582 16.98198985 -11.42773438 18.35351562 C-15.78877484 26.55689055 -15.78877484 26.55689055 -17.4375 35.5 C-16.1175 36.16 -14.7975 36.82 -13.4375 37.5 C-15.4375 38.5 -15.4375 38.5 -17.31689453 37.97094727 C-18.06052246 37.67244873 -18.80415039 37.3739502 -19.5703125 37.06640625 C-20.37597656 36.74736328 -21.18164062 36.42832031 -22.01171875 36.09960938 C-23.27435547 35.58624023 -23.27435547 35.58624023 -24.5625 35.0625 C-25.83673828 34.55493164 -25.83673828 34.55493164 -27.13671875 34.03710938 C-29.23982371 33.19823043 -31.33980155 32.35228875 -33.4375 31.5 C-32.93232854 25.75941524 -30.64188271 21.49771736 -27.875 16.5625 C-27.42680908 15.76070312 -26.97861816 14.95890625 -26.5168457 14.1328125 C-22.64334292 7.43715681 -18.65058685 2.86343896 -11.875 -0.9375 C-7.51890263 -1.94275324 -3.89866836 -2.39918053 0 0 Z " fill="#87817E" transform="translate(373.4375,584.5)"/>
<path d="M0 0 C0.05399736 1.45792884 0.09279177 2.91642712 0.125 4.375 C0.14820313 5.18710937 0.17140625 5.99921875 0.1953125 6.8359375 C0 9 0 9 -2 11 C-5.47892859 12.08909425 -8.9919581 12.98420827 -12.51953125 13.90234375 C-15.77702264 14.92967829 -18.10997781 16.23571477 -21 18 C-23.5859375 18.7734375 -23.5859375 18.7734375 -26.375 19.375 C-32.10320344 20.70018139 -37.57578051 22.46919089 -43.09912109 24.46240234 C-44.71491907 25.02863676 -46.35629821 25.52076214 -48 26 C-48.66 25.67 -49.32 25.34 -50 25 C-18.48941883 -5.14055591 -18.48941883 -5.14055591 0 0 Z " fill="#7A6C68" transform="translate(580,432)"/>
<path d="M0 0 C0.66 0 1.32 0 2 0 C2 0.66 2 1.32 2 2 C2.60585938 2.09796875 3.21171875 2.1959375 3.8359375 2.296875 C10.27658746 3.4462833 16.01456522 5.37659667 22 8 C21.125 12.75 21.125 12.75 20 15 C19.01 15.33 18.02 15.66 17 16 C16.67 16.66 16.34 17.32 16 18 C14.02 18 12.04 18 10 18 C10.33 20.31 10.66 22.62 11 25 C11.66 25 12.32 25 13 25 C9.89130435 35.04347826 9.89130435 35.04347826 6.1875 38.875 C3.32150525 40.34894016 1.17739077 40.28243473 -2 40 C-3 39 -3 39 -3.15234375 35.8828125 C-3.00112299 32.02862175 -2.41053194 28.63230898 -1.5625 24.875 C-0.06262233 17.94166917 0.65320416 11.09137695 1 4 C0.34 4 -0.32 4 -1 4 C-0.67 2.68 -0.34 1.36 0 0 Z " fill="#3B3837" transform="translate(321,572)"/>
<path d="M0 0 C4.71687498 1.42358395 8.01720436 3.73566711 11.92578125 6.671875 C12.67013428 7.21473145 13.4144873 7.75758789 14.18139648 8.31689453 C15.66978992 9.40407727 17.15419243 10.49674774 18.63427734 11.59521484 C20.39533939 12.90137447 22.16537232 14.19242738 23.9453125 15.47265625 C29.23848296 19.28521959 34.47337175 23.17402798 39.67578125 27.109375 C36.85621339 28.51915893 35.16486057 27.45666567 32.30078125 26.51757812 C31.24890625 26.16083008 31.24890625 26.16083008 30.17578125 25.796875 C25.79746864 24.3191945 21.51596265 23.03071748 16.96484375 22.19921875 C10.65590136 21.00460095 4.64160945 18.98868242 -1.44921875 16.984375 C-2.59648437 16.61183594 -3.74375 16.23929687 -4.92578125 15.85546875 C-7.72693088 14.94509512 -10.52630892 14.02964751 -13.32421875 13.109375 C-13.32421875 9.109375 -13.32421875 9.109375 -11.3828125 6.71484375 C-10.51785156 5.91691406 -9.65289062 5.11898438 -8.76171875 4.296875 C-7.91480469 3.48605469 -7.06789063 2.67523438 -6.1953125 1.83984375 C-3.32421875 0.109375 -3.32421875 0.109375 0 0 Z " fill="#8E7E79" transform="translate(417.32421875,430.890625)"/>
<path d="M0 0 C1.92960571 0.24447876 1.92960571 0.24447876 3.89819336 0.49389648 C8.8247557 1.03915505 13.67670329 1.12850688 18.62890625 1.09765625 C19.94156715 1.09553383 19.94156715 1.09553383 21.28074646 1.09336853 C24.04136762 1.08782719 26.80190388 1.07528612 29.5625 1.0625 C31.44856653 1.0574774 33.33463434 1.05291583 35.22070312 1.04882812 C39.81383417 1.03787707 44.40690275 1.02065384 49 1 C49.99 4.3 50.98 7.6 52 11 C34.12176642 13.64135075 16.8060602 13.08239361 -1 10 C-1.125 2.25 -1.125 2.25 0 0 Z " fill="#605A57" transform="translate(380,726)"/>
<path d="M0 0 C2.97 0.495 2.97 0.495 6 1 C6 1.66 6 2.32 6 3 C6.75796875 3.0928125 7.5159375 3.185625 8.296875 3.28125 C14.42718288 4.47109879 20.30591091 6.54172786 26.23828125 8.47265625 C32.55674527 10.46226481 38.38558911 11.563885 45 12 C45 14.97 45 17.94 45 21 C27.26980804 21.26595288 27.26980804 21.26595288 20.109375 17.8828125 C17.31935613 16.71513794 14.46467803 15.91175486 11.5625 15.0625 C6.34704123 13.50268034 1.76548464 11.61634451 -3 9 C-2.44271087 5.65626525 -1.64826111 2.96687001 0 0 Z " fill="#776F6B" transform="translate(333,626)"/>
<path d="M0 0 C0.33 0 0.66 0 1 0 C0.70003059 7.19926573 -2.46623323 11.63612586 -7.625 16.546875 C-12.76107863 20.91254183 -15.84745223 22.4615731 -22.49609375 22.31640625 C-27.50303643 21.68370367 -30.19363067 18.93369081 -33.375 15.25 C-34.179375 14.13625 -34.179375 14.13625 -35 13 C-34.03910446 10.55124587 -33.50235756 9.26661214 -31.13647461 8.01098633 C-30.39921143 7.78693115 -29.66194824 7.56287598 -28.90234375 7.33203125 C-28.10119141 7.07873047 -27.30003906 6.82542969 -26.47460938 6.56445312 C-25.63736328 6.31630859 -24.80011719 6.06816406 -23.9375 5.8125 C-22.27925554 5.30041378 -20.62166513 4.78620319 -18.96484375 4.26953125 C-18.2287085 4.04885986 -17.49257324 3.82818848 -16.73413086 3.60083008 C-14.99357499 3.13912411 -14.99357499 3.13912411 -14 2 C-12.33382885 1.95936168 -10.66611905 1.957279 -9 2 C-8.34 3.65 -7.68 5.3 -7 7 C-5.68 7 -4.36 7 -3 7 C-2.690625 6.21625 -2.38125 5.4325 -2.0625 4.625 C-1 2 -1 2 0 0 Z " fill="#F8EAE6" transform="translate(565,480)"/>
<path d="M0 0 C2.8444441 -0.55652167 4.23569073 -0.71920967 7 0 C12.61974121 3.95017032 20.04153219 9.83481503 21.35961914 16.93798828 C21.50325563 19.14109966 21.50243918 21.29324862 21.4375 23.5 C21.42501221 24.2844751 21.41252441 25.0689502 21.3996582 25.87719727 C20.88599957 43.16803391 20.88599957 43.16803391 16.59375 48.8671875 C14.14642517 50.6067076 11.90685203 50.19379014 9 50 C9.33 47.36 9.66 44.72 10 42 C10.66 42 11.32 42 12 42 C12.11755481 38.35444442 12.18769812 34.70938526 12.25 31.0625 C12.30027344 29.53012695 12.30027344 29.53012695 12.3515625 27.96679688 C12.46795284 18.85925239 10.34654141 11.74320024 4 5 C3.2575 4.443125 2.515 3.88625 1.75 3.3125 C1.1725 2.879375 0.595 2.44625 0 2 C0 1.34 0 0.68 0 0 Z " fill="#BDB9B6" transform="translate(508,584)"/>
<path d="M0 0 C5.42247304 0.688568 8.84635203 2.95597162 12.9375 6.5 C16.21354489 10.86805986 16.28723277 14.94600515 16.3359375 20.23046875 C15.85506802 22.96953904 15.15010193 23.85754845 12.9375 25.5 C9.13070454 26.09216818 7.29218218 25.68819871 3.875 23.875 C-0.59670525 20.25957873 -4.6897777 16.26543365 -6.0625 10.5 C-5.87796747 0.95966816 -5.87796747 0.95966816 0 0 Z " fill="#9B948F" transform="translate(500.0625,279.5)"/>
<path d="M0 0 C3.3 0.33 6.6 0.66 10 1 C10 1.66 10 2.32 10 3 C10.721875 2.87625 11.44375 2.7525 12.1875 2.625 C15.60558243 3.08074432 16.98319507 4.35681201 19.0625 7.06640625 C20.76694989 10.58183415 20.38056669 14.19433313 20 18 C13.73581469 16.51637716 9.08486495 12.75837844 4 9 C6.65557443 14.09870291 9.68160538 18.10070827 13.609375 22.30078125 C15 24 15 24 15 26 C11.59764414 28.06571606 11.59764414 28.06571606 9.1171875 27.79296875 C6.38952925 26.77135505 4.91828224 25.31658965 2.875 23.25 C2.19179688 22.57453125 1.50859375 21.8990625 0.8046875 21.203125 C-1.84331432 17.97049941 -2.97633411 15.40812016 -3.046875 11.2109375 C-2.94890625 10.27507813 -2.8509375 9.33921875 -2.75 8.375 C-2.66234375 7.43398438 -2.5746875 6.49296875 -2.484375 5.5234375 C-2 3 -2 3 0 0 Z " fill="#C8B2AB" transform="translate(359,663)"/>
<path d="M0 0 C1.00109515 3.31070838 1.10356134 6.30084769 1.0625 9.75 C1.05347656 10.73484375 1.04445313 11.7196875 1.03515625 12.734375 C1.02355469 13.48203125 1.01195312 14.2296875 1 15 C-12.98514879 22.2423092 -12.98514879 22.2423092 -20 22 C-20.33848652 20.10507994 -20.67056911 18.20901534 -21 16.3125 C-21.185625 15.25675781 -21.37125 14.20101562 -21.5625 13.11328125 C-21.95068074 10.35095938 -22.08259976 7.78257957 -22 5 C-19.08503169 4.1602972 -16.1682814 3.32803997 -13.25 2.5 C-12.0125 2.14228516 -12.0125 2.14228516 -10.75 1.77734375 C-9.95078125 1.55175781 -9.1515625 1.32617188 -8.328125 1.09375 C-7.5949707 0.88427734 -6.86181641 0.67480469 -6.10644531 0.45898438 C-4 0 -4 0 0 0 Z " fill="#776F6C" transform="translate(533,658)"/>
<path d="M0 0 C1.98 0 3.96 0 6 0 C8.48605403 7.8022142 10.56993514 14.73594051 10 23 C4.62669111 26.39366878 0.13053511 26.32712342 -6 26 C-6.27263672 24.87464844 -6.27263672 24.87464844 -6.55078125 23.7265625 C-8.01271489 17.77386859 -9.57980618 11.89691302 -11.44921875 6.05859375 C-12 4 -12 4 -12 1 C-10.02 1 -8.04 1 -6 1 C-5.01836578 2.93625098 -4.03977546 4.87404539 -3.0625 6.8125 C-2.51722656 7.89144531 -1.97195313 8.97039063 -1.41015625 10.08203125 C0 13 0 13 1 16 C1.11138159 10.54230189 0.91657981 5.38490641 0 0 Z " fill="#948D89" transform="translate(491,696)"/>
<path d="M0 0 C0.59972035 8.46272046 -0.92205201 15.12649912 -4 23 C-4.66 22.67 -5.32 22.34 -6 22 C-6.4125 22.825 -6.825 23.65 -7.25 24.5 C-8.11625 25.7375 -8.11625 25.7375 -9 27 C-10.32 27 -11.64 27 -13 27 C-17.17981006 20.20780865 -17.4731614 14.88602342 -17 7 C-17.66 6.67 -18.32 6.34 -19 6 C-16.02163997 4.99758612 -13.04218266 3.99847479 -10.0625 3 C-9.21236328 2.71382813 -8.36222656 2.42765625 -7.48632812 2.1328125 C-6.67744141 1.86210937 -5.86855469 1.59140625 -5.03515625 1.3125 C-4.2862915 1.06113281 -3.53742676 0.80976563 -2.76586914 0.55078125 C-1 0 -1 0 0 0 Z " fill="#92BBD4" transform="translate(571,460)"/>
<path d="M0 0 C1.71275535 1.27358732 3.37667033 2.61423077 5 4 C14.58980463 8.79490231 24.34066289 10.51285521 35 10.4375 C36.00289063 10.45748047 37.00578125 10.47746094 38.0390625 10.49804688 C45.38432507 10.49330187 51.27591342 8.91283327 58 6 C57 9 57 9 54.453125 10.53515625 C52.86757813 11.29119141 52.86757813 11.29119141 51.25 12.0625 C50.20328125 12.56910156 49.1565625 13.07570313 48.078125 13.59765625 C47.06234375 14.06042969 46.0465625 14.52320313 45 15 C44.20078125 15.38285156 43.4015625 15.76570312 42.578125 16.16015625 C32.58517766 19.41543455 20.35910438 17.09695734 11 13 C7.16261677 10.87305676 3.44520941 8.66724967 0.55078125 5.328125 C-1.57261149 3.50960225 -2.93798075 3.69295568 -5.6875 3.8125 C-6.89986328 3.85310547 -6.89986328 3.85310547 -8.13671875 3.89453125 C-8.75160156 3.92933594 -9.36648438 3.96414063 -10 4 C-10 3.34 -10 2.68 -10 2 C-6.58442978 -0.10188936 -3.97827 -0.4871351 0 0 Z " fill="#332F2C" transform="translate(468,536)"/>
<path d="M0 0 C3.4080068 1.41020971 5.10684849 2.82712038 7 6 C8.84964492 17.41331286 5.53744872 26.70773828 1 37 C0.36191406 38.48886719 0.36191406 38.48886719 -0.2890625 40.0078125 C-1.16480089 42.01760059 -2.07679897 44.01156701 -3 46 C-3.33 46 -3.66 46 -4 46 C-4.05886171 42.20840036 -4.09388224 38.41692081 -4.125 34.625 C-4.14175781 33.56410156 -4.15851562 32.50320313 -4.17578125 31.41015625 C-4.21245764 25.43190458 -3.80150359 19.96222617 -2.4765625 14.13037109 C-1.90929737 11.59453322 -1.63504398 9.08908709 -1.4375 6.5 C-1.10486891 2.20973783 -1.10486891 2.20973783 0 0 Z " fill="#AAA29D" transform="translate(598,426)"/>
<path d="M0 0 C6.87768348 1.64126538 13.44516989 3.35285707 20 6 C18.50262972 12.32223009 14.77144841 16.83171885 11 22 C6.71 20.35 2.42 18.7 -2 17 C-1.34 11.39 -0.68 5.78 0 0 Z " fill="#D5C9C5" transform="translate(449,475)"/>
<path d="M0 0 C11.88 0 23.76 0 36 0 C36 1.32 36 2.64 36 4 C33.8046875 5.78125 33.8046875 5.78125 30.875 7.5 C29.37646484 8.39912109 29.37646484 8.39912109 27.84765625 9.31640625 C26.90792969 9.87199219 25.96820313 10.42757812 25 11 C23.76370198 11.80160722 22.53255944 12.61138747 21.3125 13.4375 C20.549375 13.953125 19.78625 14.46875 19 15 C15 8.25 15 8.25 15 6 C13.96875 6.350625 12.9375 6.70125 11.875 7.0625 C7.98030666 8.00476452 5.80300176 8.14974472 2 7 C0 4 0 4 0 0 Z " fill="#8B837E" transform="translate(431,698)"/>
<path d="M0 0 C21.78 0.495 21.78 0.495 44 1 C44 1.33 44 1.66 44 2 C33.44 2 22.88 2 12 2 C12.33 7.61 12.66 13.22 13 19 C15.97 19.33 18.94 19.66 22 20 C22 20.33 22 20.66 22 21 C14.10042938 21.27990605 6.7527507 20.51537186 -1 19 C-1.10551806 12.45788013 -0.66396147 6.63961468 0 0 Z " fill="#4F4A47" transform="translate(402,667)"/>
<path d="M0 0 C1.69070505 0.06926538 3.37836215 0.21080211 5.0625 0.375 C12.83956119 1.04901197 20.61953684 1.33851694 28.42016602 1.60693359 C34.00633788 1.81475316 39.46564503 2.20654409 45 3 C44.67 3.66 44.34 4.32 44 5 C35.09 4.67 26.18 4.34 17 4 C17.66 4.66 18.32 5.32 19 6 C18.625 8.625 18.625 8.625 18 11 C17.34 11 16.68 11 16 11 C16 11.66 16 12.32 16 13 C16.99 13.33 17.98 13.66 19 14 C16.41495933 15.14965398 14.77223445 15.85135825 12 16 C8.97904551 14.68098123 6.59443208 12.71216678 4.0625 10.625 C3.37865234 10.09132813 2.69480469 9.55765625 1.99023438 9.0078125 C0.310617 7.69230798 -1.34699085 6.34878739 -3 5 C-1.125 1.125 -1.125 1.125 0 0 Z " fill="#8F8985" transform="translate(384,695)"/>
<path d="M0 0 C4.18686426 3.72853888 6.49749055 8.65774418 8 14 C7.5490451 17.24282175 6.59895314 19.0777753 5 22 C0.68028594 21.50157146 -1.26020027 20.24032567 -4.25 17.125 C-4.93578125 16.42632812 -5.6215625 15.72765625 -6.328125 15.0078125 C-9.45342357 11.25453338 -9.17103436 7.70344478 -9 3 C-8.67 2.34 -8.34 1.68 -8 1 C-2.25 0.875 -2.25 0.875 0 2 C0 1.34 0 0.68 0 0 Z " fill="#7E7874" transform="translate(453,318)"/>
<path d="M0 0 C2.64 0 5.28 0 8 0 C8 2.31 8 4.62 8 7 C12.16642697 7.11703447 16.3324259 7.18753101 20.5 7.25 C22.25957031 7.30027344 22.25957031 7.30027344 24.0546875 7.3515625 C31.1613704 7.43141287 36.00008717 6.82292219 42 3 C43.32718644 2.32117869 44.65913355 1.65138267 46 1 C47.32 3.31 48.64 5.62 50 8 C41.83078612 11.14200534 33.40033571 11.16964278 24.75 11.125 C23.38161987 11.12209961 23.38161987 11.12209961 21.9855957 11.11914062 C14.95136807 11.07438809 7.99982085 10.72725411 1 10 C0.67 6.7 0.34 3.4 0 0 Z " fill="#5A5551" transform="translate(465,726)"/>
<path d="M0 0 C1.79244141 0.23009766 1.79244141 0.23009766 3.62109375 0.46484375 C10.08534064 1.1830934 16.56549882 1.35180512 23.0625 1.5625 C24.93325195 1.62727539 24.93325195 1.62727539 26.84179688 1.69335938 C29.89444091 1.79862296 32.94715523 1.90075941 36 2 C36 2.33 36 2.66 36 3 C31.05 3 26.1 3 21 3 C21 5.97 21 8.94 21 12 C18.08302989 11.85895309 15.1665198 11.71235186 12.25 11.5625 C11.0125 11.50352539 11.0125 11.50352539 9.75 11.44335938 C8.95078125 11.40146484 8.1515625 11.35957031 7.328125 11.31640625 C6.5949707 11.27974854 5.86181641 11.24309082 5.10644531 11.20532227 C2.98822395 10.99885215 1.0480544 10.56867914 -1 10 C-1.125 2.25 -1.125 2.25 0 0 Z " fill="#484441" transform="translate(380,726)"/>
<path d="M0 0 C4.9145115 0.57335967 6.29902506 1.98652506 9.75 5.4375 C10.92673198 7.79096396 10.91623866 9.3181033 10.9375 11.9375 C10.95167969 12.7315625 10.96585937 13.525625 10.98046875 14.34375 C10.75 16.4375 10.75 16.4375 8.75 18.4375 C5.4375 18.875 5.4375 18.875 1.75 18.4375 C-1.41639117 15.90438706 -3.98880431 13.33574124 -5.25 9.4375 C-5.5 5.8125 -5.5 5.8125 -5.25 2.4375 C-3.25 0.4375 -3.25 0.4375 0 0 Z " fill="#7E7874" transform="translate(283.25,354.5625)"/>
<path d="M0 0 C4.34167968 0.58445688 6.15862991 2.41638832 9.25 5.4375 C11.465015 8.7600225 11.44410876 9.31481591 10.9375 13.0625 C10.83824219 13.85914063 10.73898437 14.65578125 10.63671875 15.4765625 C10.25 17.4375 10.25 17.4375 9.25 18.4375 C5.18781891 18.82809434 2.94647406 18.87086164 -0.5625 16.6875 C-3.90835879 13.24604525 -4.85402713 11.06949837 -5 6.3125 C-4.71072005 1.82866075 -4.48372013 0.71331911 0 0 Z " fill="#7D7773" transform="translate(297.75,294.5625)"/>
<path d="M0 0 C4.61899241 0.54801605 5.8364895 1.85337251 8.6875 5.4375 C11.15180702 8.9579386 10.99965232 12.22344361 10.6875 16.4375 C8.6875 18.4375 8.6875 18.4375 4.9375 18.5 C0.56713434 17.81413969 -1.61044051 15.95596955 -4.25 12.484375 C-6.0909505 8.93783801 -5.84566744 6.36960986 -5.3125 2.4375 C-3.3125 0.4375 -3.3125 0.4375 0 0 Z " fill="#7D7773" transform="translate(328.3125,339.5625)"/>
<path d="M0 0 C3.62219695 1.23287154 7.00557529 2.59376586 10 5 C10.78125 7.67578125 10.78125 7.67578125 11 10 C6.5191676 12.9872216 2.25585635 12.479758 -3 12 C-6.87873825 11.0334334 -10.12160119 9.87839881 -13 7 C-12.8125 4.5 -12.8125 4.5 -12 2 C-7.89548547 -0.73634302 -4.81926125 -0.72104977 0 0 Z " fill="#C1BDBA" transform="translate(459,590)"/>
<path d="M0 0 C4.34584913 0.56994743 6.33787278 1.55764642 9.49609375 4.50390625 C11.924399 8.18599522 11.51238058 12.27685696 10.8125 16.5 C9.2630907 18.0494093 7.77500542 17.93052715 5.625 18.125 C2.44277416 18.10466629 1.23942627 17.89754268 -1.1171875 15.703125 C-3.60175937 12.1605297 -5.06110975 9.36893298 -5.6875 5.0625 C-4.92672332 1.16351952 -3.88542671 0.6094787 0 0 Z " fill="#7D7773" transform="translate(325.1875,465.5)"/>
<path d="M0 0 C14.48389511 -0.8464614 26.69546571 1.00467681 38 11 C38.67160156 11.54269531 39.34320312 12.08539063 40.03515625 12.64453125 C43.64471756 15.59389446 43.64471756 15.59389446 45 17 C45 17.66 45 18.32 45 19 C42.0496677 17.88504884 39.21112074 16.63558044 36.390625 15.23046875 C26.47188079 10.31321701 16.68810319 6.83114027 6 4 C3.6637247 3.34316651 1.33188855 2.67231072 -1 2 C-0.67 1.34 -0.34 0.68 0 0 Z " fill="#2F2D2A" transform="translate(520,316)"/>
<path d="M0 0 C-0.81082031 0.70382813 -1.62164062 1.40765625 -2.45703125 2.1328125 C-13.64282723 12.03042353 -22.5908197 22.73341601 -29.7578125 35.8671875 C-30.16773438 36.57101562 -30.57765625 37.27484375 -31 38 C-31.33 38 -31.66 38 -32 38 C-30.26146014 24.09168115 -25.09744052 14.02027661 -14 5 C-4.2125 -1.40416667 -4.2125 -1.40416667 0 0 Z " fill="#292725" transform="translate(379,254)"/>
<path d="M0 0 C10.59593395 -0.87489363 20.72661824 1.72943921 31 4 C31 4.66 31 5.32 31 6 C27.73348625 7.03502777 24.46122637 8.05053935 21.1875 9.0625 C20.25873047 9.35705078 19.32996094 9.65160156 18.37304688 9.95507812 C17.48037109 10.22900391 16.58769531 10.50292969 15.66796875 10.78515625 C14.84578857 11.04176025 14.0236084 11.29836426 13.17651367 11.56274414 C11 12 11 12 8 11 C6.65668346 9.00669158 5.32405988 7.00615134 4 5 C2.68441297 3.97676564 1.35622245 2.96873032 0 2 C0 1.34 0 0.68 0 0 Z " fill="#BEA9A2" transform="translate(382,575)"/>
<path d="M0 0 C2.97 0.495 2.97 0.495 6 1 C6 1.66 6 2.32 6 3 C6.86625 3.12375 7.7325 3.2475 8.625 3.375 C11.89513853 3.98058121 14.87256899 4.88306035 18 6 C17.01 9.3 16.02 12.6 15 16 C8.54743746 14.20762152 2.89709524 12.16695855 -3 9 C-2.44271087 5.65626525 -1.64826111 2.96687001 0 0 Z " fill="#645E5A" transform="translate(333,626)"/>
<path d="M0 0 C1.98 0 3.96 0 6 0 C10.89210827 15.35335766 10.89210827 15.35335766 10 23 C6.77208445 25.1519437 5.71599191 25.20086443 2 25 C1.90912109 23.17275391 1.90912109 23.17275391 1.81640625 21.30859375 C1.73193597 19.68488723 1.64729128 18.06118978 1.5625 16.4375 C1.50352539 15.23770508 1.50352539 15.23770508 1.44335938 14.01367188 C1.19251844 9.28628494 0.74678186 4.67523099 0 0 Z " fill="#9E9894" transform="translate(491,696)"/>
<path d="M0 0 C3.5 1.5625 3.5 1.5625 6 3 C5.67 3.99 5.34 4.98 5 6 C2.8046875 6.7734375 2.8046875 6.7734375 -0.125 7.375 C-5.95607954 8.67858269 -11.48749727 10.43668238 -17.09814453 12.46240234 C-18.71432906 13.02847279 -20.35600003 13.5206752 -22 14 C-22.66 13.67 -23.32 13.34 -24 13 C-21.7118165 10.85042676 -19.41887679 8.70599544 -17.125 6.5625 C-16.47402344 5.95083984 -15.82304688 5.33917969 -15.15234375 4.70898438 C-14.21455078 3.8340332 -14.21455078 3.8340332 -13.2578125 2.94140625 C-12.6817627 2.40201416 -12.10571289 1.86262207 -11.51220703 1.30688477 C-7.91253936 -1.80403242 -4.37490911 -0.94789697 0 0 Z " fill="#897A75" transform="translate(554,444)"/>
<path d="M0 0 C1.97590333 1.46138239 3.87800073 2.98613174 5.78515625 4.53515625 C6.77515625 5.19515625 7.76515625 5.85515625 8.78515625 6.53515625 C8.45515625 7.19515625 8.12515625 7.85515625 7.78515625 8.53515625 C7.22828125 8.26960938 6.67140625 8.0040625 6.09765625 7.73046875 C1.04425225 5.39156217 -3.76915346 3.66326535 -9.21484375 2.53515625 C-9.95089844 2.37273437 -10.68695313 2.2103125 -11.4453125 2.04296875 C-18.64777025 0.51553073 -25.92182334 -0.47702831 -33.21484375 -1.46484375 C-24.17486657 -7.4914952 -8.83437298 -5.84283927 0 0 Z " fill="#3B3835" transform="translate(492.21484375,260.46484375)"/>
<path d="M0 0 C-1.25103516 0.99966797 -1.25103516 0.99966797 -2.52734375 2.01953125 C-14.97139578 11.80420621 -14.97139578 11.80420621 -23 25 C-23.66 25 -24.32 25 -25 25 C-25.99 27.475 -25.99 27.475 -27 30 C-27.33 30 -27.66 30 -28 30 C-27.8505513 20.73418031 -24.15194088 15.31534464 -17.81640625 8.73046875 C-6.24279284 -2.08093095 -6.24279284 -2.08093095 0 0 Z " fill="#2C2A27" transform="translate(333,296)"/>
<path d="M0 0 C-0.30769707 1.81332154 -0.62129064 3.62564345 -0.9375 5.4375 C-1.19853516 6.95150391 -1.19853516 6.95150391 -1.46484375 8.49609375 C-2 11 -2 11 -3 12 C-7.84034716 12.16407956 -12.23258627 11.95348275 -17 11 C-17.33 9.02 -17.66 7.04 -18 5 C-17.00419922 4.70996094 -17.00419922 4.70996094 -15.98828125 4.4140625 C-10.46469965 2.79110946 -10.46469965 2.79110946 -5.0625 0.8125 C-3 0 -3 0 0 0 Z " fill="#C4C1BF" transform="translate(527,688)"/>
<path d="M0 0 C2.64 0 5.28 0 8 0 C8 2.31 8 4.62 8 7 C14.6 7.33 21.2 7.66 28 8 C28 8.33 28 8.66 28 9 C25.69 9.33 23.38 9.66 21 10 C21 10.33 21 10.66 21 11 C14.4 10.67 7.8 10.34 1 10 C0.67 6.7 0.34 3.4 0 0 Z " fill="#423E3C" transform="translate(465,726)"/>
<path d="M0 0 C1.41812815 4.91695252 1.72598266 9.93390363 1 15 C-1.45694253 17.26297338 -2.6796254 18 -6 18 C-6 12.72 -6 7.44 -6 2 C-2 0 -2 0 0 0 Z " fill="#9F9490" transform="translate(533,658)"/>
<path d="M0 0 C5.77807024 -0.2358396 10.51324804 0.13216954 16 2 C16 3.32 16 4.64 16 6 C22.93 6.495 22.93 6.495 30 7 C30 7.33 30 7.66 30 8 C20.49095101 8.32417212 11.38695104 7.33418593 2 6 C1.34 4.02 0.68 2.04 0 0 Z " fill="#7A716D" transform="translate(392,650)"/>
<path d="M0 0 C6.57692308 0.57692308 6.57692308 0.57692308 8 2 C8.4626087 8.24521739 8.4626087 8.24521739 6.8125 10.9375 C4.37896796 12.36405327 2.77457104 12.35571424 0 12 C-2 10 -2 10 -2.265625 8.125 C-2.26046875 7.42375 -2.2553125 6.7225 -2.25 6 C-2.25515625 5.29875 -2.2603125 4.5975 -2.265625 3.875 C-2 2 -2 2 0 0 Z " fill="#C1BDBA" transform="translate(504,617)"/>
<path d="M0 0 C3.0625 0.3125 3.0625 0.3125 4.9375 1.5 C6.44582602 3.93008081 6.42273622 5.50265752 6.0625 8.3125 C3.02916078 11.34583922 0.2881192 10.9771334 -3.9375 11.3125 C-5.83238952 9.41761048 -5.11769112 6.74110854 -5.16796875 4.22265625 C-4.75158977 0.77165084 -3.2557829 0.34635988 0 0 Z " fill="#B3AEAB" transform="translate(409.9375,601.6875)"/>
<path d="M0 0 C11.88 0 23.76 0 36 0 C35.67 1.32 35.34 2.64 35 4 C35 3.01 35 2.02 35 1 C26.75 1 18.5 1 10 1 C10 2.65 10 4.3 10 6 C9.34 6.66 8.68 7.32 8 8 C5 7.8125 5 7.8125 2 7 C0 4 0 4 0 0 Z " fill="#595551" transform="translate(431,698)"/>
<path d="M0 0 C0.59972035 8.46272046 -0.92205201 15.12649912 -4 23 C-4.33 23 -4.66 23 -5 23 C-5.07347656 21.30230469 -5.07347656 21.30230469 -5.1484375 19.5703125 C-5.22346514 18.08851661 -5.29901297 16.606747 -5.375 15.125 C-5.42140625 14.00544922 -5.42140625 14.00544922 -5.46875 12.86328125 C-5.55643831 8.46526812 -5.55643831 8.46526812 -8 5 C-8 4.01 -8 3.02 -8 2 C-1.125 0 -1.125 0 0 0 Z " fill="#BDB4B2" transform="translate(571,460)"/>
<path d="M0 0 C10.08420484 -0.80554299 17.50018577 0.25406604 26 6 C26.33 6.66 26.66 7.32 27 8 C17.77568093 6.69450978 8.94941091 4.51855006 0 2 C0 1.34 0 0.68 0 0 Z " fill="#373532" transform="translate(474,312)"/>
<path d="M0 0 C2.80655198 2.45883758 4.23053833 5.07754107 5.8125 8.4375 C6.27269531 9.38496094 6.73289062 10.33242188 7.20703125 11.30859375 C8 14 8 14 7.13671875 16.34765625 C6.76160156 16.89292969 6.38648438 17.43820312 6 18 C2.41459184 14.77422245 0.27840736 10.69157735 -2.18359375 6.59375 C-3.93041381 4.09936609 -5.46774385 2.64735785 -8 1 C-2.25 0.875 -2.25 0.875 0 2 C0 1.34 0 0.68 0 0 Z " fill="#908984" transform="translate(453,318)"/>
<path d="M0 0 C0 0.33 0 0.66 0 1 C-3.35414799 1.02929977 -6.70826253 1.0468989 -10.0625 1.0625 C-11.00544922 1.07087891 -11.94839844 1.07925781 -12.91992188 1.08789062 C-18.0630768 1.10581103 -22.93258427 0.89259611 -28 0 C-20.14052685 -5.23964877 -8.04409562 -4.59662607 0 0 Z " fill="#45423F" transform="translate(452,232)"/>
<path d="M0 0 C3.63 0 7.26 0 11 0 C12.125 8.625 12.125 8.625 11 12 C6.97847153 10.65949051 6.29726746 8.48070827 4 5 C2.68441297 3.97676564 1.35622245 2.96873032 0 2 C0 1.34 0 0.68 0 0 Z " fill="#7F6A63" transform="translate(382,575)"/>
<path d="M0 0 C2.31 0 4.62 0 7 0 C6.33961404 3.73084029 5.33952078 7.18397971 4.0625 10.75 C3.72347656 11.71421875 3.38445313 12.6784375 3.03515625 13.671875 C2 16 2 16 0 17 C0 11.39 0 5.78 0 0 Z " fill="#CAC1BB" transform="translate(594,455)"/>
<path d="M0 0 C6.6 0.6 6.6 0.6 9 3 C8.625 5.625 8.625 5.625 8 8 C2.55263158 9.33157895 2.55263158 9.33157895 0.125 7.875 C-1.33772308 5.43712819 -1.29431219 3.7959658 -1 1 C-0.67 0.67 -0.34 0.34 0 0 Z " fill="#6F6B68" transform="translate(394,698)"/>
<path d="M0 0 C1.93922422 0.45098238 3.87633594 0.91105559 5.8125 1.375 C6.89144531 1.63023437 7.97039062 1.88546875 9.08203125 2.1484375 C12 3 12 3 15 5 C12.57984463 7.21271348 10.66366935 8.80089919 7.5 9.75 C3.78945565 8.6368367 2.78580427 6.10631083 0.91796875 2.84765625 C0 1 0 1 0 0 Z " fill="#ABDAF8" transform="translate(432,487)"/>
<path d="M0 0 C0.93619813 3.15506142 1.1057123 5.96586502 1.0625 9.25 C1.05347656 10.14203125 1.04445313 11.0340625 1.03515625 11.953125 C1.02355469 12.62859375 1.01195312 13.3040625 1 14 C-2.88282382 11.38007443 -3.55832761 9.42112866 -5 5 C-5.99 4.67 -6.98 4.34 -8 4 C-8 3.34 -8 2.68 -8 2 C-5.09399739 0.74335022 -3.20395416 0 0 0 Z " fill="#363332" transform="translate(539,580)"/>
<path d="M0 0 C4.6562137 1.47038328 4.6562137 1.47038328 6.15625 3.78125 C7.10328044 6.2715893 7.20303291 8.09688099 7.125 10.75 C7.10695313 11.54921875 7.08890625 12.3484375 7.0703125 13.171875 C7.03550781 14.07679688 7.03550781 14.07679688 7 15 C2.16743695 14.58578031 0.17320782 12.53586014 -3 9 C-0.03 9.495 -0.03 9.495 3 10 C2.01 6.7 1.02 3.4 0 0 Z " fill="#34302D" transform="translate(500,513)"/>
<path d="M0 0 C-1.32 2.64 -2.64 5.28 -4 8 C-3.01 8.33 -2.02 8.66 -1 9 C-4.3 8.67 -7.6 8.34 -11 8 C-11.33 6.02 -11.66 4.04 -12 2 C-10.37787941 1.47026689 -8.75218416 0.95146893 -7.125 0.4375 C-6.22007812 0.14746094 -5.31515625 -0.14257812 -4.3828125 -0.44140625 C-2 -1 -2 -1 0 0 Z " fill="#9A9490" transform="translate(521,691)"/>
<path d="M0 0 C0.33 0 0.66 0 1 0 C0.31145453 8.71553604 -0.79670963 17.34331879 -2 26 C-4 24 -4 24 -4.265625 21.27734375 C-4.18566392 4.18566392 -4.18566392 4.18566392 0 0 Z " fill="#2B2A27" transform="translate(270,388)"/>
<path d="M0 0 C2 3 2 3 1.6875 5.5625 C1 8 1 8 0 10 C-4.875 9.125 -4.875 9.125 -6 8 C-6.30392154 5.11274535 -6.41849029 3.57791516 -4.6875 1.1875 C-3 0 -3 0 0 0 Z " fill="#56514E" transform="translate(439,674)"/>
<path d="M0 0 C-0.66 3.63 -1.32 7.26 -2 11 C-3.65 11.33 -5.3 11.66 -7 12 C-7.33 11.67 -7.66 11.34 -8 11 C-7.77968006 7.10768107 -7.53011508 4.68914961 -5.125 1.5625 C-3 0 -3 0 0 0 Z " fill="#2B2927" transform="translate(393,306)"/>
<path d="M0 0 C1.1446875 0.3403125 1.1446875 0.3403125 2.3125 0.6875 C2.5 3.5625 2.5 3.5625 2.3125 6.6875 C-0.6875 8.6875 -0.6875 8.6875 -3.375 8.3125 C-4.138125 8.10625 -4.90125 7.9 -5.6875 7.6875 C-5.91482116 4.88387237 -6.02831872 3.22563483 -4.5 0.8125 C-2.6875 -0.3125 -2.6875 -0.3125 0 0 Z " fill="#56504D" transform="translate(492.6875,675.3125)"/>
<path d="M0 0 C4.29 0 8.58 0 13 0 C12.67 1.65 12.34 3.3 12 5 C10.4375 5.75 10.4375 5.75 8 6 C4.77102114 4.63931677 1.61680316 3.23360633 0 0 Z " fill="#93837D" transform="translate(369,659)"/>
<path d="M0 0 C0.33 0 0.66 0 1 0 C1.27808896 2.68718568 1.52291845 5.3709158 1.75 8.0625 C1.83121094 8.81466797 1.91242188 9.56683594 1.99609375 10.34179688 C2.44972191 16.1633583 1.298648 19.1862753 -2 24 C-1.34 24.33 -0.68 24.66 0 25 C-5.08086796 25.84681133 -9.84828377 26.09038099 -15 26 C-11.09971775 23.39981184 -7.52565431 23.84914486 -3 24 C-0.9053775 16.04043449 -0.41005616 8.19033227 0 0 Z " fill="#5C5855" transform="translate(489,615)"/>
<path d="M0 0 C0.33 0.66 0.66 1.32 1 2 C0.22265625 3.7265625 0.22265625 3.7265625 -0.9375 5.625 C-1.618125 6.73875 -2.29875 7.8525 -3 9 C-4.32 9 -5.64 9 -7 9 C-7.99 7.02 -8.98 5.04 -10 3 C-5.05 1.515 -5.05 1.515 0 0 Z " fill="#AEDDFA" transform="translate(565,478)"/>
<path d="M0 0 C3.77545388 1.09068668 6.47043472 1.9083091 9 5 C2.375 8 2.375 8 -1 8 C-0.67 5.36 -0.34 2.72 0 0 Z " fill="#10100E" transform="translate(581,433)"/>
<path d="M0 0 C1.3274855 3.98245651 -0.00092171 6.44789543 -1.4375 10.1875 C-1.68048828 10.84169922 -1.92347656 11.49589844 -2.17382812 12.16992188 C-2.7743293 13.78303286 -3.38609203 15.3919435 -4 17 C-4.2165625 16.0409375 -4.2165625 16.0409375 -4.4375 15.0625 C-4.81007181 13.02454854 -4.81007181 13.02454854 -6 12 C-7.32 12.99 -8.64 13.98 -10 15 C-8.37815499 11.41486894 -6.20743761 8.41007677 -3.875 5.25 C-3.15054687 4.26515625 -2.42609375 3.2803125 -1.6796875 2.265625 C-1.12539063 1.51796875 -0.57109375 0.7703125 0 0 Z " fill="#3C3A37" transform="translate(349,351)"/>
<path d="M0 0 C0.33 0 0.66 0 1 0 C1 7.59 1 15.18 1 23 C-0.32 23 -1.64 23 -3 23 C-2.125 16.25 -2.125 16.25 -1 14 C-0.76970044 11.62876754 -0.58880058 9.25258057 -0.4375 6.875 C-0.35371094 5.59367187 -0.26992188 4.31234375 -0.18359375 2.9921875 C-0.09271484 1.51105469 -0.09271484 1.51105469 0 0 Z " fill="#908984" transform="translate(605,433)"/>
<path d="M0 0 C0.66 0.33 1.32 0.66 2 1 C1.731875 1.515625 1.46375 2.03125 1.1875 2.5625 C-0.32349407 5.66401415 -1.65572726 8.82262806 -3 12 C-3.99 11.67 -4.98 11.34 -6 11 C-6.33 8.69 -6.66 6.38 -7 4 C-5.02 4 -3.04 4 -1 4 C-0.67 2.68 -0.34 1.36 0 0 Z " fill="#292726" transform="translate(338,586)"/>
<path d="M0 0 C2.97 0.495 2.97 0.495 6 1 C6.33 3.64 6.66 6.28 7 9 C5.02 9.33 3.04 9.66 1 10 C1.020625 8.906875 1.04125 7.81375 1.0625 6.6875 C1.18544452 3.05615809 1.18544452 3.05615809 0 0 Z " fill="#BFA196" transform="translate(392,576)"/>
<path d="M0 0 C10.23 0.66 20.46 1.32 31 2 C31 2.33 31 2.66 31 3 C21.43 3 11.86 3 2 3 C2 2.34 2 1.68 2 1 C1.34 0.67 0.68 0.34 0 0 Z " fill="#B9A59D" transform="translate(449,564)"/>
<path d="M0 0 C3 5.625 3 5.625 3 9 C2.34 9 1.68 9 1 9 C-0.33333333 7.66666667 -1.66666667 6.33333333 -3 5 C-3.99 4.67 -4.98 4.34 -6 4 C-5.67 3.01 -5.34 2.02 -5 1 C-3 0 -3 0 0 0 Z " fill="#B39F98" transform="translate(542,644)"/>
<path d="M0 0 C1.65 0 3.3 0 5 0 C5.33 2.31 5.66 4.62 6 7 C4.33388095 7.042721 2.66617115 7.04063832 1 7 C0 6 0 6 -0.0625 2.9375 C-0.041875 1.968125 -0.02125 0.99875 0 0 Z " fill="#514D4C" transform="translate(325,592)"/>
<path d="M0 0 C0.66 0.99 1.32 1.98 2 3 C1.34 3.66 0.68 4.32 0 5 C-0.99 4.67 -1.98 4.34 -3 4 C-5.33299825 3.96045766 -7.66708189 3.95598268 -10 4 C-10 3.34 -10 2.68 -10 2 C-6.61242079 -0.08466413 -3.94726562 -0.42905061 0 0 Z " fill="#2F2B29" transform="translate(468,536)"/>
<path d="M0 0 C0.66 0.33 1.32 0.66 2 1 C-2.62 5.62 -7.24 10.24 -12 15 C-12.66 14.67 -13.32 14.34 -14 14 C-9.67106815 8.81580806 -5.23435005 4.27293882 0 0 Z " fill="#8D8682" transform="translate(329,298)"/>
<path d="M0 0 C0.66 0 1.32 0 2 0 C3.20272819 2.40545638 3.10071472 3.94996953 3.0625 6.625 C3.05347656 7.44226563 3.04445313 8.25953125 3.03515625 9.1015625 C3.02355469 9.72804688 3.01195312 10.35453125 3 11 C2.01 11.33 1.02 11.66 0 12 C0 8.04 0 4.08 0 0 Z " fill="#C5C1BF" transform="translate(498,708)"/>
<path d="M0 0 C5.75 -0.125 5.75 -0.125 8 1 C8 1.99 8 2.98 8 4 C6.02 4.33 4.04 4.66 2 5 C1.34 3.35 0.68 1.7 0 0 Z " fill="#4D4948" transform="translate(330,577)"/>
<path d="M0 0 C2.22889496 -0.05428973 4.45817471 -0.09292338 6.6875 -0.125 C8.54955078 -0.15980469 8.54955078 -0.15980469 10.44921875 -0.1953125 C13.81237857 -0.01032021 15.9985587 0.54232105 19 2 C15.36536458 3.21154514 12.97524524 2.710358 9.25390625 2.15625 C7.00524446 1.88261174 7.00524446 1.88261174 4.90234375 2.53125 C3 3 3 3 0 2 C0 1.34 0 0.68 0 0 Z " fill="#625D5A" transform="translate(474,312)"/>
<path d="M0 0 C3.0390625 0.0234375 3.0390625 0.0234375 6.625 0.375 C7.81351562 0.48585938 9.00203125 0.59671875 10.2265625 0.7109375 C11.14179688 0.80632813 12.05703125 0.90171875 13 1 C13 1.33 13 1.66 13 2 C11.75283203 2.05607422 11.75283203 2.05607422 10.48046875 2.11328125 C9.39378906 2.17902344 8.30710937 2.24476563 7.1875 2.3125 C5.56908203 2.39951172 5.56908203 2.39951172 3.91796875 2.48828125 C0.82502483 3.03068507 -0.13022903 3.55289624 -2 6 C-2 2 -2 2 0 0 Z " fill="#857E7A" transform="translate(384,695)"/>
<path d="M0 0 C0.66 0 1.32 0 2 0 C2.50559908 1.43554025 3.0042749 2.8735202 3.5 4.3125 C3.7784375 5.11300781 4.056875 5.91351562 4.34375 6.73828125 C5 9 5 9 5 12 C4.34 12 3.68 12 3 12 C2.49166409 10.75336669 1.99368855 9.50250613 1.5 8.25 C1.2215625 7.55390625 0.943125 6.8578125 0.65625 6.140625 C0 4 0 4 0 0 Z " fill="#AAA7A4" transform="translate(495,696)"/>
<path d="M0 0 C0.33 0 0.66 0 1 0 C1.24858198 2.77034137 1.47452879 5.53939069 1.6875 8.3125 C1.76033203 9.09818359 1.83316406 9.88386719 1.90820312 10.69335938 C1.96298828 11.45068359 2.01777344 12.20800781 2.07421875 12.98828125 C2.13182373 13.68477783 2.18942871 14.38127441 2.2487793 15.09887695 C2 17 2 17 -1 20 C-0.67 13.4 -0.34 6.8 0 0 Z " fill="#3F3D3A" transform="translate(489,615)"/>
<path d="M0 0 C0.99 0 1.98 0 3 0 C3 1.98 3 3.96 3 6 C1.68 6 0.36 6 -1 6 C-1.042721 4.33388095 -1.04063832 2.66617115 -1 1 C-0.67 0.67 -0.34 0.34 0 0 Z " fill="#625D5A" transform="translate(400,619)"/>
<path d="M0 0 C0 0.99 0 1.98 0 3 C-2.1875 4.75 -2.1875 4.75 -5 6 C-7.8125 5.6875 -7.8125 5.6875 -10 5 C-6.7321794 2.82145293 -3.61941735 1.50239966 0 0 Z " fill="#4C4541" transform="translate(525,542)"/>
<path d="M0 0 C1.39195915 4.17587745 -0.17676781 6.13474776 -2 10 C-2.99 9.34 -3.98 8.68 -5 8 C-3.62845496 5.04590299 -2.01136276 2.55991624 0 0 Z " fill="#4F4C49" transform="translate(349,351)"/>
<path d="M0 0 C3.63 0 7.26 0 11 0 C8.2134483 2.7865517 5.84575573 2.65662895 2 3 C1.34 2.67 0.68 2.34 0 2 C0 1.34 0 0.68 0 0 Z " fill="#978077" transform="translate(382,575)"/>
<path d="M0 0 C2 3 2 3 1.625 5.1875 C1.41875 5.785625 1.2125 6.38375 1 7 C0.67 6.34 0.34 5.68 0 5 C-0.66 6.65 -1.32 8.3 -2 10 C-2.33 10 -2.66 10 -3 10 C-2.25 2.25 -2.25 2.25 0 0 Z " fill="#413E3B" transform="translate(281,471)"/>
<path d="M0 0 C0.99 0.33 1.98 0.66 3 1 C3.1875 3.375 3.1875 3.375 3 6 C2.01 6.66 1.02 7.32 0 8 C0 5.36 0 2.72 0 0 Z " fill="#BEBAB7" transform="translate(413,604)"/>
<path d="M0 0 C0.6875 1.6875 0.6875 1.6875 1 4 C-0.375 6.75 -0.375 6.75 -2 9 C-2.33 9 -2.66 9 -3 9 C-2.25 2.25 -2.25 2.25 0 0 Z " fill="#312E2C" transform="translate(350,283)"/>
<path d="M0 0 C1.32 0.33 2.64 0.66 4 1 C4 2.32 4 3.64 4 5 C2.68 5 1.36 5 0 5 C0 3.35 0 1.7 0 0 Z " fill="#BDB8B5" transform="translate(429,592)"/>
<path d="M0 0 C5.57142857 5.14285714 5.57142857 5.14285714 6 9 C1.2 5.67692308 1.2 5.67692308 0.1875 2.25 C0.125625 1.5075 0.06375 0.765 0 0 Z " fill="#D6D0CD" transform="translate(594,392)"/>
<path d="M0 0 C0.99 0 1.98 0 3 0 C3 1.65 3 3.3 3 5 C1.68 4.67 0.36 4.34 -1 4 C-0.67 2.68 -0.34 1.36 0 0 Z " fill="#BDB9B5" transform="translate(422,603)"/>
<path d="M0 0 C2.31 0.33 4.62 0.66 7 1 C7 1.66 7 2.32 7 3 C4.69 3 2.38 3 0 3 C0 2.01 0 1.02 0 0 Z " fill="#BFBAB7" transform="translate(438,597)"/>
<path d="M0 0 C2.31 0 4.62 0 7 0 C7 1.32 7 2.64 7 4 C4.625 3.6875 4.625 3.6875 2 3 C1.34 2.01 0.68 1.02 0 0 Z " fill="#A29A95" transform="translate(451,336)"/>
<path d="M0 0 C-1.98 1.32 -3.96 2.64 -6 4 C-6.99 3.34 -7.98 2.68 -9 2 C-3.375 -1.125 -3.375 -1.125 0 0 Z " fill="#423F3D" transform="translate(333,296)"/>
</svg>
