<?xml version="1.0" encoding="UTF-8"?>
<svg version="1.1" xmlns="http://www.w3.org/2000/svg" width="900" height="900">
<path d="M0 0 C25.2496258 -0.82095918 49.8009836 4.07423345 73.65673828 12.078125 C74.57197266 12.37203125 75.48720703 12.6659375 76.43017578 12.96875 C91.13953316 17.94730173 104.93858514 25.23071412 117.65673828 34.078125 C119.1359375 35.0990625 119.1359375 35.0990625 120.64501953 36.140625 C125.89459402 39.85816599 130.79786379 43.81134816 135.54345703 48.15234375 C137.54128306 49.9729135 139.58964498 51.71220027 141.65673828 53.453125 C153.58802967 63.87199917 153.58802967 63.87199917 155.65673828 70.078125 C156.64673828 70.408125 157.63673828 70.738125 158.65673828 71.078125 C164.51639988 78.0207114 168.96793182 86.32724085 173.65673828 94.078125 C174.48044922 95.39683594 174.48044922 95.39683594 175.32080078 96.7421875 C178.97509257 102.64527423 181.94299222 108.69066829 184.65673828 115.078125 C184.99447266 115.86703125 185.33220703 116.6559375 185.68017578 117.46875 C188.26997151 123.72569649 190.40153234 130.12978614 192.50439453 136.5625 C193.36323739 139.18269854 194.24964271 141.78720945 195.15673828 144.390625 C197.41865546 151.16352473 199.20125605 158.09327604 201.08105469 164.97949219 C201.57140804 166.76705683 202.07198572 168.55181166 202.57470703 170.3359375 C206.50384017 184.33721397 207.72377043 197.64362189 207.59423828 212.140625 C207.50319927 222.54803911 208.0729035 232.82820703 208.94555664 243.19750977 C210.74264843 265.06239377 208.04111747 285.4466171 200.65673828 306.078125 C200.34736328 307.0475 200.03798828 308.016875 199.71923828 309.015625 C195.83537088 320.21030162 190.82981161 330.95696141 184.65673828 341.078125 C184.25455078 341.8103125 183.85236328 342.5425 183.43798828 343.296875 C179.40640959 350.47505169 174.33457702 356.46864848 168.92285156 362.61962891 C167.84789598 363.85792136 166.808719 365.12713013 165.77783203 366.40234375 C161.1725062 372.05080362 155.65277081 375.99033209 149.65673828 380.078125 C149.01865234 380.53703125 148.38056641 380.9959375 147.72314453 381.46875 C145.10328892 383.32420884 143.95378822 384.078125 140.65673828 384.078125 C140.94806641 384.82191406 141.23939453 385.56570313 141.53955078 386.33203125 C144.80297138 395.02422385 147.2626625 403.80975552 149.51269531 412.81665039 C150.61535717 417.20581739 151.76431972 421.51032461 153.26611328 425.78125 C154.67553414 429.88466769 155.30741074 433.69924442 155.78173828 438.015625 C155.898479 439.06073242 155.898479 439.06073242 156.01757812 440.12695312 C156.23714578 442.10996662 156.44724918 444.09402147 156.65673828 446.078125 C156.77017578 446.96628906 156.88361328 447.85445312 157.00048828 448.76953125 C157.63662283 453.99113563 157.78655763 459.19829989 157.84423828 464.453125 C157.85729004 465.1440625 157.8703418 465.835 157.88378906 466.546875 C157.89011165 470.23203846 157.68699464 472.94848081 155.65673828 476.078125 C154.99673828 476.078125 154.33673828 476.078125 153.65673828 476.078125 C153.59486328 476.779375 153.53298828 477.480625 153.46923828 478.203125 C152.39124889 482.01754898 150.2502777 484.11407996 147.65673828 487.078125 C147.14111328 487.965 146.62548828 488.851875 146.09423828 489.765625 C144.53594721 492.27244107 143.18567997 493.57656587 140.65673828 495.078125 C139.66673828 495.078125 138.67673828 495.078125 137.65673828 495.078125 C137.65673828 495.738125 137.65673828 496.398125 137.65673828 497.078125 C135.34673828 497.408125 133.03673828 497.738125 130.65673828 498.078125 C130.59486328 499.295 130.53298828 500.511875 130.46923828 501.765625 C129.62834733 509.13509983 127.39898787 518.18645695 121.71923828 523.328125 C118.57722 525.12356402 116.24933849 525.8215107 112.65673828 526.078125 C112.98673828 526.738125 113.31673828 527.398125 113.65673828 528.078125 C113.80944471 529.49207344 113.93041282 530.90956848 114.03173828 532.328125 C114.33730725 535.43802857 114.65865148 537.08171226 116.15673828 539.890625 C118.44356656 544.75013509 118.40748232 549.7663946 118.65673828 555.078125 C106.32775549 560.67260032 93.95274856 561.55594677 80.59594727 561.41430664 C78.22458733 561.3906783 75.85435877 561.39378083 73.48291016 561.40039062 C63.40511074 561.38043769 53.62091443 560.57065829 43.65673828 559.078125 C42.71923828 551.765625 42.71923828 551.765625 42.43041992 549.4753418 C42.04679313 546.5433651 41.5942366 543.89061996 40.65673828 541.078125 C38.01673828 541.078125 35.37673828 541.078125 32.65673828 541.078125 C32.97384766 541.76261719 33.29095703 542.44710937 33.61767578 543.15234375 C34.79790785 546.47562879 35.06871073 549.37567035 35.28173828 552.890625 C35.35650391 554.05207031 35.43126953 555.21351563 35.50830078 556.41015625 C35.58177734 557.73080078 35.58177734 557.73080078 35.65673828 559.078125 C33.49106284 559.56175196 31.32414087 560.03979817 29.15673828 560.515625 C27.34689453 560.91587891 27.34689453 560.91587891 25.50048828 561.32421875 C3.28323689 565.6818707 -22.63824988 564.80609363 -44.34326172 558.078125 C-44.20490369 553.61952638 -44.05631592 549.16132714 -43.90576172 544.703125 C-43.86644531 543.43210937 -43.82712891 542.16109375 -43.78662109 540.8515625 C-43.74472656 539.63984375 -43.70283203 538.428125 -43.65966797 537.1796875 C-43.62301025 536.05900879 -43.58635254 534.93833008 -43.54858398 533.78369141 C-43.34326172 531.078125 -43.34326172 531.078125 -42.34326172 529.078125 C-43.42994141 529.36429688 -43.42994141 529.36429688 -44.53857422 529.65625 C-52.44595655 531.46967635 -52.44595655 531.46967635 -56.78076172 529.578125 C-61.95973652 524.52546666 -63.90957278 520.00762153 -65.34326172 513.078125 C-66.37708984 512.830625 -67.41091797 512.583125 -68.47607422 512.328125 C-79.01293011 509.29791808 -89.48905802 498.93004269 -94.78466797 489.515625 C-97.34326172 483.95268946 -97.34326172 483.95268946 -97.34326172 481.078125 C-98.33326172 481.408125 -99.32326172 481.738125 -100.34326172 482.078125 C-104.42921005 483.2646376 -108.10668566 483.22677679 -112.34326172 483.078125 C-114.03628129 479.38189509 -114.59943192 476.4851211 -114.60888672 472.4296875 C-114.61307617 471.34961426 -114.61726563 470.26954102 -114.62158203 469.15673828 C-114.61223633 468.0170459 -114.60289062 466.87735352 -114.59326172 465.703125 C-114.58649414 464.52862793 -114.57972656 463.35413086 -114.57275391 462.14404297 C-114.47131625 453.60558699 -113.91159912 445.48441346 -112.34326172 437.078125 C-112.21967285 436.35592773 -112.09608398 435.63373047 -111.96875 434.88964844 C-110.01308138 423.47802573 -107.17976394 412.5605787 -103.45385742 401.59179688 C-103.15181396 400.66947266 -102.84977051 399.74714844 -102.53857422 398.796875 C-102.26029785 397.98154297 -101.98202148 397.16621094 -101.6953125 396.32617188 C-101.25706441 393.52770557 -101.79612593 392.40969296 -103.34326172 390.078125 C-105.35631416 388.36505725 -105.35631416 388.36505725 -107.78076172 386.828125 C-109.11880859 385.92513672 -109.11880859 385.92513672 -110.48388672 385.00390625 C-111.89927734 384.05064453 -111.89927734 384.05064453 -113.34326172 383.078125 C-123.51659169 375.89286326 -123.51659169 375.89286326 -128.09326172 371.828125 C-130.6788611 369.53592697 -133.33548585 367.974938 -136.38623047 366.3359375 C-147.49587769 359.19560536 -159.50578956 346.99629733 -165.34326172 335.078125 C-165.34326172 334.418125 -165.34326172 333.758125 -165.34326172 333.078125 C-166.33326172 332.748125 -167.32326172 332.418125 -168.34326172 332.078125 C-174.61774676 323.04994746 -176.98282833 311.11365834 -178.85107422 300.45703125 C-179.34430548 297.91126589 -179.34430548 297.91126589 -180.30029297 294.8125 C-181.41671431 290.81512621 -182.20414137 286.85147735 -182.90576172 282.765625 C-183.0357959 282.02376953 -183.16583008 281.28191406 -183.29980469 280.51757812 C-184.13891205 275.61334298 -184.77999699 270.73176122 -185.13232422 265.765625 C-185.17207552 264.04466432 -185.17207552 264.04466432 -186.34326172 263.078125 C-186.57491125 260.84081308 -186.73986398 258.59656338 -186.87841797 256.3515625 C-186.92157639 255.66065521 -186.9647348 254.96974792 -187.00920105 254.25790405 C-187.14792038 251.98997817 -187.27797018 249.72169175 -187.40576172 247.453125 C-187.44995239 246.68037231 -187.49414307 245.90761963 -187.53967285 245.1114502 C-188.9667572 219.80860131 -188.4283037 195.13953335 -184.34326172 170.078125 C-184.20146484 169.15386719 -184.05966797 168.22960937 -183.91357422 167.27734375 C-182.8579262 160.87863512 -181.17778796 154.75080897 -179.33935547 148.53515625 C-178.45853018 145.47817436 -177.69215742 142.4250279 -176.96826172 139.328125 C-175.67756763 134.08071298 -174.09071133 128.95951478 -172.40576172 123.828125 C-172.16486816 123.08336914 -171.92397461 122.33861328 -171.67578125 121.57128906 C-170.20395406 117.17243279 -168.44346187 113.09550591 -166.30688477 108.97998047 C-165.42712483 107.2436415 -164.65244533 105.45507789 -163.89013672 103.6640625 C-159.36506544 93.17412453 -154.12135457 82.46635552 -146.72216797 73.7109375 C-145.21300876 72.01231639 -145.21300876 72.01231639 -143.84326172 69.578125 C-134.37186574 53.79246504 -116.69273899 36.6345593 -98.37060547 31.9453125 C-95.92690985 31.43320538 -93.47366711 30.96346486 -91.01123047 30.55078125 C-88.43049261 30.35632751 -88.43049261 30.35632751 -87.34326172 29.078125 C-84.09784457 28.66204588 -80.85454217 28.30984747 -77.59716797 28.00390625 C-71.27178007 27.31151685 -65.66635324 25.75418272 -60.90576172 21.265625 C-60.32052734 20.74226563 -59.73529297 20.21890625 -59.13232422 19.6796875 C-58.54193359 19.15117187 -57.95154297 18.62265625 -57.34326172 18.078125 C-40.51040693 3.68260665 -21.29879737 0.71010785 0 0 Z " fill="#1D1C1A" transform="translate(410.34326171875,187.921875)"/>
<path d="M0 0 C2.94070475 1.56785995 5.826362 3.20729044 8.70507812 4.88623047 C10.23890137 5.76661987 10.23890137 5.76661987 11.80371094 6.66479492 C18.69627741 10.66858134 25.18893829 14.89108733 31.45507812 19.82373047 C32.44507813 20.48373047 33.43507813 21.14373047 34.45507812 21.82373047 C34.64257812 24.44873047 34.64257812 24.44873047 34.45507812 26.82373047 C35.15503906 26.71544922 35.855 26.60716797 36.57617188 26.49560547 C40.66904717 26.96209329 42.70759582 29.29314307 45.51757812 32.07373047 C46.0812207 32.61441162 46.64486328 33.15509277 47.22558594 33.7121582 C48.98088545 35.40399839 50.71799691 37.11321464 52.45507812 38.82373047 C53.52084236 39.85174022 54.58722631 40.87910799 55.65429688 41.90576172 C61.24098532 47.33293178 66.33722483 52.94184067 71.18164062 59.05419922 C73.19963265 61.51254346 75.30352131 63.84147667 77.48876953 66.15112305 C88.64703269 77.95559519 102.70164065 94.7534639 104.77539062 111.39404297 C104.12677973 116.3139939 100.40241911 119.9885634 97.45507812 123.82373047 C97.01164063 124.44634766 96.56820312 125.06896484 96.11132812 125.71044922 C85.824645 139.16467806 66.49721265 146.76356076 51.34790039 153.23266602 C40.0997713 158.07717795 29.61766754 163.56567456 20.45507812 171.82373047 C19.82214844 172.38705078 19.18921875 172.95037109 18.53710938 173.53076172 C11.56789046 180.09998132 6.69520658 187.99859428 2.33007812 196.44873047 C2.01756104 197.038396 1.70504395 197.62806152 1.38305664 198.2355957 C-4.95437117 210.94847919 -7.42390411 223.5713734 -7.60742188 237.63623047 C-7.63187881 238.74434586 -7.63187881 238.74434586 -7.65682983 239.87484741 C-7.90113161 251.62622274 -7.06138067 262.56007339 -3.54492188 273.82373047 C-3.17367187 275.07025391 -2.80242187 276.31677734 -2.41992188 277.60107422 C-1.75207397 279.78385653 -1.06818421 281.96186024 -0.36132812 284.13232422 C0.62367631 287.37953978 1.14141542 290.4518564 1.45507812 293.82373047 C2.11507812 293.82373047 2.77507812 293.82373047 3.45507812 293.82373047 C3.62523437 294.51337891 3.79539062 295.20302734 3.97070312 295.91357422 C5.14370271 300.46206728 6.32047531 304.78512355 8.39257812 309.01123047 C11.50268968 315.56768186 12.83183366 322.78679303 14.45507812 329.82373047 C3.58092828 333.44844708 -14.14691344 331.17965292 -24.54492188 326.82373047 C-26.87089699 326.44242307 -29.20404345 326.09912793 -31.54492188 325.82373047 C-32.69831745 322.17668078 -33.82408796 318.52198772 -34.92871094 314.85986328 C-35.34067905 313.49860573 -35.75672111 312.13857469 -36.17675781 310.77978516 C-41.39687325 293.78461479 -43.75478224 276.56100303 -44.54492188 258.82373047 C-47.40193574 278.19567813 -45.43641084 297.39390664 -41.79858398 316.5090332 C-41.54492188 318.82373047 -41.54492188 318.82373047 -42.54492188 321.82373047 C-50.48742772 320.347239 -50.48742772 320.347239 -52.92773438 316.83154297 C-53.91458197 314.52371828 -54.74157428 312.2008154 -55.54492188 309.82373047 C-56.06054688 308.87498047 -56.57617188 307.92623047 -57.10742188 306.94873047 C-58.7822001 303.30790824 -59.73920354 299.68252232 -60.70117188 295.80029297 C-61.36294849 293.46569212 -62.10630323 291.30444989 -62.98242188 289.05029297 C-64.67190377 284.63573934 -65.88055039 280.15067412 -67.04492188 275.57373047 C-67.25995361 274.74107666 -67.47498535 273.90842285 -67.6965332 273.05053711 C-68.31687538 270.6426576 -68.93120635 268.23330568 -69.54492188 265.82373047 C-69.84785156 264.65197266 -70.15078125 263.48021484 -70.46289062 262.27294922 C-72.0253695 256.15786691 -73.37845476 250.02659087 -74.54492188 243.82373047 C-77.23359725 249.86258072 -76.83901753 255.97401814 -76.79492188 262.44873047 C-76.80652344 264.11742187 -76.80652344 264.11742187 -76.81835938 265.81982422 C-76.79243868 276.95276221 -74.81215737 287.26418467 -72.03320312 298.01123047 C-71.54682921 300.81274423 -71.77112144 302.16296799 -72.54492188 304.82373047 C-89.31753374 289.19032422 -89.31753374 289.19032422 -95.35742188 279.51123047 C-95.73431152 278.91568359 -96.11120117 278.32013672 -96.49951172 277.70654297 C-101.86575655 268.59303043 -104.17875142 258.11668085 -106.10742188 247.82373047 C-106.3172168 246.71940674 -106.52701172 245.61508301 -106.74316406 244.47729492 C-109.07569789 231.67800971 -110.40018252 218.77600607 -111.54492188 205.82373047 C-111.64135986 204.8444458 -111.73779785 203.86516113 -111.8371582 202.85620117 C-112.69237334 193.39704963 -112.73104776 183.9503595 -112.73022461 174.46020508 C-112.73240439 171.65869789 -112.7506076 168.85758998 -112.76953125 166.05615234 C-112.8057333 154.50012686 -112.10166127 143.27220645 -110.54492188 131.82373047 C-110.41384033 130.81737549 -110.28275879 129.81102051 -110.14770508 128.77416992 C-106.65457896 102.83116955 -99.7133863 78.53889535 -88.54492188 54.82373047 C-87.88492187 54.82373047 -87.22492188 54.82373047 -86.54492188 54.82373047 C-86.47273438 54.14697266 -86.40054687 53.47021484 -86.32617188 52.77294922 C-85.29815384 48.89218113 -83.28325712 45.91016993 -81.04492188 42.63623047 C-80.59568359 41.97276611 -80.14644531 41.30930176 -79.68359375 40.62573242 C-75.74455469 34.91592633 -71.3835253 29.79558287 -66.54492188 24.82373047 C-65.76503906 23.98197266 -64.98515625 23.14021484 -64.18164062 22.27294922 C-58.24892684 16.0374494 -51.87229621 11.3113586 -44.54492188 6.82373047 C-43.26294922 6.01935547 -43.26294922 6.01935547 -41.95507812 5.19873047 C-34.07622946 0.70382815 -25.05115157 0.14790807 -16.20507812 -0.74658203 C-4.57039181 -2.11244702 -4.57039181 -2.11244702 0 0 Z " fill="#A39B96" transform="translate(353.544921875,233.17626953125)"/>
<path d="M0 0 C3.46523866 1.30023114 6.51704511 2.85079031 9.6875 4.75 C20.25435526 10.59183868 32.15763483 13.93013102 44 16 C59.6111848 18.98767159 74.73369727 22.86152168 88 32 C88.71671875 32.48339844 89.4334375 32.96679688 90.171875 33.46484375 C94.29306103 36.38530829 97.55393945 39.51274818 100.67578125 43.484375 C102.11628024 45.2664636 102.11628024 45.2664636 105 47 C105.2208564 49.95064148 105.28060989 52.68368231 105.1875 55.625 C105.17396484 56.42679687 105.16042969 57.22859375 105.14648438 58.0546875 C105.11109051 60.03674378 105.05728234 62.01845551 105 64 C104.01 64 103.02 64 102 64 C102 63.34 102 62.68 102 62 C97.48184719 61.11722245 93.22487306 60.89410497 88.625 60.9375 C87.37976563 60.94652344 86.13453125 60.95554687 84.8515625 60.96484375 C83.44003906 60.98224609 83.44003906 60.98224609 82 61 C82 61.66 82 62.32 82 63 C80.515 63.556875 80.515 63.556875 79 64.125 C63.78537039 70.70678142 54.33757714 85.61912008 45.75 99.0625 C42.64303994 103.77982809 39.23426248 106.88286876 34.125 109.4375 C31.68348644 110.85501234 31.68348644 110.85501234 31.5 113.875 C32.05969002 117.37306262 33.10508174 119.02227131 35 122 C35.62841011 123.51097721 36.22962908 125.03337839 36.8125 126.5625 C41.49087622 138.38155571 46.49628455 149.41892421 58.3125 155.5625 C65.2608251 158.19389013 72.87206564 158.19732479 79.75 155.375 C81.18991539 154.62645193 82.60794763 153.83418868 84 153 C85.03253906 152.38125 85.03253906 152.38125 86.0859375 151.75 C91.12076796 148.35486529 94.25739654 144.23283322 97.5546875 139.171875 C99 137 99 137 101 135 C101.77230541 150.70354331 98.42325857 163.48305946 88.25 175.8125 C66.05552242 199.47681053 29.49673099 213.00817124 -2.40454102 214.20874023 C-7.14484253 214.32868077 -11.88349588 214.33274738 -16.625 214.3125 C-17.88926819 214.31076279 -17.88926819 214.31076279 -19.17907715 214.30899048 C-37.71743829 214.25895884 -56.73162134 213.87357378 -74.62451172 208.64038086 C-77.39249643 207.89419135 -80.08275197 207.63926415 -82.9375 207.4375 C-87.53333352 206.62915481 -87.53333352 206.62915481 -89.40234375 204.109375 C-90.47350451 201.44222772 -91.23214054 198.76938884 -92 196 C-92.83817468 193.86864154 -93.69305479 191.74379464 -94.5625 189.625 C-96.9129129 183.52408257 -98.58661336 177.3774763 -100 171 C-100.66 171 -101.32 171 -102 171 C-102.31453125 169.74445313 -102.6290625 168.48890625 -102.953125 167.1953125 C-105.86089544 155.46093239 -105.86089544 155.46093239 -110.203125 144.203125 C-112.71875586 137.24814557 -112.18333485 129.59735199 -112.1875 122.3125 C-112.19974609 121.20455078 -112.21199219 120.09660156 -112.22460938 118.95507812 C-112.2413177 109.42576365 -112.0943407 99.33619387 -107 91 C-106.34 91 -105.68 91 -105 91 C-105 91.66 -105 92.32 -105 93 C-103.68 93.66 -102.36 94.32 -101 95 C-101.02356567 95.97271851 -101.02356567 95.97271851 -101.04760742 96.96508789 C-101.29333882 108.67621084 -101.44461929 119.84496264 -98.65625 131.26953125 C-98 134 -98 134 -98 137 C-97.34 137 -96.68 137 -96 137 C-95.74347656 137.61746094 -95.48695313 138.23492187 -95.22265625 138.87109375 C-89.38389995 151.78713041 -78.46105505 160.4434937 -65.3125 165.4375 C-50.18776285 169.62672576 -32.38795555 168.8494083 -18.71875 161.15234375 C-7.42279323 154.24081019 -0.21590941 144.539628 4 132 C4.89857608 129.57428723 5.85947682 127.33063433 7 125 C7.99 124.67 8.98 124.34 10 124 C10.80563638 121.89415562 10.80563638 121.89415562 11.1875 119.4375 C11.34605469 118.61121094 11.50460937 117.78492188 11.66796875 116.93359375 C11.83232422 115.97646484 11.83232422 115.97646484 12 115 C11.4225 114.731875 10.845 114.46375 10.25 114.1875 C8 113 8 113 6.07421875 111.546875 C3.75890472 109.82020013 1.3806961 108.5693042 -1.1875 107.25 C-11.15548232 101.87445694 -19.07470884 94.70060972 -26.3125 86.0625 C-30.37124926 81.3709836 -35.06345341 77.72610828 -40 74 C-40.82113281 73.35160156 -41.64226562 72.70320313 -42.48828125 72.03515625 C-47.92843815 67.8662955 -53.60911851 64.38193048 -59.625 61.125 C-60.31730713 60.74351807 -61.00961426 60.36203613 -61.72290039 59.96899414 C-66.68566276 57.36006944 -71.48439545 55.96350164 -77 55 C-74.83913913 52.61738216 -72.87877407 51.29200867 -69.9453125 49.9921875 C-69.16542969 49.64542969 -68.38554687 49.29867187 -67.58203125 48.94140625 C-66.77121094 48.58949219 -65.96039063 48.23757813 -65.125 47.875 C-63.92037109 47.33552734 -63.92037109 47.33552734 -62.69140625 46.78515625 C-58.82485107 45.08438157 -55.22374874 43.56430651 -51 43 C-51 42.34 -51 41.68 -51 41 C-49.98421875 40.50371094 -48.9684375 40.00742187 -47.921875 39.49609375 C-29.98252618 30.67522096 -8.34977999 19.59351781 0 0 Z " fill="#D0B9B1" transform="translate(473,353)"/>
<path d="M0 0 C2.61312145 -0.00966927 5.2254421 -0.04076667 7.83837891 -0.07226562 C23.69964896 -0.17182941 37.92755525 2.24303401 53.01416016 7.24023438 C55.13861642 7.86708011 57.26362566 8.49205455 59.38916016 9.11523438 C69.58658108 12.27187253 79.58795432 15.89055322 88.57275391 21.74804688 C90.61189856 22.99437209 92.60078261 24.01605036 94.75244141 25.04101562 C99.42605081 27.34706215 103.56301508 30.23417073 107.76416016 33.30273438 C108.54984375 33.87419189 109.33552734 34.44564941 110.14501953 35.03442383 C116.89485839 40.01733619 123.01741464 45.37538209 129.01416016 51.24023438 C130.30193359 52.45259766 130.30193359 52.45259766 131.61572266 53.68945312 C149.77489799 71.14587399 167.13213148 96.94011646 171.01416016 122.24023438 C171.01416016 123.23023438 171.01416016 124.22023438 171.01416016 125.24023438 C171.67416016 125.24023438 172.33416016 125.24023438 173.01416016 125.24023438 C173.17271484 125.83707031 173.33126953 126.43390625 173.49462891 127.04882812 C175.10256981 133.02752553 176.78452143 138.9832838 178.51416016 144.92773438 C178.71549561 145.62761475 178.91683105 146.32749512 179.12426758 147.04858398 C180.15713266 150.57557171 181.287004 154.0087164 182.62744141 157.43164062 C186.80220943 168.37135145 185.11683886 181.69458469 185.01416016 193.24023438 C180.61579783 192.39736489 179.01055589 190.37167352 176.07666016 186.99023438 C171.06113708 181.2537783 165.91089845 176.02590599 160.07666016 171.11523438 C159.07763672 170.26703125 158.07861328 169.41882813 157.04931641 168.54492188 C154.14163899 166.33703297 151.32782127 164.75138236 148.01416016 163.24023438 C148.01416016 162.58023438 148.01416016 161.92023438 148.01416016 161.24023438 C147.39669922 161.05847656 146.77923828 160.87671875 146.14306641 160.68945312 C141.91148733 159.433505 137.69591633 158.15410185 133.51416016 156.74023438 C127.05290074 154.57514569 120.68060626 152.46324853 113.95166016 151.30273438 C101.78610955 149.20047209 90.24198605 146.50274208 79.01416016 141.24023438 C78.32451172 140.95792969 77.63486328 140.675625 76.92431641 140.38476562 C71.66442608 138.09364775 67.50881365 134.5163708 63.22509766 130.76879883 C60.27401406 128.18560263 60.27401406 128.18560263 56.85009766 126.32617188 C53.92672692 124.59702918 53.22160845 122.04579642 51.88916016 118.99023438 C51.39158203 117.87132812 50.89400391 116.75242187 50.38134766 115.59960938 C49.12407199 112.51030344 48.02512926 109.41756583 47.01416016 106.24023438 C46.35416016 106.24023438 45.69416016 106.24023438 45.01416016 106.24023438 C43.88682663 104.59533875 42.83762412 102.89660446 41.82666016 101.17773438 C39.16740503 96.87018062 36.49289137 93.47074895 32.81494141 90.02929688 C30.76778727 87.99546478 29.03791852 85.82863614 27.26416016 83.55273438 C23.28894334 78.48143836 18.99871108 73.77942831 14.61572266 69.06445312 C12.46157655 66.72594317 10.38124579 64.35289595 8.32666016 61.92773438 C5.4175988 58.56522221 2.23220072 55.69290648 -1.15380859 52.81835938 C-3.55711255 50.74813592 -5.74323245 48.48284177 -7.98583984 46.24023438 C-20.6716234 34.31770335 -35.2514755 23.79078073 -50.98583984 16.24023438 C-49.70012625 12.38309358 -48.47720044 12.17393922 -44.92333984 10.36523438 C-40.68938403 8.15741086 -36.63585791 5.83526739 -32.64208984 3.22070312 C-23.8869602 -1.96216843 -9.87670783 0.02200121 0 0 Z " fill="#CCC2BC" transform="translate(413.98583984375,205.759765625)"/>
<path d="M0 0 C9.27583101 4.79424974 16.76653908 11.74556292 23.15625 19.9375 C23.15625 20.5975 23.15625 21.2575 23.15625 21.9375 C24.0225 22.0303125 24.0225 22.0303125 24.90625 22.125 C28.04403826 23.2580902 29.17314011 25.31467725 31.15625 27.9375 C33.97134993 30.2148501 33.97134993 30.2148501 37.15625 29.9375 C37.48625 28.6175 37.81625 27.2975 38.15625 25.9375 C39.80625 26.2675 41.45625 26.5975 43.15625 26.9375 C44.58180355 30.76867517 45.56203008 33.84895824 45.15625 37.9375 C43.20068787 41.53619717 40.64914132 44.69367625 38.15625 47.9375 C37.7128125 48.56011719 37.269375 49.18273437 36.8125 49.82421875 C26.52581688 63.27844759 7.19838452 70.87733029 -7.95092773 77.34643555 C-19.19905683 82.19094748 -29.68116059 87.6794441 -38.84375 95.9375 C-39.47667969 96.50082031 -40.10960937 97.06414062 -40.76171875 97.64453125 C-47.73093767 104.21375085 -52.60362154 112.11236381 -56.96875 120.5625 C-57.28126709 121.15216553 -57.59378418 121.74183105 -57.91577148 122.34936523 C-64.25319929 135.06224872 -66.72273224 147.68514293 -66.90625 161.75 C-66.92255463 162.48874359 -66.93885925 163.22748718 -66.95565796 163.98861694 C-67.19995974 175.73999227 -66.3602088 186.67384292 -62.84375 197.9375 C-62.286875 199.80728516 -62.286875 199.80728516 -61.71875 201.71484375 C-61.0509021 203.89762606 -60.36701234 206.07562977 -59.66015625 208.24609375 C-58.67515182 211.49330931 -58.1574127 214.56562593 -57.84375 217.9375 C-57.18375 217.9375 -56.52375 217.9375 -55.84375 217.9375 C-55.67359375 218.62714844 -55.5034375 219.31679688 -55.328125 220.02734375 C-54.15512542 224.57583681 -52.97835281 228.89889308 -50.90625 233.125 C-47.79613844 239.68145139 -46.46699446 246.90056257 -44.84375 253.9375 C-48.47375 253.9375 -52.10375 253.9375 -55.84375 253.9375 C-61.44561903 241.53336144 -66.12332555 229.03860554 -69.84375 215.9375 C-70.16214844 214.89851562 -70.48054688 213.85953125 -70.80859375 212.7890625 C-73.23727929 204.73245905 -74.88094505 196.75294804 -76.23046875 188.45703125 C-76.7459343 184.98314943 -76.7459343 184.98314943 -77.84375 181.9375 C-78.14726197 179.13844513 -78.35119074 176.33864445 -78.5625 173.53125 C-78.76306261 170.82603697 -78.76306261 170.82603697 -79.84375 167.9375 C-79.93497428 166.47038081 -79.97164652 164.99949283 -79.97314453 163.52954102 C-79.97787277 162.1978463 -79.97787277 162.1978463 -79.98269653 160.83924866 C-79.9806723 159.88296066 -79.97864807 158.92667267 -79.9765625 157.94140625 C-79.97751923 156.95631577 -79.97847595 155.97122528 -79.97946167 154.95628357 C-79.98014231 152.87246639 -79.97829611 150.78864709 -79.97412109 148.70483398 C-79.96877692 145.51606473 -79.97406709 142.3274367 -79.98046875 139.13867188 C-79.97980784 137.11458302 -79.9785264 135.09049426 -79.9765625 133.06640625 C-79.97858673 132.11214249 -79.98061096 131.15787872 -79.98269653 130.17469788 C-79.97954437 129.28374924 -79.97639221 128.3928006 -79.97314453 127.47485352 C-79.97234894 126.69336441 -79.97155334 125.91187531 -79.97073364 125.10670471 C-79.84302748 122.92515753 -79.40182364 121.04435752 -78.84375 118.9375 C-78.64584411 116.60660844 -78.48227721 114.27267289 -78.34375 111.9375 C-78.11698627 108.11491143 -77.78308751 104.63567916 -76.84375 100.9375 C-76.57958513 97.7675216 -76.40120346 94.59773596 -76.22265625 91.421875 C-75.86469278 88.13008723 -75.18718095 85.17739817 -74.34106445 81.99121094 C-73.68844884 79.29616797 -73.32971098 76.59537563 -72.95703125 73.85009766 C-71.74728244 65.15208229 -69.45262237 57.24493658 -66.40063477 49.02124023 C-64.30463596 43.36991811 -62.70677423 37.88080229 -61.546875 31.95703125 C-61.31484375 31.29058594 -61.0828125 30.62414062 -60.84375 29.9375 C-57.84375 28.9375 -57.84375 28.9375 -54.46875 29.1875 C-50.76858259 29.27949811 -50.76858259 29.27949811 -48.28125 26.875 C-47.0746875 25.4209375 -47.0746875 25.4209375 -45.84375 23.9375 C-42.11747592 19.46800732 -38.55799868 15.3946157 -33.84375 11.9375 C-32.85375 11.9375 -31.86375 11.9375 -30.84375 11.9375 C-30.61300781 11.35226562 -30.38226563 10.76703125 -30.14453125 10.1640625 C-28.51267042 7.3707872 -26.69789355 6.12757672 -24.03125 4.3125 C-23.17917969 3.72210938 -22.32710938 3.13171875 -21.44921875 2.5234375 C-14.64109946 -1.62063511 -7.61144141 -2.84383525 0 0 Z " fill="#CDC3BD" transform="translate(412.84375,309.0625)"/>
<path d="M0 0 C2.61312145 -0.00966927 5.2254421 -0.04076667 7.83837891 -0.07226562 C23.69964896 -0.17182941 37.92755525 2.24303401 53.01416016 7.24023438 C55.13861642 7.86708011 57.26362566 8.49205455 59.38916016 9.11523438 C69.58658108 12.27187253 79.58795432 15.89055322 88.57275391 21.74804688 C90.61189856 22.99437209 92.60078261 24.01605036 94.75244141 25.04101562 C99.42605081 27.34706215 103.56301508 30.23417073 107.76416016 33.30273438 C108.54984375 33.87419189 109.33552734 34.44564941 110.14501953 35.03442383 C116.89485839 40.01733619 123.01741464 45.37538209 129.01416016 51.24023438 C130.30193359 52.45259766 130.30193359 52.45259766 131.61572266 53.68945312 C149.77489799 71.14587399 167.13213148 96.94011646 171.01416016 122.24023438 C171.01416016 123.23023438 171.01416016 124.22023438 171.01416016 125.24023438 C171.67416016 125.24023438 172.33416016 125.24023438 173.01416016 125.24023438 C173.17271484 125.83707031 173.33126953 126.43390625 173.49462891 127.04882812 C175.10256981 133.02752553 176.78452143 138.9832838 178.51416016 144.92773438 C178.71549561 145.62761475 178.91683105 146.32749512 179.12426758 147.04858398 C180.15625064 150.57255984 181.28527471 154.00104334 182.62744141 157.41992188 C186.48477238 167.52039615 185.12797833 179.56661913 185.01416016 190.24023438 C181.09410076 188.93354791 180.73383973 187.45355743 178.82666016 183.86523438 C178.29685547 182.888125 177.76705078 181.91101563 177.22119141 180.90429688 C176.01416016 178.24023438 176.01416016 178.24023438 176.01416016 175.24023438 C175.35416016 175.24023438 174.69416016 175.24023438 174.01416016 175.24023438 C173.00683616 173.30653207 172.00852727 171.36813132 171.01416016 169.42773438 C170.45728516 168.34878906 169.90041016 167.26984375 169.32666016 166.15820312 C168.01416016 163.24023438 168.01416016 163.24023438 168.01416016 160.24023438 C167.35416016 160.24023438 166.69416016 160.24023438 166.01416016 160.24023438 C165.61583984 159.29921875 165.21751953 158.35820312 164.80712891 157.38867188 C164.27207139 156.13081737 163.73690957 154.87300723 163.20166016 153.61523438 C162.940625 152.99777344 162.67958984 152.3803125 162.41064453 151.74414062 C160.7436404 147.83388402 158.92060113 144.03786479 157.01416016 140.24023438 C156.1183479 138.22854037 155.24301091 136.20759429 154.38916016 134.17773438 C153.75107422 132.67533203 153.75107422 132.67533203 153.10009766 131.14257812 C152.10965685 128.49546476 151.4736095 126.02245537 151.01416016 123.24023438 C150.35416016 123.24023438 149.69416016 123.24023438 149.01416016 123.24023438 C147.71998615 120.67897373 146.42875231 118.11630079 145.13916016 115.55273438 C144.77435547 114.83150391 144.40955078 114.11027344 144.03369141 113.3671875 C142.19623595 109.70898073 140.45277514 106.07906487 139.01416016 102.24023438 C138.02416016 102.90023437 137.03416016 103.56023437 136.01416016 104.24023438 C132.95166016 104.86523438 132.95166016 104.86523438 129.01416016 105.24023438 C127.86173828 105.35625 127.86173828 105.35625 126.68603516 105.47460938 C118.51069339 105.93736457 113.08650531 102.79728831 106.32666016 98.55273438 C98.61796272 90.84403694 92.82769029 81.6428712 92.70166016 70.61523438 C92.84497008 66.08770235 93.18582396 61.69254141 94.01416016 57.24023438 C93.47919922 57.16160156 92.94423828 57.08296875 92.39306641 57.00195312 C89.09700455 55.94656386 86.74947813 54.08225725 83.95166016 52.05273438 C78.18719333 47.96268103 72.31998564 44.45062209 66.01416016 41.24023438 C65.41732422 40.93230957 64.82048828 40.62438477 64.20556641 40.30712891 C54.96828707 35.54677041 45.65863744 31.12420939 36.01416016 27.24023438 C35.40765625 26.99080078 34.80115234 26.74136719 34.17626953 26.484375 C24.31517138 22.44664275 24.31517138 22.44664275 14.01416016 23.24023438 C12.26585759 23.60268735 10.515745 23.95649086 8.76416016 24.30273438 C7.95462891 24.47933594 7.14509766 24.6559375 6.31103516 24.83789062 C4.01416016 25.24023438 4.01416016 25.24023438 0.01416016 25.24023438 C0.01416016 25.90023437 0.01416016 26.56023437 0.01416016 27.24023438 C1.33416016 27.57023437 2.65416016 27.90023437 4.01416016 28.24023438 C2.01416016 30.24023438 2.01416016 30.24023438 -0.04443359 30.50585938 C-0.82947266 30.50070313 -1.61451172 30.49554688 -2.42333984 30.49023438 C-3.59703125 30.49796875 -3.59703125 30.49796875 -4.79443359 30.50585938 C-6.98583984 30.24023438 -6.98583984 30.24023438 -9.98583984 28.24023438 C-10.49755859 26.07617188 -10.49755859 26.07617188 -10.67333984 23.61523438 C-10.73908203 22.79796875 -10.80482422 21.98070312 -10.87255859 21.13867188 C-10.92863281 20.19894531 -10.92863281 20.19894531 -10.98583984 19.24023438 C-22.80522641 15.63316631 -34.72261805 15.5246946 -46.98583984 15.24023438 C-46.60863059 12.87192137 -46.37855924 11.58437883 -44.54296875 9.97583008 C-43.63683838 9.45122192 -43.63683838 9.45122192 -42.71240234 8.91601562 C-42.05240234 8.52736328 -41.39240234 8.13871094 -40.71240234 7.73828125 C-40.01888672 7.34705078 -39.32537109 6.95582031 -38.61083984 6.55273438 C-37.92505859 6.14990234 -37.23927734 5.74707031 -36.53271484 5.33203125 C-25.3979513 -1.13436353 -12.53867422 0.02793096 0 0 Z " fill="#E4DFDC" transform="translate(413.98583984375,205.759765625)"/>
<path d="M0 0 C3.46523866 1.30023114 6.51704511 2.85079031 9.6875 4.75 C20.25435526 10.59183868 32.15763483 13.93013102 44 16 C59.6111848 18.98767159 74.73369727 22.86152168 88 32 C88.71671875 32.48339844 89.4334375 32.96679688 90.171875 33.46484375 C94.29306103 36.38530829 97.55393945 39.51274818 100.67578125 43.484375 C102.11628024 45.2664636 102.11628024 45.2664636 105 47 C105.2208564 49.95064148 105.28060989 52.68368231 105.1875 55.625 C105.17396484 56.42679687 105.16042969 57.22859375 105.14648438 58.0546875 C105.11109051 60.03674378 105.05728234 62.01845551 105 64 C104.01 64 103.02 64 102 64 C102 63.34 102 62.68 102 62 C97.48184719 61.11722245 93.22487306 60.89410497 88.625 60.9375 C87.37976563 60.94652344 86.13453125 60.95554687 84.8515625 60.96484375 C83.44003906 60.98224609 83.44003906 60.98224609 82 61 C82 61.66 82 62.32 82 63 C80.515 63.556875 80.515 63.556875 79 64.125 C70.95069008 67.60709584 64.98675851 73.76027986 59 80 C58.34 80.66 57.68 81.32 57 82 C57 81.01 57 80.02 57 79 C56.16597656 78.77957031 55.33195313 78.55914062 54.47265625 78.33203125 C50.22869487 76.70414505 47.04280846 74.41046617 43.4375 71.6875 C42.79103516 71.21376953 42.14457031 70.74003906 41.47851562 70.25195312 C35.50613785 65.81064269 30.59173627 60.6974859 25.8125 55 C25.15604492 54.23816406 25.15604492 54.23816406 24.48632812 53.4609375 C21.96513142 50.45859638 20.22689421 47.72866174 19 44 C18.34 44 17.68 44 17 44 C19.67104767 53.92103421 22.49490352 61.85114258 29 70 C29.33 70.66 29.66 71.32 30 72 C29.360625 71.731875 28.72125 71.46375 28.0625 71.1875 C24.97935309 69.99199406 21.88653726 68.91052264 18.73950195 67.89697266 C16.86862533 67.28440687 15.00599851 66.6462043 13.15136719 65.98608398 C5.04585934 63.23814089 -2.21612977 62.3318872 -10.75 62.4375 C-12.57229126 62.44740967 -12.57229126 62.44740967 -14.43139648 62.45751953 C-25.05168154 62.68193648 -35.96579819 63.97719879 -45 70 C-45.57105469 69.64808594 -46.14210938 69.29617188 -46.73046875 68.93359375 C-61.02498155 59.89288262 -61.02498155 59.89288262 -77 55 C-74.83913913 52.61738216 -72.87877407 51.29200867 -69.9453125 49.9921875 C-69.16542969 49.64542969 -68.38554687 49.29867187 -67.58203125 48.94140625 C-66.36580078 48.41353516 -66.36580078 48.41353516 -65.125 47.875 C-64.32191406 47.51535156 -63.51882813 47.15570313 -62.69140625 46.78515625 C-58.82485107 45.08438157 -55.22374874 43.56430651 -51 43 C-51 42.34 -51 41.68 -51 41 C-49.98421875 40.50371094 -48.9684375 40.00742187 -47.921875 39.49609375 C-29.98252618 30.67522096 -8.34977999 19.59351781 0 0 Z " fill="#B29E97" transform="translate(473,353)"/>
<path d="M0 0 C3.46846979 1.89350137 6.19022174 4.23679265 9 7 C9.94166016 7.90878906 9.94166016 7.90878906 10.90234375 8.8359375 C16.96577449 16.0549868 15.57245095 25.15691435 15 34 C14.95359375 34.97453125 14.9071875 35.9490625 14.859375 36.953125 C14.51592434 41.5428747 13.68873348 45.23577312 11 49 C6.36424529 51.68873773 2.22606843 52.40534445 -3.08203125 52.7890625 C-5.08280653 52.89692242 -5.08280653 52.89692242 -7 54 C-9.05645195 54.35009697 -11.12068833 54.65491897 -13.1875 54.9375 C-14.44433594 55.11023438 -15.70117188 55.28296875 -16.99609375 55.4609375 C-17.65464355 55.54956055 -18.31319336 55.63818359 -18.99169922 55.72949219 C-20.96506853 55.99529491 -22.937623 56.26712485 -24.91015625 56.5390625 C-28.60534318 57.04278076 -32.29870593 57.54309752 -36 58 C-36.73124588 58.09070267 -37.46249176 58.18140533 -38.21589661 58.27485657 C-45.19413371 59.06400503 -52.11890248 59.16129395 -59.13671875 59.16796875 C-60.37436478 59.17129715 -61.6120108 59.17462555 -62.88716125 59.17805481 C-65.49500154 59.18309494 -68.10284821 59.18546404 -70.71069336 59.18530273 C-74.65815096 59.18748378 -78.60532628 59.2056563 -82.55273438 59.22460938 C-110.66280837 59.28708461 -110.66280837 59.28708461 -123 56 C-122.16520545 41.65471473 -121.08030133 27.32853814 -120 13 C-94.3868084 4.22563614 -67.99133285 -0.82011493 -41.5625 7.9375 C-40.46099609 8.29038086 -39.35949219 8.64326172 -38.22460938 9.00683594 C-33.05428332 10.92001968 -29.72658766 12.36265306 -27.33984375 17.50390625 C-25.60330417 22.48008673 -24.87294593 27.2573214 -24.90234375 32.51953125 C-24.90717773 34.0519043 -24.90717773 34.0519043 -24.91210938 35.61523438 C-24.92467773 37.19788086 -24.92467773 37.19788086 -24.9375 38.8125 C-24.94201172 39.88693359 -24.94652344 40.96136719 -24.95117188 42.06835938 C-24.96292271 44.71229683 -24.97935213 47.35611952 -25 50 C-20.06476058 37.60902388 -18.55940517 29.74657791 -23 17 C-23.495 15.515 -23.495 15.515 -24 14 C-24.66 14 -25.32 14 -26 14 C-25.65892198 11.12610184 -25.15897287 10.14161377 -22.9609375 8.18359375 C-7.88029174 -1.9992592 -7.88029174 -1.9992592 0 0 Z " fill="#A49D99" transform="translate(514,583)"/>
<path d="M0 0 C4.20096824 0.61446998 8.08755602 1.56966097 12.125 2.875 C18.36779655 4.83601406 24.6406267 6.46762089 31 8 C33.73058876 8.66095946 36.45970024 9.32762156 39.1875 10 C39.87497314 10.16927002 40.56244629 10.33854004 41.27075195 10.51293945 C45.62632443 11.60406741 49.83131191 12.91796552 54.05859375 14.41796875 C56.08123336 15.02435366 57.96345292 15.29373526 60.0625 15.5 C63.73214464 15.96598662 66.39486682 16.80058975 69.76953125 18.16796875 C74.07671851 19.77467783 78.55373805 20.84756813 83 22 C81.6756445 30.65450923 75.94108333 38.77893907 69 44 C59.79510136 49.95680065 52.0945636 52.00252081 41 51 C39.67355469 50.96326172 39.67355469 50.96326172 38.3203125 50.92578125 C27.67773748 50.43275461 18.2105015 45.76649198 11 38 C8 34.34396355 8 34.34396355 8 32 C7.34 32 6.68 32 6 32 C1.72873935 20.72055439 -0.33339777 12.15049658 0 0 Z " fill="#D5C9C5" transform="translate(383,458)"/>
<path d="M0 0 C0.66 0 1.32 0 2 0 C2 0.66 2 1.32 2 2 C3.32 2.66 4.64 3.32 6 4 C5.98428955 4.648479 5.9685791 5.29695801 5.95239258 5.96508789 C5.70666118 17.67621084 5.55538071 28.84496264 8.34375 40.26953125 C9 43 9 43 9 46 C9.66 46 10.32 46 11 46 C11.31453125 46.66386719 11.6290625 47.32773437 11.953125 48.01171875 C14.25301049 52.75696442 16.44142868 57.04603186 20 61 C19.34 61 18.68 61 18 61 C26.41222491 80.86159077 35.55603334 98.12712768 55 109 C55.77859375 109.49371094 56.5571875 109.98742187 57.359375 110.49609375 C73.1837139 119.50847611 91.16499475 121.40754278 109 122 C109 122.33 109 122.66 109 123 C71.65973701 123.56979038 71.65973701 123.56979038 53.75 121.6875 C52.61216064 121.56979248 51.47432129 121.45208496 50.30200195 121.33081055 C44.12824827 120.60707418 38.33889733 119.38451886 32.37548828 117.64038086 C29.60750357 116.89419135 26.91724803 116.63926415 24.0625 116.4375 C19.46666648 115.62915481 19.46666648 115.62915481 17.59765625 113.109375 C16.52649549 110.44222772 15.76785946 107.76938884 15 105 C14.16182532 102.86864154 13.30694521 100.74379464 12.4375 98.625 C10.0870871 92.52408257 8.41338664 86.3774763 7 80 C6.34 80 5.68 80 5 80 C4.68546875 78.74445313 4.3709375 77.48890625 4.046875 76.1953125 C1.13910456 64.46093239 1.13910456 64.46093239 -3.203125 53.203125 C-5.71875586 46.24814557 -5.18333485 38.59735199 -5.1875 31.3125 C-5.19974609 30.20455078 -5.21199219 29.09660156 -5.22460938 27.95507812 C-5.2413177 18.42576365 -5.0943407 8.33619387 0 0 Z " fill="#AF9C95" transform="translate(366,444)"/>
<path d="M0 0 C3.46846979 1.89350137 6.19022174 4.23679265 9 7 C9.62777344 7.60585938 10.25554688 8.21171875 10.90234375 8.8359375 C16.96577449 16.0549868 15.57245095 25.15691435 15 34 C14.95359375 34.97453125 14.9071875 35.9490625 14.859375 36.953125 C14.51592434 41.5428747 13.68873348 45.23577312 11 49 C6.36424529 51.68873773 2.22606843 52.40534445 -3.08203125 52.7890625 C-5.08280653 52.89692242 -5.08280653 52.89692242 -7 54 C-13.64593344 55.27341662 -20.22651748 56.3150457 -27 56 C-28 53 -28 53 -27.0625 50.8125 C-26.711875 50.214375 -26.36125 49.61625 -26 49 C-25.67 49.33 -25.34 49.66 -25 50 C-20.06476058 37.60902388 -18.55940517 29.74657791 -23 17 C-23.33 16.01 -23.66 15.02 -24 14 C-24.66 14 -25.32 14 -26 14 C-25.65892198 11.12610184 -25.15897287 10.14161377 -22.9609375 8.18359375 C-7.88029174 -1.9992592 -7.88029174 -1.9992592 0 0 Z " fill="#A29C98" transform="translate(514,583)"/>
<path d="M0 0 C4.85433107 0.78295662 9.36526266 2.41245198 14 4 C16.28581453 4.75327979 18.57236191 5.50427418 20.859375 6.25390625 C23 7 23 7 25.29321289 8.02294922 C28.16538285 9.05969714 30.40646923 9.29645482 33.44921875 9.37890625 C34.46177734 9.41306641 35.47433594 9.44722656 36.51757812 9.48242188 C38.08668945 9.52206055 38.08668945 9.52206055 39.6875 9.5625 C41.77485853 9.62228419 43.86211218 9.68589191 45.94921875 9.75390625 C46.87049561 9.77783447 47.79177246 9.8017627 48.7409668 9.82641602 C51 10 51 10 53 11 C53 12.65 53 14.3 53 16 C50.21176345 17.0326802 49.1322726 17.04509293 46.25 16.0625 C45.5075 15.711875 44.765 15.36125 44 15 C44.42152344 15.54269531 44.84304688 16.08539062 45.27734375 16.64453125 C45.82519531 17.35996094 46.37304688 18.07539062 46.9375 18.8125 C47.48277344 19.52019531 48.02804687 20.22789062 48.58984375 20.95703125 C51.30821728 24.89528432 51.08771546 28.35108058 51 33 C46.44299575 32.47515308 43.807126 30.68492697 40.1875 27.9375 C39.21167969 27.20402344 38.23585938 26.47054687 37.23046875 25.71484375 C36.49441406 25.14894531 35.75835937 24.58304688 35 24 C36.9780732 28.52131017 40.20559746 31.87192983 43.41796875 35.5625 C45 38 45 38 44.73828125 40.3125 C44.49464844 40.869375 44.25101562 41.42625 44 42 C41.78515625 42.75390625 41.78515625 42.75390625 39 43 C36.68359375 41.33984375 36.68359375 41.33984375 34.4375 38.9375 C33.6640625 38.1125 32.890625 37.2875 32.09375 36.4375 C29.76741101 33.72922476 27.81116521 31.07110622 26 28 C26.48157043 31.17836482 27.27796884 33.64488771 28.5625 36.625 C30 40 30 40 30 43 C18.2743909 40.78516273 9.74524503 35.62470424 2.03125 26.515625 C1 25 1 25 1 23 C0.34 23 -0.32 23 -1 23 C-3.77074084 14.51460616 -3.15833632 8.29063283 0 0 Z " fill="#B09C96" transform="translate(328,648)"/>
<path d="M0 0 C3.42691844 2.42375371 4.48828442 4.95874101 5.35864258 9.03857422 C6.03673497 14.11394724 5.93129217 19.20176352 5.875 24.3125 C5.87435547 25.44365234 5.87371094 26.57480469 5.87304688 27.74023438 C5.82835673 36.07742982 5.82835673 36.07742982 4.6875 39.5 C-9.69685632 39.46635238 -22.97380222 37.47122835 -35.3125 29.5 C-33.75008777 18.8755968 -25.90387254 5.97841317 -17.3125 -0.5 C-11.22412134 -3.41734811 -5.70226543 -3.79463595 0 0 Z " fill="#A19B97" transform="translate(375.3125,585.5)"/>
<path d="M0 0 C1.23446889 12.94820705 -2.76574589 25.74796365 -10.90625 35.84765625 C-15.60185776 40.67467094 -19.8879773 42.17820818 -26.5625 42.625 C-31.46444476 42.42837981 -34.08424599 41.25831463 -37.50390625 37.78125 C-43.02941714 31.20257385 -45.71299452 25.33123426 -48 17 C-41.31850033 13.71785981 -34.66317018 11.75567762 -27.453125 10.02734375 C-24.1726842 9.0513755 -21.86371854 7.82368563 -19 6 C-16.859375 5.15625 -16.859375 5.15625 -14.75 4.5 C-13.98171875 4.25636719 -13.2134375 4.01273437 -12.421875 3.76171875 C-11.22304688 3.38466797 -11.22304688 3.38466797 -10 3 C-8.33252145 2.43991134 -6.66582091 1.87749977 -5 1.3125 C-1.12307692 0 -1.12307692 0 0 0 Z " fill="#D4C7C3" transform="translate(568,456)"/>
<path d="M0 0 C3.88546415 0.40473585 7.23979812 0.99217877 10.875 2.4375 C14.27883408 3.78094874 17.5904108 4.65675812 21.16796875 5.40234375 C25.04019866 6.21951779 28.8948521 7.10612981 32.75 8 C33.483396 8.1662085 34.21679199 8.33241699 34.97241211 8.50366211 C42.62521675 10.28112719 42.62521675 10.28112719 46 12 C47.75 15.0625 47.75 15.0625 49 18 C50.10528442 19.31968178 50.10528442 19.31968178 52.875 19.25 C55.99756979 19.36288438 55.99756979 19.36288438 57.37890625 17.44921875 C59 16 59 16 61.41015625 16.00390625 C62.28542969 16.18824219 63.16070312 16.37257813 64.0625 16.5625 C64.94035156 16.72878906 65.81820312 16.89507812 66.72265625 17.06640625 C69 18 69 18 70.30859375 20.08984375 C70.65083984 21.03537109 70.65083984 21.03537109 71 22 C63.6308249 29.04165621 56.33759354 33.2845644 45.9375 33.375 C43.62370665 33.27680855 41.31077045 33.15369185 39 33 C38.11183594 32.97808594 37.22367187 32.95617187 36.30859375 32.93359375 C25.66506578 32.40398 16.21754343 27.7740769 9 20 C6 16.34396355 6 16.34396355 6 14 C5.34 14 4.68 14 4 14 C3.32739649 12.23141309 2.66211605 10.46003984 2 8.6875 C1.62875 7.70136719 1.2575 6.71523438 0.875 5.69921875 C0 3 0 3 0 0 Z " fill="#FBECE8" transform="translate(385,476)"/>
<path d="M0 0 C-0.99 1.485 -0.99 1.485 -2 3 C-2.66 3 -3.32 3 -4 3 C-4.66 5.64 -5.32 8.28 -6 11 C-8.64 11 -11.28 11 -14 11 C-14.91692961 13.75078884 -15.10886083 15.35948913 -15.0625 18.1875 C-15.041875 19.445625 -15.02125 20.70375 -15 22 C-12.69 22.33 -10.38 22.66 -8 23 C-7.78085937 23.70125 -7.56171875 24.4025 -7.3359375 25.125 C-5.12756161 31.73217339 -2.74794787 36.89329122 2 42 C2.64163086 42.69456299 3.28326172 43.38912598 3.94433594 44.10473633 C13.26808701 52.43670193 23.87597307 50.89971964 35.6875 50.5 C37.75709237 50.45981059 39.82676004 50.42331948 41.89648438 50.390625 C46.93287012 50.30308628 51.96559394 50.16538576 57 50 C57 50.33 57 50.66 57 51 C49.27461635 51.95285629 41.64178797 52.16057044 33.86328125 52.16796875 C32.62563522 52.17129715 31.3879892 52.17462555 30.11283875 52.17805481 C27.50499846 52.18309494 24.89715179 52.18546404 22.28930664 52.18530273 C18.34184904 52.18748378 14.39467372 52.2056563 10.44726562 52.22460938 C-17.66280837 52.28708461 -17.66280837 52.28708461 -30 49 C-29.16520545 34.65471473 -28.08030133 20.32853814 -27 6 C-23.91729306 5.01885373 -20.83372822 4.04043123 -17.75 3.0625 C-16.87730469 2.78470703 -16.00460937 2.50691406 -15.10546875 2.22070312 C-14.26113281 1.95322266 -13.41679687 1.68574219 -12.546875 1.41015625 C-11.77182617 1.16402588 -10.99677734 0.91789551 -10.19824219 0.66430664 C-3.87666005 -1.2460693 -3.87666005 -1.2460693 0 0 Z " fill="#89817C" transform="translate(421,590)"/>
<path d="M0 0 C21.20459243 5.47386722 41.84070526 22.29206491 58.8671875 35.4296875 C54.97862564 36.70588952 52.89076741 35.79313585 49.13671875 34.25390625 C46.73900096 33.38313438 44.43779716 32.88606204 41.9296875 32.4296875 C38.62004178 31.82334019 35.54010546 31.04888255 32.3671875 29.9296875 C29.21514766 28.81981432 26.15330475 28.03822773 22.8671875 27.4296875 C18.80092427 26.67667579 15.06054806 25.5282288 11.16796875 24.15234375 C7.87333733 23.11752743 4.53006771 22.53210686 1.12890625 21.95703125 C-1.1328125 21.4296875 -1.1328125 21.4296875 -3.13671875 20.42578125 C-5.37269802 19.30997946 -7.29505147 18.94776662 -9.7578125 18.5546875 C-15.20380845 17.54977158 -20.0756629 15.64622541 -25.1328125 13.4296875 C-21.94197335 -0.75181985 -12.83985203 -2.33742942 0 0 Z " fill="#7B6D68" transform="translate(395.1328125,422.5703125)"/>
<path d="M0 0 C3.73382152 0.97973309 6.58285078 2.46688911 9.91796875 4.41015625 C10.52229736 4.76223145 11.12662598 5.11430664 11.74926758 5.47705078 C17.51678753 8.89826806 22.8793744 12.81302582 28.23046875 16.84765625 C29.22046875 17.50765625 30.21046875 18.16765625 31.23046875 18.84765625 C31.41796875 21.47265625 31.41796875 21.47265625 31.23046875 23.84765625 C31.93042969 23.739375 32.63039063 23.63109375 33.3515625 23.51953125 C37.4444378 23.98601907 39.48298645 26.31706885 42.29296875 29.09765625 C42.85661133 29.6383374 43.42025391 30.17901855 44.00097656 30.73608398 C45.75627607 32.42792417 47.49338753 34.13714042 49.23046875 35.84765625 C50.29623299 36.87566601 51.36261694 37.90303377 52.4296875 38.9296875 C58.00819117 44.34890648 63.09730671 49.94984544 67.9375 56.05078125 C70.5053073 59.18289373 73.21764833 62.13858 75.98046875 65.09765625 C85.9636247 75.84953746 85.9636247 75.84953746 87.23046875 81.84765625 C84.66796875 82.28515625 84.66796875 82.28515625 81.23046875 81.84765625 C78.54020689 79.83917308 76.41978226 77.38086635 74.23046875 74.84765625 C73.44929688 73.94466797 73.44929688 73.94466797 72.65234375 73.0234375 C71.54010402 71.73572305 70.42953219 70.44656678 69.3203125 69.15625 C66.20657475 65.7165883 62.90161151 62.47506784 59.58129883 59.2355957 C57.11445547 56.81096918 54.78238824 54.36427075 52.59375 51.68359375 C50.66244816 49.36603154 48.85479711 47.50328484 46.54296875 45.59765625 C43.3300475 42.86607152 40.36235186 39.99181735 37.41796875 36.97265625 C33.1493655 32.65829462 28.68204893 28.7713998 23.9296875 25 C22.21509296 23.63279075 20.52622224 22.2321705 18.875 20.7890625 C13.20087095 15.91330336 7.33355433 12.67334881 0.49926758 9.72436523 C-1.5234375 8.8046875 -1.5234375 8.8046875 -4.76953125 6.84765625 C-5.734375 4.109375 -5.734375 4.109375 -5.76953125 1.84765625 C-2.76953125 -0.15234375 -2.76953125 -0.15234375 0 0 Z " fill="#C7BDB7" transform="translate(356.76953125,236.15234375)"/>
<path d="M0 0 C-1.02313395 7.06449631 -5.32363517 10.86573173 -10.7578125 15.19921875 C-22.35328983 23.52529458 -35.01082612 29.81649177 -48.10717773 35.40893555 C-59.35530683 40.25344748 -69.83741059 45.7419441 -79 54 C-79.63292969 54.56332031 -80.26585937 55.12664062 -80.91796875 55.70703125 C-96.57696679 70.46727885 -105.79679888 92.7965616 -106.64282227 113.97387695 C-106.77779951 118.88686404 -106.84070774 123.79953322 -106.90429688 128.71386719 C-107.0341559 133.17280215 -107.45054541 137.57497381 -108 142 C-115.50465453 128.19097841 -111.43909279 103.1828167 -107.42749023 88.90356445 C-103.81566746 76.98985448 -98.91090913 66.19999035 -90.11328125 57.18359375 C-87.94397525 55.01974392 -87.94397525 55.01974392 -86.05078125 52.5 C-75.64514103 39.81502907 -58.98361559 31.98697007 -43.8359375 26.45703125 C-30.15519502 21.44965085 -18.94784128 15.36056375 -8.33984375 5.19921875 C-2.80817052 0 -2.80817052 0 0 0 Z " fill="#DED9D6" transform="translate(453,351)"/>
<path d="M0 0 C0.97372559 0.13470703 1.94745117 0.26941406 2.95068359 0.40820312 C4.01834961 0.53582031 5.08601563 0.6634375 6.18603516 0.79492188 C7.22985352 0.92511719 8.27367187 1.0553125 9.34912109 1.18945312 C12.80461912 1.42514454 16.26329857 1.55522739 19.72412109 1.68945312 C20.72564209 1.7293335 21.72716309 1.76921387 22.7590332 1.81030273 C41.94725168 2.5190331 61.15221661 2.80847952 80.34912109 3.18945312 C79.56798841 6.95624179 78.61343318 8.12974181 75.45458984 10.38867188 C74.66375 10.95779297 73.87291016 11.52691406 73.05810547 12.11328125 C72.22601563 12.69529297 71.39392578 13.27730469 70.53662109 13.87695312 C69.71613281 14.47056641 68.89564453 15.06417969 68.05029297 15.67578125 C60.67410503 20.92226692 60.67410503 20.92226692 57.34912109 21.18945312 C54.92651367 20.18554688 54.92651367 20.18554688 52.24365234 18.62695312 C51.25945312 18.0778125 50.27525391 17.52867187 49.26123047 16.96289062 C47.20952137 15.78900791 45.16254148 14.6068171 43.12060547 13.41601562 C37.58316396 10.34646444 33.65485623 8.40988181 27.29931641 9.57055664 C23.14844868 10.88783877 19.31477751 13.08429866 15.52880859 15.21289062 C13.16878985 16.21022072 11.92046249 16.49698897 9.34912109 16.18945312 C3.49300339 13.01796895 -2.10172449 9.08977034 -6.65087891 4.18945312 C-3.41842371 0.24430805 -3.41842371 0.24430805 0 0 Z " fill="#9C9591" transform="translate(386.65087890625,694.810546875)"/>
<path d="M0 0 C2.25433614 5.56069582 2.59961828 11.0785651 3 17 C-2.89471968 18.87781929 -8.74672959 19.82902165 -14.875 20.625 C-15.87990479 20.75688721 -16.88480957 20.88877441 -17.92016602 21.0246582 C-26.69659992 22.10229478 -35.16473039 22.23456468 -44 22 C-44 15.4 -44 8.8 -44 2 C-39.34112676 1.71235182 -34.68221148 1.42661249 -30.02294922 1.14550781 C-28.442154 1.04958499 -26.86142256 0.95260444 -25.28076172 0.85449219 C-16.84236206 0.33142883 -8.45942898 -0.13562211 0 0 Z " fill="#78706C" transform="translate(500,666)"/>
<path d="M0 0 C14.52 0.66 29.04 1.32 44 2 C44 8.27 44 14.54 44 21 C33.1145164 21.09233681 22.24921523 21.12715774 11.375 20.5625 C10.58891357 20.52326416 9.80282715 20.48402832 8.99291992 20.44360352 C5.49833507 20.24333086 2.41163753 19.85290938 -1 19 C-0.67 12.73 -0.34 6.46 0 0 Z " fill="#79716D" transform="translate(402,667)"/>
<path d="M0 0 C0 1.65 0 3.3 0 5 C-6.26537518 8.15063996 -12.47094056 9.08368644 -19.375 10.0625 C-20.44105469 10.22298828 -21.50710938 10.38347656 -22.60546875 10.54882812 C-24.86745467 10.88289366 -27.1316457 11.20225717 -29.39746094 11.50927734 C-31.77412739 11.83301681 -34.14753419 12.18180179 -36.51660156 12.55712891 C-50.17875471 14.51060459 -63.92230223 14.30487608 -77.69238281 14.26074219 C-81.27918058 14.24934842 -84.86568132 14.25610038 -88.45246887 14.26764679 C-102.72491655 14.3063854 -116.87529461 14.3346181 -131 12 C-131.33 10.02 -131.66 8.04 -132 6 C-130.80685181 6.04543945 -130.80685181 6.04543945 -129.58959961 6.09179688 C-78.43989431 8.02561665 -78.43989431 8.02561665 -27.43652344 4.66064453 C-22.58707476 4.09182893 -17.88380949 3.91712993 -13 4 C-13 3.34 -13 2.68 -13 2 C-11.20873548 1.66451233 -9.41697413 1.33167645 -7.625 1 C-6.62726563 0.814375 -5.62953125 0.62875 -4.6015625 0.4375 C-2 0 -2 0 0 0 Z " fill="#9E9793" transform="translate(524,644)"/>
<path d="M0 0 C6.23677764 -0.40479086 12.07628581 0.21389768 18.1875 1.375 C19.18426758 1.56412964 19.18426758 1.56412964 20.20117188 1.75708008 C23.38274699 2.39015666 26.47855514 3.13940519 29.59375 4.046875 C32.85955431 4.96070098 35.95131137 5.46479267 39.3125 5.875 C44.49973679 6.6296152 48.89324862 7.9031059 53.6796875 10.00390625 C55.89008056 10.95281236 58.074781 11.67833869 60.375 12.375 C75.71650524 17.45282216 86.2867626 27.14999415 97.5625 38.25 C98.36123535 39.03084961 99.1599707 39.81169922 99.98291016 40.61621094 C100.73233887 41.36676758 101.48176758 42.11732422 102.25390625 42.890625 C102.92752197 43.56125977 103.6011377 44.23189453 104.29516602 44.92285156 C106.14665844 47.17868682 107.06158918 49.25147636 108 52 C104.7071512 50.21245351 102.16504652 48.28301373 99.57421875 45.5859375 C89.92371318 35.61616154 89.92371318 35.61616154 78 29 C78 28.34 78 27.68 78 27 C77.38253906 26.81824219 76.76507812 26.63648438 76.12890625 26.44921875 C71.89732717 25.19327062 67.68175617 23.91386747 63.5 22.5 C57.03874058 20.33491132 50.66644611 18.22301415 43.9375 17.0625 C31.78242534 14.962048 20.20877284 12.28461663 9 7 C7.77410156 6.45472656 7.77410156 6.45472656 6.5234375 5.8984375 C4.63654528 5.02499976 2.80947637 4.02423191 1 3 C0.67 2.01 0.34 1.02 0 0 Z " fill="#DBD6D3" transform="translate(484,340)"/>
<path d="M0 0 C4.15384938 1.85993256 6.28543515 4.33166912 9 8 C14.49169533 24.5751673 9.2865063 47.86785498 2.94140625 63.59375 C1.59965169 67.02329691 0.66395502 70.54736775 -0.2890625 74.1015625 C-1 76 -1 76 -3 77 C-3.05086019 69.45608409 -3.08580087 61.91221269 -3.10986328 54.36816406 C-3.11989845 51.80369413 -3.13352955 49.23923557 -3.15087891 46.67480469 C-3.17523621 42.98109116 -3.18650824 39.28752941 -3.1953125 35.59375 C-3.21079636 33.8839093 -3.21079636 33.8839093 -3.22659302 32.13952637 C-3.2274472 26.02973215 -2.71350073 20.86023853 -1 15 C-0.65661254 12.32737972 -0.51944987 9.6963975 -0.375 7 C-0.33632813 6.32066406 -0.29765625 5.64132812 -0.2578125 4.94140625 C-0.16503704 3.29464183 -0.08151002 1.64736045 0 0 Z " fill="#9F9792" transform="translate(593,420)"/>
<path d="M0 0 C0.99 0.309375 1.98 0.61875 3 0.9375 C6.3107899 1.89676307 9.54895734 2.28587753 12.9765625 2.66015625 C15.74601922 3.12529666 18.1755713 4.1169231 20.76953125 5.16796875 C25.07671851 6.77467783 29.55373805 7.84756813 34 9 C33.41673473 12.96193606 32.20102022 15.77394436 30.125 19.1875 C29.61195313 20.04730469 29.09890625 20.90710938 28.5703125 21.79296875 C27 24 27 24 24 26 C23.319375 25.525625 22.63875 25.05125 21.9375 24.5625 C18.50223064 22.73522907 15.88244392 22.14379422 12 22 C10.41666667 23.41666667 10.41666667 23.41666667 9 25 C6.0625 25.5 6.0625 25.5 3 25 C0.625 22.6875 0.625 22.6875 -1 20 C-1 19.01 -1 18.02 -1 17 C-1.66 17 -2.32 17 -3 17 C-3.55353075 5.47835991 -3.55353075 5.47835991 0 0 Z " fill="#94BED8" transform="translate(432,471)"/>
<path d="M0 0 C0.66 0 1.32 0 2 0 C1.24123024 4.31915096 0.00727227 8.4510901 -1.3125 12.625 C-1.53542725 13.33575684 -1.75835449 14.04651367 -1.98803711 14.77880859 C-3.25137559 18.76682673 -4.59327857 22.70707618 -6.0625 26.625 C-9.35189922 35.48107483 -11.86748251 44.56010345 -13.56640625 53.8515625 C-14 56 -14 56 -15.0625 59.3125 C-17.78900562 70.03675542 -17.25690939 81.77756072 -17.5625 92.8125 C-17.60583832 94.29493013 -17.64945656 95.7773521 -17.69335938 97.25976562 C-17.7987877 100.83975588 -17.90047111 104.41984029 -18 108 C-24.05442198 98.91836703 -22.4058438 85.3280953 -22.42553711 74.82299805 C-22.43740568 71.83623526 -22.48667713 68.85156157 -22.53710938 65.86523438 C-22.63687843 53.93437872 -21.41343271 44.13545614 -17 33 C-16.62649414 32.0087915 -16.25298828 31.01758301 -15.86816406 29.99633789 C-14.96627178 27.63774289 -13.99410802 25.32095468 -13 23 C-12.72929687 22.30261719 -12.45859375 21.60523438 -12.1796875 20.88671875 C-10.09124691 15.7408764 -7.33800436 11.11673195 -4.375 6.4375 C-3.97837158 5.80489258 -3.58174316 5.17228516 -3.1730957 4.52050781 C-2.1720448 2.97545834 -1.0920794 1.48210775 0 0 Z " fill="#282624" transform="translate(341,355)"/>
<path d="M0 0 C1.9375 1.5 1.9375 1.5 3 3 C2.21625 3.2475 1.4325 3.495 0.625 3.75 C-2.46370993 5.22081425 -2.65956415 5.97852575 -4 9 C-4.46019531 9.88558594 -4.46019531 9.88558594 -4.9296875 10.7890625 C-7.25151726 15.29840129 -9.21384292 19.87880135 -11.05078125 24.60546875 C-11.89233299 26.72839557 -12.80265069 28.79794775 -13.75 30.875 C-15.24759378 34.05802979 -15.24759378 34.05802979 -15 38 C-26.70615034 35.10933941 -26.70615034 35.10933941 -31 32 C-29.43758777 21.3755968 -21.59137254 8.47841317 -13 2 C-8.65762116 -0.0807232 -4.78911881 -0.45180366 0 0 Z " fill="#88827F" transform="translate(371,583)"/>
<path d="M0 0 C3.97451907 1.07337879 6.63017588 2.54778316 10.0390625 4.84765625 C10.62888916 5.24114258 11.21871582 5.63462891 11.82641602 6.04003906 C13.76118782 7.33713232 15.68177176 8.65350731 17.6015625 9.97265625 C19.00763146 10.92865174 20.41388479 11.88437612 21.8203125 12.83984375 C28.1330096 17.14569763 34.3927256 21.51831648 40.6015625 25.97265625 C36.71300064 27.24885827 34.62514241 26.3361046 30.87109375 24.796875 C28.47337596 23.92610313 26.17217216 23.42903079 23.6640625 22.97265625 C20.35441678 22.36630894 17.27448046 21.5918513 14.1015625 20.47265625 C11.04229515 19.39417107 8.10955659 18.6502213 4.9140625 18.09765625 C-1.77795141 16.87131563 -8.05359232 14.36797244 -14.3984375 11.97265625 C-12.91239363 8.48949523 -10.96010495 6.24844299 -8.2109375 3.66015625 C-7.47488281 2.94214844 -6.73882812 2.22414063 -5.98046875 1.484375 C-3.3984375 -0.02734375 -3.3984375 -0.02734375 0 0 Z " fill="#8E7E79" transform="translate(413.3984375,432.02734375)"/>
<path d="M0 0 C1.04285156 -0.00257813 2.08570313 -0.00515625 3.16015625 -0.0078125 C5.9375 0.125 5.9375 0.125 8.9375 1.125 C8.6075 4.425 8.2775 7.725 7.9375 11.125 C5.66867913 11.96419398 3.39772973 12.79651724 1.125 13.625 C0.48240234 13.86347656 -0.16019531 14.10195313 -0.82226562 14.34765625 C-3.71183739 15.39568746 -5.96326061 16.125 -9.0625 16.125 C-9.0625 16.785 -9.0625 17.445 -9.0625 18.125 C-11.83191606 18.96330973 -14.60285069 19.79582034 -17.375 20.625 C-18.16068359 20.86347656 -18.94636719 21.10195313 -19.75585938 21.34765625 C-20.51318359 21.57324219 -21.27050781 21.79882812 -22.05078125 22.03125 C-23.09552612 22.34545898 -23.09552612 22.34545898 -24.16137695 22.66601562 C-26.0625 23.125 -26.0625 23.125 -29.0625 23.125 C-29.0625 23.785 -29.0625 24.445 -29.0625 25.125 C-34.0125 26.61 -34.0125 26.61 -39.0625 28.125 C-36.99697569 23.99395138 -34.5318557 21.21036969 -31.3125 18 C-30.744104 17.43249023 -30.17570801 16.86498047 -29.59008789 16.28027344 C-25.47615837 12.27692437 -21.16728695 8.71390528 -16.5 5.375 C-15.91702148 4.95718262 -15.33404297 4.53936523 -14.73339844 4.10888672 C-9.5857079 0.55653001 -6.16803519 -0.01528633 0 0 Z " fill="#7A6D68" transform="translate(567.0625,426.875)"/>
<path d="M0 0 C1.92960571 0.24447876 1.92960571 0.24447876 3.89819336 0.49389648 C8.8247557 1.03915505 13.67670329 1.12850688 18.62890625 1.09765625 C19.94156715 1.09553383 19.94156715 1.09553383 21.28074646 1.09336853 C24.04136762 1.08782719 26.80190388 1.07528612 29.5625 1.0625 C31.44856653 1.0574774 33.33463434 1.05291583 35.22070312 1.04882812 C39.81383417 1.03787707 44.40690275 1.02065384 49 1 C49.99 4.3 50.98 7.6 52 11 C34.12176642 13.64135075 16.8060602 13.08239361 -1 10 C-1.125 2.25 -1.125 2.25 0 0 Z " fill="#605A57" transform="translate(380,726)"/>
<path d="M0 0 C-1.15166553 8.78144963 -5.00735705 15.87166387 -11.91796875 21.5859375 C-17.14389367 24.62451653 -23.12111053 25.16353021 -29 24 C-33.90288912 21.3646971 -36.15266914 18.18843644 -38 13 C-30.02317812 9.40167316 -21.94793651 6.61187652 -13.58862305 4.05615234 C-0.33569912 0 -0.33569912 0 0 0 Z " fill="#FAEBE6" transform="translate(565,474)"/>
<path d="M0 0 C3.28512984 0.42388772 5.92341829 1.38971486 8.875 2.8125 C15.3046276 5.77422126 22.15946133 7.2936572 29 9 C30.21816406 9.32677734 30.21816406 9.32677734 31.4609375 9.66015625 C35.96426775 10.86163764 40.37676219 11.50465309 45 12 C45.09765625 18.15234375 45.09765625 18.15234375 45 20 C43.3319093 21.6680907 41.35040027 21.17145582 39.0625 21.1875 C27.43741504 21.05284651 14.90999604 18.14094837 5 12 C3.57887565 11.39732423 2.14176366 10.83011927 0.6875 10.3125 C-1.1378125 9.6628125 -1.1378125 9.6628125 -3 9 C-2.44271087 5.65626525 -1.64826111 2.96687001 0 0 Z " fill="#766E6B" transform="translate(333,626)"/>
<path d="M0 0 C6.85618326 1.92556636 13.43252132 4.2472483 20 7 C19.6875 8.9375 19.6875 8.9375 19 11 C18.01 11.33 17.02 11.66 16 12 C15.67 12.66 15.34 13.32 15 14 C13.02 14 11.04 14 9 14 C9.34227572 16.97065509 9.34227572 16.97065509 10 20 C10.66 20.33 11.32 20.66 12 21 C7.47058824 33.76470588 7.47058824 33.76470588 3 36 C-0.0625 36.125 -0.0625 36.125 -3 36 C-4 35 -4 35 -4.15234375 31.8828125 C-4.00112299 28.02862175 -3.41053194 24.63230898 -2.5625 20.875 C-1.06262233 13.94166917 -0.34679584 7.09137695 0 0 Z " fill="#3B3837" transform="translate(322,576)"/>
<path d="M0 0 C4.96178682 -0.53162002 7.97497697 -0.47072077 12.125 2.4375 C13.45550629 3.58131469 14.74778253 4.77097175 16 6 C16.60585938 6.58394531 17.21171875 7.16789063 17.8359375 7.76953125 C23.94766536 15.04334821 22.57695851 24.08728275 22 33 C21.93039062 34.46179688 21.93039062 34.46179688 21.859375 35.953125 C21.51655735 40.53441547 20.53348129 44.15286174 18 48 C15.02919589 50.10831259 13.80885177 50 10 50 C10.45294454 45.8480084 10.99446892 41.91230899 12.0625 37.875 C14.00252393 29.53579264 13.59654681 20.38187075 12 12 C11.34 12 10.68 12 10 12 C9.566875 11.2575 9.13375 10.515 8.6875 9.75 C6.47869827 6.15047125 3.77115628 3.88557814 0 2 C0 1.34 0 0.68 0 0 Z " fill="#BCB8B5" transform="translate(507,584)"/>
<path d="M0 0 C6.2637407 2.97870974 10.4380348 6.5393921 13 13 C13.62654482 17.33699207 13.49545962 21.25681056 11 25 C4.91267324 25.41981564 1.79173689 25.16672773 -3 21 C-8.01867015 15.15859704 -10.56856859 10.95996031 -10 3 C-7.75674765 -1.09063665 -4.23209347 -0.61433615 0 0 Z " fill="#9C9590" transform="translate(495,278)"/>
<path d="M0 0 C11.15358223 1.27087294 11.15358223 1.27087294 15.04296875 5.484375 C17.94291092 9.73071889 17.88794975 13.01288198 17.79296875 18.046875 C13.2359645 17.52202808 10.60009475 15.73180197 6.98046875 12.984375 C6.00464844 12.25089844 5.02882813 11.51742187 4.0234375 10.76171875 C2.91935547 9.91287109 2.91935547 9.91287109 1.79296875 9.046875 C3.77104195 13.56818517 6.99856621 16.91880483 10.2109375 20.609375 C11.79296875 23.046875 11.79296875 23.046875 11.53125 25.359375 C11.28761719 25.91625 11.04398437 26.473125 10.79296875 27.046875 C8.5859375 27.80078125 8.5859375 27.80078125 5.79296875 28.046875 C3.40625 26.38671875 3.40625 26.38671875 1.10546875 23.984375 C0.33847656 23.20964844 -0.42851562 22.43492187 -1.21875 21.63671875 C-4.74550747 17.04292661 -5.55434333 12.9870585 -4.95703125 7.296875 C-4.869375 6.35328125 -4.78171875 5.4096875 -4.69140625 4.4375 C-4.05536395 1.29832347 -3.3147571 0.07040192 0 0 Z " fill="#C8B2AA" transform="translate(361.20703125,662.953125)"/>
<path d="M0 0 C-0.67804688 0.51046875 -1.35609375 1.0209375 -2.0546875 1.546875 C-12.56583333 9.75779778 -20.59292875 19.22765769 -27 31 C-28.25127906 27.45332822 -27.72285053 25.27746562 -26.5625 21.75 C-26.27503906 20.85796875 -25.98757813 19.9659375 -25.69140625 19.046875 C-25.46324219 18.37140625 -25.23507812 17.6959375 -25 17 C-25.66 17.33 -26.32 17.66 -27 18 C-30.71115662 18.41235074 -32.48937977 18.32062201 -35.6875 16.3125 C-39.28000846 12.71999154 -40.87673604 10.45451472 -41.3125 5.3125 C-41 2 -41 2 -39 0 C-35.1084828 -0.53066144 -33.2843598 -0.15611911 -29.8125 1.75 C-25.39805825 5.2815534 -25.39805825 5.2815534 -24 8 C-23.8125 11.75 -23.8125 11.75 -24 15 C-23.34 15 -22.68 15 -22 15 C-21.75507813 14.4225 -21.51015625 13.845 -21.2578125 13.25 C-17.78103579 7.03067271 -7.41991237 -2.47330412 0 0 Z " fill="#7E7874" transform="translate(325,300)"/>
<path d="M0 0 C2.91691481 8.19080097 4.62867565 15.28585694 4 24 C-1.37330889 27.39366878 -5.86946489 27.32712342 -12 27 C-12.27263672 25.87464844 -12.27263672 25.87464844 -12.55078125 24.7265625 C-14.01271489 18.77386859 -15.57980618 12.89691302 -17.44921875 7.05859375 C-18 5 -18 5 -18 2 C-15.69 2 -13.38 2 -11 2 C-9.02 6.95 -7.04 11.9 -5 17 C-4.91558801 11.51322045 -5.07962623 6.40719589 -6 1 C-3 0 -3 0 0 0 Z " fill="#948D8A" transform="translate(497,695)"/>
<path d="M0 0 C1.00109515 3.31070838 1.10356134 6.30084769 1.0625 9.75 C1.05347656 10.73484375 1.04445313 11.7196875 1.03515625 12.734375 C1.02355469 13.48203125 1.01195312 14.2296875 1 15 C-13.66423358 22.5939781 -13.66423358 22.5939781 -20 22 C-21.59951449 16.40169927 -22.09777722 11.81774472 -22 6 C-19.08666921 4.99009308 -16.16884681 3.99384048 -13.25 3 C-12.0125 2.57074219 -12.0125 2.57074219 -10.75 2.1328125 C-9.95078125 1.86210938 -9.1515625 1.59140625 -8.328125 1.3125 C-7.5949707 1.06113281 -6.86181641 0.80976562 -6.10644531 0.55078125 C-4 0 -4 0 0 0 Z " fill="#78716D" transform="translate(533,658)"/>
<path d="M0 0 C30.195 0.495 30.195 0.495 61 1 C59.9563478 5.1746088 59.84955499 5.51796118 56.62109375 7.796875 C55.94755859 8.28027344 55.27402344 8.76367188 54.58007812 9.26171875 C53.87302734 9.75285156 53.16597656 10.24398437 52.4375 10.75 C51.72658203 11.25660156 51.01566406 11.76320313 50.28320312 12.28515625 C48.52898568 13.53312303 46.76536641 14.76785497 45 16 C42.73343156 13.09382458 41.25566905 10.47723736 40 7 C39.34 7.165 38.68 7.33 38 7.5 C34.17960389 8.13673268 30.87775872 8.25427926 27 8 C25 5 25 5 25 2 C24.01 2.33 23.02 2.66 22 3 C14.4843253 3.36366168 7.39719017 2.28050278 0 1 C0 0.67 0 0.34 0 0 Z " fill="#8B837E" transform="translate(406,697)"/>
<path d="M0 0 C3.82515775 1.50274054 5.79933082 3.54730897 8 7 C10.45877307 20.92174268 4.94480572 34.67003257 -1 47 C-3.11267419 43.83098872 -3.25555564 43.0241774 -3.265625 39.39453125 C-3.26820313 38.49283203 -3.27078125 37.59113281 -3.2734375 36.66210938 C-3.26570312 35.72173828 -3.25796875 34.78136719 -3.25 33.8125 C-3.25773438 32.89146484 -3.26546875 31.97042969 -3.2734375 31.02148438 C-3.26146699 26.80487213 -3.11872402 22.90882873 -2.0234375 18.82421875 C-0.92585701 14.72295425 -0.6017365 11.23241467 -0.375 7 C-0.33632813 6.32066406 -0.29765625 5.64132812 -0.2578125 4.94140625 C-0.16503704 3.29464183 -0.08151002 1.64736045 0 0 Z " fill="#A8A19C" transform="translate(593,420)"/>
<path d="M0 0 C11.05772261 7.18222892 24.54197863 9.12624852 37.39648438 6.72265625 C41.75452942 5.73531828 45.99417458 4.43093507 50.265625 3.12109375 C51.92724375 2.76344586 53.59241986 2.41988038 55.265625 2.12109375 C50.06020654 8.40349533 42.29436084 11.94875622 34.265625 13.12109375 C21.28843504 14.20941435 9.4171284 12.96314735 -1.16015625 4.5390625 C-2.43439453 3.34216797 -2.43439453 3.34216797 -3.734375 2.12109375 C-3.734375 1.46109375 -3.734375 0.80109375 -3.734375 0.12109375 C-4.45625 0.47171875 -5.178125 0.82234375 -5.921875 1.18359375 C-9.0466455 2.22518392 -10.61599496 2.01205947 -13.734375 1.12109375 C-13.404375 0.13109375 -13.074375 -0.85890625 -12.734375 -1.87890625 C-7.60135136 -3.19882661 -4.43138664 -3.04499568 0 0 Z " fill="#2A2724" transform="translate(470.734375,537.87890625)"/>
<path d="M0 0 C2.95906404 0.64262502 5.91723516 1.2889461 8.875 1.9375 C9.71675781 2.11990234 10.55851562 2.30230469 11.42578125 2.49023438 C12.23144531 2.66748047 13.03710938 2.84472656 13.8671875 3.02734375 C14.61081543 3.18968506 15.35444336 3.35202637 16.12060547 3.51928711 C18 4 18 4 20 5 C19.41673473 8.96193606 18.20102022 11.77394436 16.125 15.1875 C15.61195313 16.04730469 15.09890625 16.90710938 14.5703125 17.79296875 C13 20 13 20 10 22 C8.9790625 21.319375 8.9790625 21.319375 7.9375 20.625 C4.69564814 18.83163514 1.5796559 17.91246131 -2 17 C-1.50886719 15.95779297 -1.50886719 15.95779297 -1.0078125 14.89453125 C0.12662831 11.63631172 0.20056055 9.12550498 0.125 5.6875 C0.10695313 4.61886719 0.08890625 3.55023438 0.0703125 2.44921875 C0.04710937 1.64097656 0.02390625 0.83273437 0 0 Z " fill="#D6CAC6" transform="translate(446,475)"/>
<path d="M0 0 C0.60621509 12.41618309 0.60621509 12.41618309 -3 18 C-7.21656307 20.38673381 -11.21136953 21.41602067 -16 22 C-17.5912689 17.126739 -18.21192221 13.19209404 -18 8 C-19.32 7.67 -20.64 7.34 -22 7 C-19.93242184 6.31080728 -17.86478221 5.62179854 -15.796875 4.93359375 C-13.78543356 4.26217685 -11.7751526 3.58727968 -9.765625 2.91015625 C-8.14914062 2.36681641 -8.14914062 2.36681641 -6.5 1.8125 C-5.4790625 1.46832031 -4.458125 1.12414062 -3.40625 0.76953125 C-1 0 -1 0 0 0 Z " fill="#95BDD5" transform="translate(568,456)"/>
<path d="M0 0 C0.85980469 0.11214844 1.71960938 0.22429688 2.60546875 0.33984375 C4.15427734 0.52546875 4.15427734 0.52546875 5.734375 0.71484375 C6.34684082 0.79992187 6.95930664 0.885 7.59033203 0.97265625 C10.28937283 1.3460106 12.99203013 1.68607408 15.6953125 2.02734375 C21.39783966 2.75321609 27.09619978 3.50768622 32.79296875 4.27734375 C32.79296875 4.60734375 32.79296875 4.93734375 32.79296875 5.27734375 C26.67811848 5.37440487 20.85993574 5.04775226 14.79296875 4.27734375 C15.45296875 4.93734375 16.11296875 5.59734375 16.79296875 6.27734375 C16.41796875 8.90234375 16.41796875 8.90234375 15.79296875 11.27734375 C15.13296875 11.27734375 14.47296875 11.27734375 13.79296875 11.27734375 C13.79296875 11.93734375 13.79296875 12.59734375 13.79296875 13.27734375 C15.11296875 13.60734375 16.43296875 13.93734375 17.79296875 14.27734375 C14.62802485 15.82878684 13.2485589 16.46191533 9.79296875 16.27734375 C3.92826253 13.15869997 -1.67265396 9.16174314 -6.20703125 4.27734375 C-2.88775414 0.36288592 -2.88775414 0.36288592 0 0 Z " fill="#98918D" transform="translate(386.20703125,694.72265625)"/>
<path d="M0 0 C3.96 0.33 7.92 0.66 12 1 C12 6.94 12 12.88 12 19 C13.32 19.33 14.64 19.66 16 20 C13.91673869 20.02709444 11.83337559 20.04643873 9.75 20.0625 C8.00976562 20.07990234 8.00976562 20.07990234 6.234375 20.09765625 C3 20 3 20 -1 19 C-0.67 12.73 -0.34 6.46 0 0 Z " fill="#504B48" transform="translate(402,667)"/>
<path d="M0 0 C3.21849742 2.15224674 6.25041811 4.50083623 8 8 C8.16796875 9.875 8.16796875 9.875 8.1875 12 C8.20167969 12.70125 8.21585937 13.4025 8.23046875 14.125 C8 16 8 16 6 18 C2.70103265 18.44409176 0.17648862 18.66642057 -2.79296875 16.984375 C-4.4375 15.6875 -4.4375 15.6875 -7 13 C-7 12.01 -7 11.02 -7 10 C-7.66 10 -8.32 10 -9 10 C-9.36103152 3.6217765 -9.36103152 3.6217765 -7.875 1.0625 C-4.94344371 -0.59871523 -3.33317216 -0.57689518 0 0 Z " fill="#7E7874" transform="translate(326,469)"/>
<path d="M0 0 C4.26249305 0.43347387 5.77460812 1.29076153 8.6875 4.375 C9.5 6.625 9.5 6.625 9.6875 8.375 C10.3475 8.375 11.0075 8.375 11.6875 8.375 C12.04853152 14.7532235 12.04853152 14.7532235 10.5625 17.3125 C7.63094371 18.97371523 6.02067216 18.95189518 2.6875 18.375 C-0.53099742 16.22275326 -3.56291811 13.87416377 -5.3125 10.375 C-5.48046875 8.5 -5.48046875 8.5 -5.5 6.375 C-5.51417969 5.67375 -5.52835937 4.9725 -5.54296875 4.25 C-5.09555451 0.61001977 -3.39116052 0.38390496 0 0 Z " fill="#7E7874" transform="translate(321.3125,343.625)"/>
<path d="M0 0 C2.64 0 5.28 0 8 0 C8 2.64 8 5.28 8 8 C12.14702377 7.97698855 16.29136151 7.89938845 20.4375 7.8125 C21.60216797 7.80669922 22.76683594 7.80089844 23.96679688 7.79492188 C30.72711804 7.62353345 35.51141033 6.90679077 41.21508789 3.1628418 C43 2 43 2 46 1 C47.32 3.31 48.64 5.62 50 8 C41.83078612 11.14200534 33.40033571 11.16964278 24.75 11.125 C23.38161987 11.12209961 23.38161987 11.12209961 21.9855957 11.11914062 C14.95136807 11.07438809 7.99982085 10.72725411 1 10 C0.67 6.7 0.34 3.4 0 0 Z " fill="#45413E" transform="translate(465,726)"/>
<path d="M0 0 C1.79244141 0.23009766 1.79244141 0.23009766 3.62109375 0.46484375 C10.08534064 1.1830934 16.56549882 1.35180512 23.0625 1.5625 C24.93325195 1.62727539 24.93325195 1.62727539 26.84179688 1.69335938 C29.89444091 1.79862296 32.94715523 1.90075941 36 2 C36 2.33 36 2.66 36 3 C31.05 3 26.1 3 21 3 C21 5.97 21 8.94 21 12 C18.08302989 11.85895309 15.1665198 11.71235186 12.25 11.5625 C11.0125 11.50352539 11.0125 11.50352539 9.75 11.44335938 C8.95078125 11.40146484 8.1515625 11.35957031 7.328125 11.31640625 C6.5949707 11.27974854 5.86181641 11.24309082 5.10644531 11.20532227 C2.98822395 10.99885215 1.0480544 10.56867914 -1 10 C-1.125 2.25 -1.125 2.25 0 0 Z " fill="#484441" transform="translate(380,726)"/>
<path d="M0 0 C4.34167968 0.58445688 6.15862991 2.41638832 9.25 5.4375 C11.97286806 9.52180208 11.63524534 11.58340877 11.25 16.4375 C7.73175489 18.78299674 6.39224306 19.01741403 2.25 18.4375 C-1.21460974 15.61746882 -3.94791634 12.54224612 -5.75 8.4375 C-5.4735867 3.7384739 -5.08899162 0.8096123 0 0 Z " fill="#7D7773" transform="translate(276.75,359.5625)"/>
<path d="M0 0 C3.64092727 1.21030824 7.01732933 2.55963309 10 5 C10.77734375 7.67578125 10.77734375 7.67578125 11 10 C6.3028839 13.13141073 1.49554455 12.69881616 -4 12 C-7.27550265 10.68337639 -10.12160603 9.03522806 -13 7 C-13.1875 4.625 -13.1875 4.625 -13 2 C-8.68823011 -0.87451326 -5.0594589 -0.6963862 0 0 Z " fill="#C1BDBA" transform="translate(459,590)"/>
<path d="M0 0 C0 0.99 0 1.98 0 3 C-1.80078125 4.76953125 -1.80078125 4.76953125 -4.3125 6.8125 C-15.27498127 16.39692925 -22.86896544 28.42825018 -30 41 C-31.77036476 35.70119993 -29.9139044 31.05349415 -28 26 C-21.98992606 14.42905868 -12.68223441 4.22741147 0 0 Z " fill="#2C2A27" transform="translate(369,254)"/>
<path d="M0 0 C1.86593603 4.39734576 2.22184652 8.1295203 2.125 12.875 C2.10695313 14.02742187 2.08890625 15.17984375 2.0703125 16.3671875 C2.04710937 17.23601563 2.02390625 18.10484375 2 19 C-0.33984375 19.625 -0.33984375 19.625 -3 20 C-8.38501571 15.79706091 -11.01939638 10.00059847 -14 4 C-12.75264433 3.3490741 -11.50198168 2.70448331 -10.25 2.0625 C-9.55390625 1.70285156 -8.8578125 1.34320312 -8.140625 0.97265625 C-2.85659656 -1.42829828 -2.85659656 -1.42829828 0 0 Z " fill="#282625" transform="translate(544,576)"/>
<path d="M0 0 C17.82564795 -0.65130248 29.90781973 0.26129877 43.578125 12.44140625 C46 15 46 15 46 18 C44.98421875 17.46890625 43.9684375 16.9378125 42.921875 16.390625 C28.63543593 9.01450284 14.72790447 5.09293519 -1 2 C-0.67 1.34 -0.34 0.68 0 0 Z " fill="#2E2C29" transform="translate(511,314)"/>
<path d="M0 0 C5.64661947 15.85590913 5.64661947 15.85590913 4 24 C0.77208445 26.1519437 -0.28400809 26.20086443 -4 26 C-4.09087891 24.17275391 -4.09087891 24.17275391 -4.18359375 22.30859375 C-4.26806403 20.68488723 -4.35270872 19.06118978 -4.4375 17.4375 C-4.49647461 16.23770508 -4.49647461 16.23770508 -4.55664062 15.01367188 C-4.80748156 10.28628494 -5.25321814 5.67523099 -6 1 C-3 0 -3 0 0 0 Z " fill="#9D9793" transform="translate(497,695)"/>
<path d="M0 0 C6.44585225 0.83172287 12.26516986 4.10007456 18 7 C17.01 8.485 17.01 8.485 16 10 C15.83300768 13.12521833 15.83300768 13.12521833 16 16 C9.38465328 14.34616332 3.25411591 11.69060487 -3 9 C-2.38550003 5.66177043 -1.65439171 2.97790508 0 0 Z " fill="#665F5C" transform="translate(333,626)"/>
<path d="M0 0 C5.45769811 -0.11138159 10.61509359 0.08342019 16 1 C16.33 2.32 16.66 3.64 17 5 C20.38849195 6.01795685 23.52390509 6.15427135 27.05371094 6.20532227 C28.27467468 6.22526749 29.49563843 6.24521271 30.75360107 6.26576233 C32.06725647 6.28247482 33.38091187 6.29918732 34.734375 6.31640625 C36.09629936 6.33698919 37.45821752 6.35798601 38.82012939 6.37937927 C42.39734872 6.43446165 45.97462438 6.48393164 49.55194092 6.53222656 C53.20525094 6.58254289 56.85847958 6.63817597 60.51171875 6.69335938 C67.67441017 6.80077162 74.83716946 6.90225385 82 7 C82 7.33 82 7.66 82 8 C73.94905331 8.04679827 65.89816555 8.08210611 57.84711552 8.10362434 C54.1067676 8.11396352 50.36651423 8.12793676 46.6262207 8.15087891 C14.81810844 8.34106813 14.81810844 8.34106813 1 6 C0.67 4.02 0.34 2.04 0 0 Z " fill="#706A67" transform="translate(392,650)"/>
<path d="M0 0 C-0.67804688 0.51046875 -1.35609375 1.0209375 -2.0546875 1.546875 C-12.56583333 9.75779778 -20.59292875 19.22765769 -27 31 C-28.8579272 25.79780385 -26.22889187 21.72886519 -24 17 C-20.19485922 9.953443 -8.92585036 -2.97528345 0 0 Z " fill="#282624" transform="translate(325,300)"/>
<path d="M0 0 C0 0.33 0 0.66 0 1 C-4.30658437 0.61548354 -7.49547565 0.20984641 -11.53125 -1.46875 C-16.88073892 -3.54473631 -22.31920397 -3.80001141 -28 -4.1875 C-29.06089844 -4.26935547 -30.12179687 -4.35121094 -31.21484375 -4.43554688 C-33.80929871 -4.63422135 -36.40405173 -4.82210345 -39 -5 C-37 -8 -37 -8 -34.125 -8.6875 C-20.6911421 -10.00289859 -10.76489331 -8.4999394 0 0 Z " fill="#363431" transform="translate(489,264)"/>
<path d="M0 0 C-0.11458693 1.43836751 -0.24209116 2.87570966 -0.375 4.3125 C-0.44460938 5.11300781 -0.51421875 5.91351562 -0.5859375 6.73828125 C-1 9 -1 9 -3 12 C-9.93 11.505 -9.93 11.505 -17 11 C-17.33 9.02 -17.66 7.04 -18 5 C-16.68 5 -15.36 5 -14 5 C-14 4.34 -14 3.68 -14 3 C-12.23050388 2.49528803 -10.45934777 1.99639315 -8.6875 1.5 C-7.70136719 1.2215625 -6.71523438 0.943125 -5.69921875 0.65625 C-3 0 -3 0 0 0 Z " fill="#9A9591" transform="translate(527,688)"/>
<path d="M0 0 C9.19012194 -0.36706108 17.19353881 0.29031963 26 3 C25 5 25 5 21.5078125 6.32421875 C20.04943443 6.78679388 18.58833811 7.24086376 17.125 7.6875 C16.39152344 7.92533203 15.65804688 8.16316406 14.90234375 8.40820312 C9.37469059 10.12489686 9.37469059 10.12489686 6 9 C4.59886384 7.04690112 3.26660533 5.04291182 2 3 C1.34 2.01 0.68 1.02 0 0 Z " fill="#B89D93" transform="translate(384,577)"/>
<path d="M0 0 C30.195 0.495 30.195 0.495 61 1 C60.67 1.99 60.34 2.98 60 4 C60 3.34 60 2.68 60 2 C51.75 2 43.5 2 35 2 C35 3.98 35 5.96 35 8 C33.72125 8.061875 32.4425 8.12375 31.125 8.1875 C30.40570313 8.22230469 29.68640625 8.25710938 28.9453125 8.29296875 C28.30335938 8.19628906 27.66140625 8.09960938 27 8 C25 5 25 5 25 2 C24.01 2.33 23.02 2.66 22 3 C14.4843253 3.36366168 7.39719017 2.28050278 0 1 C0 0.67 0 0.34 0 0 Z " fill="#5C5754" transform="translate(406,697)"/>
<path d="M0 0 C1.62566606 0.47690204 3.25051311 0.95659666 4.875 1.4375 C6.23238281 1.83775391 6.23238281 1.83775391 7.6171875 2.24609375 C10 3 10 3 12 4 C11.67 4.99 11.34 5.98 11 7 C7.9453125 8.16796875 7.9453125 8.16796875 4.125 9.1875 C2.86945312 9.53167969 1.61390625 9.87585938 0.3203125 10.23046875 C-3 11 -3 11 -6 11 C-6 11.66 -6 12.32 -6 13 C-8.31 13.33 -10.62 13.66 -13 14 C-8.88380164 9.08064098 -4.59589638 4.47352044 0 0 Z " fill="#8F7F7A" transform="translate(544,439)"/>
<path d="M0 0 C2.8550776 0.25622491 3.8953832 0.89325684 5.921875 2.9609375 C6.52515625 3.75757813 7.1284375 4.55421875 7.75 5.375 C8.36359375 6.16648437 8.9771875 6.95796875 9.609375 7.7734375 C11 10 11 10 11 13 C11.66 13 12.32 13 13 13 C13 14.32 13 15.64 13 17 C8.85560964 17.34053557 6.92743629 16.73664009 3.75 14.0625 C-0.03790317 10.57420499 -0.9453804 7.88902259 -1.16015625 2.8203125 C-1 1 -1 1 0 0 Z " fill="#7E7874" transform="translate(437,320)"/>
<path d="M0 0 C2.08349066 2.67336204 3.64225156 5.51195828 5.25390625 8.4921875 C5.888125 9.64847656 6.52234375 10.80476563 7.17578125 11.99609375 C7.83320313 13.44822266 7.83320313 13.44822266 8.50390625 14.9296875 C8.17390625 15.5896875 7.84390625 16.2496875 7.50390625 16.9296875 C6.51390625 16.5996875 5.52390625 16.2696875 4.50390625 15.9296875 C4.17390625 17.5796875 3.84390625 19.2296875 3.50390625 20.9296875 C-0.29198241 20.38741769 -1.96821368 18.72841187 -4.49609375 15.9296875 C-1.85609375 16.5896875 0.78390625 17.2496875 3.50390625 17.9296875 C3.50390625 16.6096875 3.50390625 15.2896875 3.50390625 13.9296875 C2.84390625 13.9296875 2.18390625 13.9296875 1.50390625 13.9296875 C0.92640625 12.8778125 0.34890625 11.8259375 -0.24609375 10.7421875 C-2.54938644 6.70734144 -5.20645305 3.2193282 -8.49609375 -0.0703125 C-1.98672626 -1.4213133 -1.98672626 -1.4213133 0 0 Z " fill="#938C88" transform="translate(446.49609375,319.0703125)"/>
<path d="M0 0 C3 0.25 3 0.25 5 2.25 C5.33870968 8.57258065 5.33870968 8.57258065 4 11.25 C-2.0546875 11.4453125 -2.0546875 11.4453125 -4 11.25 C-4.66 10.59 -5.32 9.93 -6 9.25 C-5.37125749 0.44760479 -5.37125749 0.44760479 0 0 Z " fill="#C1BDBA" transform="translate(507,616.75)"/>
<path d="M0 0 C0.66 0 1.32 0 2 0 C3.32 2.31 4.64 4.62 6 7 C1.59825215 8.68490746 -2.00772175 9.23846127 -6.7109375 9.1953125 C-7.95488281 9.18886719 -9.19882812 9.18242188 -10.48046875 9.17578125 C-11.76566406 9.15902344 -13.05085938 9.14226563 -14.375 9.125 C-15.68339844 9.11597656 -16.99179687 9.10695313 -18.33984375 9.09765625 C-21.5600837 9.07415085 -24.77994707 9.04129087 -28 9 C-28 8.67 -28 8.34 -28 8 C-26.80503906 7.91363281 -25.61007812 7.82726562 -24.37890625 7.73828125 C-11.10094128 6.82889383 -11.10094128 6.82889383 0 0 Z " fill="#5D5754" transform="translate(509,727)"/>
<path d="M0 0 C1.32 0 2.64 0 4 0 C4.95278709 3.2425496 5.19541781 6.25000153 5.25 9.625 C5.28867187 11.06746094 5.28867187 11.06746094 5.328125 12.5390625 C5.21984375 13.35117187 5.1115625 14.16328125 5 15 C2 17 2 17 -1 17 C-1.96328543 13.74794841 -2.16468233 10.76114248 -2.1875 7.375 C-2.20167969 6.41335938 -2.21585938 5.45171875 -2.23046875 4.4609375 C-2 2 -2 2 0 0 Z " fill="#9E948F" transform="translate(529,658)"/>
<path d="M0 0 C2.72869407 0.03287583 5.2966618 0.56397771 8 1 C8.625 4.375 8.625 4.375 9 8 C7 10 7 10 4.8359375 10.1953125 C3.61777344 10.16050781 3.61777344 10.16050781 2.375 10.125 C1.55773437 10.10695313 0.74046875 10.08890625 -0.1015625 10.0703125 C-0.72804688 10.04710937 -1.35453125 10.02390625 -2 10 C-2.1953125 3.9453125 -2.1953125 3.9453125 -2 2 C-1.34 1.34 -0.68 0.68 0 0 Z " fill="#B4AFAC" transform="translate(407,602)"/>
<path d="M0 0 C1.02867187 -0.02416992 1.02867187 -0.02416992 2.078125 -0.04882812 C6.79605034 -0.05332996 9.95808441 0.91892811 14 3.3125 C14 3.6425 14 3.9725 14 4.3125 C4.76 4.3125 -4.48 4.3125 -14 4.3125 C-14 3.6525 -14 2.9925 -14 2.3125 C-9.28683636 0.46405614 -5.01278456 -0.02355632 0 0 Z " fill="#494644" transform="translate(428,228.6875)"/>
<path d="M0 0 C0.33 0 0.66 0 1 0 C0.19148936 18.34042553 0.19148936 18.34042553 -2 27 C-4.55405195 24.44594805 -4.31020488 22.67501871 -4.37890625 19.18334961 C-4.37761719 18.42159424 -4.37632812 17.65983887 -4.375 16.875 C-4.37628906 16.10615479 -4.37757813 15.33730957 -4.37890625 14.54516602 C-4.27062126 8.75130392 -3.30890199 4.8599498 0 0 Z " fill="#282724" transform="translate(265,393)"/>
<path d="M0 0 C8.76524502 -0.50894971 17.0915722 -0.2352572 25 4 C26.33203125 6.140625 26.33203125 6.140625 27 8 C21.84496189 7.06770587 16.81531068 6.00520104 11.8125 4.4375 C7.85977835 3.20110365 4.11389563 2.44716257 0 2 C0 1.34 0 0.68 0 0 Z " fill="#33302E" transform="translate(466,311)"/>
<path d="M0 0 C3.51104082 1.8978599 6.18963824 3.37927649 8 7 C8.240143 10.01744898 8.17421398 12.98029102 8 16 C4.05879291 15.43697042 1.2491277 14.3208055 -2 12 C-2 11.34 -2 10.68 -2 10 C0.475 10.495 0.475 10.495 3 11 C2.01 7.37 1.02 3.74 0 0 Z " fill="#312D2B" transform="translate(498,510)"/>
<path d="M0 0 C0.33278764 6.81598387 0.24201565 11.92122066 -3 18 C-3.66 18 -4.32 18 -5 18 C-5.30325122 15.7541395 -5.56652522 13.5028531 -5.8125 11.25 C-6.03873047 9.37054688 -6.03873047 9.37054688 -6.26953125 7.453125 C-6 4 -6 4 -3.57421875 1.546875 C-1 0 -1 0 0 0 Z " fill="#C0B8B7" transform="translate(568,456)"/>
<path d="M0 0 C1.98 0 3.96 0 6 0 C5.53444296 6.40140935 3.85288164 11.26769829 1 17 C-2.12500425 12.31249363 -1.38694579 7.37004297 -0.5 1.9375 C-0.335 1.298125 -0.17 0.65875 0 0 Z " fill="#C9BFB9" transform="translate(591,450)"/>
<path d="M0 0 C2.95839355 -0.02689449 5.91654427 -0.04678741 8.875 -0.0625 C9.71675781 -0.07087891 10.55851562 -0.07925781 11.42578125 -0.08789062 C12.23144531 -0.09111328 13.03710938 -0.09433594 13.8671875 -0.09765625 C14.98262939 -0.10551147 14.98262939 -0.10551147 16.12060547 -0.11352539 C18 0 18 0 20 1 C20 2.65 20 4.3 20 6 C15.99799622 7.60080151 12.95443764 6.29279692 9 5 C8.67 3.68 8.34 2.36 8 1 C5.36 1 2.72 1 0 1 C0 0.67 0 0.34 0 0 Z " fill="#4D4642" transform="translate(361,658)"/>
<path d="M0 0 C0 4.62 0 9.24 0 14 C-3.76722356 10.98622115 -6.28676104 8.81863262 -9 5 C-9 4.34 -9 3.68 -9 3 C-3.375 0 -3.375 0 0 0 Z " fill="#3A3736" transform="translate(539,577)"/>
<path d="M0 0 C5.45769811 -0.11138159 10.61509359 0.08342019 16 1 C16.33 2.65 16.66 4.3 17 6 C11.72 5.67 6.44 5.34 1 5 C0.67 3.35 0.34 1.7 0 0 Z " fill="#857B76" transform="translate(392,650)"/>
<path d="M0 0 C6.6 0.6 6.6 0.6 9 3 C8.625 5.625 8.625 5.625 8 8 C2.55263158 9.33157895 2.55263158 9.33157895 0.125 7.875 C-1.33772308 5.43712819 -1.29431219 3.7959658 -1 1 C-0.67 0.67 -0.34 0.34 0 0 Z " fill="#6F6B68" transform="translate(394,698)"/>
<path d="M0 0 C1.06106444 3.18319332 0.96156637 4.01939058 0.125 7.125 C-0.05804687 7.82882812 -0.24109375 8.53265625 -0.4296875 9.2578125 C-1 11 -1 11 -2 12 C-4.33944736 11.71269945 -6.6739143 11.38063221 -9 11 C-9 8.875 -9 8.875 -8 6 C-5.50224217 3.74515308 -2.80198037 1.85734917 0 0 Z " fill="#C7C4C2" transform="translate(526,688)"/>
<path d="M0 0 C1.65 0.33 3.3 0.66 5 1 C5.625 3.8125 5.625 3.8125 6 7 C5.01 8.485 5.01 8.485 4 10 C2.35 9.67 0.7 9.34 -1 9 C-1.625 6.1875 -1.625 6.1875 -2 3 C-1.34 2.01 -0.68 1.02 0 0 Z " fill="#57514E" transform="translate(435,674)"/>
<path d="M0 0 C4.62 0 9.24 0 14 0 C12.02 0.99 12.02 0.99 10 2 C9.30367785 3.95365445 9.30367785 3.95365445 9.25 6.125 C9.1675 7.40375 9.085 8.6825 9 10 C4.9688217 8.6562739 4.19869403 6.54628069 2 3 C1.34 2.01 0.68 1.02 0 0 Z " fill="#7C6861" transform="translate(384,577)"/>
<path d="M0 0 C-0.66 3.96 -1.32 7.92 -2 12 C-3.65 12.33 -5.3 12.66 -7 13 C-7.48765108 5.80714661 -7.48765108 5.80714661 -5.1875 2 C-3 0 -3 0 0 0 Z " fill="#292725" transform="translate(385,307)"/>
<path d="M0 0 C1.93709638 3.25753924 2.23715445 5.65609928 2.1953125 9.421875 C2.18886719 10.44667969 2.18242188 11.47148437 2.17578125 12.52734375 C2.15902344 13.59082031 2.14226563 14.65429688 2.125 15.75 C2.11597656 16.82894531 2.10695313 17.90789062 2.09765625 19.01953125 C2.07411305 21.67991278 2.04122799 24.33984336 2 27 C1.67 27 1.34 27 1 27 C1 25.35 1 23.7 1 22 C0.01 22 -0.98 22 -2 22 C-1.855625 20.96875 -1.71125 19.9375 -1.5625 18.875 C-0.7706178 12.60781804 -0.41593834 6.30102341 0 0 Z " fill="#7D7773" transform="translate(601,428)"/>
<path d="M0 0 C1.1446875 0.3403125 1.1446875 0.3403125 2.3125 0.6875 C2.4375 3.0625 2.4375 3.0625 2.3125 5.6875 C0.3125 7.6875 0.3125 7.6875 -2.3125 7.8125 C-3.09625 7.77125 -3.88 7.73 -4.6875 7.6875 C-5.375 5.375 -5.375 5.375 -5.6875 2.6875 C-4.0011022 -0.12316299 -3.27764429 -0.38112143 0 0 Z " fill="#534E4B" transform="translate(492.6875,675.3125)"/>
<path d="M0 0 C1.41805831 0.28482368 2.83440379 0.57818144 4.25 0.875 C5.03890625 1.03742188 5.8278125 1.19984375 6.640625 1.3671875 C8.96831144 1.99150075 10.89031952 2.84838542 13 4 C11.13758747 6.4832167 10.18111649 6.96917166 7.0625 7.5 C4 7 4 7 1.625 4.625 C0 2 0 2 0 0 Z " fill="#AFDFFD" transform="translate(431,489)"/>
<path d="M0 0 C0.33 0.66 0.66 1.32 1 2 C-0.98 4.97 -0.98 4.97 -3 8 C-4.65 7.67 -6.3 7.34 -8 7 C-8.33 5.68 -8.66 4.36 -9 3 C-6.03 2.01 -3.06 1.02 0 0 Z " fill="#B1DFFC" transform="translate(562,475)"/>
<path d="M0 0 C3.13599692 3.13599692 3.94057051 4.35736889 4.09765625 8.69921875 C4.08605469 9.68535156 4.07445312 10.67148437 4.0625 11.6875 C4.05347656 12.68136719 4.04445313 13.67523437 4.03515625 14.69921875 C4.02355469 15.45847656 4.01195312 16.21773437 4 17 C3.01 17.33 2.02 17.66 1 18 C0.67 12.06 0.34 6.12 0 0 Z " fill="#BCB8B6" transform="translate(497,702)"/>
<path d="M0 0 C0.99 0.33 1.98 0.66 3 1 C3.33 3.31 3.66 5.62 4 8 C2.00045254 8.04254356 -0.00041636 8.04080783 -2 8 C-3 7 -3 7 -3.25 4.5625 C-3.1675 3.716875 -3.085 2.87125 -3 2 C-2.01 1.34 -1.02 0.68 0 0 Z " fill="#4F4B4A" transform="translate(327,591)"/>
<path d="M0 0 C0.66 0.33 1.32 0.66 2 1 C1.731875 1.515625 1.46375 2.03125 1.1875 2.5625 C-0.32349407 5.66401415 -1.65572726 8.82262806 -3 12 C-4.32 11.34 -5.64 10.68 -7 10 C-7 8.02 -7 6.04 -7 4 C-5.02 4 -3.04 4 -1 4 C-0.67 2.68 -0.34 1.36 0 0 Z " fill="#292726" transform="translate(338,586)"/>
<path d="M0 0 C0.66 0.33 1.32 0.66 2 1 C-3.28 6.28 -8.56 11.56 -14 17 C-14.66 16.67 -15.32 16.34 -16 16 C-14.27538679 14.07906479 -12.54557391 12.163278 -10.8125 10.25 C-10.32974609 9.71117187 -9.84699219 9.17234375 -9.34960938 8.6171875 C-6.43837795 5.41287909 -3.47293499 2.6158121 0 0 Z " fill="#908A85" transform="translate(322,301)"/>
<path d="M0 0 C8.57142857 -0.28571429 8.57142857 -0.28571429 12 2 C8.09971775 4.60018816 4.52565431 4.15085514 0 4 C0 2.68 0 1.36 0 0 Z " fill="#C5B0A8" transform="translate(398,579)"/>
<path d="M0 0 C0.33 0.66 0.66 1.32 1 2 C0.34 2.66 -0.32 3.32 -1 4 C-1 3.34 -1 2.68 -1 2 C-1.721875 2.350625 -2.44375 2.70125 -3.1875 3.0625 C-6.3122705 4.10409017 -7.88161996 3.89096572 -11 3 C-10.67 2.01 -10.34 1.02 -10 0 C-6.33291043 -0.94296589 -3.64653273 -1.11421833 0 0 Z " fill="#383330" transform="translate(468,536)"/>
<path d="M0 0 C0.66 2.31 1.32 4.62 2 7 C1.1646875 6.566875 1.1646875 6.566875 0.3125 6.125 C-2.08494645 4.9586747 -4.51596939 3.9660119 -7 3 C-7 2.01 -7 1.02 -7 0 C-4.3333581 -1.33332095 -2.83319697 -0.67102033 0 0 Z " fill="#B19E98" transform="translate(543,645)"/>
<path d="M0 0 C0 1.65 0 3.3 0 5 C-3.75 6.125 -3.75 6.125 -6 5 C-6 4.34 -6 3.68 -6 3 C-6.99 2.67 -7.98 2.34 -9 2 C-9 1.67 -9 1.34 -9 1 C-5.94152152 0.45627049 -3.11227195 0 0 0 Z " fill="#A99790" transform="translate(381,659)"/>
<path d="M0 0 C4.875 2.625 4.875 2.625 6 6 C5.34 6 4.68 6 4 6 C4 7.98 4 9.96 4 12 C0.25 13.125 0.25 13.125 -2 12 C-2 11.34 -2 10.68 -2 10 C0.475 10.495 0.475 10.495 3 11 C2.01 7.37 1.02 3.74 0 0 Z " fill="#5B524E" transform="translate(498,510)"/>
<path d="M0 0 C0.33 0 0.66 0 1 0 C1.05397335 2.4377963 1.09365616 4.87439685 1.125 7.3125 C1.15013672 8.34793945 1.15013672 8.34793945 1.17578125 9.40429688 C1.21217794 13.17135396 1.14378864 14.78431704 -1 18 C-1 14.37 -1 10.74 -1 7 C-2.32 7.99 -3.64 8.98 -5 10 C-3.66654496 6.40992874 -2.1056769 3.20429093 0 0 Z " fill="#91827C" transform="translate(573,488)"/>
<path d="M0 0 C-4.455 2.97 -4.455 2.97 -9 6 C-9.66 5.34 -10.32 4.68 -11 4 C-13.06874034 3.3574765 -13.06874034 3.3574765 -15 3 C-13.06643218 2.30151736 -11.12797702 1.61655186 -9.1875 0.9375 C-8.10855469 0.55464844 -7.02960937 0.17179688 -5.91796875 -0.22265625 C-3 -1 -3 -1 0 0 Z " fill="#4C4541" transform="translate(526,541)"/>
<path d="M0 0 C2.41696872 -0.05411124 4.83271787 -0.09372278 7.25 -0.125 C7.93191406 -0.14175781 8.61382812 -0.15851562 9.31640625 -0.17578125 C13.0608235 -0.21213482 15.82352727 -0.07944349 19 2 C19 2.33 19 2.66 19 3 C12.64780958 2.45118943 6.32126362 1.83488387 0 1 C0 0.67 0 0.34 0 0 Z " fill="#6E6864" transform="translate(406,697)"/>
<path d="M0 0 C0.33 0 0.66 0 1 0 C0.88556397 2.0839403 0.75804453 4.16716493 0.625 6.25 C0.55539062 7.41015625 0.48578125 8.5703125 0.4140625 9.765625 C0.03751692 12.70694334 -0.4774123 14.49949011 -2 17 C-2.33 14.69 -2.66 12.38 -3 10 C-2.67 10 -2.34 10 -2 10 C-1.34 6.7 -0.68 3.4 0 0 Z " fill="#464340" transform="translate(264,403)"/>
<path d="M0 0 C2.47223763 2.47223763 2.58009771 3.96806683 3.1875 7.375 C3.36667969 8.33148437 3.54585938 9.28796875 3.73046875 10.2734375 C3.98745577 12.87310329 3.81960325 14.54700305 3 17 C0.57520264 13.36280395 0.61337423 11.14296518 0.375 6.8125 C0.30023438 5.54019531 0.22546875 4.26789062 0.1484375 2.95703125 C0.09945313 1.98121094 0.05046875 1.00539063 0 0 Z " fill="#64605C" transform="translate(278,521)"/>
<path d="M0 0 C0.99 0 1.98 0 3 0 C3 1.98 3 3.96 3 6 C1.68 6 0.36 6 -1 6 C-1.042721 4.33388095 -1.04063832 2.66617115 -1 1 C-0.67 0.67 -0.34 0.34 0 0 Z " fill="#625D5A" transform="translate(400,619)"/>
<path d="M0 0 C1.98 0.495 1.98 0.495 4 1 C4 2.32 4 3.64 4 5 C2.35 4.67 0.7 4.34 -1 4 C-0.67 2.68 -0.34 1.36 0 0 Z " fill="#BAB6B2" transform="translate(429,592)"/>
<path d="M0 0 C-2.31 1.65 -4.62 3.3 -7 5 C-7 4.34 -7 3.68 -7 3 C-7.66 2.67 -8.32 2.34 -9 2 C-3.375 -1.125 -3.375 -1.125 0 0 Z " fill="#44413E" transform="translate(325,300)"/>
<path d="M0 0 C2.97 0.33 5.94 0.66 9 1 C8.67 2.32 8.34 3.64 8 5 C4.20411134 4.45773019 2.52788007 2.79872437 0 0 Z " fill="#A79F9A" transform="translate(442,335)"/>
<path d="M0 0 C0.99 0.33 1.98 0.66 3 1 C3 2.65 3 4.3 3 6 C2.01 6.33 1.02 6.66 0 7 C0 4.69 0 2.38 0 0 Z " fill="#BEB9B6" transform="translate(413,604)"/>
<path d="M0 0 C1.98 0 3.96 0 6 0 C6.33 0.99 6.66 1.98 7 3 C5.02 3 3.04 3 1 3 C0.67 2.01 0.34 1.02 0 0 Z " fill="#BEBAB7" transform="translate(501,591)"/>
<path d="M0 0 C0.66 0 1.32 0 2 0 C1.71872579 1.48117801 1.42466268 2.95993249 1.125 4.4375 C0.96257813 5.26121094 0.80015625 6.08492188 0.6328125 6.93359375 C0.31957031 7.95646484 0.31957031 7.95646484 0 9 C-0.99 9.495 -0.99 9.495 -2 10 C-3.39195915 5.82412255 -1.82323219 3.86525224 0 0 Z " fill="#DED7D5" transform="translate(563,474)"/>
<path d="M0 0 C0.99 0 1.98 0 3 0 C3 1.65 3 3.3 3 5 C1.68 4.67 0.36 4.34 -1 4 C-0.67 2.68 -0.34 1.36 0 0 Z " fill="#BDB9B6" transform="translate(422,603)"/>
<path d="M0 0 C-1.32 1.32 -2.64 2.64 -4 4 C-4.66 3.67 -5.32 3.34 -6 3 C-7.32860925 2.64830932 -8.66158328 2.31229724 -10 2 C-8.71211992 1.46987262 -7.41953322 0.9511671 -6.125 0.4375 C-5.40570312 0.14746094 -4.68640625 -0.14257812 -3.9453125 -0.44140625 C-2 -1 -2 -1 0 0 Z " fill="#96999D" transform="translate(565,458)"/>
<path d="M0 0 C4.875 1.75 4.875 1.75 6 4 C3.36 3.67 0.72 3.34 -2 3 C-1.34 2.67 -0.68 2.34 0 2 C0 1.34 0 0.68 0 0 Z " fill="#3D3B38" transform="translate(483,261)"/>
<path d="M0 0 C1.65 0 3.3 0 5 0 C5.33 0.99 5.66 1.98 6 3 C4.02 3 2.04 3 0 3 C0 2.01 0 1.02 0 0 Z " fill="#BFBBB8" transform="translate(438,597)"/>
<path d="M0 0 C-0.28875 0.556875 -0.5775 1.11375 -0.875 1.6875 C-2.0413253 4.08494645 -3.0339881 6.51596939 -4 9 C-4.33 9 -4.66 9 -5 9 C-5.36666667 3.5 -5.36666667 3.5 -3.625 1.125 C-2 0 -2 0 0 0 Z " fill="#423C39" transform="translate(509,461)"/>
<path d="M0 0 C0.66 0 1.32 0 2 0 C2.66 1.65 3.32 3.3 4 5 C3.34 5 2.68 5 2 5 C1.67 5.99 1.34 6.98 1 8 C0.67 5.36 0.34 2.72 0 0 Z " fill="#C7B1AA" transform="translate(490,397)"/>
<path d="M0 0 C2.125 0.9375 2.125 0.9375 4 2 C4 2.66 4 3.32 4 4 C0.7 3.34 -2.6 2.68 -6 2 C-4.68 1.67 -3.36 1.34 -2 1 C-1.34 0.67 -0.68 0.34 0 0 Z " fill="#696460" transform="translate(489,315)"/>
</svg>
