<?xml version="1.0" encoding="UTF-8"?>
<svg version="1.1" xmlns="http://www.w3.org/2000/svg" width="900" height="900">
<path d="M0 0 C1.62651427 0.60191173 3.25420173 1.20065911 4.8828125 1.796875 C15.26056685 5.64740004 25.24403424 9.75309404 35 15 C35 15.66 35 16.32 35 17 C36.03060547 17.36738281 36.03060547 17.36738281 37.08203125 17.7421875 C40.50838423 19.21914287 43.56958248 21.09796784 46.6875 23.125 C47.29674316 23.51953369 47.90598633 23.91406738 48.53369141 24.32055664 C53.92095334 27.85952548 59.34249934 31.524936 64 36 C64 36.66 64 37.32 64 38 C64.85658203 38.36738281 64.85658203 38.36738281 65.73046875 38.7421875 C72.96425225 42.75127233 78.74475125 50.68760256 84 57 C84.45842285 57.54994629 84.9168457 58.09989258 85.38916016 58.66650391 C86.97774451 60.58219428 88.55287729 62.50828324 90.125 64.4375 C90.62813721 65.04609863 91.13127441 65.65469727 91.6496582 66.28173828 C94.82127744 70.21506821 97.38066115 74.23593769 99.76269531 78.68969727 C100.99793161 80.99613788 102.29537828 83.25556264 103.61328125 85.515625 C108.57492288 94.15871925 113.00560305 102.80417039 116.5625 112.125 C116.88452393 112.96450195 117.20654785 113.80400391 117.53833008 114.66894531 C119.30551792 119.49037264 120.52878596 124.21305944 121.45678711 129.25878906 C122.79979925 136.03602069 124.69071567 142.70911468 126.43359375 149.39257812 C128.19720394 156.29942059 129.60448276 163.13444987 130.58178711 170.19726562 C130.96071665 172.73673508 131.46045001 175.19300429 132.0625 177.6875 C135.12999349 191.09268809 134.54578447 205.11642167 133 218.6875 C132.18576045 225.84405425 131.86941178 232.86027949 131.9375 240.0625 C132.10925845 261.39041824 131.0648518 281.34845996 122 301 C121.24105945 302.79345086 120.48770499 304.58927034 119.73828125 306.38671875 C111.21879266 326.70280601 100.16220167 344.88096036 85 361 C84.44828125 361.62648438 83.8965625 362.25296875 83.328125 362.8984375 C75.82098769 371.0151287 65.94732258 377.27119588 56 382 C57.22561728 386.49070049 58.45684879 390.97982863 59.703125 395.46484375 C59.91356445 396.224021 60.12400391 396.98319824 60.34082031 397.76538086 C61.01151014 400.03901937 61.7686677 402.26667817 62.5625 404.5 C64.07691078 408.8788106 65.09550443 413.36280189 66.125 417.875 C66.29588135 418.60654297 66.4667627 419.33808594 66.64282227 420.09179688 C68.93832648 430.4587377 69.18146249 440.85374897 69.1875 451.4375 C69.19974609 452.59443359 69.21199219 453.75136719 69.22460938 454.94335938 C69.22654297 456.05388672 69.22847656 457.16441406 69.23046875 458.30859375 C69.23457764 459.30689209 69.23868652 460.30519043 69.24291992 461.33374023 C68.99574369 464.0467167 68.38898247 465.68273547 67 468 C65.02 468 63.04 468 61 468 C60.95875 468.804375 60.9175 469.60875 60.875 470.4375 C58.83676891 478.73601228 52.82872033 485.10778245 46 490 C45.01 490.33 44.02 490.66 43 491 C42.01364595 492.92008715 42.01364595 492.92008715 41.3515625 495.296875 C41.06796875 496.1734375 40.784375 497.05 40.4921875 497.953125 C39.9191668 499.80124581 39.34880437 501.65019317 38.78125 503.5 C37.05921474 508.80573026 35.57482805 512.47702218 31 516 C27.6875 516.8125 27.6875 516.8125 25 517 C25.36446752 520.6446752 25.70073989 523.46382563 27.5 526.6875 C29.73531039 531.62381044 29.74831165 536.63643456 30 542 C17.67101721 547.59447532 5.29601028 548.47782177 -8.06079102 548.33618164 C-10.43215095 548.3125533 -12.80237951 548.31565583 -15.17382812 548.32226562 C-25.28251913 548.30225152 -34.99088806 547.43477276 -45 546 C-45.66 541.05 -46.32 536.1 -47 531 C-49.64 531 -52.28 531 -55 531 C-54.855625 531.66386719 -54.71125 532.32773437 -54.5625 533.01171875 C-54.376875 533.89472656 -54.19125 534.77773438 -54 535.6875 C-53.814375 536.55761719 -53.62875 537.42773438 -53.4375 538.32421875 C-53.01027953 540.93712964 -52.92383799 543.35813038 -53 546 C-55.16567544 546.48362696 -57.33259741 546.96167317 -59.5 547.4375 C-61.30984375 547.83775391 -61.30984375 547.83775391 -63.15625 548.24609375 C-85.66661145 552.66123578 -110.97212771 551.2936778 -133 545 C-132.67 536.09 -132.34 527.18 -132 518 C-132.99 518.33 -133.98 518.66 -135 519 C-139.54399075 519.37245826 -142.06948519 519.41157386 -146.25 517.5625 C-150.45943793 513.6400692 -152.15439484 508.86038888 -153.765625 503.41015625 C-155.42686483 500.1665329 -157.25647693 499.47168275 -160.5 497.875 C-169.40749996 492.98712998 -177.71264338 484.97502575 -180.94921875 475.10546875 C-181.19285156 474.14253906 -181.43648438 473.17960937 -181.6875 472.1875 C-181.93886719 471.21167969 -182.19023437 470.23585938 -182.44921875 469.23046875 C-182.63097656 468.49441406 -182.81273437 467.75835938 -183 467 C-183.6290625 467.2165625 -184.258125 467.433125 -184.90625 467.65625 C-190.51445928 469.48060724 -195.10968596 470.32723967 -201 470 C-203.30857748 465.4103281 -203.31047608 461.3294736 -203.25 456.3125 C-203.23658569 455.04792969 -203.23658569 455.04792969 -203.22290039 453.7578125 C-202.91066347 436.44079685 -199.37638925 420.82338134 -194.83105469 404.12548828 C-193.70654691 399.89636121 -192.712859 395.64333396 -191.75 391.375 C-190.77479141 387.05703035 -189.68546961 382.8589759 -188.1875 378.6875 C-186.8773887 374.70149828 -186.8773887 374.70149828 -188 371 C-190.10156134 368.95397366 -192.17588676 367.10070455 -194.4375 365.25 C-195.07204102 364.71850342 -195.70658203 364.18700684 -196.36035156 363.6394043 C-199.9494484 360.64561875 -203.58730782 357.71578232 -207.25 354.8125 C-223.56791294 341.87529659 -238.43846816 327.05107966 -249 309 C-249.53625 308.13503906 -250.0725 307.27007812 -250.625 306.37890625 C-255.56407701 297.67378302 -257.01560309 288.48036461 -258.56640625 278.72265625 C-258.98036741 276.12327852 -259.42452756 273.53076026 -259.875 270.9375 C-261.88751603 258.97578502 -262.75824093 247.12018798 -263 235 C-263.02191406 233.948125 -263.04382813 232.89625 -263.06640625 231.8125 C-263.30178847 218.38002127 -263.0336944 205.03019895 -262.125 191.625 C-262.04660889 190.46806641 -261.96821777 189.31113281 -261.88745117 188.11914062 C-261.09445302 177.55394179 -259.99509988 167.18404431 -257 157 C-256.43194642 154.65876519 -255.88036257 152.31348426 -255.34375 149.96484375 C-255.04041894 148.64777394 -254.73703185 147.33071703 -254.43359375 146.01367188 C-253.96529183 143.97117772 -253.49793997 141.92847262 -253.03173828 139.88549805 C-252.57575838 137.89052617 -252.11618346 135.89640728 -251.65625 133.90234375 C-251.38619141 132.72148193 -251.11613281 131.54062012 -250.83789062 130.32397461 C-250.03800598 127.15077254 -249.07794763 124.08853132 -248 121 C-247.34 121 -246.68 121 -246 121 C-245.7628125 119.76378906 -245.525625 118.52757812 -245.28125 117.25390625 C-241.76441963 101.51731999 -234.48128388 86.19374929 -225.34912109 72.97167969 C-223.86898198 70.80852306 -222.44234067 68.6153212 -221.01953125 66.4140625 C-215.44963137 57.84029094 -209.66441798 49.76355999 -203 42 C-202.21625 40.96875 -201.4325 39.9375 -200.625 38.875 C-196.52523069 34.38477647 -191.78661916 30.73217552 -187 27 C-186.37867188 26.51273438 -185.75734375 26.02546875 -185.1171875 25.5234375 C-168.79465724 13.30125301 -149.29418862 8.4408031 -129.08911133 9.07202148 C-124.77981928 8.92345994 -122.41728809 6.36740817 -119.3203125 3.640625 C-115.99410456 0.874679 -112.48861569 -1.13930988 -108.625 -3.0625 C-107.59366943 -3.57792358 -107.59366943 -3.57792358 -106.54150391 -4.10375977 C-99.28278068 -7.57657684 -91.88157896 -9.45339304 -84 -11 C-83.10667969 -11.18949219 -82.21335937 -11.37898437 -81.29296875 -11.57421875 C-54.30858857 -15.06330231 -25.15868749 -9.96104777 0 0 Z M-185 365 C-184.67 365.99 -184.34 366.98 -184 368 C-183.67 367.01 -183.34 366.02 -183 365 C-183.66 365 -184.32 365 -185 365 Z " fill="#1D1C1A" transform="translate(499,201)"/>
<path d="M0 0 C0.83789062 0.63035156 1.67578125 1.26070312 2.5390625 1.91015625 C3.47492188 2.62042969 4.41078125 3.33070313 5.375 4.0625 C6.50413815 4.85810503 7.63715252 5.64822965 8.7734375 6.43359375 C25.07783994 17.72570444 25.07783994 17.72570444 29.375 23.0625 C29.6328125 25.82421875 29.6328125 25.82421875 29.375 28.0625 C30.11492187 27.98773438 30.85484375 27.91296875 31.6171875 27.8359375 C36.97830359 28.27636913 40.01102815 33.21198168 43.375 37.0625 C46.15804783 40.42363836 48.83130589 43.86698034 51.48828125 47.328125 C53.40784033 49.82819854 55.36109999 52.29356397 57.35546875 54.734375 C64.53601203 63.52545309 71.13100491 72.58369363 77.375 82.0625 C77.76204102 82.64273926 78.14908203 83.22297852 78.54785156 83.82080078 C84.82459484 93.28533887 94.65345124 109.01925773 92.375 121.0625 C90.3125 123.375 90.3125 123.375 87.375 126.0625 C86.30454875 127.34758488 85.2426467 128.63981958 84.1875 129.9375 C77.21421519 137.89630258 68.39082185 142.25547494 58.890625 146.484375 C56.65965967 147.48583055 54.45072604 148.53920624 52.27734375 149.66015625 C49.4226062 151.03949781 46.74059519 151.91437315 43.6875 152.75 C16.79836468 160.7982389 -4.71485632 174.08406995 -18.625 199.0625 C-25.09622036 211.61014479 -28.54226563 223.89043044 -29.1875 237.9375 C-29.23068359 238.81664062 -29.27386719 239.69578125 -29.31835938 240.6015625 C-29.42369339 242.75505797 -29.52477649 244.90876064 -29.625 247.0625 C-30.285 247.0625 -30.945 247.0625 -31.625 247.0625 C-30.06216739 261.05444846 -27.87394472 274.51688888 -23.5234375 287.9609375 C-22.65914752 290.94461683 -22.12632813 293.80320306 -21.6875 296.875 C-20.86006059 302.54672107 -19.26124884 307.79278921 -17.38891602 313.19262695 C-15.7338065 318.11772495 -15.03139861 322.88818822 -14.625 328.0625 C-25.52406914 328.48898531 -35.5267244 328.36243328 -46.015625 325.1484375 C-49.53734195 324.00071163 -49.53734195 324.00071163 -52.921875 323.5390625 C-56.25090276 322.86092722 -58.05742537 322.30678512 -60.625 320.0625 C-62.68278675 314.97888166 -63.53408719 309.95648006 -64.27197266 304.54150391 C-64.60271753 302.21897043 -65.0198883 299.93652642 -65.48046875 297.63671875 C-68.18297845 283.57247908 -68.34681551 269.34519879 -68.625 255.0625 C-70.69110844 267.05790337 -70.72136717 279.2312096 -70.75 291.375 C-70.75459229 292.44717773 -70.75918457 293.51935547 -70.76391602 294.62402344 C-70.75009932 301.81533606 -70.32898426 308.90639576 -69.625 316.0625 C-79.00458915 313.07808527 -79.00458915 313.07808527 -80.67407227 310.34521484 C-80.92729248 309.66152832 -81.1805127 308.9778418 -81.44140625 308.2734375 C-81.72927002 307.50410889 -82.01713379 306.73478027 -82.3137207 305.94213867 C-82.60206787 305.11560791 -82.89041504 304.28907715 -83.1875 303.4375 C-83.64419067 302.16773315 -83.64419067 302.16773315 -84.11010742 300.87231445 C-86.44164128 294.15053188 -87.93543011 287.5016607 -89.01953125 280.48046875 C-89.52578232 277.11629052 -89.52578232 277.11629052 -90.59594727 274.21459961 C-92.27614904 269.06796019 -92.93167159 263.77785056 -93.75 258.4375 C-93.93175781 257.32503906 -94.11351562 256.21257812 -94.30078125 255.06640625 C-95.44541129 247.67364532 -95.85372049 240.53911865 -95.625 233.0625 C-96.285 233.0625 -96.945 233.0625 -97.625 233.0625 C-97.76832764 233.79428467 -97.91165527 234.52606934 -98.05932617 235.2800293 C-98.40001617 236.95583589 -98.75911549 238.62826294 -99.15356445 240.29223633 C-100.71836223 247.15349784 -100.89549093 253.73288497 -100.8125 260.75 C-100.80532959 261.89251221 -100.79815918 263.03502441 -100.79077148 264.2121582 C-100.6883475 274.91508511 -100.21130226 285.46493446 -98.625 296.0625 C-115.51449364 282.56690534 -125.10073875 263.20948329 -127.625 242.0625 C-127.71516388 241.31033203 -127.80532776 240.55816406 -127.89822388 239.78320312 C-129.68472003 224.23051618 -129.93925809 208.75279459 -129.88574219 193.10986328 C-129.87425716 189.71737025 -129.88100208 186.32519083 -129.89288712 182.93270874 C-129.90193816 179.62178208 -129.89556685 176.31093548 -129.890625 173 C-129.89467346 171.80697266 -129.89872192 170.61394531 -129.90289307 169.38476562 C-129.85760127 161.12863499 -128.96625377 153.20334428 -127.625 145.0625 C-127.45420425 143.97803589 -127.28340851 142.89357178 -127.10743713 141.77624512 C-126.64935715 138.86896162 -126.17197485 135.96549642 -125.6875 133.0625 C-125.51637695 132.03447266 -125.34525391 131.00644531 -125.16894531 129.94726562 C-123.87095459 122.26567434 -122.38883569 114.65233842 -120.625 107.0625 C-119.965 107.0625 -119.305 107.0625 -118.625 107.0625 C-118.50511719 105.90878906 -118.38523437 104.75507813 -118.26171875 103.56640625 C-117.716209 99.23374502 -116.69787838 95.17442032 -115.4375 91 C-115.219729 90.27119629 -115.00195801 89.54239258 -114.77758789 88.79150391 C-111.92930769 79.49965582 -108.63122864 70.31208735 -103.6940918 61.91113281 C-102.5559248 59.9430578 -101.49150517 57.94587731 -100.43359375 55.93359375 C-89.49196308 35.34206875 -75.17337444 18.92366228 -55.625 6.0625 C-55.03187012 5.65805664 -54.43874023 5.25361328 -53.82763672 4.83691406 C-41.11019925 -3.59457498 -13.10114234 -10.12360999 0 0 Z " fill="#A39B96" transform="translate(384.625,230.9375)"/>
<path d="M0 0 C3.59802881 0.61610082 5.74252928 2.12013221 8.625 4.3125 C12.75079429 7.27414473 16.63707983 9.30963374 21.39453125 11.04296875 C24.17416422 12.06397337 26.85297229 13.24353349 29.5625 14.4375 C35.21705102 16.81605952 40.95988698 18.5197518 46.84838867 20.19506836 C52.40094719 21.78696443 57.7092953 23.67137618 63 26 C63.87785156 26.36738281 64.75570312 26.73476563 65.66015625 27.11328125 C79.15333668 32.93945058 93.58663873 41.81811699 101 55 C102.29944075 60.37034495 100.47950681 65.82172618 99 71 C93.25 69.125 93.25 69.125 91 68 C77.74385227 66.9093043 69.14535868 70.04994496 59.03125 78.40625 C51.89726349 84.51058897 46.35748507 90.92208255 41.03076172 98.63354492 C37.36629814 103.84825419 33.34461563 108.47061633 27.1875 110.75 C24.18407051 111.68254896 24.18407051 111.68254896 23 113 C22.76924918 114.34747084 22.58846937 115.70377565 22.4375 117.0625 C22.293125 118.361875 22.14875 119.66125 22 121 C22.99 121 23.98 121 25 121 C25.32871094 122.54107422 25.32871094 122.54107422 25.6640625 124.11328125 C28.7879532 138.05687116 34.10588283 151.72398475 46.77734375 159.76171875 C50.6143447 161.2360573 54.0160606 161.4069547 58.0625 161.3125 C58.75666016 161.31572266 59.45082031 161.31894531 60.16601562 161.32226562 C64.25844679 161.27951468 67.27688938 160.61958538 71 159 C72.32 159 73.64 159 75 159 C75 158.34 75 157.68 75 157 C76.5390625 155.7734375 76.5390625 155.7734375 78.625 154.375 C82.54843696 151.55960296 85.14848154 148.50057455 87.87109375 144.5390625 C88.24363281 144.03117188 88.61617187 143.52328125 89 143 C89.33 143 89.66 143 90 143 C89.94677604 155.32134732 85.89553695 170.08391909 77 179 C63.82830189 192 63.82830189 192 58 192 C58 192.66 58 193.32 58 194 C57.00484375 194.42410156 56.0096875 194.84820313 54.984375 195.28515625 C52.38229169 196.39986782 49.7892469 197.53235668 47.203125 198.68359375 C26.08248262 208.07525175 7.10635518 212.22802092 -16.0625 212.25 C-16.80444611 212.25100708 -17.54639221 212.25201416 -18.31082153 212.25305176 C-43.24179106 212.23035295 -66.97639932 208.29941617 -91 201.875 C-91.95100586 201.62129639 -92.90201172 201.36759277 -93.88183594 201.10620117 C-94.76645508 200.86232666 -95.65107422 200.61845215 -96.5625 200.3671875 C-97.34753906 200.15175293 -98.13257813 199.93631836 -98.94140625 199.71435547 C-101 199 -101 199 -104 197 C-104.87207031 195.04248047 -104.87207031 195.04248047 -105.578125 192.6171875 C-105.84850586 191.70912354 -106.11888672 190.80105957 -106.39746094 189.86547852 C-106.67879883 188.87862061 -106.96013672 187.8917627 -107.25 186.875 C-107.54938477 185.85398193 -107.84876953 184.83296387 -108.15722656 183.78100586 C-108.79013982 181.61910221 -109.41860727 179.45589281 -110.04296875 177.29150391 C-110.97476311 174.08679688 -111.93558079 170.89234098 -112.90625 167.69921875 C-114.68452983 161.82097718 -116.37513074 155.9224103 -118 150 C-118.29463135 148.9493335 -118.29463135 148.9493335 -118.59521484 147.87744141 C-124.41703048 126.32279575 -122.97495142 101.34150881 -114 81 C-112 81 -112 81 -109.8125 82.5 C-107.55712356 85.61086405 -108.14559849 87.00148877 -108.69604492 90.64990234 C-110.89305682 107.63659834 -109.88077036 126.56981019 -100 141 C-98.07494412 143.41395896 -96.05853223 145.69640441 -94 148 C-94 148.66 -94 149.32 -94 150 C-93.42894531 150.27199219 -92.85789062 150.54398438 -92.26953125 150.82421875 C-89.96100146 152.02020406 -87.86206817 153.389078 -85.6875 154.8125 C-71.92597715 162.94158534 -56.71057022 165.62236268 -40.90917969 162.60009766 C-27.62388967 159.11262158 -16.17972635 149.61705691 -9.25 138 C-7.3925826 134.70205222 -5.71254636 131.47673784 -4.375 127.9375 C-3 125 -3 125 -0.3125 123.5 C2.37345353 122.14001302 2.37345353 122.14001302 2.75 118.6875 C1.69237597 113.48751518 -0.71665831 111.88772949 -5 109 C-6.78784416 107.88965468 -8.57976279 106.78585188 -10.375 105.6875 C-19.37235642 100.04882976 -25.5132735 92.45643537 -31.9206543 84.16064453 C-44.23467828 68.32312613 -61.70780243 54.00782168 -81 48 C-78.01117241 45.5242194 -75.30836546 44.24484343 -71.625 43.0546875 C-70.56700195 42.70470703 -69.50900391 42.35472656 -68.41894531 41.99414062 C-66.72656738 41.44016602 -66.72656738 41.44016602 -65 40.875 C-42.9584413 33.4279491 -11.29594805 22.5918961 0 0 Z " fill="#D0B9B2" transform="translate(491,359)"/>
<path d="M0 0 C1.20551514 0.0105542 2.41103027 0.0211084 3.65307617 0.03198242 C12.60513239 0.16482365 21.24692005 0.73047154 30.0625 2.3125 C31.71378906 2.60447266 31.71378906 2.60447266 33.3984375 2.90234375 C50.46599106 6.2641346 70.24624862 10.51222019 84.95385742 19.98999023 C87.75245088 21.74522709 90.64566571 23.28932111 93.55615234 24.84936523 C106.93051509 32.04014737 118.10998309 40.85172874 129.0625 51.3125 C129.91714844 52.11429687 130.77179688 52.91609375 131.65234375 53.7421875 C144.08246984 65.72066603 157.43258015 81.49033238 163.21875 97.96484375 C164.11270519 100.45219129 165.21558219 102.75042314 166.375 105.125 C168.90343277 110.62296286 170.87556038 116.2735902 172.8125 122 C173.11841064 122.89114502 173.42432129 123.78229004 173.73950195 124.70043945 C175.47887887 129.94688452 176.48517141 134.82160308 177.0625 140.3125 C177.3925 140.6425 177.7225 140.9725 178.0625 141.3125 C178.66314874 144.31956949 179.19128933 147.33072773 179.69335938 150.35546875 C180.30457512 153.82236462 181.01018377 157.14316333 182.05126953 160.51293945 C185.3167347 171.21367331 185.53660551 181.11977878 185.3125 192.25 C185.29237556 194.01234917 185.27413545 195.7747209 185.2578125 197.53710938 C185.21435322 201.79614464 185.14566636 206.05406272 185.0625 210.3125 C180.98005902 208.48497355 178.94909584 205.86621331 176.375 202.3125 C164.72321733 186.77177917 150.93345188 172.60281729 132.0625 166.3125 C132.0625 165.6525 132.0625 164.9925 132.0625 164.3125 C130.84175781 164.05082031 129.62101563 163.78914062 128.36328125 163.51953125 C122.28488435 162.16600357 116.26850427 160.59631831 110.25 159 C109.15107422 158.71705078 108.05214844 158.43410156 106.91992188 158.14257812 C97.40381898 155.61354901 87.60911095 152.71386797 79.625 146.75 C78.81675781 146.15058594 78.00851562 145.55117188 77.17578125 144.93359375 C76.47839844 144.39863281 75.78101563 143.86367188 75.0625 143.3125 C74.155 142.6525 73.2475 141.9925 72.3125 141.3125 C69.7313437 139.01813884 67.63369658 136.50371298 65.4921875 133.80078125 C64.02368369 132.04118333 64.02368369 132.04118333 61.0625 131.3125 C59.85470571 128.71454645 58.81069452 126.17717084 57.8125 123.5 C54.86017344 115.98063385 51.42879342 109.13070765 47.0625 102.3125 C46.12083984 100.83716797 46.12083984 100.83716797 45.16015625 99.33203125 C37.18825161 87.12949207 28.14565597 75.69757149 19.0625 64.3125 C18.52995605 63.64025391 17.99741211 62.96800781 17.44873047 62.27539062 C1.76788286 42.54033614 -15.27906086 26.3442727 -36.9375 13.3125 C-35.26198731 9.96147463 -31.56858415 8.9566095 -28.3125 7.375 C-27.26255859 6.85389648 -27.26255859 6.85389648 -26.19140625 6.32226562 C-24.78290535 5.62846787 -23.36845871 4.94661771 -21.94848633 4.27661133 C-20.18067538 3.42908365 -18.448056 2.50896034 -16.72265625 1.578125 C-11.14926438 -0.28542398 -5.83564121 -0.08829053 0 0 Z " fill="#CCC2BC" transform="translate(428.9375,205.6875)"/>
<path d="M0 0 C8.30106914 7.20166151 15.18893725 15.58309211 22.05859375 24.12109375 C23.36254197 25.71088284 24.74408642 27.23670931 26.14453125 28.7421875 C27.13453125 28.7421875 28.12453125 28.7421875 29.14453125 28.7421875 C30.13453125 25.7721875 30.13453125 25.7721875 31.14453125 22.7421875 C31.80453125 22.7421875 32.46453125 22.7421875 33.14453125 22.7421875 C33.65331425 24.30184968 34.15116594 25.86507991 34.64453125 27.4296875 C35.0621875 28.73486328 35.0621875 28.73486328 35.48828125 30.06640625 C36.15489622 32.78444944 36.41256655 34.95838228 36.14453125 37.7421875 C34.08203125 40.0546875 34.08203125 40.0546875 31.14453125 42.7421875 C30.07408 44.02727238 29.01217795 45.31950708 27.95703125 46.6171875 C20.98374644 54.57599008 12.1603531 58.93516244 2.66015625 63.1640625 C0.42919092 64.16551805 -1.77974271 65.21889374 -3.953125 66.33984375 C-6.80786255 67.71918531 -9.48987356 68.59406065 -12.54296875 69.4296875 C-39.43210407 77.4779264 -60.94532507 90.76375745 -74.85546875 115.7421875 C-81.32668911 128.28983229 -84.77273438 140.57011794 -85.41796875 154.6171875 C-85.46115234 155.49632812 -85.50433594 156.37546875 -85.54882812 157.28125 C-85.65416214 159.43474547 -85.75524524 161.58844814 -85.85546875 163.7421875 C-86.51546875 163.7421875 -87.17546875 163.7421875 -87.85546875 163.7421875 C-86.29263614 177.73413596 -84.10441347 191.19657638 -79.75390625 204.640625 C-78.88961627 207.62430433 -78.35679688 210.48289056 -77.91796875 213.5546875 C-77.08347875 219.27473712 -75.41376164 224.52587247 -73.61279297 229.99536133 C-72.00721324 234.97241649 -71.13448014 239.53397486 -70.85546875 244.7421875 C-74.48546875 244.7421875 -78.11546875 244.7421875 -81.85546875 244.7421875 C-81.85546875 243.4221875 -81.85546875 242.1021875 -81.85546875 240.7421875 C-82.51546875 240.7421875 -83.17546875 240.7421875 -83.85546875 240.7421875 C-83.97664063 240.16210938 -84.0978125 239.58203125 -84.22265625 238.984375 C-84.39023437 238.20320312 -84.5578125 237.42203125 -84.73046875 236.6171875 C-84.89289063 235.85148438 -85.0553125 235.08578125 -85.22265625 234.296875 C-86.171902 230.46473476 -87.50032153 226.77330821 -88.78515625 223.04296875 C-92.39309725 211.6377007 -93.78346025 199.87540795 -95.3815918 188.05419922 C-95.68981131 185.89999729 -96.02827707 183.74983361 -96.40161133 181.60595703 C-97.9538765 172.63808831 -98.29237176 163.81585345 -98.29296875 154.7421875 C-98.29503326 153.95292877 -98.29709778 153.16367004 -98.29922485 152.35049438 C-98.28819854 128.49401517 -94.38736222 105.10280831 -89.85546875 81.7421875 C-89.19546875 81.7421875 -88.53546875 81.7421875 -87.85546875 81.7421875 C-87.90058594 80.57816406 -87.94570313 79.41414063 -87.9921875 78.21484375 C-87.98749051 73.93964785 -87.05034871 70.20425431 -85.66796875 66.1796875 C-85.44383301 65.49640381 -85.21969727 64.81312012 -84.98876953 64.10913086 C-84.28860938 61.98299904 -83.57258373 59.8626519 -82.85546875 57.7421875 C-82.40775174 56.39098979 -81.96111153 55.03943474 -81.515625 53.6875 C-80.67714129 51.14771292 -79.82803044 48.61237026 -78.97265625 46.078125 C-78.31362105 44.11023667 -77.66740775 42.13783614 -77.05078125 40.15625 C-75.48769177 35.15085111 -73.40307256 30.63631468 -70.94140625 26.00390625 C-69.93429233 23.90635604 -69.32319592 22.01326274 -68.85546875 19.7421875 C-67.85966797 19.79439453 -67.85966797 19.79439453 -66.84375 19.84765625 C-59.81605887 20.11925896 -59.81605887 20.11925896 -53.85546875 16.7421875 C-51.79709197 14.74734087 -49.77574672 12.72302103 -47.7734375 10.671875 C-44.9348963 7.81599037 -42.00426479 5.42951801 -38.55078125 3.36328125 C-36.73154102 2.26910053 -34.93826633 1.13071922 -33.171875 -0.046875 C-32.26308594 -0.65273438 -31.35429687 -1.25859375 -30.41796875 -1.8828125 C-29.51175781 -2.49382812 -28.60554688 -3.10484375 -27.671875 -3.734375 C-18.05465944 -8.93647496 -8.14335701 -6.43893345 0 0 Z " fill="#CCC3BD" transform="translate(440.85546875,314.2578125)"/>
<path d="M0 0 C1.65128906 0.29197266 1.65128906 0.29197266 3.3359375 0.58984375 C20.40349106 3.9516346 40.18374862 8.19972019 54.89135742 17.67749023 C57.68995088 19.43272709 60.58316571 20.97682111 63.49365234 22.53686523 C76.86801509 29.72764737 88.04748309 38.53922874 99 49 C99.85464844 49.80179687 100.70929688 50.60359375 101.58984375 51.4296875 C114.01996984 63.40816603 127.37008015 79.17783238 133.15625 95.65234375 C134.05020519 98.13969129 135.15308219 100.43792314 136.3125 102.8125 C138.84093277 108.31046286 140.81306038 113.9610902 142.75 119.6875 C143.05591064 120.57864502 143.36182129 121.46979004 143.67700195 122.38793945 C145.41637887 127.63438452 146.42267141 132.50910308 147 138 C147.33 138.33 147.66 138.66 148 139 C148.60064874 142.00706949 149.12878933 145.01822773 149.63085938 148.04296875 C150.24547532 151.52915102 150.96265476 154.87646562 151.98876953 158.27075195 C155.01651045 168.34285771 155.48776728 177.46564591 155.25 187.9375 C155.22986603 189.50713818 155.21162767 191.07680186 155.1953125 192.64648438 C155.15194952 196.43163866 155.08332322 200.21552328 155 204 C154.34 204.33 153.68 204.66 153 205 C141.8768774 181.29284281 141.8768774 181.29284281 137.46875 169.00390625 C135.73026287 164.17272909 133.7543912 159.43956136 131.8125 154.6875 C129.72981269 149.56991652 127.73529912 144.57096303 126.4375 139.1875 C124.20492637 129.96536581 119.23116293 121.42362619 115 113 C114.01 113.33 113.02 113.66 112 114 C100.35010929 114.78264684 93.80905845 114.08470353 84.6875 106.4375 C82.30827174 104.33873087 80.78382531 102.67573797 79 100 C79 99.01 79 98.02 79 97 C78.34 97 77.68 97 77 97 C70.44118142 80.53268049 70.44118142 80.53268049 72.59375 71.51171875 C73.15678061 68.78350427 73.44379681 66.7569196 73 64 C70.21946793 60.56828946 66.66717471 58.40829384 63 56 C61.88562857 55.19436643 60.77638386 54.38160275 59.671875 53.5625 C47.73608154 44.74208217 35.23677664 37.40310754 21.8984375 30.93164062 C19.05705317 29.53725757 16.2512808 28.07409711 13.4375 26.625 C9.32410965 24.57110305 5.5189607 22.88414448 1 22 C0.34 22.33 -0.32 22.66 -1 23 C-3.20266316 23.38787256 -5.41224568 23.73709495 -7.625 24.0625 C-8.81351562 24.23910156 -10.00203125 24.41570312 -11.2265625 24.59765625 C-12.14179688 24.73042969 -13.05703125 24.86320312 -14 25 C-12.68 25.33 -11.36 25.66 -10 26 C-10 26.66 -10 27.32 -10 28 C-13.04940673 29.01646891 -15.30369903 29.19844676 -18.5 29.25 C-19.4590625 29.27578125 -20.418125 29.3015625 -21.40625 29.328125 C-24 29 -24 29 -25.84375 27.73828125 C-27.27899855 25.58055961 -27.22905818 24.49054426 -27 21.9375 C-27 20.638125 -27 19.33875 -27 18 C-29.69508748 16.20327502 -30.97444588 15.64178421 -34 15 C-37.02555412 14.35821579 -38.30491252 13.79672498 -41 12 C-43.61289494 11.63250611 -43.61289494 11.63250611 -46.54296875 11.5859375 C-47.61611328 11.54726562 -48.68925781 11.50859375 -49.79492188 11.46875 C-50.91447266 11.4378125 -52.03402344 11.406875 -53.1875 11.375 C-54.31865234 11.33632812 -55.44980469 11.29765625 -56.61523438 11.2578125 C-59.4099925 11.16347467 -62.20474278 11.07788348 -65 11 C-65 10.34 -65 9.68 -65 9 C-61.89779023 7.35045833 -58.79290789 5.7060119 -55.6875 4.0625 C-54.80642578 3.59392578 -53.92535156 3.12535156 -53.01757812 2.64257812 C-52.17001953 2.19462891 -51.32246094 1.74667969 -50.44921875 1.28515625 C-49.27879028 0.66459351 -49.27879028 0.66459351 -48.0847168 0.03149414 C-35.42791323 -6.23094819 -13.54924583 -2.4315238 0 0 Z " fill="#E4DFDC" transform="translate(459,208)"/>
<path d="M0 0 C3.59802881 0.61610082 5.74252928 2.12013221 8.625 4.3125 C12.75079429 7.27414473 16.63707983 9.30963374 21.39453125 11.04296875 C24.17416422 12.06397337 26.85297229 13.24353349 29.5625 14.4375 C35.21705102 16.81605952 40.95988698 18.5197518 46.84838867 20.19506836 C52.40094719 21.78696443 57.7092953 23.67137618 63 26 C63.87785156 26.36738281 64.75570312 26.73476563 65.66015625 27.11328125 C79.15333668 32.93945058 93.58663873 41.81811699 101 55 C102.29944075 60.37034495 100.47950681 65.82172618 99 71 C93.25 69.125 93.25 69.125 91 68 C75.74148187 66.74455231 67.28216642 71.64008998 56 81 C54.33531308 82.33580426 52.66937264 83.67005618 51 85 C50.13181641 84.10087891 50.13181641 84.10087891 49.24609375 83.18359375 C47.2606104 81.25335864 45.29936677 79.68111568 43.0625 78.0625 C31.8967125 69.43522761 21.36799759 58.73599518 15 46 C15.03487035 53.72378184 17.29027864 59.39065388 20.8203125 66.21484375 C22 69 22 69 21 72 C20.35417969 71.62488281 19.70835937 71.24976563 19.04296875 70.86328125 C5.4486916 63.48034277 -8.0612078 60.56816729 -23.5 60.5 C-24.57330566 60.49371582 -25.64661133 60.48743164 -26.75244141 60.48095703 C-33.68572715 60.59152034 -40.56618134 61.22770416 -47 64 C-47.66 64.99 -48.32 65.98 -49 67 C-49.59425781 66.50371094 -50.18851562 66.00742187 -50.80078125 65.49609375 C-60.22882897 57.7689069 -69.29076331 51.64639672 -81 48 C-78.01117241 45.5242194 -75.30836546 44.24484343 -71.625 43.0546875 C-70.56700195 42.70470703 -69.50900391 42.35472656 -68.41894531 41.99414062 C-67.29069336 41.62482422 -66.16244141 41.25550781 -65 40.875 C-42.9584413 33.4279491 -11.29594805 22.5918961 0 0 Z " fill="#B29E97" transform="translate(491,359)"/>
<path d="M0 0 C1.4375 1.6875 1.4375 1.6875 1.4375 4.6875 C2.04207031 4.78417969 2.64664063 4.88085938 3.26953125 4.98046875 C5.90271184 5.83921774 6.58764103 6.73518411 8.125 9 C8.54136719 9.59425781 8.95773437 10.18851563 9.38671875 10.80078125 C14.20981517 19.46083913 11.78706338 33.20120009 9.2890625 42.234375 C9.00804687 43.04390625 8.72703125 43.8534375 8.4375 44.6875 C8.19128906 45.42226563 7.94507813 46.15703125 7.69140625 46.9140625 C4.83363697 50.95589195 -1.98923473 50.8919424 -6.5625 51.6875 C-10.8596916 52.3612921 -15.15972185 52.91979281 -19.47885132 53.43095398 C-21.4089708 53.66859695 -23.33525192 53.93687186 -25.26098633 54.20776367 C-38.24574327 55.95731725 -51.18781509 55.99218442 -64.27246094 55.94824219 C-68.02816207 55.93759732 -71.78337655 55.94815302 -75.5390625 55.9609375 C-91.48557331 55.96981989 -107.74436917 55.96942715 -123.5625 53.6875 C-124.5625 52.6875 -124.5625 52.6875 -124.6875 49.19140625 C-124.60392866 41.65953913 -124.04116912 34.13994459 -123.5625 26.625 C-123.46589172 25.0761877 -123.36953545 23.52735967 -123.2734375 21.97851562 C-123.03936451 18.21465591 -122.80187845 14.45102586 -122.5625 10.6875 C-117.18374581 8.1694257 -111.95780684 6.05201522 -106.1875 4.5625 C-105.00414062 4.25054688 -103.82078125 3.93859375 -102.6015625 3.6171875 C-93.71003667 1.50312635 -85.21171596 0.3441322 -76.0625 0.375 C-75.10730469 0.35888672 -74.15210938 0.34277344 -73.16796875 0.32617188 C-66.18591647 0.32144789 -60.19358338 1.57309408 -53.5625 3.6875 C-52.67498047 3.95344971 -51.78746094 4.21939941 -50.87304688 4.4934082 C-48.25509293 5.28972661 -45.65936935 6.13766573 -43.0625 7 C-42.18335938 7.27005859 -41.30421875 7.54011719 -40.3984375 7.81835938 C-34.09325103 9.93454964 -34.09325103 9.93454964 -31.59375 13.48046875 C-31.2534375 14.53878906 -30.913125 15.59710937 -30.5625 16.6875 C-30.17449219 17.79351563 -29.78648437 18.89953125 -29.38671875 20.0390625 C-28.45654331 24.15652158 -28.29939663 27.86320547 -28.375 32.0625 C-28.38144531 32.8062085 -28.38789063 33.54991699 -28.39453125 34.31616211 C-28.46695756 39.49520876 -28.81634174 44.55766197 -29.5625 49.6875 C-24.93532041 39.48291645 -21.04167981 30.46143108 -24.875 19.25 C-26.23821192 16.37210816 -27.4779994 14.06978639 -29.5625 11.6875 C-27.0242375 5.46942836 -20.72569717 2.84635563 -15.0625 -0.1875 C-9.8939648 -1.84881489 -4.94995705 -2.53534385 0 0 Z " fill="#A49D99" transform="translate(518.5625,588.3125)"/>
<path d="M0 0 C6.61611119 0.62787457 12.60344683 2.68202787 18.875 4.8125 C20.43154297 5.32780273 20.43154297 5.32780273 22.01953125 5.85351562 C26.6088993 7.39584423 31.10737952 8.9835935 35.5078125 11.0078125 C40.85755875 13.46546155 46.40717788 15.24378153 52 17.0625 C53.02867187 17.40087891 54.05734375 17.73925781 55.1171875 18.08789062 C57.13434204 18.75129323 59.15198767 19.41320485 61.17016602 20.07348633 C67.83560338 22.25581182 74.44722501 24.49803137 81 27 C79.88344039 34.84383128 74.6381532 40.98008231 68.625 45.875 C58.36492899 53.31135916 48.44258022 54.87208608 36 54 C22.69838323 51.2452273 12.28553234 44.25993603 4.6875 33.06640625 C-0.94087842 23.11328118 -0.27197289 11.06023083 0 0 Z " fill="#D7CAC7" transform="translate(393,457)"/>
<path d="M0 0 C2 0 2 0 4.1875 1.5 C6.44287644 4.61086405 5.85440151 6.00148877 5.30395508 9.64990234 C3.05344099 27.05026265 4.50085226 45.00915747 14 60 C15.00204591 61.66543741 16.0026204 63.33176389 17 65 C16.34 65 15.68 65 15 65 C17.49947458 80.43946274 24.54252933 92.47192904 35 104 C35.55042969 104.64324219 36.10085938 105.28648437 36.66796875 105.94921875 C49.70497901 120.27383497 71.21828405 127.36762939 90 129 C93.31398002 129.13362823 96.6211881 129.1422548 99.9375 129.125 C100.84395264 129.12306641 101.75040527 129.12113281 102.68432617 129.11914062 C111.14548569 129.0658746 119.56338752 128.61920092 128 128 C120.09221562 133.27185626 107.22148844 131.24119277 97.9375 131.25 C97.19555389 131.25100708 96.45360779 131.25201416 95.68917847 131.25305176 C70.75820894 131.23035295 47.02360068 127.29941617 23 120.875 C22.04899414 120.62129639 21.09798828 120.36759277 20.11816406 120.10620117 C19.23354492 119.86232666 18.34892578 119.61845215 17.4375 119.3671875 C16.65246094 119.15175293 15.86742187 118.93631836 15.05859375 118.71435547 C13 118 13 118 10 116 C9.12792969 114.04248047 9.12792969 114.04248047 8.421875 111.6171875 C8.15149414 110.70912354 7.88111328 109.80105957 7.60253906 108.86547852 C7.32120117 107.87862061 7.03986328 106.8917627 6.75 105.875 C6.45061523 104.85398193 6.15123047 103.83296387 5.84277344 102.78100586 C5.20986018 100.61910221 4.58139273 98.45589281 3.95703125 96.29150391 C3.02523689 93.08679688 2.06441921 89.89234098 1.09375 86.69921875 C-0.68452983 80.82097718 -2.37513074 74.9224103 -4 69 C-4.1964209 68.29955566 -4.3928418 67.59911133 -4.59521484 66.87744141 C-10.41703048 45.32279575 -8.97495142 20.34150881 0 0 Z " fill="#AF9C95" transform="translate(377,440)"/>
<path d="M0 0 C1.4375 1.6875 1.4375 1.6875 1.4375 4.6875 C2.04207031 4.78417969 2.64664063 4.88085938 3.26953125 4.98046875 C5.90271184 5.83921774 6.58764103 6.73518411 8.125 9 C8.54136719 9.59425781 8.95773437 10.18851563 9.38671875 10.80078125 C14.20981517 19.46083913 11.78706338 33.20120009 9.2890625 42.234375 C9.00804687 43.04390625 8.72703125 43.8534375 8.4375 44.6875 C8.19128906 45.42226563 7.94507813 46.15703125 7.69140625 46.9140625 C4.83363697 50.95589195 -1.98923473 50.8919424 -6.5625 51.6875 C-10.86610648 52.36229795 -15.17327341 52.93939559 -19.5 53.44482422 C-21.69936068 53.70360316 -23.89637957 53.9787694 -26.09375 54.25390625 C-34.61924995 55.29198758 -42.95655916 55.99123909 -51.5625 55.6875 C-51.5625 55.3575 -51.5625 55.0275 -51.5625 54.6875 C-45.18891289 53.72544912 -39.00320471 53.58094422 -32.5625 53.6875 C-32.2325 52.0375 -31.9025 50.3875 -31.5625 48.6875 C-30.9025 49.0175 -30.2425 49.3475 -29.5625 49.6875 C-24.93532041 39.48291645 -21.04167981 30.46143108 -24.875 19.25 C-26.23821192 16.37210816 -27.4779994 14.06978639 -29.5625 11.6875 C-27.0242375 5.46942836 -20.72569717 2.84635563 -15.0625 -0.1875 C-9.8939648 -1.84881489 -4.94995705 -2.53534385 0 0 Z " fill="#A19A96" transform="translate(518.5625,588.3125)"/>
<path d="M0 0 C5.11365014 1.0681847 10.07227969 2.23107476 15 4 C15 4.66 15 5.32 15 6 C23.37018351 7.74624333 31.66305373 8.56436256 40.1875 9.125 C41.42564453 9.21136719 42.66378906 9.29773438 43.93945312 9.38671875 C46.95930529 9.59659265 49.97942095 9.80091129 53 10 C53 11.65 53 13.3 53 15 C51.375 15.75 51.375 15.75 49 16 C45.75 14.0625 45.75 14.0625 43 12 C43.93307421 13.44037669 44.87165077 14.87718985 45.8125 16.3125 C46.33457031 17.11300781 46.85664063 17.91351562 47.39453125 18.73828125 C48.87749363 20.99904944 48.87749363 20.99904944 50.6875 22.53125 C53.11013774 25.24229699 52.17043691 28.53444955 52 32 C50.35 31.67 48.7 31.34 47 31 C47 30.34 47 29.68 47 29 C46.13375 28.7525 45.2675 28.505 44.375 28.25 C40.81697746 26.93221387 38.0773845 25.19813178 35 23 C40.1381225 30.99979329 40.1381225 30.99979329 47 37 C47 38.32 47 39.64 47 41 C43.90234375 41.87109375 43.90234375 41.87109375 40 42 C37.41937516 40.41995009 35.55699245 38.31725244 33.5625 36.0625 C33.02173828 35.48564453 32.48097656 34.90878906 31.92382812 34.31445312 C30.59700833 32.89369918 29.29585137 31.44905547 28 30 C28 32.58296254 28.90797018 34.16426956 30 36.5 C32 40.77777778 32 40.77777778 32 43 C21.6424526 41.99245648 11.35133195 37.2631104 4.41137695 29.3918457 C-1.83080069 21.72802957 -3.99371776 15.85076734 -3 6 C-1.5 2.3125 -1.5 2.3125 0 0 Z " fill="#AE9A94" transform="translate(332,651)"/>
<path d="M0 0 C4.74275585 2.20063871 7.09231225 6.28098295 9 11 C9.93320939 14.07902735 10.12867267 16.84999564 10.1328125 20.0625 C10.13474609 21.50496094 10.13474609 21.50496094 10.13671875 22.9765625 C10.13285156 23.97429688 10.12898438 24.97203125 10.125 26 C10.13080078 27.49660156 10.13080078 27.49660156 10.13671875 29.0234375 C10.13542969 29.98507812 10.13414062 30.94671875 10.1328125 31.9375 C10.13168457 32.81277344 10.13055664 33.68804688 10.12939453 34.58984375 C10.00731786 36.86369448 9.63663826 38.82013036 9 41 C-3.94189561 42.34138649 -19.51282964 39.15769427 -31 33 C-30.42037293 27.32333492 -28.33893389 22.66548491 -25.9375 17.5625 C-25.33893188 16.29043701 -25.33893188 16.29043701 -24.72827148 14.99267578 C-19.23991519 3.83818512 -12.69732683 -1.57819882 0 0 Z " fill="#A09995" transform="translate(374,586)"/>
<path d="M0 0 C-1.25689333 13.32306932 -5.08933827 26.3755523 -15.296875 35.62890625 C-20.34205707 39.69050924 -24.85673615 40.74911786 -31.25390625 40.5234375 C-36.2345569 39.57406739 -38.96776176 36.93926147 -42 33 C-46.13911783 26.39367874 -48.27702398 20.70343417 -49 13 C-26.22205752 5.82633163 -26.22205752 5.82633163 -14.89453125 3.62109375 C-11.40351398 2.87200907 -8.11146213 1.79681666 -4.76953125 0.55078125 C-3 0 -3 0 0 0 Z " fill="#D2C6C2" transform="translate(578,469)"/>
<path d="M0 0 C4.09362268 0.35596719 7.46242101 1.08608502 11.25 2.6875 C17.08241276 5.14987457 23.08406052 6.96903507 29.13574219 8.80541992 C42.039223 12.76848036 42.039223 12.76848036 44.56640625 16.0078125 C45.05947266 17.05582031 45.05947266 17.05582031 45.5625 18.125 C47.45485775 21.5609701 47.45485775 21.5609701 51.125 23.1875 C52.07375 23.125625 53.0225 23.06375 54 23 C54.45117188 22.48566406 54.90234375 21.97132813 55.3671875 21.44140625 C57 20 57 20 59.375 20.109375 C60.24125 20.32078125 61.1075 20.5321875 62 20.75 C62.86625 20.95109375 63.7325 21.1521875 64.625 21.359375 C66.43362937 21.84722898 68.22285973 22.40761991 70 23 C69.63233859 25.61888048 69.24787107 26.76906773 67.28515625 28.59765625 C56.93401806 35.41958388 47.39195076 37.15003506 35 36 C21.71838346 33.19803799 11.1355151 26.2833011 3.65234375 14.9609375 C0.97080267 10.13608581 0.25334664 5.47228742 0 0 Z " fill="#F9EBE6" transform="translate(394,475)"/>
<path d="M0 0 C14.16681134 2.76380945 26.12271205 10.52420446 37.0234375 19.58984375 C39.26222453 21.3750385 41.51769132 23.13865299 43.7734375 24.90234375 C44.9610251 25.83452383 46.14852397 26.76681695 47.3359375 27.69921875 C49.87570119 29.6912437 52.41782578 31.68022036 54.9609375 33.66796875 C55.5993457 34.16772217 56.23775391 34.66747559 56.89550781 35.18237305 C58.12313267 36.14331029 59.3516134 37.1031554 60.58105469 38.06176758 C62.83410017 39.82634702 64.99768014 41.56408639 67.0234375 43.58984375 C65.66741165 43.32847822 64.31369658 43.05512232 62.9609375 42.77734375 C62.20683594 42.62652344 61.45273437 42.47570312 60.67578125 42.3203125 C57.96280852 41.57314623 55.49972092 40.5050264 52.9309082 39.36791992 C48.91758638 37.73084624 44.69229143 36.7082271 40.515625 35.57226562 C36.86541108 34.54314509 33.44243435 33.38291883 30.00390625 31.77734375 C25.85606387 29.86892362 21.60800827 28.35438313 17.28515625 26.8984375 C16.59192261 26.66471939 15.89868896 26.43100128 15.18444824 26.19020081 C12.29253696 25.21941999 9.39856149 24.2550313 6.50268555 23.29614258 C4.36548763 22.58659953 2.23148191 21.86804718 0.09765625 21.1484375 C-0.55342606 20.935858 -1.20450836 20.7232785 -1.87532043 20.5042572 C-5.40858196 19.3073144 -8.09532531 17.9456669 -10.9765625 15.58984375 C-12.62453486 14.87821932 -14.28821658 14.19952422 -15.9765625 13.58984375 C-15.26644852 8.64502568 -13.55436153 5.83644515 -10.1796875 2.21484375 C-6.78863897 -0.28635517 -4.12178146 -0.32183773 0 0 Z " fill="#7A6D68" transform="translate(398.9765625,419.41015625)"/>
<path d="M0 0 C-4.75 4 -4.75 4 -7 4 C-7.268125 4.928125 -7.53625 5.85625 -7.8125 6.8125 C-9.49565217 11.33043478 -9.49565217 11.33043478 -12 13 C-13.66617115 13.04063832 -15.33388095 13.042721 -17 13 C-19.18331689 14.76136355 -19.18331689 14.76136355 -19.1953125 16.9453125 C-19.17210937 17.66460938 -19.14890625 18.38390625 -19.125 19.125 C-19.08375 20.40375 -19.0425 21.6825 -19 23 C-16.69 23.33 -14.38 23.66 -12 24 C-11.77957031 24.94359375 -11.77957031 24.94359375 -11.5546875 25.90625 C-8.6164487 37.11883944 -1.77252011 44.76717493 8 50.875 C8.66 51.24625 9.32 51.6175 10 52 C10 52.33 10 52.66 10 53 C0.32425563 53.28739835 -9.22545902 52.79502568 -18.875 52.0625 C-20.04659668 51.97564941 -21.21819336 51.88879883 -22.42529297 51.79931641 C-23.51986816 51.71214355 -24.61444336 51.6249707 -25.7421875 51.53515625 C-27.22501221 51.41732788 -27.22501221 51.41732788 -28.73779297 51.29711914 C-31 51 -31 51 -32 50 C-32.3108403 41.30618531 -31.55245419 32.61084533 -31 23.9375 C-30.90339172 22.3886877 -30.80703545 20.83985967 -30.7109375 19.29101562 C-30.47686451 15.52715591 -30.23937845 11.76352586 -30 8 C-24.5083982 5.42667502 -19.17943421 3.29489804 -13.3125 1.75 C-12.07113281 1.41484375 -10.82976562 1.0796875 -9.55078125 0.734375 C-6.2423793 0.05012905 -3.36392555 -0.14468497 0 0 Z " fill="#8B837E" transform="translate(426,591)"/>
<path d="M0 0 C4.18209264 1.4345214 7.45106296 3.88651692 11.01171875 6.46875 C11.76187256 7.00830322 12.51202637 7.54785645 13.28491211 8.10375977 C26.52606452 17.74678844 26.52606452 17.74678844 29.82421875 21.96875 C30.0703125 24.72265625 30.0703125 24.72265625 29.82421875 26.96875 C30.56414062 26.89398438 31.3040625 26.81921875 32.06640625 26.7421875 C37.42752234 27.18261913 40.4602469 32.11823168 43.82421875 35.96875 C46.60726658 39.32988836 49.28052464 42.77323034 51.9375 46.234375 C53.85705908 48.73444854 55.81031874 51.19981397 57.8046875 53.640625 C80.82421875 81.83023867 80.82421875 81.83023867 80.82421875 88.96875 C78.1796875 89.41796875 78.1796875 89.41796875 74.82421875 88.96875 C72.4975964 86.88778118 70.87208084 84.36081075 69.13671875 81.78125 C68.08807142 80.30224529 67.03592552 78.82571553 65.98046875 77.3515625 C65.1915625 76.24022949 65.1915625 76.24022949 64.38671875 75.10644531 C62.11334215 71.99618195 59.65496688 69.06949125 57.13671875 66.15625 C53.87846637 62.37532322 50.68334498 58.56154501 47.57421875 54.65625 C40.72638551 46.23005955 33.21559722 38.13656254 25.375 30.62109375 C23.82421875 28.96875 23.82421875 28.96875 23.82421875 26.96875 C23.24285156 26.71867187 22.66148437 26.46859375 22.0625 26.2109375 C19.53118604 24.80612452 17.97545958 23.21347025 16.01171875 21.09375 C13.07319771 18.0793262 10.40392359 15.90126847 6.6953125 13.95703125 C4.38489244 12.736705 2.16606389 11.41458938 -0.05078125 10.03125 C-0.81132812 9.56847656 -1.571875 9.10570312 -2.35546875 8.62890625 C-4.6525266 6.53395005 -4.85736009 5.00402271 -5.17578125 1.96875 C-2.17578125 -0.03125 -2.17578125 -0.03125 0 0 Z " fill="#C6BDB7" transform="translate(384.17578125,232.03125)"/>
<path d="M0 0 C0.3396019 1.87387477 0.67138691 3.74916697 1 5.625 C1.185625 6.66914062 1.37125 7.71328125 1.5625 8.7890625 C1.98715797 11.90574865 2.07545206 14.85930812 2 18 C-2.99224599 19.54909328 -7.85984035 20.55267218 -13.0625 21.125 C-13.81966309 21.20991699 -14.57682617 21.29483398 -15.35693359 21.38232422 C-25.23015976 22.37223614 -35.08759745 22.12547345 -45 22 C-45 15.4 -45 8.8 -45 2 C-43.25074219 1.93941406 -41.50148438 1.87882813 -39.69921875 1.81640625 C-37.3619735 1.73192751 -35.02473422 1.64728327 -32.6875 1.5625 C-31.53958984 1.52318359 -30.39167969 1.48386719 -29.20898438 1.44335938 C-22.9078279 1.21130545 -16.65561333 0.85250023 -10.3828125 0.20507812 C-6.90954619 -0.09385053 -3.48393751 -0.06573467 0 0 Z " fill="#766E6A" transform="translate(501,669)"/>
<path d="M0 0 C0.495 0.99 0.495 0.99 1 2 C-7.19315869 13.94835643 -17.25835597 19.70903736 -30 26 C-30.87269531 26.43570312 -31.74539063 26.87140625 -32.64453125 27.3203125 C-36.63229421 29.19951805 -40.64488305 30.51489067 -44.875 31.75 C-71.69373776 39.75465263 -93.14001135 53.11163328 -107 78 C-114.77913694 93.08368463 -117.98362171 108.17626467 -119 125 C-119.66 125 -120.32 125 -121 125 C-121.33 125.99 -121.66 126.98 -122 128 C-122.6687285 101.80813356 -117.47785699 75.7037548 -99.20703125 55.93359375 C-85.36272058 41.39911082 -69.29023851 32.29433176 -50 27 C-47.79911951 26.30850714 -45.61560477 25.58072127 -43.43359375 24.83203125 C-41.53694813 24.18357938 -39.63138361 23.56119451 -37.72265625 22.94921875 C-28.54866059 19.8912202 -20.79059212 15.95380747 -13.31640625 9.78515625 C-11 8 -11 8 -9 8 C-9 7.34 -9 6.68 -9 6 C-7.03125 4.4921875 -7.03125 4.4921875 -4.5 2.875 C-3.6646875 2.33617187 -2.829375 1.79734375 -1.96875 1.2421875 C-1.3190625 0.83226562 -0.669375 0.42234375 0 0 Z " fill="#E0DBD7" transform="translate(473,352)"/>
<path d="M0 0 C1.22912109 0.05349609 2.45824219 0.10699219 3.72460938 0.16210938 C5.64176758 0.2771582 5.64176758 0.2771582 7.59765625 0.39453125 C8.84095703 0.45189453 10.08425781 0.50925781 11.36523438 0.56835938 C17.40261536 0.86003544 23.42673953 1.25938985 29.453125 1.72265625 C37.97272243 2.34891181 46.49744838 2.55362101 55.03515625 2.76953125 C56.6575597 2.81286676 58.27995563 2.85648495 59.90234375 2.90039062 C63.82153579 3.00585131 67.74080862 3.10752781 71.66015625 3.20703125 C71.66015625 7.20703125 71.66015625 7.20703125 70.01123047 8.87036133 C67.53065016 10.60539618 65.04743551 12.33055759 62.53515625 14.01953125 C61.67921875 14.62990234 60.82328125 15.24027344 59.94140625 15.86914062 C53.64965008 20.16205426 53.64965008 20.16205426 49.56640625 20.34765625 C45.68114464 18.82279551 41.98169893 17.07970142 38.28515625 15.14453125 C37.54910156 14.76748047 36.81304687 14.39042969 36.0546875 14.00195312 C34.25275979 13.07758761 32.45592526 12.14330511 30.66015625 11.20703125 C30.66015625 10.54703125 30.66015625 9.88703125 30.66015625 9.20703125 C25.73590953 7.6312723 21.18725325 7.59619245 16.37890625 9.51953125 C15.31671875 10.07640625 14.25453125 10.63328125 13.16015625 11.20703125 C8.39254283 13.70655673 5.0716647 14.87813151 -0.33984375 14.20703125 C-3.4296875 12.52734375 -3.4296875 12.52734375 -6.27734375 10.33203125 C-7.23511719 9.61273437 -8.19289063 8.8934375 -9.1796875 8.15234375 C-9.89253906 7.51039063 -10.60539062 6.8684375 -11.33984375 6.20703125 C-11.33984375 4.20703125 -11.33984375 4.20703125 -9.23608398 2.0949707 C-5.76780978 -0.16585408 -4.09275035 -0.21019987 0 0 Z " fill="#9F9894" transform="translate(394.33984375,697.79296875)"/>
<path d="M0 0 C14.52 0.66 29.04 1.32 44 2 C44 8.27 44 14.54 44 21 C33.85611716 21.08383374 23.7608161 20.98613194 13.625 20.5625 C12.63298584 20.52326416 11.64097168 20.48402832 10.61889648 20.44360352 C9.68505127 20.40162842 8.75120605 20.35965332 7.7890625 20.31640625 C6.96100098 20.27974854 6.13293945 20.24309082 5.27978516 20.20532227 C3.09058957 20.00815869 1.11195043 19.59635465 -1 19 C-1.10551806 12.45788013 -0.66396147 6.63961468 0 0 Z " fill="#7A736F" transform="translate(402,669)"/>
<path d="M0 0 C0 1.32 0 2.64 0 4 C-11.52164009 7.44419134 -11.52164009 7.44419134 -17 7 C-17 7.66 -17 8.32 -17 9 C-52.59088308 14.69777407 -91.35190197 14.05055584 -127 9 C-127.33 7.02 -127.66 5.04 -128 3 C-125.06243466 2.97260302 -122.1251339 2.95297286 -119.1875 2.9375 C-117.96643555 2.92493164 -117.96643555 2.92493164 -116.72070312 2.91210938 C-112.41572563 2.89522711 -108.20437689 3.04309516 -103.92211914 3.49780273 C-97.94336724 4.0600938 -92.01738629 4.14452991 -86.015625 4.1328125 C-84.91579285 4.13376923 -83.81596069 4.13472595 -82.68280029 4.13571167 C-80.37691185 4.13638738 -78.07102143 4.13457596 -75.76513672 4.13037109 C-72.24572483 4.12499347 -68.72643934 4.13034745 -65.20703125 4.13671875 C-62.95572889 4.13605826 -60.7044266 4.13477771 -58.453125 4.1328125 C-57.40819885 4.13483673 -56.36327271 4.13686096 -55.28668213 4.13894653 C-50.08208308 4.12229139 -45.14843434 3.85013463 -40 3 C-37.96008262 2.81313734 -35.91822579 2.64631796 -33.875 2.5 C-32.75609375 2.4175 -31.6371875 2.335 -30.484375 2.25 C-28.16145833 2.08333333 -25.83854167 1.91666667 -23.515625 1.75 C-15.66445677 1.17111202 -7.86724726 -0.16055607 0 0 Z " fill="#9C9692" transform="translate(524,649)"/>
<path d="M0 0 C1.27875 0.28875 2.5575 0.5775 3.875 0.875 C6.3441629 1.43094506 8.80370227 1.96561451 11.296875 2.40234375 C17.15684947 3.4347218 22.65811914 5.16004521 28.26245117 7.11914062 C32.2962785 8.50603728 36.2518223 9.51275513 40.4375 10.3125 C48.03303655 11.9421219 54.4571665 15.50289101 61.26123047 19.11328125 C63.3932561 20.20054846 65.58119592 21.07531453 67.8125 21.9375 C77.66529909 26.23519713 85.23660246 34.91070869 92 43 C92.74378906 43.88171875 93.48757813 44.7634375 94.25390625 45.671875 C96 48 96 48 96 50 C91.84273078 49.47913564 89.86578175 47.22996689 86.9375 44.375 C78.6309134 36.54559433 69.48088403 31.39913314 59 27 C59 26.34 59 25.68 59 25 C57.77925781 24.73832031 56.55851563 24.47664063 55.30078125 24.20703125 C49.22238435 22.85350357 43.20600427 21.28381831 37.1875 19.6875 C35.53911133 19.26307617 35.53911133 19.26307617 33.85742188 18.83007812 C24.2710604 16.28237687 14.50697815 13.29850766 6.375 7.4375 C5.57835937 6.87933594 4.78171875 6.32117188 3.9609375 5.74609375 C1.93905493 3.94573218 1.01234124 2.48731154 0 0 Z " fill="#DED9D6" transform="translate(502,345)"/>
<path d="M0 0 C4.20193959 1.89949939 5.85877786 3.8304993 8 8 C8.5418198 11.14299236 8.52077827 14.19303812 8.4375 17.375 C8.4264624 18.24825928 8.4154248 19.12151855 8.40405273 20.02124023 C8.17202187 29.17024206 6.90218864 38.29343408 4 47 C3.34 47 2.68 47 2 47 C1.814375 48.299375 1.62875 49.59875 1.4375 50.9375 C0.39055361 56.24100943 -1.45900945 61.07892896 -3.5 66.0625 C-3.80881104 66.8248999 -4.11762207 67.5872998 -4.43579102 68.37280273 C-6.74510149 73.87255074 -6.74510149 73.87255074 -9 75 C-8.52742738 49.28265016 -5.859743 25.1012611 0 0 Z " fill="#97908B" transform="translate(606,436)"/>
<path d="M0 0 C3.62729002 1.07576043 7.25135837 2.16201936 10.875 3.25 C11.88820313 3.55035156 12.90140625 3.85070312 13.9453125 4.16015625 C20.44781246 6.11924278 26.74268441 8.35967997 33 11 C32.27293926 15.21686411 31.07731296 17.75749469 28.5625 21.25 C27.94503906 22.12140625 27.32757813 22.9928125 26.69140625 23.890625 C25 26 25 26 23 27 C23 26.34 23 25.68 23 25 C20.89981487 24.58355816 18.79458958 24.19246697 16.6875 23.8125 C14.92986328 23.48185547 14.92986328 23.48185547 13.13671875 23.14453125 C10.02616555 22.64764584 10.02616555 22.64764584 8.265625 24.4453125 C7.84796875 24.95835937 7.4303125 25.47140625 7 26 C3.06031495 26.08382309 1.49324572 25.46728542 -1.375 22.75 C-4.23882425 17.81319836 -3.73711743 11.47193478 -3 6 C-1.47265625 2.59375 -1.47265625 2.59375 0 0 Z " fill="#93BED8" transform="translate(441,473)"/>
<path d="M0 0 C0.2475 0.65097656 0.495 1.30195312 0.75 1.97265625 C1.77695426 4.17203575 1.77695426 4.17203575 3.8125 4.43359375 C4.8953125 4.43552734 4.8953125 4.43552734 6 4.4375 C11.73068668 4.79159121 16.07203 7.21194182 21 10 C20.67 10.66 20.34 11.32 20 12 C19.01 11.67 18.02 11.34 17 11 C17.12375 12.11375 17.12375 12.11375 17.25 13.25 C16.92894816 16.78157027 15.64734383 17.76630364 13 20 C12.67 19.67 12.34 19.34 12 19 C11.34 19.66 10.68 20.32 10 21 C7.375 21.125 7.375 21.125 5 21 C5 22.65 5 24.3 5 26 C6.32 26.66 7.64 27.32 9 28 C7.31320705 33.57939205 5.7551502 37.55687651 1.1875 41.3125 C-2.2422596 43.12825508 -4.18477822 43.36335446 -8 43 C-8.92535554 38.74584871 -8.97870698 35.95537736 -7.6875 31.8125 C-5.35781006 23.35935898 -4.77397325 14.70492268 -4 6 C-4.66 6 -5.32 6 -6 6 C-6 4.35 -6 2.7 -6 1 C-4 0 -4 0 0 0 Z " fill="#3C3938" transform="translate(328,570)"/>
<path d="M0 0 C1.35406328 4.06218984 0.1563959 5.40639703 -1.625 9.25 C-4.5251043 15.65040557 -6.75931879 22.10761367 -8.82421875 28.8203125 C-10 32 -10 32 -11.4609375 33.921875 C-13.74918845 37.01159456 -14.76195982 40.50685416 -15.9375 44.125 C-16.19692383 44.91398682 -16.45634766 45.70297363 -16.72363281 46.51586914 C-19.39990962 54.88545229 -21.31140855 63.38406963 -23 72 C-23.26272705 73.22867798 -23.26272705 73.22867798 -23.53076172 74.48217773 C-25.06114277 82.04475304 -25.42572747 89.48644707 -25.625 97.1875 C-25.66367187 98.42564453 -25.70234375 99.66378906 -25.7421875 100.93945312 C-25.83547069 103.95949626 -25.92126406 106.9795486 -26 110 C-26.99 109.34 -27.98 108.68 -29 108 C-29.30590899 105.24989743 -29.41940566 102.72917152 -29.3984375 99.9765625 C-29.40253128 99.16716217 -29.40662506 98.35776184 -29.4108429 97.52383423 C-29.41693118 94.89051678 -29.39797759 92.25821416 -29.375 89.625 C-29.3713443 88.73518433 -29.3676886 87.84536865 -29.36392212 86.92858887 C-29.30147138 74.07218083 -28.83168972 61.58673093 -26 49 C-25.76023437 47.88496094 -25.52046875 46.76992188 -25.2734375 45.62109375 C-24.12317639 40.87468663 -22.62680207 36.90991751 -20.01953125 32.7890625 C-18.82656027 30.69564983 -18.06657916 28.57877698 -17.25 26.3125 C-13.44862803 16.5034696 -6.56098156 8.11921467 0 0 Z " fill="#22211F" transform="translate(360,350)"/>
<path d="M0 0 C1.50433594 0.01353516 1.50433594 0.01353516 3.0390625 0.02734375 C3.80992187 0.03894531 4.58078125 0.05054688 5.375 0.0625 C5.705 0.7225 6.035 1.3825 6.375 2.0625 C5.7569751 2.31829834 5.1389502 2.57409668 4.50219727 2.83764648 C2.06159126 4.24296272 1.49536555 5.13680956 0.33984375 7.66015625 C-0.15986938 8.73330078 -0.15986938 8.73330078 -0.66967773 9.828125 C-1.00555908 10.58609375 -1.34144043 11.3440625 -1.6875 12.125 C-2.03820557 12.89199219 -2.38891113 13.65898438 -2.75024414 14.44921875 C-5.05631616 19.56539262 -6.9940324 24.68990083 -8.625 30.0625 C-8.955 30.3925 -9.285 30.7225 -9.625 31.0625 C-9.66592937 33.39547433 -9.66741723 35.72955225 -9.625 38.0625 C-11.54308109 37.61012239 -13.45942033 37.15035537 -15.375 36.6875 C-16.97601563 36.30464844 -16.97601563 36.30464844 -18.609375 35.9140625 C-21.18352722 35.18716459 -23.30100186 34.3598776 -25.625 33.0625 C-25.04537293 27.38583492 -22.96393389 22.72798491 -20.5625 17.625 C-19.96393188 16.35293701 -19.96393188 16.35293701 -19.35327148 15.05517578 C-15.099721 6.41029439 -10.15254275 -0.11805282 0 0 Z " fill="#898380" transform="translate(368.625,585.9375)"/>
<path d="M0 0 C2.7265625 1.75 2.7265625 1.75 5.625 4 C6.14715088 4.40226807 6.66930176 4.80453613 7.20727539 5.21899414 C11.58155082 8.61049411 15.85413734 12.12649418 20.1171875 15.65625 C23.93679458 18.76162161 27.83980508 21.75139474 31.76147461 24.72631836 C33.9616777 26.40093807 36.04203238 28.04203238 38 30 C36.64397415 29.73863447 35.29025908 29.46527857 33.9375 29.1875 C33.18339844 29.03667969 32.42929687 28.88585937 31.65234375 28.73046875 C28.93937102 27.98330248 26.47628342 26.91518265 23.9074707 25.77807617 C20.56774832 24.41577037 17.09771089 23.52052958 13.625 22.5625 C8.27174348 21.04061371 3.21240794 19.40843563 -1.8046875 16.96875 C-5.57815283 15.30359092 -9.54721421 14.2024254 -13.49609375 13.02734375 C-16 12 -16 12 -18 9 C-16.21024844 7.51851668 -14.41813943 6.03988094 -12.625 4.5625 C-11.62726563 3.73878906 -10.62953125 2.91507812 -9.6015625 2.06640625 C-5.85098759 -0.91265401 -4.59099517 -1.36809025 0 0 Z " fill="#8D7D78" transform="translate(428,433)"/>
<path d="M0 0 C-0.33 3.3 -0.66 6.6 -1 10 C-19.00659667 16.23757924 -19.00659667 16.23757924 -26.22265625 17.4296875 C-31.17315238 18.44624507 -36.00837043 19.95634776 -40.84570312 21.41235352 C-46.67556863 23.10814379 -46.67556863 23.10814379 -50 22 C-20.08421053 -6.69473684 -20.08421053 -6.69473684 0 0 Z " fill="#796B66" transform="translate(588,441)"/>
<path d="M0 0 C1.92960571 0.24447876 1.92960571 0.24447876 3.89819336 0.49389648 C8.8247557 1.03915505 13.67670329 1.12850688 18.62890625 1.09765625 C19.94156715 1.09553383 19.94156715 1.09553383 21.28074646 1.09336853 C24.04136762 1.08782719 26.80190388 1.07528612 29.5625 1.0625 C31.44856653 1.0574774 33.33463434 1.05291583 35.22070312 1.04882812 C39.81383417 1.03787707 44.40690275 1.02065384 49 1 C49.99 4.3 50.98 7.6 52 11 C34.12176642 13.64135075 16.8060602 13.08239361 -1 10 C-1.125 2.25 -1.125 2.25 0 0 Z " fill="#605A57" transform="translate(380,726)"/>
<path d="M0 0 C4.455 0.99 4.455 0.99 9 2 C9 2.66 9 3.32 9 4 C9.9178125 4.19335938 10.835625 4.38671875 11.78125 4.5859375 C13.0084375 4.84632813 14.235625 5.10671875 15.5 5.375 C17.43552734 5.78492188 17.43552734 5.78492188 19.41015625 6.203125 C21.96434515 6.77010491 24.43299045 7.38870766 26.9375 8.125 C33.07926629 9.7448065 39.67821628 9.68720341 46 10 C46.02689216 11.47906892 46.04634621 12.95827483 46.0625 14.4375 C46.07410156 15.26121094 46.08570313 16.08492187 46.09765625 16.93359375 C46 19 46 19 45 20 C27.84891128 21.61702691 12.21495364 16.3794598 -3 9 C-2.41321669 5.47930015 -1.64350079 3.28700157 0 0 Z " fill="#756E6A" transform="translate(336,629)"/>
<path d="M0 0 C0.33 0.99 0.66 1.98 1 3 C1.66 3 2.32 3 3 3 C3.39108074 10.90852158 2.54940981 17.87744376 0.734375 25.57421875 C-0.29084768 30.35677348 -0.71143057 35.12417166 -1 40 C3.68520915 38.78184562 7.70543612 37.30440013 12 35 C10.09584328 39.97537724 7.86467622 44.79432581 5.625 49.625 C5.23828125 50.48351562 4.8515625 51.34203125 4.453125 52.2265625 C4.06898438 53.0515625 3.68484375 53.8765625 3.2890625 54.7265625 C2.94568848 55.47502441 2.60231445 56.22348633 2.24853516 56.99462891 C0.76060885 59.38450507 -0.53764259 60.63215047 -3 62 C-5.25 61.6875 -5.25 61.6875 -7 61 C-7.17060957 57.91684139 -7.33654588 54.83353993 -7.5 51.75 C-7.54769531 50.89664063 -7.59539062 50.04328125 -7.64453125 49.1640625 C-7.78666342 46.44324673 -7.89648384 43.72254579 -8 41 C-8.05019287 40.03239746 -8.10038574 39.06479492 -8.15209961 38.06787109 C-8.38977327 30.48824204 -6.99132369 24.27363176 -4.5625 17.125 C-3.9146928 15.14950875 -3.27005965 13.17297328 -2.62890625 11.1953125 C-2.33516113 10.29200195 -2.04141602 9.38869141 -1.73876953 8.45800781 C-0.89866595 5.66284494 -0.34869019 2.89756639 0 0 Z " fill="#262423" transform="translate(321,573)"/>
<path d="M0 0 C1.22903387 3.68710162 0.68373687 4.36147956 -1 7.75 C-4.58055518 14.54412825 -9.50462518 20.549589 -17 23 C-21.85606897 23.79938366 -26.0534111 24.07868302 -30.453125 21.640625 C-34.86724554 18.0521673 -36.39569611 15.76538573 -37 10 C-33.60732806 8.98905456 -30.21040545 7.99319949 -26.8125 7 C-25.85279297 6.71382813 -24.89308594 6.42765625 -23.90429688 6.1328125 C-22.97294922 5.86210937 -22.04160156 5.59140625 -21.08203125 5.3125 C-20.22843018 5.06113281 -19.3748291 4.80976563 -18.49536133 4.55078125 C-15.91904455 3.98213135 -13.62952773 3.90116106 -11 4 C-10.34 5.65 -9.68 7.3 -9 9 C-6.25068173 8.31267043 -4.46581179 7.64439778 -2.77734375 5.30859375 C-1.79675344 3.56883675 -0.89311945 1.7862389 0 0 Z " fill="#F9EBE6" transform="translate(572,486)"/>
<path d="M0 0 C5.75179752 3.14239131 9.53724162 6.94571898 12 13 C12.71909705 17.41945062 12.80834893 20.72529591 10.375 24.5625 C7.23662393 26.46204341 5.62199908 26.57951985 2 26 C-1.60703153 24.12711824 -3.5449456 22.9101088 -5.375 19.25 C-5.58125 18.5075 -5.7875 17.765 -6 17 C-6.66 17 -7.32 17 -8 17 C-10.26881984 12.46236032 -10.47429537 8.98010142 -10 4 C-7.29879602 -0.15569843 -4.80759995 -0.92453845 0 0 Z " fill="#9C9590" transform="translate(519,285)"/>
<path d="M0 0 C1.98 0 3.96 0 6 0 C12.81733458 15.53378378 12.81733458 15.53378378 11 23 C8 25 8 25 5 25 C5 25.66 5 26.32 5 27 C1.37 27 -2.26 27 -6 27 C-6.64703604 23.79190501 -7.29266861 20.58353821 -7.9375 17.375 C-8.11990234 16.47136719 -8.30230469 15.56773437 -8.49023438 14.63671875 C-9.40068734 10.10100762 -10.2787222 5.57062353 -11 1 C-9.02 1 -7.04 1 -5 1 C-4.65066406 1.84304688 -4.30132812 2.68609375 -3.94140625 3.5546875 C-3.48636719 4.65039062 -3.03132813 5.74609375 -2.5625 6.875 C-1.88380859 8.51082031 -1.88380859 8.51082031 -1.19140625 10.1796875 C-0.50456537 11.80558624 0.21065887 13.42131774 1 15 C1.10662326 9.88208358 0.71167986 5.07071901 0 0 Z " fill="#98918D" transform="translate(490,699)"/>
<path d="M0 0 C1.258125 -0.04125 2.51625 -0.0825 3.8125 -0.125 C4.52019531 -0.14820313 5.22789062 -0.17140625 5.95703125 -0.1953125 C8 0 8 0 11 2 C11 2.99 11 3.98 11 5 C11.60457031 5.09667969 12.20914063 5.19335938 12.83203125 5.29296875 C15.46521184 6.15171774 16.15014103 7.04768411 17.6875 9.3125 C18.10386719 9.90675781 18.52023437 10.50101563 18.94921875 11.11328125 C23.77231517 19.77333913 21.34956338 33.51370009 18.8515625 42.546875 C18.57054687 43.35640625 18.28953125 44.1659375 18 45 C17.80148437 45.74765625 17.60296875 46.4953125 17.3984375 47.265625 C15.60703125 49.48736906 14.6513988 49.3966068 11.875 49.75 C10.59625 49.8325 9.3175 49.915 8 50 C8.28875 48.94683594 8.5775 47.89367187 8.875 46.80859375 C12.01550661 34.83218025 15.16154988 21.50155977 9 10 C6.29928463 6.36215115 3.21234091 3.18365929 0 0 Z " fill="#BFBBB8" transform="translate(509,588)"/>
<path d="M0 0 C13.2720499 0.97929689 13.2720499 0.97929689 18.3125 6.125 C20.62769401 8.93757584 21.38147764 10.79059066 21.375 14.4375 C21.25125 15.613125 21.1275 16.78875 21 18 C19.35 17.67 17.7 17.34 16 17 C16 16.34 16 15.68 16 15 C14.700625 14.62875 14.700625 14.62875 13.375 14.25 C9.81697746 12.93221387 7.0773845 11.19813178 4 9 C9.1381225 16.99979329 9.1381225 16.99979329 16 23 C16 24.32 16 25.64 16 27 C12.87109375 27.7890625 12.87109375 27.7890625 9 28 C4.27964969 25.17137036 1.01078967 21.53746217 -2 17 C-3.32742386 11.01318429 -3.14241323 5.3666728 0 0 Z " fill="#C8B2AB" transform="translate(363,665)"/>
<path d="M0 0 C0 4.95 0 9.9 0 15 C-6.47990359 18.47994823 -13.50312314 22 -21 22 C-23.29612756 10.47835991 -23.29612756 10.47835991 -23 5 C-18.62527111 3.70746646 -14.22936956 2.51570927 -9.8125 1.375 C-8.30623047 0.98441406 -8.30623047 0.98441406 -6.76953125 0.5859375 C-4 0 -4 0 0 0 Z " fill="#77706C" transform="translate(534,662)"/>
<path d="M0 0 C4.18290487 1.88054967 5.85898865 3.87090668 8 8 C8.92264145 15.68867876 6.13255294 21.67917513 3.1875 28.6875 C2.73568359 29.80189453 2.28386719 30.91628906 1.81835938 32.06445312 C-0.17531504 36.92203355 -2.10962657 41.59449934 -5 46 C-5.33 46 -5.66 46 -6 46 C-7.13701578 30.08177905 -3.71688315 15.41781584 0 0 Z " fill="#A8A09C" transform="translate(606,436)"/>
<path d="M0 0 C-0.62031591 6.57534861 -2.14897283 12.66692592 -4 19 C-4.66 18.67 -5.32 18.34 -6 18 C-6.31453125 18.5775 -6.6290625 19.155 -6.953125 19.75 C-7.38109375 20.4925 -7.8090625 21.235 -8.25 22 C-8.87648438 23.11375 -8.87648438 23.11375 -9.515625 24.25 C-10.25039063 25.11625 -10.25039063 25.11625 -11 26 C-12.32 26 -13.64 26 -15 26 C-18.11854063 22.24932275 -18.35963437 19.14409519 -18.25 14.375 C-18.23453125 13.24835938 -18.2190625 12.12171875 -18.203125 10.9609375 C-18 8 -18 8 -17 5 C-14.69384528 3.95308833 -12.51663184 3.10255004 -10.125 2.3125 C-9.48691406 2.08755859 -8.84882812 1.86261719 -8.19140625 1.63085938 C-5.33402021 0.649565 -3.04143468 0 0 0 Z " fill="#94BED8" transform="translate(578,469)"/>
<path d="M0 0 C1.81830215 1.36818324 3.45629255 2.88058084 5.140625 4.41015625 C14.17783364 12.13734935 26.9341079 13.24722168 38.375 13.375 C39.11153809 13.38885742 39.84807617 13.40271484 40.60693359 13.41699219 C44.54528681 13.38326277 47.62542597 12.89950366 51.2890625 11.4140625 C54.9765567 10.00893313 55.54675728 9.85082643 59 11 C49.37705143 18.69835885 36.9465644 20.25483742 25 19 C16.37102552 17.18229887 7.78325498 13.49261528 2 6.625 C-1.258216 3.9776995 -4.96442886 4.68957145 -9 5 C-9 3.68 -9 2.36 -9 1 C-5.85617726 0.06849697 -3.25667527 -0.53015644 0 0 Z " fill="#2A2725" transform="translate(470,539)"/>
<path d="M0 0 C6.71539173 1.29975324 12.72019113 3.29928888 19 6 C18.44590036 10.22026574 17.03747714 12.8128176 14.5625 16.25 C13.94503906 17.12140625 13.32757813 17.9928125 12.69140625 18.890625 C11 21 11 21 9 22 C9 21.34 9 20.68 9 20 C8.31292969 19.87882812 7.62585938 19.75765625 6.91796875 19.6328125 C6.01691406 19.46523438 5.11585938 19.29765625 4.1875 19.125 C3.29417969 18.96257812 2.40085937 18.80015625 1.48046875 18.6328125 C-1 18 -1 18 -4 16 C-3.2884375 14.2675 -3.2884375 14.2675 -2.5625 12.5 C-0.97791232 8.31429668 -0.39710805 4.44761014 0 0 Z " fill="#D2C7C4" transform="translate(455,478)"/>
<path d="M0 0 C14.52 0.66 29.04 1.32 44 2 C44 2.33 44 2.66 44 3 C40.70835283 3.02952761 37.41674062 3.04697292 34.125 3.0625 C32.74828125 3.07506836 32.74828125 3.07506836 31.34375 3.08789062 C25.15504687 3.10968183 19.14881381 2.7086201 13 2 C13 7.94 13 13.88 13 20 C11.4325 20.020625 9.865 20.04125 8.25 20.0625 C6.92742187 20.07990234 6.92742187 20.07990234 5.578125 20.09765625 C3.2181162 20.00826198 1.25501476 19.66912821 -1 19 C-1.10551806 12.45788013 -0.66396147 6.63961468 0 0 Z " fill="#524D4A" transform="translate(402,669)"/>
<path d="M0 0 C11.55 0 23.1 0 35 0 C35 1.32 35 2.64 35 4 C33.53125 5.46386719 33.53125 5.46386719 31.5 6.796875 C30.4171875 7.52197266 30.4171875 7.52197266 29.3125 8.26171875 C28.549375 8.75285156 27.78625 9.24398437 27 9.75 C26.236875 10.25660156 25.47375 10.76320313 24.6875 11.28515625 C22.79944003 12.53599598 20.90385069 13.77338343 19 15 C18.7009375 14.39800781 18.401875 13.79601562 18.09375 13.17578125 C16.58561721 10.17567424 15.56659494 8.24577057 13 6 C10.34592646 6.01307425 7.9403245 6.37443085 5.33984375 6.8984375 C3 7 3 7 1.19140625 5.7890625 C0 4 0 4 0 0 Z " fill="#8B847F" transform="translate(431,701)"/>
<path d="M0 0 C12.55558426 -0.78910795 28.20084258 -0.19943828 39 7 C30.32731315 10.17179236 22.34049959 12.7863919 13 13 C12.91363281 12.40316406 12.82726562 11.80632813 12.73828125 11.19140625 C11.79349786 8.38704921 10.59500153 7.61247788 8.1875 5.9375 C7.50042969 5.45152344 6.81335938 4.96554687 6.10546875 4.46484375 C5.41066406 3.98144531 4.71585937 3.49804688 4 3 C2.66307323 2.00480926 1.32866109 1.00619952 0 0 Z " fill="#B79C92" transform="translate(378,575)"/>
<path d="M0 0 C4.90764769 1.63588256 7.89738294 5.48226588 10.1875 10.0625 C10.44610135 14.11392119 10.49191554 15.60587669 8.1875 19.0625 C5.03092497 19.52822418 3.1960025 19.78430962 0.1875 19.0625 C-2.6875 16.3125 -2.6875 16.3125 -4.8125 13.0625 C-5.26625 12.423125 -5.72 11.78375 -6.1875 11.125 C-7.17198786 7.87619006 -6.59554809 5.31516128 -5.8125 2.0625 C-2.8125 0.0625 -2.8125 0.0625 0 0 Z " fill="#7D7773" transform="translate(295.8125,348.9375)"/>
<path d="M0 0 C6.77154658 -0.81725562 6.77154658 -0.81725562 9.8671875 1.2421875 C13.03158185 4.52770699 14.37978211 7.15917942 14.5 11.75 C14.35782195 15.13857697 13.97879843 16.03180236 12 19 C9.1875 19.5 9.1875 19.5 6 19 C3.3125 16.75 3.3125 16.75 1 14 C0.401875 13.401875 -0.19625 12.80375 -0.8125 12.1875 C-2.65405161 8.7951681 -2.19110749 5.82214982 -2 2 C-1.34 2 -0.68 2 0 2 C0 1.34 0 0.68 0 0 Z " fill="#7E7874" transform="translate(337,337)"/>
<path d="M0 0 C2.70567626 1.82339052 4.53728718 3.07457436 6 6 C6.12082534 7.66345582 6.1753794 9.33220591 6.1875 11 C6.20167969 11.886875 6.21585937 12.77375 6.23046875 13.6875 C6 16 6 16 4 18 C1.3125 18.5625 1.3125 18.5625 -2 18 C-5.20782077 15.49266254 -8.16749928 12.66500144 -10 9 C-10.44778928 2.84289746 -10.44778928 2.84289746 -8.9375 0 C-5.72521608 -1.65795299 -3.41465714 -0.88310098 0 0 Z " fill="#7E7874" transform="translate(336,463)"/>
<path d="M0 0 C1.79244141 0.23009766 1.79244141 0.23009766 3.62109375 0.46484375 C10.08534064 1.1830934 16.56549882 1.35180512 23.0625 1.5625 C24.93325195 1.62727539 24.93325195 1.62727539 26.84179688 1.69335938 C29.89444091 1.79862296 32.94715523 1.90075941 36 2 C36 2.33 36 2.66 36 3 C31.05 3 26.1 3 21 3 C21 5.97 21 8.94 21 12 C18.08302989 11.85895309 15.1665198 11.71235186 12.25 11.5625 C11.0125 11.50352539 11.0125 11.50352539 9.75 11.44335938 C8.95078125 11.40146484 8.1515625 11.35957031 7.328125 11.31640625 C6.5949707 11.27974854 5.86181641 11.24309082 5.10644531 11.20532227 C2.98822395 10.99885215 1.0480544 10.56867914 -1 10 C-1.125 2.25 -1.125 2.25 0 0 Z " fill="#484441" transform="translate(380,726)"/>
<path d="M0 0 C3.70694282 0.43247666 5.8285752 1.10620099 8.5859375 3.671875 C10.88748476 7.16281246 11.08264024 11.34879703 10.75 15.4375 C9.76 16.9225 9.76 16.9225 8.75 18.4375 C4.68936239 18.96387895 2.61100169 19.09980899 -0.6875 16.5625 C-2.25 14.4375 -2.25 14.4375 -2.25 12.4375 C-2.91 12.4375 -3.57 12.4375 -4.25 12.4375 C-5.42353189 8.91690432 -5.45146402 6.131007 -5.25 2.4375 C-3.25 0.4375 -3.25 0.4375 0 0 Z " fill="#7D7773" transform="translate(312.25,290.5625)"/>
<path d="M0 0 C-2.52591737 2.63116393 -5.18247655 5.05224341 -7.9375 7.4375 C-11.09122391 10.18541385 -14.11076091 12.96982242 -17 16 C-17.67933594 16.70769531 -18.35867188 17.41539062 -19.05859375 18.14453125 C-24.5280181 24.00133472 -28.92412474 30.10639748 -33 37 C-34.92153437 31.62472739 -32.27645181 26.92095271 -30 22 C-24.27671033 12.71138234 -12.27321936 -1.53415242 0 0 Z " fill="#282724" transform="translate(396,253)"/>
<path d="M0 0 C3.91061327 1.3703306 7.06701812 3.06701812 10 6 C9.625 8.625 9.625 8.625 9 11 C3.04890913 12.98369696 -2.91441676 12.87634652 -8.5625 10.0625 C-11.69724771 8.30275229 -11.69724771 8.30275229 -13 7 C-13.25 4.5625 -13.25 4.5625 -13 2 C-8.72550786 -0.84966143 -5.01892796 -0.62273257 0 0 Z " fill="#C2BEBB" transform="translate(461,593)"/>
<path d="M0 0 C0.99 0 1.98 0 3 0 C3.309375 0.804375 3.61875 1.60875 3.9375 2.4375 C4.76335345 4.89080405 4.76335345 4.89080405 6 6 C9.48880949 6.19382275 12.60169639 5.77675511 16 5 C19.61139896 8.78756477 19.61139896 8.78756477 21 11 C20.8125 13.875 20.8125 13.875 20 16 C16.09632464 17.0831874 14.15450956 17.00920286 10.57421875 15.12890625 C9.77822266 14.71962891 8.98222656 14.31035156 8.16210938 13.88867188 C7.34548828 13.45103516 6.52886719 13.01339844 5.6875 12.5625 C4.85154297 12.12873047 4.01558594 11.69496094 3.15429688 11.24804688 C1.09597535 10.17771968 -0.95466741 9.09488625 -3 8 C-3 7.34 -3 6.68 -3 6 C-5.64 5.34 -8.28 4.68 -11 4 C-10.34 3.67 -9.68 3.34 -9 3 C-9 2.34 -9 1.68 -9 1 C-6.03 1.33 -3.06 1.66 0 2 C0 1.34 0 0.68 0 0 Z " fill="#9B9490" transform="translate(428,701)"/>
<path d="M0 0 C-22.30962245 5.12472185 -45.40474991 5.34115342 -68.19360352 5.26074219 C-71.85644558 5.24986955 -75.51881176 5.26080287 -79.18164062 5.2734375 C-101.77211273 5.28487311 -101.77211273 5.28487311 -113 3 C-112.67 4.65 -112.34 6.3 -112 8 C-110.35 8 -108.7 8 -107 8 C-107 8.33 -107 8.66 -107 9 C-112.78591511 9.10477512 -118.29309366 8.99250545 -124 8 C-124.33 6.02 -124.66 4.04 -125 2 C-122.06243466 1.97260302 -119.1251339 1.95297286 -116.1875 1.9375 C-114.96643555 1.92493164 -114.96643555 1.92493164 -113.72070312 1.91210938 C-109.41572563 1.89522711 -105.20437689 2.04309516 -100.92211914 2.49780273 C-94.94336724 3.0600938 -89.01738629 3.14452991 -83.015625 3.1328125 C-81.91579285 3.13376923 -80.81596069 3.13472595 -79.68280029 3.13571167 C-77.37691185 3.13638738 -75.07102143 3.13457596 -72.76513672 3.13037109 C-69.24572483 3.12499347 -65.72643934 3.13034745 -62.20703125 3.13671875 C-59.95572889 3.13605826 -57.7044266 3.13477771 -55.453125 3.1328125 C-54.40819885 3.13483673 -53.36327271 3.13686096 -52.28668213 3.13894653 C-47.08208308 3.12229139 -42.14843434 2.85013463 -37 2 C-34.96008262 1.81313734 -32.91822579 1.64631796 -30.875 1.5 C-29.75609375 1.4175 -28.6371875 1.335 -27.484375 1.25 C-25.16145833 1.08333333 -22.83854167 0.91666667 -20.515625 0.75 C-13.70318976 0.26931105 -13.70318976 0.26931105 -6.9375 -0.625 C-4.21029044 -0.97315441 -2.55954784 -0.92143722 0 0 Z " fill="#716B67" transform="translate(521,650)"/>
<path d="M0 0 C2.83359844 -0.05449228 5.66612485 -0.09390733 8.5 -0.125 C9.29148437 -0.14175781 10.08296875 -0.15851563 10.8984375 -0.17578125 C16.27998079 -0.21989226 20.82999927 0.49405942 26 2 C26 2.66 26 3.32 26 4 C27.10214844 4.16628906 27.10214844 4.16628906 28.2265625 4.3359375 C35.54467401 6.08816138 42.36552199 12.21807888 47 18 C47 18.66 47 19.32 47 20 C42.62938377 18.3546908 38.53066327 16.30110103 34.375 14.1875 C32.23278183 13.11335867 30.08894926 12.04249696 27.94482422 10.97216797 C26.30639169 10.15315738 24.670479 9.32910864 23.03515625 8.50390625 C15.62055315 4.92482716 7.96935487 2.92512081 0 1 C0 0.67 0 0.34 0 0 Z " fill="#2E2C2A" transform="translate(530,323)"/>
<path d="M0 0 C4.455 0.99 4.455 0.99 9 2 C9 2.66 9 3.32 9 4 C13.455 4.99 13.455 4.99 18 6 C17.67 6.66 17.34 7.32 17 8 C16.9310528 9.37342831 16.91532292 10.75002102 16.9375 12.125 C16.958125 13.40375 16.97875 14.6825 17 16 C11.78254934 15.47493172 7.77348889 14.2201441 3.0625 11.9375 C1.91910156 11.38964844 0.77570313 10.84179688 -0.40234375 10.27734375 C-1.25957031 9.85582031 -2.11679687 9.43429687 -3 9 C-2.41321669 5.47930015 -1.64350079 3.28700157 0 0 Z " fill="#645D59" transform="translate(336,629)"/>
<path d="M0 0 C1.98 0 3.96 0 6 0 C9.43199251 7.82004008 11.87392795 14.39666485 11 23 C5.375 26 5.375 26 2 26 C2.01047363 25.40985107 2.02094727 24.81970215 2.03173828 24.21166992 C2.07332044 21.53698996 2.0993329 18.86237803 2.125 16.1875 C2.14175781 15.25873047 2.15851563 14.32996094 2.17578125 13.37304688 C2.18222656 12.48037109 2.18867188 11.58769531 2.1953125 10.66796875 C2.20578613 9.84578857 2.21625977 9.0236084 2.22705078 8.17651367 C2.13996135 5.70578408 2.13996135 5.70578408 0 3 C0 2.01 0 1.02 0 0 Z " fill="#9F9995" transform="translate(490,699)"/>
<path d="M0 0 C1.23556641 0.05027344 2.47113281 0.10054687 3.74414062 0.15234375 C5.03900391 0.22066406 6.33386719 0.28898438 7.66796875 0.359375 C9.54645508 0.43865234 9.54645508 0.43865234 11.46289062 0.51953125 C19.9390627 0.89547287 28.39589256 1.46573823 36.85546875 2.109375 C35.86546875 2.439375 34.87546875 2.769375 33.85546875 3.109375 C33.85546875 3.769375 33.85546875 4.429375 33.85546875 5.109375 C30.83440122 4.96752667 27.81367778 4.82101833 24.79296875 4.671875 C23.94541016 4.63255859 23.09785156 4.59324219 22.22460938 4.55273438 C17.37546666 4.30934111 12.64918663 3.88339458 7.85546875 3.109375 C7.87609375 4.07875 7.89671875 5.048125 7.91796875 6.046875 C7.85546875 9.109375 7.85546875 9.109375 6.85546875 10.109375 C3.41796875 10.296875 3.41796875 10.296875 -0.14453125 10.109375 C-2.14453125 8.109375 -2.14453125 8.109375 -2.33203125 5.546875 C-2.14453125 3.109375 -2.14453125 3.109375 -1.14453125 2.109375 C-1.90765625 2.274375 -2.67078125 2.439375 -3.45703125 2.609375 C-6.14453125 3.109375 -6.14453125 3.109375 -9.14453125 3.109375 C-6.48981162 -0.44264103 -4.25918356 -0.19659197 0 0 Z " fill="#908985" transform="translate(394.14453125,697.890625)"/>
<path d="M0 0 C-0.89138672 0.58394531 -0.89138672 0.58394531 -1.80078125 1.1796875 C-14.06721599 9.45905403 -22.60161673 18.32227658 -30 31 C-31.58819461 26.51386588 -30.03728204 23.71052571 -28.21484375 19.51953125 C-23.78354402 10.32921508 -16.28567122 4.30007991 -7.0625 -0.0625 C-3.91536451 -1.02590882 -3.00186724 -0.92714258 0 0 Z " fill="#23211F" transform="translate(348,294)"/>
<path d="M0 0 C2.44020024 1.91344115 4.70907944 3.9040514 7 6 C6.67 6.66 6.34 7.32 6 8 C4.54207031 7.20335937 4.54207031 7.20335937 3.0546875 6.390625 C-8.61876203 0.313366 -20.01537588 -2.21726383 -33 -4 C-32.67 -4.66 -32.34 -5.32 -32 -6 C-21.09368887 -9.30494277 -9.15887634 -6.23547116 0 0 Z " fill="#373532" transform="translate(510,267)"/>
<path d="M0 0 C-3.07709718 2.05139812 -5.53470557 2.89051453 -9.0625 3.9375 C-14.02971097 5.40999392 -14.02971097 5.40999392 -18.97265625 6.9609375 C-19.84792969 7.24195313 -20.72320313 7.52296875 -21.625 7.8125 C-22.40101563 8.06644531 -23.17703125 8.32039063 -23.9765625 8.58203125 C-26 9 -26 9 -29 8 C-27.27860959 6.36603572 -25.54871208 4.74308726 -23.8125 3.125 C-23.32974609 2.66480469 -22.84699219 2.20460938 -22.34960938 1.73046875 C-14.56663197 -5.47792643 -8.96744797 -4.12502606 0 0 Z " fill="#8E7E79" transform="translate(567,455)"/>
<path d="M0 0 C-0.51101593 4.34363544 -1.29343106 7.98331946 -3 12 C-4.75070517 11.88529863 -6.50057536 11.75780972 -8.25 11.625 C-9.22453125 11.55539062 -10.1990625 11.48578125 -11.203125 11.4140625 C-13.99380301 11.00091743 -15.74117138 10.68894067 -18 9 C-18.75 6.375 -18.75 6.375 -19 4 C-16.39688008 3.32900016 -13.79264602 2.66304662 -11.1875 2 C-10.44951172 1.80921875 -9.71152344 1.6184375 -8.95117188 1.421875 C-5.89464659 0.64737086 -3.16626522 0 0 0 Z " fill="#CAC7C5" transform="translate(527,692)"/>
<path d="M0 0 C4.49722423 1.49907474 5.88686562 4.9120455 8 9 C8.8125 12 8.8125 12 9 14 C9.66 14 10.32 14 11 14 C11 15.32 11 16.64 11 18 C3.80550775 17.64027539 3.80550775 17.64027539 0.5625 15.0625 C-1.57077585 10.88127934 -2.24925093 6.69422579 -2 2 C-1.34 1.34 -0.68 0.68 0 0 Z " fill="#7F7975" transform="translate(459,322)"/>
<path d="M0 0 C6.75 0.75 6.75 0.75 9 3 C9.375 5.9375 9.375 5.9375 9 9 C7.4375 10.9375 7.4375 10.9375 5 12 C-1.43636364 11.56363636 -1.43636364 11.56363636 -3 10 C-3.30867281 6.52743085 -3.38701339 4.6127712 -1.5 1.625 C-1.005 1.08875 -0.51 0.5525 0 0 Z " fill="#C0BBB8" transform="translate(505,620)"/>
<path d="M0 0 C2.31 0 4.62 0 7 0 C8.00460531 2.12282669 9.00355602 4.24833021 10 6.375 C10.556875 7.55835938 11.11375 8.74171875 11.6875 9.9609375 C13 13 13 13 13 15 C12.34 15 11.68 15 11 15 C10.34 17.31 9.68 19.62 9 22 C6.11424181 21.60196439 5.17810487 21.20990931 3.25 18.9375 C2.8375 18.298125 2.425 17.65875 2 17 C4.31 17.33 6.62 17.66 9 18 C9 16.68 9 15.36 9 14 C8.34 14 7.68 14 7 14 C4.66666667 9.33333333 2.33333333 4.66666667 0 0 Z " fill="#918A85" transform="translate(461,322)"/>
<path d="M0 0 C0.08076963 2.45898655 0.14037143 4.91533742 0.1875 7.375 C0.22520508 8.42300781 0.22520508 8.42300781 0.26367188 9.4921875 C0.29296875 11.5234375 0.29296875 11.5234375 0 15 C-3 17 -3 17 -6 17 C-6.85298376 13.32612505 -7.10789471 9.9552607 -7.0625 6.1875 C-7.05347656 5.21167969 -7.04445313 4.23585938 -7.03515625 3.23046875 C-7.02355469 2.49441406 -7.01195312 1.75835938 -7 1 C-4 0 -4 0 0 0 Z " fill="#A09590" transform="translate(534,662)"/>
<path d="M0 0 C0 0.66 0 1.32 0 2 C0.66 2 1.32 2 2 2 C3.125 8.75 3.125 8.75 2 11 C-5.75 11.125 -5.75 11.125 -8 10 C-8.36272727 3.59181818 -8.36272727 3.59181818 -6.8125 1.0625 C-4.43958382 -0.32851983 -2.70313576 -0.21917317 0 0 Z " fill="#B3ADAA" transform="translate(414,603)"/>
<path d="M0 0 C0.66 0 1.32 0 2 0 C1.71382813 1.11375 1.42765625 2.2275 1.1328125 3.375 C-0.07954367 8.22442469 -1.11012613 13.10605265 -2.125 18 C-2.30675781 18.87011719 -2.48851562 19.74023438 -2.67578125 20.63671875 C-3.11858611 22.75752096 -3.55949215 24.87871949 -4 27 C-6.70476889 24.29523111 -6.33044845 22.77797113 -6.375 19 C-6.28235735 12.04408092 -5.08494645 5.08494645 0 0 Z " fill="#2E2C2A" transform="translate(281,381)"/>
<path d="M0 0 C11.55 0 23.1 0 35 0 C35 0.33 35 0.66 35 1 C26.75 1 18.5 1 10 1 C9.67 2.65 9.34 4.3 9 6 C8 7 8 7 5.625 7.25 C3 7 3 7 1.1875 5.75 C0 4 0 4 0 0 Z " fill="#5F5A57" transform="translate(431,701)"/>
<path d="M0 0 C0.33 0.66 0.66 1.32 1 2 C-7.79705092 2.38064163 -16.31163005 1.20731692 -25 0 C-19.03066741 -5.96933259 -6.67736971 -3.85803583 0 0 Z " fill="#4C4946" transform="translate(468,234)"/>
<path d="M0 0 C-0.62031591 6.57534861 -2.14897283 12.66692592 -4 19 C-6.56474034 16.43525966 -6.30908839 15.18550157 -6.5 11.625 C-6.70189956 7.87976312 -7.08794145 5.2535835 -9 2 C-3.375 0 -3.375 0 0 0 Z " fill="#C2B9B7" transform="translate(578,469)"/>
<path d="M0 0 C6.16618181 -0.40214229 11.17745757 1.03181664 17 3 C11.6013038 6.5991308 6.3999927 7.26122419 0 7 C0 4.69 0 2.38 0 0 Z " fill="#CDB7AF" transform="translate(400,578)"/>
<path d="M0 0 C1.2065625 0.0309375 1.2065625 0.0309375 2.4375 0.0625 C2.23125 1.135 2.025 2.2075 1.8125 3.3125 C1.4498809 6.93869096 1.45387931 8.14541076 3.4375 11.0625 C6.0775 11.0625 8.7175 11.0625 11.4375 11.0625 C9.4375 13.0625 9.4375 13.0625 6.5 13.6875 C0.61043611 13.58767688 -4.38929974 8.82064417 -8.5625 5.0625 C-8.5625 4.4025 -8.5625 3.7425 -8.5625 3.0625 C-7.758125 2.753125 -6.95375 2.44375 -6.125 2.125 C-1.0625 0.02591463 -1.0625 0.02591463 0 0 Z " fill="#948E8A" transform="translate(391.5625,698.9375)"/>
<path d="M0 0 C1.98 0 3.96 0 6 0 C7 3 7 3 5.56640625 6.35546875 C4.90851193 7.6380304 4.24010257 8.91524057 3.5625 10.1875 C3.22412109 10.84169922 2.88574219 11.49589844 2.53710938 12.16992188 C1.70030902 13.78459299 0.85130254 15.39292763 0 17 C-0.33 17 -0.66 17 -1 17 C-1.10477512 11.21408489 -0.99250545 5.70690634 0 0 Z " fill="#C9BFB9" transform="translate(601,465)"/>
<path d="M0 0 C4.875 3.75 4.875 3.75 6 6 C6.13415472 8.6723621 6.04318541 11.32250488 6 14 C3.875 14.8125 3.875 14.8125 1 15 C-1.30107561 13.55576519 -3.01646386 11.89127865 -5 10 C-2 9 -2 9 1 10 C0.67 6.7 0.34 3.4 0 0 Z " fill="#544C48" transform="translate(505,518)"/>
<path d="M0 0 C7.1621779 -0.31753498 12.61576992 -0.38755065 19 3 C19.94875 3.309375 20.8975 3.61875 21.875 3.9375 C24 5 24 5 24.8125 7.125 C24.874375 7.74375 24.93625 8.3625 25 9 C20.04813132 7.90641113 15.35889572 5.99043628 10.60546875 4.25390625 C7.09019894 3.03136929 3.58644009 1.98730425 0 1 C0 0.67 0 0.34 0 0 Z " fill="#353330" transform="translate(489,317)"/>
<path d="M0 0 C-1.32 2.64 -2.64 5.28 -4 8 C-6.875 7.6875 -6.875 7.6875 -10 7 C-12 4 -12 4 -12 1 C-10.37681021 0.63762737 -8.7513642 0.28534843 -7.125 -0.0625 C-6.22007812 -0.25972656 -5.31515625 -0.45695313 -4.3828125 -0.66015625 C-2 -1 -2 -1 0 0 Z " fill="#958F8B" transform="translate(520,695)"/>
<path d="M0 0 C2.31 0 4.62 0 7 0 C7 3.3 7 6.6 7 10 C5.02 10 3.04 10 1 10 C0.67 6.7 0.34 3.4 0 0 Z " fill="#44413E" transform="translate(465,726)"/>
<path d="M0 0 C0.66 0.66 1.32 1.32 2 2 C1.625 4.625 1.625 4.625 1 7 C-2.375 7.125 -2.375 7.125 -6 7 C-8 5 -8 5 -8.125 2.375 C-8.08375 1.59125 -8.0425 0.8075 -8 0 C-4.67679974 -1.10773342 -3.30835256 -0.93312508 0 0 Z " fill="#6E6A67" transform="translate(400,701)"/>
<path d="M0 0 C-0.66 3.63 -1.32 7.26 -2 11 C-3.65 11.33 -5.3 11.66 -7 12 C-7.33 11.67 -7.66 11.34 -8 11 C-7.77968006 7.10768107 -7.53011508 4.68914961 -5.125 1.5625 C-3 0 -3 0 0 0 Z " fill="#201F1D" transform="translate(407,306)"/>
<path d="M0 0 C4.29 1.32 8.58 2.64 13 4 C11 8 11 8 9.1875 8.9375 C5.93609494 9.03039729 4.49987377 8.03937071 2 6 C1.34 4.02 0.68 2.04 0 0 Z " fill="#B0DFFC" transform="translate(438,490)"/>
<path d="M0 0 C2.625 0.375 2.625 0.375 5 1 C5.625 3.3125 5.625 3.3125 6 6 C5.01 7.485 5.01 7.485 4 9 C-0.875 8.125 -0.875 8.125 -2 7 C-2.1875 4.5625 -2.1875 4.5625 -2 2 C-1.34 1.34 -0.68 0.68 0 0 Z " fill="#55504D" transform="translate(435,677)"/>
<path d="M0 0 C0.66 1.32 1.32 2.64 2 4 C1.01 4.495 1.01 4.495 0 5 C-0.73075648 7.3140622 -1.40138258 9.64828869 -2 12 C-6.875 10.125 -6.875 10.125 -8 9 C-8.125 6.5 -8.125 6.5 -8 4 C-7.67 3.67 -7.34 3.34 -7 3 C-6.195625 3.04125 -5.39125 3.0825 -4.5625 3.125 C-3.2940625 3.063125 -3.2940625 3.063125 -2 3 C-1.34 2.01 -0.68 1.02 0 0 Z " fill="#2A2827" transform="translate(340,587)"/>
<path d="M0 0 C7.26 0.33 14.52 0.66 22 1 C22 2.65 22 4.3 22 6 C20.4375 6.75 20.4375 6.75 18 7 C16.3243086 6.01429917 14.65119429 5.0230492 13.0078125 3.984375 C10.04135888 2.53000474 7.1832348 2.41955956 3.91796875 2.2734375 C2 2 2 2 0 0 Z " fill="#95857F" transform="translate(363,660)"/>
<path d="M0 0 C0.99 0.33 1.98 0.66 3 1 C4.19493974 4.03173281 4.10493955 7.02459427 4.0625 10.25 C4.05347656 11.14203125 4.04445313 12.0340625 4.03515625 12.953125 C4.02355469 13.62859375 4.01195312 14.3040625 4 15 C2.68 15.33 1.36 15.66 0 16 C0 10.72 0 5.44 0 0 Z " fill="#A6A2A0" transform="translate(497,707)"/>
<path d="M0 0 C2.375 0.6875 2.375 0.6875 3.375 1.6875 C3.41592937 4.02047433 3.41741723 6.35455225 3.375 8.6875 C4.035 9.0175 4.695 9.3475 5.375 9.6875 C3.395 9.6875 1.415 9.6875 -0.625 9.6875 C-0.7075 9.11 -0.79 8.5325 -0.875 7.9375 C-1.83031013 5.0715696 -3.40969173 3.6884236 -5.625 1.6875 C-2.625 -0.3125 -2.625 -0.3125 0 0 Z " fill="#7C6861" transform="translate(391.625,578.3125)"/>
<path d="M0 0 C0.33 0 0.66 0 1 0 C1.33 8.91 1.66 17.82 2 27 C2.33 27 2.66 27 3 27 C3 31.62 3 36.24 3 41 C2.01 40.34 1.02 39.68 0 39 C-0.26653946 36.0204901 -0.34767784 33.2511418 -0.29296875 30.2734375 C-0.28872391 29.41062164 -0.28447906 28.54780579 -0.28010559 27.65884399 C-0.26328392 24.89724803 -0.22562598 22.13637617 -0.1875 19.375 C-0.17245764 17.50521886 -0.15876846 15.6354263 -0.14648438 13.765625 C-0.11336906 9.17680342 -0.06156339 4.58852456 0 0 Z " fill="#3A3835" transform="translate(331,419)"/>
<path d="M0 0 C2.4375 0.1875 2.4375 0.1875 3.4375 1.1875 C3.625 3.625 3.625 3.625 3.4375 6.1875 C1.4375 8.1875 1.4375 8.1875 -1.125 8.375 C-3.5625 8.1875 -3.5625 8.1875 -4.5625 7.1875 C-4.75 4.75 -4.75 4.75 -4.5625 2.1875 C-2.5625 0.1875 -2.5625 0.1875 0 0 Z " fill="#544F4C" transform="translate(491.5625,678.8125)"/>
<path d="M0 0 C2 2 2 2 2.23046875 5.5546875 C2.22647567 6.99485736 2.21171192 8.43502815 2.1875 9.875 C2.18685547 10.59558594 2.18621094 11.31617188 2.18554688 12.05859375 C2.15701391 15.50157166 2.07655309 18.71005376 1 22 C1.99 22.33 2.98 22.66 4 23 C0.37 23 -3.26 23 -7 23 C-7 21.35 -7 19.7 -7 18 C-6.67 19.32 -6.34 20.64 -6 22 C-4.35 22 -2.7 22 -1 22 C-1 18.37 -1 14.74 -1 11 C-0.67 11 -0.34 11 0 11 C0 7.37 0 3.74 0 0 Z " fill="#65615E" transform="translate(491,703)"/>
<path d="M0 0 C2.875 -0.125 2.875 -0.125 6 0 C6.66 0.66 7.32 1.32 8 2 C7.46428571 5.53571429 7.46428571 5.53571429 6 7 C3.5625 7.1875 3.5625 7.1875 1 7 C0.34 6.34 -0.32 5.68 -1 5 C-0.625 2.375 -0.625 2.375 0 0 Z " fill="#4E4A49" transform="translate(333,575)"/>
<path d="M0 0 C0.33 0.66 0.66 1.32 1 2 C-0.75 5 -0.75 5 -3 8 C-4.32 8 -5.64 8 -7 8 C-7.99 6.02 -8.98 4.04 -10 2 C-6.7 1.34 -3.4 0.68 0 0 Z " fill="#AFDDFA" transform="translate(570,487)"/>
<path d="M0 0 C0.66 0.33 1.32 0.66 2 1 C-3.94 6.94 -9.88 12.88 -16 19 C-16.66 18.67 -17.32 18.34 -18 18 C-12.37361021 11.50903494 -6.55902307 5.55113536 0 0 Z " fill="#36322F" transform="translate(554,433)"/>
<path d="M0 0 C1.65 0.33 3.3 0.66 5 1 C5.38133299 2.9914056 5.71325582 4.99279077 6 7 C5 8 5 8 2.5 8.125 C0 8 0 8 -1 7 C-0.71269945 4.66055264 -0.38063221 2.3260857 0 0 Z " fill="#4F4B4A" transform="translate(327,592)"/>
<path d="M0 0 C0.66 1.32 1.32 2.64 2 4 C-3.75 4.125 -3.75 4.125 -6 3 C-6.33 4.32 -6.66 5.64 -7 7 C-7.99 7 -8.98 7 -10 7 C-10 5.35 -10 3.7 -10 2 C-6.49223216 0.39644899 -3.85645121 -0.22036864 0 0 Z " fill="#BCB7B4" transform="translate(508,594)"/>
<path d="M0 0 C5.28 0 10.56 0 16 0 C15 3 15 3 12.6875 4.25 C7.6843067 5.64623999 4.4597582 3.33123724 0 1 C0 0.67 0 0.34 0 0 Z " fill="#A0887E" transform="translate(378,575)"/>
<path d="M0 0 C1.32 1.32 2.64 2.64 4 4 C1.50494038 6.49505962 0.32671112 6.35948376 -3.125 6.625 C-4.03507812 6.69976563 -4.94515625 6.77453125 -5.8828125 6.8515625 C-6.93082031 6.92503906 -6.93082031 6.92503906 -8 7 C-8 6.34 -8 5.68 -8 5 C-6.25 3.7109375 -6.25 3.7109375 -4 2.375 C-3.2575 1.92898438 -2.515 1.48296875 -1.75 1.0234375 C-1.1725 0.68570313 -0.595 0.34796875 0 0 Z " fill="#58524F" transform="translate(511,729)"/>
<path d="M0 0 C8.38011029 -0.15392039 16.64895793 0.31728707 25 1 C24.01 1.33 23.02 1.66 22 2 C22 2.66 22 3.32 22 4 C14.62346781 3.24984418 7.32168224 2.16558465 0 1 C0 0.67 0 0.34 0 0 Z " fill="#67615E" transform="translate(406,699)"/>
<path d="M0 0 C0.66 0.99 1.32 1.98 2 3 C0 5 0 5 -2.1640625 5.1953125 C-3.38222656 5.16050781 -3.38222656 5.16050781 -4.625 5.125 C-5.44226563 5.10695313 -6.25953125 5.08890625 -7.1015625 5.0703125 C-7.72804688 5.04710937 -8.35453125 5.02390625 -9 5 C-9 3.68 -9 2.36 -9 1 C-5.92859432 0.08995387 -3.20100846 -0.33694826 0 0 Z " fill="#453F3B" transform="translate(470,539)"/>
<path d="M0 0 C0.66 0.33 1.32 0.66 2 1 C-3.28 6.28 -8.56 11.56 -14 17 C-14.66 16.67 -15.32 16.34 -16 16 C-10.96679794 10.22494276 -5.96260189 4.82082706 0 0 Z " fill="#88817D" transform="translate(340,298)"/>
<path d="M0 0 C-0.33 3.63 -0.66 7.26 -1 11 C-3.74277578 7.80009492 -5.6302836 4.99500618 -7 1 C-3.375 -1.125 -3.375 -1.125 0 0 Z " fill="#383634" transform="translate(542,587)"/>
<path d="M0 0 C-1.62384142 1.14747465 -3.24911056 2.2929291 -4.875 3.4375 C-6.23238281 4.39462891 -6.23238281 4.39462891 -7.6171875 5.37109375 C-10 7 -10 7 -12 8 C-12 7.01 -12 6.02 -12 5 C-12.66 4.67 -13.32 4.34 -14 4 C-6.00579542 -1.6322805 -6.00579542 -1.6322805 0 0 Z " fill="#3A3734" transform="translate(348,294)"/>
<path d="M0 0 C0.66 0 1.32 0 2 0 C2 2.31 2 4.62 2 7 C1.34 6.67 0.68 6.34 0 6 C-0.13277344 6.79664063 -0.26554687 7.59328125 -0.40234375 8.4140625 C-1.26822917 13.609375 -2.13411458 18.8046875 -3 24 C-3.33 24 -3.66 24 -4 24 C-4.26856555 15.67446795 -3.56998689 7.6499719 0 0 Z " fill="#403D3A" transform="translate(287,464)"/>
<path d="M0 0 C1.52164099 2.89111788 2 4.71823412 2 8 C0 8 0 8 -2.5 5.5625 C-3.325 4.716875 -4.15 3.87125 -5 3 C-5.66 2.67 -6.32 2.34 -7 2 C-7 1.34 -7 0.68 -7 0 C-3.87822605 -1.04059132 -2.92916561 -1.32284898 0 0 Z " fill="#B8A49D" transform="translate(544,650)"/>
<path d="M0 0 C2.29109597 -0.08075665 4.58299267 -0.13907731 6.875 -0.1875 C8.78925781 -0.23970703 8.78925781 -0.23970703 10.7421875 -0.29296875 C11.81726563 -0.19628906 12.89234375 -0.09960938 14 0 C14.66 0.99 15.32 1.98 16 3 C10.26157749 3.20413361 5.39460953 3.27141454 0 1 C0 0.67 0 0.34 0 0 Z " fill="#353330" transform="translate(453,233)"/>
<path d="M0 0 C0.66 0.33 1.32 0.66 2 1 C-2.95 5.95 -7.9 10.9 -13 16 C-13.66 15.67 -14.32 15.34 -15 15 C-10.72226048 9.75976909 -6.16137595 5.36068517 -1 1 C-0.67 0.67 -0.34 0.34 0 0 Z " fill="#8E8783" transform="translate(390,257)"/>
<path d="M0 0 C0.66 0.33 1.32 0.66 2 1 C3.1577506 4.47325181 3.06866652 7.36067448 3 11 C1.35 10.67 -0.3 10.34 -2 10 C-2 9.34 -2 8.68 -2 8 C-1.34 8 -0.68 8 0 8 C0 5.36 0 2.72 0 0 Z " fill="#262421" transform="translate(507,522)"/>
<path d="M0 0 C-6.28571429 4.42857143 -6.28571429 4.42857143 -10 5 C-10 4.34 -10 3.68 -10 3 C-10.66 2.67 -11.32 2.34 -12 2 C-10.75579353 1.4654744 -9.50429064 0.94791389 -8.25 0.4375 C-7.55390625 0.14746094 -6.8578125 -0.14257812 -6.140625 -0.44140625 C-3.69987216 -1.07831803 -2.3596345 -0.80248831 0 0 Z " fill="#4E4744" transform="translate(529,550)"/>
<path d="M0 0 C0.33 0 0.66 0 1 0 C1.08710289 3.10398978 1.14042309 6.20766548 1.1875 9.3125 C1.21263672 10.19357422 1.23777344 11.07464844 1.26367188 11.98242188 C1.27333984 12.82998047 1.28300781 13.67753906 1.29296875 14.55078125 C1.3086792 15.33106689 1.32438965 16.11135254 1.34057617 16.9152832 C1 19 1 19 -2 22 C-1.34 14.74 -0.68 7.48 0 0 Z " fill="#4A4744" transform="translate(490,617)"/>
<path d="M0 0 C0.99 0.33 1.98 0.66 3 1 C2.32902328 5.19360449 0.1441606 8.40334352 -2 12 C-3.12377697 8.69564916 -2.89554742 6.9493138 -1.5625 3.75 C-1.27503906 3.04359375 -0.98757813 2.3371875 -0.69140625 1.609375 C-0.46324219 1.07828125 -0.23507812 0.5471875 0 0 Z " fill="#383533" transform="translate(320,313)"/>
<path d="M0 0 C1 3 1 3 -0.0625 6.0625 C-2.38792283 9.58814107 -3.95845511 10.10187891 -8 11 C-7.59007812 10.45730469 -7.18015625 9.91460937 -6.7578125 9.35546875 C-6.21898437 8.64003906 -5.68015625 7.92460937 -5.125 7.1875 C-4.59132813 6.47980469 -4.05765625 5.77210938 -3.5078125 5.04296875 C-2.29185219 3.39543703 -1.13583859 1.70375789 0 0 Z " fill="#343230" transform="translate(360,350)"/>
<path d="M0 0 C0.33 0 0.66 0 1 0 C1 4.62 1 9.24 1 14 C0.01 13.34 -0.98 12.68 -2 12 C-2.36792655 7.43771074 -2.61838609 3.92757913 0 0 Z " fill="#6C6763" transform="translate(333,446)"/>
<path d="M0 0 C4.875 4.625 4.875 4.625 6 8 C5.01 8 4.02 8 3 8 C1.61328125 6.46875 1.61328125 6.46875 0.3125 4.5 C-0.12449219 3.8503125 -0.56148437 3.200625 -1.01171875 2.53125 C-1.50091797 1.77328125 -1.50091797 1.77328125 -2 1 C-1.34 0.67 -0.68 0.34 0 0 Z " fill="#D1CBC8" transform="translate(598,394)"/>
<path d="M0 0 C0.33 0 0.66 0 1 0 C0.67 3.96 0.34 7.92 0 12 C-0.99 12 -1.98 12 -3 12 C-2.40075776 7.80530429 -1.42500059 3.99000166 0 0 Z " fill="#8F8984" transform="translate(612,454)"/>
<path d="M0 0 C0.99 0.33 1.98 0.66 3 1 C1.7934375 1.7734375 1.7934375 1.7734375 0.5625 2.5625 C-2.66447078 5.63205757 -2.74896257 7.64868459 -3 12 C-3.66 11.67 -4.32 11.34 -5 11 C-4.50769231 4.6 -4.50769231 4.6 -1.9375 1.5625 C-0.9784375 0.7890625 -0.9784375 0.7890625 0 0 Z " fill="#393634" transform="translate(404,306)"/>
<path d="M0 0 C2.31 0.33 4.62 0.66 7 1 C7 1.99 7 2.98 7 4 C4.69 3.67 2.38 3.34 0 3 C0 2.01 0 1.02 0 0 Z " fill="#BEB9B6" transform="translate(439,599)"/>
<path d="M0 0 C1.32 0.33 2.64 0.66 4 1 C4 2.65 4 4.3 4 6 C2.68 6 1.36 6 0 6 C0 4.02 0 2.04 0 0 Z " fill="#635E5A" transform="translate(400,621)"/>
<path d="M0 0 C2.64 0.33 5.28 0.66 8 1 C7.67 2.32 7.34 3.64 7 5 C4.11424181 4.60196439 3.17810487 4.20990931 1.25 1.9375 C0.8375 1.298125 0.425 0.65875 0 0 Z " fill="#A8A09B" transform="translate(463,339)"/>
<path d="M0 0 C3.3 0 6.6 0 10 0 C10.33 0.99 10.66 1.98 11 3 C9.54077307 2.88590407 8.08259402 2.75834456 6.625 2.625 C5.40683594 2.52058594 5.40683594 2.52058594 4.1640625 2.4140625 C2 2 2 2 0 0 Z " fill="#242321" transform="translate(489,317)"/>
<path d="M0 0 C0.33 0.66 0.66 1.32 1 2 C4.3 2 7.6 2 11 2 C11 2.33 11 2.66 11 3 C9.35 3 7.7 3 6 3 C6.33 3.99 6.66 4.98 7 6 C3.62496331 4.8141763 1.35277269 3.72426311 -1 1 C-0.67 0.67 -0.34 0.34 0 0 Z " fill="#B2AAA5" transform="translate(393,217)"/>
<path d="M0 0 C2.64 0.33 5.28 0.66 8 1 C8 1.99 8 2.98 8 4 C5.6875 4.25 5.6875 4.25 3 4 C1.1875 2 1.1875 2 0 0 Z " fill="#6E6966" transform="translate(431,704)"/>
<path d="M0 0 C5.94 1.485 5.94 1.485 12 3 C9 5 9 5 6 5 C6 4.34 6 3.68 6 3 C4.02 2.34 2.04 1.68 0 1 C0 0.67 0 0.34 0 0 Z " fill="#AE9C95" transform="translate(405,578)"/>
<path d="M0 0 C0.598125 0.226875 1.19625 0.45375 1.8125 0.6875 C0.8225 0.6875 -0.1675 0.6875 -1.1875 0.6875 C-3.28100689 4.0894487 -3.36692163 6.74022412 -3.1875 10.6875 C-3.8475 10.6875 -4.5075 10.6875 -5.1875 10.6875 C-5.55141205 3.28795489 -5.55141205 3.28795489 -3.9375 0.625 C-2.1875 -0.3125 -2.1875 -0.3125 0 0 Z " fill="#5A514D" transform="translate(518.1875,469.3125)"/>
<path d="M0 0 C2 0 2 0 3.625 1.25 C5 3 5 3 5 7 C1.83884224 5.63016497 1.0072908 5.0109362 -1 2 C-0.67 1.34 -0.34 0.68 0 0 Z " fill="#B6AFAA" transform="translate(609,409)"/>
<path d="M0 0 C0.928125 0.20625 1.85625 0.4125 2.8125 0.625 C1.8225 0.955 0.8325 1.285 -0.1875 1.625 C-3.24004489 2.73501632 -4.00645569 3.24480696 -5.4375 6.25 C-5.685 7.03375 -5.9325 7.8175 -6.1875 8.625 C-6.5175 8.625 -6.8475 8.625 -7.1875 8.625 C-6.875 5.25 -6.875 5.25 -6.1875 1.625 C-3.1875 -0.375 -3.1875 -0.375 0 0 Z " fill="#8A8480" transform="translate(296.1875,349.375)"/>
<path d="M0 0 C2.97 0.495 2.97 0.495 6 1 C6.33 2.32 6.66 3.64 7 5 C4.61435923 4.42415568 2.33317216 3.77772405 0 3 C0 2.01 0 1.02 0 0 Z " fill="#4E4B47" transform="translate(507,321)"/>
<path d="M0 0 C0.33 0 0.66 0 1 0 C1.33 3.96 1.66 7.92 2 12 C0.68 11.34 -0.64 10.68 -2 10 C-1.34 10 -0.68 10 0 10 C0 6.7 0 3.4 0 0 Z " fill="#78726E" transform="translate(313,535)"/>
<path d="M0 0 C0.33 0 0.66 0 1 0 C0.67 3.63 0.34 7.26 0 11 C-0.33 11 -0.66 11 -1 11 C-1.59732819 8.23735711 -2 5.83967231 -2 3 C-1.34 2.01 -0.68 1.02 0 0 Z " fill="#AB9992" transform="translate(580,502)"/>
<path d="M0 0 C0.66 0 1.32 0 2 0 C1.34 2.64 0.68 5.28 0 8 C-0.99 7.34 -1.98 6.68 -3 6 C-1.125 1.125 -1.125 1.125 0 0 Z " fill="#514D4A" transform="translate(281,381)"/>
<path d="M0 0 C0.99 0.33 1.98 0.66 3 1 C3 2.65 3 4.3 3 6 C2.01 6.33 1.02 6.66 0 7 C0 4.69 0 2.38 0 0 Z " fill="#BFBBB8" transform="translate(414,606)"/>
<path d="M0 0 C2.5654594 2.5654594 2.54046087 4.47686668 3 8 C2.34 8 1.68 8 1 8 C-0.625 5.5 -0.625 5.5 -2 3 C-1.34 3 -0.68 3 0 3 C0 2.01 0 1.02 0 0 Z " fill="#95857F" transform="translate(543,650)"/>
<path d="M0 0 C0.99 0.33 1.98 0.66 3 1 C3 2.32 3 3.64 3 5 C1.68 5 0.36 5 -1 5 C-0.67 3.35 -0.34 1.7 0 0 Z " fill="#BEBAB7" transform="translate(431,594)"/>
<path d="M0 0 C0.66 0.33 1.32 0.66 2 1 C0.88121617 2.17262904 -0.24523051 3.33795138 -1.375 4.5 C-2.00148438 5.1496875 -2.62796875 5.799375 -3.2734375 6.46875 C-5 8 -5 8 -7 8 C-5.61918777 3.8575633 -3.40174442 2.67796901 0 0 Z " fill="#363331" transform="translate(332,299)"/>
<path d="M0 0 C-1.6875 2.0625 -1.6875 2.0625 -4 4 C-6.75 3.75 -6.75 3.75 -9 3 C-5.92807025 0.26939578 -4.09590633 -0.34132553 0 0 Z " fill="#474441" transform="translate(396,253)"/>
<path d="M0 0 C-0.33 0.99 -0.66 1.98 -1 3 C-2.875 3.625 -2.875 3.625 -5 4 C-5.99 4.33 -6.98 4.66 -8 5 C-7 2 -7 2 -5.125 0.8125 C-3 0 -3 0 0 0 Z " fill="#B9B6B4" transform="translate(527,692)"/>
<path d="M0 0 C0 1.98 0 3.96 0 6 C-0.66 5.67 -1.32 5.34 -2 5 C-2.66 5.66 -3.32 6.32 -4 7 C-3.625 4.0625 -3.625 4.0625 -3 1 C-1 0 -1 0 0 0 Z " fill="#363431" transform="translate(280,386)"/>
<path d="M0 0 C0.66 0.33 1.32 0.66 2 1 C2.59528685 3.83906038 3.06881101 6.14434325 3 9 C1.5625 11 1.5625 11 0 12 C-0.33 11.34 -0.66 10.68 -1 10 C-0.67 9.34 -0.34 8.68 0 8 C0.0689472 6.62657169 0.08467708 5.24997898 0.0625 3.875 C0.041875 2.59625 0.02125 1.3175 0 0 Z " fill="#958E89" transform="translate(322,298)"/>
</svg>
