<?xml version="1.0" encoding="UTF-8"?>
<svg version="1.1" xmlns="http://www.w3.org/2000/svg" width="900" height="900">
<path d="M0 0 C0.65864044 0.00337372 1.31728088 0.00674744 1.99588013 0.01022339 C40.55398905 0.29181235 82.27402361 9.87310551 113.80957031 33.24853516 C115.49977233 34.43733987 117.21712432 35.43085624 119.03125 36.41796875 C122.71737198 38.46981399 125.82258424 40.99019841 129 43.75 C129.56678467 44.2356543 130.13356934 44.72130859 130.7175293 45.22167969 C134.26962261 48.29183069 137.66119692 51.46352344 140.91015625 54.85546875 C142.60148776 56.53848905 144.39717295 57.99760704 146.25 59.5 C166.06289838 76.67372851 178.58122782 103.3679437 187.5 127.4375 C187.95955078 128.66082031 188.41910156 129.88414062 188.89257812 131.14453125 C192.95182538 142.14574658 196.03699992 153.2850906 198.75 164.6875 C199.07733627 166.05480759 199.07733627 166.05480759 199.4112854 167.44973755 C204.12876523 187.38646518 206.09739058 206.456773 204.8605957 226.95118713 C204.53233121 232.74610621 204.4562649 238.50179944 204.54296875 244.3046875 C204.55491272 245.12101151 204.56685669 245.93733551 204.5791626 246.77839661 C204.60409788 248.44145952 204.62919445 250.10452003 204.65444946 251.76757812 C204.84882757 266.73487198 204.61373225 280.93296007 200.5 295.4375 C200.31808105 296.13020996 200.13616211 296.82291992 199.94873047 297.53662109 C193.32397818 322.62069211 180.39466768 347.20289787 162.6328125 366.140625 C161.24889802 367.63099444 159.90653478 369.16147832 158.6171875 370.734375 C151.79445846 379.01300019 143.16082535 384.82467348 133.5 389.4375 C135.05142256 397.85168588 136.82441142 406.21244798 139.96484375 414.19140625 C141.65154258 418.62728313 142.68178284 423.10636083 143.625 427.75 C143.88373901 428.99414673 143.88373901 428.99414673 144.14770508 430.26342773 C145.23683584 435.66376694 146.02344493 440.99544851 146.32421875 446.50390625 C146.38902479 448.51921571 146.38902479 448.51921571 147.5 450.4375 C147.7426423 454.39073436 147.68520044 458.35265333 147.6875 462.3125 C147.69974609 463.41464844 147.71199219 464.51679687 147.72460938 465.65234375 C147.72654297 466.71324219 147.72847656 467.77414062 147.73046875 468.8671875 C147.73457764 469.83897949 147.73868652 470.81077148 147.74291992 471.81201172 C147.4940158 474.50217753 146.87312503 476.13614654 145.5 478.4375 C144.51 478.4375 143.52 478.4375 142.5 478.4375 C142.2525 479.30375 142.005 480.17 141.75 481.0625 C139.38325943 487.45269954 135.45544439 491.91296382 130.5 496.4375 C129.84 496.4375 129.18 496.4375 128.5 496.4375 C128.5 497.0975 128.5 497.7575 128.5 498.4375 C125.86 499.0975 123.22 499.7575 120.5 500.4375 C120.438125 501.489375 120.37625 502.54125 120.3125 503.625 C119.41611839 510.6950521 116.97690075 519.28118559 112.0625 524.625 C109.27793607 526.59456961 106.79483888 527.59463424 103.5 528.4375 C103.86464642 534.57007066 103.86464642 534.57007066 106 540.25 C108.28682828 545.10951009 108.25074404 550.1257696 108.5 555.4375 C96.17101721 561.03197532 83.79601028 561.91532177 70.43920898 561.77368164 C68.06784905 561.7500533 65.69762049 561.75315583 63.32617188 561.75976562 C53.24837246 561.73981269 43.46417615 560.93003329 33.5 559.4375 C32.5625 552.0625 32.5625 552.0625 32.27368164 549.74462891 C31.81283545 545.97171662 31.81283545 545.97171662 30.5 542.4375 C28.19 542.7675 25.88 543.0975 23.5 543.4375 C23.644375 544.17355469 23.78875 544.90960937 23.9375 545.66796875 C24.123125 546.64378906 24.30875 547.61960937 24.5 548.625 C24.685625 549.58792969 24.87125 550.55085937 25.0625 551.54296875 C25.46877612 554.2309206 25.57933572 556.72521019 25.5 559.4375 C23.33432456 559.92112696 21.16740259 560.39917317 19 560.875 C17.19015625 561.27525391 17.19015625 561.27525391 15.34375 561.68359375 C-7.16661145 566.09873578 -32.47212771 564.7311778 -54.5 558.4375 C-54.17 549.1975 -53.84 539.9575 -53.5 530.4375 C-54.49 530.7675 -55.48 531.0975 -56.5 531.4375 C-61.74262952 531.83317015 -65.04355112 531.27342201 -69.5 528.4375 C-72.27065743 525.38162784 -72.99334812 522.82275498 -73.75 518.8125 C-74.43114814 515.89999637 -74.43114814 515.89999637 -75.5 513.4375 C-78.25651462 512.20987853 -78.25651462 512.20987853 -80.34765625 511.9921875 C-88.72138394 509.83416693 -96.62967302 501.2857327 -101.5 494.4375 C-103.25893227 491.28831995 -104.85473968 488.11609994 -106.37109375 484.84375 C-107.2868737 482.53735189 -107.2868737 482.53735189 -108.5 481.4375 C-109.325 481.7675 -110.15 482.0975 -111 482.4375 C-115.0873983 483.60532809 -118.26923344 483.5833885 -122.5 483.4375 C-124.94151643 478.69922108 -124.76963605 474.31875273 -124.6875 469.125 C-124.675979 468.22910156 -124.66445801 467.33320312 -124.65258789 466.41015625 C-124.623929 464.59153104 -124.58940423 462.7729882 -124.54882812 460.95458984 C-124.50742696 458.82035981 -124.50704364 456.68539556 -124.515625 454.55078125 C-124.26581016 442.99684499 -121.14691769 432.18687928 -118.19140625 421.07421875 C-116.85351173 416.01029713 -115.83798739 410.96702549 -114.95825195 405.80688477 C-114.1740742 401.75230558 -112.67359557 398.0092594 -111.20703125 394.1640625 C-110.38209753 390.98282638 -110.30047343 389.5018776 -111.5 386.4375 C-113.34526951 384.5485727 -115.06627898 382.98758172 -117.125 381.375 C-117.63417969 380.95412109 -118.14335937 380.53324219 -118.66796875 380.09960938 C-121.33575299 377.9433176 -124.01166268 376.09260638 -127.01953125 374.44140625 C-130.54046969 372.49595667 -133.54559433 370.08424496 -136.5625 367.4375 C-137.69382753 366.45812203 -138.82534474 365.47896314 -139.95703125 364.5 C-140.82642334 363.74396484 -140.82642334 363.74396484 -141.71337891 362.97265625 C-143.50177845 361.43597186 -145.31415518 359.93343752 -147.13671875 358.4375 C-157.97304205 349.48695948 -166.42136595 339.64936983 -173.5 327.4375 C-174.10972656 326.40238281 -174.71945313 325.36726563 -175.34765625 324.30078125 C-179.91950325 315.94332845 -182.00186749 308.00421602 -183.67578125 298.6875 C-184.1288038 296.16665316 -184.6524268 294.00444247 -185.5078125 291.57421875 C-186.99057814 286.88657777 -187.46758527 282.11948722 -188.0625 277.25 C-188.18818359 276.27224609 -188.31386719 275.29449219 -188.44335938 274.28710938 C-188.81549714 271.33923271 -189.1633149 268.38962302 -189.5 265.4375 C-189.5942627 264.64005371 -189.68852539 263.84260742 -189.78564453 263.02099609 C-192.59477102 236.31030761 -193.17171693 207.9178599 -188.5 181.4375 C-188.23243896 179.90609375 -188.23243896 179.90609375 -187.95947266 178.34375 C-185.69251687 165.80397728 -182.59173475 153.55951737 -178.9296875 141.359375 C-177.85324516 137.77172189 -176.95801538 134.17049152 -176.10546875 130.5234375 C-174.61797338 124.50052077 -172.46154313 118.96970231 -169.9375 113.3125 C-169.49841309 112.32040527 -169.05932617 111.32831055 -168.60693359 110.30615234 C-159.52819794 90.13730221 -147.74205825 72.32123034 -133.5 55.4375 C-132.79875 54.51453125 -132.0975 53.5915625 -131.375 52.640625 C-130.75625 51.91359375 -130.1375 51.1865625 -129.5 50.4375 C-128.84 50.4375 -128.18 50.4375 -127.5 50.4375 C-127.17 49.4475 -126.84 48.4575 -126.5 47.4375 C-124.39127484 45.56926923 -122.29343922 43.83498132 -120.0625 42.125 C-119.42505859 41.63443115 -118.78761719 41.1438623 -118.13085938 40.63842773 C-103.36272216 29.41174336 -89.75744995 26.20716555 -71.47460938 24.5637207 C-70.38857422 24.45890381 -69.30253906 24.35408691 -68.18359375 24.24609375 C-67.20962646 24.16157959 -66.23565918 24.07706543 -65.23217773 23.98999023 C-60.19579457 22.97155264 -56.94405067 19.98260809 -53.1171875 16.7109375 C-50.10917392 14.34230845 -46.40153383 11.4375 -42.5 11.4375 C-42.5 10.7775 -42.5 10.1175 -42.5 9.4375 C-40.4664449 8.48253263 -38.42247773 7.54973994 -36.375 6.625 C-35.23804688 6.10292969 -34.10109375 5.58085937 -32.9296875 5.04296875 C-22.31241074 0.85024879 -11.30903126 -0.09296699 0 0 Z " fill="#1D1C1A" transform="translate(420.5,187.5625)"/>
<path d="M0 0 C0.94617188 0.69480469 1.89234375 1.38960937 2.8671875 2.10546875 C3.77726563 2.79253906 4.68734375 3.47960937 5.625 4.1875 C6.44226563 4.79980469 7.25953125 5.41210938 8.1015625 6.04296875 C10.3336647 8.343963 10.68498536 9.85528486 11 13 C12.2065625 13.2475 12.2065625 13.2475 13.4375 13.5 C20.78727103 16.59464043 26.14120767 22.89506115 31.2109375 28.90234375 C33.12146138 31.14241214 35.11935224 33.28234032 37.125 35.4375 C42.97016981 41.91887877 48.16494692 48.88210054 53.38769531 55.86572266 C54.88787722 57.85157824 56.41755676 59.8093681 57.9609375 61.76171875 C66.33374607 72.50877631 77.52719535 88.40170241 76.87890625 102.6640625 C71.3674232 117.31235967 55.28349347 125.78163154 42 132 C38.16385788 133.66604859 34.27294372 135.1694708 30.3671875 136.6640625 C26.55281725 138.17742053 22.96028153 139.96231209 19.32421875 141.85546875 C16.92368029 143.03758265 14.50324871 143.9944156 12 144.9375 C2.55331035 148.6423736 -5.35869651 154.40183498 -13 161 C-13.70125 161.60457031 -14.4025 162.20914063 -15.125 162.83203125 C-26.63055096 173.50612638 -33.64987507 189.14498824 -38 204 C-38.350625 205.15628906 -38.70125 206.31257812 -39.0625 207.50390625 C-40.52561556 213.50985707 -40.60279227 219.65947556 -40.8125 225.8125 C-40.85673096 227.09608398 -40.90096191 228.37966797 -40.9465332 229.70214844 C-41.19409165 240.12442419 -40.26108382 249.8481951 -38 260 C-37.84096191 260.78181641 -37.68192383 261.56363281 -37.51806641 262.36914062 C-37.2712915 263.55540039 -37.2712915 263.55540039 -37.01953125 264.765625 C-36.87233643 265.48008789 -36.7251416 266.19455078 -36.57348633 266.93066406 C-35.9618816 269.13754429 -35.03630703 270.96294674 -34 273 C-33.24077157 275.68500857 -32.53334408 278.35353602 -31.875 281.0625 C-31.69324219 281.78244141 -31.51148438 282.50238281 -31.32421875 283.24414062 C-30.58563412 286.23457537 -30 288.90799657 -30 292 C-29.34 292 -28.68 292 -28 292 C-26.99572108 295.45710552 -25.9973056 298.91587697 -25 302.375 C-24.57074219 303.85226562 -24.57074219 303.85226562 -24.1328125 305.359375 C-23.86210937 306.30039062 -23.59140625 307.24140625 -23.3125 308.2109375 C-23.06113281 309.08024902 -22.80976563 309.94956055 -22.55078125 310.84521484 C-22 313 -22 313 -22 315 C-35.96404149 317.44518026 -53.88005049 315.35450931 -67 310 C-69.7590582 307.2409418 -70.07549408 304.17287911 -70.875 300.4765625 C-71.04463257 299.71077881 -71.21426514 298.94499512 -71.38903809 298.15600586 C-71.93763713 295.6480164 -72.47065672 293.13712045 -73 290.625 C-73.18119385 289.7754071 -73.3623877 288.92581421 -73.54907227 288.05047607 C-76.78883644 272.7115167 -78.54825558 257.69032983 -79 242 C-79.93396612 246.74762228 -80.16066163 251.36493123 -80.16796875 256.1875 C-80.17129715 256.96706055 -80.17462555 257.74662109 -80.17805481 258.54980469 C-80.18309985 260.19709691 -80.18546389 261.84439928 -80.18530273 263.49169922 C-80.18746908 265.96469873 -80.20559452 268.43723667 -80.22460938 270.91015625 C-80.25388616 279.44997065 -79.89632652 287.58775945 -78.4309082 296.01953125 C-77.99200194 299.05532028 -77.92760747 301.9371952 -78 305 C-82.06054812 303.77239243 -85.57571095 302.52980329 -89 300 C-90.36328125 297.1875 -90.36328125 297.1875 -91.3125 294 C-91.63863281 292.948125 -91.96476562 291.89625 -92.30078125 290.8125 C-93 288 -93 288 -93 285 C-93.66 285 -94.32 285 -95 285 C-98.67121943 273.57998537 -101.67751947 262.56786758 -103.42578125 250.6796875 C-103.84611624 247.98611226 -104.29832639 245.31266189 -104.79296875 242.6328125 C-104.93033447 241.88515625 -105.0677002 241.1375 -105.20922852 240.3671875 C-105.47934362 238.91050098 -105.75430056 237.45470098 -106.03491211 236 C-106.85320038 231.5655415 -107.12874624 227.48271011 -107 223 C-107.66 223 -108.32 223 -109 223 C-110.80563423 231.16339984 -111.31665365 238.9654572 -111.25 247.3125 C-111.24311157 249.09708618 -111.24311157 249.09708618 -111.23608398 250.91772461 C-111.15102156 259.14737367 -110.46338492 266.90111398 -109 275 C-108.6121249 278.32890609 -108.29231543 281.66145006 -108 285 C-125.9590666 270.55466382 -135.31824396 253.33959853 -138.88574219 230.85522461 C-139.24934514 228.56662181 -139.63449596 226.28246613 -140.0234375 223.99804688 C-142.76221053 207.63614741 -143.23770713 191.50222812 -143.25 174.9375 C-143.25133942 173.87130432 -143.25267883 172.80510864 -143.25405884 171.706604 C-143.24976464 155.9226051 -142.66599706 140.54532952 -140.40576172 124.90673828 C-140.00618422 122.04430165 -139.68199394 119.1827012 -139.37890625 116.30859375 C-136.95912657 94.44202461 -130.47879507 73.48041832 -121.1640625 53.59375 C-120.08678351 51.19336998 -119.19577948 48.78898452 -118.3125 46.3125 C-108.51237847 21.43526843 -86.01316965 -1.72262894 -61.8125 -12.921875 C-38.20034685 -21.97320037 -18.95785674 -14.57208391 0 0 Z " fill="#A39B96" transform="translate(391,245)"/>
<path d="M0 0 C3.00832704 1.09393711 5.74611341 2.38502931 8.5 4 C11.26708865 5.6161229 13.99321737 6.87245652 17 8 C18.48886719 8.66708984 18.48886719 8.66708984 20.0078125 9.34765625 C24.68807467 11.35982825 29.51731831 12.85443384 34.375 14.375 C35.34308594 14.68171631 36.31117188 14.98843262 37.30859375 15.30444336 C42.48654617 16.93534488 47.67667598 18.49629757 52.90185547 19.96826172 C72.10657402 25.40743846 87.64966582 34.09552387 101 49 C102.35119149 51.70238298 102.13237128 53.86014446 102.125 56.875 C102.12757813 57.92429687 102.13015625 58.97359375 102.1328125 60.0546875 C102.01998664 62.55676685 101.72508762 64.61756923 101 67 C100.0925 66.67 99.185 66.34 98.25 66 C90.49196547 63.80136673 80.50688743 63.88175445 73 67 C60.56744091 74.5300748 51.50290027 85.21952641 43.5 97.1875 C39.74938641 102.6250334 35.40456577 107.76856132 29.0625 110.0625 C28.381875 110.371875 27.70125 110.68125 27 111 C25.82202611 113.81555347 25.82202611 113.81555347 26 117 C26.96432076 118.68756133 27.9731657 120.3497306 29 122 C29.42648592 123.63815785 29.81798673 125.28555831 30.1875 126.9375 C33.06864655 138.14364368 40.13697469 150.34003028 49.875 156.875 C56.3480344 160.27306453 63.85287652 159.90353576 71 160 C71 159.34 71 158.68 71 158 C72.485 157.443125 72.485 157.443125 74 156.875 C81.69851443 153.52242114 86.76802144 148.50017997 91.65234375 141.7578125 C92.09707031 141.17773438 92.54179688 140.59765625 93 140 C93.33 140 93.66 140 94 140 C93.41339754 146.67728333 92.76418989 153.34063095 92 160 C91.34 160 90.68 160 90 160 C89.979375 160.969375 89.95875 161.93875 89.9375 162.9375 C89.13364725 168.41030571 85.57196257 171.98913844 82 176 C81.34902344 176.74507812 80.69804688 177.49015625 80.02734375 178.2578125 C65.32826065 194.02841755 39.34756413 206.66414361 17.875 208.875 C16.59625 208.91625 15.3175 208.9575 14 209 C14 209.66 14 210.32 14 211 C-10.3520945 213.59402083 -35.90017066 213.55783043 -59.89990234 208.61181641 C-63.40860147 207.9193609 -66.92703606 207.33557364 -70.45703125 206.76171875 C-72.99224544 206.34149522 -75.52740279 205.92092862 -78.0625 205.5 C-79.82158691 205.21636597 -79.82158691 205.21636597 -81.61621094 204.92700195 C-94.6287969 202.66579539 -94.6287969 202.66579539 -99 199 C-100.515625 195.78515625 -100.515625 195.78515625 -101.25 192.0625 C-101.53888969 190.72465775 -101.83061622 189.38742531 -102.125 188.05078125 C-102.26421875 187.37740723 -102.4034375 186.7040332 -102.546875 186.01025391 C-103.49690408 181.7955236 -104.93745765 177.71647711 -106.265625 173.609375 C-107 171 -107 171 -107 168 C-107.66 168 -108.32 168 -109 168 C-117.57979639 139.98849084 -122.15228662 113.35323291 -112 85 C-109.50638429 86.20381448 -107.31856917 87.45428722 -105 89 C-105.15855469 90.25296875 -105.31710937 91.5059375 -105.48046875 92.796875 C-107.62393098 112.27458859 -106.86809698 128.77592018 -95 145 C-94.52691406 145.65742188 -94.05382812 146.31484375 -93.56640625 146.9921875 C-85.69261075 157.02960386 -74.38707614 162.10539469 -62 164 C-57.99599482 164.35447522 -54.01873912 164.47708373 -50 164.5 C-49.04520752 164.50636475 -48.09041504 164.51272949 -47.10668945 164.51928711 C-35.08175 164.30179803 -23.54987111 159.61876132 -14.75 151.3125 C-7.96331722 143.99842674 -3.58082999 135.7805755 -0.23828125 126.43359375 C1.19804152 123.61078907 2.17188371 123.21123364 5 122 C6.52066967 119.30308591 6.52066967 119.30308591 6 116 C2.55678138 111.65939863 -2.12612015 108.849397 -6.875 106.125 C-15.28654967 101.22681101 -21.62387046 94.58907273 -27.8125 87.1875 C-40.25250659 72.33755488 -54.39747983 61.23947752 -72 53 C-74.00233098 52.00467561 -76.00294981 51.005878 -78 50 C-75.17754277 47.73650954 -72.4644462 46.18356789 -69.140625 44.765625 C-68.19759521 44.36005371 -67.25456543 43.95448242 -66.28295898 43.53662109 C-65.28208252 43.11203613 -64.28120605 42.68745117 -63.25 42.25 C-62.21883057 41.8060791 -61.18766113 41.3621582 -60.12524414 40.90478516 C-55.56380746 38.94161722 -50.99526471 36.99618268 -46.41796875 35.0703125 C-30.78878547 28.4479674 -18.06752367 21.08643458 -7 8 C-5.69004271 6.49777892 -4.37762069 4.99770284 -3.0625 3.5 C-2.47597656 2.8296875 -1.88945312 2.159375 -1.28515625 1.46875 C-0.86105469 0.9840625 -0.43695313 0.499375 0 0 Z " fill="#D0B9B1" transform="translate(483,356)"/>
<path d="M0 0 C2.10857879 0.01599244 4.21521169 0.00011199 6.32373047 -0.01904297 C16.14120871 -0.03468761 25.30487213 1.25388946 34.87451172 3.39111328 C35.83824707 3.60574219 36.80198242 3.82037109 37.79492188 4.04150391 C40.22610009 4.6072177 42.6446666 5.20666267 45.06201172 5.82861328 C45.90006348 6.04179199 46.73811523 6.2549707 47.6015625 6.47460938 C65.02234004 10.96112036 65.02234004 10.96112036 70.72607422 13.82080078 C73.06418273 14.98695416 75.19827808 15.89769078 77.64013672 16.75830078 C94.52183304 22.9386369 109.32710378 33.92683655 122.35107422 46.05517578 C124.52254061 48.06529483 126.73665962 49.98602436 128.99951172 51.89111328 C150.76472392 70.90796875 164.8562599 97.67871105 172.28466797 125.24707031 C173.10716301 128.23678533 174.00319338 131.20295761 174.89575195 134.17236328 C176.61817607 139.908307 178.22105406 145.62007648 179.41357422 151.49267578 C179.90747416 153.52687384 180.59873591 155.38533329 181.37451172 157.32861328 C185.25109169 167.35260026 185.12404221 177.43572056 184.99951172 188.01611328 C184.9894578 189.51220101 184.98033623 191.00829532 184.97216797 192.50439453 C184.95035479 196.13343954 184.91595913 199.76223313 184.87451172 203.39111328 C180.72731978 201.52627966 178.38102917 198.73962411 175.56201172 195.26611328 C175.07128174 194.67789795 174.58055176 194.08968262 174.07495117 193.48364258 C172.04504124 191.05035954 170.04148713 188.60532516 168.09326172 186.10595703 C151.51800279 165.51373484 124.00651844 159.33215668 99.87451172 152.39111328 C97.95796991 151.83919536 96.04240955 151.28384242 94.12841797 150.72314453 C93.39437744 150.51020752 92.66033691 150.29727051 91.90405273 150.07788086 C89.03122734 149.10575794 86.40452606 147.77426594 83.73388672 146.34814453 C81.65485102 145.23478323 81.65485102 145.23478323 78.43701172 144.07861328 C71.63300611 140.85566325 66.45204649 136.32495465 61.87451172 130.39111328 C60.89091675 129.94433228 60.89091675 129.94433228 59.88745117 129.48852539 C57.42942919 128.14846368 57.00697421 127.21050943 55.97998047 124.64501953 C55.66851074 123.89607422 55.35704102 123.14712891 55.03613281 122.37548828 C54.71467285 121.57626953 54.39321289 120.77705078 54.06201172 119.95361328 C47.85435858 105.38235561 38.69566212 93.70610839 28.87451172 81.39111328 C28.42221191 80.82263672 27.96991211 80.25416016 27.50390625 79.66845703 C22.84906652 73.8373242 18.00057675 68.21893156 12.97216797 62.70751953 C11.16859559 60.71586511 9.42345076 58.69089471 7.68701172 56.64111328 C-7.2281452 39.58038855 -24.49265369 25.6921806 -44.12548828 14.39111328 C-42.63428136 11.40869944 -40.347442 10.87797647 -37.37548828 9.45361328 C-32.97906166 7.34120938 -32.97906166 7.34120938 -28.76416016 4.89916992 C-20.02873212 -0.09331148 -9.79451934 -0.08791398 0 0 Z " fill="#CCC2BC" transform="translate(422.12548828125,204.60888671875)"/>
<path d="M0 0 C6.69862502 5.09973324 12.19399427 11.06024422 17.69140625 17.40625 C18.3771875 18.19 19.06296875 18.97375 19.76953125 19.78125 C20.92370211 21.10030241 22.07416609 22.42262014 23.21875 23.75 C26.74155941 27.75208059 26.74155941 27.75208059 31.69140625 29.40625 C31.81515625 28.6225 31.93890625 27.83875 32.06640625 27.03125 C32.69140625 24.40625 32.69140625 24.40625 34.69140625 22.40625 C37.49929098 27.16744584 39.92665563 31.85586278 38.69140625 37.40625 C32.09778414 47.4045788 23.33476217 55.45166918 12.69140625 60.90625 C11.58817017 61.48197754 11.58817017 61.48197754 10.46264648 62.06933594 C4.46686492 65.13960846 -1.65508318 67.66476392 -7.94140625 70.0703125 C-11.7557765 71.58367053 -15.34831222 73.36856209 -18.984375 75.26171875 C-21.38491346 76.44383265 -23.80534504 77.4006656 -26.30859375 78.34375 C-35.7552834 82.0486236 -43.66729026 87.80808498 -51.30859375 94.40625 C-52.00984375 95.01082031 -52.71109375 95.61539063 -53.43359375 96.23828125 C-64.93914471 106.91237638 -71.95846882 122.55123824 -76.30859375 137.40625 C-76.65921875 138.56253906 -77.00984375 139.71882812 -77.37109375 140.91015625 C-78.83420931 146.91610707 -78.91138602 153.06572556 -79.12109375 159.21875 C-79.16532471 160.50233398 -79.20955566 161.78591797 -79.25512695 163.10839844 C-79.5026854 173.53067419 -78.56967757 183.2544451 -76.30859375 193.40625 C-76.14955566 194.18806641 -75.99051758 194.96988281 -75.82666016 195.77539062 C-75.57988525 196.96165039 -75.57988525 196.96165039 -75.328125 198.171875 C-75.18093018 198.88633789 -75.03373535 199.60080078 -74.88208008 200.33691406 C-74.27047535 202.54379429 -73.34490078 204.36919674 -72.30859375 206.40625 C-71.54936532 209.09125857 -70.84193783 211.75978602 -70.18359375 214.46875 C-70.00183594 215.18869141 -69.82007813 215.90863281 -69.6328125 216.65039062 C-68.89422787 219.64082537 -68.30859375 222.31424657 -68.30859375 225.40625 C-67.64859375 225.40625 -66.98859375 225.40625 -66.30859375 225.40625 C-65.30431483 228.86335552 -64.30589935 232.32212697 -63.30859375 235.78125 C-63.02242188 236.76609375 -62.73625 237.7509375 -62.44140625 238.765625 C-62.03535156 240.17714844 -62.03535156 240.17714844 -61.62109375 241.6171875 C-61.36972656 242.48649902 -61.11835938 243.35581055 -60.859375 244.25146484 C-60.30859375 246.40625 -60.30859375 246.40625 -60.30859375 248.40625 C-63.93859375 248.40625 -67.56859375 248.40625 -71.30859375 248.40625 C-75.13967762 240.05996014 -78.69196535 231.64682788 -80.75 222.66796875 C-81.47928451 219.71513148 -82.37363505 216.81993282 -83.24609375 213.90625 C-85.45566628 206.14001173 -87.10071878 198.38107803 -88.30859375 190.40625 C-88.4468457 189.50406738 -88.58509766 188.60188477 -88.72753906 187.67236328 C-98.30176219 122.39258687 -98.30176219 122.39258687 -87.30859375 100.40625 C-87.00947352 98.38940961 -86.74469838 96.36743817 -86.49609375 94.34375 C-84.72713317 81.66404715 -81.48327849 69.52917916 -77.52270508 57.36816406 C-75.92010779 52.43226568 -74.51567975 47.5008338 -73.24609375 42.46875 C-71.53410728 35.82306414 -69.14461997 29.64783229 -66.30859375 23.40625 C-65.64472656 23.46425781 -64.98085938 23.52226562 -64.296875 23.58203125 C-62.97236328 23.64970703 -62.97236328 23.64970703 -61.62109375 23.71875 C-60.75097656 23.77675781 -59.88085938 23.83476562 -58.984375 23.89453125 C-55.17349831 23.19911579 -53.86993405 21.25874111 -51.30859375 18.40625 C-49.34109012 16.49626984 -47.32265518 14.6419565 -45.30859375 12.78125 C-44.80070312 12.30429687 -44.2928125 11.82734375 -43.76953125 11.3359375 C-40.7854249 8.58137779 -37.81265384 6.43551808 -34.30859375 4.40625 C-32.85695397 3.23607718 -31.41927149 2.04837759 -29.99609375 0.84375 C-20.80108369 -6.3722016 -9.61193199 -6.63564848 0 0 Z " fill="#CDC3BD" transform="translate(429.30859375,311.59375)"/>
<path d="M0 0 C2.10857879 0.01599244 4.21521169 0.00011199 6.32373047 -0.01904297 C16.14120871 -0.03468761 25.30487213 1.25388946 34.87451172 3.39111328 C35.83824707 3.60574219 36.80198242 3.82037109 37.79492188 4.04150391 C40.22610009 4.6072177 42.6446666 5.20666267 45.06201172 5.82861328 C45.90006348 6.04179199 46.73811523 6.2549707 47.6015625 6.47460938 C65.02234004 10.96112036 65.02234004 10.96112036 70.72607422 13.82080078 C73.06418273 14.98695416 75.19827808 15.89769078 77.64013672 16.75830078 C94.52183304 22.9386369 109.32710378 33.92683655 122.35107422 46.05517578 C124.52254061 48.06529483 126.73665962 49.98602436 128.99951172 51.89111328 C150.76472392 70.90796875 164.8562599 97.67871105 172.28466797 125.24707031 C173.10716301 128.23678533 174.00319338 131.20295761 174.89575195 134.17236328 C176.61817607 139.908307 178.22105406 145.62007648 179.41357422 151.49267578 C179.90747416 153.52687384 180.59873591 155.38533329 181.37451172 157.32861328 C185.02712861 166.73446754 185.13327407 176.02509442 184.99951172 186.01611328 C184.99048828 187.30646484 184.98146484 188.59681641 184.97216797 189.92626953 C184.94879652 193.08141577 184.91603263 196.23616254 184.87451172 199.39111328 C184.21451172 199.72111328 183.55451172 200.05111328 182.87451172 200.39111328 C180.933605 196.39021877 178.99480064 192.38831423 177.05786133 188.38549805 C176.39989694 187.02650076 175.74137845 185.66777158 175.08227539 184.30932617 C174.13001815 182.34642197 173.17981827 180.38253292 172.22998047 178.41845703 C171.65916748 177.24017334 171.08835449 176.06188965 170.50024414 174.84790039 C165.87451172 165.01222756 165.87451172 165.01222756 165.87451172 161.39111328 C165.21451172 161.39111328 164.55451172 161.39111328 163.87451172 161.39111328 C162.80938476 158.6837877 161.74712173 155.97540392 160.68701172 153.26611328 C160.36385986 152.44296631 160.04070801 151.61981934 159.70776367 150.77172852 C157.86040378 146.03456665 156.15483537 141.28365046 154.56201172 136.45361328 C151.36619757 127.28724095 146.54803569 118.872845 141.87451172 110.39111328 C140.88451172 110.72111328 139.89451172 111.05111328 138.87451172 111.39111328 C129.09362215 112.31861143 121.28030954 112.54053604 113.10888672 106.38720703 C107.85152943 101.69051197 103.98363889 96.72894943 100.87451172 90.39111328 C100.87451172 89.07111328 100.87451172 87.75111328 100.87451172 86.39111328 C100.21451172 86.39111328 99.55451172 86.39111328 98.87451172 86.39111328 C97.83813633 83.28198711 97.92083349 82.07656214 98.37451172 78.92626953 C99.65468537 69.13693806 99.65468537 69.13693806 96.29101562 60.28027344 C91.70420588 56.10994292 86.36523536 53.19994781 80.87451172 50.39111328 C77.82373047 48.71142578 77.82373047 48.71142578 75.87451172 47.39111328 C75.87451172 46.73111328 75.87451172 46.07111328 75.87451172 45.39111328 C75.14876953 45.27896484 74.42302734 45.16681641 73.67529297 45.05126953 C70.74887179 44.36149941 68.65163363 43.33600514 66.06201172 41.82861328 C65.27181641 41.37357422 64.48162109 40.91853516 63.66748047 40.44970703 C63.07580078 40.10037109 62.48412109 39.75103516 61.87451172 39.39111328 C61.87451172 38.73111328 61.87451172 38.07111328 61.87451172 37.39111328 C61.14401611 37.26655762 60.41352051 37.14200195 59.66088867 37.01367188 C56.97126352 36.41273048 54.78597174 35.5862178 52.29248047 34.43017578 C51.44234375 34.04087891 50.59220703 33.65158203 49.71630859 33.25048828 C48.84039062 32.84314453 47.96447266 32.43580078 47.06201172 32.01611328 C43.67633321 30.45077348 40.28340941 28.90526292 36.87451172 27.39111328 C36.17036133 27.07207031 35.46621094 26.75302734 34.74072266 26.42431641 C29.87343209 24.38019732 25.96956139 24.10804463 20.74951172 24.64111328 C20.07275391 24.69396484 19.39599609 24.74681641 18.69873047 24.80126953 C14.71838869 25.1323231 10.80359531 25.6811854 6.87451172 26.39111328 C6.87451172 27.05111328 6.87451172 27.71111328 6.87451172 28.39111328 C8.85451172 28.39111328 10.83451172 28.39111328 12.87451172 28.39111328 C11.14700111 30.53345374 10.25014225 31.322536 7.49951172 31.82470703 C6.63326172 31.82599609 5.76701172 31.82728516 4.87451172 31.82861328 C4.00826172 31.84794922 3.14201172 31.86728516 2.24951172 31.88720703 C-0.12548828 31.39111328 -0.12548828 31.39111328 -1.89501953 29.62939453 C-3.77508866 26.20945925 -3.80315526 23.25910955 -4.12548828 19.39111328 C-4.96853516 19.18615234 -5.81158203 18.98119141 -6.68017578 18.77001953 C-7.77587891 18.50060547 -8.87158203 18.23119141 -10.00048828 17.95361328 C-11.09103516 17.68677734 -12.18158203 17.41994141 -13.30517578 17.14501953 C-16.12548828 16.39111328 -16.12548828 16.39111328 -18.12548828 15.39111328 C-20.08322898 15.23732476 -22.0456618 15.14139865 -24.00830078 15.07470703 C-25.17490234 15.0328125 -26.34150391 14.99091797 -27.54345703 14.94775391 C-28.76677734 14.9084375 -29.99009766 14.86912109 -31.25048828 14.82861328 C-32.48154297 14.78542969 -33.71259766 14.74224609 -34.98095703 14.69775391 C-38.02901681 14.59142624 -41.07716018 14.48939547 -44.12548828 14.39111328 C-42.63428136 11.40869944 -40.347442 10.87797647 -37.37548828 9.45361328 C-32.97906166 7.34120938 -32.97906166 7.34120938 -28.76416016 4.89916992 C-20.02873212 -0.09331148 -9.79451934 -0.08791398 0 0 Z " fill="#E4DFDC" transform="translate(422.12548828125,204.60888671875)"/>
<path d="M0 0 C3.00832704 1.09393711 5.74611341 2.38502931 8.5 4 C11.26708865 5.6161229 13.99321737 6.87245652 17 8 C17.99257813 8.44472656 18.98515625 8.88945312 20.0078125 9.34765625 C24.68807467 11.35982825 29.51731831 12.85443384 34.375 14.375 C35.34308594 14.68171631 36.31117188 14.98843262 37.30859375 15.30444336 C42.48654617 16.93534488 47.67667598 18.49629757 52.90185547 19.96826172 C72.10657402 25.40743846 87.64966582 34.09552387 101 49 C102.35119149 51.70238298 102.13237128 53.86014446 102.125 56.875 C102.12757813 57.92429687 102.13015625 58.97359375 102.1328125 60.0546875 C102.01998664 62.55676685 101.72508762 64.61756923 101 67 C100.0925 66.67 99.185 66.34 98.25 66 C90.49196547 63.80136673 80.50688743 63.88175445 73 67 C66.19949497 71.11888744 60.38885368 76.18695084 55 82 C54.34 82.66 53.68 83.32 53 84 C52.7525 83.39542969 52.505 82.79085937 52.25 82.16796875 C50.7824144 79.62262498 49.50871917 78.80429193 47 77.3125 C41.44629937 73.77346445 36.77583703 69.51266287 32 65 C31.29746094 64.36191406 30.59492187 63.72382813 29.87109375 63.06640625 C24.19429797 57.72288615 20.11787933 51.57108404 16 45 C16.75951402 55.06356076 20.23313857 63.75149738 26 72 C22.54510052 70.98880991 19.73626429 69.84371217 16.625 68 C13.60138034 66.21481279 10.70824962 65.23092464 7.25 64.50390625 C5 64 5 64 2.5625 63.21484375 C-13.80310125 58.21682632 -30.77524457 60.84646261 -47 65 C-47 65.66 -47 66.32 -47 67 C-50.22866387 65.47577031 -53.1433917 63.64771187 -56.125 61.6875 C-61.2564285 58.39215005 -66.50044437 55.62020713 -72 53 C-73.2097787 52.39873274 -74.41836693 51.79505529 -75.625 51.1875 C-76.40875 50.795625 -77.1925 50.40375 -78 50 C-75.17754277 47.73650954 -72.4644462 46.18356789 -69.140625 44.765625 C-68.19759521 44.36005371 -67.25456543 43.95448242 -66.28295898 43.53662109 C-65.28208252 43.11203613 -64.28120605 42.68745117 -63.25 42.25 C-62.21883057 41.8060791 -61.18766113 41.3621582 -60.12524414 40.90478516 C-55.56380746 38.94161722 -50.99526471 36.99618268 -46.41796875 35.0703125 C-30.78878547 28.4479674 -18.06752367 21.08643458 -7 8 C-5.69004271 6.49777892 -4.37762069 4.99770284 -3.0625 3.5 C-2.47597656 2.8296875 -1.88945312 2.159375 -1.28515625 1.46875 C-0.86105469 0.9840625 -0.43695313 0.499375 0 0 Z " fill="#B29E97" transform="translate(483,356)"/>
<path d="M0 0 C0.90878906 0.27457031 1.81757813 0.54914062 2.75390625 0.83203125 C10.32610502 3.15206607 10.32610502 3.15206607 12.30078125 5.63671875 C13.0625 7.4375 13.0625 7.4375 14 11 C14.34289062 11.67675781 14.68578125 12.35351562 15.0390625 13.05078125 C16.51442709 17.57883111 16.32827096 22.0187108 16.3125 26.75 C16.32861328 27.70132813 16.34472656 28.65265625 16.36132812 29.6328125 C16.36565966 35.95685319 15.400875 41.14633428 13 47 C6.42257602 48.30534618 -0.11689023 49.18038224 -6.8125 49.55078125 C-7.91319069 49.61280731 -7.91319069 49.61280731 -9.03611755 49.67608643 C-17.37615429 50.11467196 -25.71205976 50.23962732 -34.0625 50.25 C-35.25684158 50.25300613 -35.25684158 50.25300613 -36.47531128 50.256073 C-51.36237052 50.26518756 -66.52047724 49.79318101 -81 46 C-80.93941406 45.07445312 -80.87882812 44.14890625 -80.81640625 43.1953125 C-79.97120548 29.80644795 -79.48083575 16.4061954 -79 3 C-78.16359985 2.80422363 -78.16359985 2.80422363 -77.31030273 2.60449219 C-75.63896302 2.21236688 -73.96792862 1.81893904 -72.29711914 1.42456055 C-70.37114966 0.97024025 -68.44453846 0.51863274 -66.51733398 0.06958008 C-62.31931457 -0.91952602 -58.14735389 -1.90422676 -54.0390625 -3.22265625 C-36.6835734 -8.66330957 -16.51635122 -7.79073171 0 0 Z " fill="#A39C98" transform="translate(473,593)"/>
<path d="M0 0 C3.34790291 0.59531372 6.34134272 1.43983037 9.5 2.6875 C14.90902702 4.69864159 20.38730672 6.31103843 25.9375 7.875 C26.84661133 8.13200684 27.75572266 8.38901367 28.69238281 8.65380859 C30.55444249 9.17981599 32.41658476 9.70553111 34.27880859 10.23095703 C50.45405808 14.80228629 66.23233717 20.17180463 82 26 C79.15595424 35.6839758 73.05071202 43.25602741 64.546875 48.62890625 C52.58911318 55.0662903 38.80687418 54.31686811 26.0625 50.65625 C25.381875 50.4396875 24.70125 50.223125 24 50 C24 49.34 24 48.68 24 48 C23.25621094 47.89945312 22.51242187 47.79890625 21.74609375 47.6953125 C17.11989574 46.52395653 14.34480009 43.26594429 11 40 C10.43667969 39.47277344 9.87335938 38.94554687 9.29296875 38.40234375 C1.50363786 30.37637496 -0.18725703 18.42620111 -0.0625 7.6875 C-0.05798828 6.94693359 -0.05347656 6.20636719 -0.04882812 5.44335938 C-0.03712175 3.62887101 -0.01918898 1.81442466 0 0 Z " fill="#D6C9C5" transform="translate(388,456)"/>
<path d="M0 0 C2.49361571 1.20381448 4.68143083 2.45428722 7 4 C6.84144531 5.25296875 6.68289063 6.5059375 6.51953125 7.796875 C4.51458564 26.01588346 4.63435509 42.32740785 15.609375 57.66015625 C17 60 17 60 17 64 C17.5696914 66.140491 18.20116941 68.26497575 18.875 70.375 C19.22304688 71.47585938 19.57109375 72.57671875 19.9296875 73.7109375 C20.93888867 76.81220532 21.96307265 79.90790133 23 83 C23.66 83 24.32 83 25 83 C25.53625 83.99 26.0725 84.98 26.625 86 C29.0681302 90.2733196 31.94147291 94.14985413 35 98 C35.75152344 98.96679688 36.50304687 99.93359375 37.27734375 100.9296875 C40.02393817 104.20208351 43.13380933 106.6266734 46.625 109.0625 C47.24036621 109.4951416 47.85573242 109.9277832 48.48974609 110.37353516 C64.29537724 121.22583461 82.25100512 125.14001512 101.125 125.625 C102.36765625 125.66367187 103.6103125 125.70234375 104.890625 125.7421875 C107.92694319 125.83561268 110.9632685 125.92138119 114 126 C114 126.33 114 126.66 114 127 C72.44841084 127.80532338 72.44841084 127.80532338 52.10009766 123.61181641 C48.59139853 122.9193609 45.07296394 122.33557364 41.54296875 121.76171875 C39.00775456 121.34149522 36.47259721 120.92092862 33.9375 120.5 C32.17841309 120.21636597 32.17841309 120.21636597 30.38378906 119.92700195 C17.3712031 117.66579539 17.3712031 117.66579539 13 114 C11.484375 110.78515625 11.484375 110.78515625 10.75 107.0625 C10.46111031 105.72465775 10.16938378 104.38742531 9.875 103.05078125 C9.73578125 102.37740723 9.5965625 101.7040332 9.453125 101.01025391 C8.50309592 96.7955236 7.06254235 92.71647711 5.734375 88.609375 C5 86 5 86 5 83 C4.34 83 3.68 83 3 83 C-5.57979639 54.98849084 -10.15228662 28.35323291 0 0 Z " fill="#B19D96" transform="translate(371,441)"/>
<path d="M0 0 C2.97 0 5.94 0 9 0 C9 0.66 9 1.32 9 2 C10.32 2.33 11.64 2.66 13 3 C13 3.66 13 4.32 13 5 C13.59369385 5.24943359 14.1873877 5.49886719 14.79907227 5.75585938 C18.89755891 8.07265227 21.0465964 11.80431461 23 16 C23.74479373 19.87485653 23.70977526 23.56749218 23.5625 27.5 C23.56056641 28.48097656 23.55863281 29.46195313 23.55664062 30.47265625 C23.42065949 38.03723648 22.24002453 44.6399632 18 51 C16.08325195 51.70776367 16.08325195 51.70776367 13.73828125 52.16796875 C12.87291748 52.3390918 12.00755371 52.51021484 11.1159668 52.68652344 C10.19082275 52.8518457 9.26567871 53.01716797 8.3125 53.1875 C6.9044812 53.44901855 6.9044812 53.44901855 5.46801758 53.71582031 C-2.4388524 55.09233358 -9.9912823 55.4428784 -18 55 C-17.29370835 51.55784298 -15.93283503 48.66959905 -14.4375 45.5 C-10.71150923 36.66961725 -10.94743409 28.00506943 -14 19 C-15.21977803 16.56509958 -16.5535406 14.31433503 -18 12 C-7.45205479 2 -7.45205479 2 0 2 C0 1.34 0 0.68 0 0 Z " fill="#A39C98" transform="translate(506,584)"/>
<path d="M0 0 C3.413269 0.60411841 6.46497278 1.48382183 9.6875 2.75 C14.81187465 4.65333916 19.98934149 6.21591201 25.25 7.6875 C26.00627686 7.90180664 26.76255371 8.11611328 27.54174805 8.33691406 C31.0354707 9.29884802 34.14646339 10.01195311 37.78125 10.30859375 C41 11 41 11 43.328125 13.3984375 C43.96234375 14.38070312 44.5965625 15.36296875 45.25 16.375 C47.7119998 20.24194571 47.7119998 20.24194571 50.75390625 23.62109375 C51.16511719 24.07613281 51.57632813 24.53117188 52 25 C51.6875 28.6875 51.6875 28.6875 51 32 C46.7170548 31.4520917 44.14864359 29.97567196 40.6875 27.4375 C39.80449219 26.79683594 38.92148437 26.15617188 38.01171875 25.49609375 C37.34785156 25.00238281 36.68398438 24.50867188 36 24 C36 27.12658106 37.93277707 28.62233207 39.875 31 C40.59429687 31.886875 41.31359375 32.77375 42.0546875 33.6875 C43.94732615 36.0046059 43.94732615 36.0046059 46 38 C46 38.99 46 39.98 46 41 C43 43 43 43 41.09765625 42.89453125 C38.24369586 41.67747924 36.58933944 39.91215973 34.4375 37.6875 C33.67308594 36.90761719 32.90867187 36.12773438 32.12109375 35.32421875 C27 29.71270718 27 29.71270718 27 27 C26.34 27 25.68 27 25 27 C25.34933594 27.81984375 25.69867188 28.6396875 26.05859375 29.484375 C26.74115234 31.10085938 26.74115234 31.10085938 27.4375 32.75 C27.88996094 33.81734375 28.34242188 34.8846875 28.80859375 35.984375 C29.73979553 38.3413841 30.4784072 40.52992835 31 43 C25.72250715 42.46148032 21.74354436 41.22656164 17 39 C17 38.34 17 37.68 17 37 C16.154375 36.79375 15.30875 36.5875 14.4375 36.375 C6.16638812 33.06655525 1.9692381 26.73868235 -2 19 C-3.85966547 13.4210036 -4.01385245 7.15443645 -1.5 1.8125 C-1.005 1.214375 -0.51 0.61625 0 0 Z " fill="#B09C95" transform="translate(329,649)"/>
<path d="M0 0 C3.69723607 3.08103006 6.700779 6.22733701 8.25 10.875 C8.48496217 15.18369283 8.43517667 19.49808397 8.4375 23.8125 C8.44974609 25.00552734 8.46199219 26.19855469 8.47460938 27.42773438 C8.47654297 28.57435547 8.47847656 29.72097656 8.48046875 30.90234375 C8.48457764 31.95156006 8.48868652 33.00077637 8.49291992 34.08178711 C8.25071908 36.8667317 7.68513866 38.50632799 6.25 40.875 C4.72959282 40.93006505 3.20857296 40.96826375 1.6875 41 C0.41712891 41.03480469 0.41712891 41.03480469 -0.87890625 41.0703125 C-4.39183347 40.83133786 -7.38603137 39.9158055 -10.75 38.875 C-12.15789578 38.47706225 -13.56679532 38.08266252 -14.9765625 37.69140625 C-16.44280822 37.27378805 -17.90895307 36.85581551 -19.375 36.4375 C-20.48101562 36.13102539 -20.48101562 36.13102539 -21.609375 35.81835938 C-25.72665522 34.63408791 -29.16305051 33.30646972 -32.75 30.875 C-32.20863021 25.84799478 -30.5208223 21.88648109 -28.125 17.5 C-27.76817139 16.8409668 -27.41134277 16.18193359 -27.04370117 15.50292969 C-21.21666847 5.03879211 -13.12872078 -5.37084032 0 0 Z " fill="#A09995" transform="translate(373.75,585.125)"/>
<path d="M0 0 C-1.49943667 16.38190506 -5.84738472 29.26402871 -18.6875 40.3125 C-23.10827738 42.56459414 -27.12839753 43.00996637 -32 42 C-36.56925137 39.4784285 -39.30516009 36.75813328 -42.1875 32.4375 C-42.84105469 31.48746094 -43.49460937 30.53742188 -44.16796875 29.55859375 C-46.78621443 25.08684431 -47.80292853 19.99703185 -49 15 C-47.97229492 14.7054895 -47.97229492 14.7054895 -46.92382812 14.4050293 C-43.78158655 13.50251005 -40.64079402 12.59504339 -37.5 11.6875 C-36.42234375 11.37876953 -35.3446875 11.07003906 -34.234375 10.75195312 C-28.3772366 9.05552584 -22.68474374 7.20209021 -17 5 C-14.38448282 4.07530597 -11.75649027 3.19054766 -9.125 2.3125 C-8.46242188 2.08755859 -7.79984375 1.86261719 -7.1171875 1.63085938 C-2.23948043 0 -2.23948043 0 0 0 Z " fill="#D5C8C4" transform="translate(573,462)"/>
<path d="M0 0 C11.38325905 1.81097303 21.84811124 5.14790743 32.6328125 9.15869141 C35.7667907 10.2725207 38.95036262 11.20567386 42.14990234 12.11279297 C44.48805996 13.23404723 45.08606745 14.33822849 46.25 16.625 C47.63251112 20.1456088 47.63251112 20.1456088 50.5 21.125 C53.07932329 21.25832729 53.07932329 21.25832729 54.75 19.4375 C57 18 57 18 59.14453125 18.20703125 C62.50410212 18.96144216 65.73365755 19.91121918 69 21 C69 22.32 69 23.64 69 25 C61.13078579 32.77417539 50.63594831 34.41726792 40.06030273 34.36474609 C33.79857728 34.18151968 27.96774874 32.89882914 22 31 C22 30.34 22 29.68 22 29 C21.25621094 28.89945312 20.51242187 28.79890625 19.74609375 28.6953125 C13.00803925 26.98923327 6.86572027 19.6119179 3 14 C0.53458649 9.21802814 -0.137771 5.39603087 0 0 Z " fill="#FBECE7" transform="translate(390,475)"/>
<path d="M0 0 C9.18680954 0.09557149 17.83423998 2.84015734 25.390625 8.0546875 C27.28594429 9.33681526 29.21065277 10.33999294 31.25 11.375 C38.00489386 15.08266044 43.97814122 19.98704755 50.08007812 24.66015625 C52.28714297 26.34078348 54.50791352 28.00142136 56.734375 29.65625 C57.45939209 30.19564209 58.18440918 30.73503418 58.93139648 31.29077148 C60.32319206 32.32541022 61.71589404 33.35883108 63.10961914 34.39086914 C63.73989014 34.86129639 64.37016113 35.33172363 65.01953125 35.81640625 C65.57229736 36.22705322 66.12506348 36.6377002 66.69458008 37.06079102 C68.33315403 38.37941739 69.773872 39.81639764 71.25 41.3125 C65.26003561 40.10103424 59.55293212 38.52833891 53.796875 36.484375 C52.20210803 35.92900018 50.60729853 35.37374745 49.01245117 34.81860352 C47.78345596 34.38778976 47.78345596 34.38778976 46.52963257 33.94827271 C34.44736043 29.7175607 22.38906994 25.57704849 10.02954102 22.22119141 C1.94936693 20.01354955 -5.89673552 17.21501715 -13.75 14.3125 C-13.14466304 10.63844092 -11.56662645 8.49704714 -9.25 5.625 C-8.6209375 4.83738281 -7.991875 4.04976563 -7.34375 3.23828125 C-4.79993674 0.16450689 -4.04210447 0.11098264 0 0 Z " fill="#7B6D68" transform="translate(389.75,419.6875)"/>
<path d="M0 0 C-0.50660156 0.79664063 -0.50660156 0.79664063 -1.0234375 1.609375 C-1.46945312 2.31578125 -1.91546875 3.0221875 -2.375 3.75 C-2.81585938 4.44609375 -3.25671875 5.1421875 -3.7109375 5.859375 C-4.91880906 7.86517383 -5.98387737 9.89178296 -7 12 C-9.31 11.67 -11.62 11.34 -14 11 C-15.1577506 14.47325181 -15.06866652 17.36067448 -15 21 C-13.39125 21.185625 -13.39125 21.185625 -11.75 21.375 C-9.80078125 21.921875 -9.80078125 21.921875 -8 23 C-6.6900602 25.37845724 -5.88759865 27.7713352 -5.01171875 30.33984375 C-2.10797939 37.97477235 4.86795508 45.63420217 12.30908203 49.06445312 C15.04122915 50.01433407 17.20261473 50.30807171 20.08203125 50.4140625 C21.01337891 50.45273437 21.94472656 50.49140625 22.90429688 50.53125 C23.86400391 50.5621875 24.82371094 50.593125 25.8125 50.625 C26.79154297 50.66367187 27.77058594 50.70234375 28.77929688 50.7421875 C31.18601374 50.83610816 33.59273012 50.92178201 36 51 C36 51.33 36 51.66 36 52 C-10.90441441 52.7404761 -10.90441441 52.7404761 -29 48 C-28.93941406 47.07445312 -28.87882812 46.14890625 -28.81640625 45.1953125 C-27.97120548 31.80644795 -27.48083575 18.4061954 -27 5 C-26.37432129 4.85377197 -25.74864258 4.70754395 -25.10400391 4.55688477 C-22.27705709 3.89467208 -19.45102513 3.2286345 -16.625 2.5625 C-15.64015625 2.33240234 -14.6553125 2.10230469 -13.640625 1.86523438 C-12.69960938 1.64287109 -11.75859375 1.42050781 -10.7890625 1.19140625 C-9.91975098 0.98717041 -9.05043945 0.78293457 -8.15478516 0.57250977 C-2.818058 -0.8454174 -2.818058 -0.8454174 0 0 Z " fill="#8A827D" transform="translate(421,591)"/>
<path d="M0 0 C4.00749966 1.11346098 7.07812878 3.05557682 10.44921875 5.40625 C11.4239917 6.07466919 11.4239917 6.07466919 12.41845703 6.7565918 C28.7430023 18.09074242 28.7430023 18.09074242 30.05078125 22.66796875 C30.15519531 23.77591797 30.15519531 23.77591797 30.26171875 24.90625 C31.06609375 25.07125 31.87046875 25.23625 32.69921875 25.40625 C40.04898978 28.50089043 45.40292642 34.80131115 50.47265625 40.80859375 C52.38318013 43.04866214 54.38107099 45.18859032 56.38671875 47.34375 C62.25543461 53.84340289 67.45252089 60.85013893 72.70458984 67.84814453 C74.14874173 69.75692478 75.61484388 71.64543439 77.09375 73.52734375 C77.5165625 74.07148926 77.939375 74.61563477 78.375 75.17626953 C79.4953152 76.61726127 80.62240626 78.0529779 81.75 79.48828125 C83.26171875 81.90625 83.26171875 81.90625 83.26171875 85.90625 C80.58203125 86.29296875 80.58203125 86.29296875 77.26171875 85.90625 C75.24050313 83.85738857 73.7543719 82.05231368 72.13671875 79.71875 C71.18325309 78.42478448 70.22476889 77.13450432 69.26171875 75.84765625 C68.77058594 75.18910645 68.27945313 74.53055664 67.7734375 73.85205078 C65.39721834 70.79351287 62.79110002 67.97342993 60.13671875 65.15625 C59.63422607 64.62153076 59.1317334 64.08681152 58.61401367 63.53588867 C57.62940967 62.48961644 56.64399875 61.44410287 55.65771484 60.39941406 C53.5495121 58.14447038 51.50107509 55.83741112 49.44921875 53.53125 C46.26053622 49.95852907 42.95981222 46.56703658 39.4765625 43.28125 C38.26171875 41.90625 38.26171875 41.90625 38.26171875 39.90625 C37.70484375 39.679375 37.14796875 39.4525 36.57421875 39.21875 C33.59760328 37.5293196 31.65689051 35.36197385 29.26171875 32.90625 C15.83722169 19.044347 15.83722169 19.044347 -0.5390625 9.08203125 C-2.75514665 7.89723315 -4.19217623 6.88266257 -5.73828125 4.90625 C-5.73828125 3.91625 -5.73828125 2.92625 -5.73828125 1.90625 C-2.73828125 -0.09375 -2.73828125 -0.09375 0 0 Z " fill="#C7BDB7" transform="translate(371.73828125,233.09375)"/>
<path d="M0 0 C-1.20381031 6.70269689 -6.90763525 11.4128002 -12.125 15.375 C-22.8446351 22.53788981 -35.57419006 28.27778384 -47.84375 32.18359375 C-50.43694731 33.16543838 -52.62836632 34.56890534 -55 36 C-56.54905623 36.63784668 -58.11228746 37.2422991 -59.6875 37.8125 C-69.26002052 41.57060065 -77.25119911 47.30901239 -85 54 C-86.051875 54.90685547 -86.051875 54.90685547 -87.125 55.83203125 C-101.00915088 68.71283528 -111.37403871 91.28494203 -112.37890625 110.2421875 C-112.44848496 112.11949978 -112.50954811 113.99714519 -112.5625 115.875 C-112.79331991 122.95675126 -113.20270549 129.95739134 -114 137 C-116.30733388 133.53899918 -116.25695537 132.1902949 -116.265625 128.109375 C-116.26997559 126.93213867 -116.27432617 125.75490234 -116.27880859 124.54199219 C-116.26930176 123.29063477 -116.25979492 122.03927734 -116.25 120.75 C-116.24178223 119.47543945 -116.23356445 118.20087891 -116.22509766 116.88769531 C-115.90498524 89.92252673 -108.14117617 68.10983947 -88.86328125 48.8671875 C-81.03724222 41.78724144 -68.86839333 31 -58 31 C-58 30.34 -58 29.68 -58 29 C-57.39414062 28.82984375 -56.78828125 28.6596875 -56.1640625 28.484375 C-49.92912128 26.68103815 -43.97853617 24.51727839 -38 22 C-36.73307969 21.48956653 -35.46615207 20.97915118 -34.19921875 20.46875 C-25.58236243 16.92782968 -18.29558703 12.89170435 -11 7 C-9.3146906 5.66389886 -7.62731701 4.33039562 -5.9375 3 C-5.22464844 2.4225 -4.51179688 1.845 -3.77734375 1.25 C-2 0 -2 0 0 0 Z " fill="#DFDAD7" transform="translate(463,352)"/>
<path d="M0 0 C2.25433614 5.56069582 2.59961828 11.0785651 3 17 C-6.94676253 20.17449868 -16.60825387 20.133038 -27 20 C-27 20.66 -27 21.32 -27 22 C-32.61 22 -38.22 22 -44 22 C-44 15.4 -44 8.8 -44 2 C-39.34112676 1.71235182 -34.68221148 1.42661249 -30.02294922 1.14550781 C-28.442154 1.04958499 -26.86142256 0.95260444 -25.28076172 0.85449219 C-16.84236206 0.33142883 -8.45942898 -0.13562211 0 0 Z " fill="#78706C" transform="translate(500,667)"/>
<path d="M0 0 C0.88816406 0.05027344 1.77632813 0.10054687 2.69140625 0.15234375 C3.61824219 0.22066406 4.54507812 0.28898438 5.5 0.359375 C6.39589844 0.41222656 7.29179687 0.46507812 8.21484375 0.51953125 C11.77446922 0.73913512 15.32613657 0.99161384 18.87507629 1.34764099 C25.76076345 2.0264474 32.59524322 2.31430483 39.51171875 2.42578125 C40.60595657 2.44656235 41.7001944 2.46734344 42.82759094 2.48875427 C46.28083773 2.55349561 49.73415245 2.61277951 53.1875 2.671875 C55.54623064 2.71513217 57.90495471 2.75874859 60.26367188 2.80273438 C66.00904535 2.9090982 71.75448453 3.01099634 77.5 3.109375 C77.16601562 5.51464844 77.16601562 5.51464844 76.5 8.109375 C73.84375 9.625 73.84375 9.625 70.5 11.109375 C67.74469872 13.07553659 65.02215277 15.06059053 62.35546875 17.14453125 C59.44286794 19.27858482 57.90219387 20.12772238 54.24609375 19.9609375 C51.28464967 19.04259496 49.1141827 17.76714939 46.5 16.109375 C44.81995256 15.3985857 43.1388059 14.68984922 41.4453125 14.01171875 C39.19123093 12.96615079 37.21422508 11.63994827 35.125 10.296875 C31.85818961 8.47341085 29.88582083 7.75541122 26.1875 8.484375 C21.38849569 9.92660652 16.82615594 12.05674886 12.296875 14.18359375 C9.03826876 15.26221062 7.72044676 15.23578704 4.5 14.109375 C1.38671875 12.3671875 1.38671875 12.3671875 -1.8125 10.234375 C-2.88113281 9.53570313 -3.94976562 8.83703125 -5.05078125 8.1171875 C-5.85902344 7.45460938 -6.66726563 6.79203125 -7.5 6.109375 C-7.5 3.109375 -7.5 3.109375 -6.28125 1.42871094 C-3.98752209 -0.27020705 -2.82440575 -0.1822567 0 0 Z " fill="#9D9692" transform="translate(389.5,695.890625)"/>
<path d="M0 0 C14.68185501 -0.2051812 29.33181567 0.42316129 44 1 C44 7.6 44 14.2 44 21 C33.78819632 21.16879014 23.80046585 20.95827025 13.625 20.0625 C12.63298584 19.97564941 11.64097168 19.88879883 10.61889648 19.79931641 C6.64803046 19.42864286 2.85456346 19.05743192 -1 18 C-1.09706112 11.88514973 -0.77040851 6.06696699 0 0 Z " fill="#77706C" transform="translate(402,668)"/>
<path d="M0 0 C2.31 0 4.62 0 7 0 C7 1.65 7 3.3 7 5 C6.27554688 5.12117187 5.55109375 5.24234375 4.8046875 5.3671875 C-1.16976033 6.3860376 -1.16976033 6.3860376 -7 8 C-26.07885161 14.3596172 -48.2335029 13.36913253 -68.0625 13.3125 C-69.21978607 13.31233887 -70.37707214 13.31217773 -71.56942749 13.31201172 C-88.88254136 13.29525241 -105.8778843 12.72677489 -123 10 C-123.33 8.02 -123.66 6.04 -124 4 C-122.37510429 3.9721976 -120.75005717 3.9532554 -119.125 3.9375 C-118.22007812 3.92589844 -117.31515625 3.91429687 -116.3828125 3.90234375 C-113.74050672 3.97862279 -111.25099743 4.18678252 -108.6340332 4.4934082 C-102.24811296 5.1434882 -95.88708242 5.18006022 -89.47265625 5.203125 C-88.1815242 5.20991272 -86.89039215 5.21670044 -85.56013489 5.22369385 C-82.10472861 5.23934563 -78.6493706 5.24584427 -75.19393158 5.24838257 C-73.77118619 5.24946222 -72.34844114 5.25119318 -70.92569733 5.25357056 C-49.76966392 5.28823812 -28.8083223 4.81865272 -7.78076172 2.27539062 C-5.16453266 2.01629437 -2.62673189 1.94940484 0 2 C0 1.34 0 0.68 0 0 Z " fill="#98918D" transform="translate(517,646)"/>
<path d="M0 0 C7.00006551 -0.46053063 13.46071759 1.24317407 20.25 2.8125 C21.41402344 3.07353516 22.57804688 3.33457031 23.77734375 3.60351562 C43.82929466 8.15057056 43.82929466 8.15057056 53.0625 12.4375 C54.44064355 13.06417999 55.81954921 13.68918676 57.19921875 14.3125 C57.85196777 14.60769531 58.5047168 14.90289062 59.17724609 15.20703125 C61.53699699 16.23361455 63.94888724 17.0816744 66.375 17.9375 C78.59941282 22.84348326 91.61716469 36.12353873 99 47 C99 47.66 99 48.32 99 49 C95.61868691 47.53678604 93.48028589 45.64444103 90.875 43.0625 C74.16113306 27.82338602 53.94016428 21.65171573 32.6640625 15.61328125 C28.95158005 14.55781809 25.2394754 13.50177853 21.53515625 12.41796875 C20.76051025 12.19262451 19.98586426 11.96728027 19.18774414 11.73510742 C16.26338927 10.75249025 13.60140658 9.42245708 10.88671875 7.96875 C9.0012026 7.00061748 7.10521152 6.2512555 5.125 5.5 C2 4 2 4 0.5625 1.8125 C0.376875 1.214375 0.19125 0.61625 0 0 Z " fill="#DED9D5" transform="translate(495,343)"/>
<path d="M0 0 C2 0 2 0 3.48583984 1.05883789 C8.31133328 5.88801267 8.72127889 10.07988779 8.73242188 16.75732422 C8.69697266 17.97178223 8.66152344 19.18624023 8.625 20.4375 C8.60244141 21.69578613 8.57988281 22.95407227 8.55664062 24.25048828 C8.27873115 33.69819141 7.1741458 42.06415618 4 51 C3.69433105 51.89009766 3.38866211 52.78019531 3.07373047 53.69726562 C-3.18609066 71.84743481 -3.18609066 71.84743481 -7 79 C-8.0305726 75.90828219 -7.79561046 74.39827116 -7.28466797 71.27539062 C-6.64179543 66.1368211 -6.69875775 60.92190045 -6.5625 55.75 C-6.29689439 47.24344186 -5.95863263 38.77838921 -5.0625 30.3125 C-4.98781494 29.59094727 -4.91312988 28.86939453 -4.83618164 28.12597656 C-4.33030927 23.7248352 -3.47881903 19.47158001 -2.47924805 15.1574707 C-1.80096432 12.10398456 -1.33089834 9.03109591 -0.875 5.9375 C-0.70742188 4.81214844 -0.53984375 3.68679688 -0.3671875 2.52734375 C-0.24601563 1.69332031 -0.12484375 0.85929687 0 0 Z " fill="#9D9691" transform="translate(600,428)"/>
<path d="M0 0 C7.4632057 2.15702577 14.79753322 4.60983516 22.125 7.1875 C23.7028125 7.73954102 23.7028125 7.73954102 25.3125 8.30273438 C27.87569766 9.19985356 30.4381741 10.09897271 33 11 C31.68018255 15.68187876 29.80204328 19.00374921 26.875 22.875 C26.15054687 23.84179688 25.42609375 24.80859375 24.6796875 25.8046875 C24.12539063 26.52914063 23.57109375 27.25359375 23 28 C22.67 27.01 22.34 26.02 22 25 C20.0880169 24.58212948 18.1700737 24.19146191 16.25 23.8125 C15.18265625 23.59207031 14.1153125 23.37164062 13.015625 23.14453125 C9.44252775 22.97328177 8.61091939 23.70678098 6 26 C3.5 26 3.5 26 1 25 C-3.85862349 19.87145298 -4.32788559 15.55441135 -4.30078125 8.7421875 C-3.87009794 4.81569809 -2.55170596 2.95041002 0 0 Z " fill="#92BCD6" transform="translate(437,471)"/>
<path d="M0 0 C0.66 0 1.32 0 2 0 C0.46104034 4.72180806 -1.14040825 9.40871725 -2.875 14.0625 C-4.56265354 18.6441906 -6.02068588 23.26762783 -7.4375 27.9375 C-8.88443155 32.70138053 -10.46544543 37.25866939 -12.5 41.8125 C-21.44871742 62.58933287 -22.34962583 84.72600673 -23 107 C-27.34547809 100.48178286 -26.18611001 92.48138356 -26.18530273 84.92041016 C-26.18746 82.66679136 -26.2055536 80.41368666 -26.22460938 78.16015625 C-26.29448924 60.47702649 -23.98221149 43.60099184 -16.203125 27.50390625 C-15.1143605 25.23800351 -14.18157077 22.95816134 -13.25 20.625 C-10.44066046 14.21691972 -6.05995097 8.65885059 -2 3 C-1.34 2.01 -0.68 1.02 0 0 Z " fill="#242220" transform="translate(351,351)"/>
<path d="M0 0 C0.99 0.66 1.98 1.32 3 2 C2.01 2.33 1.02 2.66 0 3 C-1.2730239 4.69673188 -1.2730239 4.69673188 -2.33984375 6.83203125 C-2.76152832 7.62536865 -3.18321289 8.41870605 -3.61767578 9.23608398 C-4.05321777 10.08630127 -4.48875977 10.93651855 -4.9375 11.8125 C-5.38335449 12.67238525 -5.82920898 13.53227051 -6.28857422 14.41821289 C-12.04136775 25.67995708 -12.04136775 25.67995708 -14 38 C-25.70615034 35.10933941 -25.70615034 35.10933941 -30 32 C-29.45863021 26.97299478 -27.7708223 23.01148109 -25.375 18.625 C-25.01817139 17.9659668 -24.66134277 17.30693359 -24.29370117 16.62792969 C-18.72272093 6.62360903 -12.44961039 -1.79516854 0 0 Z " fill="#88827F" transform="translate(371,584)"/>
<path d="M0 0 C1.24652344 -0.00257813 2.49304688 -0.00515625 3.77734375 -0.0078125 C7.0625 0.125 7.0625 0.125 10.0625 1.125 C10.0625 4.095 10.0625 7.065 10.0625 10.125 C2.9644197 13.72769734 -4.18126054 16.24488188 -11.83374023 18.33666992 C-16.39194548 19.59706457 -20.59470946 21.22471823 -24.9375 23.125 C-27.19610891 23.91104694 -29.46704796 24.66274022 -31.75 25.375 C-33.43029297 25.90867187 -33.43029297 25.90867187 -35.14453125 26.453125 C-37.9375 27.125 -37.9375 27.125 -39.9375 26.125 C-38.81871617 24.95237096 -37.69226949 23.78704862 -36.5625 22.625 C-35.93601562 21.9753125 -35.30953125 21.325625 -34.6640625 20.65625 C-32.9375 19.125 -32.9375 19.125 -30.9375 19.125 C-30.9375 18.465 -30.9375 17.805 -30.9375 17.125 C-22.46176809 9.07551379 -12.0042139 -0.0247765 0 0 Z " fill="#786B66" transform="translate(571.9375,432.875)"/>
<path d="M0 0 C4.42083165 0.7468201 8.58156741 2.11710006 12.8125 3.5625 C13.85180664 3.91344727 13.85180664 3.91344727 14.91210938 4.27148438 C16.60900114 4.84491676 18.30463078 5.42208169 20 6 C20 6.66 20 7.32 20 8 C20.66 8 21.32 8 22 8 C22.3125 10.1875 22.3125 10.1875 22 13 C19.40560608 16.35745095 17.83783875 17.79449238 13.6875 18.8125 C12.800625 18.874375 11.91375 18.93625 11 19 C11.20238281 19.53367187 11.40476562 20.06734375 11.61328125 20.6171875 C13.16823458 25.63821 13.17298577 28.63897045 10.875 33.4375 C9.05638251 36.87565554 7.70744818 38.67591136 4 40 C0.75 40.125 0.75 40.125 -2 40 C-3.4386498 34.24540079 -2.40391396 30.20803383 -0.8359375 24.5546875 C0.75109526 17.80609025 1.30623941 10.88863458 2 4 C1.34 4 0.68 4 0 4 C0 2.68 0 1.36 0 0 Z " fill="#3C3938" transform="translate(321,572)"/>
<path d="M0 0 C3.20505373 1.00946574 5.19684025 2.20170792 7.8515625 4.25 C8.79386719 4.96542969 9.73617188 5.68085938 10.70703125 6.41796875 C11.22313965 6.81677246 11.73924805 7.21557617 12.27099609 7.62646484 C14.85071698 9.60944525 17.46172057 11.55010271 20.06884766 13.49682617 C22.71926961 15.47738502 25.36350948 17.46604818 28.00537109 19.45800781 C29.37907568 20.48905188 30.75737712 21.51398765 32.13916016 22.53417969 C32.84476074 23.05657227 33.55036133 23.57896484 34.27734375 24.1171875 C34.91454346 24.58624512 35.55174316 25.05530273 36.20825195 25.53857422 C37.93409588 26.90390429 39.43520435 28.37053182 40.9765625 29.9375 C34.84729684 28.70048078 29.00076991 27.06741162 23.1015625 25.00390625 C22.29219238 24.72530258 21.48282227 24.44669891 20.64892578 24.15965271 C18.08985885 23.27769078 15.53317246 22.38905579 12.9765625 21.5 C10.41942959 20.61608568 7.86182634 19.73354206 5.30419922 18.85105896 C3.7220891 18.30459039 2.14035439 17.75703315 0.55908203 17.20814514 C-4.62194373 15.41096612 -9.81741382 13.66090213 -15.0234375 11.9375 C-13.320087 8.26374828 -11.41203365 6.22623044 -8.2734375 3.625 C-7.43296875 2.90699219 -6.5925 2.18898438 -5.7265625 1.44921875 C-3.0234375 -0.0625 -3.0234375 -0.0625 0 0 Z " fill="#8D7E79" transform="translate(420.0234375,431.0625)"/>
<path d="M0 0 C1.92960571 0.24447876 1.92960571 0.24447876 3.89819336 0.49389648 C8.8247557 1.03915505 13.67670329 1.12850688 18.62890625 1.09765625 C19.94156715 1.09553383 19.94156715 1.09553383 21.28074646 1.09336853 C24.04136762 1.08782719 26.80190388 1.07528612 29.5625 1.0625 C31.44856653 1.0574774 33.33463434 1.05291583 35.22070312 1.04882812 C39.81383417 1.03787707 44.40690275 1.02065384 49 1 C49.99 4.3 50.98 7.6 52 11 C34.12176642 13.64135075 16.8060602 13.08239361 -1 10 C-1.125 2.25 -1.125 2.25 0 0 Z " fill="#605A57" transform="translate(380,726)"/>
<path d="M0 0 C4.60524933 0.52425829 8.85795068 1.82824516 13 3.875 C22.77482378 8.46178023 34.30692346 10.32107451 45 11 C45 13.97 45 16.94 45 20 C36.82586406 20.42280014 29.38547928 20.2081094 21.4375 18.1875 C20.45716797 17.9395166 20.45716797 17.9395166 19.45703125 17.68652344 C15.35062143 16.5648652 11.77005063 14.94845147 8 13 C6.05336587 12.24015195 4.09510205 11.50924341 2.125 10.8125 C0.67480469 10.29623047 0.67480469 10.29623047 -0.8046875 9.76953125 C-1.52914063 9.51558594 -2.25359375 9.26164063 -3 9 C-2.69181644 7.68647977 -2.37832335 6.37420428 -2.0625 5.0625 C-1.88847656 4.33160156 -1.71445312 3.60070312 -1.53515625 2.84765625 C-1 1 -1 1 0 0 Z " fill="#77706C" transform="translate(334,627)"/>
<path d="M0 0 C0.93092208 2.51862966 1.14010478 3.64238094 0.14453125 6.18359375 C-4.11934344 13.39841984 -7.98644149 19.65186939 -16 23 C-21.02075449 23.89877704 -24.77053919 23.59196261 -29.375 21.375 C-32.22718685 18.79444999 -34.13931003 16.36355494 -36 13 C-36 12.01 -36 11.02 -36 10 C-34.84242188 9.66226562 -33.68484375 9.32453125 -32.4921875 8.9765625 C-30.95310788 8.52610017 -29.41404633 8.07557606 -27.875 7.625 C-27.11445312 7.40328125 -26.35390625 7.1815625 -25.5703125 6.953125 C-22.23003635 5.97407854 -18.92368842 4.9736185 -15.6328125 3.8359375 C-13 3 -13 3 -10 3 C-9.34 4.32 -8.68 5.64 -8 7 C-5.58414426 6.96906827 -5.58414426 6.96906827 -3 6 C-1.14083176 3.03292954 -1.14083176 3.03292954 0 0 Z " fill="#F7E9E4" transform="translate(567,481)"/>
<path d="M0 0 C7.42857143 -0.28571429 7.42857143 -0.28571429 11 2 C11 2.66 11 3.32 11 4 C11.59369385 4.24943359 12.1873877 4.49886719 12.79907227 4.75585938 C16.89755891 7.07265227 19.0465964 10.80431461 21 15 C21.74479373 18.87485653 21.70977526 22.56749218 21.5625 26.5 C21.56056641 27.48097656 21.55863281 28.46195313 21.55664062 29.47265625 C21.42065949 37.03723648 20.24002453 43.6399632 16 50 C12.375 50.1875 12.375 50.1875 9 50 C9.13277344 49.43152344 9.26554688 48.86304688 9.40234375 48.27734375 C9.57894531 47.50519531 9.75554688 46.73304688 9.9375 45.9375 C10.11152344 45.18339844 10.28554688 44.42929687 10.46484375 43.65234375 C12.5980655 33.07966075 14.36515391 19.80528128 9 10 C6.71968931 7.36887228 4.49142546 5.35860777 1.6875 3.3125 C1.130625 2.879375 0.57375 2.44625 0 2 C0 1.34 0 0.68 0 0 Z " fill="#BDB9B6" transform="translate(508,585)"/>
<path d="M0 0 C6.45306452 1.04081686 10.67561374 5.15902147 14.9375 9.9375 C16.37644728 14.06248222 16.62013427 18.31490962 15.875 22.625 C14.65234375 24.421875 14.65234375 24.421875 12.875 25.625 C9.37998136 26.11827285 6.23728281 25.66196573 2.875 24.625 C0.30180058 22.62836809 -1.35983229 20.33974638 -3.125 17.625 C-3.74375 16.84125 -4.3625 16.0575 -5 15.25 C-6.61603178 11.47925918 -6.89657465 7.66442024 -6.125 3.625 C-4.12176137 1.00900602 -3.33411877 0.66682375 0 0 Z " fill="#9C9590" transform="translate(504.125,280.375)"/>
<path d="M0 0 C5.02317267 0.49408256 6.29156918 1.85406918 9.8125 5.375 C12.2419516 9.0191774 11.97429575 11.08741272 11.8125 15.375 C14.23392034 13.49167307 16.55208565 11.64409483 18.6875 9.4375 C23.43223292 4.83231805 28.95808918 0.375 35.8125 0.375 C35.8125 1.035 35.8125 1.695 35.8125 2.375 C34.22834424 3.57666948 32.5922646 4.71008757 30.9375 5.8125 C21.6984762 12.39144497 14.97760575 20.45894541 9.1875 30.16015625 C7.8125 32.375 7.8125 32.375 5.8125 34.375 C6.53974594 28.84793087 8.14695973 23.67539859 9.8125 18.375 C8.760625 18.4575 7.70875 18.54 6.625 18.625 C2.20195355 18.33496417 0.85671365 17.50619118 -2.1875 14.375 C-4.01042074 11.38110588 -4.43841164 9.17514047 -4.375 5.6875 C-4.36855469 4.89988281 -4.36210937 4.11226563 -4.35546875 3.30078125 C-4.07012758 0.0293116 -3.37120564 0.39661243 0 0 Z " fill="#7D7773" transform="translate(301.1875,293.625)"/>
<path d="M0 0 C12.46491228 1.28947368 12.46491228 1.28947368 16.1875 5.4375 C17.0846875 6.7059375 17.0846875 6.7059375 18 8 C18.598125 8.45375 19.19625 8.9075 19.8125 9.375 C21 11 21 11 20.6875 14.6875 C20.460625 15.780625 20.23375 16.87375 20 18 C15.7170548 17.4520917 13.14864359 15.97567196 9.6875 13.4375 C8.36298828 12.47650391 8.36298828 12.47650391 7.01171875 11.49609375 C6.34785156 11.00238281 5.68398438 10.50867188 5 10 C5 13.12658106 6.93277707 14.62233207 8.875 17 C9.59429687 17.886875 10.31359375 18.77375 11.0546875 19.6875 C12.94732615 22.0046059 12.94732615 22.0046059 15 24 C15 24.99 15 25.98 15 27 C12 29 12 29 10.10546875 28.90234375 C7.20438286 27.65902122 5.50094917 25.82329459 3.3125 23.5625 C2.52488281 22.75941406 1.73726563 21.95632813 0.92578125 21.12890625 C-2.27069384 17.5952776 -2.16109514 15.32506461 -2.1875 10.625 C-2.20167969 9.48289062 -2.21585937 8.34078125 -2.23046875 7.1640625 C-2.01170034 4.16063184 -1.57080637 2.52074066 0 0 Z " fill="#C9B3AB" transform="translate(360,663)"/>
<path d="M0 0 C1.44207941 2.88415883 1.09394887 5.41721528 1.0625 8.625 C1.05347656 9.81351563 1.04445313 11.00203125 1.03515625 12.2265625 C1.02355469 13.14179687 1.01195312 14.05703125 1 15 C-12.98514879 22.2423092 -12.98514879 22.2423092 -20 22 C-20.34227513 20.4811541 -20.67331214 18.95977467 -21 17.4375 C-21.2784375 16.16712891 -21.2784375 16.16712891 -21.5625 14.87109375 C-22.06867314 11.54933253 -22.06635491 8.35507021 -22 5 C-20.95199219 4.72285156 -19.90398438 4.44570313 -18.82421875 4.16015625 C-17.44529933 3.79432048 -16.0663938 3.42843233 -14.6875 3.0625 C-13.65206055 2.78889648 -13.65206055 2.78889648 -12.59570312 2.50976562 C-3.14985795 0 -3.14985795 0 0 0 Z " fill="#776F6B" transform="translate(533,659)"/>
<path d="M0 0 C2.91691481 8.19080097 4.62867565 15.28585694 4 24 C-1.57468542 27.61601216 -6.60567654 27.30720059 -13 27 C-13.10957031 26.05898438 -13.21914063 25.11796875 -13.33203125 24.1484375 C-13.56986328 22.28058594 -13.56986328 22.28058594 -13.8125 20.375 C-13.96332031 19.14523437 -14.11414063 17.91546875 -14.26953125 16.6484375 C-15.00613809 12.96934238 -16.25727796 10.29601778 -18 7 C-18.1875 4.125 -18.1875 4.125 -18 2 C-16.02 2 -14.04 2 -12 2 C-7.88187516 9.3295066 -5.03758779 15.50515863 -5 24 C-4.9727633 21.47909222 -4.95304793 18.95848543 -4.9375 16.4375 C-4.92912109 15.73302734 -4.92074219 15.02855469 -4.91210938 14.30273438 C-4.89117397 9.75975202 -5.25199318 5.48215108 -6 1 C-3 0 -3 0 0 0 Z " fill="#968F8B" transform="translate(497,696)"/>
<path d="M0 0 C-0.28416601 2.37611155 -0.57708901 4.75060496 -0.875 7.125 C-0.99294922 8.12273437 -0.99294922 8.12273437 -1.11328125 9.140625 C-1.64388026 13.30378644 -2.54186554 17.06671292 -4 21 C-4.66 21 -5.32 21 -6 21 C-7.38938077 22.96147874 -8.7260411 24.96166576 -10 27 C-12.3125 26.9375 -12.3125 26.9375 -15 26 C-18.63055821 20.24118353 -18.32453395 14.646936 -18 8 C-19.98 8 -21.96 8 -24 8 C-20.51030272 5.67353515 -16.97180475 4.6283347 -13 3.4375 C-11.56246248 2.99882085 -10.12496109 2.56002329 -8.6875 2.12109375 C-7.470625 1.75113281 -6.25375 1.38117188 -5 1 C-2 0 -2 0 0 0 Z " fill="#93B9D1" transform="translate(573,462)"/>
<path d="M0 0 C0.66 0 1.32 0 2 0 C7.15577986 5.78072287 7.28079774 10.27269153 7.22265625 17.78125 C6.94920651 21.73427779 5.81967287 24.49544484 4 28 C3.52021248 29.40954525 3.06341135 30.82704203 2.625 32.25 C0.86462134 37.70058418 -1.55443775 42.82855414 -4 48 C-4.33 48 -4.66 48 -5 48 C-5.14636916 37.00605007 -5.17538422 26.17290037 -2.54296875 15.4453125 C-1.41171972 10.35062262 -0.75000242 5.16225069 0 0 Z " fill="#AAA29D" transform="translate(600,428)"/>
<path d="M0 0 C6.95776959 1.36874156 13.38603107 3.4533129 20 6 C18.68018255 10.68187876 16.80204328 14.00374921 13.875 17.875 C13.15054687 18.84179688 12.42609375 19.80859375 11.6796875 20.8046875 C11.12539063 21.52914063 10.57109375 22.25359375 10 23 C9.67 22.01 9.34 21.02 9 20 C6.99264169 19.26639432 6.99264169 19.26639432 4.625 18.9375 C1.29648197 18.36829089 -0.08927425 17.94048384 -3 16 C-2.2575 14.2675 -2.2575 14.2675 -1.5 12.5 C0.15562957 8.14717108 0.24775605 4.62477967 0 0 Z " fill="#D6CAC7" transform="translate(450,476)"/>
<path d="M0 0 C14.19 0 28.38 0 43 0 C42.67 1.65 42.34 3.3 42 5 C39.4375 6.4375 39.4375 6.4375 36 8 C33.86061908 9.54003673 31.79607934 11.15079727 29.734375 12.79296875 C28 14 28 14 26 14 C24.7109375 12.5390625 24.7109375 12.5390625 23.375 10.625 C22.92898438 9.99851562 22.48296875 9.37203125 22.0234375 8.7265625 C21 7 21 7 21 5 C20.319375 5.33 19.63875 5.66 18.9375 6 C15.41915953 7.19773293 12.69316465 7.34841176 9 7 C7 4 7 4 7 1 C5.02 1.33 3.04 1.66 1 2 C0.67 1.34 0.34 0.68 0 0 Z " fill="#8B837E" transform="translate(424,699)"/>
<path d="M0 0 C2.578125 1.42578125 2.578125 1.42578125 5.25 3.3125 C12.86070097 8.36249595 19.92524685 10.51487169 29 11 C29.94359375 11.06445312 30.8871875 11.12890625 31.859375 11.1953125 C41.35729638 11.54971255 49.90301872 9.44038779 59 7 C56.02490961 10.16365245 53.52564553 12.57737263 49.5 14.25 C48.7678125 14.56453125 48.035625 14.8790625 47.28125 15.203125 C36.84428412 18.84891445 23.22750057 18.32264262 13.1875 13.70703125 C8.96451985 11.52253753 5.60059264 9.65779193 2.375 6.125 C-0.39610268 3.64559234 -1.21784216 3.69307311 -4.8125 3.6875 C-6.20993879 3.76728851 -7.60696395 3.86342784 -9 4 C-9 3.34 -9 2.68 -9 2 C-5.83136544 0.12229063 -3.66890056 -0.3684922 0 0 Z " fill="#2A2725" transform="translate(468,537)"/>
<path d="M0 0 C5.28 0 10.56 0 16 0 C14.68 0.33 13.36 0.66 12 1 C12 6.94 12 12.88 12 19 C3 19 3 19 -1 18 C-1.09706112 11.88514973 -0.77040851 6.06696699 0 0 Z " fill="#504B48" transform="translate(402,668)"/>
<path d="M0 0 C4.66055143 1.37075042 7.68560284 3.9785037 10.625 7.8125 C11.49341819 11.09319094 10.97298814 13.67470311 10.1875 16.9375 C6.9118083 19.12129446 5.98679471 19.48025639 2.1875 18.9375 C-1.56850236 16.52292705 -4.03809559 14.04664706 -5.8125 9.9375 C-6.21442573 7.07997327 -6.10057097 4.8662215 -5.8125 1.9375 C-2.8125 -0.0625 -2.8125 -0.0625 0 0 Z " fill="#7E7874" transform="translate(286.8125,353.0625)"/>
<path d="M0 0 C1.79244141 0.23009766 1.79244141 0.23009766 3.62109375 0.46484375 C10.08534064 1.1830934 16.56549882 1.35180512 23.0625 1.5625 C24.93325195 1.62727539 24.93325195 1.62727539 26.84179688 1.69335938 C29.89444091 1.79862296 32.94715523 1.90075941 36 2 C36 2.33 36 2.66 36 3 C31.05 3 26.1 3 21 3 C21 5.97 21 8.94 21 12 C18.08302989 11.85895309 15.1665198 11.71235186 12.25 11.5625 C11.0125 11.50352539 11.0125 11.50352539 9.75 11.44335938 C8.95078125 11.40146484 8.1515625 11.35957031 7.328125 11.31640625 C6.5949707 11.27974854 5.86181641 11.24309082 5.10644531 11.20532227 C2.98822395 10.99885215 1.0480544 10.56867914 -1 10 C-1.125 2.25 -1.125 2.25 0 0 Z " fill="#484441" transform="translate(380,726)"/>
<path d="M0 0 C4.6023355 0.5460398 5.81249611 1.90535236 8.6875 5.4375 C11.14561625 9.12467438 10.99868164 11.08095704 10.6875 15.4375 C8.6875 18.4375 8.6875 18.4375 5.5 19.125 C0.65635423 18.25155568 -0.9958399 16.51785421 -3.9921875 12.7421875 C-6.12254895 9.02350923 -5.96468382 6.64046237 -5.3125 2.4375 C-3.3125 0.4375 -3.3125 0.4375 0 0 Z " fill="#7D7773" transform="translate(327.3125,464.5625)"/>
<path d="M0 0 C3.625 -0.1875 3.625 -0.1875 7 0 C7 0.66 7 1.32 7 2 C7.598125 2.226875 8.19625 2.45375 8.8125 2.6875 C11.70715882 4.42429529 12.63035715 5.9183036 14 9 C14.3125 12.6875 14.3125 12.6875 14 16 C12 18 12 18 8.6875 18.4375 C5 18 5 18 2.0625 15.625 C0 13 0 13 0 11 C-0.66 11 -1.32 11 -2 11 C-2.25 3.375 -2.25 3.375 0 0 Z " fill="#7D7773" transform="translate(328,339)"/>
<path d="M0 0 C-0.845625 0.76183594 -1.69125 1.52367187 -2.5625 2.30859375 C-14.49066808 13.13093225 -25.15033646 24.20472675 -32 39 C-32.33 39 -32.66 39 -33 39 C-32.80745405 27.83233487 -27.1062992 17.06161649 -19.453125 9.046875 C-6.15272727 -2.05090909 -6.15272727 -2.05090909 0 0 Z " fill="#2A2926" transform="translate(383,254)"/>
<path d="M0 0 C3.91061327 1.3703306 7.06701812 3.06701812 10 6 C9.625 8.625 9.625 8.625 9 11 C3.09924362 12.96691879 -2.88117159 12.88818984 -8.5 10.125 C-10.73860964 8.886425 -12.16993191 7.83006809 -14 6 C-13.8125 4 -13.8125 4 -13 2 C-8.72550786 -0.84966143 -5.01892796 -0.62273257 0 0 Z " fill="#C1BDBA" transform="translate(460,591)"/>
<path d="M0 0 C2.83359844 -0.05449228 5.66612485 -0.09390733 8.5 -0.125 C9.29148437 -0.14175781 10.08296875 -0.15851563 10.8984375 -0.17578125 C24.92193062 -0.29072791 36.06911972 5.64880879 46.234375 15.046875 C48 17 48 17 48 19 C44.30745702 17.59640179 40.7777403 15.95392052 37.22705078 14.23291016 C26.19263011 8.90363097 15.27007457 4.08551356 3.01171875 2.45703125 C2.01591797 2.23080078 2.01591797 2.23080078 1 2 C0.67 1.34 0.34 0.68 0 0 Z " fill="#2C2B28" transform="translate(520,318)"/>
<path d="M0 0 C1.32414917 0.07456421 1.32414917 0.07456421 2.67504883 0.15063477 C4.07339966 0.25396118 4.07339966 0.25396118 5.5 0.359375 C6.91671997 0.44626587 6.91671997 0.44626587 8.36206055 0.53491211 C14.74988457 0.94002581 21.13713317 1.40901261 27.5 2.109375 C27.5 2.439375 27.5 2.769375 27.5 3.109375 C25.43757383 3.13655192 23.37504297 3.1558508 21.3125 3.171875 C20.16394531 3.18347656 19.01539063 3.19507813 17.83203125 3.20703125 C14.90699414 3.12130332 12.33683709 2.78786523 9.5 2.109375 C9.5 2.769375 9.5 3.429375 9.5 4.109375 C10.16 4.109375 10.82 4.109375 11.5 4.109375 C12.125 6.984375 12.125 6.984375 12.5 10.109375 C11.84 10.769375 11.18 11.429375 10.5 12.109375 C9.18 12.109375 7.86 12.109375 6.5 12.109375 C6.5 12.769375 6.5 13.429375 6.5 14.109375 C7.49 14.439375 8.48 14.769375 9.5 15.109375 C4.95384653 14.55270315 1.97125476 12.75687818 -1.8125 10.234375 C-2.88113281 9.53570313 -3.94976562 8.83703125 -5.05078125 8.1171875 C-5.85902344 7.45460938 -6.66726563 6.79203125 -7.5 6.109375 C-7.5 3.109375 -7.5 3.109375 -6.28125 1.42871094 C-3.98752209 -0.27020705 -2.82440575 -0.1822567 0 0 Z " fill="#97918D" transform="translate(389.5,695.890625)"/>
<path d="M0 0 C10.97281688 -1.15638585 21.49064386 2.24862978 32 5 C28.85426323 7.09715785 26.98543749 7.52004559 23.3125 8.125 C22.31863281 8.29257812 21.32476562 8.46015625 20.30078125 8.6328125 C19.54152344 8.75398437 18.78226562 8.87515625 18 9 C18 9.66 18 10.32 18 11 C14.52674819 12.1577506 11.63932552 12.06866652 8 12 C7.690625 10.9171875 7.690625 10.9171875 7.375 9.8125 C6.02566553 7.05249768 5.19979435 6.15478986 2.875 4.3125 C1.92625 3.549375 0.9775 2.78625 0 2 C0 1.34 0 0.68 0 0 Z " fill="#BC9F95" transform="translate(382,575)"/>
<path d="M0 0 C6.44897281 0.73414646 12.21660368 3.18349966 18 6 C17.01 6.495 17.01 6.495 16 7 C15.53476937 8.89533342 15.53476937 8.89533342 15.375 11.0625 C15.25125 12.361875 15.1275 13.66125 15 15 C15.99 15 16.98 15 18 15 C18 15.66 18 16.32 18 17 C10.84624625 14.67503003 3.88937021 12.01409947 -3 9 C-2.69181644 7.68647977 -2.37832335 6.37420428 -2.0625 5.0625 C-1.88847656 4.33160156 -1.71445312 3.60070312 -1.53515625 2.84765625 C-1 1 -1 1 0 0 Z " fill="#655E5A" transform="translate(334,627)"/>
<path d="M0 0 C2.31 0 4.62 0 7 0 C7 2.97 7 5.94 7 9 C11.04220481 8.8896357 15.08351915 8.75911994 19.125 8.625 C20.26710938 8.5940625 21.40921875 8.563125 22.5859375 8.53125 C23.69453125 8.49257813 24.803125 8.45390625 25.9453125 8.4140625 C26.96125488 8.3826416 27.97719727 8.3512207 29.02392578 8.31884766 C34.97550648 7.68121317 39.17235185 5.4483201 44 2 C46.62187494 3.04874998 47.79371361 3.64931313 49.25 6.125 C49.4975 6.74375 49.745 7.3625 50 8 C41.83078612 11.14200534 33.40033571 11.16964278 24.75 11.125 C23.38161987 11.12209961 23.38161987 11.12209961 21.9855957 11.11914062 C14.95136807 11.07438809 7.99982085 10.72725411 1 10 C0.67 6.7 0.34 3.4 0 0 Z " fill="#45423F" transform="translate(465,726)"/>
<path d="M0 0 C5.64661947 15.85590913 5.64661947 15.85590913 4 24 C0.5647952 26.29013653 -0.985331 26.17842973 -5 26 C-4.98839844 24.78183594 -4.97679687 23.56367187 -4.96484375 22.30859375 C-4.95545822 20.68489738 -4.94635884 19.06119933 -4.9375 17.4375 C-4.92912109 16.63763672 -4.92074219 15.83777344 -4.91210938 15.01367188 C-4.89257753 10.22836896 -5.19562982 5.71854949 -6 1 C-3 0 -3 0 0 0 Z " fill="#9C9692" transform="translate(497,696)"/>
<path d="M0 0 C-1 2 -1 2 -2.96875 2.74609375 C-3.8040625 2.97425781 -4.639375 3.20242188 -5.5 3.4375 C-8.86334331 4.38821778 -12.19184169 5.37168172 -15.5 6.5 C-20.29738403 8.12201356 -25.14240638 9.57010292 -30 11 C-29.07038578 9.84775972 -28.1309875 8.70340824 -27.1875 7.5625 C-26.66542969 6.92441406 -26.14335938 6.28632813 -25.60546875 5.62890625 C-24 4 -24 4 -21 3 C-21 2.34 -21 1.68 -21 1 C-13.4530641 -5.73105094 -8.60103289 -3.35294502 0 0 Z " fill="#8D7E78" transform="translate(562,449)"/>
<path d="M0 0 C0.50917969 0.44988281 1.01835937 0.89976562 1.54296875 1.36328125 C1.54296875 2.02328125 1.54296875 2.68328125 1.54296875 3.36328125 C-4.13580343 2.4759731 -9.36263533 0.3930035 -14.5 -2.1328125 C-19.4227182 -4.25308438 -24.61343128 -4.69543456 -29.89453125 -5.32421875 C-30.91224609 -5.45376953 -31.92996094 -5.58332031 -32.97851562 -5.71679688 C-35.47035261 -6.03266354 -37.96296758 -6.33903915 -40.45703125 -6.63671875 C-29.74582188 -17.34792812 -9.90337497 -6.59700177 0 0 Z " fill="#373532" transform="translate(503.45703125,266.63671875)"/>
<path d="M0 0 C0 0.66 0 1.32 0 2 C-1.58415576 3.20166948 -3.2202354 4.33508757 -4.875 5.4375 C-14.1140238 12.01644497 -20.83489425 20.08394541 -26.625 29.78515625 C-28 32 -28 32 -30 34 C-28.8739989 23.30298957 -23.81375203 13.76000947 -15.5 6.953125 C-5.84607438 0 -5.84607438 0 0 0 Z " fill="#292725" transform="translate(337,294)"/>
<path d="M0 0 C-1.33333333 4 -2.66666667 8 -4 12 C-9.52677733 12.19392201 -13.75614911 11.7479503 -19 10 C-19 8.35 -19 6.7 -19 5 C-18.08476562 4.72285156 -17.16953125 4.44570313 -16.2265625 4.16015625 C-15.03804687 3.79792969 -13.84953125 3.43570313 -12.625 3.0625 C-11.44164062 2.70285156 -10.25828125 2.34320312 -9.0390625 1.97265625 C-2.87550201 0 -2.87550201 0 0 0 Z " fill="#C3C0BD" transform="translate(528,689)"/>
<path d="M0 0 C4.01868507 1.33956169 5.12247846 3.90964739 7.1875 7.375 C7.55552734 7.96539062 7.92355469 8.55578125 8.30273438 9.1640625 C10.01741309 11.98898773 11 13.63751052 11 17 C4.00477327 17 4.00477327 17 1.35546875 14.36328125 C-1.32824112 10.3029133 -2.82729769 6.96378614 -2 2 C-1.34 1.34 -0.68 0.68 0 0 Z " fill="#7E7773" transform="translate(449,320)"/>
<path d="M0 0 C2.31 0 4.62 0 7 0 C13.18565022 11.17847534 13.18565022 11.17847534 12.73046875 15.64453125 C11.875 17.8125 11.875 17.8125 10 21 C6.75791433 20.64950425 5.38472296 20.43778819 3.1875 17.9375 C2.5996875 16.9784375 2.5996875 16.9784375 2 16 C4.31 16.33 6.62 16.66 9 17 C8.06506561 15.10290012 7.12693704 13.20737422 6.1875 11.3125 C5.66542969 10.25675781 5.14335937 9.20101563 4.60546875 8.11328125 C3.1713272 5.33223304 1.64396622 2.66095433 0 0 Z " fill="#958E8A" transform="translate(451,320)"/>
<path d="M0 0 C3.0625 0.25 3.0625 0.25 6.0625 2.25 C6.375 5.75 6.375 5.75 6.0625 9.25 C4.0625 11.25 4.0625 11.25 2.1171875 11.4453125 C0.09895833 11.38020833 -1.91927083 11.31510417 -3.9375 11.25 C-5.44412097 8.23675805 -5.11520373 5.56713623 -4.9375 2.25 C-2.9375 0.25 -2.9375 0.25 0 0 Z " fill="#C1BCB9" transform="translate(506.9375,617.75)"/>
<path d="M0 0 C1.41179301 2.82358602 1.28379289 5.29085463 1.375 8.4375 C1.42398438 9.59121094 1.47296875 10.74492188 1.5234375 11.93359375 C1 15 1 15 -1.3984375 16.91015625 C-4 18 -4 18 -6 18 C-6 12.72 -6 7.44 -6 2 C-2 0 -2 0 0 0 Z " fill="#9E948F" transform="translate(533,659)"/>
<path d="M0 0 C14.19 0 28.38 0 43 0 C42.67 1.65 42.34 3.3 42 5 C41.34 4.67 40.68 4.34 40 4 C40.66 3.01 41.32 2.02 42 1 C33.75 1 25.5 1 17 1 C17 2.65 17 4.3 17 6 C16 7 16 7 12.5625 7.25 C11.386875 7.1675 10.21125 7.085 9 7 C7 4 7 4 7 1 C5.02 1.33 3.04 1.66 1 2 C0.67 1.34 0.34 0.68 0 0 Z " fill="#625D5A" transform="translate(424,699)"/>
<path d="M0 0 C3.12606798 -0.39907251 5.14511207 -0.46880951 7.9375 1.0625 C9.63181173 4.15212727 8.73951685 6.67217418 8 10 C7 11 7 11 5.1875 11.1328125 C4.465625 11.13023437 3.74375 11.12765625 3 11.125 C2.278125 11.12757813 1.55625 11.13015625 0.8125 11.1328125 C-1 11 -1 11 -2 10 C-2.35897436 3.53846154 -2.35897436 3.53846154 0 0 Z " fill="#B3AEAB" transform="translate(407,602)"/>
<path d="M0 0 C11.11794026 -0.49291361 17.80627909 1.95841197 27 8 C23.35420395 9.30477141 21.01329738 8.67424442 17.359375 7.56640625 C16.28945313 7.24736328 15.21953125 6.92832031 14.1171875 6.59960938 C12.45042969 6.08624023 12.45042969 6.08624023 10.75 5.5625 C9.62335938 5.22412109 8.49671875 4.88574219 7.3359375 4.53710938 C4.5544639 3.70031011 1.77613344 2.85431674 -1 2 C-0.67 1.34 -0.34 0.68 0 0 Z " fill="#413E3B" transform="translate(478,313)"/>
<path d="M0 0 C7.40239645 -0.12886183 14.63959083 0.20274098 22 1 C22 1.33 22 1.66 22 2 C19.93757383 2.02717692 17.87504297 2.0464758 15.8125 2.0625 C14.66394531 2.07410156 13.51539063 2.08570313 12.33203125 2.09765625 C9.40699414 2.01192832 6.83683709 1.67849023 4 1 C4 1.66 4 2.32 4 3 C4.66 3 5.32 3 6 3 C6.38133299 4.9914056 6.71325582 6.99279077 7 9 C6 10 6 10 3.125 10.25 C0 10 0 10 -1.9375 8.8125 C-3 7 -3 7 -2.6875 4.3125 C-2.460625 3.549375 -2.23375 2.78625 -2 2 C-1.34 2 -0.68 2 0 2 C0 1.34 0 0.68 0 0 Z " fill="#6E6966" transform="translate(395,697)"/>
<path d="M0 0 C7.07721931 -0.12109311 13.97195301 0.14626761 21 1 C21 1.33 21 1.66 21 2 C19.02 2 17.04 2 15 2 C15 3.65 15 5.3 15 7 C8.07 6.505 8.07 6.505 1 6 C0.67 4.02 0.34 2.04 0 0 Z " fill="#7C736E" transform="translate(393,650)"/>
<path d="M0 0 C1.98 0 3.96 0 6 0 C7.3058334 3.92128522 6.38030356 5.97831091 4.59960938 9.68359375 C4.25736328 10.36550781 3.91511719 11.04742187 3.5625 11.75 C3.22412109 12.44738281 2.88574219 13.14476562 2.53710938 13.86328125 C1.70193542 15.58068121 0.85234576 17.29105738 0 19 C-0.33 19 -0.66 19 -1 19 C-1.02714735 16.77090129 -1.04646254 14.54170633 -1.0625 12.3125 C-1.07990234 10.45044922 -1.07990234 10.45044922 -1.09765625 8.55078125 C-1.01478673 5.53764546 -0.70839449 2.91724661 0 0 Z " fill="#C9BFB9" transform="translate(596,457)"/>
<path d="M0 0 C2.1105164 0.95107666 4.13780792 1.94621546 6.140625 3.10546875 C6.140625 3.43546875 6.140625 3.76546875 6.140625 4.10546875 C2.78619836 3.96526895 -0.56784275 3.81728447 -3.921875 3.66796875 C-4.86482422 3.62865234 -5.80777344 3.58933594 -6.77929688 3.54882812 C-11.87052978 3.31821479 -16.83002256 2.93555605 -21.859375 2.10546875 C-14.7932966 -1.42757045 -7.79258053 -2.43784282 0 0 Z " fill="#2D2B28" transform="translate(450.859375,229.89453125)"/>
<path d="M0 0 C3.39527689 1.40494216 5.30647023 2.69761694 7 6 C7.24492511 9.01726886 7.17422028 11.98018176 7 15 C3.05879291 14.43697042 0.2491277 13.3208055 -3 11 C-3 10.34 -3 9.68 -3 9 C-0.525 9.495 -0.525 9.495 2 10 C1.54177532 6.53058454 1.10868317 3.32604951 0 0 Z " fill="#2C2926" transform="translate(501,514)"/>
<path d="M0 0 C-0.28416601 2.37611155 -0.57708901 4.75060496 -0.875 7.125 C-0.95363281 7.79015625 -1.03226563 8.4553125 -1.11328125 9.140625 C-1.64388026 13.30378644 -2.54186554 17.06671292 -4 21 C-6.20110463 17.69834306 -6.18418357 16.9122747 -6 13.125 C-5.90964516 9.26233068 -6.14272178 6.48239667 -8 3 C-2.25 0 -2.25 0 0 0 Z " fill="#CABFBC" transform="translate(573,462)"/>
<path d="M0 0 C0.33 0 0.66 0 1 0 C0.43708547 9.16191918 -1.20796488 18.01728306 -3 27 C-7.02287447 20.96568829 -4.88247888 13.30391337 -3.73046875 6.48046875 C-2.93070072 3.76467892 -1.87136035 2.10712228 0 0 Z " fill="#262522" transform="translate(273,386)"/>
<path d="M0 0 C2.62187494 1.04874998 3.79371361 1.64931313 5.25 4.125 C5.4975 4.74375 5.745 5.3625 6 6 C1.37630977 7.80679587 -2.42528653 8.21839082 -7.375 8.125 C-8.62023437 8.10695313 -9.86546875 8.08890625 -11.1484375 8.0703125 C-12.55996094 8.03550781 -12.55996094 8.03550781 -14 8 C-12 6 -12 6 -9.25 5.125 C-5.70280827 3.89712594 -3.0429819 2.1735585 0 0 Z " fill="#5C5753" transform="translate(509,728)"/>
<path d="M0 0 C-0.66 3.63 -1.32 7.26 -2 11 C-3.65 11.33 -5.3 11.66 -7 12 C-8 11 -8 11 -8.3125 8.25 C-7.76791665 2.58633321 -5.72892663 0 0 0 Z " fill="#2B2927" transform="translate(397,306)"/>
<path d="M0 0 C1.60433809 0.47859241 3.20846416 0.95789558 4.8125 1.4375 C6.15248047 1.83775391 6.15248047 1.83775391 7.51953125 2.24609375 C9.35473055 2.80387873 11.18033726 3.39344575 13 4 C12.375 5.9375 12.375 5.9375 11 8 C8.1875 9.125 8.1875 9.125 5 9 C2.125 6.25 2.125 6.25 0 3 C0 2.01 0 1.02 0 0 Z " fill="#AFDEFB" transform="translate(434,488)"/>
<path d="M0 0 C0.66 0.33 1.32 0.66 2 1 C2.05867342 5.4582769 2.09382135 9.91645273 2.125 14.375 C2.14175781 15.62667969 2.15851562 16.87835938 2.17578125 18.16796875 C2.21348958 25.37026 1.8081292 32.01413893 0 39 C-0.33 39 -0.66 39 -1 39 C-1.22577402 33.5814234 -0.46670113 29.22512279 1 24 C0.01 24 -0.98 24 -2 24 C-1.125 16.125 -1.125 16.125 0 15 C0.07313567 12.46950598 0.09247527 9.96695163 0.0625 7.4375 C0.05798828 6.72658203 0.05347656 6.01566406 0.04882812 5.28320312 C0.03700864 3.52209987 0.01907263 1.76103964 0 0 Z " fill="#86807B" transform="translate(606,434)"/>
<path d="M0 0 C4.29634755 0.20458798 7.80909177 1.02864857 11.9375 2.1875 C7.11103323 5.40514451 1.73928176 6.55011136 -4.0625 6.1875 C-4.105221 4.52138095 -4.10313832 2.85367115 -4.0625 1.1875 C-3.0625 0.1875 -3.0625 0.1875 0 0 Z " fill="#CDB6AF" transform="translate(402.0625,577.8125)"/>
<path d="M0 0 C1 1 1 1 1.0625 4.5625 C1.041875 5.696875 1.02125 6.83125 1 8 C2.98 7.67 4.96 7.34 7 7 C3.3558226 9.4294516 1.28758728 9.16179575 -3 9 C-3.268125 8.2575 -3.53625 7.515 -3.8125 6.75 C-4.94229421 4.13363446 -6.20893202 2.19812889 -8 0 C-4.95694001 -0.97812643 -3.0322553 -1.04560527 0 0 Z " fill="#7A665F" transform="translate(393,578)"/>
<path d="M0 0 C-0.52268466 2.76276177 -1.10869587 5.3260876 -2 8 C-1.01 8.33 -0.02 8.66 1 9 C-2.68266103 8.40049704 -6.34543185 7.75241109 -10 7 C-10 5.35 -10 3.7 -10 2 C-8.7090864 1.66376204 -7.41723903 1.33110751 -6.125 1 C-5.40570312 0.814375 -4.68640625 0.62875 -3.9453125 0.4375 C-2 0 -2 0 0 0 Z " fill="#9B9591" transform="translate(519,692)"/>
<path d="M0 0 C-0.53069061 3.82097239 -1.49701566 6.06171403 -4 9 C-6.375 8.8125 -6.375 8.8125 -9 8 C-10.3125 5.4375 -10.3125 5.4375 -11 3 C-9.54293274 2.49632243 -8.08429904 1.99717444 -6.625 1.5 C-5.81289063 1.2215625 -5.00078125 0.943125 -4.1640625 0.65625 C-2 0 -2 0 0 0 Z " fill="#AFDCF8" transform="translate(567,480)"/>
<path d="M0 0 C3.97204422 3.97204422 5.7986103 9.57416956 6.2578125 15.10546875 C6.2509735 17.74874241 6.18046091 20.36326557 6 23 C5.01 23.33 4.02 23.66 3 24 C2.92652344 22.71416016 2.92652344 22.71416016 2.8515625 21.40234375 C2.45190775 15.29038227 1.85887697 9.82448116 0 4 C0 2.68 0 1.36 0 0 Z " fill="#AEAAA7" transform="translate(495,697)"/>
<path d="M0 0 C1.65 0.33 3.3 0.66 5 1 C5.625 3.3125 5.625 3.3125 6 6 C5.01 7.485 5.01 7.485 4 9 C2.35 8.67 0.7 8.34 -1 8 C-1.625 5.6875 -1.625 5.6875 -2 3 C-1.34 2.01 -0.68 1.02 0 0 Z " fill="#55504D" transform="translate(435,675)"/>
<path d="M0 0 C1.1446875 0.3403125 1.1446875 0.3403125 2.3125 0.6875 C2.54303497 3.53076464 2.67153101 5.14895349 1.0625 7.5625 C-0.6875 8.6875 -0.6875 8.6875 -2.875 8.375 C-3.473125 8.148125 -4.07125 7.92125 -4.6875 7.6875 C-5.375 5.375 -5.375 5.375 -5.6875 2.6875 C-4.0011022 -0.12316299 -3.27764429 -0.38112143 0 0 Z " fill="#544F4B" transform="translate(492.6875,676.3125)"/>
<path d="M0 0 C-0.33 4.29 -0.66 8.58 -1 13 C-2.32 11.35 -3.64 9.7 -5 8 C-5.5775 7.29875 -6.155 6.5975 -6.75 5.875 C-8 4 -8 4 -8 1 C-3.375 -1.125 -3.375 -1.125 0 0 Z " fill="#383635" transform="translate(541,582)"/>
<path d="M0 0 C0.33 0 0.66 0 1 0 C1.24992327 3.04123496 1.47549694 6.08108233 1.6875 9.125 C1.76033203 9.9809375 1.83316406 10.836875 1.90820312 11.71875 C2.25472029 17.01842426 1.95606552 20.3645245 -1 25 C0.98 25 2.96 25 5 25 C5 25.33 5 25.66 5 26 C-0.38490641 26.91657981 -5.54230189 27.11138159 -11 27 C-11 26.67 -11 26.34 -11 26 C-8.36 26 -5.72 26 -3 26 C-0.65987018 17.41952398 -0.38566164 8.83977082 0 0 Z " fill="#585451" transform="translate(489,614)"/>
<path d="M0 0 C1.2065625 0.0309375 1.2065625 0.0309375 2.4375 0.0625 C2.7675 2.3725 3.0975 4.6825 3.4375 7.0625 C1.0625 7.6875 1.0625 7.6875 -1.5625 8.0625 C-3.5625 6.0625 -3.5625 6.0625 -3.75 3.5 C-3.4919783 0.14571793 -3.38163728 0.08247896 0 0 Z " fill="#4F4B4A" transform="translate(328.5625,591.9375)"/>
<path d="M0 0 C3.3 0 6.6 0 10 0 C10 1.98 10 3.96 10 6 C6.00452264 5.38531118 3.22493358 3.34540624 0 1 C0 0.67 0 0.34 0 0 Z " fill="#A3918A" transform="translate(372,660)"/>
<path d="M0 0 C1.4540625 0.0309375 1.4540625 0.0309375 2.9375 0.0625 C2.32759109 3.62030196 1.3591319 6.7453589 -0.0625 10.0625 C-2.05347846 7.07603231 -3.00374926 4.46562738 -4.0625 1.0625 C-3.0625 0.0625 -3.0625 0.0625 0 0 Z " fill="#292726" transform="translate(335.0625,589.9375)"/>
<path d="M0 0 C0.66 0 1.32 0 2 0 C1.54738642 1.43931117 1.08767021 2.87638999 0.625 4.3125 C0.36976563 5.11300781 0.11453125 5.91351563 -0.1484375 6.73828125 C-1 9 -1 9 -3 12 C-3.33 11.34 -3.66 10.68 -4 10 C-5.32 10.99 -6.64 11.98 -8 13 C-6.44759763 8.03231242 -3.48945219 3.82132943 0 0 Z " fill="#44413E" transform="translate(351,351)"/>
<path d="M0 0 C7.40239645 -0.12886183 14.63959083 0.20274098 22 1 C22 1.33 22 1.66 22 2 C20.75863281 1.96519531 19.51726562 1.93039062 18.23828125 1.89453125 C16.59636774 1.86638416 14.95443954 1.83908499 13.3125 1.8125 C12.08756836 1.77479492 12.08756836 1.77479492 10.83789062 1.73632812 C6.02535885 1.67787632 2.92622728 1.89955666 -1 5 C-1.66 5.66 -2.32 6.32 -3 7 C-2.67 5.35 -2.34 3.7 -2 2 C-1.34 2 -0.68 2 0 2 C0 1.34 0 0.68 0 0 Z " fill="#7A746F" transform="translate(395,697)"/>
<path d="M0 0 C2 0.875 2 0.875 3.25 3.25 C4 5.875 4 5.875 4 8.875 C3.34 8.875 2.68 8.875 2 8.875 C0.66666667 7.54166667 -0.66666667 6.20833333 -2 4.875 C-2.99 4.545 -3.98 4.215 -5 3.875 C-4.67 2.885 -4.34 1.895 -4 0.875 C-2 -0.125 -2 -0.125 0 0 Z " fill="#AE9B95" transform="translate(541,645.125)"/>
<path d="M0 0 C13.00457457 0.42086002 13.00457457 0.42086002 18 5 C18 5.66 18 6.32 18 7 C11.69595008 6.0149922 5.87917997 3.38841686 0 1 C0 0.67 0 0.34 0 0 Z " fill="#585451" transform="translate(487,263)"/>
<path d="M0 0 C2.31 0.33 4.62 0.66 7 1 C7.33 2.32 7.66 3.64 8 5 C5.125 5.625 5.125 5.625 2 6 C1.34 5.34 0.68 4.68 0 4 C0 2.68 0 1.36 0 0 Z " fill="#4D4948" transform="translate(331,576)"/>
<path d="M0 0 C1.18851562 0.00902344 2.37703125 0.01804688 3.6015625 0.02734375 C4.51679688 0.03894531 5.43203125 0.05054688 6.375 0.0625 C6.375 0.3925 6.375 0.7225 6.375 1.0625 C3.735 1.3925 1.095 1.7225 -1.625 2.0625 C-0.635 2.7225 0.355 3.3825 1.375 4.0625 C-5.555 3.5675 -5.555 3.5675 -12.625 3.0625 C-7.67029785 0.58514892 -5.53001549 -0.05421584 0 0 Z " fill="#5C5956" transform="translate(441.625,228.9375)"/>
<path d="M0 0 C3.96 0 7.92 0 12 0 C10.68 0.33 9.36 0.66 8 1 C8 1.66 8 2.32 8 3 C9.65 3.33 11.3 3.66 13 4 C9.45332822 5.25127906 7.27746562 4.72285053 3.75 3.5625 C2.85796875 3.27503906 1.9659375 2.98757813 1.046875 2.69140625 C0.37140625 2.46324219 -0.3040625 2.23507812 -1 2 C-0.67 1.34 -0.34 0.68 0 0 Z " fill="#625D5A" transform="translate(478,313)"/>
<path d="M0 0 C2.22909871 -0.02714735 4.45829367 -0.04646254 6.6875 -0.0625 C7.92886719 -0.07410156 9.17023438 -0.08570313 10.44921875 -0.09765625 C13.47092206 -0.0145511 16.06966027 0.32945379 19 1 C19.66 1 20.32 1 21 1 C21 1.66 21 2.32 21 3 C13.83437211 3.28100502 7.05453001 2.20443195 0 1 C0 0.67 0 0.34 0 0 Z " fill="#8E8682" transform="translate(410,699)"/>
<path d="M0 0 C7.26 0.33 14.52 0.66 22 1 C22 1.33 22 1.66 22 2 C21.37351562 2.04898438 20.74703125 2.09796875 20.1015625 2.1484375 C18.87566406 2.26058594 18.87566406 2.26058594 17.625 2.375 C16.81289063 2.44460938 16.00078125 2.51421875 15.1640625 2.5859375 C12.79665809 2.82892588 12.79665809 2.82892588 11 5 C10.67 4.01 10.34 3.02 10 2 C8.3603125 2.061875 8.3603125 2.061875 6.6875 2.125 C3 2 3 2 0 0 Z " fill="#564E4A" transform="translate(360,658)"/>
<path d="M0 0 C2.62187494 1.04874998 3.79371361 1.64931313 5.25 4.125 C5.4975 4.74375 5.745 5.3625 6 6 C5.34 5.67 4.68 5.34 4 5 C3.67 6.98 3.34 8.96 3 11 C-0.75 12.125 -0.75 12.125 -3 11 C-3 10.34 -3 9.68 -3 9 C-0.525 9.495 -0.525 9.495 2 10 C1.54177532 6.53058454 1.10868317 3.32604951 0 0 Z " fill="#5F5652" transform="translate(501,514)"/>
<path d="M0 0 C2.0625 0.4375 2.0625 0.4375 4 1 C3.67 2.65 3.34 4.3 3 6 C1.68 6 0.36 6 -1 6 C-1.042721 4.33388095 -1.04063832 2.66617115 -1 1 C-0.67 0.67 -0.34 0.34 0 0 Z " fill="#66605D" transform="translate(400,619)"/>
<path d="M0 0 C0.66 0.33 1.32 0.66 2 1 C0.54782324 2.50596108 -0.91192861 4.00462104 -2.375 5.5 C-3.18710937 6.3353125 -3.99921875 7.170625 -4.8359375 8.03125 C-7 10 -7 10 -9 10 C-7.61811547 6.78956118 -6.07578097 4.95063635 -3.375 2.75 C-2.74335938 2.22921875 -2.11171875 1.7084375 -1.4609375 1.171875 C-0.73777344 0.59179688 -0.73777344 0.59179688 0 0 Z " fill="#363330" transform="translate(369,259)"/>
<path d="M0 0 C3.63 0 7.26 0 11 0 C10.67 0.66 10.34 1.32 10 2 C2.58823529 3.29411765 2.58823529 3.29411765 0 2 C0 1.34 0 0.68 0 0 Z " fill="#9F867D" transform="translate(382,575)"/>
<path d="M0 0 C2.31 0.33 4.62 0.66 7 1 C7 1.99 7 2.98 7 4 C4.69 3.67 2.38 3.34 0 3 C0 2.01 0 1.02 0 0 Z " fill="#BDB8B5" transform="translate(438,597)"/>
<path d="M0 0 C0.99 0.495 0.99 0.495 2 1 C1.01 1.495 1.01 1.495 0 2 C0 1.34 0 0.68 0 0 Z M-2 2 C-1.34 2.33 -0.68 2.66 0 3 C-1.485 4.485 -1.485 4.485 -3 6 C-2.67 6.66 -2.34 7.32 -2 8 C-4.31 8.66 -6.62 9.32 -9 10 C-8.02133662 8.85373678 -7.04205413 7.70800212 -6.0625 6.5625 C-5.51722656 5.92441406 -4.97195313 5.28632813 -4.41015625 4.62890625 C-3.63204305 3.73008851 -2.84063472 2.84063472 -2 2 Z " fill="#736762" transform="translate(541,450)"/>
<path d="M0 0 C-2.31 1.65 -4.62 3.3 -7 5 C-7.33 4.34 -7.66 3.68 -8 3 C-10.02463255 2.34786708 -10.02463255 2.34786708 -12 2 C-10.37787941 1.47026689 -8.75218416 0.95146893 -7.125 0.4375 C-6.22007812 0.14746094 -5.31515625 -0.14257812 -4.3828125 -0.44140625 C-2 -1 -2 -1 0 0 Z " fill="#433D3A" transform="translate(527,545)"/>
<path d="M0 0 C2 2 2 2 2.125 5.625 C2.08375 6.73875 2.0425 7.8525 2 9 C1.01 9.33 0.02 9.66 -1 10 C-0.67 6.7 -0.34 3.4 0 0 Z " fill="#C5C2C0" transform="translate(499,711)"/>
<path d="M0 0 C2.31 0 4.62 0 7 0 C7.33 0.99 7.66 1.98 8 3 C5.69 3 3.38 3 1 3 C0.67 2.01 0.34 1.02 0 0 Z " fill="#BDB8B5" transform="translate(501,592)"/>
<path d="M0 0 C1.98 0.495 1.98 0.495 4 1 C3.67 2.32 3.34 3.64 3 5 C1.68 4.67 0.36 4.34 -1 4 C-0.67 2.68 -0.34 1.36 0 0 Z " fill="#BBB6B3" transform="translate(422,604)"/>
<path d="M0 0 C0.66 0.33 1.32 0.66 2 1 C1.67 3.31 1.34 5.62 1 8 C0.34 8 -0.32 8 -1 8 C-1.04241723 5.66705225 -1.04092937 3.33297433 -1 1 C-0.67 0.67 -0.34 0.34 0 0 Z " fill="#BFBBB8" transform="translate(414,604)"/>
<path d="M0 0 C0.33 0 0.66 0 1 0 C0.67 3.63 0.34 7.26 0 11 C-0.33 11 -0.66 11 -1 11 C-1.59732819 8.23735711 -2 5.83967231 -2 3 C-1.34 2.01 -0.68 1.02 0 0 Z " fill="#3A3735" transform="translate(273,386)"/>
<path d="M0 0 C1.32 0 2.64 0 4 0 C4 1.65 4 3.3 4 5 C2.68 4.67 1.36 4.34 0 4 C0 2.68 0 1.36 0 0 Z " fill="#BDB8B5" transform="translate(429,593)"/>
<path d="M0 0 C0.33 0 0.66 0 1 0 C1 1.98 1 3.96 1 6 C-0.65 6.33 -2.3 6.66 -4 7 C-2.92598892 4.08482708 -2.22189824 2.22189824 0 0 Z " fill="#AC9992" transform="translate(576,496)"/>
<path d="M0 0 C2.64 0.66 5.28 1.32 8 2 C8 2.99 8 3.98 8 5 C4.75791433 4.64950425 3.38472296 4.43778819 1.1875 1.9375 C0.795625 1.298125 0.40375 0.65875 0 0 Z " fill="#A59D98" transform="translate(453,336)"/>
<path d="M0 0 C1.32 0 2.64 0 4 0 C4 0.66 4 1.32 4 2 C2.35666496 3.03789581 0.68756133 4.03567924 -1 5 C-1.66 5.66 -2.32 6.32 -3 7 C-2.67 5.35 -2.34 3.7 -2 2 C-1.34 2 -0.68 2 0 2 C0 1.34 0 0.68 0 0 Z " fill="#7F7976" transform="translate(395,697)"/>
<path d="M0 0 C0.66 0 1.32 0 2 0 C3.625 2.5 3.625 2.5 5 5 C4.34 5 3.68 5 3 5 C2.67 5.99 2.34 6.98 2 8 C0.74335022 5.09399739 0 3.20395416 0 0 Z " fill="#4D4642" transform="translate(354,676)"/>
<path d="M0 0 C4.875 4.625 4.875 4.625 6 8 C2.57701423 6.85900474 1.85241234 5.99914379 0 3 C0 2.01 0 1.02 0 0 Z " fill="#D6D1CE" transform="translate(597,396)"/>
<path d="M0 0 C0 0.66 0 1.32 0 2 C-4.43076923 4.09230769 -4.43076923 4.09230769 -7.3125 3.625 C-7.869375 3.41875 -8.42625 3.2125 -9 3 C-3.375 0 -3.375 0 0 0 Z " fill="#5A5552" transform="translate(337,294)"/>
<path d="M0 0 C-2.97 2.475 -2.97 2.475 -6 5 C-6.33 3.68 -6.66 2.36 -7 1 C-3.375 -1.125 -3.375 -1.125 0 0 Z " fill="#32302E" transform="translate(383,254)"/>
<path d="M0 0 C0.99 0.33 1.98 0.66 3 1 C2.67 2.32 2.34 3.64 2 5 C1.01 5 0.02 5 -1 5 C-0.67 3.35 -0.34 1.7 0 0 Z " fill="#BFBAB7" transform="translate(498,593)"/>
<path d="M0 0 C1.32 1.32 2.64 2.64 4 4 C3.01 5.485 3.01 5.485 2 7 C0.68 5.02 -0.64 3.04 -2 1 C-1.34 0.67 -0.68 0.34 0 0 Z " fill="#CFCAC6" transform="translate(594,391)"/>
<path d="M0 0 C0.33 0 0.66 0 1 0 C1.24954005 1.43410368 1.47392642 2.87260072 1.6875 4.3125 C1.87892578 5.51326172 1.87892578 5.51326172 2.07421875 6.73828125 C2 9 2 9 0.51953125 10.79296875 C0.01808594 11.19128906 -0.48335938 11.58960938 -1 12 C-1.33 11.01 -1.66 10.02 -2 9 C-1.67 8.67 -1.34 8.34 -1 8 C-0.76924918 6.65252916 -0.58846937 5.29622435 -0.4375 3.9375 C-0.293125 2.638125 -0.14875 1.33875 0 0 Z " fill="#908984" transform="translate(312,302)"/>
</svg>
