<?xml version="1.0" encoding="UTF-8"?>
<svg version="1.1" xmlns="http://www.w3.org/2000/svg" width="900" height="900">
<path d="M0 0 C11.73685081 8.90253748 23.31959984 18.20679759 32.69091797 29.6315918 C33.11598633 30.13368164 33.54105469 30.63577148 33.97900391 31.15307617 C59.60570206 61.44077296 71.33769724 96.35464044 80.12841797 134.4440918 C80.35014679 135.3969809 80.57187561 136.34987 80.80032349 137.33163452 C83.20741268 147.74664156 85.40073285 157.90072544 85.69091797 168.6315918 C85.73091919 169.7299939 85.73091919 169.7299939 85.77172852 170.85058594 C85.81988995 172.6520044 85.81998582 174.45453423 85.81591797 176.2565918 C85.81849609 177.40385742 85.82107422 178.55112305 85.82373047 179.7331543 C85.7241991 182.65469264 85.49819209 185.42098808 85.17138672 188.31518555 C84.65895439 193.62485666 84.66098517 198.86384789 84.73388672 204.19018555 C84.74411865 205.06545898 84.75435059 205.94073242 84.76489258 206.8425293 C84.80992223 210.48960224 84.85802309 214.13621503 84.93774414 217.78271484 C85.29252208 234.90656034 83.16527889 251.03927897 77.44091797 267.2565918 C76.99377441 268.55077026 76.99377441 268.55077026 76.53759766 269.87109375 C63.86249356 305.76085502 42.91456888 335.49476887 9.69091797 354.6315918 C9.91231445 355.44088135 10.13371094 356.2501709 10.36181641 357.08398438 C17.79831095 384.35951418 17.79831095 384.35951418 20.12841797 395.3190918 C20.27956055 396.01558838 20.43070313 396.71208496 20.58642578 397.4296875 C22.61692662 407.3889821 22.87238201 417.43471519 22.87841797 427.5690918 C22.89066406 428.67833008 22.90291016 429.78756836 22.91552734 430.93041992 C22.91746094 431.99583008 22.91939453 433.06124023 22.92138672 434.15893555 C22.92549561 435.11533936 22.92960449 436.07174316 22.93383789 437.05712891 C22.68275 439.7181558 22.04621744 441.35172092 20.69091797 443.6315918 C18.38091797 443.6315918 16.07091797 443.6315918 13.69091797 443.6315918 C13.47177734 444.1884668 13.25263672 444.7453418 13.02685547 445.3190918 C9.9382435 452.75184904 6.39337786 458.7563058 -0.24658203 463.4440918 C-5.40909734 467.64109851 -6.88674151 473.7264157 -8.78735352 479.87890625 C-10.380003 484.86331846 -11.59645091 487.83533124 -16.30908203 490.6315918 C-19.12158203 491.3815918 -19.12158203 491.3815918 -21.30908203 491.6315918 C-19.93890597 495.84275461 -19.93890597 495.84275461 -18.27783203 499.9440918 C-17.17377438 503.0069614 -16.89794946 505.70043584 -16.68408203 508.9440918 C-16.57193359 510.54704102 -16.57193359 510.54704102 -16.45751953 512.18237305 C-16.40853516 512.99061523 -16.35955078 513.79885742 -16.30908203 514.6315918 C-28.63806482 520.22606712 -41.01307175 521.10941356 -54.36987305 520.96777344 C-56.74123299 520.9441451 -59.11146154 520.94724762 -61.48291016 520.95385742 C-71.59160116 520.93384332 -81.29997009 520.06636455 -91.30908203 518.6315918 C-91.96908203 513.6815918 -92.62908203 508.7315918 -93.30908203 503.6315918 C-95.61908203 504.2915918 -97.92908203 504.9515918 -100.30908203 505.6315918 C-99.97908203 509.9215918 -99.64908203 514.2115918 -99.30908203 518.6315918 C-101.47475747 519.11521876 -103.64167945 519.59326497 -105.80908203 520.0690918 C-107.61892578 520.4693457 -107.61892578 520.4693457 -109.46533203 520.87768555 C-131.97569348 525.29282758 -157.28120974 523.92526959 -179.30908203 517.6315918 C-178.97908203 508.7215918 -178.64908203 499.8115918 -178.30908203 490.6315918 C-179.62908203 490.9615918 -180.94908203 491.2915918 -182.30908203 491.6315918 C-186.34441481 492.00523372 -188.78227056 491.86917344 -192.49658203 490.1940918 C-196.81094987 486.26322332 -198.37721249 481.47826175 -200.16455078 476.01831055 C-201.52636432 473.17848777 -202.6654583 472.42794821 -205.37158203 470.8815918 C-215.09458885 464.75969861 -221.8135538 456.86862367 -225.55908203 446.0065918 C-226.32537758 442.55826185 -226.87982827 439.13716417 -227.30908203 435.6315918 C-227.80408203 436.2297168 -228.29908203 436.8278418 -228.80908203 437.4440918 C-233.99226781 441.97937935 -239.57892218 443.05222679 -246.30908203 442.6315918 C-256.91497229 421.33530218 -242.58833114 384.8909086 -236.30908203 363.6315918 C-235.21749302 360.42898139 -234.10511413 357.24072599 -232.92602539 354.06933594 C-232.25104713 351.40227701 -232.25543574 350.15274482 -233.30908203 347.6315918 C-235.24830489 345.74794245 -237.14809903 344.06698759 -239.24658203 342.3815918 C-239.83632813 341.89561523 -240.42607422 341.40963867 -241.03369141 340.90893555 C-245.22264398 337.46882065 -249.46537503 334.09456581 -253.71142578 330.7253418 C-258.48561366 326.87727457 -263.15237636 322.90345311 -267.80761719 318.9128418 C-269.13721842 317.77824874 -270.47820095 316.65702299 -271.82080078 315.5378418 C-288.75517646 301.11554628 -300.80247787 280.87609703 -304.55908203 259.0065918 C-304.80383443 257.63879847 -305.04879351 256.27104211 -305.29394531 254.90332031 C-306.01178418 250.81948146 -306.66653453 246.72795899 -307.30908203 242.6315918 C-307.58026855 240.94187256 -307.58026855 240.94187256 -307.85693359 239.21801758 C-312.63021951 208.04931462 -312.80457302 173.70715837 -307.30908203 142.6315918 C-307.04369629 141.12363037 -307.04369629 141.12363037 -306.77294922 139.58520508 C-299.39511591 99.05809135 -285.38355698 59.01511906 -259.30908203 26.6315918 C-258.88127441 26.09695312 -258.4534668 25.56231445 -258.01269531 25.01147461 C-242.75441609 6.05538412 -223.62313773 -9.45338838 -198.72314453 -12.2121582 C-195.30155162 -12.55629529 -191.87833601 -12.87347602 -188.45361328 -13.18481445 C-187.34630859 -13.29696289 -186.23900391 -13.40911133 -185.09814453 -13.5246582 C-184.10508301 -13.61553711 -183.11202148 -13.70641602 -182.08886719 -13.80004883 C-177.0177845 -14.83689061 -173.75719918 -17.82112681 -169.89404297 -21.1105957 C-167.26598583 -23.19620112 -164.38740911 -24.8011191 -161.43408203 -26.3684082 C-160.79349854 -26.7094458 -160.15291504 -27.0504834 -159.49291992 -27.40185547 C-111.85591215 -51.81171133 -40.64140081 -30.00676346 0 0 Z M-230.30908203 342.6315918 C-229.30908203 345.6315918 -229.30908203 345.6315918 -229.30908203 345.6315918 Z " fill="#1C1B19" transform="translate(545.30908203125,228.368408203125)"/>
<path d="M0 0 C0.68626465 0.44303467 1.3725293 0.88606934 2.07958984 1.3425293 C8.76839448 5.72620947 15.10165941 10.52782677 21.3125 15.5625 C22.15312988 16.18777588 22.15312988 16.18777588 23.01074219 16.82568359 C24.6796875 18.10546875 24.6796875 18.10546875 27.3125 20.5625 C27.3125 21.8825 27.3125 23.2025 27.3125 24.5625 C28.64861328 24.92021484 28.64861328 24.92021484 30.01171875 25.28515625 C39.42563458 28.92817457 46.18199611 39.87751018 52.3125 47.5625 C53.30904035 48.77131318 54.30787022 49.97824136 55.30859375 51.18359375 C88.91921906 91.79430368 88.91921906 91.79430368 92.73828125 114.04296875 C92.10657736 117.78103307 89.93753776 120.11467955 87.5 122.875 C86.99500977 123.45040527 86.49001953 124.02581055 85.96972656 124.61865234 C72.83230517 139.17622489 53.69950459 146.30478479 35.68505859 153.07275391 C10.25973691 162.72757454 -7.99404598 177.53879036 -19.54296875 202.46484375 C-33.7180654 234.79637928 -26.94671771 268.49559604 -16.578125 300.73828125 C-15.04756268 305.59177493 -13.64661502 310.48158749 -12.25 315.375 C-11.990979 316.27130127 -11.73195801 317.16760254 -11.46508789 318.09106445 C-11.23039795 318.9130835 -10.99570801 319.73510254 -10.75390625 320.58203125 C-10.54709229 321.30495361 -10.34027832 322.02787598 -10.12719727 322.77270508 C-9.6875 324.5625 -9.6875 324.5625 -9.6875 326.5625 C-21.15739217 327.30873395 -31.53755881 326.31704189 -42.75 323.6875 C-44.47162354 323.284104 -44.47162354 323.284104 -46.22802734 322.87255859 C-54.39733091 320.85266909 -54.39733091 320.85266909 -56.6875 318.5625 C-57.96437512 314.21544216 -58.78185091 309.74998506 -59.6875 305.3125 C-59.82167328 304.66134216 -59.95584656 304.01018433 -60.09408569 303.33929443 C-62.52349747 291.46115729 -63.9473236 279.66106449 -64.6875 267.5625 C-64.79651236 265.99988297 -64.90712766 264.43737675 -65.01953125 262.875 C-65.2629878 259.43865162 -65.48394685 256.00147695 -65.6875 252.5625 C-68.23006132 273.90185391 -67.87433093 294.19437015 -65.6875 315.5625 C-74.57869279 312.97574251 -74.57869279 312.97574251 -76.99462891 309.89648438 C-77.85563767 307.88763776 -78.4599892 305.92996172 -79 303.8125 C-79.19916016 303.15378906 -79.39832031 302.49507812 -79.60351562 301.81640625 C-80.04943788 300.33182815 -80.47519325 298.84111539 -80.88598633 297.34643555 C-81.68822233 294.55999108 -82.58826181 291.81373219 -83.4961853 289.06028748 C-86.42919606 280.06157614 -88.29980475 271.07071387 -89.875 261.75 C-90.12336639 260.32600015 -90.37271413 258.90217111 -90.62304688 257.47851562 C-91.10064923 254.75524894 -91.57310702 252.0311845 -92.04052734 249.30615234 C-92.89087787 244.38567122 -93.78237202 239.47316191 -94.6875 234.5625 C-98.1100493 242.54149727 -97.88153719 250.92901884 -97.875 259.5 C-97.87491943 260.49837891 -97.87483887 261.49675781 -97.87475586 262.52539062 C-97.78779702 274.01494133 -96.32837533 285.20941665 -94.6875 296.5625 C-107.39338437 286.61876441 -118.96799421 271.52854187 -122.6875 255.5625 C-122.92855469 254.53253906 -123.16960937 253.50257813 -123.41796875 252.44140625 C-124.30976865 248.16348288 -125.02422484 243.88088018 -125.6875 239.5625 C-125.82720215 238.68980469 -125.9669043 237.81710937 -126.11083984 236.91796875 C-131.27375404 203.17526171 -131.20824823 166.23098506 -125.6875 132.5625 C-125.51589355 131.48436035 -125.34428711 130.4062207 -125.16748047 129.29541016 C-117.75831686 84.02601644 -101.41670276 39.11530494 -64.6875 9.5625 C-60.49087227 6.61085454 -56.18862206 4.0211421 -51.6875 1.5625 C-50.81351562 1.05589844 -49.93953125 0.54929688 -49.0390625 0.02734375 C-35.2658604 -6.89964792 -13.11942168 -8.73590269 0 0 Z " fill="#A49C97" transform="translate(381.6875,236.4375)"/>
<path d="M0 0 C3.44611486 1.26894323 6.56800198 2.84212023 9.75317383 4.6640625 C21.34979192 11.22363921 33.76194908 15.17195625 46.49609375 18.93359375 C65.29535804 24.49077186 80.79062635 30.18753623 95 44 C95.77859375 44.7528125 96.5571875 45.505625 97.359375 46.28125 C101.18062103 50.49990562 102.40910053 53.52333312 102.5 59.25 C102.30573175 62.92166988 101.78612256 66.4100403 101 70 C100.48953125 69.71125 99.9790625 69.4225 99.453125 69.125 C92.18244279 65.41231121 85.28880996 64.69326187 77.328125 66.66015625 C62.4982732 71.97955961 51.76244674 85.23837734 42.92773438 97.70385742 C38.90902079 103.30352597 34.71807204 108.65516543 28.0625 111.0625 C27.381875 111.371875 26.70125 111.68125 26 112 C24.82202611 114.81555347 24.82202611 114.81555347 25 118 C25.94392019 119.69905634 26.95650161 121.36021682 28 123 C28.42713883 124.42851066 28.81850629 125.86787758 29.1875 127.3125 C32.13041193 137.57417197 37.13117308 149.59142932 46 156 C46.54527344 156.42667969 47.09054687 156.85335937 47.65234375 157.29296875 C54.05356574 161.39703449 62.694887 161.20213058 70 160 C79.89714182 156.61728124 86.5353784 149.61728791 92 141 C92.33 141 92.66 141 93 141 C94.01053822 152.11592039 90.41722453 165.15606989 83.65234375 174.08984375 C68.03819113 192.14024714 46.44089411 201.35631424 24 208 C22.40671875 208.50660156 22.40671875 208.50660156 20.78125 209.0234375 C-11.48395118 218.38776313 -48.62062409 212.22971994 -80.6875 205 C-81.79931641 204.75088867 -82.91113281 204.50177734 -84.05664062 204.24511719 C-87.05427312 203.548227 -90.02851649 202.80055985 -93 202 C-93.730979 201.80905762 -94.46195801 201.61811523 -95.21508789 201.42138672 C-98.97904409 200.17544865 -99.96487022 199.06872214 -101.78515625 195.5078125 C-102.23987275 194.05562072 -102.66383879 192.59356981 -103.0625 191.125 C-103.30162109 190.32980957 -103.54074219 189.53461914 -103.78710938 188.71533203 C-104.5508472 186.15042923 -105.27493795 183.57606877 -106 181 C-106.49613754 179.32736341 -106.994827 177.6554816 -107.49609375 175.984375 C-110.32519927 166.4448587 -112.86770434 156.83201171 -115.3125 147.1875 C-115.56708984 146.19153809 -115.82167969 145.19557617 -116.08398438 144.16943359 C-121.04138501 124.27566851 -120.71196013 102.84679055 -112 84 C-110.02 85.32 -108.04 86.64 -106 88 C-106.23976563 89.90845703 -106.23976563 89.90845703 -106.484375 91.85546875 C-108.66403429 111.62312348 -107.13528804 130.46134955 -94.8828125 146.828125 C-86.3569529 156.18647594 -73.10932469 163.16354895 -60.39160156 164.21582031 C-44.13672934 165.05278114 -44.13672934 165.05278114 -29 160 C-28.0615625 159.47921875 -27.123125 158.9584375 -26.15625 158.421875 C-13.94368879 151.13373363 -6.62880539 141.29945917 -1.453125 128.125 C-0.97359375 127.09375 -0.4940625 126.0625 0 125 C0.99 124.67 1.98 124.34 3 124 C5.24672931 121.21065703 5.24672931 121.21065703 5.0625 118.1875 C2.94310829 111.82932486 -2.97222905 108.96784268 -8.4375 105.5625 C-15.42358123 101.18785978 -20.87576061 96.53064368 -26 90.0625 C-40.32440298 72.15699628 -57.77513317 56.93898557 -80 50 C-77.33153566 47.85575202 -74.93707428 46.42678852 -71.71875 45.2734375 C-70.88674072 44.96857422 -70.05473145 44.66371094 -69.19750977 44.34960938 C-68.30733154 44.02798828 -67.41715332 43.70636719 -66.5 43.375 C-46.62111401 35.97981251 -26.28223241 28.14980406 -11 13 C-10.24589844 12.28328125 -9.49179687 11.5665625 -8.71484375 10.828125 C-5.23554446 7.46880155 -2.18914696 4.37829392 0 0 Z " fill="#D0BAB2" transform="translate(488,360)"/>
<path d="M0 0 C0.76473633 -0.01257339 1.52947266 -0.02514679 2.31738281 -0.0381012 C50.78419678 -0.67802491 96.89742928 12.88148897 133.0703125 46.28515625 C134.81610749 47.88050571 136.57897477 49.37279482 138.43359375 50.8359375 C142.1124342 54.02426589 145.15193241 57.52258035 148.24609375 61.2734375 C148.85976807 62.01062012 148.85976807 62.01062012 149.48583984 62.76269531 C159.0055501 74.26437233 166.50051386 86.33772883 172.99609375 99.7734375 C173.34881348 100.4955542 173.7015332 101.2176709 174.06494141 101.96166992 C180.26187691 115.17123329 183.71883274 129.35702042 187.26806641 143.44702148 C188.00318886 146.36409192 188.74704743 149.27883342 189.4921875 152.19335938 C189.96795226 154.06497603 190.44323068 155.93671641 190.91796875 157.80859375 C191.24761627 159.10241722 191.24761627 159.10241722 191.58392334 160.42237854 C193.32020192 167.33316667 194.37241066 173.69420882 194.34375 180.859375 C194.34162758 181.91205063 194.34162758 181.91205063 194.33946228 182.98599243 C194.33390665 185.20685254 194.32136267 187.42760834 194.30859375 189.6484375 C194.30357301 191.16275895 194.29901111 192.677082 194.29492188 194.19140625 C194.28395182 197.88545002 194.26671824 201.57943356 194.24609375 205.2734375 C190.21214624 203.44315664 188.22098728 201.11621842 185.43359375 197.6484375 C184.54352965 196.55683408 183.65290328 195.46568889 182.76171875 194.375 C181.9315625 193.35148438 181.10140625 192.32796875 180.24609375 191.2734375 C164.21323967 171.8617588 144.54106487 163.10322964 120.80249023 156.79931641 C112.48522377 154.57691821 104.42385832 152.15262634 96.51953125 148.7109375 C95.55579338 148.29196701 95.55579338 148.29196701 94.57258606 147.86453247 C86.55989161 144.23550107 78.97856637 138.99426746 73.24609375 132.2734375 C73.24609375 131.6134375 73.24609375 130.9534375 73.24609375 130.2734375 C72.12267578 130.03173828 72.12267578 130.03173828 70.9765625 129.78515625 C66.89897506 127.52760784 66.18157789 124.30751985 64.55859375 120.0859375 C58.95741417 106.57649643 50.55516166 95.31918516 41.53466797 83.90917969 C40.2106947 82.22850123 38.90103144 80.53743651 37.59375 78.84375 C18.2279149 53.8287348 18.2279149 53.8287348 -4.75390625 32.2734375 C-5.70394531 31.50902344 -6.65398437 30.74460938 -7.6328125 29.95703125 C-15.33795687 23.84552589 -23.40223156 18.45723559 -31.75390625 13.2734375 C-29.64386838 10.99100958 -27.62587174 9.49793984 -24.8828125 8.046875 C-24.14353516 7.655 -23.40425781 7.263125 -22.64257812 6.859375 C-21.87494141 6.45976562 -21.10730469 6.06015625 -20.31640625 5.6484375 C-19.55263672 5.24109375 -18.78886719 4.83375 -18.00195312 4.4140625 C-11.77383297 1.14009856 -7.08230562 0.10513843 0 0 Z " fill="#CCC3BD" transform="translate(417.75390625,208.7265625)"/>
<path d="M0 0 C9.63357139 4.96223038 18.20437637 13.61413808 24.69921875 22.1953125 C24.69921875 22.8553125 24.69921875 23.5153125 24.69921875 24.1953125 C25.35921875 24.1953125 26.01921875 24.1953125 26.69921875 24.1953125 C27.851934 25.44384539 28.94816877 26.74500188 30.01171875 28.0703125 C32.65959612 31.2056652 34.58371002 33.19761341 38.69921875 34.1953125 C38.82296875 33.4115625 38.94671875 32.6278125 39.07421875 31.8203125 C39.69921875 29.1953125 39.69921875 29.1953125 41.69921875 27.1953125 C42.37678757 28.75311582 43.04081332 30.31681346 43.69921875 31.8828125 C44.07046875 32.75292969 44.44171875 33.62304688 44.82421875 34.51953125 C45.78222807 37.44915797 46.20561665 39.1476334 45.69921875 42.1953125 C44.16809825 44.50828177 42.70590162 46.4477305 40.88671875 48.5078125 C40.38172852 49.08321777 39.87673828 49.65862305 39.35644531 50.25146484 C26.21902392 64.80903739 7.08622334 71.93759729 -10.92822266 78.70556641 C-36.35354434 88.36038704 -54.60732723 103.17160286 -66.15625 128.09765625 C-80.33134665 160.42919178 -73.55999896 194.12840854 -63.19140625 226.37109375 C-61.66084393 231.22458743 -60.25989627 236.11439999 -58.86328125 241.0078125 C-58.47474976 242.3522644 -58.47474976 242.3522644 -58.07836914 243.72387695 C-57.8436792 244.545896 -57.60898926 245.36791504 -57.3671875 246.21484375 C-57.16037354 246.93776611 -56.95355957 247.66068848 -56.74047852 248.40551758 C-56.30078125 250.1953125 -56.30078125 250.1953125 -56.30078125 252.1953125 C-59.93078125 252.1953125 -63.56078125 252.1953125 -67.30078125 252.1953125 C-75.61431232 234.55215211 -79.59798051 215.33780505 -82.73828125 196.1953125 C-82.92641388 195.05381241 -82.92641388 195.05381241 -83.11834717 193.88925171 C-91.7720678 140.72585702 -83.40740945 80.39614715 -61.11328125 31.1953125 C-60.76910156 30.4321875 -60.42492187 29.6690625 -60.0703125 28.8828125 C-59.81636719 28.3259375 -59.56242187 27.7690625 -59.30078125 27.1953125 C-58.63691406 27.25332031 -57.97304688 27.31132812 -57.2890625 27.37109375 C-55.96455078 27.43876953 -55.96455078 27.43876953 -54.61328125 27.5078125 C-53.74316406 27.56582031 -52.87304688 27.62382812 -51.9765625 27.68359375 C-48.17383957 26.98966621 -46.85047997 25.03890173 -44.30078125 22.1953125 C-42.50058639 20.49469174 -40.68784064 18.8072663 -38.86328125 17.1328125 C-37.95707031 16.29621094 -37.05085938 15.45960938 -36.1171875 14.59765625 C-33.29687291 12.19197875 -30.42309624 10.18888423 -27.30078125 8.1953125 C-26.35976563 7.58429688 -25.41875 6.97328125 -24.44921875 6.34375 C-23.53398437 5.75851562 -22.61875 5.17328125 -21.67578125 4.5703125 C-20.75539063 3.97992188 -19.835 3.38953125 -18.88671875 2.78125 C-12.69120976 -1.01841261 -7.14982243 -2.50061701 0 0 Z " fill="#CDC3BD" transform="translate(428.30078125,310.8046875)"/>
<path d="M0 0 C0.76473633 -0.01257339 1.52947266 -0.02514679 2.31738281 -0.0381012 C50.78419678 -0.67802491 96.89742928 12.88148897 133.0703125 46.28515625 C134.81610749 47.88050571 136.57897477 49.37279482 138.43359375 50.8359375 C142.1124342 54.02426589 145.15193241 57.52258035 148.24609375 61.2734375 C148.85976807 62.01062012 148.85976807 62.01062012 149.48583984 62.76269531 C159.0055501 74.26437233 166.50051386 86.33772883 172.99609375 99.7734375 C173.34881348 100.4955542 173.7015332 101.2176709 174.06494141 101.96166992 C180.26187691 115.17123329 183.71883274 129.35702042 187.26806641 143.44702148 C188.00318886 146.36409192 188.74704743 149.27883342 189.4921875 152.19335938 C189.96795226 154.06497603 190.44323068 155.93671641 190.91796875 157.80859375 C191.24761627 159.10241722 191.24761627 159.10241722 191.58392334 160.42237854 C193.239464 167.0118112 194.37507814 173.1548409 194.34375 179.984375 C194.34052734 181.22832031 194.33730469 182.47226562 194.33398438 183.75390625 C194.32560547 185.03910156 194.31722656 186.32429687 194.30859375 187.6484375 C194.30408203 188.95683594 194.29957031 190.26523437 194.29492188 191.61328125 C194.28316969 194.83338031 194.26673918 198.0533852 194.24609375 201.2734375 C193.58609375 201.6034375 192.92609375 201.9334375 192.24609375 202.2734375 C183.09794319 183.50395618 174.37294262 164.8734508 167.38671875 145.17578125 C163.2366477 133.51453351 157.97685222 122.23902341 152.24609375 111.2734375 C151.7046875 111.59699219 151.16328125 111.92054688 150.60546875 112.25390625 C145.13438428 114.61806693 137.75014826 114.05405678 132.12109375 112.2734375 C121.95313807 107.68623088 116.02268707 100.11159135 111.24609375 90.2734375 C110.83230469 89.54382813 110.41851563 88.81421875 109.9921875 88.0625 C109.20765063 85.12972865 109.34942637 83.44621584 109.71875 80.46484375 C111.09180706 70.29324601 111.09180706 70.29324601 107.63183594 61.02441406 C102.50893357 56.11787078 96.38981164 52.73332073 90.24609375 49.2734375 C88.89323567 48.42829175 87.54622412 47.57366773 86.20703125 46.70703125 C74.93066979 39.49367355 62.77397133 33.75967221 50.55859375 28.3359375 C49.89931885 28.04122559 49.24004395 27.74651367 48.56079102 27.44287109 C42.36143458 24.74582653 37.85364066 24.11955377 31.12109375 24.6484375 C29.90164063 24.73867187 28.6821875 24.82890625 27.42578125 24.921875 C24.2280561 25.16275202 24.2280561 25.16275202 21.24609375 26.2734375 C22.56609375 26.6034375 23.88609375 26.9334375 25.24609375 27.2734375 C25.24609375 27.9334375 25.24609375 28.5934375 25.24609375 29.2734375 C22.18454754 30.15425358 19.36698698 30.46581952 16.18359375 30.5234375 C15.32636719 30.54921875 14.46914063 30.575 13.5859375 30.6015625 C11.24609375 30.2734375 11.24609375 30.2734375 9.41796875 29.01953125 C7.29563059 25.8572474 8.59653506 22.8755357 9.24609375 19.2734375 C8.58222656 19.08007812 7.91835938 18.88671875 7.234375 18.6875 C6.35136719 18.42710937 5.46835937 18.16671875 4.55859375 17.8984375 C3.68847656 17.64320313 2.81835938 17.38796875 1.921875 17.125 C-0.75390625 16.2734375 -0.75390625 16.2734375 -3.03515625 15.24609375 C-6.12227172 14.14165158 -8.65632826 13.95612453 -11.9296875 13.859375 C-13.08662109 13.82070312 -14.24355469 13.78203125 -15.43554688 13.7421875 C-17.23282227 13.69578125 -17.23282227 13.69578125 -19.06640625 13.6484375 C-20.28392578 13.60976562 -21.50144531 13.57109375 -22.75585938 13.53125 C-25.75505853 13.43715748 -28.75425448 13.35151541 -31.75390625 13.2734375 C-29.64386838 10.99100958 -27.62587174 9.49793984 -24.8828125 8.046875 C-24.14353516 7.655 -23.40425781 7.263125 -22.64257812 6.859375 C-21.87494141 6.45976562 -21.10730469 6.06015625 -20.31640625 5.6484375 C-19.55263672 5.24109375 -18.78886719 4.83375 -18.00195312 4.4140625 C-11.77383297 1.14009856 -7.08230562 0.10513843 0 0 Z " fill="#E5E0DD" transform="translate(417.75390625,208.7265625)"/>
<path d="M0 0 C3.44611486 1.26894323 6.56800198 2.84212023 9.75317383 4.6640625 C21.34979192 11.22363921 33.76194908 15.17195625 46.49609375 18.93359375 C65.29535804 24.49077186 80.79062635 30.18753623 95 44 C95.77859375 44.7528125 96.5571875 45.505625 97.359375 46.28125 C101.18062103 50.49990562 102.40910053 53.52333312 102.5 59.25 C102.30573175 62.92166988 101.78612256 66.4100403 101 70 C100.48953125 69.71125 99.9790625 69.4225 99.453125 69.125 C92.18244279 65.41231121 85.28880996 64.69326187 77.328125 66.66015625 C67.40339546 70.22011358 60.14313969 77.50651559 53 85 C52.938125 84.38125 52.87625 83.7625 52.8125 83.125 C52.19983994 80.77250387 52.19983994 80.77250387 49.7578125 79.99609375 C48.84773437 79.66738281 47.93765625 79.33867187 47 79 C34.29155718 69.99323757 24.36094706 58.98527334 16 46 C16.94991707 56.44908778 20.32186905 64.19797824 26 73 C22.60582305 71.68105067 19.33924461 70.21035872 16.0625 68.625 C-3.2297387 59.78925924 -24.08814926 58.12667253 -44.171875 65.1015625 C-47 66 -47 66 -50 66 C-51.98828125 64.71484375 -51.98828125 64.71484375 -54.3125 62.9375 C-62.12906215 57.2902921 -70.7793392 52.86399313 -80 50 C-77.33153566 47.85575202 -74.93707428 46.42678852 -71.71875 45.2734375 C-70.47073608 44.81614258 -70.47073608 44.81614258 -69.19750977 44.34960938 C-68.30733154 44.02798828 -67.41715332 43.70636719 -66.5 43.375 C-46.62111401 35.97981251 -26.28223241 28.14980406 -11 13 C-10.24589844 12.28328125 -9.49179687 11.5665625 -8.71484375 10.828125 C-5.23554446 7.46880155 -2.18914696 4.37829392 0 0 Z " fill="#B39F98" transform="translate(488,360)"/>
<path d="M0 0 C5.80708019 3.70950496 11.50201718 9.50524466 14 16 C14.22161688 18.87814134 14.33246817 21.6236896 14.3125 24.5 C14.30903564 25.30010498 14.30557129 26.10020996 14.30200195 26.92456055 C14.14961724 35.30740377 13.20845804 44.13750461 8 51 C5.09594727 51.91894531 5.09594727 51.91894531 1.56640625 52.328125 C0.27669922 52.48796875 -1.01300781 52.6478125 -2.34179688 52.8125 C-3.70699255 52.95869521 -5.07222721 53.10452677 -6.4375 53.25 C-7.76782338 53.40942494 -9.09790692 53.57086492 -10.42773438 53.734375 C-14.28234923 54.19257587 -18.1364914 54.62564159 -22 55 C-22.87792709 55.08735413 -23.75585419 55.17470825 -24.66038513 55.26470947 C-32.40013827 55.97928001 -40.08542399 56.17596478 -47.85546875 56.203125 C-49.15535233 56.20882507 -50.4552359 56.21452515 -51.79450989 56.22039795 C-54.53675719 56.23082164 -57.278976 56.2367182 -60.02124023 56.24023438 C-62.77560923 56.24458554 -65.52965906 56.25836287 -68.28393555 56.28125 C-86.10531453 56.42652005 -103.32477408 55.4959442 -121 53 C-120.67 38.81 -120.34 24.62 -120 10 C-92.84457826 -1.63803789 -65.02180271 -1.91611018 -37.76953125 8.75390625 C-30.53121003 12.01064034 -30.53121003 12.01064034 -28.63671875 15.5390625 C-24.85228005 27.84238173 -24.00453694 40.89789605 -29 53 C-28.01585567 51.08588443 -27.03786651 49.1686033 -26.0625 47.25 C-25.24458984 45.64898438 -25.24458984 45.64898438 -24.41015625 44.015625 C-21.02248549 36.77107701 -20.6531889 27.36975337 -22.6015625 19.6015625 C-23.42731052 17.59685672 -23.42731052 17.59685672 -25 15 C-25.67334397 13.67002627 -26.34136357 12.33731832 -27 11 C-20.16857781 4.47219657 -9.98867303 -2.9087894 0 0 Z " fill="#A49D99" transform="translate(517,590)"/>
<path d="M0 0 C5.59557247 0.62178191 10.62956929 2.00478204 15.96484375 3.7734375 C16.82382263 4.0533252 17.68280151 4.33321289 18.56781006 4.62158203 C21.35971303 5.53338759 24.14865633 6.45388393 26.9375 7.375 C28.86230785 8.00626067 30.78719456 8.63728095 32.7121582 9.26806641 C49.19725556 14.68324802 65.61873219 20.27888168 82 26 C79.09113311 35.15277063 73.77976272 42.85686859 65.39453125 47.78515625 C53.1805934 53.98178704 41.03658499 54.85175294 27.78125 51.0390625 C15.52540726 46.46033474 8.67926144 39.09134585 3.2199707 27.59399414 C0.17924837 20.78274063 -0.12772334 14.43273765 -0.0625 7.0625 C-0.05798828 6.37865234 -0.05347656 5.69480469 -0.04882812 4.99023438 C-0.0371956 3.32678396 -0.01926694 1.6633795 0 0 Z " fill="#D7CAC6" transform="translate(392,460)"/>
<path d="M0 0 C1.98 1.32 3.96 2.64 6 4 C5.84015625 5.27230469 5.6803125 6.54460937 5.515625 7.85546875 C3.53775744 25.79304419 4.9456634 40.98681245 13.4765625 56.96875 C14.72860015 59.4599839 15.46910166 61.31333262 16 64 C21.44146672 85.30472561 32.94318122 102.52786451 51.84033203 114.12988281 C67.34137243 123.16109857 84.31054699 126.4824669 102 128 C102 128.33 102 128.66 102 129 C77.90810039 129.28701275 54.74924476 126.28399154 31.3125 121 C30.20068359 120.75088867 29.08886719 120.50177734 27.94335938 120.24511719 C24.94572688 119.548227 21.97148351 118.80055985 19 118 C18.269021 117.80905762 17.53804199 117.61811523 16.78491211 117.42138672 C13.02095591 116.17544865 12.03512978 115.06872214 10.21484375 111.5078125 C9.76012725 110.05562072 9.33616121 108.59356981 8.9375 107.125 C8.69837891 106.32980957 8.45925781 105.53461914 8.21289062 104.71533203 C7.4491528 102.15042923 6.72506205 99.57606877 6 97 C5.50386246 95.32736341 5.005173 93.6554816 4.50390625 91.984375 C1.67480073 82.4448587 -0.86770434 72.83201171 -3.3125 63.1875 C-3.56708984 62.19153809 -3.82167969 61.19557617 -4.08398438 60.16943359 C-9.04138501 40.27566851 -8.71196013 18.84679055 0 0 Z " fill="#B19D96" transform="translate(376,444)"/>
<path d="M0 0 C5.80708019 3.70950496 11.50201718 9.50524466 14 16 C14.22161688 18.87814134 14.33246817 21.6236896 14.3125 24.5 C14.30730347 25.70015747 14.30730347 25.70015747 14.30200195 26.92456055 C14.18188132 33.5325228 13.37728178 39.78776161 11 46 C10.69320312 46.89460937 10.38640625 47.78921875 10.0703125 48.7109375 C6.61720888 52.52889735 2.12788891 52.32155644 -2.8125 52.8125 C-3.84318604 52.93085205 -4.87387207 53.0492041 -5.93579102 53.17114258 C-13.64700331 54.00353097 -21.24484347 54.36289294 -29 54 C-28.57847656 53.10796875 -28.15695312 52.2159375 -27.72265625 51.296875 C-27.17480469 50.12640625 -26.62695312 48.9559375 -26.0625 47.75 C-25.51722656 46.58984375 -24.97195313 45.4296875 -24.41015625 44.234375 C-21.16438223 36.78977421 -20.61467131 27.5233235 -22.6015625 19.6015625 C-23.42731052 17.59685672 -23.42731052 17.59685672 -25 15 C-25.67334397 13.67002627 -26.34136357 12.33731832 -27 11 C-20.16857781 4.47219657 -9.98867303 -2.9087894 0 0 Z " fill="#A49D99" transform="translate(517,590)"/>
<path d="M0 0 C3.05177888 0.54822375 6.02577935 1.26008352 9.01171875 2.0859375 C10.57030863 2.51563905 12.12890259 2.94532577 13.6875 3.375 C14.51604492 3.60413086 15.34458984 3.83326172 16.19824219 4.06933594 C21.26538368 5.42198067 26.20624019 6.34771293 31.41113281 6.96533203 C40.91203699 8.12170513 40.91203699 8.12170513 44.57421875 11.078125 C46.29456512 13.31421462 47.63876286 15.53638393 49 18 C49.53367187 18.49113281 50.06734375 18.98226562 50.6171875 19.48828125 C52.46948209 21.51324737 52.49156171 22.98355154 52.6875 25.6875 C52.78611328 26.89986328 52.78611328 26.89986328 52.88671875 28.13671875 C52.94279297 29.05904297 52.94279297 29.05904297 53 30 C48.57676318 29.41734728 45.4844136 27.73233789 41.6875 25.4375 C40.08455078 24.47650391 40.08455078 24.47650391 38.44921875 23.49609375 C37.64097656 23.00238281 36.83273437 22.50867188 36 22 C38.90511709 26.05892246 41.7418194 29.87455402 45.4375 33.25 C46.7059375 34.61125 46.7059375 34.61125 48 36 C47.66015625 38.171875 47.66015625 38.171875 47 40 C44.92578125 40.87109375 44.92578125 40.87109375 42 41 C39.41702147 39.34939864 37.34356395 37.22817851 35.1875 35.0625 C34.59001953 34.48564453 33.99253906 33.90878906 33.37695312 33.31445312 C31.90498798 31.88959087 30.45072766 30.44647955 29 29 C29 32.1941391 29.52264974 33.3181167 31 36.0625 C33 39.79166667 33 39.79166667 33 42 C20.97550736 40.13413045 9.65227094 34.61340571 2 25 C1.54882812 24.45859375 1.09765625 23.9171875 0.6328125 23.359375 C-3.046604 18.13206605 -2.59478289 12.14325756 -2 6 C-1 2.25 -1 2.25 0 0 Z " fill="#B19D96" transform="translate(334,654)"/>
<path d="M0 0 C5.2729549 2.79156436 8.88553547 6.18432793 11.09716797 11.77197266 C12.03113761 15.11133086 12.22955242 17.81520573 12.1953125 21.2734375 C12.18886719 22.42714844 12.18242187 23.58085938 12.17578125 24.76953125 C12.15902344 25.95933594 12.14226562 27.14914062 12.125 28.375 C12.11597656 29.58800781 12.10695313 30.80101562 12.09765625 32.05078125 C12.07416588 35.03405773 12.04131682 38.01692594 12 41 C-2.27491601 41.87199713 -15.99712799 40.50143601 -29 34 C-27.98581418 24.06741827 -22.21425449 11.08707634 -14.6875 4.4375 C-9.85648215 0.86234423 -6.1109945 -0.63217184 0 0 Z " fill="#A29B97" transform="translate(373,587)"/>
<path d="M0 0 C-0.3466807 13.39448165 -4.83553327 26.15289142 -14 36 C-17.97014102 39.65061257 -21.60573521 41.29159066 -27 41.6875 C-31.50939649 41.37722042 -34.58328977 40.30307484 -38.04296875 37.37890625 C-43.40568579 30.86015439 -47.5253258 22.30276494 -49 14 C-48.25129639 13.78907715 -47.50259277 13.5781543 -46.73120117 13.36083984 C-27.04203766 7.81045722 -27.04203766 7.81045722 -7.51245117 1.72802734 C-2.19213713 0 -2.19213713 0 0 0 Z " fill="#D6C9C5" transform="translate(577,468)"/>
<path d="M0 0 C8.21759656 2.02072047 16.20293094 4.68052442 24.2097168 7.39868164 C29.43851456 9.16903885 34.68213405 10.83065005 39.98413086 12.36914062 C43.40489586 13.43965737 44.38814739 14.39321645 46.0625 17.5 C47.3141421 19.9117304 47.3141421 19.9117304 49 22 C51.41583753 22.33374277 51.41583753 22.33374277 54 22 C54.45632813 21.484375 54.91265625 20.96875 55.3828125 20.4375 C57 19 57 19 59.15625 19.109375 C59.9296875 19.32078125 60.703125 19.5321875 61.5 19.75 C62.2734375 19.95109375 63.046875 20.1521875 63.84375 20.359375 C65.57271201 20.87305212 67.28890198 21.42963399 69 22 C69 23.32 69 24.64 69 26 C59.10057733 34.45274295 47.5434428 35.93298335 35 35 C23.56102972 33.36586139 13.18021809 28.24475917 6 19 C2.02614669 12.78633846 0.35511519 7.33904735 0 0 Z " fill="#FAEBE7" transform="translate(394,478)"/>
<path d="M0 0 C18.50188795 0.26318475 34.73231477 13.70772936 48.57763672 24.62548828 C50.89163855 26.43695181 53.22507147 28.22012316 55.56640625 29.99609375 C56.72692505 30.87648315 56.72692505 30.87648315 57.91088867 31.7746582 C59.3961442 32.90026687 60.88195834 34.02513893 62.3684082 35.14916992 C63.03831787 35.65939697 63.70822754 36.16962402 64.3984375 36.6953125 C64.9867334 37.14148926 65.5750293 37.58766602 66.18115234 38.04736328 C67.84013944 39.39749376 69.3113889 40.85350753 70.8125 42.375 C63.16120873 40.36064892 55.62221461 38.09963065 48.1015625 35.64453125 C47.01273773 35.29041672 45.92391296 34.93630219 44.80209351 34.57145691 C42.50741645 33.8240235 40.21320266 33.07516645 37.91943359 32.32495117 C34.48327585 31.2024537 31.04448714 30.08830669 27.60546875 28.97460938 C13.84648492 24.49489703 0.27652644 19.67631437 -13.1875 14.375 C-12.39594536 10.70826794 -11.05526847 8.62295067 -8.6875 5.6875 C-8.0584375 4.89988281 -7.429375 4.11226563 -6.78125 3.30078125 C-4.39276539 0.41469568 -3.76738502 0.15979121 0 0 Z " fill="#7A6C67" transform="translate(394.1875,422.625)"/>
<path d="M0 0 C-0.50660156 0.79664063 -0.50660156 0.79664063 -1.0234375 1.609375 C-1.46945312 2.31578125 -1.91546875 3.0221875 -2.375 3.75 C-2.81585938 4.44609375 -3.25671875 5.1421875 -3.7109375 5.859375 C-4.91880906 7.86517383 -5.98387737 9.89178296 -7 12 C-9.31 12 -11.62 12 -14 12 C-15.49106457 14.98212913 -15.11941467 17.71609658 -15 21 C-13.87465895 22.35618499 -13.87465895 22.35618499 -10.9375 22.0625 C-9.4834375 22.0315625 -9.4834375 22.0315625 -8 22 C-7.81566406 22.82242188 -7.63132812 23.64484375 -7.44140625 24.4921875 C-4.33384906 36.45282984 1.84367802 43.60310828 12.34765625 49.94140625 C13.16556641 50.46541016 13.16556641 50.46541016 14 51 C14 51.33 14 51.66 14 52 C0.09931094 52.55934218 -13.21296308 50.79830916 -27 49 C-26.67 34.81 -26.34 20.62 -26 6 C-20.73838271 3.74502116 -16.19971768 2.09209465 -10.75 0.75 C-10.04359375 0.564375 -9.3371875 0.37875 -8.609375 0.1875 C-3.36830357 -1.12276786 -3.36830357 -1.12276786 0 0 Z " fill="#8C847F" transform="translate(423,594)"/>
<path d="M0 0 C3.99819813 1.23987838 7.02547334 3.41870509 10.421875 5.82421875 C11.11990234 6.31349854 11.81792969 6.80277832 12.53710938 7.30688477 C26.38194094 17.12944506 26.38194094 17.12944506 30.859375 21.88671875 C30.859375 23.20671875 30.859375 24.52671875 30.859375 25.88671875 C32.19548828 26.24443359 32.19548828 26.24443359 33.55859375 26.609375 C42.97250958 30.25239332 49.72887111 41.20172893 55.859375 48.88671875 C56.85591535 50.09553193 57.85474522 51.30246011 58.85546875 52.5078125 C67.72758764 63.23064838 76.13635042 74.30218188 83.859375 85.88671875 C83.364375 87.37171875 83.364375 87.37171875 82.859375 88.88671875 C78.91685461 88.67652674 77.2886379 88.33380818 74.5078125 85.4375 C73.75757813 84.36886719 73.00734375 83.30023438 72.234375 82.19921875 C71.36944964 81.00652172 70.50081445 79.81650811 69.62890625 78.62890625 C69.17854004 78.01112305 68.72817383 77.39333984 68.26416016 76.75683594 C65.94495367 73.66939734 63.4455659 70.74525154 60.921875 67.82421875 C60.41922119 67.24164307 59.91656738 66.65906738 59.39868164 66.05883789 C55.15875644 61.17759089 50.80964578 56.40118548 46.4140625 51.66015625 C44.17019561 49.22415397 41.98061473 46.75135198 39.796875 44.26171875 C35.30036665 39.26108107 30.59259654 34.47542128 25.859375 29.69921875 C25.11163818 28.93851074 24.36390137 28.17780273 23.59350586 27.39404297 C17.28429465 21.07448992 10.72721352 14.81798644 2.484375 11.13671875 C-0.60125842 9.7457348 -3.02672493 8.58705561 -5.140625 5.88671875 C-5.140625 2.88671875 -5.140625 2.88671875 -3.953125 1.13671875 C-2.140625 -0.11328125 -2.140625 -0.11328125 0 0 Z " fill="#C9BFBA" transform="translate(378.140625,235.11328125)"/>
<path d="M0 0 C1.37187957 6.12811264 2.23296054 11.71006555 2 18 C-13.7841746 20.62220965 -29.03211384 21.12785674 -45 21 C-45 14.4 -45 7.8 -45 1 C-40.84152817 0.8553575 -36.68305436 0.71226101 -32.52441406 0.57275391 C-31.11650752 0.52509873 -29.70862833 0.47662679 -28.30078125 0.42724609 C-18.86163259 0.09687589 -9.44624012 -0.06677099 0 0 Z " fill="#78706C" transform="translate(501,672)"/>
<path d="M0 0 C-1.06489724 6.37499292 -6.38351681 10.90863996 -11.23828125 14.7890625 C-23.13649121 22.79710812 -36.92972949 28.58999964 -50.3125 33.625 C-76.63169088 43.54477446 -95.82819402 57.94386276 -107.85546875 83.90234375 C-113.79267686 97.46200142 -115.44300355 111.38364481 -116 126 C-116.66 126 -117.32 126 -118 126 C-118.495 126.99 -118.495 126.99 -119 128 C-119.68656977 102.30820724 -115.86451201 76.34503664 -98.25 56.25 C-93.21498054 51.00104952 -87.79985906 46.38001226 -82 42 C-81.29617188 41.45730469 -80.59234375 40.91460937 -79.8671875 40.35546875 C-69.60224675 32.95924718 -57.23977294 29.01602161 -45.375 25 C-29.85555426 19.68663949 -17.89068541 12.96168687 -5.47363281 2.19580078 C-3.57736147 0.65704382 -2.4683108 0 0 0 Z " fill="#E1DCD9" transform="translate(470,355)"/>
<path d="M0 0 C14.52 0.99 29.04 1.98 44 3 C44 9.6 44 16.2 44 23 C39.51953729 22.75795201 35.03967591 22.51170316 30.56005859 22.25537109 C29.0416353 22.16967694 27.52308058 22.08627522 26.00439453 22.00537109 C16.88067455 21.51756824 7.98590987 20.77153279 -1 19 C-1.10551806 12.45788013 -0.66396147 6.63961468 0 0 Z " fill="#7A726E" transform="translate(402,670)"/>
<path d="M0 0 C1.8243457 0.16435547 1.8243457 0.16435547 3.68554688 0.33203125 C7.23069534 0.65552843 10.77136635 1.01042998 14.3125 1.375 C24.02573225 2.35885134 33.75410722 2.90007543 43.5 3.4375 C45.13607746 3.52912293 46.77214526 3.62091853 48.40820312 3.71289062 C52.37619363 3.93558253 56.34430716 4.15594428 60.3125 4.375 C60.3125 5.365 60.3125 6.355 60.3125 7.375 C57.35504065 9.98430534 53.93741118 11.99313675 50.625 14.125 C49.71298828 14.73988281 48.80097656 15.35476563 47.86132812 15.98828125 C46.97509766 16.56449219 46.08886719 17.14070312 45.17578125 17.734375 C44.36407471 18.26514648 43.55236816 18.79591797 42.71606445 19.34277344 C39.69285697 20.64110977 38.40910095 20.40639845 35.3125 19.375 C32.82055664 18.14404297 32.82055664 18.14404297 30.22265625 16.6171875 C29.27326172 16.07449219 28.32386719 15.53179688 27.34570312 14.97265625 C25.36475299 13.8239396 23.38816406 12.66766909 21.41601562 11.50390625 C20.46533203 10.96378906 19.51464844 10.42367187 18.53515625 9.8671875 C17.24750366 9.11477783 17.24750366 9.11477783 15.93383789 8.34716797 C11.50130388 6.70328696 7.61130637 8.06072464 3.40234375 9.85546875 C2.72236328 10.13197266 2.04238281 10.40847656 1.34179688 10.69335938 C-0.06024425 11.27590681 -1.45869511 11.86716651 -2.85351562 12.46679688 C-6.01576308 13.73710141 -8.07777221 14.52095467 -11.4453125 13.71484375 C-14.69488702 11.77302483 -17.65027388 9.63803122 -20.6875 7.375 C-19.63400231 4.21450694 -18.45635478 2.42344856 -15.84130859 0.34667969 C-10.93850272 -1.86519601 -5.19296575 -0.55803388 0 0 Z " fill="#A09995" transform="translate(405.6875,699.625)"/>
<path d="M0 0 C0 1.65 0 3.3 0 5 C-4.29274327 6.96046543 -8.62320411 7.76648358 -13.25 8.5 C-13.94351563 8.61730469 -14.63703125 8.73460937 -15.3515625 8.85546875 C-17.89695073 9.27076893 -20.44630676 9.63905697 -23 10 C-24.19326904 10.17499023 -25.38653809 10.34998047 -26.6159668 10.53027344 C-38.51843551 12.1697605 -50.31303608 12.3134396 -62.3125 12.25 C-63.31802917 12.24756287 -64.32355835 12.24512573 -65.35955811 12.24261475 C-85.72430491 12.1848212 -105.91105727 11.62143073 -126 8 C-126.33 6.02 -126.66 4.04 -127 2 C-123.64557336 2.1401998 -120.29153225 2.28818428 -116.9375 2.4375 C-115.99455078 2.47681641 -115.05160156 2.51613281 -114.08007812 2.55664062 C-113.15517578 2.59853516 -112.23027344 2.64042969 -111.27734375 2.68359375 C-110.43421631 2.72025146 -109.59108887 2.75690918 -108.72241211 2.79467773 C-106 3 -106 3 -103.02148438 3.50927734 C-97.1868183 4.37375432 -91.26272182 4.1627994 -85.37890625 4.16796875 C-84.03393012 4.17119343 -82.68895433 4.17455835 -81.34397888 4.17805481 C-78.52057081 4.18403018 -75.69719323 4.18589699 -72.8737793 4.18530273 C-70.02996332 4.18522237 -67.1863115 4.19201941 -64.3425293 4.20581055 C-34.38513683 4.74245942 -34.38513683 4.74245942 -4.89161682 0.39836121 C-3 0 -3 0 0 0 Z " fill="#9C9591" transform="translate(525,651)"/>
<path d="M0 0 C7.06339537 0.53587004 13.79920462 1.67982301 20.6875 3.3125 C21.6566333 3.54122803 22.6257666 3.76995605 23.62426758 4.00561523 C25.55361404 4.46362461 27.48227076 4.92455129 29.41015625 5.38867188 C31.5368388 5.8906716 33.67359509 6.34980881 35.8125 6.796875 C56.19713781 11.42116784 75.0410253 20.35966633 89 36 C89.9411839 36.98572945 90.8863194 37.96770565 91.8359375 38.9453125 C97.47319946 44.88729132 102.34092219 51.27166695 107 58 C106.01 58.99 106.01 58.99 105 60 C104.28714844 59.14277344 103.57429687 58.28554688 102.83984375 57.40234375 C86.08739155 37.35101027 68.31884624 26.07569247 43.0625 19.4375 C11.48646655 11.05065823 11.48646655 11.05065823 0 1 C0 0.67 0 0.34 0 0 Z " fill="#E1DCD9" transform="translate(499,347)"/>
<path d="M0 0 C7.68056473 5.81231925 7.68056473 5.81231925 8.28540039 9.95458984 C8.40718696 12.41504686 8.41438343 14.84930858 8.375 17.3125 C8.36702393 18.20316162 8.35904785 19.09382324 8.35083008 20.01147461 C8.18200162 27.95638495 6.96226146 35.28849585 5 43 C4.80664062 43.86753906 4.61328125 44.73507812 4.4140625 45.62890625 C2.81970552 52.24445241 0.3863881 58.57559524 -2 64.9375 C-2.51663208 66.32509521 -2.51663208 66.32509521 -3.04370117 67.74072266 C-3.37990479 68.61905762 -3.7161084 69.49739258 -4.0625 70.40234375 C-4.36285156 71.19116943 -4.66320312 71.97999512 -4.97265625 72.79272461 C-6.0613492 75.13181039 -7.38572291 76.99501527 -9 79 C-8.94465088 78.2565332 -8.88930176 77.51306641 -8.83227539 76.74707031 C-8.57323133 73.24822338 -8.31771944 69.74912796 -8.0625 66.25 C-7.96751221 64.96609375 -7.87252441 63.6821875 -7.7746582 62.359375 C-7.3724906 56.79785241 -6.97115841 51.24661499 -6.8203125 45.671875 C-6.4091587 30.57089397 -4.79283486 14.37850459 0 0 Z " fill="#A09994" transform="translate(605,434)"/>
<path d="M0 0 C10.89 3.63 21.78 7.26 33 11 C31.29068069 16.12795792 30.01390911 18.72353956 26.875 22.875 C26.15054687 23.84179688 25.42609375 24.80859375 24.6796875 25.8046875 C24.12539063 26.52914063 23.57109375 27.25359375 23 28 C22.67 27.01 22.34 26.02 22 25 C20.06685873 24.58340056 18.12819653 24.19235163 16.1875 23.8125 C15.10855469 23.59207031 14.02960938 23.37164062 12.91796875 23.14453125 C10.00471723 22.67424976 10.00471723 22.67424976 8.26171875 24.4140625 C7.84535156 24.93742187 7.42898438 25.46078125 7 26 C4.625 26.5625 4.625 26.5625 2 26 C-2.79098796 21.20901204 -4.1176819 17.70780096 -4.3125 11.125 C-4.34988281 10.30257813 -4.38726562 9.48015625 -4.42578125 8.6328125 C-4 6 -4 6 0 0 Z " fill="#94BED7" transform="translate(441,475)"/>
<path d="M0 0 C1.26581124 3.79743372 0.5205957 4.68335142 -1.09375 8.26953125 C-15.89731295 42.27785455 -23.3331409 73.99116228 -24 111 C-28.19292209 106.80707791 -27.18784661 99.56234587 -27.23828125 93.9296875 C-27.246353 93.05337677 -27.25442474 92.17706604 -27.26274109 91.27420044 C-27.27653879 89.41670681 -27.28728013 87.55918829 -27.29516602 85.70166016 C-27.30656878 83.84220703 -27.3268293 81.98278348 -27.35668945 80.12353516 C-27.62468546 63.38800777 -26.3590012 46.4800899 -19.25 31.0625 C-18.90783447 30.28729004 -18.56566895 29.51208008 -18.21313477 28.71337891 C-13.47129354 18.25034429 -7.31865966 8.85100402 0 0 Z " fill="#22201E" transform="translate(357,354)"/>
<path d="M0 0 C5.40508043 0.61303628 9.92439045 2.44380693 14.875 4.5625 C15.65875 4.89185547 16.4425 5.22121094 17.25 5.56054688 C19.16908756 6.36796786 21.0848865 7.18319769 23 8 C23 8.66 23 9.32 23 10 C23.66 10 24.32 10 25 10 C23.55746343 13.36591866 21.66735273 15.51047079 19 18 C18.67 17.34 18.34 16.68 18 16 C17.34 16.66 16.68 17.32 16 18 C13.375 18.125 13.375 18.125 11 18 C11.33 19.98 11.66 21.96 12 24 C13.65 23.67 15.3 23.34 17 23 C16.36281399 25.00958663 15.68836513 27.00736409 15 29 C14.79375 29.63421875 14.5875 30.2684375 14.375 30.921875 C13.6875 32.8125 13.6875 32.8125 12 36 C9.5 36.8125 9.5 36.8125 7 37 C6.01 37.66 5.02 38.32 4 39 C0.875 39.1875 0.875 39.1875 -2 39 C-2.33 38.67 -2.66 38.34 -3 38 C-2.95212993 32.39920168 -1.8114692 27.02971296 -0.4375 21.625 C1.27614635 14.56979258 2.33706362 7.01119085 0 0 Z " fill="#3C3938" transform="translate(323,574)"/>
<path d="M0 0 C-0.75 7.625 -0.75 7.625 -3 11 C-5.8791019 12.05023843 -8.67888836 12.93427933 -11.625 13.75 C-13.42841841 14.26681196 -15.23180225 14.78374458 -17.03515625 15.30078125 C-17.99566895 15.57229004 -18.95618164 15.84379883 -19.94580078 16.12353516 C-23.15969409 17.04582748 -26.35934016 18.00866895 -29.55859375 18.98046875 C-31.72654052 19.63288553 -33.89450888 20.28523059 -36.0625 20.9375 C-37.10293457 21.2562207 -38.14336914 21.57494141 -39.21533203 21.90332031 C-40.18712402 22.19174805 -41.15891602 22.48017578 -42.16015625 22.77734375 C-43.02261963 23.03765381 -43.88508301 23.29796387 -44.77368164 23.56616211 C-47 24 -47 24 -50 23 C-17.99693918 -7.38335966 -17.99693918 -7.38335966 0 0 Z " fill="#786B66" transform="translate(587,440)"/>
<path d="M0 0 C0.66 0.66 1.32 1.32 2 2 C1.54351074 2.41862305 1.08702148 2.83724609 0.61669922 3.26855469 C-1.03742069 5.04007665 -1.88264455 6.50238193 -2.8671875 8.703125 C-3.19332031 9.42967285 -3.51945312 10.1562207 -3.85546875 10.90478516 C-4.19191406 11.67870605 -4.52835937 12.45262695 -4.875 13.25 C-5.22433594 14.04325684 -5.57367188 14.83651367 -5.93359375 15.65380859 C-9.09417513 22.96192412 -11.66540462 30.39011697 -14 38 C-19.4929355 37.31421533 -23.90199716 36.05708887 -29 34 C-27.98581418 24.06741827 -22.21425449 11.08707634 -14.6875 4.4375 C-9.80940021 0.82750162 -6.16441631 -0.45662343 0 0 Z " fill="#898380" transform="translate(373,587)"/>
<path d="M0 0 C1.92960571 0.24447876 1.92960571 0.24447876 3.89819336 0.49389648 C8.8247557 1.03915505 13.67670329 1.12850688 18.62890625 1.09765625 C19.94156715 1.09553383 19.94156715 1.09553383 21.28074646 1.09336853 C24.04136762 1.08782719 26.80190388 1.07528612 29.5625 1.0625 C31.44856653 1.0574774 33.33463434 1.05291583 35.22070312 1.04882812 C39.81383417 1.03787707 44.40690275 1.02065384 49 1 C49.99 4.3 50.98 7.6 52 11 C34.12176642 13.64135075 16.8060602 13.08239361 -1 10 C-1.125 2.25 -1.125 2.25 0 0 Z " fill="#605A57" transform="translate(380,726)"/>
<path d="M0 0 C0.55717317 8.76000042 -0.4681321 16.34790445 -2.57714844 24.81787109 C-3.52269011 28.63796058 -4.25231674 32.02601131 -4 36 C0.75565125 36.33178962 3.02886933 35.53711126 7 33 C7.66 33.33 8.32 33.66 9 34 C6.54692955 42.25667616 3.4053626 51.97142343 -3 58 C-5.31809482 58.71786162 -7.65130232 59.38966557 -10 60 C-10.32504451 53.84835967 -10.61320819 47.69613281 -10.87548828 41.54150391 C-10.97202336 39.57105262 -11.11521133 37.60285973 -11.27734375 35.63671875 C-11.82562205 26.3962235 -8.60463624 17.83473032 -5.71972656 9.17285156 C-5.09234077 7.27877642 -4.50727962 5.3707859 -3.9296875 3.4609375 C-2.62222222 0 -2.62222222 0 0 0 Z " fill="#272524" transform="translate(325,576)"/>
<path d="M0 0 C2.72567028 1.78842096 5.26313731 3.78307702 7.8125 5.8125 C9.31094437 6.98339747 10.8096504 8.15396013 12.30859375 9.32421875 C13.07671387 9.9279834 13.84483398 10.53174805 14.63623047 11.15380859 C17.00478739 13.00373913 19.39072138 14.82824927 21.78515625 16.64453125 C22.55432373 17.22807373 23.32349121 17.81161621 24.1159668 18.4128418 C25.594693 19.53359257 27.07400019 20.65357729 28.55395508 21.77270508 C29.22450928 22.28341553 29.89506348 22.79412598 30.5859375 23.3203125 C31.1742334 23.76648926 31.7625293 24.21266602 32.36865234 24.67236328 C34.02710497 26.02205879 35.51562433 27.46267127 37 29 C29.21878058 26.97810834 21.60227292 24.61369593 14 22 C14 21.34 14 20.68 14 20 C12.77410156 19.75507813 11.54820312 19.51015625 10.28515625 19.2578125 C4.1901033 17.90335629 -1.65921699 15.8890194 -7.5625 13.875 C-8.66658203 13.50246094 -9.77066406 13.12992187 -10.90820312 12.74609375 C-13.60689373 11.83484757 -16.30408033 10.91940476 -19 10 C-12.50855698 2.23078731 -12.50855698 2.23078731 -9.5 -0.0625 C-8.9740625 -0.48660156 -8.448125 -0.91070312 -7.90625 -1.34765625 C-4.74793184 -2.42847414 -2.99388562 -1.35923123 0 0 Z " fill="#8F7F7A" transform="translate(428,436)"/>
<path d="M0 0 C3.78203244 0.68132202 7.3442406 1.69601759 11 2.875 C22.75330899 6.50664042 33.74420991 8.50841229 46 9 C46 11.97 46 14.94 46 18 C35.88638593 23.05680703 16.6948573 16.22479661 6.76171875 12.984375 C3.42738562 11.79589983 0.20914428 10.49262525 -3 9 C-2.44271087 5.65626525 -1.64826111 2.96687001 0 0 Z " fill="#78706C" transform="translate(338,632)"/>
<path d="M0 0 C0.66 0 1.32 0 2 0 C0.93659581 8.50723356 -4.10294841 15.92112902 -10.58984375 21.32421875 C-14.67494773 24.06364142 -18.61554894 24.71362409 -23.49609375 24.52734375 C-29.0733186 23.35273321 -32.92258734 19.61611898 -36 15 C-36 13.68 -36 12.36 -36 11 C-32.60511062 10.01754027 -29.20893071 9.03961667 -25.8125 8.0625 C-24.85279297 7.78470703 -23.89308594 7.50691406 -22.90429688 7.22070312 C-21.97294922 6.95322266 -21.04160156 6.68574219 -20.08203125 6.41015625 C-19.22843018 6.16402588 -18.3748291 5.91789551 -17.49536133 5.66430664 C-15.01053504 5.0028046 -12.52617668 4.47674908 -10 4 C-9.34 5.32 -8.68 6.64 -8 8 C-5.57732914 8.05167527 -5.57732914 8.05167527 -3 7 C-1.13016255 3.52692672 -1.13016255 3.52692672 0 0 Z " fill="#F8EAE5" transform="translate(571,485)"/>
<path d="M0 0 C3.76089712 -0.54846416 5.87106449 -0.741453 9.10546875 1.3828125 C15.07005463 6.5528663 20.67258523 11.74786018 21.30078125 19.90625 C21.31999352 21.43738445 21.32313015 22.96878192 21.3125 24.5 C21.30730347 25.70015747 21.30730347 25.70015747 21.30200195 26.92456055 C21.14946731 35.31565137 20.19773921 44.11054378 15 51 C12.20034321 51.66913403 9.91199859 51.23868841 7 51 C7.41572266 49.93072266 7.41572266 49.93072266 7.83984375 48.83984375 C12.02923568 37.76255477 14.51040525 25.11670719 10.5 13.5625 C8.45526581 9.06556648 5.50656026 6.3334472 1.609375 3.375 C1.07828125 2.92125 0.5471875 2.4675 0 2 C0 1.34 0 0.68 0 0 Z " fill="#C0BCB9" transform="translate(510,590)"/>
<path d="M0 0 C4.59760396 2.15962608 8.03774009 5.44228121 10.34375 9.96484375 C11.60309983 13.87032746 11.78039473 17.97850646 11 22 C9.73828125 23.7890625 9.73828125 23.7890625 8 25 C3.92483308 25.64760405 0.27222764 24.91763312 -3.07421875 22.50390625 C-6.6978271 18.97145786 -9.67222798 15.69454144 -10.30078125 10.52734375 C-10.30464844 9.67269531 -10.30851562 8.81804687 -10.3125 7.9375 C-10.32925781 7.08027344 -10.34601563 6.22304688 -10.36328125 5.33984375 C-10 3 -10 3 -8.68359375 1.22265625 C-5.76327669 -0.89813085 -3.48925165 -0.46523355 0 0 Z " fill="#9A938E" transform="translate(515,286)"/>
<path d="M0 0 C10.41026992 0.37941758 10.41026992 0.37941758 14.5546875 4.125 C17.88846859 8.08437952 18.38498408 12.06631542 18.3046875 17.125 C13.88145068 16.54234728 10.7891011 14.85733789 6.9921875 12.5625 C5.38923828 11.60150391 5.38923828 11.60150391 3.75390625 10.62109375 C2.94566406 10.12738281 2.13742187 9.63367188 1.3046875 9.125 C4.20980459 13.18392246 7.0465069 16.99955402 10.7421875 20.375 C11.5878125 21.2825 12.4334375 22.19 13.3046875 23.125 C12.96484375 25.296875 12.96484375 25.296875 12.3046875 27.125 C10.16796875 27.8671875 10.16796875 27.8671875 7.3046875 28.125 C2.80480333 25.80522165 -1.20169671 22.5940934 -3.6953125 18.125 C-5.04527788 12.54215739 -4.48274253 6.75766482 -3.6953125 1.125 C-2.6953125 0.125 -2.6953125 0.125 0 0 Z " fill="#CCB6AE" transform="translate(368.6953125,666.875)"/>
<path d="M0 0 C0 4.95 0 9.9 0 15 C-6.47990359 18.47994823 -13.50312314 22 -21 22 C-21.34227513 20.4811541 -21.67331214 18.95977467 -22 17.4375 C-22.2784375 16.16712891 -22.2784375 16.16712891 -22.5625 14.87109375 C-23.06867314 11.54933253 -23.06635491 8.35507021 -23 5 C-21.87980469 4.72285156 -20.75960937 4.44570313 -19.60546875 4.16015625 C-18.13279698 3.79433333 -16.66014158 3.42844447 -15.1875 3.0625 C-14.08051758 2.78889648 -14.08051758 2.78889648 -12.95117188 2.50976562 C-2.86647727 0 -2.86647727 0 0 0 Z " fill="#78706C" transform="translate(534,665)"/>
<path d="M0 0 C1.98 0 3.96 0 6 0 C10.2042042 12.61261261 10.2042042 12.61261261 10.375 17.5 C10.44847656 18.93859375 10.44847656 18.93859375 10.5234375 20.40625 C10 23 10 23 7.87109375 24.83203125 C4.57911824 26.17121584 2.22716972 26.30419241 -1.3125 26.1875 C-2.91544922 26.14689453 -2.91544922 26.14689453 -4.55078125 26.10546875 C-5.35902344 26.07066406 -6.16726563 26.03585937 -7 26 C-7.12117188 25.07058594 -7.24234375 24.14117188 -7.3671875 23.18359375 C-8.32844161 15.44487456 -8.32844161 15.44487456 -10.125 7.875 C-11 5 -11 5 -11 1 C-9.02 1 -7.04 1 -5 1 C-1.57458419 8.35642804 0.8014043 14.83952201 1 23 C1.0272367 20.47909222 1.04695207 17.95848543 1.0625 15.4375 C1.07087891 14.73302734 1.07925781 14.02855469 1.08789062 13.30273438 C1.10882603 8.75975202 0.74800682 4.48215108 0 0 Z " fill="#9F9995" transform="translate(490,702)"/>
<path d="M0 0 C6.71953618 5.12806709 6.71953618 5.12806709 7.3359375 9.2421875 C7.53264378 22.50019046 2.06180485 34.4586819 -4 46 C-4.66 46.66 -5.32 47.32 -6 48 C-7.0176264 32.17025603 -5.02199834 15.06599501 0 0 Z " fill="#ACA49F" transform="translate(605,434)"/>
<path d="M0 0 C-0.45224761 5.91492272 -1.1582605 11.35199888 -3 17 C-3.99 17 -4.98 17 -6 17 C-6.1546875 18.11375 -6.1546875 18.11375 -6.3125 19.25 C-7.04253504 22.17014018 -8.06789398 23.73187554 -10 26 C-12.3125 25.9375 -12.3125 25.9375 -15 25 C-18.3525926 19.56648785 -18.59753432 14.28560139 -18 8 C-17.67 7.34 -17.34 6.68 -17 6 C-17.66 5.67 -18.32 5.34 -19 5 C-16.2092793 4.16338138 -13.41751988 3.33057263 -10.625 2.5 C-9.8309375 2.26152344 -9.036875 2.02304687 -8.21875 1.77734375 C-7.45820312 1.55175781 -6.69765625 1.32617188 -5.9140625 1.09375 C-5.2123291 0.88427734 -4.5105957 0.67480469 -3.78759766 0.45898438 C-2 0 -2 0 0 0 Z " fill="#95BDD6" transform="translate(577,468)"/>
<path d="M0 0 C5.22676332 7.84014497 4.08356182 16.47550332 3.625 25.5 C3.56828125 26.799375 3.5115625 28.09875 3.453125 29.4375 C3.31247254 32.62562249 3.16114045 35.81285838 3 39 C0.42446799 36.42878211 -2.14383818 33.85281675 -4.6875 31.25 C-6.78613313 28.98059858 -6.78613313 28.98059858 -9 28 C-8.9278125 27.34515625 -8.855625 26.6903125 -8.78125 26.015625 C-8.06648747 18.98712682 -7.88908396 12.06165482 -8 5 C-5.69 5.33 -3.38 5.66 -1 6 C-0.67 4.02 -0.34 2.04 0 0 Z " fill="#272524" transform="translate(551,602)"/>
<path d="M0 0 C1.77734375 1.203125 1.77734375 1.203125 3.6875 2.75 C8.37301899 6.54133597 13.27209667 8.28080246 19 10 C19.71800781 10.226875 20.43601562 10.45375 21.17578125 10.6875 C32.06758706 13.64121005 42.97030979 12.60092347 53.48828125 8.875 C56 8 56 8 58 8 C58 8.66 58 9.32 58 10 C55.77447742 11.15341698 53.54504031 12.29781159 51.3125 13.4375 C50.68666016 13.76298828 50.06082031 14.08847656 49.41601562 14.42382812 C40.33944095 19.03339746 30.06806786 19.39935795 20.22265625 17.12890625 C11.73190159 14.31709282 5.2964732 10.2964732 -1 4 C-3.21072977 3.75746187 -3.21072977 3.75746187 -5.625 3.875 C-6.85089844 3.90207031 -6.85089844 3.90207031 -8.1015625 3.9296875 C-9.04128906 3.96449219 -9.04128906 3.96449219 -10 4 C-10 3.34 -10 2.68 -10 2 C-6.54103498 -0.12859386 -4.02542453 -0.61929608 0 0 Z " fill="#2C2926" transform="translate(472,541)"/>
<path d="M0 0 C6.48707154 1.6813917 12.7677635 3.53062327 19 6 C17.68018255 10.68187876 15.80204328 14.00374921 12.875 17.875 C12.15054687 18.84179688 11.42609375 19.80859375 10.6796875 20.8046875 C10.12539063 21.52914063 9.57109375 22.25359375 9 23 C8.67 22.01 8.34 21.02 8 20 C5.99264169 19.26639432 5.99264169 19.26639432 3.625 18.9375 C0.29648197 18.36829089 -1.08927425 17.94048384 -4 16 C-3.51917969 15.46890625 -3.03835938 14.9378125 -2.54296875 14.390625 C-0.61619553 11.40534598 -0.5041576 9.27649984 -0.3125 5.75 C-0.24675781 4.67234375 -0.18101562 3.5946875 -0.11328125 2.484375 C-0.07589844 1.66453125 -0.03851563 0.8446875 0 0 Z " fill="#D7CAC7" transform="translate(455,480)"/>
<path d="M0 0 C4.05286628 0.12004204 8.1055787 0.24436187 12.15820312 0.37231445 C13.53121556 0.41510091 14.9042623 0.45680326 16.27734375 0.49731445 C24.88100102 0.75202799 33.43102332 1.17683687 42 2 C42 2.99 42 3.98 42 5 C40.62304688 6.25854492 40.62304688 6.25854492 38.71875 7.48046875 C38.04199219 7.92197266 37.36523438 8.36347656 36.66796875 8.81835938 C35.95253906 9.27017578 35.23710937 9.72199219 34.5 10.1875 C33.78457031 10.65091797 33.06914062 11.11433594 32.33203125 11.59179688 C30.56071878 12.7372456 28.78110873 13.86984411 27 15 C24.35247996 12.42215154 22.05567935 10.08351902 20 7 C19.32453125 7.11859375 18.6490625 7.2371875 17.953125 7.359375 C10.62707838 8.41805226 10.62707838 8.41805226 7.375 6.25 C6 4 6 4 6 1 C4.02 1.33 2.04 1.66 0 2 C0 1.34 0 0.68 0 0 Z " fill="#8B837E" transform="translate(424,702)"/>
<path d="M0 0 C5.28 0.33 10.56 0.66 16 1 C14.68 1.33 13.36 1.66 12 2 C12 7.94 12 13.88 12 20 C13.32 20.33 14.64 20.66 16 21 C13.9163691 20.85848172 11.83310062 20.71162064 9.75 20.5625 C8.58984375 20.48128906 7.4296875 20.40007813 6.234375 20.31640625 C3.69022624 20.06752213 1.44046752 19.71885058 -1 19 C-1.10372765 12.56888577 -0.72027812 6.39246827 0 0 Z " fill="#504B48" transform="translate(402,670)"/>
<path d="M0 0 C4.32326095 0.08157096 6.44287746 0.54192147 9.8125 3.3125 C14.09809264 8.57765668 14.09809264 8.57765668 13.75 13.625 C13 17 13 17 11 19 C6.67673905 18.91842904 4.55712254 18.45807853 1.1875 15.6875 C-3.09809264 10.42234332 -3.09809264 10.42234332 -2.75 5.375 C-2 2 -2 2 0 0 Z " fill="#7D7773" transform="translate(289,355)"/>
<path d="M0 0 C1.79244141 0.23009766 1.79244141 0.23009766 3.62109375 0.46484375 C10.08534064 1.1830934 16.56549882 1.35180512 23.0625 1.5625 C24.93325195 1.62727539 24.93325195 1.62727539 26.84179688 1.69335938 C29.89444091 1.79862296 32.94715523 1.90075941 36 2 C36 2.33 36 2.66 36 3 C31.05 3 26.1 3 21 3 C21 5.97 21 8.94 21 12 C18.08302989 11.85895309 15.1665198 11.71235186 12.25 11.5625 C11.0125 11.50352539 11.0125 11.50352539 9.75 11.44335938 C8.95078125 11.40146484 8.1515625 11.35957031 7.328125 11.31640625 C6.5949707 11.27974854 5.86181641 11.24309082 5.10644531 11.20532227 C2.98822395 10.99885215 1.0480544 10.56867914 -1 10 C-1.125 2.25 -1.125 2.25 0 0 Z " fill="#484441" transform="translate(380,726)"/>
<path d="M0 0 C4.6023355 0.5460398 5.81249611 1.90535236 8.6875 5.4375 C11.14561625 9.12467438 10.99868164 11.08095704 10.6875 15.4375 C8.6875 18.4375 8.6875 18.4375 5.5 19.125 C0.65635423 18.25155568 -0.9958399 16.51785421 -3.9921875 12.7421875 C-6.12254895 9.02350923 -5.96468382 6.64046237 -5.3125 2.4375 C-3.3125 0.4375 -3.3125 0.4375 0 0 Z " fill="#7C7672" transform="translate(337.3125,341.5625)"/>
<path d="M0 0 C4.63281328 0.69929257 7.15830543 3.14595288 10.3125 6.5 C11.42695498 8.72890995 11.47730286 10.03055106 11.5 12.5 C11.51417969 13.20125 11.52835937 13.9025 11.54296875 14.625 C11.3125 16.5 11.3125 16.5 9.3125 18.5 C6 18.9375 6 18.9375 2.3125 18.5 C-0.85389117 15.96688706 -3.42630431 13.39824124 -4.6875 9.5 C-4.9375 5.875 -4.9375 5.875 -4.6875 2.5 C-2.6875 0.5 -2.6875 0.5 0 0 Z " fill="#7C7672" transform="translate(330.6875,466.5)"/>
<path d="M0 0 C4.39342272 0.59142229 6.18361525 2.30142468 9.25 5.4375 C11.76156712 9.58704567 11.23461878 12.78293852 10.25 17.4375 C9.25 18.4375 9.25 18.4375 6 18.75 C1.64914275 18.38742856 0.25310101 17.5264039 -2.75 14.4375 C-5.50745478 10.76089362 -5.03447379 6.84684378 -4.75 2.4375 C-2.75 0.4375 -2.75 0.4375 0 0 Z " fill="#7C7672" transform="translate(307.75,295.5625)"/>
<path d="M0 0 C3.91061327 1.3703306 7.06701812 3.06701812 10 6 C9.625 8.625 9.625 8.625 9 11 C3.04890913 12.98369696 -2.91441676 12.87634652 -8.5625 10.0625 C-11.69724771 8.30275229 -11.69724771 8.30275229 -13 7 C-13.25 4.5625 -13.25 4.5625 -13 2 C-8.72550786 -0.84966143 -5.01892796 -0.62273257 0 0 Z " fill="#C2BEBB" transform="translate(462,595)"/>
<path d="M0 0 C14.79209956 -0.59766059 28.10293228 0.05327125 40 10 C43.1052033 12.90548118 46.08765973 15.90176567 49 19 C44.82270097 19 42.03434394 16.88885181 38.5 14.875 C26.49731517 8.27449917 13.50887307 4.21456936 0 2 C0 1.34 0 0.68 0 0 Z " fill="#272623" transform="translate(526,323)"/>
<path d="M0 0 C-1.25103516 1.12535156 -1.25103516 1.12535156 -2.52734375 2.2734375 C-14.1881983 12.83896801 -23.53272898 23.74226877 -32 37 C-33.90282145 31.5687679 -31.34767253 26.95192128 -29 22 C-24.15895408 14.07828849 -10.96032836 -3.65344279 0 0 Z " fill="#232220" transform="translate(390,257)"/>
<path d="M0 0 C9.11053974 0.02416589 17.96846258 2.96621376 26.6875 5.375 C26.3575 6.035 26.0275 6.695 25.6875 7.375 C22.93293349 8.18481891 20.23426355 8.87592879 17.4375 9.5 C16.67308594 9.68175781 15.90867187 9.86351562 15.12109375 10.05078125 C6.99005401 11.91853304 6.99005401 11.91853304 3.6875 11.375 C1.73828125 9.6953125 1.73828125 9.6953125 0 7.5 C-0.58136719 6.78070312 -1.16273438 6.06140625 -1.76171875 5.3203125 C-2.27347656 4.67835938 -2.78523438 4.03640625 -3.3125 3.375 C-3.9725 2.715 -4.6325 2.055 -5.3125 1.375 C-3.72900062 -0.20849938 -2.21055548 0.08938482 0 0 Z " fill="#BEA197" transform="translate(389.3125,577.625)"/>
<path d="M0 0 C1.98 0 3.96 0 6 0 C10.09561647 8.38770162 11.83443077 15.66791631 12 25 C9.36 25 6.72 25 4 25 C3.87882812 24.07058594 3.75765625 23.14117188 3.6328125 22.18359375 C2.67155839 14.44487456 2.67155839 14.44487456 0.875 6.875 C0 4 0 4 0 0 Z " fill="#9C9591" transform="translate(479,703)"/>
<path d="M0 0 C4.04704581 0.72404774 7.89070402 1.83446287 11.8125 3.0625 C13.55466797 3.60583984 13.55466797 3.60583984 15.33203125 4.16015625 C16.65267578 4.57587891 16.65267578 4.57587891 18 5 C17.01 7.97 16.02 10.94 15 14 C8.38914524 13.51030705 3.05022986 11.66557258 -3 9 C-2.38550003 5.66177043 -1.65439171 2.97790508 0 0 Z " fill="#67605C" transform="translate(338,632)"/>
<path d="M0 0 C1.22038796 3.09682264 1.16506799 6.26499411 1.1875 9.5625 C1.20167969 10.51253906 1.21585938 11.46257813 1.23046875 12.44140625 C1 15 1 15 -1 18 C-3.30078125 17.80078125 -3.30078125 17.80078125 -6 17 C-7.73046875 14.85546875 -7.73046875 14.85546875 -9.1875 12.1875 C-9.92033203 10.87845703 -9.92033203 10.87845703 -10.66796875 9.54296875 C-11.80432776 7.3735561 -12.91916503 5.19752703 -14 3 C-12.23358317 2.3012307 -10.46167336 1.61633417 -8.6875 0.9375 C-7.20830078 0.36322266 -7.20830078 0.36322266 -5.69921875 -0.22265625 C-3 -1 -3 -1 0 0 Z " fill="#282625" transform="translate(548,586)"/>
<path d="M0 0 C3.95950311 0.85789234 7.09689487 2.09777718 10.75 3.8125 C9.76 4.3075 9.76 4.3075 8.75 4.8125 C8.75 5.4725 8.75 6.1325 8.75 6.8125 C4.8166405 8.01402572 0.87775181 9.19629219 -3.0625 10.375 C-4.18205078 10.71724609 -5.30160156 11.05949219 -6.45507812 11.41210938 C-7.52822266 11.73115234 -8.60136719 12.05019531 -9.70703125 12.37890625 C-10.69678955 12.67740479 -11.68654785 12.97590332 -12.70629883 13.28344727 C-15.25 13.8125 -15.25 13.8125 -18.25 12.8125 C-16.31478939 11.01830474 -14.3769646 9.22708671 -12.4375 7.4375 C-11.89029297 6.92960937 -11.34308594 6.42171875 -10.77929688 5.8984375 C-4.11846276 -0.23760362 -4.11846276 -0.23760362 0 0 Z " fill="#8D7D78" transform="translate(555.25,450.1875)"/>
<path d="M0 0 C-1.03447266 0.81791016 -1.03447266 0.81791016 -2.08984375 1.65234375 C-13.40009461 10.72847098 -21.56606767 19.6452614 -29 32 C-30.54537184 27.55705595 -29.15240791 24.82147068 -27.3515625 20.65625 C-23.23846712 12.57270995 -10.22073986 -3.40691329 0 0 Z " fill="#262422" transform="translate(343,298)"/>
<path d="M0 0 C3.95295545 1.31765182 5.06516592 3.7296691 7.125 7.125 C7.82882812 8.24132812 8.53265625 9.35765625 9.2578125 10.5078125 C11.06032109 14.12091268 11.66416037 17.00045532 12 21 C8.02508844 20.87954813 6.07124959 19.41063506 3.3125 16.75 C-0.28049281 12.91487072 -1.83470696 10.1074862 -2.25 4.8125 C-2 2 -2 2 0 0 Z " fill="#7E7874" transform="translate(455,324)"/>
<path d="M0 0 C-0.66498383 4.38889325 -2.18757677 7.9811485 -4 12 C-13.41002278 11.03644647 -13.41002278 11.03644647 -18 10 C-18.33 8.02 -18.66 6.04 -19 4 C-16.39688008 3.32900016 -13.79264602 2.66304662 -11.1875 2 C-10.44951172 1.80921875 -9.71152344 1.6184375 -8.95117188 1.421875 C-5.89464659 0.64737086 -3.16626522 0 0 0 Z " fill="#CBC8C6" transform="translate(527,695)"/>
<path d="M0 0 C5.89630103 2.15673177 10.32520014 5.95922923 14.73828125 10.34765625 C14.07828125 10.67765625 13.41828125 11.00765625 12.73828125 11.34765625 C10.73186904 10.67392726 8.75646908 9.90690639 6.80078125 9.09765625 C-4.16003619 4.76375144 -14.6083754 2.68440954 -26.26171875 1.34765625 C-19.5958068 -3.09628505 -7.64336729 -1.52867346 0 0 Z " fill="#272623" transform="translate(496.26171875,262.65234375)"/>
<path d="M0 0 C0.13501894 2.43934225 0.23403897 4.87124104 0.3125 7.3125 C0.35439453 8.00279297 0.39628906 8.69308594 0.43945312 9.40429688 C0.48828125 11.42578125 0.48828125 11.42578125 0 15 C-2.4115324 16.99453006 -3.8475744 18 -7 18 C-7 12.39 -7 6.78 -7 1 C-4 0 -4 0 0 0 Z " fill="#A19691" transform="translate(534,665)"/>
<path d="M0 0 C3.12606798 -0.39907251 5.14511207 -0.46880951 7.9375 1.0625 C9.66665678 4.21566824 8.8590699 6.62508255 8 10 C4.77626323 12.14915785 3.73296326 12.38286803 0 12 C-2 10 -2 10 -2.25 6.5625 C-2 3 -2 3 0 0 Z " fill="#B3AEAB" transform="translate(409,605)"/>
<path d="M0 0 C2.3431213 0.25561323 4.67843403 0.59270772 7 1 C8.39935013 3.79870027 8.25265405 5.90498792 8 9 C6.875 10.875 6.875 10.875 5 12 C1.9375 12.3125 1.9375 12.3125 -1 12 C-3 10 -3 10 -3.3125 7.125 C-2.9736202 3.73620199 -2.27183419 2.46115371 0 0 Z " fill="#C2BEBB" transform="translate(506,623)"/>
<path d="M0 0 C2.31 0.33 4.62 0.66 7 1 C5.26375242 7.4188547 3.14819255 13.13784836 0 19 C-0.33 19 -0.66 19 -1 19 C-1.02690104 16.20826945 -1.04679053 13.41679652 -1.0625 10.625 C-1.07087891 9.8309375 -1.07925781 9.036875 -1.08789062 8.21875 C-1.11328125 2.2265625 -1.11328125 2.2265625 0 0 Z " fill="#C7BDB8" transform="translate(600,463)"/>
<path d="M0 0 C2.39843783 2.99981605 4.16057822 6.03429667 5.8125 9.5 C6.27269531 10.4384375 6.73289062 11.376875 7.20703125 12.34375 C8 15 8 15 7.13671875 17.34375 C6.76160156 17.8903125 6.38648438 18.436875 6 19 C3.39656729 16.62971052 1.71786037 14.09047863 -0.0625 11.0625 C-0.56910156 10.20785156 -1.07570313 9.35320312 -1.59765625 8.47265625 C-2.80544034 6.34305365 -3.93208576 4.20225378 -5 2 C-3.35 2 -1.7 2 0 2 C0 1.34 0 0.68 0 0 Z " fill="#968F8A" transform="translate(462,322)"/>
<path d="M0 0 C1.64453125 0.8515625 1.64453125 0.8515625 2.64453125 2.8515625 C-0.70989539 2.7113627 -4.0639365 2.56337822 -7.41796875 2.4140625 C-8.36091797 2.37474609 -9.30386719 2.33542969 -10.27539062 2.29492188 C-15.36662353 2.06430854 -20.32611631 1.6816498 -25.35546875 0.8515625 C-17.78843576 -4.19312616 -8.23491752 -2.93786247 0 0 Z " fill="#292725" transform="translate(461.35546875,235.1484375)"/>
<path d="M0 0 C1.44324052 2.88648105 0.62971172 4.73852158 0.00390625 7.8828125 C-0.22490234 9.04941406 -0.45371094 10.21601563 -0.68945312 11.41796875 C-0.93630859 12.64128906 -1.18316406 13.86460937 -1.4375 15.125 C-1.68048828 16.35605469 -1.92347656 17.58710938 -2.17382812 18.85546875 C-2.77661785 21.90487561 -3.38559221 24.95291643 -4 28 C-7.27050352 23.09424473 -6.54609839 17.73403311 -6 12 C-4.75081774 7.46287577 -3.36078944 3.36078944 0 0 Z " fill="#292725" transform="translate(279,387)"/>
<path d="M0 0 C8.75193098 -0.61729921 15.6977964 -0.25817906 23 5 C23.99 6.485 23.99 6.485 25 8 C16.3321012 6.63353125 8.25329756 3.88315195 0 1 C0 0.67 0 0.34 0 0 Z " fill="#2B2927" transform="translate(485,318)"/>
<path d="M0 0 C5.28 0.33 10.56 0.66 16 1 C16.33 2.65 16.66 4.3 17 6 C15 8 15 8 12.625 8.375 C9.19386323 7.8848376 8.08869087 6.70756224 6 4 C6 3.01 6 2.02 6 1 C4.02 1.33 2.04 1.66 0 2 C0 1.34 0 0.68 0 0 Z " fill="#605B57" transform="translate(424,702)"/>
<path d="M0 0 C6.6 0.6 6.6 0.6 9 3 C8.44444444 7.55555556 8.44444444 7.55555556 7 9 C4.19048514 9.29573841 2.58371024 9.38243085 0.1875 7.8125 C-1.38243085 5.41628976 -1.29573841 3.80951486 -1 1 C-0.67 0.67 -0.34 0.34 0 0 Z " fill="#6E6A67" transform="translate(393,701)"/>
<path d="M0 0 C6.93 0.33 13.86 0.66 21 1 C21 1.33 21 1.66 21 2 C17.7 2 14.4 2 11 2 C11 3.65 11 5.3 11 7 C7.7 6.67 4.4 6.34 1 6 C0.67 4.02 0.34 2.04 0 0 Z " fill="#7D746F" transform="translate(398,653)"/>
<path d="M0 0 C-0.45224761 5.91492272 -1.1582605 11.35199888 -3 17 C-3.66 17 -4.32 17 -5 17 C-5.07347656 16.11248047 -5.07347656 16.11248047 -5.1484375 15.20703125 C-5.56456867 10.80895528 -6.04965595 7.03071103 -8 3 C-2.25 0 -2.25 0 0 0 Z " fill="#CEC3C0" transform="translate(577,468)"/>
<path d="M0 0 C4.57008529 2.28504264 5.18905096 3.38207995 7 8 C7.25 10.8125 7.25 10.8125 7 13 C6 14 6 14 3.75 14.375 C-0.10613052 13.84916402 -1.50125936 11.85570359 -4 9 C-1.03 9.495 -1.03 9.495 2 10 C1.34 6.7 0.68 3.4 0 0 Z " fill="#36312F" transform="translate(505,519)"/>
<path d="M0 0 C-1.32 2.64 -2.64 5.28 -4 8 C-6.31 7.67 -8.62 7.34 -11 7 C-11.33 5.02 -11.66 3.04 -12 1 C-4.5 -1.125 -4.5 -1.125 0 0 Z " fill="#9B9491" transform="translate(520,698)"/>
<path d="M0 0 C4.04745263 0.19584448 7.05131673 0.93895036 10.875 2.1875 C10.545 2.8475 10.215 3.5075 9.875 4.1875 C5.05074056 5.65930796 0.95022852 6.44126143 -4.125 6.1875 C-4.167721 4.52138095 -4.16563832 2.85367115 -4.125 1.1875 C-3.125 0.1875 -3.125 0.1875 0 0 Z " fill="#C4AFA7" transform="translate(405.125,580.8125)"/>
<path d="M0 0 C4.29 1.32 8.58 2.64 13 4 C11 8 11 8 10 9 C7.75 9.4375 7.75 9.4375 5 9 C2.1875 6.1875 2.1875 6.1875 0 3 C0 2.01 0 1.02 0 0 Z " fill="#B2DFFB" transform="translate(438,492)"/>
<path d="M0 0 C-0.22807491 1.79458945 -0.48322303 3.58575449 -0.75 5.375 C-0.88921875 6.37273437 -1.0284375 7.37046875 -1.171875 8.3984375 C-2 11 -2 11 -4.078125 12.3515625 C-4.71234375 12.56554687 -5.3465625 12.77953125 -6 13 C-6.66 12.34 -7.32 11.68 -8 11 C-7.85421465 7.06379544 -7.54997441 4.71496673 -5.125 1.5625 C-3 0 -3 0 0 0 Z " fill="#252422" transform="translate(403,309)"/>
<path d="M0 0 C0.33 0 0.66 0 1 0 C1.33 2.64 1.66 5.28 2 8 C5.5219721 8.08004482 8.61981469 8.04005702 12 7 C10.49860488 11.20390632 7.82724957 12.89110738 4 15 C1 14 1 14 -0.1875 11.875 C-1.31367495 7.89007326 -1.89935896 3.79871793 0 0 Z " fill="#1F1E1C" transform="translate(319,604)"/>
<path d="M0 0 C2.6875 0.3125 2.6875 0.3125 5 1 C6.125 7.75 6.125 7.75 5 10 C3.25 9.875 3.25 9.875 1 9 C-1.25 5.9375 -1.25 5.9375 -3 3 C-1.8125 1.4375 -1.8125 1.4375 0 0 Z " fill="#826D66" transform="translate(391,579)"/>
<path d="M0 0 C2.625 0.375 2.625 0.375 5 1 C5.625 3.3125 5.625 3.3125 6 6 C5.01 7.485 5.01 7.485 4 9 C-0.875 8.125 -0.875 8.125 -2 7 C-2.1875 4.5625 -2.1875 4.5625 -2 2 C-1.34 1.34 -0.68 0.68 0 0 Z " fill="#55504C" transform="translate(435,679)"/>
<path d="M0 0 C0 4.62 0 9.24 0 14 C-3.2549815 9.93127312 -5.53963766 6.48137427 -8 2 C-5.09399739 0.74335022 -3.20395416 0 0 0 Z " fill="#3B3837" transform="translate(542,587)"/>
<path d="M0 0 C3.41697238 0.1391669 6.83348757 0.28749585 10.25 0.4375 C11.21808594 0.47681641 12.18617188 0.51613281 13.18359375 0.55664062 C14.58544922 0.61948242 14.58544922 0.61948242 16.015625 0.68359375 C16.87446289 0.72025146 17.73330078 0.75690918 18.61816406 0.79467773 C20.84960143 0.98703514 22.84982524 1.38846244 25 2 C25 2.66 25 3.32 25 4 C26.98 3.67 28.96 3.34 31 3 C31 3.99 31 4.98 31 6 C26.77054777 5.35602775 22.54149042 4.70949748 18.3125 4.0625 C17.11431641 3.88009766 15.91613281 3.69769531 14.68164062 3.50976562 C13.52470703 3.33251953 12.36777344 3.15527344 11.17578125 2.97265625 C10.11270752 2.81031494 9.04963379 2.64797363 7.9543457 2.48071289 C5.28730154 2.04674793 2.64533255 1.54959617 0 1 C0 0.67 0 0.34 0 0 Z " fill="#88817C" transform="translate(399,700)"/>
<path d="M0 0 C1.98 0 3.96 0 6 0 C6 3.3 6 6.6 6 10 C4.35 10 2.7 10 1 10 C0.67 6.7 0.34 3.4 0 0 Z " fill="#464340" transform="translate(465,726)"/>
<path d="M0 0 C1.1446875 0.3403125 1.1446875 0.3403125 2.3125 0.6875 C2.4375 3.0625 2.4375 3.0625 2.3125 5.6875 C0.3125 7.6875 0.3125 7.6875 -2.3125 7.8125 C-3.09625 7.77125 -3.88 7.73 -4.6875 7.6875 C-5.375 5.375 -5.375 5.375 -5.6875 2.6875 C-4.0011022 -0.12316299 -3.27764429 -0.38112143 0 0 Z " fill="#524D4A" transform="translate(492.6875,681.3125)"/>
<path d="M0 0 C0.33 0 0.66 0 1 0 C1.02895225 3.29164829 1.0467823 6.58326399 1.0625 9.875 C1.07087891 10.81214844 1.07925781 11.74929688 1.08789062 12.71484375 C1.09111328 13.61074219 1.09433594 14.50664062 1.09765625 15.4296875 C1.10289307 16.25710449 1.10812988 17.08452148 1.11352539 17.93701172 C1 20 1 20 0 22 C-1.32 22 -2.64 22 -4 22 C-3.71125 20.783125 -3.4225 19.56625 -3.125 18.3125 C-1.77103836 12.25835725 -0.89152079 6.13631862 0 0 Z " fill="#827D78" transform="translate(612,442)"/>
<path d="M0 0 C2 1 2 1 3.125 3.875 C4.45264471 8.84329545 4.16599322 13.90031948 4 19 C3.01 19.33 2.02 19.66 1 20 C0.67 13.4 0.34 6.8 0 0 Z " fill="#BEBBB9" transform="translate(496,706)"/>
<path d="M0 0 C3.77545388 1.09068668 6.47043472 1.9083091 9 5 C2.375 8 2.375 8 -1 8 C-0.67 5.36 -0.34 2.72 0 0 Z " fill="#100F0E" transform="translate(587,441)"/>
<path d="M0 0 C0.33 0.66 0.66 1.32 1 2 C-0.98 4.97 -0.98 4.97 -3 8 C-4.65 7.67 -6.3 7.34 -8 7 C-8.33 5.68 -8.66 4.36 -9 3 C-6.03 2.01 -3.06 1.02 0 0 Z " fill="#AFDFFC" transform="translate(570,486)"/>
<path d="M0 0 C-0.33 2.31 -0.66 4.62 -1 7 C-4.59007126 5.66654496 -7.79570907 4.1056769 -11 2 C-11 1.67 -11 1.34 -11 1 C-3.375 0 -3.375 0 0 0 Z " fill="#A99690" transform="translate(388,662)"/>
<path d="M0 0 C1.2065625 0.0309375 1.2065625 0.0309375 2.4375 0.0625 C2.81883299 2.0539056 3.15075582 4.05529077 3.4375 6.0625 C2.4375 7.0625 2.4375 7.0625 -0.0625 7.1875 C-2.5625 7.0625 -2.5625 7.0625 -3.5625 6.0625 C-3.6875 3.5625 -3.6875 3.5625 -3.5625 1.0625 C-2.5625 0.0625 -2.5625 0.0625 0 0 Z " fill="#514D4C" transform="translate(330.5625,592.9375)"/>
<path d="M0 0 C1.63001953 0.01353516 1.63001953 0.01353516 3.29296875 0.02734375 C4.12441406 0.03894531 4.95585937 0.05054688 5.8125 0.0625 C5.8125 0.3925 5.8125 0.7225 5.8125 1.0625 C4.1625 1.3925 2.5125 1.7225 0.8125 2.0625 C1.1425 2.7225 1.4725 3.3825 1.8125 4.0625 C-5.1175 3.5675 -5.1175 3.5675 -12.1875 3.0625 C-7.9047612 0.2073408 -5.04291942 -0.05422494 0 0 Z " fill="#4B4845" transform="translate(448.1875,232.9375)"/>
<path d="M0 0 C2.5 0.125 2.5 0.125 3.5 1.125 C3.54063832 2.79117115 3.542721 4.45888095 3.5 6.125 C1.85 6.455 0.2 6.785 -1.5 7.125 C-2.16 5.145 -2.82 3.165 -3.5 1.125 C-2.5 0.125 -2.5 0.125 0 0 Z " fill="#292726" transform="translate(336.5,590.875)"/>
<path d="M0 0 C0 0.66 0 1.32 0 2 C-1.43011973 2.86646667 -2.86940619 3.71781829 -4.3125 4.5625 C-5.51326172 5.27599609 -5.51326172 5.27599609 -6.73828125 6.00390625 C-9 7 -9 7 -12 6 C-11.34 6 -10.68 6 -10 6 C-10 5.34 -10 4.68 -10 4 C-10.66 3.67 -11.32 3.34 -12 3 C-10.37604003 2.49663233 -8.75079459 1.99741024 -7.125 1.5 C-6.22007812 1.2215625 -5.31515625 0.943125 -4.3828125 0.65625 C-2 0 -2 0 0 0 Z " fill="#443E3B" transform="translate(530,549)"/>
<path d="M0 0 C0.66 0.33 1.32 0.66 2 1 C1.4225 1.55429687 0.845 2.10859375 0.25 2.6796875 C-0.4925 3.40414063 -1.235 4.12859375 -2 4.875 C-2.7425 5.59429687 -3.485 6.31359375 -4.25 7.0546875 C-6.22293325 8.81170957 -6.22293325 8.81170957 -6 11 C-7.98 11.33 -9.96 11.66 -12 12 C-8.57833482 7.29521038 -4.42094803 3.72346836 0 0 Z " fill="#7C6F6A" transform="translate(549,452)"/>
<path d="M0 0 C5.75 0.875 5.75 0.875 8 2 C7.67 2.99 7.34 3.98 7 5 C5.35 5 3.7 5 2 5 C1.34 3.35 0.68 1.7 0 0 Z " fill="#4F4B4A" transform="translate(333,578)"/>
<path d="M0 0 C1.75 0.0625 1.75 0.0625 4 1 C5.59501537 3.24164322 6.74543018 5.53566643 8 8 C7.01 8 6.02 8 5 8 C0 2.65116279 0 2.65116279 0 0 Z " fill="#D5D0CD" transform="translate(598,398)"/>
<path d="M0 0 C1.32 1.32 2.64 2.64 4 4 C1.23776722 6.76223278 -1.20706617 6.57856291 -5 7 C-4.0409375 6.1028125 -4.0409375 6.1028125 -3.0625 5.1875 C-0.79689611 3.09189663 -0.79689611 3.09189663 0 0 Z " fill="#5A5451" transform="translate(511,729)"/>
<path d="M0 0 C0.99 0.33 1.98 0.66 3 1 C2.67 2.65 2.34 4.3 2 6 C0.68 5.67 -0.64 5.34 -2 5 C-1.125 1.125 -1.125 1.125 0 0 Z " fill="#605A57" transform="translate(402,622)"/>
<path d="M0 0 C3.63 0 7.26 0 11 0 C9 2 9 2 6.375 2.125 C5.59125 2.08375 4.8075 2.0425 4 2 C4 2.66 4 3.32 4 4 C1.525 3.01 1.525 3.01 -1 2 C-0.67 1.34 -0.34 0.68 0 0 Z " fill="#A28980" transform="translate(385,578)"/>
<path d="M0 0 C2.125 0.375 2.125 0.375 4 1 C4.33 2.98 4.66 4.96 5 7 C2.69 5.35 0.38 3.7 -2 2 C-1.34 1.34 -0.68 0.68 0 0 Z " fill="#B29F98" transform="translate(540,653)"/>
<path d="M0 0 C2.31 0.33 4.62 0.66 7 1 C6.67 1.99 6.34 2.98 6 4 C3.03 3.505 3.03 3.505 0 3 C0 2.01 0 1.02 0 0 Z " fill="#C0BBB8" transform="translate(440,601)"/>
<path d="M0 0 C2.31 0.33 4.62 0.66 7 1 C6.67 1.99 6.34 2.98 6 4 C3.03 3.505 3.03 3.505 0 3 C0 2.01 0 1.02 0 0 Z " fill="#BEBAB7" transform="translate(504,597)"/>
<path d="M0 0 C2.64 0.33 5.28 0.66 8 1 C8 1.99 8 2.98 8 4 C5.6875 4.25 5.6875 4.25 3 4 C1.1875 2 1.1875 2 0 0 Z " fill="#6F6A67" transform="translate(431,706)"/>
<path d="M0 0 C0.33 0 0.66 0 1 0 C1 2.97 1 5.94 1 9 C0.34 8.01 -0.32 7.02 -1 6 C-2.98 6.99 -2.98 6.99 -5 8 C-4.19185349 6.66402348 -3.37836819 5.331275 -2.5625 4 C-2.11003906 3.2575 -1.65757812 2.515 -1.19140625 1.75 C-0.79824219 1.1725 -0.40507813 0.595 0 0 Z " fill="#A99790" transform="translate(580,501)"/>
<path d="M0 0 C1.98 0.495 1.98 0.495 4 1 C3.67 2.32 3.34 3.64 3 5 C1.68 4.67 0.36 4.34 -1 4 C-0.67 2.68 -0.34 1.36 0 0 Z " fill="#BDB9B5" transform="translate(424,607)"/>
<path d="M0 0 C0.66 0.33 1.32 0.66 2 1 C1.67 3.31 1.34 5.62 1 8 C0.34 8 -0.32 8 -1 8 C-1.04241723 5.66705225 -1.04092937 3.33297433 -1 1 C-0.67 0.67 -0.34 0.34 0 0 Z " fill="#C0BCB8" transform="translate(416,607)"/>
<path d="M0 0 C2.64 0.33 5.28 0.66 8 1 C8 2.32 8 3.64 8 5 C4.75791433 4.64950425 3.38472296 4.43778819 1.1875 1.9375 C0.795625 1.298125 0.40375 0.65875 0 0 Z " fill="#A29B96" transform="translate(459,340)"/>
<path d="M0 0 C1.9453125 0.2421875 1.9453125 0.2421875 4.125 0.875 C4.84945313 1.07867187 5.57390625 1.28234375 6.3203125 1.4921875 C6.87460937 1.65976563 7.42890625 1.82734375 8 2 C7.67 2.99 7.34 3.98 7 5 C4.03 4.01 1.06 3.02 -2 2 C-1.34 1.34 -0.68 0.68 0 0 Z " fill="#C0B7B2" transform="translate(456,232)"/>
<path d="M0 0 C0.66 0 1.32 0 2 0 C1.39009109 3.55780196 0.4216319 6.6828589 -1 10 C-1.66 9.01 -2.32 8.02 -3 7 C-1.625 3.3125 -1.625 3.3125 0 0 Z " fill="#E3DCDC" transform="translate(571,485)"/>
<path d="M0 0 C0.99 0.33 1.98 0.66 3 1 C3 2.32 3 3.64 3 5 C1.68 4.67 0.36 4.34 -1 4 C-0.67 2.68 -0.34 1.36 0 0 Z " fill="#C1BDBA" transform="translate(432,596)"/>
</svg>
