<?xml version="1.0" encoding="UTF-8"?>
<svg version="1.1" xmlns="http://www.w3.org/2000/svg" width="900" height="900">
<path d="M0 0 C2.52359141 0.74286559 5.05517429 1.4555576 7.58642578 2.171875 C22.90513487 6.58873742 36.96642553 12.48013378 51.17626953 19.640625 C51.17626953 20.300625 51.17626953 20.960625 51.17626953 21.640625 C52.206875 22.00800781 52.206875 22.00800781 53.25830078 22.3828125 C56.68465376 23.85976787 59.74585202 25.73859284 62.86376953 27.765625 C63.4730127 28.16015869 64.08225586 28.55469238 64.70996094 28.96118164 C70.09722287 32.50015048 75.51876887 36.165561 80.17626953 40.640625 C80.17626953 41.300625 80.17626953 41.960625 80.17626953 42.640625 C80.75876465 42.89932373 81.34125977 43.15802246 81.94140625 43.42456055 C84.35276044 44.73665965 85.98213898 46.17252423 87.93408203 48.09765625 C88.63702393 48.79093018 89.33996582 49.4842041 90.06420898 50.19848633 C109.60193996 69.8897387 124.08030911 92.32037628 133.41455078 118.51074219 C133.90744657 119.88895463 134.40701795 121.26480558 134.91455078 122.63769531 C138.73379385 132.98743557 141.48453132 143.53437981 143.98876953 154.265625 C144.21836868 155.24502045 144.21836868 155.24502045 144.4526062 156.24420166 C146.0340499 163.0323744 147.43038503 169.71111742 148.17626953 176.640625 C148.48156408 178.10508478 148.80940503 179.56536376 149.17626953 181.015625 C151.30347041 190.25859518 151.33303303 199.57127785 151.30126953 209.015625 C151.30513672 210.15773438 151.30900391 211.29984375 151.31298828 212.4765625 C151.30695827 217.78297339 151.19230475 223.01718123 150.68798828 228.30078125 C150.21026801 233.43373308 150.06399382 238.52506595 150.00048828 243.67578125 C149.98856445 244.48668213 149.97664063 245.29758301 149.96435547 246.13305664 C149.91579451 249.48999665 149.86836868 252.84659558 149.8503418 256.20385742 C149.75720563 270.81477318 148.07073829 284.79517157 143.17626953 298.640625 C142.51626953 298.640625 141.85626953 298.640625 141.17626953 298.640625 C141.06412109 299.48882812 140.95197266 300.33703125 140.83642578 301.2109375 C135.82647751 327.23895276 116.73670051 353.7813964 97.17626953 370.640625 C96.44666016 371.33027344 95.71705078 372.01992188 94.96533203 372.73046875 C81.23744995 385.640625 81.23744995 385.640625 74.17626953 385.640625 C74.45599609 386.43597656 74.73572266 387.23132813 75.02392578 388.05078125 C78.23974428 397.71891725 80.66344504 407.52703662 82.92626953 417.453125 C83.15771164 418.45232468 83.15771164 418.45232468 83.39382935 419.47171021 C86.31852688 432.15072083 87.35636126 444.09142134 87.36376953 457.078125 C87.37601563 458.23505859 87.38826172 459.39199219 87.40087891 460.58398438 C87.4028125 461.69451172 87.40474609 462.80503906 87.40673828 463.94921875 C87.41084717 464.94751709 87.41495605 465.94581543 87.41918945 466.97436523 C87.17201322 469.6873417 86.565252 471.32336047 85.17626953 473.640625 C82.86626953 473.640625 80.55626953 473.640625 78.17626953 473.640625 C78.13501953 474.630625 78.09376953 475.620625 78.05126953 476.640625 C76.96955264 484.09245249 69.90836037 491.12562194 64.17626953 495.640625 C61.96533203 496.33203125 61.96533203 496.33203125 60.17626953 496.640625 C60.08345703 497.9709375 60.08345703 497.9709375 59.98876953 499.328125 C58.71996949 507.844728 55.81784851 516.35476257 48.92236328 521.78515625 C47.17626953 522.640625 47.17626953 522.640625 43.17626953 522.640625 C44.46264963 527.39155957 44.46264963 527.39155957 46.20751953 531.984375 C47.32000489 535.03473807 47.5879942 537.71844917 47.80126953 540.953125 C47.91341797 542.55607422 47.91341797 542.55607422 48.02783203 544.19140625 C48.07681641 544.99964844 48.12580078 545.80789063 48.17626953 546.640625 C35.84728674 552.23510032 23.47227981 553.11844677 10.11547852 552.97680664 C7.74411858 552.9531783 5.37389002 552.95628083 3.00244141 552.96289062 C-7.1062496 552.94287652 -16.81461853 552.07539776 -26.82373047 550.640625 C-27.48373047 545.690625 -28.14373047 540.740625 -28.82373047 535.640625 C-31.46373047 535.640625 -34.10373047 535.640625 -36.82373047 535.640625 C-36.67935547 536.30449219 -36.53498047 536.96835937 -36.38623047 537.65234375 C-36.20060547 538.53535156 -36.01498047 539.41835938 -35.82373047 540.328125 C-35.63810547 541.19824219 -35.45248047 542.06835938 -35.26123047 542.96484375 C-34.83401 545.57775464 -34.74756846 547.99875538 -34.82373047 550.640625 C-36.98940591 551.12425196 -39.15632788 551.60229817 -41.32373047 552.078125 C-43.13357422 552.47837891 -43.13357422 552.47837891 -44.97998047 552.88671875 C-67.49034192 557.30186078 -92.79585818 555.9343028 -114.82373047 549.640625 C-114.49373047 540.730625 -114.16373047 531.820625 -113.82373047 522.640625 C-114.81373047 522.970625 -115.80373047 523.300625 -116.82373047 523.640625 C-121.36772122 524.01308326 -123.89321566 524.05219886 -128.07373047 522.203125 C-132.32436204 518.24230922 -134.40791836 513.43250631 -135.26123047 507.703125 C-135.44685547 507.0225 -135.63248047 506.341875 -135.82373047 505.640625 C-138.07116803 504.49041975 -138.07116803 504.49041975 -140.82373047 503.640625 C-153.49849199 496.20109106 -160.9687212 484.57612435 -164.82373047 470.640625 C-165.76732422 471.07375 -165.76732422 471.07375 -166.72998047 471.515625 C-172.42034005 473.98373277 -176.62957368 475.09945143 -182.82373047 474.640625 C-195.09967772 449.99091418 -176.22341907 404.73629277 -168.35522461 381.21582031 C-168.17983154 380.69600586 -168.00443848 380.17619141 -167.82373047 379.640625 C-174.40820257 373.49281946 -181.06838674 367.55864448 -188.08544922 361.90234375 C-193.75945437 357.21582595 -199.22152502 352.25855375 -204.40966797 347.0390625 C-206.39932386 345.06228464 -208.4052931 343.28558883 -210.57373047 341.515625 C-220.9840918 332.45802249 -228.34722012 320.63127007 -234.69873047 308.515625 C-235.27365234 307.41992188 -235.84857422 306.32421875 -236.44091797 305.1953125 C-237.80288426 301.69421272 -238.25209656 298.97999399 -238.55908203 295.28759766 C-238.87398639 292.13797302 -239.39965617 289.05553191 -239.94482422 285.9375 C-240.15816406 284.70773437 -240.37150391 283.47796875 -240.59130859 282.2109375 C-241.02983258 279.71020013 -241.47238494 277.21016501 -241.91943359 274.7109375 C-245.13468477 256.05668741 -246.17114011 237.74038406 -245.63623047 218.828125 C-245.61139587 217.82580841 -245.58656128 216.82349182 -245.56097412 215.790802 C-245.06653664 196.26207763 -243.38302057 177.67148024 -238.82373047 158.640625 C-238.43531982 156.98897339 -238.43531982 156.98897339 -238.0390625 155.30395508 C-233.3806248 135.6080805 -228.38128631 116.57579151 -218.82373047 98.640625 C-218.21832907 97.40354434 -217.61839519 96.16377818 -217.02294922 94.921875 C-208.0995985 76.384568 -196.95870447 59.64465707 -182.82373047 44.640625 C-181.92460937 43.64482422 -181.92460937 43.64482422 -181.00732422 42.62890625 C-163.19945419 23.66717855 -142.7685546 17.22338141 -117.51123047 15.46191406 C-111.1965826 14.95012204 -107.870482 13.40840345 -103.01513672 9.21484375 C-99.57969761 6.28258057 -95.81632261 4.39548006 -91.76123047 2.453125 C-91.06707031 2.11087891 -90.37291016 1.76863281 -89.65771484 1.41601562 C-62.61873887 -11.8081749 -28.11857553 -8.32517965 0 0 Z M-166.82373047 371.640625 C-166.82373047 372.300625 -166.82373047 372.960625 -166.82373047 373.640625 C-166.16373047 373.640625 -165.50373047 373.640625 -164.82373047 373.640625 C-164.82373047 372.980625 -164.82373047 372.320625 -164.82373047 371.640625 C-165.48373047 371.640625 -166.14373047 371.640625 -166.82373047 371.640625 Z " fill="#1D1C1A" transform="translate(480.82373046875,196.359375)"/>
<path d="M0 0 C1.48373194 1.08421391 2.96814733 2.16749292 4.453125 3.25 C17.4707124 12.8936217 17.4707124 12.8936217 22 18 C22.3125 20.8125 22.3125 20.8125 22 23 C22.845625 22.835 23.69125 22.67 24.5625 22.5 C29.15825087 23.16847285 30.21402922 25.01469045 33.02734375 28.5390625 C35.17195915 31.2145233 37.46828455 33.68553609 39.8125 36.1875 C44.8204143 41.68103023 49.3434121 47.44503464 53.79296875 53.39013672 C54.95830338 54.94438764 56.13519952 56.48994937 57.3125 58.03515625 C88.13991447 98.65669719 88.13991447 98.65669719 86 115 C84.40439725 117.34354154 82.8696557 119.3384836 81 121.4375 C80.49452637 122.01516113 79.98905273 122.59282227 79.46826172 123.18798828 C68.90116883 135.01602275 54.91810499 140.8809976 40.24658203 146.17578125 C15.48915457 155.16648377 15.48915457 155.16648377 -6 170 C-6.83144531 170.71542969 -7.66289062 171.43085938 -8.51953125 172.16796875 C-18.6219191 181.43237051 -25.02630982 194.34794871 -30 207 C-30.24951416 207.607229 -30.49902832 208.21445801 -30.75610352 208.84008789 C-33.31591466 215.63016802 -33.7532959 222.36427242 -34.1875 229.5625 C-34.26935547 230.76197266 -34.35121094 231.96144531 -34.43554688 233.19726562 C-34.63424475 236.13098131 -34.8221285 239.06496055 -35 242 C-35.66 242 -36.32 242 -37 242 C-35.45633821 253.75349504 -33.41389548 265.34285076 -30.9375 276.9375 C-30.6801709 278.15147461 -30.4228418 279.36544922 -30.15771484 280.61621094 C-29.07074367 285.61473256 -27.94587058 290.26426679 -26 295 C-25.31566543 297.68469714 -24.66977997 300.36082852 -24.0625 303.0625 C-23.71552707 304.57307378 -23.36786576 306.08348961 -23.01953125 307.59375 C-22.76357178 308.7075 -22.76357178 308.7075 -22.50244141 309.84375 C-21.39920284 314.57834817 -20.19384327 319.28764801 -19 324 C-27.71564787 324.3281672 -35.71811716 323.42676817 -44.25 321.6875 C-45.36890625 321.47416016 -46.4878125 321.26082031 -47.640625 321.04101562 C-59.56477793 318.68571419 -59.56477793 318.68571419 -65 316 C-66.63714724 312.7330329 -67.39663673 309.51687069 -68 305.9296875 C-68.24592896 304.475625 -68.24592896 304.475625 -68.49682617 302.9921875 C-68.66287354 301.96351563 -68.8289209 300.93484375 -69 299.875 C-69.17442627 298.80765625 -69.34885254 297.7403125 -69.52856445 296.640625 C-71.89318235 281.81837314 -73.214704 266.982621 -74 252 C-75.67423544 260.62530224 -76.19315514 268.98381853 -76.1875 277.75 C-76.18814453 278.70720947 -76.18878906 279.66441895 -76.18945312 280.65063477 C-76.14846409 286.05699582 -75.81365236 291.34643265 -75.22045898 296.71875 C-74.91688787 299.86002185 -74.90394752 302.97106649 -74.9375 306.125 C-74.94652344 307.24132812 -74.95554687 308.35765625 -74.96484375 309.5078125 C-74.97644531 310.33023437 -74.98804688 311.15265625 -75 312 C-79.03110394 310.7682738 -82.81393134 309.57489006 -85.41796875 306.1171875 C-88.1006507 300.3817985 -89.11487605 294.23080675 -90 288 C-90.66 288 -91.32 288 -92 288 C-94.49529682 275.72375576 -96.96570252 263.44250202 -99.25 251.125 C-99.41274414 250.26632324 -99.57548828 249.40764648 -99.74316406 248.52294922 C-100.86821706 242.37098745 -101.52192587 236.2342648 -102 230 C-102.66 230 -103.32 230 -104 230 C-105.59907311 238.85318268 -106.32249493 247.38368742 -106.25 256.375 C-106.24419922 258.13783325 -106.24419922 258.13783325 -106.23828125 259.9362793 C-106.16361668 267.44680915 -105.71226848 274.67243947 -104.4375 282.08203125 C-103.98543205 285.09716306 -103.92719631 287.95589585 -104 291 C-121.64056008 277.11275058 -130.57079546 258.21554851 -133.7109375 236.43994141 C-134.49985012 229.78082596 -134.67250814 223.06002281 -134.84228516 216.36083984 C-134.97662927 213.84376767 -134.97662927 213.84376767 -135.49829102 210.75463867 C-136.04969231 206.62811778 -136.19699136 202.62174403 -136.23828125 198.46484375 C-136.24798447 197.64546326 -136.25768768 196.82608276 -136.26768494 195.98187256 C-136.29273268 193.30036488 -136.30525264 190.61911342 -136.3125 187.9375 C-136.31511841 187.0148233 -136.31773682 186.09214661 -136.32043457 185.14151001 C-136.33034248 152.26245264 -134.30791542 115.49730617 -121 85 C-120.35877 82.94248807 -119.73574634 80.87926563 -119.125 78.8125 C-114.16684268 62.4895776 -106.42089459 46.55659364 -96 33 C-95.40960938 32.20722656 -94.81921875 31.41445313 -94.2109375 30.59765625 C-81.45423881 13.98244993 -62.08674196 -4.36737423 -40.484375 -7.51171875 C-25.02037798 -9.33329233 -12.76939807 -9.76727523 0 0 Z " fill="#A39B96" transform="translate(390,237)"/>
<path d="M0 0 C4.75 1.875 4.75 1.875 7 3 C7 3.66 7 4.32 7 5 C7.99 5.37125 7.99 5.37125 9 5.75 C11.29170509 6.70487712 13.40603874 7.71656072 15.59765625 8.86328125 C20.08726551 11.11883637 24.6890312 12.81241044 29.4375 14.4375 C30.30713379 14.73897949 31.17676758 15.04045898 32.07275391 15.35107422 C37.63420116 17.25620667 43.22538382 19.0019743 48.875 20.625 C60.68366077 24.03801111 71.20057941 27.32864973 81 35 C81.68449219 35.48339844 82.36898437 35.96679688 83.07421875 36.46484375 C88.61289126 40.39305745 93.40193812 45.01196443 98 50 C98.86238281 50.90878906 98.86238281 50.90878906 99.7421875 51.8359375 C101.54293296 54.93411446 101.36144875 57.44556785 101.3125 61 C101.30863281 62.216875 101.30476562 63.43375 101.30078125 64.6875 C101.02418833 67.73361428 100.6023478 69.44645769 99 72 C98.154375 71.34 97.30875 70.68 96.4375 70 C90.43461105 66.62185602 83.6347259 67.13196791 77 68 C68.05456622 70.81536811 61.56437611 76.51609786 55 83 C54.39800781 83.54140625 53.79601562 84.0828125 53.17578125 84.640625 C48.57323549 88.88912878 45.11856901 93.85094427 41.63867188 99.02612305 C37.33672815 105.31311148 31.32059415 110.55980195 24 113 C23.76571687 117.7897321 23.76571687 117.7897321 26 122 C26.41637201 123.71967343 26.78491092 125.45112971 27.125 127.1875 C29.86530923 138.52053768 35.29110214 151.00442531 45 158 C51.80018098 162.05541519 58.28360001 161.81957755 66 161 C75.46203746 158.4550382 82.69209998 153.94994139 87.875 145.625 C88.26429688 144.93664062 88.65359375 144.24828125 89.0546875 143.5390625 C89.36664062 143.03117188 89.67859375 142.52328125 90 142 C90.33 142 90.66 142 91 142 C89.90140729 159.08600763 86.28467535 171.57883512 73.375 183.5625 C57.07772898 197.08643044 33.07679716 208.24830704 12 211 C11.35933594 211.08733398 10.71867188 211.17466797 10.05859375 211.26464844 C-17.3726576 214.90824488 -45.06769694 213.21032586 -72 207 C-73.51937705 206.66336575 -75.03890626 206.32741751 -76.55859375 205.9921875 C-80.0693942 205.20672421 -83.56332342 204.3680269 -87.05126953 203.48681641 C-88.97582958 203.00603806 -90.90787228 202.55554145 -92.83984375 202.10546875 C-94.00644531 201.80253906 -95.17304688 201.49960937 -96.375 201.1875 C-97.39335937 200.93355469 -98.41171875 200.67960938 -99.4609375 200.41796875 C-103.10115188 198.38504903 -103.79422641 195.78829447 -105 192 C-105.34224609 190.96818604 -105.68449219 189.93637207 -106.03710938 188.87329102 C-107.03674184 185.79975947 -108.00891773 182.71945578 -108.96166992 179.63110352 C-109.55846551 177.70055103 -110.16457988 175.77309807 -110.77148438 173.84570312 C-112.68812549 167.66701532 -114.41995137 161.57296797 -115.5769043 155.20678711 C-115.9828272 153.08957009 -116.49657495 151.04211643 -117.0703125 148.96484375 C-122.26225743 129.59212955 -123.00861001 104.46155232 -115 85.72265625 C-114 84 -114 84 -112 83 C-109.4375 84.5625 -109.4375 84.5625 -107 87 C-107.17913813 88.62290617 -107.37776547 90.24583853 -107.66967773 91.85229492 C-110.18993908 108.23865046 -108.93478504 127.97161932 -99.52734375 142.046875 C-97.52975189 144.6013403 -95.35909132 146.77967876 -93 149 C-93 149.66 -93 150.32 -93 151 C-92.43152344 151.27070313 -91.86304688 151.54140625 -91.27734375 151.8203125 C-88.92738066 153.03761757 -86.77988064 154.43164599 -84.5625 155.875 C-75.95442521 161.09859435 -65.57048737 164.15402507 -55.48046875 164.09765625 C-54.45888672 164.09443359 -53.43730469 164.09121094 -52.38476562 164.08789062 C-51.32966797 164.07951172 -50.27457031 164.07113281 -49.1875 164.0625 C-47.57584961 164.05573242 -47.57584961 164.05573242 -45.93164062 164.04882812 C-43.28770317 164.03707729 -40.64388048 164.02064787 -38 164 C-38 163.34 -38 162.68 -38 162 C-36.88625 161.62875 -35.7725 161.2575 -34.625 160.875 C-18.62924535 154.81643098 -11.78305575 144.54778613 -3.94946289 130.05664062 C-1.24622956 125.16884313 -1.24622956 125.16884313 1.1875 123.5 C3.40501327 121.98438704 3.40501327 121.98438704 3.75 118.3125 C3.8325 117.219375 3.915 116.12625 4 115 C3.42636719 114.73703125 2.85273438 114.4740625 2.26171875 114.203125 C-0.13727899 112.92697422 -2.07597361 111.45768254 -4.1875 109.75 C-7.15934699 107.37930966 -10.12495673 105.2788637 -13.375 103.3125 C-21.42046434 98.04230036 -27.46803765 89.97566114 -33.375 82.5 C-44.47832922 68.78877139 -58.56564832 57.55793841 -75 51 C-75.928125 50.62746094 -76.85625 50.25492187 -77.8125 49.87109375 C-78.534375 49.58363281 -79.25625 49.29617188 -80 49 C-77.60899095 46.2348875 -75.36068997 45.16219894 -71.94921875 43.9140625 C-70.94721436 43.54321533 -69.94520996 43.17236816 -68.9128418 42.7902832 C-67.31629761 42.21346802 -67.31629761 42.21346802 -65.6875 41.625 C-64.05905151 41.02401489 -64.05905151 41.02401489 -62.39770508 40.41088867 C-57.84214254 38.73513493 -53.2805234 37.08212749 -48.6875 35.51171875 C-41.3107328 32.98418802 -34.69778057 29.99481868 -28 26 C-27.13117188 25.52304687 -26.26234375 25.04609375 -25.3671875 24.5546875 C-15.66585454 18.92621736 -5.31326719 10.05725576 0 0 Z " fill="#D0B9B2" transform="translate(490,359)"/>
<path d="M0 0 C1.95703857 0.00640503 1.95703857 0.00640503 3.95361328 0.01293945 C26.34369829 0.29612183 50.07729 3.88882333 70.3984375 13.5546875 C72.54520961 14.54993434 74.71949815 15.36409463 76.9375 16.1875 C93.19267821 22.64399602 108.11939827 32.24738739 121.4375 43.5 C122.22511719 44.16386719 123.01273438 44.82773438 123.82421875 45.51171875 C135.33310703 55.53798052 145.25424088 66.61250136 153.4375 79.5 C153.8082666 80.07298828 154.1790332 80.64597656 154.56103516 81.23632812 C165.39058582 98.05050904 173.83234435 116.85530096 177.12963867 136.65429688 C178.5719341 144.95270689 180.84144808 153.05311068 183.01318359 161.18457031 C183.31047363 162.30186523 183.60776367 163.41916016 183.9140625 164.5703125 C184.18299316 165.56820801 184.45192383 166.56610352 184.72900391 167.59423828 C185.91282929 172.44947251 186.56420638 177.05726651 186.5703125 182.0546875 C186.57160156 183.08207031 186.57289063 184.10945312 186.57421875 185.16796875 C186.57035156 186.22628906 186.56648437 187.28460938 186.5625 188.375 C186.56636719 189.42558594 186.57023438 190.47617187 186.57421875 191.55859375 C186.56703142 197.301269 186.2995672 202.82130335 185.4375 208.5 C182.25639037 207.14062058 180.61680846 205.78565519 178.625 202.97265625 C178.11324219 202.26810303 177.60148438 201.5635498 177.07421875 200.83764648 C176.53410156 200.08684814 175.99398437 199.3360498 175.4375 198.5625 C165.60221481 185.35396731 154.34014266 175.70055571 139.4375 168.5 C139.4375 167.84 139.4375 167.18 139.4375 166.5 C138.71602783 166.37326904 137.99455566 166.24653809 137.2512207 166.1159668 C134.49354925 165.51227004 132.04626912 164.66605185 129.41796875 163.64453125 C123.29535969 161.36995072 117.07702478 159.78159255 110.75 158.1875 C94.41982246 153.91024565 78.53142651 149.09321157 67.921875 135.078125 C66.42988525 133.32185568 66.42988525 133.32185568 63.91015625 132.16015625 C60.71155192 130.0125941 60.28618934 128.32350214 59.125 124.6875 C53.9675751 110.33846814 45.20161771 98.71824562 36.078125 86.66796875 C34.63727174 84.76398408 33.2060736 82.8534895 31.78125 80.9375 C29.67905198 78.11537115 27.56331772 75.30436155 25.4375 72.5 C24.87160156 71.75105469 24.30570312 71.00210938 23.72265625 70.23046875 C21.98745541 67.9645006 20.22175092 65.72756584 18.4375 63.5 C17.32568359 62.1078125 17.32568359 62.1078125 16.19140625 60.6875 C2.00117502 43.26109534 -14.00164642 28.03321867 -33.24707031 16.36499023 C-34.71748549 15.45994172 -36.14510462 14.48601417 -37.5625 13.5 C-37.5625 12.84 -37.5625 12.18 -37.5625 11.5 C-35.06502977 10.22398669 -32.56472064 8.95413829 -30.0625 7.6875 C-29.36640625 7.33107422 -28.6703125 6.97464844 -27.953125 6.60742188 C-25.83693091 5.53952764 -23.70564872 4.51260114 -21.5625 3.5 C-20.65189819 3.04778076 -20.65189819 3.04778076 -19.72290039 2.58642578 C-13.36663227 -0.22941867 -6.85152675 -0.03419989 0 0 Z " fill="#CCC2BC" transform="translate(427.5625,206.5)"/>
<path d="M0 0 C4.73250001 2.73652758 8.63534728 5.7577708 12.30859375 9.828125 C13.47164852 10.97762435 14.63859956 12.12318956 15.80859375 13.265625 C24.30859375 21.78422456 24.30859375 21.78422456 24.30859375 24.828125 C24.96859375 24.828125 25.62859375 24.828125 26.30859375 24.828125 C27.05109375 25.818125 27.79359375 26.808125 28.55859375 27.828125 C30.62908115 30.41929711 30.98679833 30.77020182 34.43359375 31.390625 C37.47559407 30.79545102 38.47932908 30.26714456 40.30859375 27.828125 C43.2922044 32.30354097 45.04945103 37.42932459 44.30859375 42.828125 C42.712991 45.17166654 41.17824945 47.1666086 39.30859375 49.265625 C38.80312012 49.84328613 38.29764648 50.42094727 37.77685547 51.01611328 C27.20976258 62.84414775 13.22669874 68.7091226 -1.44482422 74.00390625 C-26.20225168 82.99460877 -26.20225168 82.99460877 -47.69140625 97.828125 C-48.52285156 98.54355469 -49.35429687 99.25898438 -50.2109375 99.99609375 C-60.31332535 109.26049551 -66.71771607 122.17607371 -71.69140625 134.828125 C-71.94092041 135.435354 -72.19043457 136.04258301 -72.44750977 136.66821289 C-75.00732091 143.45829302 -75.44470215 150.19239742 -75.87890625 157.390625 C-75.96076172 158.59009766 -76.04261719 159.78957031 -76.12695312 161.02539062 C-76.325651 163.95910631 -76.51353475 166.89308555 -76.69140625 169.828125 C-77.35140625 169.828125 -78.01140625 169.828125 -78.69140625 169.828125 C-77.14774446 181.58162004 -75.10530173 193.17097576 -72.62890625 204.765625 C-72.37157715 205.97959961 -72.11424805 207.19357422 -71.84912109 208.44433594 C-70.76194417 213.44380369 -69.6318908 218.08990202 -67.69140625 222.828125 C-67.32523929 224.15150708 -66.99008637 225.4839917 -66.69140625 226.82421875 C-66.52640625 227.54802734 -66.36140625 228.27183594 -66.19140625 229.01757812 C-65.94390625 230.13036133 -65.94390625 230.13036133 -65.69140625 231.265625 C-64.79662184 235.2676881 -63.91956067 239.17455765 -62.56640625 243.05078125 C-61.69140625 245.828125 -61.69140625 245.828125 -61.69140625 250.828125 C-64.99140625 250.828125 -68.29140625 250.828125 -71.69140625 250.828125 C-75.9913568 242.34766696 -78.23308039 234.21618236 -80.20751953 225.00146484 C-80.66019091 222.96832629 -81.16023943 220.95631324 -81.6875 218.94140625 C-93.63403401 172.84948486 -91.62751795 120.77810371 -77.46044922 75.359375 C-76.68842176 72.81830177 -75.97936459 70.26752174 -75.2890625 67.703125 C-72.62068747 57.8304164 -69.53054106 48.18019301 -66.00390625 38.578125 C-65.62322998 37.52326904 -65.24255371 36.46841309 -64.8503418 35.3815918 C-64.48465088 34.4100415 -64.11895996 33.43849121 -63.7421875 32.4375 C-63.41903564 31.57092773 -63.09588379 30.70435547 -62.76293945 29.81152344 C-61.69140625 27.828125 -61.69140625 27.828125 -58.69140625 26.828125 C-57.41265625 26.89 -56.13390625 26.951875 -54.81640625 27.015625 C-51.64875501 27.05037072 -50.80775693 26.9011824 -48.00390625 25.140625 C-47.24078125 24.3775 -46.47765625 23.614375 -45.69140625 22.828125 C-34.52473958 11.66145833 -34.52473958 11.66145833 -27.69140625 7.828125 C-26.20793063 6.83452845 -24.72922157 5.83379828 -23.25390625 4.828125 C-15.69869059 -0.1672643 -8.98840406 -3.91367375 0 0 Z " fill="#CCC3BD" transform="translate(431.69140625,309.171875)"/>
<path d="M0 0 C2.14677211 0.99524684 4.32106065 1.80940713 6.5390625 2.6328125 C22.79424071 9.08930852 37.72096077 18.69269989 51.0390625 29.9453125 C51.82667969 30.60917969 52.61429688 31.27304688 53.42578125 31.95703125 C64.93466953 41.98329302 74.85580338 53.05781386 83.0390625 65.9453125 C83.4098291 66.51830078 83.7805957 67.09128906 84.16259766 67.68164062 C94.99214832 84.49582154 103.43390685 103.30061346 106.73120117 123.09960938 C108.1734966 131.39801939 110.44301058 139.49842318 112.61474609 147.62988281 C112.91203613 148.74717773 113.20932617 149.86447266 113.515625 151.015625 C113.78455566 152.01352051 114.05348633 153.01141602 114.33056641 154.03955078 C116.04439401 161.0684881 116.22221516 167.74612409 116.2265625 174.9453125 C116.23880859 176.01265625 116.25105469 177.08 116.26367188 178.1796875 C116.27357249 183.48641484 116.21340572 187.99502912 114.0390625 192.9453125 C111.90998039 189.75168933 110.49881121 186.47049944 109.0390625 182.9453125 C108.10256908 180.73655211 107.16505437 178.52822449 106.2265625 176.3203125 C105.96866943 175.7133252 105.71077637 175.10633789 105.44506836 174.48095703 C103.75963325 170.54333049 101.96087345 166.67813416 100.1015625 162.8203125 C97.12520271 156.45464247 94.85037119 149.91037353 92.58325195 143.26391602 C90.63564018 137.57194056 88.48435251 132.02461495 86.09765625 126.5 C84.77810592 123.31555013 83.71555867 120.08199008 82.71484375 116.78515625 C82.01307908 114.65304109 82.01307908 114.65304109 80.0390625 111.9453125 C80.0390625 110.6253125 80.0390625 109.3053125 80.0390625 107.9453125 C79.3790625 107.9453125 78.7190625 107.9453125 78.0390625 107.9453125 C77.0490625 105.6353125 76.0590625 103.3253125 75.0390625 100.9453125 C74.0490625 101.2753125 73.0590625 101.6053125 72.0390625 101.9453125 C69.30040963 102.01582364 66.58878662 102.03889015 63.8515625 102.0078125 C63.10197266 102.00330078 62.35238281 101.99878906 61.58007812 101.99414062 C59.73303867 101.98237604 57.88604037 101.96444115 56.0390625 101.9453125 C56.0390625 101.2853125 56.0390625 100.6253125 56.0390625 99.9453125 C55.2346875 99.9453125 54.4303125 99.9453125 53.6015625 99.9453125 C45.41615739 97.64765492 40.37760513 90.65134794 36.328125 83.53515625 C35.90273438 82.68050781 35.47734375 81.82585937 35.0390625 80.9453125 C34.49507812 79.87667969 33.95109375 78.80804688 33.390625 77.70703125 C31.77358552 73.20642716 31.66361698 69.54804053 31.7890625 64.8203125 C31.79421875 64.03527344 31.799375 63.25023437 31.8046875 62.44140625 C31.85797186 58.49170318 32.07943441 54.79930272 33.0390625 50.9453125 C32.45962891 50.67291748 31.88019531 50.40052246 31.28320312 50.11987305 C29.05447745 48.95338053 27.14790186 47.65451475 25.1328125 46.15234375 C24.39401855 45.60747314 23.65522461 45.06260254 22.89404297 44.5012207 C21.72832764 43.63823364 21.72832764 43.63823364 20.5390625 42.7578125 C14.22600651 38.12104338 7.94364196 33.91456573 1.03125 30.21484375 C0.04511719 29.58642578 0.04511719 29.58642578 -0.9609375 28.9453125 C-0.9609375 28.2853125 -0.9609375 27.6253125 -0.9609375 26.9453125 C-1.62867188 26.68363281 -2.29640625 26.42195313 -2.984375 26.15234375 C-6.54597429 24.70807317 -10.06685943 23.17690631 -13.5859375 21.6328125 C-14.64119629 21.17032104 -14.64119629 21.17032104 -15.71777344 20.69848633 C-31.98432336 13.55359157 -31.98432336 13.55359157 -34.7734375 11.81640625 C-38.03364487 10.5181451 -41.26071111 10.73552433 -44.7109375 10.8203125 C-45.75701172 10.83384766 -45.75701172 10.83384766 -46.82421875 10.84765625 C-48.53660708 10.87111362 -50.24881754 10.90698146 -51.9609375 10.9453125 C-51.9609375 11.6053125 -51.9609375 12.2653125 -51.9609375 12.9453125 C-53.9409375 12.9453125 -55.9209375 12.9453125 -57.9609375 12.9453125 C-57.9609375 13.6053125 -57.9609375 14.2653125 -57.9609375 14.9453125 C-55.6509375 14.9453125 -53.3409375 14.9453125 -50.9609375 14.9453125 C-50.9609375 15.6053125 -50.9609375 16.2653125 -50.9609375 16.9453125 C-54.01034423 17.96178141 -56.26463653 18.14375926 -59.4609375 18.1953125 C-60.42 18.22109375 -61.3790625 18.246875 -62.3671875 18.2734375 C-64.9609375 17.9453125 -64.9609375 17.9453125 -66.76171875 16.72265625 C-68.25813756 14.50483684 -68.45597377 12.91381192 -68.6484375 10.2578125 C-68.74705078 9.04544922 -68.74705078 9.04544922 -68.84765625 7.80859375 C-68.90373047 6.88626953 -68.90373047 6.88626953 -68.9609375 5.9453125 C-69.9921875 5.4915625 -71.0234375 5.0378125 -72.0859375 4.5703125 C-72.95605469 4.18746094 -72.95605469 4.18746094 -73.84375 3.796875 C-74.54242188 3.51585937 -75.24109375 3.23484375 -75.9609375 2.9453125 C-76.7859375 2.5946875 -77.6109375 2.2440625 -78.4609375 1.8828125 C-83.55457899 0.51844424 -88.58338022 0.4755605 -93.8359375 0.3203125 C-94.90585937 0.28164062 -95.97578125 0.24296875 -97.078125 0.203125 C-99.70556158 0.10928798 -102.33299921 0.02359693 -104.9609375 -0.0546875 C-104.9609375 -1.0446875 -104.9609375 -2.0346875 -104.9609375 -3.0546875 C-102.58902166 -4.35230049 -100.21369136 -5.64285067 -97.8359375 -6.9296875 C-97.17078125 -7.29449219 -96.505625 -7.65929687 -95.8203125 -8.03515625 C-95.16289062 -8.38964844 -94.50546875 -8.74414062 -93.828125 -9.109375 C-93.23112793 -9.43405762 -92.63413086 -9.75874023 -92.01904297 -10.09326172 C-67.65925319 -21.47272224 -23.00748274 -10.94363411 0 0 Z " fill="#E4DFDC" transform="translate(497.9609375,220.0546875)"/>
<path d="M0 0 C4.75 1.875 4.75 1.875 7 3 C7 3.66 7 4.32 7 5 C7.99 5.37125 7.99 5.37125 9 5.75 C11.29170509 6.70487712 13.40603874 7.71656072 15.59765625 8.86328125 C20.08726551 11.11883637 24.6890312 12.81241044 29.4375 14.4375 C30.30713379 14.73897949 31.17676758 15.04045898 32.07275391 15.35107422 C37.63420116 17.25620667 43.22538382 19.0019743 48.875 20.625 C60.68366077 24.03801111 71.20057941 27.32864973 81 35 C81.68449219 35.48339844 82.36898437 35.96679688 83.07421875 36.46484375 C88.61289126 40.39305745 93.40193812 45.01196443 98 50 C98.86238281 50.90878906 98.86238281 50.90878906 99.7421875 51.8359375 C101.54293296 54.93411446 101.36144875 57.44556785 101.3125 61 C101.30863281 62.216875 101.30476562 63.43375 101.30078125 64.6875 C101.02418833 67.73361428 100.6023478 69.44645769 99 72 C98.154375 71.34 97.30875 70.68 96.4375 70 C90.43461105 66.62185602 83.6347259 67.13196791 77 68 C68.98420526 70.52278576 63.03764387 75.27399902 57.05859375 81.046875 C55 83 55 83 52 85 C52 84.34 52 83.68 52 83 C51.30519531 82.77570313 50.61039063 82.55140625 49.89453125 82.3203125 C46.33411864 80.69626464 43.60925847 78.42346572 40.6875 75.875 C40.11499512 75.3807251 39.54249023 74.8864502 38.95263672 74.37719727 C29.65155253 66.27976735 22.06270625 57.83276342 16 47 C16 46.34 16 45.68 16 45 C15.34 45 14.68 45 14 45 C15.40068867 53.41641878 17.27169418 60.45328362 21.6953125 67.79296875 C23 70 23 70 24 73 C18.80355921 71.40109514 13.93387858 69.25861997 9 67 C9 66.34 9 65.68 9 65 C8.2575 65.04125 7.515 65.0825 6.75 65.125 C3.8100807 64.9913673 2.58054656 64.29983086 0 63 C-13.9651221 58.77919817 -33.63649963 58.97638548 -47 65 C-47.66 65.66 -48.32 66.32 -49 67 C-49.78761719 66.34773438 -50.57523437 65.69546875 -51.38671875 65.0234375 C-58.8709614 58.96741464 -66.01899211 54.61192709 -75 51 C-76.423125 50.42765625 -76.423125 50.42765625 -77.875 49.84375 C-78.57625 49.5653125 -79.2775 49.286875 -80 49 C-77.60899095 46.2348875 -75.36068997 45.16219894 -71.94921875 43.9140625 C-70.94721436 43.54321533 -69.94520996 43.17236816 -68.9128418 42.7902832 C-67.31629761 42.21346802 -67.31629761 42.21346802 -65.6875 41.625 C-64.05905151 41.02401489 -64.05905151 41.02401489 -62.39770508 40.41088867 C-57.84214254 38.73513493 -53.2805234 37.08212749 -48.6875 35.51171875 C-41.3107328 32.98418802 -34.69778057 29.99481868 -28 26 C-27.13117188 25.52304687 -26.26234375 25.04609375 -25.3671875 24.5546875 C-15.66585454 18.92621736 -5.31326719 10.05725576 0 0 Z " fill="#B29E97" transform="translate(490,359)"/>
<path d="M0 0 C1.4375 1.6875 1.4375 1.6875 1.4375 4.6875 C2.015 4.749375 2.5925 4.81125 3.1875 4.875 C6.9018159 6.21628074 8.57800854 9.23612711 10.53369141 12.53857422 C12.29611174 16.72896421 11.8068265 21.33043641 11.8125 25.8125 C11.83699219 26.80765625 11.86148438 27.8028125 11.88671875 28.828125 C11.91774489 36.75013288 9.9469816 42.66853681 6.4375 49.6875 C3.68197005 50.30635792 1.00036177 50.78698924 -1.7890625 51.1953125 C-2.6590538 51.32606674 -3.5290451 51.45682098 -4.42539978 51.59153748 C-7.34379817 52.01735588 -10.2645424 52.41922228 -13.1875 52.8125 C-14.19513397 52.94856659 -15.20276794 53.08463318 -16.24093628 53.224823 C-51.71808404 57.86975015 -88.12469216 57.49262649 -123.5625 52.6875 C-123.2325 38.1675 -122.9025 23.6475 -122.5625 8.6875 C-118.31375 7.553125 -114.065 6.41875 -109.6875 5.25 C-108.3689502 4.89365479 -107.05040039 4.53730957 -105.69189453 4.17016602 C-98.9703508 2.40258905 -92.50870383 1.03651451 -85.5625 0.6875 C-84.44319092 0.62961304 -84.44319092 0.62961304 -83.30126953 0.57055664 C-74.38748583 0.22741971 -65.62871898 0.54294783 -56.8125 1.9375 C-56.08675781 2.04674805 -55.36101562 2.15599609 -54.61328125 2.26855469 C-49.53032511 3.17014048 -45.94919907 4.97775507 -41.5625 7.6875 C-40.32589824 8.23939079 -39.07895253 8.77055726 -37.8125 9.25 C-32.367116 11.65853523 -30.46110018 14.96248053 -28.34765625 20.38671875 C-26.69246901 27.34509298 -27.3113543 34.58565766 -27.5625 41.6875 C-27.5625 43.0075 -27.5625 44.3275 -27.5625 45.6875 C-22.86163277 37.60788445 -22.07376364 28.86724814 -23.5625 19.6875 C-24.65685322 17.11687162 -25.73568152 15.31918179 -27.56640625 13.23046875 C-28.5625 11.6875 -28.5625 11.6875 -28.47265625 9.6796875 C-26.22804471 4.76658928 -19.61818849 2.2530474 -15.0625 -0.1875 C-9.8939648 -1.84881489 -4.94995705 -2.53534385 0 0 Z " fill="#A39C98" transform="translate(518.5625,589.3125)"/>
<path d="M0 0 C4.64449523 0.48380159 8.43769283 1.48703634 12.82324219 3.17749023 C16.38590416 4.52367778 20.00665149 5.6886692 23.625 6.875 C33.04648414 9.99280328 42.45146461 13.14453404 51.6484375 16.8828125 C57.4078702 19.20026233 63.25468441 21.23347938 69.125 23.25 C70.176875 23.61351562 71.22875 23.97703125 72.3125 24.3515625 C74.8742637 25.23653541 77.43676225 26.11930766 80 27 C78.52006519 35.74348059 71.86151711 43.04116342 64.8125 48.125 C58.34261543 52.43825638 52.47534505 53.36549573 44.875 53.3125 C44.03332275 53.30686035 43.19164551 53.3012207 42.32446289 53.29541016 C30.27657379 53.06214325 19.77192885 50.31967349 10.77734375 41.92578125 C2.10110634 32.63328772 -1.19564962 24.56838136 -1.125 11.875 C-1.12886719 11.17246094 -1.13273437 10.46992188 -1.13671875 9.74609375 C-1.13031314 6.35752363 -1.05709649 3.23840671 0 0 Z " fill="#D6C9C5" transform="translate(394,458)"/>
<path d="M0 0 C4.875 2.625 4.875 2.625 6 6 C5.70282968 7.67349296 5.36577898 9.34015223 5 11 C3.73486566 28.21978712 4.69300137 44.67777783 13.75390625 59.7265625 C15.42104896 62.76818337 15.632671 65.57159598 16 69 C16.93987154 71.81961461 17.98343406 74.58248887 19.0625 77.3515625 C19.96327128 79.89624135 20.5397611 82.344038 21 85 C21.66 85 22.32 85 23 85 C23.495 86.11375 23.99 87.2275 24.5 88.375 C31.77227877 102.64371249 45.49105609 113.55704525 60 120 C61.32300064 120.37223408 62.65426271 120.72093005 64 121 C64 121.66 64 122.32 64 123 C66.02164057 123.46107592 68.04437086 123.91758087 70.0703125 124.359375 C72.15147365 124.81445557 74.2293214 125.28480732 76.3046875 125.765625 C86.22094508 127.94080408 95.87468976 128.66364949 106 129 C106 129.33 106 129.66 106 130 C83.95827998 130.44329716 62.50691107 128.95928349 41 124 C39.48062295 123.66336575 37.96109374 123.32741751 36.44140625 122.9921875 C32.9306058 122.20672421 29.43667658 121.3680269 25.94873047 120.48681641 C24.02417042 120.00603806 22.09212772 119.55554145 20.16015625 119.10546875 C18.99355469 118.80253906 17.82695312 118.49960937 16.625 118.1875 C15.60664063 117.93355469 14.58828125 117.67960938 13.5390625 117.41796875 C9.89884812 115.38504903 9.20577359 112.78829447 8 109 C7.65775391 107.96818604 7.31550781 106.93637207 6.96289062 105.87329102 C5.96325816 102.79975947 4.99108227 99.71945578 4.03833008 96.63110352 C3.44153449 94.70055103 2.83542012 92.77309807 2.22851562 90.84570312 C0.31187451 84.66701532 -1.41995137 78.57296797 -2.5769043 72.20678711 C-2.9828272 70.08957009 -3.49657495 68.04211643 -4.0703125 65.96484375 C-9.28016302 46.52531839 -10.60616368 19.33903976 -1 1 C-0.67 0.67 -0.34 0.34 0 0 Z " fill="#AE9B94" transform="translate(377,442)"/>
<path d="M0 0 C1.4375 1.6875 1.4375 1.6875 1.4375 4.6875 C2.015 4.749375 2.5925 4.81125 3.1875 4.875 C6.9018159 6.21628074 8.57800854 9.23612711 10.53369141 12.53857422 C12.29611174 16.72896421 11.8068265 21.33043641 11.8125 25.8125 C11.83699219 26.80765625 11.86148438 27.8028125 11.88671875 28.828125 C11.91774489 36.75013288 9.9469816 42.66853681 6.4375 49.6875 C3.71289062 50.28173828 3.71289062 50.28173828 0.09375 50.7578125 C-0.87093201 50.88674393 -0.87093201 50.88674393 -1.85510254 51.01828003 C-3.22314144 51.19903032 -4.59178421 51.37525764 -5.9609375 51.54736328 C-8.02768703 51.80810794 -10.09187455 52.08443207 -12.15625 52.36328125 C-18.99547232 53.26419335 -25.65992482 53.91656776 -32.5625 53.6875 C-31.9025 51.3775 -31.2425 49.0675 -30.5625 46.6875 C-29.9025 47.0175 -29.2425 47.3475 -28.5625 47.6875 C-27.54402514 45.69684459 -26.54732022 43.69501815 -25.5625 41.6875 C-25.20800781 40.965625 -24.85351562 40.24375 -24.48828125 39.5 C-23.26860467 35.79465343 -23.13893694 32.23806627 -23.125 28.375 C-23.12040771 27.61678955 -23.11581543 26.8585791 -23.11108398 26.07739258 C-23.21591817 20.82038304 -24.0069395 17.29154057 -27.56640625 13.23046875 C-28.5625 11.6875 -28.5625 11.6875 -28.47265625 9.6796875 C-26.22804471 4.76658928 -19.61818849 2.2530474 -15.0625 -0.1875 C-9.8939648 -1.84881489 -4.94995705 -2.53534385 0 0 Z " fill="#A39C98" transform="translate(518.5625,589.3125)"/>
<path d="M0 0 C10.0214168 2.55518946 10.0214168 2.55518946 14.4375 4.5625 C20.29834185 6.9274011 26.6461814 7.75470742 32.9375 8.21484375 C37.37991243 8.66525501 40.05514619 9.10051169 43.359375 12.24609375 C45.36188066 14.76384265 47.17894638 17.35002338 49 20 C49.56332031 20.51304687 50.12664062 21.02609375 50.70703125 21.5546875 C53.11284987 24.24397115 52.1689023 27.56565331 52 31 C47.98228647 30.42294958 45.23632159 29.15478031 41.8125 27 C38.46706412 24.89110597 38.46706412 24.89110597 35 23 C36.4354503 24.77249524 37.87343803 26.54293576 39.3125 28.3125 C40.11300781 29.29863281 40.91351563 30.28476562 41.73828125 31.30078125 C43.8324058 33.91307064 43.8324058 33.91307064 45.79296875 35.66796875 C47 37 47 37 47 40 C44 42 44 42 42.09375 41.86328125 C39.38038672 40.74452512 37.65429542 39.17579663 35.5 37.1875 C34.7471875 36.50042969 33.994375 35.81335938 33.21875 35.10546875 C31.1095959 33.10400033 29.04428363 31.06751413 27 29 C27.3609375 29.75925781 27.721875 30.51851562 28.09375 31.30078125 C28.5578125 32.29464844 29.021875 33.28851562 29.5 34.3125 C29.9640625 35.29863281 30.428125 36.28476562 30.90625 37.30078125 C32 40 32 40 32 43 C19.54197377 41.09962312 8.90863154 34.8005671 1 25 C-3.30551256 19.11501952 -3.94849919 13.16280424 -3 6 C-1.5 2.3125 -1.5 2.3125 0 0 Z " fill="#AE9B94" transform="translate(333,652)"/>
<path d="M0 0 C3.75647563 2.44987541 6.9618747 5.29152355 8.50561523 9.65917969 C8.9948455 12.59391457 8.98618021 15.41535385 8.97265625 18.390625 C8.96943359 19.64101563 8.96621094 20.89140625 8.96289062 22.1796875 C8.95032227 24.13261719 8.95032227 24.13261719 8.9375 26.125 C8.93298828 27.44242188 8.92847656 28.75984375 8.92382812 30.1171875 C8.91204316 33.36983741 8.89559011 36.62239584 8.875 39.875 C5.77091193 39.93307043 2.6669636 39.96861914 -0.4375 40 C-1.75911133 40.02513672 -1.75911133 40.02513672 -3.10742188 40.05078125 C-3.95498047 40.05722656 -4.80253906 40.06367187 -5.67578125 40.0703125 C-6.84620972 40.08602295 -6.84620972 40.08602295 -8.0402832 40.10205078 C-10.125 39.875 -10.125 39.875 -13.125 37.875 C-14.84335446 37.52522187 -16.57542286 37.24010375 -18.3125 37 C-23.59080575 36.12964107 -27.48501341 34.5014075 -32.125 31.875 C-31.3306445 27.03030436 -29.52161497 23.06108292 -27.43359375 18.6484375 C-26.65800328 17.00464874 -25.90946071 15.34688208 -25.22265625 13.6640625 C-22.64978659 7.66465214 -18.33457573 3.72221891 -13.125 -0.125 C-8.46247142 -1.67917619 -4.63746673 -1.66948802 0 0 Z " fill="#A19A96" transform="translate(375.125,587.125)"/>
<path d="M0 0 C0.48724353 11.16360916 -4.21730238 23.14940676 -11 32 C-15.87805794 37.28640216 -20.73882052 39.93409347 -28 40.375 C-33.59486184 40.20448992 -36.71773786 37.28226214 -40.5625 33.4375 C-45.3473729 27.33212646 -48.15689285 20.72847507 -48 13 C-21.22357162 4.70069646 -21.22357162 4.70069646 -10.44140625 1.69140625 C-6.72674236 0.63941344 -3.88337485 -0.10495608 0 0 Z " fill="#D4C8C4" transform="translate(577,469)"/>
<path d="M0 0 C3.97745494 -0.41867947 6.75857395 0.18634088 10.35546875 1.7421875 C14.44485785 3.43177056 18.54836365 4.84666566 22.77734375 6.1484375 C23.94974609 6.51453125 25.12214844 6.880625 26.33007812 7.2578125 C28.75781453 8.00966156 31.19027962 8.74639047 33.62695312 9.46875 C34.79033203 9.83742188 35.95371094 10.20609375 37.15234375 10.5859375 C38.20413818 10.9061084 39.25593262 11.2262793 40.33959961 11.55615234 C44.63474187 13.88720413 45.51635888 17.54907663 47 22 C48.2375 21.690625 49.475 21.38125 50.75 21.0625 C52.16666667 20.70833333 53.58333333 20.35416667 55 20 C55.6496875 19.7834375 56.299375 19.566875 56.96875 19.34375 C59.6186367 18.89530764 61.24339167 19.51595282 63.75 20.4375 C64.54921875 20.72496094 65.3484375 21.01242187 66.171875 21.30859375 C66.77515625 21.53675781 67.3784375 21.76492188 68 22 C67.61712558 24.56359397 67.2228978 25.77763418 65.36328125 27.6328125 C64.68652344 28.12523437 64.00976562 28.61765625 63.3125 29.125 C62.64863281 29.62257813 61.98476563 30.12015625 61.30078125 30.6328125 C55.62116485 34.00779678 50.3083962 34.35735882 43.875 34.3125 C43.03332275 34.30686035 42.19164551 34.3012207 41.32446289 34.29541016 C29.28187502 34.06224589 18.57880633 31.3546562 9.70703125 22.78515625 C4.73348743 17.34052995 0.76931092 12.7705613 0.3125 5.1875 C0.24675781 4.21167969 0.18101562 3.23585938 0.11328125 2.23046875 C0.07589844 1.49441406 0.03851563 0.75835937 0 0 Z " fill="#FBECE7" transform="translate(395,477)"/>
<path d="M0 0 C21.23064307 0.49694613 41.11045598 18.91910472 56.25610352 32.23950195 C60.07098715 35.57575294 64.02482014 38.54470096 68.1875 41.4375 C64.74015279 42.42123877 63.29642203 42.36276569 60 40.875 C55.55066716 38.95099856 51.03784703 37.26618517 46.46484375 35.6640625 C45.72675476 35.40456314 44.98866577 35.14506378 44.22821045 34.87770081 C35.06322626 31.67193576 25.83935156 28.64248172 16.61523438 25.61206055 C11.4621685 23.91734438 6.319077 22.19624026 1.1875 20.4375 C0.52613037 20.21282043 -0.13523926 19.98814087 -0.81665039 19.75665283 C-2.64929748 19.12683273 -4.47338643 18.47227068 -6.296875 17.81640625 C-7.32006836 17.45232666 -8.34326172 17.08824707 -9.39746094 16.71313477 C-12.11766971 15.27630795 -12.80194948 14.29256877 -13.8125 11.4375 C-12.68922229 9.97783966 -11.56381706 8.51981636 -10.4375 7.0625 C-9.81101562 6.25039063 -9.18453125 5.43828125 -8.5390625 4.6015625 C-5.6874393 1.02735604 -4.56165939 0.11354057 0 0 Z " fill="#7A6D68" transform="translate(395.8125,420.5625)"/>
<path d="M0 0 C-0.7425 0.4125 -1.485 0.825 -2.25 1.25 C-6.83769335 4.16944122 -9.27046534 6.81139603 -11 12 C-12.11375 12.12375 -13.2275 12.2475 -14.375 12.375 C-18.03103677 12.6465813 -18.03103677 12.6465813 -20 15 C-20.16677282 18.58343976 -20.16677282 18.58343976 -20 22 C-18.3603125 22.2165625 -18.3603125 22.2165625 -16.6875 22.4375 C-14.7265625 23 -14.7265625 23 -13 24 C-11.99170665 26.07208909 -11.50893845 28.13787182 -10.9140625 30.36328125 C-9.10096704 35.5933643 -5.77458304 40.00602987 -2 44 C-1.43506836 44.61399658 -0.87013672 45.22799316 -0.28808594 45.8605957 C8.34113889 53.54875323 19.77497783 52.00045117 30.625 51.9375 C32.69924109 51.95062401 34.7734649 51.96687134 36.84765625 51.98632812 C41.89895654 52.0269626 46.9486161 52.02510755 52 52 C52 52.33 52 52.66 52 53 C-5.36315059 53.61177619 -5.36315059 53.61177619 -32 50 C-31.67 35.48 -31.34 20.96 -31 6 C-24.44125 4.2365625 -24.44125 4.2365625 -17.75 2.4375 C-15.69023926 1.87567017 -15.69023926 1.87567017 -13.58886719 1.30249023 C-11.95933105 0.87238647 -11.95933105 0.87238647 -10.296875 0.43359375 C-9.18666992 0.13509521 -8.07646484 -0.16340332 -6.93261719 -0.47094727 C-4.12932065 -0.97667018 -2.63565246 -0.96734053 0 0 Z " fill="#8B837E" transform="translate(427,592)"/>
<path d="M0 0 C3.52303835 1.0569115 5.96292769 2.76561563 8.9609375 4.89453125 C9.52611084 5.29502686 10.09128418 5.69552246 10.67358398 6.1081543 C24.64153317 16.10044372 24.64153317 16.10044372 29.7734375 21.83203125 C30.0234375 24.58203125 30.0234375 24.58203125 29.7734375 26.83203125 C31.041875 26.58453125 31.041875 26.58453125 32.3359375 26.33203125 C36.93168837 27.0005041 37.98746672 28.8467217 40.80078125 32.37109375 C42.94539665 35.04655455 45.24172205 37.51756734 47.5859375 40.01953125 C52.5938518 45.51306148 57.1168496 51.27706589 61.56640625 57.22216797 C62.73174088 58.77641889 63.90863702 60.32198062 65.0859375 61.8671875 C69.06352456 67.10848712 72.96421359 72.40472802 76.7734375 77.76953125 C77.5159375 78.80980469 78.2584375 79.85007812 79.0234375 80.921875 C80.68907699 83.69174425 81.39872958 85.6528687 81.7734375 88.83203125 C79.03515625 89.15625 79.03515625 89.15625 75.7734375 88.83203125 C73.60546875 86.6640625 73.60546875 86.6640625 71.5859375 83.64453125 C70.81513842 82.53501249 70.04023332 81.42833747 69.26171875 80.32421875 C68.85904785 79.74768555 68.45637695 79.17115234 68.04150391 78.57714844 C65.93625449 75.67989721 63.61083666 72.98044282 61.2734375 70.26953125 C57.95367719 66.40303384 54.69888653 62.5067492 51.5234375 58.51953125 C47.02971465 52.98754753 42.17484473 47.82508286 37.26464844 42.66479492 C34.12803643 39.36570076 31.06101857 36.0355117 28.08984375 32.5859375 C25.66817976 29.79346472 23.20852989 27.29766209 20.3359375 24.95703125 C18.27734375 23.27734375 18.27734375 23.27734375 16.7734375 21.83203125 C16.7734375 21.17203125 16.7734375 20.51203125 16.7734375 19.83203125 C16.19078125 19.54972656 15.608125 19.26742187 15.0078125 18.9765625 C12.93383937 17.91419514 10.99013472 16.76700242 9.0234375 15.51953125 C6.87081479 14.15700976 4.71789353 12.7979253 2.546875 11.46484375 C1.83789062 11.02914062 1.12890625 10.5934375 0.3984375 10.14453125 C-0.24867188 9.74878906 -0.89578125 9.35304687 -1.5625 8.9453125 C-3.2265625 7.83203125 -3.2265625 7.83203125 -5.2265625 5.83203125 C-5.2265625 2.83203125 -5.2265625 2.83203125 -4.0390625 1.08203125 C-2.2265625 -0.16796875 -2.2265625 -0.16796875 0 0 Z " fill="#C7BDB8" transform="translate(382.2265625,233.16796875)"/>
<path d="M0 0 C-1.08775668 6.51184068 -6.60671201 11.22411094 -11.6953125 15 C-14.41936929 16.76039324 -17.17400632 18.40907022 -20 20 C-20.63292969 20.36609375 -21.26585937 20.7321875 -21.91796875 21.109375 C-26.82937095 23.75481018 -32.08586628 25.58049111 -37.30688477 27.51025391 C-64.40561888 37.09419048 -64.40561888 37.09419048 -88 53 C-88.83144531 53.71542969 -89.66289062 54.43085938 -90.51953125 55.16796875 C-98.01902357 62.04538336 -102.48641587 70.01965314 -107 79 C-107.5053125 79.99515625 -108.010625 80.9903125 -108.53125 82.015625 C-113.77331856 92.94725578 -116.90451472 104.24224542 -117.5625 116.3125 C-117.60568359 117.05306641 -117.64886719 117.79363281 -117.69335938 118.55664062 C-117.79870432 120.37091464 -117.89978316 122.1854355 -118 124 C-118.66 124 -119.32 124 -120 124 C-120.495 124.99 -120.495 124.99 -121 126 C-121.89633147 101.06819537 -117.25611478 75.11550592 -99.875 55.9375 C-81.43096168 36.45057886 -59.60683362 28.14442023 -34.42749023 20.18701172 C-23.75299022 16.75810498 -15.13077862 10.61919323 -6.54418945 3.55664062 C-2.19352259 0 -2.19352259 0 0 0 Z " fill="#DED9D6" transform="translate(472,354)"/>
<path d="M0 0 C4.62 0 9.24 0 14 0 C16.14285714 12.05357143 16.14285714 12.05357143 16 18 C10.91913204 18.84681133 6.15171623 19.09038099 1 19 C1 19.66 1 20.32 1 21 C-6.23431599 21.88070797 -13.3418371 22.12570502 -20.625 22.0625 C-21.62917969 22.05798828 -22.63335937 22.05347656 -23.66796875 22.04882812 C-26.11200565 22.03718985 -28.55601128 22.01926086 -31 22 C-31 15.4 -31 8.8 -31 2 C-20.77 2 -10.54 2 0 2 C0 1.34 0 0.68 0 0 Z " fill="#766F6B" transform="translate(487,670)"/>
<path d="M0 0 C14.67599009 0.86597457 29.33702415 1.93940554 44 3 C44 9.27 44 15.54 44 22 C12.37268097 22.53656149 12.37268097 22.53656149 -1 19 C-1.10349817 12.58311325 -0.74507544 6.37305598 0 0 Z " fill="#79726E" transform="translate(402,669)"/>
<path d="M0 0 C12.99196645 1.69338401 26.06239177 2.03198321 39.14355469 2.36279297 C40.76595814 2.40612848 42.38835407 2.44974667 44.01074219 2.49365234 C47.92993423 2.59911303 51.84920706 2.70078953 55.76855469 2.80029297 C55.38981581 5.32148572 55.03309274 6.54486714 53.17382812 8.34008789 C52.49868164 8.81551025 51.82353516 9.29093262 51.12792969 9.78076172 C50.38671875 10.30476562 49.64550781 10.82876953 48.88183594 11.36865234 C48.10195313 11.90296875 47.32207031 12.43728516 46.51855469 12.98779297 C45.75414062 13.53371094 44.98972656 14.07962891 44.20214844 14.64208984 C37.19639062 19.52434076 37.19639062 19.52434076 32.76855469 19.80029297 C30.17236328 18.67285156 30.17236328 18.67285156 27.41699219 16.94873047 C26.39992188 16.34544922 25.38285156 15.74216797 24.33496094 15.12060547 C22.22091168 13.83199282 20.11649346 12.52743457 18.02246094 11.20654297 C12.25705433 7.72953152 12.25705433 7.72953152 5.73413086 6.99169922 C2.94733467 7.73140293 0.40645729 8.64252254 -2.23144531 9.80029297 C-3.77638672 10.39583984 -3.77638672 10.39583984 -5.35253906 11.00341797 C-6.91585756 11.70994302 -8.47833987 12.41832081 -10.04003906 13.12841797 C-12.67854921 13.93737295 -13.68633914 13.8368276 -16.23144531 12.80029297 C-18.01934752 11.67066385 -19.76815743 10.47767236 -21.48144531 9.23779297 C-22.37347656 8.59712891 -23.26550781 7.95646484 -24.18457031 7.29638672 C-24.86003906 6.80267578 -25.53550781 6.30896484 -26.23144531 5.80029297 C-22.51536047 -5.34796154 -8.99520973 -1.19034688 0 0 Z " fill="#9D9692" transform="translate(410.2314453125,699.19970703125)"/>
<path d="M0 0 C0 1.65 0 3.3 0 5 C-10.07223483 7.54058159 -20.15723187 8.84865409 -30.46655273 9.99731445 C-32.03385132 10.17266724 -32.03385132 10.17266724 -33.6328125 10.3515625 C-34.57012207 10.45291504 -35.50743164 10.55426758 -36.47314453 10.65869141 C-38.91664584 10.9342872 -38.91664584 10.9342872 -40.91337585 11.51225281 C-44.4559702 12.3403322 -48.07841355 12.16264662 -51.69921875 12.16796875 C-52.55861557 12.17211288 -53.41801239 12.17625702 -54.30345154 12.18052673 C-57.0981776 12.19021924 -59.89275969 12.19018158 -62.6875 12.1875 C-63.63695496 12.18756042 -64.58640991 12.18762085 -65.56463623 12.18768311 C-80.46735577 12.17413088 -95.18149175 11.70137371 -110 10 C-110.84804199 9.90396484 -111.69608398 9.80792969 -112.56982422 9.70898438 C-117.05426192 9.19165077 -121.52925884 8.62630353 -126 8 C-126.33 6.02 -126.66 4.04 -127 2 C-126.28908203 2.05894943 -125.57816406 2.11789886 -124.84570312 2.17863464 C-106.55766104 3.65792701 -88.39791319 4.35010824 -70.04931641 4.31567383 C-67.33528248 4.31100167 -64.62169245 4.31814722 -61.90771484 4.33618164 C-46.40583681 4.43820649 -31.32421328 4.08528173 -16.03149414 1.35848999 C-10.62213528 0.40392115 -5.49594568 -0.11216216 0 0 Z " fill="#99928E" transform="translate(524,650)"/>
<path d="M0 0 C11.34545456 0.7427047 21.99625077 3.58465563 32.79296875 7.03125 C35.96728507 7.99011778 39.143579 8.75954986 42.375 9.5 C46.38675037 10.47286254 49.54623845 11.64637023 53.04296875 13.91796875 C55.66917005 15.36998025 58.41190822 16.21701268 61.25 17.1875 C74.26484397 22.06806649 90.31395745 36.22043294 96.4375 49 C96.623125 49.66 96.80875 50.32 97 51 C93.12400935 49.41312383 90.50806926 46.75004291 87.5625 43.875 C80.53592773 37.21008953 72.73101152 32.2185897 64 28 C64 27.34 64 26.68 64 26 C63.27852783 25.87326904 62.55705566 25.74653809 61.8137207 25.6159668 C59.05604925 25.01227004 56.60876912 24.16605185 53.98046875 23.14453125 C47.85798215 20.86999621 41.63970272 19.28058247 35.3125 17.6875 C22.9752799 14.4735508 10.274466 10.89265798 0 3 C0 2.01 0 1.02 0 0 Z " fill="#DDD8D5" transform="translate(503,347)"/>
<path d="M0 0 C7.6738961 5.80727273 7.6738961 5.80727273 8.34057617 10.29003906 C8.32486572 11.10698242 8.30915527 11.92392578 8.29296875 12.765625 C8.28330078 13.65507812 8.27363281 14.54453125 8.26367188 15.4609375 C8.23853516 16.38132812 8.21339844 17.30171875 8.1875 18.25 C8.16719727 19.65378906 8.16719727 19.65378906 8.14648438 21.0859375 C8.11119954 23.39121327 8.06190281 25.6953106 8 28 C7.34 28 6.68 28 6 28 C6.05414062 29.49660156 6.05414062 29.49660156 6.109375 31.0234375 C5.99735726 35.09608247 5.29853795 38.71812547 4.25 42.625 C3.97603394 43.67095337 3.97603394 43.67095337 3.6965332 44.73803711 C3.14225081 46.82857572 2.57275081 48.91445652 2 51 C1.69964844 52.12277344 1.39929688 53.24554688 1.08984375 54.40234375 C-1.37962612 63.05083346 -5.03951567 70.95665682 -9 79 C-9.33 79 -9.66 79 -10 79 C-9.73467446 74.41415511 -9.46808973 69.82838558 -9.20043945 65.24267578 C-9.10994121 63.6893095 -9.01976114 62.13592463 -8.92993164 60.58251953 C-8.67051855 56.09858608 -8.40536283 51.61506375 -8.13049316 47.13204956 C-8.0450513 45.73606617 -7.96077778 44.34001065 -7.87780762 42.94387817 C-7.76366561 41.04429185 -7.64177104 39.14517617 -7.51953125 37.24609375 C-7.4522583 36.17544678 -7.38498535 35.1047998 -7.31567383 34.00170898 C-6.8918637 29.97174336 -5.90409117 26.19852144 -4.828125 22.30078125 C-3.61138301 17.45103133 -2.8136417 12.54163112 -2.00244141 7.61010742 C-1.0972335 2.19446699 -1.0972335 2.19446699 0 0 Z " fill="#9E9792" transform="translate(606,435)"/>
<path d="M0 0 C10.89 3.63 21.78 7.26 33 11 C32.00396815 15.98015923 30.47103791 18.48922022 27.4375 22.3125 C27.01275391 22.86228516 26.58800781 23.41207031 26.15039062 23.97851562 C25.10818741 25.3251827 24.05516157 26.66346201 23 28 C22.34 27.01 21.68 26.02 21 25 C18.4605289 24.12209638 18.4605289 24.12209638 15.5625 23.6875 C14.59441406 23.50574219 13.62632812 23.32398438 12.62890625 23.13671875 C9.76494215 22.72541958 9.76494215 22.72541958 7 25 C4.0625 25.5 4.0625 25.5 1 25 C-2.78874115 20.39207158 -4.1594515 16.50528452 -4.3125 10.625 C-4.34988281 9.68914062 -4.38726562 8.75328125 -4.42578125 7.7890625 C-4 5 -4 5 0 0 Z " fill="#95BFD8" transform="translate(441,474)"/>
<path d="M0 0 C4.75 0.75 4.75 0.75 7 3 C8.91698032 3.46271939 10.83474702 3.92263485 12.7578125 4.359375 C16.44170578 5.41191594 19.6297012 7.19448279 23 9 C23.25 11.8125 23.25 11.8125 23 15 C21.125 16.875 21.125 16.875 19 18 C18.34 18 17.68 18 17 18 C16.67 18.66 16.34 19.32 16 20 C14.02 20 12.04 20 10 20 C10.33 21.98 10.66 23.96 11 26 C11.99 26.33 12.98 26.66 14 27 C13.70119068 31.33755471 13.22109702 34.79593023 10.0390625 37.93359375 C5.94056528 40.77258601 3.10404686 42.48317139 -2 42 C-3.5660348 40.4339652 -3.20784495 38.92801089 -3.25 36.75 C-3.2257144 32.48787798 -2.55356925 28.749823 -1.5 24.625 C0.27363066 17.56394207 1.34443643 10.0333093 -1 3 C-0.67 2.01 -0.34 1.02 0 0 Z " fill="#3B3937" transform="translate(323,571)"/>
<path d="M0 0 C1 2 1 2 0.49023438 3.76147461 C0.19439453 4.46796143 -0.10144531 5.17444824 -0.40625 5.90234375 C-0.73455811 6.7005957 -1.06286621 7.49884766 -1.40112305 8.32128906 C-1.94506714 9.61631348 -1.94506714 9.61631348 -2.5 10.9375 C-3.24809504 12.76350429 -3.99414208 14.59034878 -4.73828125 16.41796875 C-5.11807129 17.34915527 -5.49786133 18.2803418 -5.88916016 19.23974609 C-10.87353689 31.62510068 -15.17290192 44.21361242 -19 57 C-19.66 57 -20.32 57 -21 57 C-21.12117188 58.0415625 -21.24234375 59.083125 -21.3671875 60.15625 C-21.53641842 61.60417133 -21.70569269 63.0520876 -21.875 64.5 C-21.96450928 65.26957031 -22.05401855 66.03914063 -22.14624023 66.83203125 C-22.58634848 70.58967157 -23.03842992 74.34417184 -23.54296875 78.09375 C-24.82409962 87.72631294 -25.5436746 97.29708095 -26 107 C-26.33 107 -26.66 107 -27 107 C-28.18753915 102.29565527 -28.17882063 97.70598185 -28.203125 92.88671875 C-28.20882507 91.99950638 -28.21452515 91.11229401 -28.22039795 90.19819641 C-28.22983072 88.31793399 -28.23637508 86.43765517 -28.24023438 84.55737305 C-28.24983768 81.73520255 -28.28083387 78.91379347 -28.3125 76.09179688 C-28.40468656 60.40902318 -26.91934719 46.32019535 -20 32 C-19.69900391 31.36529785 -19.39800781 30.7305957 -19.08789062 30.07666016 C-13.83438361 19.03223649 -8.18890878 9.16377888 0 0 Z " fill="#262422" transform="translate(359,352)"/>
<path d="M0 0 C0.99 0.66 1.98 1.32 3 2 C2.01 2 1.02 2 0 2 C-0.28359375 2.72574219 -0.5671875 3.45148437 -0.859375 4.19921875 C-1.91194143 6.78377399 -3.0582115 9.28988101 -4.25 11.8125 C-6.45051299 16.61957302 -8.39410622 21.49013709 -10.25 26.4375 C-10.50813477 27.12368408 -10.76626953 27.80986816 -11.03222656 28.5168457 C-12.19176931 31.64614432 -13.29822849 34.73342071 -14 38 C-19.77378925 37.5188509 -23.95859836 35.81532819 -29 33 C-28.2056445 28.15530436 -26.39661497 24.18608292 -24.30859375 19.7734375 C-23.53300328 18.12964874 -22.78446071 16.47188208 -22.09765625 14.7890625 C-19.52478659 8.78965214 -15.20957573 4.84721891 -10 1 C-6.47005387 -0.17664871 -3.70544587 -0.19850603 0 0 Z " fill="#87817E" transform="translate(372,586)"/>
<path d="M0 0 C0.17062598 3.19411832 0.04811528 5.96046569 -1 9 C-6.18230282 13.38140147 -13.48714356 13.72806445 -20 14 C-20 14.66 -20 15.32 -20 16 C-20.85980469 16.17015625 -21.71960938 16.3403125 -22.60546875 16.515625 C-30.05299279 18.04248925 -37.1504502 19.87610882 -44.35546875 22.328125 C-47 23 -47 23 -50 22 C-43.85910435 16.08404558 -37.61864455 10.48299181 -30.6875 5.5 C-30.12595215 5.09152832 -29.5644043 4.68305664 -28.98583984 4.26220703 C-19.55346774 -2.37066586 -10.90928922 -3.79453538 0 0 Z " fill="#776A65" transform="translate(588,441)"/>
<path d="M0 0 C2.67496322 1.50003767 5.03273799 3.35404388 7.4375 5.25 C8.13544678 5.78633057 8.83339355 6.32266113 9.55249023 6.87524414 C14.92198338 11.04341872 20.12593074 15.39965992 25.21850586 19.90136719 C28.97894345 23.21308029 32.88368475 26.13986166 37 29 C33.55265279 29.98373877 32.10892203 29.92526569 28.8125 28.4375 C24.32232983 26.52623223 19.79070852 24.80429407 15.1875 23.1875 C14.48141602 22.93758301 13.77533203 22.68766602 13.04785156 22.43017578 C8.81894081 20.94607098 4.57285049 19.53130933 0.3046875 18.1640625 C-1.12653442 17.70157104 -1.12653442 17.70157104 -2.58666992 17.22973633 C-4.46147229 16.62653067 -6.33920473 16.03234413 -8.2199707 15.44799805 C-9.07421631 15.1725415 -9.92846191 14.89708496 -10.80859375 14.61328125 C-11.56970459 14.37391846 -12.33081543 14.13455566 -13.11499023 13.88793945 C-15 13 -15 13 -17 10 C-15.56458334 8.70601853 -14.12658648 7.41489889 -12.6875 6.125 C-11.88699219 5.40570313 -11.08648437 4.68640625 -10.26171875 3.9453125 C-6.72427639 0.9027455 -4.69253372 -0.76558919 0 0 Z " fill="#8D7E79" transform="translate(427,433)"/>
<path d="M0 0 C1.92960571 0.24447876 1.92960571 0.24447876 3.89819336 0.49389648 C8.8247557 1.03915505 13.67670329 1.12850688 18.62890625 1.09765625 C19.94156715 1.09553383 19.94156715 1.09553383 21.28074646 1.09336853 C24.04136762 1.08782719 26.80190388 1.07528612 29.5625 1.0625 C31.44856653 1.0574774 33.33463434 1.05291583 35.22070312 1.04882812 C39.81383417 1.03787707 44.40690275 1.02065384 49 1 C49.99 4.3 50.98 7.6 52 11 C34.12176642 13.64135075 16.8060602 13.08239361 -1 10 C-1.125 2.25 -1.125 2.25 0 0 Z " fill="#605A57" transform="translate(380,726)"/>
<path d="M0 0 C0.99 0 1.98 0 3 0 C3.35713277 8.08178222 2.6955468 15.07369969 0.66796875 22.8984375 C-0.28011046 27.30062985 -0.27286451 31.52300081 0 36 C5.01535052 35.67039784 5.01535052 35.67039784 9 33 C10.485 33.495 10.485 33.495 12 34 C10.57078892 37.25370726 9.13019761 40.50225282 7.6875 43.75 C7.28337891 44.67039062 6.87925781 45.59078125 6.46289062 46.5390625 C6.06650391 47.42851563 5.67011719 48.31796875 5.26171875 49.234375 C4.90037842 50.05131836 4.53903809 50.86826172 4.16674805 51.70996094 C2.18584272 55.59799022 0.95000856 57.62744763 -3.1875 59.25 C-4.115625 59.4975 -5.04375 59.745 -6 60 C-6.02505615 59.40985107 -6.0501123 58.81970215 -6.07592773 58.21166992 C-6.19200052 55.53673186 -6.31467572 52.8621362 -6.4375 50.1875 C-6.47681641 49.25873047 -6.51613281 48.32996094 -6.55664062 47.37304688 C-6.59853516 46.48037109 -6.64042969 45.58769531 -6.68359375 44.66796875 C-6.72025146 43.84578857 -6.75690918 43.0236084 -6.79467773 42.17651367 C-6.93427772 39.82094822 -6.93427772 39.82094822 -8 37 C-9.02414612 28.47314406 -6.55145394 20.92587156 -4 12.875 C-3.6184375 11.63234375 -3.236875 10.3896875 -2.84375 9.109375 C-1.90820077 6.06884 -0.96009558 3.03285513 0 0 Z " fill="#262423" transform="translate(321,576)"/>
<path d="M0 0 C1.7325 0.61875 1.7325 0.61875 3.5 1.25 C8.67505853 2.98598943 13.93409442 4.2832319 19.23828125 5.55371094 C22.2288327 6.27642754 25.128377 7.04588443 28.02734375 8.08203125 C31.51942231 9.16039979 34.73013884 9.4186871 38.375 9.625 C39.62023437 9.69976563 40.86546875 9.77453125 42.1484375 9.8515625 C43.08945312 9.90054688 44.03046875 9.94953125 45 10 C45 12.97 45 15.94 45 19 C41.74977768 19.05397048 38.50045247 19.09365955 35.25 19.125 C34.32960938 19.14175781 33.40921875 19.15851562 32.4609375 19.17578125 C31.12675781 19.18544922 31.12675781 19.18544922 29.765625 19.1953125 C28.54020996 19.21102295 28.54020996 19.21102295 27.29003906 19.22705078 C24.76032813 18.97623722 23.23194192 18.17043624 21 17 C19.845 16.896875 18.69 16.79375 17.5 16.6875 C10.24054452 15.95063798 3.42625379 12.28962992 -3 9 C-2.69181644 7.68647977 -2.37832335 6.37420428 -2.0625 5.0625 C-1.88847656 4.33160156 -1.71445312 3.60070312 -1.53515625 2.84765625 C-1 1 -1 1 0 0 Z " fill="#78706C" transform="translate(337,630)"/>
<path d="M0 0 C1.02155561 2.63901866 1.1212831 3.70363887 0.03125 6.3671875 C-3.98599766 12.94645536 -7.850574 18.05771549 -14.9375 21.375 C-20.40003859 22.48980379 -24.27710778 22.91020721 -29.3125 20.25 C-33.55685325 16.69658798 -35.02846151 14.41031068 -36 9 C-32.60732806 7.98905456 -29.21040545 6.99319949 -25.8125 6 C-24.85279297 5.71382813 -23.89308594 5.42765625 -22.90429688 5.1328125 C-21.97294922 4.86210937 -21.04160156 4.59140625 -20.08203125 4.3125 C-19.22843018 4.06113281 -18.3748291 3.80976563 -17.49536133 3.55078125 C-14.87945318 2.97339266 -12.6687808 2.76264825 -10 3 C-8.375 4.9375 -8.375 4.9375 -7 7 C-6.01 7.33 -5.02 7.66 -4 8 C-3.566875 7.13375 -3.566875 7.13375 -3.125 6.25 C-2.08333333 4.16666667 -1.04166667 2.08333333 0 0 Z " fill="#FAECE7" transform="translate(571,487)"/>
<path d="M0 0 C1.45792884 -0.05399736 2.91642712 -0.09279177 4.375 -0.125 C5.18710937 -0.14820313 5.99921875 -0.17140625 6.8359375 -0.1953125 C9 0 9 0 11 2 C11 2.99 11 3.98 11 5 C11.5775 5.061875 12.155 5.12375 12.75 5.1875 C16.4643159 6.52878074 18.14050854 9.54862711 20.09619141 12.85107422 C21.85861174 17.04146421 21.3693265 21.64293641 21.375 26.125 C21.39949219 27.12015625 21.42398438 28.1153125 21.44921875 29.140625 C21.48024489 37.06263288 19.5094816 42.98103681 16 50 C13.36 50 10.72 50 8 50 C8.28875 49.37738281 8.5775 48.75476563 8.875 48.11328125 C11.69158217 41.10116523 12.43647844 34.82590918 12.5 27.3125 C12.51804687 26.43440674 12.53609375 25.55631348 12.5546875 24.65161133 C12.48867804 17.32662366 10.84001499 11.15096554 5.859375 5.625 C5.16328125 5.08875 4.4671875 4.5525 3.75 4 C2.4928702 3.00897797 1.24054448 2.01170618 0 1 C0 0.67 0 0.34 0 0 Z " fill="#BEBAB7" transform="translate(509,589)"/>
<path d="M0 0 C4.62066429 2.60787492 9.18690692 5.90067572 11 11 C11.994851 20.65005469 11.994851 20.65005469 9.67578125 23.796875 C6.66308411 25.95983705 4.59106236 25.58869875 1 25 C-3.49376913 22.05637508 -8.10324138 18.09753878 -10 13 C-10.70844687 4.41689373 -10.70844687 4.41689373 -9 1 C-5.53713634 -0.15428789 -3.63824182 -0.4805225 0 0 Z " fill="#9B948F" transform="translate(518,286)"/>
<path d="M0 0 C3.96463936 0.46642816 5.38661869 1.57411869 8.1875 4.375 C11.36741729 8.43213585 11.29997614 11.32541308 11.1875 16.375 C11.86554688 15.78332031 12.54359375 15.19164062 13.2421875 14.58203125 C19.02535243 9.67194801 24.86115443 4.7533286 32.1875 2.375 C33.1775 2.705 34.1675 3.035 35.1875 3.375 C34.50945312 3.90867187 33.83140625 4.44234375 33.1328125 4.9921875 C23.32681563 12.84241768 14.61453117 21.19357316 7.1875 31.375 C5.77842717 28.55685434 6.67877309 27.20222796 7.625 24.25 C7.91246094 23.33992188 8.19992187 22.42984375 8.49609375 21.4921875 C8.72425781 20.79351562 8.95242188 20.09484375 9.1875 19.375 C7.6096875 19.5296875 7.6096875 19.5296875 6 19.6875 C2.1875 19.375 2.1875 19.375 -0.625 17.0625 C-3.55896628 13.45791286 -5.09307596 11.45240118 -5.0625 6.8125 C-5.06765625 6.02746094 -5.0728125 5.24242187 -5.078125 4.43359375 C-4.63431767 0.99408696 -3.29964174 0.43995223 0 0 Z " fill="#7D7773" transform="translate(310.8125,291.625)"/>
<path d="M0 0 C11.87521664 0.60311958 11.87521664 0.60311958 16 4 C16.928125 4.721875 17.85625 5.44375 18.8125 6.1875 C21.82435093 10.05987977 21.40692253 12.1983142 21 17 C16.98228647 16.42294958 14.23632159 15.15478031 10.8125 13 C7.46706412 10.89110597 7.46706412 10.89110597 4 9 C5.4354503 10.77249524 6.87343803 12.54293576 8.3125 14.3125 C9.11300781 15.29863281 9.91351563 16.28476562 10.73828125 17.30078125 C12.8324058 19.91307064 12.8324058 19.91307064 14.79296875 21.66796875 C16 23 16 23 16 26 C13 28 13 28 11.1015625 27.8515625 C5.52174738 25.59059652 0.85620099 20.91789022 -1.5625 15.5 C-2.26539414 9.87684686 -2.85827842 5.11541099 0 0 Z " fill="#C9B3AB" transform="translate(364,666)"/>
<path d="M0 0 C0 4.95 0 9.9 0 15 C-6.47990359 18.47994823 -13.50312314 22 -21 22 C-23.29612756 10.47835991 -23.29612756 10.47835991 -23 5 C-18.62527111 3.70746646 -14.22936956 2.51570927 -9.8125 1.375 C-8.30623047 0.98441406 -8.30623047 0.98441406 -6.76953125 0.5859375 C-4 0 -4 0 0 0 Z " fill="#77706C" transform="translate(534,663)"/>
<path d="M0 0 C1.98 0 3.96 0 6 0 C8.93115858 7.49800833 11.5676787 14.87657398 10 23 C8.1875 25.1875 8.1875 25.1875 5 26 C1.31747123 26.20688364 -2.3169259 26.17415587 -6 26 C-6.103125 25.030625 -6.20625 24.06125 -6.3125 23.0625 C-6.72550017 20.08770171 -7.48277213 17.44842759 -8.5 14.625 C-10.10552673 10.07470228 -10.61887261 5.8022051 -11 1 C-9.02 1 -7.04 1 -5 1 C-3.02 4.96 -1.04 8.92 1 13 C1.08948558 8.52572076 0.85743651 4.39436211 0 0 Z " fill="#918B87" transform="translate(490,700)"/>
<path d="M0 0 C0.66268329 7.12384541 -1.74611936 13.30879185 -4 20 C-4.66 19.67 -5.32 19.34 -6 19 C-7.32 21.31 -8.64 23.62 -10 26 C-12.53612628 25.65018948 -13.76318669 25.23681331 -15.59375 23.40625 C-17.49275316 20.15684459 -17.51435608 17.48990873 -17.6875 13.75 C-17.78611328 11.85507812 -17.78611328 11.85507812 -17.88671875 9.921875 C-17.94279297 8.47554688 -17.94279297 8.47554688 -18 7 C-20.31 7 -22.62 7 -25 7 C-21.67084676 4.78056451 -18.8506191 3.99240919 -15 2.9375 C-3.96980957 -0.10729215 -3.96980957 -0.10729215 0 0 Z " fill="#93B7CD" transform="translate(577,469)"/>
<path d="M0 0 C6.63128869 5.06072032 6.63128869 5.06072032 7.40625 9.13671875 C7.89006069 22.3004014 1.05300638 34.66671146 -5 46 C-5.33 46 -5.66 46 -6 46 C-6.90319536 31.76965532 -6.44497668 12.88995337 0 0 Z " fill="#ABA39E" transform="translate(606,435)"/>
<path d="M0 0 C2.375 1.75 2.375 1.75 5 4 C17.74321907 12.67623426 34.21071815 14.10066486 49.1015625 11.31640625 C52.10389122 10.63286954 55.0527344 9.88894187 58 9 C58 9.66 58 10.32 58 11 C56.43880578 11.79423861 54.87598036 12.58527123 53.3125 13.375 C52.44238281 13.81585937 51.57226562 14.25671875 50.67578125 14.7109375 C49.79277344 15.13632812 48.90976562 15.56171875 48 16 C47.23171875 16.37769531 46.4634375 16.75539063 45.671875 17.14453125 C36.23498178 20.16599267 23.0254449 18.62280096 14 15 C8.98718874 12.30569357 3.72544428 9.39724571 0 5 C0 4.34 0 3.68 0 3 C-0.7425 3.33 -1.485 3.66 -2.25 4 C-5 5 -5 5 -9 5 C-9.33 3.68 -9.66 2.36 -10 1 C-6.59434954 0.22156561 -3.48317572 -0.43539696 0 0 Z " fill="#2B2825" transform="translate(471,540)"/>
<path d="M0 0 C6.48707154 1.6813917 12.7677635 3.53062327 19 6 C18.51814387 10.7221901 16.30336567 13.70054372 13.4375 17.3125 C13.01275391 17.86228516 12.58800781 18.41207031 12.15039062 18.97851562 C11.10818741 20.3251827 10.05516157 21.66346201 9 23 C8.34 22.01 7.68 21.02 7 20 C4.35952748 18.98247445 4.35952748 18.98247445 1.375 18.3125 C0.37210937 18.06113281 -0.63078125 17.80976563 -1.6640625 17.55078125 C-2.43492187 17.36902344 -3.20578125 17.18726563 -4 17 C-3.525625 15.865625 -3.05125 14.73125 -2.5625 13.5625 C-0.8651766 9.08701048 -0.31905895 4.75287814 0 0 Z " fill="#D6CAC7" transform="translate(455,479)"/>
<path d="M0 0 C13.86 0.33 27.72 0.66 42 1 C40.87418413 5.50326348 40.87418413 5.50326348 37.91015625 7.578125 C37.29076172 8.01640625 36.67136719 8.4546875 36.03320312 8.90625 C35.38287109 9.3496875 34.73253906 9.793125 34.0625 10.25 C33.41603516 10.70890625 32.76957031 11.1678125 32.10351562 11.640625 C27.28941127 15 27.28941127 15 25 15 C24.443125 13.865625 23.88625 12.73125 23.3125 11.5625 C21.65017928 8.6099775 21.65017928 8.6099775 18.6875 7.0625 C16.62545232 7.0145454 14.56129104 7.05138246 12.5 7.125 C8.62205046 6.9865018 7.12102964 6.19315597 4 4 C2.67391178 3.31903578 1.34313399 2.64669414 0 2 C0 1.34 0 0.68 0 0 Z " fill="#88817C" transform="translate(424,701)"/>
<path d="M0 0 C5.28 0.33 10.56 0.66 16 1 C14.68 1.33 13.36 1.66 12 2 C12 7.94 12 13.88 12 20 C13.32 20.33 14.64 20.66 16 21 C13.9163691 20.85848172 11.83310062 20.71162064 9.75 20.5625 C8.58984375 20.48128906 7.4296875 20.40007813 6.234375 20.31640625 C3.69022624 20.06752213 1.44046752 19.71885058 -1 19 C-1.10372765 12.56888577 -0.72027812 6.39246827 0 0 Z " fill="#504B48" transform="translate(402,669)"/>
<path d="M0 0 C4.50212359 1.50070786 6.74257503 4.05377562 9.1875 8.0625 C10.28227281 11.86200565 10.71004019 13.86373133 9.125 17.5 C7.1875 19.0625 7.1875 19.0625 4.3125 19.5625 C0.42443445 18.94040951 -1.07580545 17.87315927 -3.8125 15.0625 C-6.19839997 11.48365004 -6.83177473 9.64074201 -6.6875 5.3125 C-5.56740395 1.15214323 -4.33588949 0.0963531 0 0 Z " fill="#7E7874" transform="translate(294.8125,350.9375)"/>
<path d="M0 0 C1.79244141 0.23009766 1.79244141 0.23009766 3.62109375 0.46484375 C10.08534064 1.1830934 16.56549882 1.35180512 23.0625 1.5625 C24.93325195 1.62727539 24.93325195 1.62727539 26.84179688 1.69335938 C29.89444091 1.79862296 32.94715523 1.90075941 36 2 C36 2.33 36 2.66 36 3 C31.05 3 26.1 3 21 3 C21 5.97 21 8.94 21 12 C18.08302989 11.85895309 15.1665198 11.71235186 12.25 11.5625 C11.0125 11.50352539 11.0125 11.50352539 9.75 11.44335938 C8.95078125 11.40146484 8.1515625 11.35957031 7.328125 11.31640625 C6.5949707 11.27974854 5.86181641 11.24309082 5.10644531 11.20532227 C2.98822395 10.99885215 1.0480544 10.56867914 -1 10 C-1.125 2.25 -1.125 2.25 0 0 Z " fill="#484441" transform="translate(380,726)"/>
<path d="M0 0 C3.90727193 0.9431346 5.7675406 2.10158352 8.625 4.875 C9.80173198 7.22846396 9.79123866 8.7556033 9.8125 11.375 C9.82667969 12.1690625 9.84085937 12.963125 9.85546875 13.78125 C9.625 15.875 9.625 15.875 7.625 17.875 C4.4375 18.5 4.4375 18.5 0.625 17.875 C-2.97379683 15.18287679 -5.84251388 12.07389952 -6.91796875 7.6328125 C-7 5.5 -7 5.5 -6.375 1.875 C-3.375 -0.125 -3.375 -0.125 0 0 Z " fill="#7D7773" transform="translate(332.375,464.125)"/>
<path d="M0 0 C9.31154132 -0.46948948 16.84215664 0.05828774 25.78125 3.02734375 C29.06282263 4.11405055 29.06282263 4.11405055 32.84375 4.50390625 C33.8853125 4.66761719 34.926875 4.83132813 36 5 C36.495 5.99 36.495 5.99 37 7 C33.79466559 7.84516531 30.58531662 8.67397973 27.375 9.5 C26.47136719 9.73847656 25.56773437 9.97695313 24.63671875 10.22265625 C15.27931169 12.6132347 15.27931169 12.6132347 11 12 C9.53125 10.609375 9.53125 10.609375 8.5 8.75 C6.14861139 4.96633233 3.78432265 3.28819509 0 1 C0 0.67 0 0.34 0 0 Z " fill="#C0A298" transform="translate(381,576)"/>
<path d="M0 0 C4.29677372 0.43696004 5.74847442 1.2680301 8.6875 4.375 C10.72721759 8.06591755 11.05124812 11.19189662 10.6875 15.375 C9.6975 16.86 9.6975 16.86 8.6875 18.375 C5.9375 18.875 5.9375 18.875 2.6875 18.375 C-0.72504763 15.94684111 -2.98930763 13.85978855 -5.3125 10.375 C-5.68417184 7.61479004 -5.49100636 5.18647524 -5.3125 2.375 C-3.3125 0.375 -3.3125 0.375 0 0 Z " fill="#7D7773" transform="translate(339.3125,338.625)"/>
<path d="M0 0 C2.44168979 3.03056792 4.13027389 6.09018596 5.75 9.625 C6.19859375 10.58664062 6.6471875 11.54828125 7.109375 12.5390625 C7.55023438 13.75722656 7.55023438 13.75722656 8 15 C6.86073078 17.27853844 6.03667615 18.45493534 4 20 C1.125 20.5 1.125 20.5 -2 20 C-4.875 17.625 -4.875 17.625 -7 15 C-7 14.34 -7 13.68 -7 13 C-7.66 13 -8.32 13 -9 13 C-9.02688151 11.35425434 -9.04634123 9.70838587 -9.0625 8.0625 C-9.07410156 7.14597656 -9.08570313 6.22945313 -9.09765625 5.28515625 C-9 3 -9 3 -8 2 C-5.32941149 1.85884839 -2.67567762 1.95752893 0 2 C0 1.34 0 0.68 0 0 Z " fill="#7F7975" transform="translate(465,321)"/>
<path d="M0 0 C1.77503906 0.03480469 1.77503906 0.03480469 3.5859375 0.0703125 C5.36871094 0.09738281 5.36871094 0.09738281 7.1875 0.125 C8.10273438 0.14820313 9.01796875 0.17140625 9.9609375 0.1953125 C9.9609375 0.8553125 9.9609375 1.5153125 9.9609375 2.1953125 C10.7240625 2.3190625 11.4871875 2.4428125 12.2734375 2.5703125 C14.9609375 3.1953125 14.9609375 3.1953125 17.9609375 5.1953125 C18.1484375 7.8203125 18.1484375 7.8203125 17.9609375 10.1953125 C13.35439684 12.83667756 9.15368885 12.81626931 3.9609375 12.1953125 C0.90515648 11.31795939 -1.60749606 10.26688079 -4.0390625 8.1953125 C-5.1640625 5.0703125 -5.1640625 5.0703125 -5.0390625 2.1953125 C-3.0390625 0.1953125 -3.0390625 0.1953125 0 0 Z " fill="#C1BDBA" transform="translate(453.0390625,593.8046875)"/>
<path d="M0 0 C-0.67804688 0.53367188 -1.35609375 1.06734375 -2.0546875 1.6171875 C-12.22171635 9.75644329 -20.80518492 18.13294616 -27.9921875 29.01953125 C-29.86938238 31.80610652 -31.86386505 34.40885872 -34 37 C-33.53064306 24.79671949 -26.59424782 15.20222949 -18 7 C-13.27420899 2.85247034 -6.37161415 -2.12387138 0 0 Z " fill="#292825" transform="translate(394,255)"/>
<path d="M0 0 C11.76690043 -0.64811569 21.06894474 0.54483919 32 5 C32 5.66 32 6.32 32 7 C32.72574219 7.2371875 33.45148437 7.474375 34.19921875 7.71875 C37.43483909 9.1989222 39.33008285 10.96406474 41.8125 13.5 C42.60269531 14.2940625 43.39289062 15.088125 44.20703125 15.90625 C46 18 46 18 46 20 C41.98357803 18.54552366 38.61833274 16.56952373 35 14.3125 C26.62183255 9.29990147 17.52372696 6.54687988 8.23828125 3.69238281 C5.47735152 2.83832558 2.73708481 1.92736755 0 1 C0 0.67 0 0.34 0 0 Z " fill="#2D2C29" transform="translate(530,323)"/>
<path d="M0 0 C0 0.33 0 0.66 0 1 C-4.95 1 -9.9 1 -15 1 C-15 2.98 -15 4.96 -15 7 C-17 8.875 -17 8.875 -19 10 C-18.34 10.66 -17.68 11.32 -17 12 C-19.13671875 12.74609375 -19.13671875 12.74609375 -22 13 C-24.89453125 11.34765625 -24.89453125 11.34765625 -27.8125 9.0625 C-28.78832031 8.31097656 -29.76414062 7.55945313 -30.76953125 6.78515625 C-31.50558594 6.19605469 -32.24164063 5.60695313 -33 5 C-28.86285489 -7.41143533 -9.86942803 -1.28233868 0 0 Z " fill="#918A86" transform="translate(417,700)"/>
<path d="M0 0 C1.7325 0.61875 1.7325 0.61875 3.5 1.25 C10.54183124 3.61234788 17.78602534 5.25625398 25 7 C21.61682513 7.97591583 19.4342662 7.85856655 16 7 C15.67 9.64 15.34 12.28 15 15 C15.66 15.33 16.32 15.66 17 16 C12.76057446 15.27185439 8.81346291 14.02765979 4.75 12.625 C3.50734375 12.20476563 2.2646875 11.78453125 0.984375 11.3515625 C-0.00046875 10.90554688 -0.9853125 10.45953125 -2 10 C-3.39195915 5.82412255 -1.82323219 3.86525224 0 0 Z " fill="#625C58" transform="translate(337,630)"/>
<path d="M0 0 C1.98 0 3.96 0 6 0 C8.97649919 7.00740399 11.50837868 13.41497768 11.859375 21.07421875 C11.8832201 23.08384545 11.8832201 23.08384545 13 25 C10.36 25 7.72 25 5 25 C4.896875 24.030625 4.79375 23.06125 4.6875 22.0625 C4.27449983 19.08770171 3.51722787 16.44842759 2.5 13.625 C0.89447327 9.07470228 0.38112739 4.8022051 0 0 Z " fill="#9D9692" transform="translate(479,701)"/>
<path d="M0 0 C4.00645612 1.13225934 7.94158159 2.4499433 11.875 3.8125 C11.875 4.4725 11.875 5.1325 11.875 5.8125 C7.60859459 7.18090245 3.3362613 8.52976457 -0.9375 9.875 C-2.15244141 10.26494141 -3.36738281 10.65488281 -4.61914062 11.05664062 C-6.36420898 11.60288086 -6.36420898 11.60288086 -8.14453125 12.16015625 C-9.21807861 12.50054932 -10.29162598 12.84094238 -11.39770508 13.19165039 C-14.125 13.8125 -14.125 13.8125 -17.125 12.8125 C-15.18978939 11.01830474 -13.2519646 9.22708671 -11.3125 7.4375 C-10.76529297 6.92960937 -10.21808594 6.42171875 -9.65429688 5.8984375 C-2.96718557 -0.26181049 -2.96718557 -0.26181049 0 0 Z " fill="#8D7E79" transform="translate(555.125,450.1875)"/>
<path d="M0 0 C1.07957377 3.23872132 1.13326784 5.66028205 1.125 9.0625 C1.12757813 10.12597656 1.13015625 11.18945312 1.1328125 12.28515625 C1 15 1 15 0 17 C-2.75 17 -2.75 17 -6 16 C-7.34185565 14.04312718 -8.23436633 12.10028137 -9.140625 9.91015625 C-9.9465638 7.81694704 -9.9465638 7.81694704 -12 6 C-12 5.01 -12 4.02 -12 3 C-10.75336669 2.49166409 -9.50250613 1.99368855 -8.25 1.5 C-7.55390625 1.2215625 -6.8578125 0.943125 -6.140625 0.65625 C-4 0 -4 0 0 0 Z " fill="#282625" transform="translate(547,585)"/>
<path d="M0 0 C0.85053955 -0.00128906 1.7010791 -0.00257813 2.57739258 -0.00390625 C9.29827981 0.10858792 14.95081382 1.33001639 21 4.375 C21 5.035 21 5.695 21 6.375 C21.7425 6.601875 22.485 6.82875 23.25 7.0625 C26.51139591 8.61907532 27.92894975 10.46018854 30 13.375 C24.5915376 12.555536 19.90810908 10.41201581 15.125 7.8125 C6.71990592 3.94615672 -2.90630066 3.5012289 -12 2.375 C-7.93628009 -0.33414661 -4.77727366 -0.00735743 0 0 Z " fill="#373532" transform="translate(485,260.625)"/>
<path d="M0 0 C-0.67804688 0.53367187 -1.35609375 1.06734375 -2.0546875 1.6171875 C-11.86068437 9.46741768 -20.57296883 17.81857316 -28 28 C-29 26 -29 26 -27.9375 22.375 C-23.60345878 11.54970246 -15.365489 4.92937097 -5.234375 -0.21484375 C-3 -1 -3 -1 0 0 Z " fill="#272523" transform="translate(346,295)"/>
<path d="M0 0 C-0.50797009 4.3177458 -1.19682779 8.03302114 -3 12 C-8.0302076 11.47462276 -13.01885239 10.89405214 -18 10 C-18.33 8.02 -18.66 6.04 -19 4 C-16.39688008 3.32900016 -13.79264602 2.66304662 -11.1875 2 C-10.44951172 1.80921875 -9.71152344 1.6184375 -8.95117188 1.421875 C-5.89464659 0.64737086 -3.16626522 0 0 0 Z " fill="#C7C4C1" transform="translate(527,693)"/>
<path d="M0 0 C0.13501894 2.43934225 0.23403897 4.87124104 0.3125 7.3125 C0.35439453 8.00279297 0.39628906 8.69308594 0.43945312 9.40429688 C0.48828125 11.42578125 0.48828125 11.42578125 0 15 C-2.4115324 16.99453006 -3.8475744 18 -7 18 C-7 12.39 -7 6.78 -7 1 C-4 0 -4 0 0 0 Z " fill="#9F9590" transform="translate(534,663)"/>
<path d="M0 0 C1.8125 1.125 1.8125 1.125 3 3 C3.4375 6 3.4375 6 3 9 C1.375 10.875 1.375 10.875 -1 12 C-4.25 12.1875 -4.25 12.1875 -7 12 C-8.52491998 8.95016004 -8.23562548 6.3576631 -8 3 C-5.95177941 -0.34183359 -3.7548828 -0.56323242 0 0 Z " fill="#C1BCB9" transform="translate(511,621)"/>
<path d="M0 0 C1 1 1 1 1.1875 4.4375 C1 8 1 8 -1 10 C-3.71454956 10.32752234 -6.25230759 10.1308425 -9 10 C-10 9 -10 9 -10.25 5.625 C-10 2 -10 2 -8.9375 0 C-5.83813522 -1.59967215 -3.30041286 -0.73342508 0 0 Z " fill="#B3AEAA" transform="translate(416,605)"/>
<path d="M0 0 C0.66 0 1.32 0 2 0 C1.79503906 1.134375 1.59007812 2.26875 1.37890625 3.4375 C1.1066618 4.95831382 0.83453255 6.47914826 0.5625 8 C0.42779297 8.74378906 0.29308594 9.48757813 0.15429688 10.25390625 C-0.71983371 15.15756564 -1.42093462 20.05264526 -2 25 C-2.66 25 -3.32 25 -4 25 C-4.33 25.66 -4.66 26.32 -5 27 C-7.24993108 22.50013785 -6.58246451 16.86436574 -6 12 C-4.38504065 7.74837233 -2.3529771 3.88661396 0 0 Z " fill="#3E3B38" transform="translate(280,383)"/>
<path d="M0 0 C2.44168979 3.03056792 4.13027389 6.09018596 5.75 9.625 C6.19859375 10.58664062 6.6471875 11.54828125 7.109375 12.5390625 C7.40328125 13.35117187 7.6971875 14.16328125 8 15 C7 17 7 17 4 19 C3.32845067 17.71086513 2.66291141 16.41859796 2 15.125 C1.62875 14.40570313 1.2575 13.68640625 0.875 12.9453125 C0 11 0 11 0 9 C-0.66 9 -1.32 9 -2 9 C-2.99 6.69 -3.98 4.38 -5 2 C-3.35 2 -1.7 2 0 2 C0 1.34 0 0.68 0 0 Z " fill="#8E8783" transform="translate(465,321)"/>
<path d="M0 0 C0 0.33 0 0.66 0 1 C-3.35442664 0.8598002 -6.70846775 0.71181572 -10.0625 0.5625 C-11.00544922 0.52318359 -11.94839844 0.48386719 -12.91992188 0.44335938 C-18.01115478 0.21274604 -22.97064756 -0.1699127 -28 -1 C-28 -1.66 -28 -2.32 -28 -3 C-17.96944956 -4.8497117 -9.01684039 -5.21904973 0 0 Z " fill="#302E2B" transform="translate(468,236)"/>
<path d="M0 0 C1.93742341 -0.02703381 3.87495479 -0.04641125 5.8125 -0.0625 C6.89144531 -0.07410156 7.97039062 -0.08570313 9.08203125 -0.09765625 C12 0 12 0 15 1 C15 1.66 15 2.32 15 3 C16.6396875 3.0928125 16.6396875 3.0928125 18.3125 3.1875 C22 4 22 4 23.9375 6.5625 C24.288125 7.366875 24.63875 8.17125 25 9 C19.11931347 8.01213764 14.3183405 6.77478635 9 4 C7.5703421 3.61539815 6.13194548 3.26218067 4.6875 2.9375 C3.470625 2.628125 2.25375 2.31875 1 2 C0.67 1.34 0.34 0.68 0 0 Z " fill="#373432" transform="translate(488,317)"/>
<path d="M0 0 C5.79196155 -0.25182442 11.43592034 0.27321666 17 2 C17.33 2.66 17.66 3.32 18 4 C15.93918639 4.50690584 13.87626474 5.00524619 11.8125 5.5 C10.08966797 5.91765625 10.08966797 5.91765625 8.33203125 6.34375 C5.43181171 6.91495385 2.93903615 7.13283779 0 7 C0 4.69 0 2.38 0 0 Z " fill="#C6B0A9" transform="translate(400,579)"/>
<path d="M0 0 C4.17630054 1.39210018 4.99070521 3.11998247 7 7 C7.32116253 10.03375068 7.24298871 12.96264107 7 16 C3.47730515 16.4025937 2.20059192 16.13372795 -0.8125 14.125 C-1.534375 13.42375 -2.25625 12.7225 -3 12 C-3 11.34 -3 10.68 -3 10 C-0.525 10.495 -0.525 10.495 2 11 C1.34 7.37 0.68 3.74 0 0 Z " fill="#302C29" transform="translate(504,517)"/>
<path d="M0 0 C5.28 0.33 10.56 0.66 16 1 C16.33 2.65 16.66 4.3 17 6 C16 7 16 7 12.75 7.25 C8.76606013 6.98440401 7.20282031 6.25063049 4 4 C2.67391178 3.31903578 1.34313399 2.64669414 0 2 C0 1.34 0 0.68 0 0 Z " fill="#635E5B" transform="translate(424,701)"/>
<path d="M0 0 C2.31 0.33 4.62 0.66 7 1 C6.06336767 7.18177335 3.73736797 12.0168427 0 17 C0 11.39 0 5.78 0 0 Z " fill="#C7BDB8" transform="translate(600,464)"/>
<path d="M0 0 C5.5952381 0.5952381 5.5952381 0.5952381 8 3 C7.44444444 7.55555556 7.44444444 7.55555556 6 9 C3.16640458 9.2982732 1.56214622 9.35602594 -0.875 7.8125 C-2 6 -2 6 -1.75 3.375 C-1 1 -1 1 0 0 Z " fill="#6F6A67" transform="translate(394,700)"/>
<path d="M0 0 C4.95 0.33 9.9 0.66 15 1 C14.01 1.33 13.02 1.66 12 2 C12 3.65 12 5.3 12 7 C8.37 6.67 4.74 6.34 1 6 C0.67 4.02 0.34 2.04 0 0 Z " fill="#817773" transform="translate(397,652)"/>
<path d="M0 0 C0.66268329 7.12384541 -1.74611936 13.30879185 -4 20 C-6.27065821 16.59401269 -6.19594945 15.47145575 -6.0625 11.5 C-5.96101529 8.21719025 -5.95272201 6.14183396 -7 3 C-1.125 0 -1.125 0 0 0 Z " fill="#CEC4C1" transform="translate(577,469)"/>
<path d="M0 0 C1.32 0.33 2.64 0.66 4 1 C4 1.66 4 2.32 4 3 C3.34 3 2.68 3 2 3 C2 3.99 2 4.98 2 6 C1.34 6 0.68 6 0 6 C-0.12375 6.94875 -0.2475 7.8975 -0.375 8.875 C-1 12 -1 12 -3 14 C-3 13.01 -3 12.02 -3 11 C-4.32 10.67 -5.64 10.34 -7 10 C-7 8.02 -7 6.04 -7 4 C-5.02 4 -3.04 4 -1 4 C-0.67 2.68 -0.34 1.36 0 0 Z " fill="#292726" transform="translate(340,587)"/>
<path d="M0 0 C2.31 0 4.62 0 7 0 C7 3.3 7 6.6 7 10 C5.02 10 3.04 10 1 10 C0.67 6.7 0.34 3.4 0 0 Z " fill="#433F3C" transform="translate(465,726)"/>
<path d="M0 0 C-1.32 2.64 -2.64 5.28 -4 8 C-6.31 7.67 -8.62 7.34 -11 7 C-11.33 5.02 -11.66 3.04 -12 1 C-10.37681021 0.63762737 -8.7513642 0.28534843 -7.125 -0.0625 C-6.22007812 -0.25972656 -5.31515625 -0.45695313 -4.3828125 -0.66015625 C-2 -1 -2 -1 0 0 Z " fill="#97918D" transform="translate(520,696)"/>
<path d="M0 0 C-0.66 3.63 -1.32 7.26 -2 11 C-3.65 11.33 -5.3 11.66 -7 12 C-8 11 -8 11 -8.375 8.25 C-8 5 -8 5 -5.6875 2.125 C-3 0 -3 0 0 0 Z " fill="#2A2826" transform="translate(406,307)"/>
<path d="M0 0 C2 3 2 3 1.6875 5.5625 C1 8 1 8 0 10 C-4.875 9.125 -4.875 9.125 -6 8 C-6.30392154 5.11274535 -6.41849029 3.57791516 -4.6875 1.1875 C-3 0 -3 0 0 0 Z " fill="#56514D" transform="translate(439,677)"/>
<path d="M0 0 C4.875 0.875 4.875 0.875 6 2 C6.04092937 4.33297433 6.04241723 6.66705225 6 9 C6.66 9.33 7.32 9.66 8 10 C5.25 10.375 5.25 10.375 2 10 C-0.375 7 -0.375 7 -2 4 C-1.34 2.68 -0.68 1.36 0 0 Z " fill="#857068" transform="translate(390,578)"/>
<path d="M0 0 C0.94875 0.04125 1.8975 0.0825 2.875 0.125 C3 3 3 3 2.875 6.125 C0.875 8.125 0.875 8.125 -1.6875 8.3125 C-4.125 8.125 -4.125 8.125 -5.125 7.125 C-5.3125 4.6875 -5.3125 4.6875 -5.125 2.125 C-3.125 0.125 -3.125 0.125 0 0 Z " fill="#55504C" transform="translate(492.125,679.875)"/>
<path d="M0 0 C4.29 1.32 8.58 2.64 13 4 C12 7 12 7 10 8 C7.125 8.4375 7.125 8.4375 4 8 C0 3.15789474 0 3.15789474 0 0 Z " fill="#B1DFFC" transform="translate(438,491)"/>
<path d="M0 0 C2 1 2 1 2.8515625 2.8984375 C4.88212626 9.40034367 5.34853586 15.21000501 5 22 C4.01 22.33 3.02 22.66 2 23 C1.93941406 22.01 1.87882812 21.02 1.81640625 20 C1.39539534 13.30533362 0.94925871 6.64481097 0 0 Z " fill="#BBB8B5" transform="translate(495,701)"/>
<path d="M0 0 C-1.12451727 2.9719385 -2.22293791 5.33440687 -4 8 C-5.8125 7.8125 -5.8125 7.8125 -8 7 C-9.75 4.4375 -9.75 4.4375 -11 2 C-7.17679443 0.57741188 -4.08718695 -0.24042276 0 0 Z " fill="#AEDDFA" transform="translate(571,487)"/>
<path d="M0 0 C0.33 0 0.66 0 1 0 C1 6.6 1 13.2 1 20 C0.34 20 -0.32 20 -1 20 C-1 20.66 -1 21.32 -1 22 C-1.99 22 -2.98 22 -4 22 C-3.69106068 20.3743193 -3.3777305 18.74947252 -3.0625 17.125 C-2.80146484 15.76761719 -2.80146484 15.76761719 -2.53515625 14.3828125 C-2 12 -2 12 -1 10 C-0.77377919 8.29636178 -0.59111527 6.58671299 -0.4375 4.875 C-0.31181641 3.50988281 -0.31181641 3.50988281 -0.18359375 2.1171875 C-0.12300781 1.41851562 -0.06242188 0.71984375 0 0 Z " fill="#736E6A" transform="translate(613,443)"/>
<path d="M0 0 C3.77545388 1.09068668 6.47043472 1.9083091 9 5 C2.375 8 2.375 8 -1 8 C-0.67 5.36 -0.34 2.72 0 0 Z " fill="#100F0E" transform="translate(588,442)"/>
<path d="M0 0 C0 0.99 0 1.98 0 3 C-2.31 3 -4.62 3 -7 3 C-7 3.66 -7 4.32 -7 5 C-8.65 5 -10.3 5 -12 5 C-12 3.68 -12 2.36 -12 1 C-7.67265609 -1.22923777 -4.71599818 -0.92470553 0 0 Z " fill="#BAB5B2" transform="translate(510,596)"/>
<path d="M0 0 C1.32 0 2.64 0 4 0 C4.38063221 2.3260857 4.71269945 4.66055264 5 7 C4 8 4 8 1.4375 8.0625 C0.633125 8.041875 -0.17125 8.02125 -1 8 C-1.625 5.125 -1.625 5.125 -2 2 C-1.34 1.34 -0.68 0.68 0 0 Z " fill="#4F4B4A" transform="translate(328,592)"/>
<path d="M0 0 C2.31 0.33 4.62 0.66 7 1 C7.625 2.875 7.625 2.875 8 5 C7.34 5.66 6.68 6.32 6 7 C1.44444444 6.44444444 1.44444444 6.44444444 0 5 C-0.04063832 3.33382885 -0.042721 1.66611905 0 0 Z " fill="#4E4A49" transform="translate(333,576)"/>
<path d="M0 0 C0.33 0 0.66 0 1 0 C1 5.94 1 11.88 1 18 C0.34 18 -0.32 18 -1 18 C-1.33 18.66 -1.66 19.32 -2 20 C-1.86177801 16.85378318 -1.71314916 13.70814434 -1.5625 10.5625 C-1.52318359 9.66466797 -1.48386719 8.76683594 -1.44335938 7.84179688 C-1.40146484 6.98779297 -1.35957031 6.13378906 -1.31640625 5.25390625 C-1.27974854 4.46314697 -1.24309082 3.6723877 -1.20532227 2.85766602 C-1 1 -1 1 0 0 Z " fill="#E5E0DC" transform="translate(353,460)"/>
<path d="M0 0 C1.15242188 0.00902344 2.30484375 0.01804688 3.4921875 0.02734375 C4.36101562 0.03894531 5.22984375 0.05054688 6.125 0.0625 C6.125 0.3925 6.125 0.7225 6.125 1.0625 C3.485 1.3925 0.845 1.7225 -1.875 2.0625 C-0.885 2.7225 0.105 3.3825 1.125 4.0625 C-5.805 3.5675 -5.805 3.5675 -12.875 3.0625 C-12.875 2.4025 -12.875 1.7425 -12.875 1.0625 C-8.52167264 0.22226812 -4.43057481 -0.04520995 0 0 Z " fill="#605C59" transform="translate(452.875,231.9375)"/>
<path d="M0 0 C0 3.3 0 6.6 0 10 C-5.57142857 4.85714286 -5.57142857 4.85714286 -6 1 C-4 0 -4 0 0 0 Z " fill="#393736" transform="translate(541,587)"/>
<path d="M0 0 C4.95 0 9.9 0 15 0 C13 3 13 3 10.5 3.625 C9.675 3.74875 8.85 3.8725 8 4 C7.01 4.495 7.01 4.495 6 5 C3.98079663 3.69593116 1.98075027 2.36176581 0 1 C0 0.67 0 0.34 0 0 Z " fill="#A78D83" transform="translate(381,576)"/>
<path d="M0 0 C0 1.65 0 3.3 0 5 C-1.625 5.75 -1.625 5.75 -4 6 C-7.25 4.125 -7.25 4.125 -10 2 C-10 1.67 -10 1.34 -10 1 C-3.375 0 -3.375 0 0 0 Z " fill="#A8958F" transform="translate(386,661)"/>
<path d="M0 0 C0.66 0 1.32 0 2 0 C0.38989473 4.07376031 -2.53822271 6.76507069 -5.625 9.75 C-6.140625 10.25660156 -6.65625 10.76320313 -7.1875 11.28515625 C-8.45383339 12.52803902 -9.7263144 13.76465276 -11 15 C-11 10.90139564 -9.38373445 9.89204368 -6.625 6.9375 C-5.40683594 5.62072266 -5.40683594 5.62072266 -4.1640625 4.27734375 C-2.79336781 2.83489789 -1.40702772 1.40702772 0 0 Z " fill="#383533" transform="translate(378,260)"/>
<path d="M0 0 C1.32 1.32 2.64 2.64 4 4 C1.50494038 6.49505962 0.32671112 6.35948376 -3.125 6.625 C-4.03507812 6.69976563 -4.94515625 6.77453125 -5.8828125 6.8515625 C-6.93082031 6.92503906 -6.93082031 6.92503906 -8 7 C-7.236875 6.401875 -6.47375 5.80375 -5.6875 5.1875 C-3.6516425 3.53040668 -1.8021721 1.89702326 0 0 Z " fill="#56514E" transform="translate(511,729)"/>
<path d="M0 0 C2.375 0.1875 2.375 0.1875 5 1 C6.59660706 3.88909849 7 5.69058796 7 9 C5 9 5 9 2.4375 6.625 C0 4 0 4 -1 2 C-0.67 1.34 -0.34 0.68 0 0 Z " fill="#A6948E" transform="translate(539,650)"/>
<path d="M0 0 C0.8723412 2.99480917 1.10829766 5.63575911 1.0625 8.75 C1.05347656 9.54921875 1.04445313 10.3484375 1.03515625 11.171875 C1.01775391 12.07679688 1.01775391 12.07679688 1 13 C1.33 11.35 1.66 9.7 2 8 C2.33 8 2.66 8 3 8 C3 10.64 3 13.28 3 16 C2.34 16 1.68 16 1 16 C0.67 16.66 0.34 17.32 0 18 C-1.41880263 15.16239474 -1.1320472 12.72317025 -1.125 9.5625 C-1.12757813 8.40878906 -1.13015625 7.25507813 -1.1328125 6.06640625 C-1 3 -1 3 0 0 Z " fill="#635E5B" transform="translate(275,392)"/>
<path d="M0 0 C3.39914975 1.13304992 4.05254451 2.12518475 6 5 C5.67 5.66 5.34 6.32 5 7 C4.67 6.67 4.34 6.34 4 6 C3.67 7.98 3.34 9.96 3 12 C1.35 12.33 -0.3 12.66 -2 13 C-2.33 12.01 -2.66 11.02 -3 10 C-0.525 10.495 -0.525 10.495 2 11 C1.34 7.37 0.68 3.74 0 0 Z " fill="#685D59" transform="translate(504,517)"/>
<path d="M0 0 C0.33 0.66 0.66 1.32 1 2 C-2.08809695 3.76462683 -3.23312136 4 -7 4 C-7.33 2.68 -7.66 1.36 -8 0 C-4.71303767 -0.79953138 -3.28976808 -1.09658936 0 0 Z " fill="#403A37" transform="translate(469,541)"/>
<path d="M0 0 C1.98 0 3.96 0 6 0 C5.67 0.66 5.34 1.32 5 2 C4.34 1.67 3.68 1.34 3 1 C3 4.3 3 7.6 3 11 C0.60236815 8.60236815 0.65719414 7.66726502 0.375 4.375 C0.30023438 3.55773437 0.22546875 2.74046875 0.1484375 1.8984375 C0.09945313 1.27195312 0.05046875 0.64546875 0 0 Z " fill="#7C7571" transform="translate(479,701)"/>
<path d="M0 0 C0 0.66 0 1.32 0 2 C-4.40414508 4.99481865 -4.40414508 4.99481865 -7 6 C-10.4375 5.25 -10.4375 5.25 -13 4 C-10.71151961 1.71151961 -9.60592283 1.5103024 -6.5 0.875 C-5.7059375 0.70742188 -4.911875 0.53984375 -4.09375 0.3671875 C-2 0 -2 0 0 0 Z " fill="#544C48" transform="translate(529,549)"/>
<path d="M0 0 C0.33 0 0.66 0 1 0 C1.19294408 4.82360189 0.75747614 8.49646738 -1 13 C-1.33 13 -1.66 13 -2 13 C-2.05416188 11.39620659 -2.09286638 9.79188594 -2.125 8.1875 C-2.14820313 7.29417969 -2.17140625 6.40085937 -2.1953125 5.48046875 C-2 3 -2 3 0 0 Z " fill="#211F1D" transform="translate(277,393)"/>
<path d="M0 0 C5.61 0 11.22 0 17 0 C17 0.33 17 0.66 17 1 C15.02 1.33 13.04 1.66 11 2 C11.66 2.66 12.32 3.32 13 4 C12.01 4.33 11.02 4.66 10 5 C9.34 3.68 8.68 2.36 8 1 C5.36 1 2.72 1 0 1 C0 0.67 0 0.34 0 0 Z " fill="#564D49" transform="translate(366,661)"/>
<path d="M0 0 C2.0625 0.4375 2.0625 0.4375 4 1 C3.67 2.65 3.34 4.3 3 6 C1.68 6 0.36 6 -1 6 C-1.042721 4.33388095 -1.04063832 2.66617115 -1 1 C-0.67 0.67 -0.34 0.34 0 0 Z " fill="#655F5C" transform="translate(401,621)"/>
<path d="M0 0 C0.33 0 0.66 0 1 0 C1.22786458 2.01822917 1.45572917 4.03645833 1.68359375 6.0546875 C1.91292961 8.07404316 1.91292961 8.07404316 3 10 C2.06421005 12.35981813 1.06652192 14.69631264 0 17 C-0.33 17 -0.66 17 -1 17 C-0.67 11.39 -0.34 5.78 0 0 Z " fill="#746F6B" transform="translate(597,497)"/>
<path d="M0 0 C2.75457718 0.37994168 3.82020574 0.8073633 5.75 2.875 C7 5 7 5 7 8 C3.64379729 6.61122646 1.92701272 5.08322035 0 2 C0 1.34 0 0.68 0 0 Z " fill="#BEB7B2" transform="translate(606,407)"/>
<path d="M0 0 C0.33 0.99 0.66 1.98 1 3 C0.21882813 2.76990234 0.21882813 2.76990234 -0.578125 2.53515625 C-3.63278515 1.86017489 -6.63015971 1.65588882 -9.75 1.4375 C-10.92046875 1.35371094 -12.0909375 1.26992187 -13.296875 1.18359375 C-14.18890625 1.12300781 -15.0809375 1.06242188 -16 1 C-16 0.67 -16 0.34 -16 0 C-14.08416353 -0.1958009 -12.16727461 -0.38132214 -10.25 -0.5625 C-8.64898437 -0.71912109 -8.64898437 -0.71912109 -7.015625 -0.87890625 C-4.33550243 -0.98652775 -2.45725583 -1.0506491 0 0 Z " fill="#BEB7B3" transform="translate(462,231)"/>
<path d="M0 0 C2.31 0 4.62 0 7 0 C7 1.32 7 2.64 7 4 C4.03 3.505 4.03 3.505 1 3 C0.67 2.01 0.34 1.02 0 0 Z " fill="#76706C" transform="translate(424,701)"/>
<path d="M0 0 C2.31 0.33 4.62 0.66 7 1 C7 1.99 7 2.98 7 4 C5.35 4 3.7 4 2 4 C1.34 2.68 0.68 1.36 0 0 Z " fill="#BDB8B5" transform="translate(439,600)"/>
<path d="M0 0 C3 1 3 1 4.1875 3.0625 C4.455625 3.701875 4.72375 4.34125 5 5 C3.39431334 4.71682074 1.79047953 4.42312209 0.1875 4.125 C-0.70582031 3.96257812 -1.59914063 3.80015625 -2.51953125 3.6328125 C-5 3 -5 3 -8 1 C-5.03 1.33 -2.06 1.66 1 2 C0.67 1.34 0.34 0.68 0 0 Z " fill="#716B67" transform="translate(508,321)"/>
<path d="M0 0 C0.99 0.33 1.98 0.66 3 1 C3 1.66 3 2.32 3 3 C2.34 3 1.68 3 1 3 C1 3.99 1 4.98 1 6 C2.98 6 4.96 6 7 6 C7 6.33 7 6.66 7 7 C4.03 7 1.06 7 -2 7 C-1.34 4.69 -0.68 2.38 0 0 Z " fill="#746F6C" transform="translate(488,636)"/>
<path d="M0 0 C0.66 0 1.32 0 2 0 C2 2.31 2 4.62 2 7 C1.01 7.33 0.02 7.66 -1 8 C-1.125 2.25 -1.125 2.25 0 0 Z " fill="#BEB9B6" transform="translate(415,606)"/>
<path d="M0 0 C1.98 0.495 1.98 0.495 4 1 C3.67 2.32 3.34 3.64 3 5 C1.68 4.67 0.36 4.34 -1 4 C-0.67 2.68 -0.34 1.36 0 0 Z " fill="#BBB7B3" transform="translate(431,595)"/>
<path d="M0 0 C0.66 0.33 1.32 0.66 2 1 C1.030625 1.45375 0.06125 1.9075 -0.9375 2.375 C-4.07079582 3.65786221 -4.07079582 3.65786221 -5 6 C-6.32 5.34 -7.64 4.68 -9 4 C-7.54618103 3.30300448 -6.08677047 2.61766134 -4.625 1.9375 C-3.40683594 1.36322266 -3.40683594 1.36322266 -2.1640625 0.77734375 C-1.44992187 0.52082031 -0.73578125 0.26429688 0 0 Z " fill="#8A7B76" transform="translate(419,403)"/>
<path d="M0 0 C1.32 0.33 2.64 0.66 4 1 C4 2.32 4 3.64 4 5 C2.68 5 1.36 5 0 5 C0 3.35 0 1.7 0 0 Z " fill="#BCB8B4" transform="translate(423,606)"/>
<path d="M0 0 C0.99 0.33 1.98 0.66 3 1 C1.02 3.31 -0.96 5.62 -3 8 C-3.66 7.67 -4.32 7.34 -5 7 C-3.35 4.69 -1.7 2.38 0 0 Z " fill="#988882" transform="translate(490,359)"/>
<path d="M0 0 C0.99 0.33 1.98 0.66 3 1 C0.69 2.65 -1.62 4.3 -4 6 C-4.33 5.34 -4.66 4.68 -5 4 C-3.36587557 2.29159719 -2.13093906 1.06546953 0 0 Z " fill="#34322F" transform="translate(343,294)"/>
<path d="M0 0 C1 2 1 2 0.375 4 C-1.39265071 6.57112831 -3.07589059 7.07659703 -6 8 C-2.25 2.25 -2.25 2.25 0 0 Z " fill="#363331" transform="translate(359,352)"/>
<path d="M0 0 C0.66 0.33 1.32 0.66 2 1 C1.34 2.65 0.68 4.3 0 6 C-0.33 5.34 -0.66 4.68 -1 4 C-3.31 4 -5.62 4 -8 4 C-8 3.67 -8 3.34 -8 3 C-6.865625 2.87625 -5.73125 2.7525 -4.5625 2.625 C-3.386875 2.41875 -2.21125 2.2125 -1 2 C-0.67 1.34 -0.34 0.68 0 0 Z " fill="#8E8783" transform="translate(321,307)"/>
</svg>
