<?xml version="1.0" encoding="UTF-8"?>
<svg version="1.1" xmlns="http://www.w3.org/2000/svg" width="900" height="900">
<path d="M0 0 C3.04423017 0.55572318 6.09505015 1.04573531 9.15112305 1.53173828 C36.03904891 5.99850479 62.41666076 19.04762018 83.9128418 35.53173828 C84.76362305 36.17111328 85.6144043 36.81048828 86.4909668 37.46923828 C91.48900357 41.2772663 96.2925729 45.27334836 100.9128418 49.53173828 C101.73397461 50.28712891 102.55510742 51.04251953 103.40112305 51.82080078 C109.13654445 57.31551709 114.13706104 63.11771382 118.9753418 69.40673828 C119.53568115 70.13231934 120.09602051 70.85790039 120.67333984 71.60546875 C123.31915406 75.11612764 125.57257885 78.28618485 126.9128418 82.53173828 C127.5728418 82.53173828 128.2328418 82.53173828 128.9128418 82.53173828 C130.5848202 85.00149797 132.11090054 87.45369925 133.6003418 90.03173828 C134.04804932 90.80420898 134.49575684 91.57667969 134.95703125 92.37255859 C146.16924497 112.07582859 152.46196636 133.50384462 157.51635742 155.49536133 C158.85520337 161.30647997 160.25071044 166.99455615 162.26098633 172.61303711 C166.03651205 183.72609202 166.0765729 195.42531697 166.0378418 207.03173828 C166.04170898 208.19060547 166.04557617 209.34947266 166.04956055 210.54345703 C166.04280741 216.51997963 165.77764901 222.33447103 165.10424805 228.27001953 C164.8047779 231.80865657 165.06530537 235.24992658 165.3503418 238.78173828 C168.11774144 281.96785872 155.91630409 326.28386688 126.9128418 359.53173828 C118.19005354 369.27062647 109.264284 377.02005826 97.9128418 383.53173828 C96.24481366 384.52946566 94.57792326 385.52910102 92.9128418 386.53173828 C93.13423828 387.34102783 93.35563477 388.15031738 93.58374023 388.98413086 C101.02023478 416.25966066 101.02023478 416.25966066 103.3503418 427.21923828 C103.50148438 427.91573486 103.65262695 428.61223145 103.80834961 429.32983398 C105.87285377 439.45590967 106.09446438 449.66612029 106.1003418 459.96923828 C106.11258789 461.12617187 106.12483398 462.28310547 106.13745117 463.47509766 C106.13938477 464.585625 106.14131836 465.69615234 106.14331055 466.84033203 C106.14741943 467.83863037 106.15152832 468.83692871 106.15576172 469.86547852 C105.90283347 472.64158848 105.53555938 474.26777762 103.9128418 476.53173828 C100.2878418 477.28173828 100.2878418 477.28173828 96.9128418 477.53173828 C96.76588867 478.10021484 96.61893555 478.66869141 96.4675293 479.25439453 C94.21713406 487.00144479 90.74105899 491.773488 83.9362793 496.10595703 C79.01481112 499.74493953 77.8081227 503.91863547 76.2253418 509.65673828 C73.10087315 520.56483285 73.10087315 520.56483285 67.9128418 523.53173828 C64.6003418 524.28173828 64.6003418 524.28173828 61.9128418 524.53173828 C63.1992219 529.28267285 63.1992219 529.28267285 64.9440918 533.87548828 C66.05657715 536.92585135 66.32456647 539.60956245 66.5378418 542.84423828 C66.64999023 544.4471875 66.64999023 544.4471875 66.7644043 546.08251953 C66.81338867 546.89076172 66.86237305 547.69900391 66.9128418 548.53173828 C54.58385901 554.12621361 42.20885208 555.00956005 28.85205078 554.86791992 C26.48069084 554.84429158 24.11046228 554.84739411 21.73901367 554.85400391 C11.66121425 554.83405097 1.87701794 554.02427157 -8.0871582 552.53173828 C-8.84182732 547.41617845 -9.17759778 542.68679421 -9.0871582 537.53173828 C-11.7271582 538.19173828 -14.3671582 538.85173828 -17.0871582 539.53173828 C-16.7571582 543.82173828 -16.4271582 548.11173828 -16.0871582 552.53173828 C-18.25283364 553.01536524 -20.41975562 553.49341145 -22.5871582 553.96923828 C-24.39700195 554.36949219 -24.39700195 554.36949219 -26.2434082 554.77783203 C-48.75376965 559.19297406 -74.05928591 557.82541608 -96.0871582 551.53173828 C-95.7571582 542.62173828 -95.4271582 533.71173828 -95.0871582 524.53173828 C-96.0771582 524.86173828 -97.0671582 525.19173828 -98.0871582 525.53173828 C-102.63114896 525.90419654 -105.15664339 525.94331214 -109.3371582 524.09423828 C-113.57136981 520.14872292 -115.19719084 515.35770099 -116.91137695 509.91455078 C-118.38519861 506.92773613 -119.69577983 506.30962083 -122.6496582 504.84423828 C-132.40510189 499.34622811 -139.84472174 490.03981503 -143.05200195 479.30126953 C-143.79324492 476.38753567 -144.47461629 473.47492748 -145.0871582 470.53173828 C-145.71557617 471.22203125 -145.71557617 471.22203125 -146.35668945 471.92626953 C-150.2638932 475.55123734 -155.3601684 476.71923828 -160.5871582 476.71923828 C-161.7421582 476.65736328 -162.8971582 476.59548828 -164.0871582 476.53173828 C-176.41274999 451.78234283 -157.20458827 408.23483771 -150.0871582 383.53173828 C-150.93564331 382.76953979 -150.93564331 382.76953979 -151.80126953 381.99194336 C-153.15047201 380.77994792 -154.49967448 379.56795247 -155.84887695 378.35595703 C-158.15404587 376.47722425 -160.53714848 375.05547681 -163.0871582 373.53173828 C-164.77891483 372.23038703 -166.44420625 370.89418624 -168.0871582 369.53173828 C-169.04364258 368.73896484 -170.00012695 367.94619141 -170.9855957 367.12939453 C-172.01995843 366.26411669 -173.0537967 365.39821159 -174.0871582 364.53173828 C-174.62501953 364.08169434 -175.16288086 363.63165039 -175.71704102 363.16796875 C-179.02686087 360.39485011 -182.32070435 357.60390552 -185.60180664 354.796875 C-186.92529503 353.66960399 -188.2594226 352.55485128 -189.5949707 351.44189453 C-195.53308481 346.38311788 -200.33255803 340.70170072 -205.0871582 334.53173828 C-205.77938477 333.65517578 -206.47161133 332.77861328 -207.18481445 331.87548828 C-215.950924 320.39002683 -220.89345508 309.08935173 -223.3371582 294.90673828 C-223.58219619 293.56962377 -223.82789601 292.23263039 -224.07421875 290.89575195 C-226.32643347 278.3633075 -227.70071823 265.74789908 -228.79345703 253.06420898 C-229.01576138 250.61528388 -229.01576138 250.61528388 -229.59544373 248.62275696 C-230.44203506 245.02262239 -230.2710256 241.33033788 -230.2902832 237.64892578 C-230.29716156 236.76993118 -230.30403992 235.89093658 -230.31112671 234.98530579 C-230.32837865 232.12574158 -230.33459591 229.26635195 -230.3371582 226.40673828 C-230.33882996 225.43588287 -230.34050171 224.46502747 -230.34222412 223.4647522 C-230.34374304 208.7754214 -229.68489208 194.48544199 -227.44995117 179.94384766 C-227.13960454 177.88043938 -226.89031219 175.80800565 -226.65356445 173.73486328 C-223.0458106 142.64123214 -211.7431679 111.28170166 -195.7824707 84.43017578 C-194.42773854 82.11402079 -193.25430824 79.84492981 -192.1496582 77.40673828 C-185.22650945 63.22933365 -172.07772704 49.55882764 -160.0871582 39.53173828 C-159.28665039 38.83306641 -158.48614258 38.13439453 -157.66137695 37.41455078 C-143.45629072 25.40706162 -128.28167679 22.35623997 -110.23168945 20.71533203 C-109.12438477 20.60318359 -108.01708008 20.49103516 -106.8762207 20.37548828 C-105.88315918 20.28460938 -104.89009766 20.19373047 -103.86694336 20.10009766 C-99.49562271 19.20633036 -96.70297711 17.0594572 -93.35668945 14.19189453 C-66.87837948 -8.33870947 -32.12200754 -5.98236797 0 0 Z " fill="#1D1C1A" transform="translate(462.087158203125,194.46826171875)"/>
<path d="M0 0 C5.12712732 -0.23678765 8.17955149 0.79860849 12.66552734 3.50732422 C13.25744873 3.86310547 13.84937012 4.21888672 14.45922852 4.58544922 C24.29580228 10.6059877 35.38575355 17.43285425 43.04052734 26.13232422 C43.21648437 27.17259766 43.21648437 27.17259766 43.39599609 28.23388672 C43.60869141 28.86037109 43.82138672 29.48685547 44.04052734 30.13232422 C44.91837891 30.41849609 45.79623047 30.70466797 46.70068359 30.99951172 C51.09270768 32.4892041 53.33840426 34.9447795 56.47802734 38.25732422 C57.05294922 38.84989014 57.62787109 39.44245605 58.22021484 40.05297852 C66.55904451 48.70025979 74.0696544 57.98013401 81.59423828 67.33496094 C82.74194034 68.76125779 83.89432278 70.18378825 85.04833984 71.60498047 C86.75923718 73.74980104 88.40957429 75.92594833 90.04052734 78.13232422 C90.65492676 78.95821045 90.65492676 78.95821045 91.28173828 79.80078125 C99.45528935 90.88931416 110.8894492 106.70065273 110.04052734 121.13232422 C109.05052734 121.46232422 108.06052734 121.79232422 107.04052734 122.13232422 C106.33342056 123.78224004 105.67187753 125.45196141 105.04052734 127.13232422 C96.16462651 140.20757598 81.06153378 146.3762598 67.03222656 152.28613281 C64.47073555 153.37440541 61.94224259 154.52835568 59.41552734 155.69482422 C56.35119406 157.10186785 53.27363432 158.46464664 50.16943359 159.78076172 C39.31987107 164.39618778 29.96708229 169.32158864 21.04052734 177.13232422 C20.38052734 177.13232422 19.72052734 177.13232422 19.04052734 177.13232422 C18.77498047 177.72142578 18.50943359 178.31052734 18.23583984 178.91748047 C17.00915908 181.19044776 15.69640394 182.71025773 13.91552734 184.56982422 C-4.2271357 205.0461908 -9.49668367 230.66935891 -8.27880859 257.28027344 C-7.07190916 271.83872858 -3.29893589 286.22319544 1.04052734 300.13232422 C1.62669065 302.07587449 2.21125806 304.01990661 2.79443359 305.96435547 C3.397076 307.95791223 3.99994234 309.95140131 4.60302734 311.94482422 C4.90660156 312.95480469 5.21017578 313.96478516 5.52294922 315.00537109 C5.81878906 315.98183594 6.11462891 316.95830078 6.41943359 317.96435547 C6.68312744 318.83809814 6.94682129 319.71184082 7.21850586 320.61206055 C8.01131606 323.16961769 8.01131606 323.16961769 9.1418457 325.70532227 C10.04052734 328.13232422 10.04052734 328.13232422 10.04052734 332.13232422 C-3.85823474 336.76524491 -20.54081026 331.06259121 -33.95947266 327.13232422 C-35.95947266 326.13232422 -35.95947266 326.13232422 -36.61376953 324.43334961 C-36.80003906 323.70623779 -36.98630859 322.97912598 -37.17822266 322.22998047 C-37.38729248 321.42753906 -37.5963623 320.62509766 -37.81176758 319.79833984 C-38.02551025 318.93917969 -38.23925293 318.08001953 -38.45947266 317.19482422 C-38.79265503 315.88094727 -38.79265503 315.88094727 -39.13256836 314.54052734 C-43.89805945 295.57037683 -45.22186057 276.64022282 -45.95947266 257.13232422 C-50.29439769 265.80217428 -48.09593856 281.05225607 -48.14697266 290.44482422 C-48.16642944 292.35666504 -48.16642944 292.35666504 -48.1862793 294.30712891 C-48.19283708 301.02404575 -47.82116928 307.30862432 -46.40258789 313.88232422 C-45.85593876 316.65803682 -45.80703801 319.31228329 -45.95947266 322.13232422 C-49.83722455 321.50700383 -52.75936672 320.43733764 -55.95947266 318.13232422 C-58.80289997 313.12810716 -60.30086599 307.82473901 -61.89697266 302.31982422 C-62.35251023 300.8740722 -62.8114721 299.42939448 -63.27392578 297.98583984 C-66.1577081 288.80911822 -68.2699659 279.60520418 -69.95947266 270.13232422 C-70.11681885 269.26260986 -70.27416504 268.39289551 -70.4362793 267.49682617 C-70.92954526 264.71602808 -71.39904546 261.93168494 -71.86376953 259.14599609 C-72.45817825 255.67584463 -73.15426872 252.28463728 -74.04931641 248.87841797 C-74.95947266 245.13232422 -74.95947266 245.13232422 -74.95947266 241.13232422 C-75.61947266 241.13232422 -76.27947266 241.13232422 -76.95947266 241.13232422 C-78.34175403 259.52160324 -79.05276009 277.888702 -75.95947266 296.13232422 C-75.62124154 298.46495262 -75.28661563 300.79811492 -74.95947266 303.13232422 C-90.48213455 290.58208694 -101.5077959 274.69924601 -104.46728516 254.73779297 C-104.87967533 252.12235356 -104.87967533 252.12235356 -105.88989258 249.72875977 C-111.02403054 232.46535269 -110.42543997 212.8226755 -110.2956543 194.97021484 C-110.27192652 191.50057784 -110.27515025 188.03171046 -110.28173828 184.56201172 C-110.24809494 156.89633476 -108.25346713 129.6521973 -99.95947266 103.13232422 C-98.93502361 99.64205013 -97.96569823 96.15773588 -97.10009766 92.62451172 C-94.95265794 83.90289251 -91.99016077 76.19370045 -87.95947266 68.13232422 C-87.35280704 66.84182937 -86.74874244 65.5501093 -86.14697266 64.25732422 C-81.67469746 54.78951991 -76.39913036 46.38161342 -69.95947266 38.13232422 C-69.32041992 37.31175537 -69.32041992 37.31175537 -68.66845703 36.47460938 C-54.54500651 18.53096908 -35.45042945 3.59927586 -12.22509766 0.65966797 C-8.14971735 0.34920445 -4.0740105 0.27512007 0 0 Z " fill="#A39B96" transform="translate(360.95947265625,230.86767578125)"/>
<path d="M0 0 C3.49998343 1.28048174 6.6363994 2.90041008 9.85791016 4.76660156 C18.24174627 9.5592829 26.60751235 12.15780522 35.93847656 14.47509766 C41.02178125 15.76940191 46.00373298 17.40923452 51 19 C52.0204541 19.3105835 52.0204541 19.3105835 53.06152344 19.62744141 C69.78907613 24.71955954 83.16012336 30.94635498 95.5300293 43.52709961 C96.55646176 44.55557777 97.61007377 45.55732403 98.68286133 46.53735352 C102.81536856 50.37934628 102.81536856 50.37934628 103.69140625 53.32421875 C103.14282376 63.38156447 102.20032355 74.39902935 99 84 C98.09378906 83.97679687 97.18757812 83.95359375 96.25390625 83.9296875 C80.9970109 83.70365942 71.55923835 86.55898304 60.30834961 97.27294922 C54.18818165 103.31928779 49.30402975 109.83563678 44.66796875 117.08203125 C40.89251832 122.59832338 36.09763375 126.18847413 30.70703125 130.01953125 C28.57494536 131.57936898 26.77734985 133.06384913 25 135 C30.01844368 138.74523062 35.13658185 140.73767492 41.0625 142.6875 C41.98828857 142.9956665 42.91407715 143.30383301 43.86791992 143.62133789 C50.963697 145.88444903 57.51454169 147.09721374 65 147 C62.69 145.02 60.38 143.04 58 141 C60.16375048 138.83624952 61.53874371 138.29638582 64.375 137.25 C69.54981864 135.25679224 74.42112085 132.83068241 79.3359375 130.26953125 C81.5968206 129.19213094 83.55633977 128.48062512 86 128 C86 127.34 86 126.68 86 126 C91.625 123 91.625 123 95 123 C95.84089905 150.24836348 95.84089905 150.24836348 91 163 C90.72285156 163.76828125 90.44570313 164.5365625 90.16015625 165.328125 C83.41806971 181.1114428 66.442606 190.41801555 52 198 C51.09765625 198.4846875 50.1953125 198.969375 49.265625 199.46875 C42.25707362 202.95070546 34.78608476 204.90942129 27.2590332 206.94604492 C26.38077881 207.18427979 25.50252441 207.42251465 24.59765625 207.66796875 C23.41441772 207.98157349 23.41441772 207.98157349 22.20727539 208.30151367 C19.97971098 208.93882189 19.97971098 208.93882189 17.96459961 210.04492188 C9.32111198 214.2469007 -4.07242628 212.19707514 -13.5 212.1875 C-14.40585846 212.18756042 -15.31171692 212.18762085 -16.24502563 212.18768311 C-27.58766768 212.17691291 -38.87336078 211.99435849 -50.1875 211.125 C-51.21746094 211.04660889 -52.24742187 210.96821777 -53.30859375 210.88745117 C-58.18891868 210.4528389 -62.37343684 209.6823866 -67 208 C-69.49334614 207.50675109 -71.99428306 207.05097188 -74.5 206.625 C-77.33649464 206.09935589 -80.16827653 205.55068539 -83 205 C-83.67353516 204.87431641 -84.34707031 204.74863281 -85.04101562 204.61914062 C-86.95272014 204.24663243 -88.85195065 203.8117896 -90.75 203.375 C-91.85859375 203.13523437 -92.9671875 202.89546875 -94.109375 202.6484375 C-100.25967252 199.14110567 -101.48094607 190.86548261 -103.28149414 184.40429688 C-103.51860107 183.52837891 -103.75570801 182.65246094 -104 181.75 C-104.51837469 179.87988736 -105.0379017 178.01009374 -105.55859375 176.140625 C-105.80593262 175.24923828 -106.05327148 174.35785156 -106.30810547 173.43945312 C-107.15960806 170.4372605 -108.1025857 167.46912764 -109.0625 164.5 C-114.81770478 145.92858289 -117.24136145 128.3893696 -117 109 C-116.01 108.505 -116.01 108.505 -115 108 C-114.6596875 108.56847656 -114.319375 109.13695312 -113.96875 109.72265625 C-109.01010604 117.62219809 -104.22557044 123.39128993 -95 125.9375 C-93.33835631 126.31453057 -91.67300277 126.67708586 -90 127 C-90 127.66 -90 128.32 -90 129 C-89.236875 129.2475 -88.47375 129.495 -87.6875 129.75 C-85.71671332 130.41806328 -83.74906085 131.10163485 -81.8203125 131.8828125 C-72.80972712 135.44774815 -63.47236582 137.14255991 -54 139 C-52.48026362 139.30496916 -50.96072355 139.61091861 -49.44140625 139.91796875 C-45.96252341 140.62008077 -42.48190117 141.31298811 -39 142 C-41.86057207 144.89709001 -44.71598162 147.58019699 -48 150 C-48.66 150 -49.32 150 -50 150 C-50 150.66 -50 151.32 -50 152 C-39.46765511 149.44834943 -29.43676484 146.89102023 -19.640625 142.18359375 C-13.28642839 139.33548491 -6.74399856 138.05390985 0.05078125 136.68359375 C2.87283154 136.30356132 2.87283154 136.30356132 4 135 C5.99958364 134.95919217 8.00045254 134.95745644 10 135 C10 134.01 10 133.02 10 132 C9.32324219 131.9175 8.64648438 131.835 7.94921875 131.75 C4.17651138 130.79058303 1.10682535 129.00529609 -2.1875 127 C-2.85023926 126.59773193 -3.51297852 126.19546387 -4.19580078 125.78100586 C-14.69334564 119.23756172 -22.89158857 110.39076417 -30.73046875 100.90625 C-40.80401827 88.84670378 -55.33353201 77.7604299 -70 72 C-70.63639404 71.73727295 -71.27278809 71.4745459 -71.9284668 71.20385742 C-78.21699581 68.83156457 -83.89367857 68.64037291 -90.5625 68.8125 C-92.07553711 68.83280273 -92.07553711 68.83280273 -93.61914062 68.85351562 C-96.08000621 68.88850424 -98.53970335 68.93758842 -101 69 C-93.77929778 58.85795677 -83.44059018 49.11014754 -71 46 C-69.68 46 -68.36 46 -67 46 C-67 45.34 -67 44.68 -67 44 C-65.94425781 43.56300781 -65.94425781 43.56300781 -64.8671875 43.1171875 C-27.58324716 28.2672067 -27.58324716 28.2672067 0 0 Z " fill="#D1BAB2" transform="translate(485,359)"/>
<path d="M0 0 C1.09057709 -0.00067978 1.09057709 -0.00067978 2.20318604 -0.00137329 C14.91575977 0.02183694 26.93997609 1.33587839 39.3125 4.375 C40.87097656 4.73271484 40.87097656 4.73271484 42.4609375 5.09765625 C45.11787438 5.76388517 47.70346315 6.54025275 50.3125 7.375 C50.96637695 7.57851074 51.62025391 7.78202148 52.29394531 7.99169922 C61.4052895 10.83924547 70.13488105 13.95423408 78.7109375 18.17578125 C80.93827749 19.20249803 82.91889871 19.89287652 85.3125 20.375 C85.3125 21.035 85.3125 21.695 85.3125 22.375 C86.63314453 22.78298828 86.63314453 22.78298828 87.98046875 23.19921875 C118.16449048 33.85032138 141.72730397 63.74872533 157.3125 90.375 C158.10140625 91.6434375 158.10140625 91.6434375 158.90625 92.9375 C160.27788781 95.31500554 161.28427648 97.62190832 162.25 100.1875 C163.45405455 103.30064485 164.72661552 106.25205892 166.3125 109.1875 C172.48071679 121.33879213 174.76401784 135.85348927 178 149 C178.74635738 152.02056923 179.49375375 155.04087632 180.24238586 158.06088257 C180.70466447 159.92690218 181.16548909 161.79328276 181.62467957 163.6600647 C181.83192154 164.4987912 182.03916351 165.3375177 182.25268555 166.20166016 C182.52437813 167.30533432 182.52437813 167.30533432 182.80155945 168.43130493 C183.23964076 170.09783243 183.76759366 171.74028099 184.3125 173.375 C184.39628628 175.6588517 184.41979915 177.945101 184.41015625 180.23046875 C184.40803383 181.22292351 184.40803383 181.22292351 184.40586853 182.23542786 C184.40027996 184.34449828 184.38772965 186.45346177 184.375 188.5625 C184.36998352 189.99413909 184.36542087 191.42577985 184.36132812 192.85742188 C184.3503143 196.36331588 184.33305755 199.8691475 184.3125 203.375 C179.54206103 202.54643011 177.79050864 199.53368323 175.0625 195.8125 C156.92697773 172.05520492 132.82106198 160.72544774 104.16015625 154.17578125 C87.16597377 150.28421881 73.8146697 144.71108888 61.73828125 131.67578125 C60.22830458 130.12150034 60.22830458 130.12150034 57.3125 129.375 C56.14453125 127.1953125 56.14453125 127.1953125 55.125 124.5 C54.60873047 123.17355469 54.60873047 123.17355469 54.08203125 121.8203125 C53.3125 119.375 53.3125 119.375 53.3125 116.375 C52.6525 116.375 51.9925 116.375 51.3125 116.375 C51.0868335 115.81232422 50.86116699 115.24964844 50.62866211 114.66992188 C48.3072542 109.13894549 45.57127011 104.5794546 41.875 99.875 C41.35421875 99.19775879 40.8334375 98.52051758 40.296875 97.82275391 C39.19757504 96.39386074 38.09481698 94.96762193 36.98876953 93.54394531 C35.32719385 91.39401255 33.68967325 89.22782204 32.05859375 87.0546875 C10.33809689 58.18666601 -13.69882808 33.32837964 -44.6875 14.375 C-41.45288061 10.90080222 -37.71823097 9.01618779 -33.5625 6.8125 C-32.840625 6.41353516 -32.11875 6.01457031 -31.375 5.60351562 C-21.21560257 0.18938835 -11.32237734 -0.02735183 0 0 Z " fill="#CCC2BC" transform="translate(425.6875,207.625)"/>
<path d="M0 0 C10.95497335 7.58919129 20.91781853 17.94303482 28.55078125 28.81640625 C30.91557446 31.24132132 33.16026412 31.85303937 36.39453125 32.70703125 C36.72453125 30.72703125 37.05453125 28.74703125 37.39453125 26.70703125 C38.38453125 26.70703125 39.37453125 26.70703125 40.39453125 26.70703125 C43.83872259 36.11705403 43.83872259 36.11705403 43.39453125 40.70703125 C42.40453125 41.03703125 41.41453125 41.36703125 40.39453125 41.70703125 C39.68742447 43.35694707 39.02588144 45.02666844 38.39453125 46.70703125 C29.51863042 59.78228301 14.41553769 65.95096683 0.38623047 71.86083984 C-2.17526054 72.94911244 -4.70375351 74.10306271 -7.23046875 75.26953125 C-10.29480203 76.67657488 -13.37236177 78.03935367 -16.4765625 79.35546875 C-27.32612502 83.97089481 -36.6789138 88.89629567 -45.60546875 96.70703125 C-46.26546875 96.70703125 -46.92546875 96.70703125 -47.60546875 96.70703125 C-47.87101562 97.29613281 -48.1365625 97.88523437 -48.41015625 98.4921875 C-49.63683701 100.76515479 -50.94959215 102.28496476 -52.73046875 104.14453125 C-70.87313179 124.62089784 -76.14267977 150.24406594 -74.92480469 176.85498047 C-73.71790525 191.41343561 -69.94493198 205.79790247 -65.60546875 219.70703125 C-65.01930545 221.65058152 -64.43473804 223.59461364 -63.8515625 225.5390625 C-63.2489201 227.53261926 -62.64605376 229.52610834 -62.04296875 231.51953125 C-61.73939453 232.52951172 -61.43582031 233.53949219 -61.12304688 234.58007812 C-60.67928711 236.04477539 -60.67928711 236.04477539 -60.2265625 237.5390625 C-59.96286865 238.41280518 -59.6991748 239.28654785 -59.42749023 240.18676758 C-58.63468003 242.74432472 -58.63468003 242.74432472 -57.50415039 245.2800293 C-56.60546875 247.70703125 -56.60546875 247.70703125 -56.60546875 251.70703125 C-60.23546875 251.70703125 -63.86546875 251.70703125 -67.60546875 251.70703125 C-75.1823859 237.22174846 -78.11686127 220.5759409 -81.60546875 204.70703125 C-81.83532471 203.76851318 -81.83532471 203.76851318 -82.06982422 202.81103516 C-91.36854348 163.76350574 -87.46177434 121.33307687 -79.00195312 82.60351562 C-78.48917469 80.15076756 -78.11028739 77.68344877 -77.73046875 75.20703125 C-74.79588891 58.71625074 -68.64931498 41.8382565 -61.60546875 26.70703125 C-61.0021875 26.71863281 -60.39890625 26.73023438 -59.77734375 26.7421875 C-58.978125 26.75121094 -58.17890625 26.76023437 -57.35546875 26.76953125 C-56.5665625 26.78113281 -55.77765625 26.79273438 -54.96484375 26.8046875 C-52.60610222 26.70705747 -50.79469488 26.60049747 -48.60546875 25.70703125 C-47.56086814 23.87930299 -47.56086814 23.87930299 -46.60546875 21.70703125 C-41.84073489 16.19507843 -37.01114473 12.09827148 -30.60546875 8.70703125 C-30.00734375 8.06765625 -29.40921875 7.42828125 -28.79296875 6.76953125 C-21.73751446 0.11724577 -9.18832775 -4.55972487 0 0 Z " fill="#CDC3BD" transform="translate(427.60546875,311.29296875)"/>
<path d="M0 0 C3.49998343 1.28048174 6.6363994 2.90041008 9.85791016 4.76660156 C18.24174627 9.5592829 26.60751235 12.15780522 35.93847656 14.47509766 C41.02178125 15.76940191 46.00373298 17.40923452 51 19 C52.0204541 19.3105835 52.0204541 19.3105835 53.06152344 19.62744141 C69.78907613 24.71955954 83.16012336 30.94635498 95.5300293 43.52709961 C96.55646176 44.55557777 97.61007377 45.55732403 98.68286133 46.53735352 C102.81536856 50.37934628 102.81536856 50.37934628 103.69140625 53.32421875 C103.14282376 63.38156447 102.20032355 74.39902935 99 84 C98.09378906 83.97679687 97.18757812 83.95359375 96.25390625 83.9296875 C84.65842691 83.75790262 76.89006018 84.87424168 67 91 C67 90.01 67 89.02 67 88 C66.154375 87.74992187 65.30875 87.49984375 64.4375 87.2421875 C45.65543547 80.45503236 26.539302 63.35778873 17 46 C17 45.34 17 44.68 17 44 C16.34 44 15.68 44 15 44 C16.89499393 52.36026735 18.81335007 59.7200251 23.6328125 66.94921875 C24.93869454 68.90804181 25.99273009 70.87514014 27 73 C26.09121094 72.54109375 25.18242187 72.0821875 24.24609375 71.609375 C15.32945948 67.21688537 6.70909398 64.17577287 -3 62 C-3.77601563 61.80792969 -4.55203125 61.61585938 -5.3515625 61.41796875 C-20.96525566 58.95386083 -38.02747955 61.04498977 -52.203125 68.1328125 C-54 69 -54 69 -57.4375 70 C-60.14392489 70.76845544 -60.14392489 70.76845544 -61.375 73.125 C-61.58125 73.74375 -61.7875 74.3625 -62 75 C-65.182865 74.0148275 -68.08943312 72.95437086 -71.0625 71.4375 C-75.47066232 69.28031418 -79.43305904 68.87387754 -84.30078125 68.90234375 C-85.27724609 68.90556641 -86.25371094 68.90878906 -87.25976562 68.91210938 C-88.77086914 68.92467773 -88.77086914 68.92467773 -90.3125 68.9375 C-91.33923828 68.94201172 -92.36597656 68.94652344 -93.42382812 68.95117188 C-95.94927882 68.96291816 -98.47460905 68.97934435 -101 69 C-93.77929778 58.85795677 -83.44059018 49.11014754 -71 46 C-69.68 46 -68.36 46 -67 46 C-67 45.34 -67 44.68 -67 44 C-65.94425781 43.56300781 -65.94425781 43.56300781 -64.8671875 43.1171875 C-27.58324716 28.2672067 -27.58324716 28.2672067 0 0 Z " fill="#B29E97" transform="translate(485,359)"/>
<path d="M0 0 C1.09057709 -0.00067978 1.09057709 -0.00067978 2.20318604 -0.00137329 C14.91575977 0.02183694 26.93997609 1.33587839 39.3125 4.375 C40.87097656 4.73271484 40.87097656 4.73271484 42.4609375 5.09765625 C45.11787438 5.76388517 47.70346315 6.54025275 50.3125 7.375 C50.96637695 7.57851074 51.62025391 7.78202148 52.29394531 7.99169922 C61.4052895 10.83924547 70.13488105 13.95423408 78.7109375 18.17578125 C80.93827749 19.20249803 82.91889871 19.89287652 85.3125 20.375 C85.3125 21.035 85.3125 21.695 85.3125 22.375 C86.63314453 22.78298828 86.63314453 22.78298828 87.98046875 23.19921875 C118.16449048 33.85032138 141.72730397 63.74872533 157.3125 90.375 C158.10140625 91.6434375 158.10140625 91.6434375 158.90625 92.9375 C160.27788781 95.31500554 161.28427648 97.62190832 162.25 100.1875 C163.45405455 103.30064485 164.72661552 106.25205892 166.3125 109.1875 C179.50697183 135.08575414 185.8667532 170.63875843 183.3125 199.375 C180.15237794 196.41374721 178.34591367 192.99793309 176.375 189.1875 C176.04048828 188.55263672 175.70597656 187.91777344 175.36132812 187.26367188 C174.67590512 185.95753825 173.99611442 184.64843588 173.3215332 183.33666992 C172.68034242 182.09012554 172.03130269 180.84756346 171.37182617 179.6105957 C167.89571071 172.94513761 165.25285673 165.92226885 162.5 158.9375 C161.43519563 156.2493634 160.36810487 153.56213717 159.30078125 150.875 C159.04135742 150.22096695 158.78193359 149.5669339 158.51464844 148.89308167 C156.20130012 143.07059294 153.82161439 137.2767196 151.36791992 131.51196289 C149.69175009 127.5169552 148.43248018 123.5509261 147.3125 119.375 C146.6525 119.375 145.9925 119.375 145.3125 119.375 C143.3325 114.92 143.3325 114.92 141.3125 110.375 C140.24708984 110.85453125 140.24708984 110.85453125 139.16015625 111.34375 C133.17338904 113.51179739 127.04821915 113.36170691 121.07421875 111.20703125 C118.04027036 109.73728539 115.17621113 108.15203503 112.3125 106.375 C111.69375 105.99214844 111.075 105.60929687 110.4375 105.21484375 C103.83815503 100.42000717 99.26636389 91.19130692 97.3125 83.375 C97.03742842 79.05435301 97.33495707 74.76091742 97.60546875 70.4453125 C97.90337366 65.34227418 97.90337366 65.34227418 95.35546875 61.15234375 C94.35128906 60.56582031 93.34710937 59.97929687 92.3125 59.375 C90.94587964 58.41071212 89.58578753 57.43714008 88.23046875 56.45703125 C70.16038103 43.89162411 51.43644297 34.20129078 31.3125 25.375 C30.6525 25.045 29.9925 24.715 29.3125 24.375 C26.54680006 24.43918291 23.82021909 24.56460712 21.0625 24.75 C20.31097656 24.79382813 19.55945313 24.83765625 18.78515625 24.8828125 C14.56937858 25.14767811 10.47101262 25.59362342 6.3125 26.375 C6.3125 27.035 6.3125 27.695 6.3125 28.375 C7.9625 28.375 9.6125 28.375 11.3125 28.375 C11.3125 29.035 11.3125 29.695 11.3125 30.375 C8.84880468 31.60684766 7.1230499 31.54232342 4.375 31.5625 C3.49972656 31.57667969 2.62445313 31.59085938 1.72265625 31.60546875 C-0.6875 31.375 -0.6875 31.375 -3.6875 29.375 C-4.19921875 27.2109375 -4.19921875 27.2109375 -4.375 24.75 C-4.44074219 23.93273437 -4.50648438 23.11546875 -4.57421875 22.2734375 C-4.63029297 21.33371094 -4.63029297 21.33371094 -4.6875 20.375 C-5.27917969 20.18164062 -5.87085938 19.98828125 -6.48046875 19.7890625 C-7.27066406 19.52867187 -8.06085938 19.26828125 -8.875 19 C-10.04095703 18.61714844 -10.04095703 18.61714844 -11.23046875 18.2265625 C-13.6875 17.375 -13.6875 17.375 -15.98242188 16.34765625 C-18.93177117 15.2871682 -21.2997661 15.06123745 -24.42578125 14.9609375 C-25.49248047 14.92226562 -26.55917969 14.88359375 -27.65820312 14.84375 C-28.76099609 14.8128125 -29.86378906 14.781875 -31 14.75 C-32.12212891 14.71132812 -33.24425781 14.67265625 -34.40039062 14.6328125 C-37.16259852 14.53877989 -39.924804 14.45312659 -42.6875 14.375 C-41.17393922 9.83431765 -37.78586887 8.93796541 -33.6875 6.8125 C-32.59115234 6.21405273 -32.59115234 6.21405273 -31.47265625 5.60351562 C-21.25929417 0.22758954 -11.35762336 -0.02743697 0 0 Z " fill="#E4DFDC" transform="translate(425.6875,207.625)"/>
<path d="M0 0 C4.20348156 -0.55152063 6.28447943 0.10116965 9.80078125 2.55078125 C20.23649938 11.69406525 20.23649938 11.69406525 21.18261719 18.67919922 C21.33108298 21.17803214 21.35687096 23.6454187 21.328125 26.1484375 C21.32111572 27.47379517 21.32111572 27.47379517 21.31396484 28.82592773 C21.12681657 37.14641839 19.55762084 44.52294374 14.890625 51.5234375 C12.32226562 52.19946289 12.32226562 52.19946289 9.046875 52.62109375 C7.83427002 52.7819043 6.62166504 52.94271484 5.37231445 53.10839844 C4.04522304 53.2687279 2.7179885 53.42787646 1.390625 53.5859375 C0.01845245 53.75666836 -1.35369901 53.92756886 -2.72583008 54.09863281 C-6.85043387 54.60378976 -10.97865637 55.07126937 -15.109375 55.5234375 C-16.23134277 55.64638184 -17.35331055 55.76932617 -18.50927734 55.89599609 C-49.35781821 59.10209736 -83.61256314 60.11532587 -114.109375 53.5234375 C-114.1777274 43.71676637 -113.97862879 33.94863274 -113.609375 24.1484375 C-113.56096725 22.81511252 -113.51278926 21.48177918 -113.46484375 20.1484375 C-113.34859656 16.94001514 -113.2300779 13.73169478 -113.109375 10.5234375 C-105.16445228 7.55273872 -97.50921586 4.86480744 -89.109375 3.5234375 C-88.18511719 3.33910156 -87.26085937 3.15476562 -86.30859375 2.96484375 C-69.51037988 -0.13012577 -54.16211954 0.87497178 -38.109375 6.5234375 C-37.08263672 6.86036621 -37.08263672 6.86036621 -36.03515625 7.20410156 C-25.53115538 10.69358347 -25.53115538 10.69358347 -22.39453125 14.73046875 C-21.32840452 17.01827808 -20.63649969 19.0592367 -20.109375 21.5234375 C-19.92375 22.30074219 -19.738125 23.07804688 -19.546875 23.87890625 C-18.11745573 32.51923522 -18.86873664 41.12104364 -21.109375 49.5234375 C-21.109375 50.1834375 -21.109375 50.8434375 -21.109375 51.5234375 C-16.60769975 44.56995699 -14.52528379 38.92909144 -14.546875 30.7109375 C-14.54494141 30.00654541 -14.54300781 29.30215332 -14.54101562 28.57641602 C-14.69406114 23.655191 -15.95175523 20.00301663 -18.109375 15.5234375 C-18.78214216 13.859224 -19.45144335 12.19357168 -20.109375 10.5234375 C-13.58700834 5.64502801 -7.89638488 1.95947329 0 0 Z " fill="#A39C98" transform="translate(510.109375,588.4765625)"/>
<path d="M0 0 C0 0.66 0 1.32 0 2 C0.721875 2.268125 1.44375 2.53625 2.1875 2.8125 C10.71719839 6.41392821 18.02435778 12.46773658 25.27734375 18.11328125 C47.1945125 36.51620188 47.1945125 36.51620188 74 43 C74.66 42.67 75.32 42.34 76 42 C76 42.99 76 43.98 76 45 C75.30777344 45.17015625 74.61554688 45.3403125 73.90234375 45.515625 C71.80868832 46.03421159 69.71635881 46.55816535 67.625 47.0859375 C65.16913768 47.70519589 62.71068876 48.31426962 60.25 48.9140625 C53.4506587 50.6278309 47.33042473 52.64059222 41.03125 55.6953125 C37.14044822 57.36996172 33.18280068 58.60947029 29.125 59.8125 C28.39877441 60.03156006 27.67254883 60.25062012 26.92431641 60.47631836 C23.19962386 61.54860453 19.88149659 62.26637722 16 62 C16 61.34 16 60.68 16 60 C18.1875 58.2734375 18.1875 58.2734375 21 56.375 C21.928125 55.74335938 22.85625 55.11171875 23.8125 54.4609375 C24.534375 53.97882813 25.25625 53.49671875 26 53 C24.06261183 52.58281364 22.12507827 52.16630253 20.1875 51.75 C18.91390625 51.47414063 17.6403125 51.19828125 16.328125 50.9140625 C13.32367139 50.27064806 10.31382467 49.66783074 7.296875 49.0859375 C-3.74376008 46.92324703 -13.92664137 44.19147088 -24 39 C-24 38.34 -24 37.68 -24 37 C-24.87011719 36.96132813 -24.87011719 36.96132813 -25.7578125 36.921875 C-34.88568491 36.25912519 -40.06994422 31.6353294 -46 25 C-49.36133497 20.48873464 -51.35427573 17.5925037 -50.58203125 11.94140625 C-50.32808594 10.82636719 -50.07414062 9.71132813 -49.8125 8.5625 C-49.57144531 7.45003906 -49.33039063 6.33757812 -49.08203125 5.19140625 C-47.63128718 0.91249684 -45.7162056 -1.87836001 -41.9140625 -4.36328125 C-28.13595124 -10.07673012 -12.82594732 -6.96637748 0 0 Z " fill="#8B7C77" transform="translate(419,449)"/>
<path d="M0 0 C0.515625 0.66 1.03125 1.32 1.5625 2 C8.8341237 10.94969071 14.22857849 17.0119377 26 19 C22.98968256 19.93423645 22.13349732 20.04449911 19 19 C19.35554315 28.08474044 20.03705153 36.34572134 23 45 C23.350625 46.03769531 23.70125 47.07539062 24.0625 48.14453125 C30.97284564 67.30710156 43.53481099 83.76740549 62 93 C66.59276377 94.93616512 71.24657095 96.50706377 76 98 C77.1446875 98.39574219 78.289375 98.79148437 79.46875 99.19921875 C97.05379296 104.55363888 116.88403756 102.72532976 135 101 C126.67644316 106.54903789 112.22714763 104.1973794 102.5 104.1875 C101.59414154 104.18756042 100.68828308 104.18762085 99.75497437 104.18768311 C88.41233232 104.17691291 77.12663922 103.99435849 65.8125 103.125 C64.78253906 103.04660889 63.75257813 102.96821777 62.69140625 102.88745117 C57.81108132 102.4528389 53.62656316 101.6823866 49 100 C46.50665386 99.50675109 44.00571694 99.05097188 41.5 98.625 C38.66350536 98.09935589 35.83172347 97.55068539 33 97 C31.98969727 96.81147461 31.98969727 96.81147461 30.95898438 96.61914062 C29.04727986 96.24663243 27.14804935 95.8117896 25.25 95.375 C24.14140625 95.13523437 23.0328125 94.89546875 21.890625 94.6484375 C15.74032748 91.14110567 14.51905393 82.86548261 12.71850586 76.40429688 C12.48139893 75.52837891 12.24429199 74.65246094 12 73.75 C11.48162531 71.87988736 10.9620983 70.01009374 10.44140625 68.140625 C10.19406738 67.24923828 9.94672852 66.35785156 9.69189453 65.43945312 C8.84039194 62.4372605 7.8974143 59.46912764 6.9375 56.5 C2.86282246 43.35146071 -0.77703979 29.82353299 -1 16 C-1.01369629 15.34676758 -1.02739258 14.69353516 -1.04150391 14.02050781 C-1.12504775 9.67824102 -1.19726273 5.33977999 -1 1 C-0.67 0.67 -0.34 0.34 0 0 Z " fill="#B19D96" transform="translate(369,467)"/>
<path d="M0 0 C4.20348156 -0.55152063 6.28447943 0.10116965 9.80078125 2.55078125 C20.23649938 11.69406525 20.23649938 11.69406525 21.18261719 18.67919922 C21.33108298 21.17803214 21.35687096 23.6454187 21.328125 26.1484375 C21.32345215 27.03200928 21.3187793 27.91558105 21.31396484 28.82592773 C21.12681657 37.14641839 19.55762084 44.52294374 14.890625 51.5234375 C12.97387695 52.1394043 12.97387695 52.1394043 10.62890625 52.47265625 C9.76354248 52.59858154 8.89817871 52.72450684 8.0065918 52.85424805 C7.08144775 52.97195557 6.15630371 53.08966309 5.203125 53.2109375 C4.2644458 53.33831299 3.3257666 53.46568848 2.35864258 53.59692383 C-5.5080448 54.59592143 -13.18913738 54.85192662 -21.109375 54.5234375 C-20.45319679 51.22746189 -19.16153186 48.76624069 -17.546875 45.8359375 C-15.16751251 40.71168727 -14.61964348 36.33230709 -14.609375 30.7734375 C-14.60349365 30.06485596 -14.5976123 29.35627441 -14.59155273 28.6262207 C-14.70811996 23.66834418 -15.92740217 20.03712639 -18.109375 15.5234375 C-18.78214216 13.859224 -19.45144335 12.19357168 -20.109375 10.5234375 C-13.58700834 5.64502801 -7.89638488 1.95947329 0 0 Z " fill="#A49D99" transform="translate(510.109375,588.4765625)"/>
<path d="M0 0 C0.99 0.495 0.99 0.495 2 1 C1.67 14.86 1.34 28.72 1 43 C0.67 43 0.34 43 0 43 C0 38.05 0 33.1 0 28 C-2.97 28.99 -5.94 29.98 -9 31 C-9 31.66 -9 32.32 -9 33 C-17.9234184 37.51209236 -26.84674946 41.96636417 -36 46 C-35.4946875 46.42152344 -34.989375 46.84304688 -34.46875 47.27734375 C-33.49421875 48.09912109 -33.49421875 48.09912109 -32.5 48.9375 C-31.52546875 49.75541016 -31.52546875 49.75541016 -30.53125 50.58984375 C-30.0259375 51.05519531 -29.520625 51.52054687 -29 52 C-29 52.33 -29 52.66 -29 53 C-37.93672117 53.1051379 -45.57472566 51.49984614 -54 48.6875 C-54.89549561 48.39157959 -55.79099121 48.09565918 -56.71362305 47.79077148 C-61.63761594 46.0778973 -65.95491983 44.33319929 -70 41 C-70 40.01 -70 39.02 -70 38 C-69.01 38 -68.02 38 -67 38 C-56.44764137 37.45418835 -49.60661495 32.1366224 -42.3125 24.875 C-15.99927383 -0.50791345 -15.99927383 -0.50791345 0 0 Z " fill="#8D7D78" transform="translate(580,454)"/>
<path d="M0 0 C4.4191438 0.91694979 8.78295773 1.88305475 13.0859375 3.25390625 C26.93338213 7.55306039 40.57309629 7.91748659 55 8 C54.67 10.31 54.34 12.62 54 15 C51.69 14.67 49.38 14.34 47 14 C47.433125 14.721875 47.86625 15.44375 48.3125 16.1875 C48.869375 17.115625 49.42625 18.04375 50 19 C50.556875 19.804375 51.11375 20.60875 51.6875 21.4375 C53.25031615 24.48871248 53.23598848 26.61749848 53 30 C48.57676318 29.41734728 45.4844136 27.73233789 41.6875 25.4375 C40.08455078 24.47650391 40.08455078 24.47650391 38.44921875 23.49609375 C37.64097656 23.00238281 36.83273437 22.50867188 36 22 C38.90511709 26.05892246 41.7418194 29.87455402 45.4375 33.25 C46.7059375 34.61125 46.7059375 34.61125 48 36 C47.66015625 38.171875 47.66015625 38.171875 47 40 C44.92578125 40.87109375 44.92578125 40.87109375 42 41 C39.41702147 39.34939864 37.34356395 37.22817851 35.1875 35.0625 C34.59001953 34.48564453 33.99253906 33.90878906 33.37695312 33.31445312 C31.90498798 31.88959087 30.45072766 30.44647955 29 29 C29 32.1941391 29.52264974 33.3181167 31 36.0625 C33 39.79166667 33 39.79166667 33 42 C22.36049563 40.99131972 11.97094951 35.75913543 4.6875 27.9375 C-0.6377323 21.25047165 -2.33776551 16.2534421 -2.30078125 7.6484375 C-1.97784314 4.80490457 -1.1766439 2.59705466 0 0 Z " fill="#AF9C95" transform="translate(333,653)"/>
<path d="M0 0 C3.67040869 1.89848725 6.22844416 4.30423812 7.95263672 8.09375 C10.09283096 14.99296582 10.39039231 21.37178115 10.25 28.5625 C10.24484375 29.65369141 10.2396875 30.74488281 10.234375 31.86914062 C10.15486351 39.84513649 10.15486351 39.84513649 9 41 C-4.59035256 42.73167396 -18.58815229 38.31567698 -31 33 C-29.49422713 21.34354647 -23.6844203 9.81721552 -14.8125 2.0625 C-9.88155838 -1.55352385 -5.74852887 -1.5087501 0 0 Z " fill="#9F9894" transform="translate(375,587)"/>
<path d="M0 0 C1.8871875 0.0309375 1.8871875 0.0309375 3.8125 0.0625 C3.8125 0.3925 3.8125 0.7225 3.8125 1.0625 C3.20921875 1.16046875 2.6059375 1.2584375 1.984375 1.359375 C-4.53872046 2.55291683 -4.53872046 2.55291683 -9.1875 7.0625 C-10.32732326 9.36692529 -11.26219508 11.65670722 -12.1875 14.0625 C-13.30125 14.000625 -14.415 13.93875 -15.5625 13.875 C-17.356875 13.9678125 -17.356875 13.9678125 -19.1875 14.0625 C-21.48154844 17.50357266 -21.45043056 19.03089809 -21.1875 23.0625 C-19.21927114 25.03072886 -15.83941291 24.72498381 -13.1875 25.0625 C-12.98125 26.17625 -12.775 27.29 -12.5625 28.4375 C-10.25952667 37.47347176 -4.80917858 44.78056466 2.8125 50.0625 C7.48705834 52.80542266 11.00044377 53.46625888 16.3984375 53.57421875 C17.10022125 53.59216995 17.802005 53.61012115 18.52505493 53.62861633 C20.74581053 53.68239047 22.9663554 53.71650693 25.1875 53.75 C26.70185204 53.78320237 28.21617638 53.81769471 29.73046875 53.85351562 C33.42427674 53.93809581 37.11815879 54.0050635 40.8125 54.0625 C40.8125 54.3925 40.8125 54.7225 40.8125 55.0625 C22.94608075 55.37879158 5.23837106 55.33732387 -12.5625 53.625 C-13.26841278 53.55751556 -13.97432556 53.49003113 -14.70162964 53.42050171 C-26.66648322 52.25586823 -26.66648322 52.25586823 -32.1875 51.0625 C-32.2558524 41.25582887 -32.05675379 31.48769524 -31.6875 21.6875 C-31.63909225 20.35417502 -31.59091426 19.02084168 -31.54296875 17.6875 C-31.42672156 14.47907764 -31.3082029 11.27075728 -31.1875 8.0625 C-23.91597181 5.34524156 -16.86122692 2.71354654 -9.17578125 1.421875 C-1.20024302 -0.01967612 -1.20024302 -0.01967612 0 0 Z " fill="#8A827D" transform="translate(428.1875,590.9375)"/>
<path d="M0 0 C3.77260824 1.03182448 6.20823768 2.60070796 9.38671875 4.875 C9.94335205 5.27146729 10.49998535 5.66793457 11.07348633 6.07641602 C17.37430237 10.62019632 23.70278026 15.37856151 29.19921875 20.875 C29.28171875 21.535 29.36421875 22.195 29.44921875 22.875 C29.69671875 23.535 29.94421875 24.195 30.19921875 24.875 C31.07191406 25.11992187 31.94460938 25.36484375 32.84375 25.6171875 C37.1761343 27.24120117 39.49900627 29.68947111 42.63671875 33 C43.21164062 33.59256592 43.7865625 34.18513184 44.37890625 34.7956543 C55.84489344 46.68576601 66.24293184 59.70316588 76.19921875 72.875 C77.28589844 74.30005859 77.28589844 74.30005859 78.39453125 75.75390625 C79.13445312 76.74261719 79.874375 77.73132813 80.63671875 78.75 C81.31605469 79.65492188 81.99539063 80.55984375 82.6953125 81.4921875 C84.19921875 83.875 84.19921875 83.875 84.19921875 86.875 C79.67770114 86.71211303 77.68697316 86.32579332 74.3125 83.20703125 C73.36089447 82.04841627 72.42816928 80.87411712 71.51171875 79.6875 C70.46124976 78.39818302 69.41045986 77.10912745 68.359375 75.8203125 C67.83230957 75.16063477 67.30524414 74.50095703 66.76220703 73.82128906 C64.37961323 70.85439782 61.92288538 67.9536031 59.44921875 65.0625 C58.9598584 64.49015625 58.47049805 63.9178125 57.96630859 63.328125 C48.2395339 52.04494209 37.80308558 41.39291226 27.32421875 30.8125 C26.56423584 30.03946533 25.80425293 29.26643066 25.02124023 28.4699707 C18.02261793 21.46072488 10.79062954 14.63898439 1.69921875 10.5 C-3.63810182 8.03767943 -3.63810182 8.03767943 -5.80078125 5.875 C-5.80078125 4.555 -5.80078125 3.235 -5.80078125 1.875 C-2.80078125 -0.125 -2.80078125 -0.125 0 0 Z " fill="#C7BDB7" transform="translate(374.80078125,236.125)"/>
<path d="M0 0 C0.72265625 1.70703125 0.72265625 1.70703125 1 4 C-7.32731022 17.65867596 -23.94630694 24.23016628 -38.00830078 30.15380859 C-40.56979179 31.24208119 -43.09828476 32.39603146 -45.625 33.5625 C-48.68933328 34.96954363 -51.76689302 36.33232242 -54.87109375 37.6484375 C-65.72065627 42.26386356 -75.07344505 47.18926442 -84 55 C-84.66 55 -85.32 55 -86 55 C-86.26554687 55.58910156 -86.53109375 56.17820312 -86.8046875 56.78515625 C-88.03136826 59.05812354 -89.3441234 60.57793351 -91.125 62.4375 C-107.49398424 80.91203823 -113.15523707 103.93882135 -114 128 C-114.99 128 -115.98 128 -117 128 C-117.95997988 102.45386862 -112.96338065 77.72828524 -95.75 57.9375 C-94.18452251 56.27467348 -92.60064708 54.62899992 -91 53 C-90.18917969 52.1646875 -89.37835938 51.329375 -88.54296875 50.46875 C-78.67110143 40.8780903 -66.9448221 34.73965955 -54.0703125 30.10546875 C-50.03875271 28.65390206 -46.11502159 26.98286631 -42.171875 25.30859375 C-39.24437888 24.10082134 -36.29191244 22.98288569 -33.32739258 21.87011719 C-26.11418383 19.11724572 -20.0688417 15.79736075 -14 11 C-12.75953771 10.03591366 -11.51861764 9.07241617 -10.27734375 8.109375 C-6.83439357 5.4275116 -3.41313317 2.7196868 0 0 Z " fill="#DFDAD7" transform="translate(466,353)"/>
<path d="M0 0 C1.37187957 6.12811264 2.23296054 11.71006555 2 18 C-13.65336131 20.80399342 -29.14050585 21.13327306 -45 21 C-45 14.4 -45 7.8 -45 1 C-40.84152817 0.8553575 -36.68305436 0.71226101 -32.52441406 0.57275391 C-31.11650752 0.52509873 -29.70862833 0.47662679 -28.30078125 0.42724609 C-18.86163259 0.09687589 -9.44624012 -0.06677099 0 0 Z " fill="#77706C" transform="translate(501,671)"/>
<path d="M0 0 C14.74024294 -0.37422337 29.31602977 0.78984204 44 2 C44 8.27 44 14.54 44 21 C12.37268097 21.53656149 12.37268097 21.53656149 -1 18 C-1.09706112 11.88514973 -0.77040851 6.06696699 0 0 Z " fill="#7A726E" transform="translate(402,670)"/>
<path d="M0 0 C0.78592529 0.06509766 1.57185059 0.13019531 2.3815918 0.19726562 C10.12334298 0.88075323 18.0810854 1.60293562 25.63232422 3.46264648 C29.53729594 4.10926406 33.34985454 4.06047526 37.30078125 4.03515625 C38.13715622 4.0337413 38.97353119 4.03232635 39.83525085 4.03086853 C42.494371 4.02529184 45.1534055 4.01274365 47.8125 4 C49.62044149 3.99498199 51.4283843 3.99041961 53.23632812 3.98632812 C57.65758484 3.97533004 62.07877793 3.9580815 66.5 3.9375 C66.5 5.2575 66.5 6.5775 66.5 7.9375 C63.64515272 10.66542069 60.19792083 12.6310025 56.875 14.75 C55.97136719 15.36037109 55.06773437 15.97074219 54.13671875 16.59960938 C47.43344545 20.93961187 47.43344545 20.93961187 43.046875 20.9296875 C40.42255686 19.90733043 38.04627437 18.66064414 35.64453125 17.19140625 C31.07085668 14.51718123 26.25081742 12.27780415 21.5 9.9375 C21.5 9.2775 21.5 8.6175 21.5 7.9375 C19.43636888 8.39071328 17.37413493 8.85029106 15.3125 9.3125 C14.16394531 9.56773437 13.01539063 9.82296875 11.83203125 10.0859375 C8.5551662 10.84538294 8.5551662 10.84538294 5.76171875 12.0390625 C3.5 12.9375 3.5 12.9375 0.5 12.9375 C0.5 13.5975 0.5 14.2575 0.5 14.9375 C-4.52693031 15.35026847 -6.87850901 14.46187156 -10.875 11.4375 C-12.18597656 10.46296875 -12.18597656 10.46296875 -13.5234375 9.46875 C-14.50183594 8.71078125 -14.50183594 8.71078125 -15.5 7.9375 C-12.88865857 0.10347572 -7.24557095 -0.78757891 0 0 Z " fill="#9E9793" transform="translate(399.5,698.0625)"/>
<path d="M0 0 C0 1.65 0 3.3 0 5 C-4.49959409 7.09199565 -8.95110156 7.78008583 -13.8125 8.5 C-14.56208984 8.61730469 -15.31167969 8.73460937 -16.08398438 8.85546875 C-18.71979969 9.25897628 -21.35944179 9.62879841 -24 10 C-25.13735596 10.17426514 -26.27471191 10.34853027 -27.4465332 10.52807617 C-38.83065954 12.14611357 -50.07581478 12.35526171 -61.5625 12.3125 C-62.5498111 12.31100952 -63.53712219 12.30951904 -64.55435181 12.3079834 C-79.13187066 12.26874733 -93.64682798 11.78635976 -108.1875 10.75 C-109.44737228 10.66826035 -109.44737228 10.66826035 -110.73269653 10.58486938 C-113.08836037 10.42690178 -115.4401423 10.24219604 -117.79296875 10.046875 C-118.48452057 10.00187363 -119.17607239 9.95687225 -119.88858032 9.9105072 C-122.99875815 9.61739769 -124.66618428 9.32140574 -126.95043945 7.12207031 C-128 5 -128 5 -128 2 C-124.17293879 1.93285858 -120.64179467 1.90386756 -116.84936523 2.47192383 C-100.56219007 4.70628419 -83.85249313 4.21766349 -67.45068359 4.24023438 C-64.74416558 4.2446094 -62.03796806 4.25849868 -59.33154297 4.28125 C-31.89875526 4.71140836 -31.89875526 4.71140836 -4.89022827 0.45343018 C-3 0 -3 0 0 0 Z " fill="#98928E" transform="translate(525,650)"/>
<path d="M0 0 C22.14535041 -0.77140824 42.66454502 2.23942716 64 8 C66.33215102 8.58804237 68.66539478 9.17177801 71 9.75 C72.66666667 10.16666667 74.33333333 10.58333333 76 11 C75.67 11.99 75.34 12.98 75 14 C72.33984375 15.28125 72.33984375 15.28125 68.9375 16.5 C67.75414062 16.93054688 66.57078125 17.36109375 65.3515625 17.8046875 C63.69253906 18.39636719 63.69253906 18.39636719 62 19 C60.60304167 19.53875867 59.20697125 20.07983634 57.8125 20.625 C45.371502 25.23765816 45.371502 25.23765816 39 25 C39 24.34 39 23.68 39 23 C41.1875 21.2734375 41.1875 21.2734375 44 19.375 C45.3921875 18.42753906 45.3921875 18.42753906 46.8125 17.4609375 C47.534375 16.97882813 48.25625 16.49671875 49 16 C47.06261183 15.58281364 45.12507827 15.16630253 43.1875 14.75 C41.91390625 14.47414063 40.6403125 14.19828125 39.328125 13.9140625 C36.32367139 13.27064806 33.31382467 12.66783074 30.296875 12.0859375 C8.81866732 7.87911155 8.81866732 7.87911155 0 2 C0 1.34 0 0.68 0 0 Z " fill="#22201E" transform="translate(396,486)"/>
<path d="M0 0 C4.75026493 -0.13660942 8.82370186 0.24358246 13.421875 1.42578125 C14.61296875 1.72806641 15.8040625 2.03035156 17.03125 2.34179688 C18.2584375 2.66212891 19.485625 2.98246094 20.75 3.3125 C21.96171875 3.62123047 23.1734375 3.92996094 24.421875 4.24804688 C27.95170575 5.1514249 31.47619207 6.0734443 35 7 C36.00272949 7.2570874 37.00545898 7.5141748 38.03857422 7.77905273 C43.76733344 9.27911059 49.18495578 11.10238668 54.625 13.4375 C55.3571875 13.74751953 56.089375 14.05753906 56.84375 14.37695312 C58.27106573 14.98267341 59.69724156 15.59108926 61.12207031 16.20263672 C62.66310586 16.85695576 64.21673002 17.4815509 65.7734375 18.09765625 C71.63483776 20.47306583 76.19685271 23.91981779 81 28 C81.76570312 28.64324219 82.53140625 29.28648437 83.3203125 29.94921875 C88.33819966 34.27820954 92.77756558 38.89506321 97 44 C96.505 44.99 96.505 44.99 96 46 C91.76788046 43.79193763 88.24996981 41.42227718 84.625 38.3125 C70.64305193 26.94023268 53.94032583 21.63409329 36.67333984 17.51977539 C8.28459274 10.72035321 8.28459274 10.72035321 0 0 Z " fill="#DDD8D5" transform="translate(496,345)"/>
<path d="M0 0 C4.07206047 1.50817055 6.94906479 4.21649859 9 8 C9.6420915 11.17247256 9.56876638 14.21332706 9.4375 17.4375 C9.41792236 18.31986328 9.39834473 19.20222656 9.37817383 20.11132812 C8.79945149 39.31170183 5.19134206 59.45995305 -5 76 C-5.33 76 -5.66 76 -6 76 C-5.90524855 70.29295837 -5.79891394 64.58628199 -5.68261719 58.87963867 C-5.64473278 56.94512575 -5.6098158 55.01055203 -5.578125 53.07592773 C-5.38717334 41.55617234 -4.85527944 30.38921081 -3 19 C-2.85353027 18.03199463 -2.70706055 17.06398926 -2.55615234 16.06665039 C-2.17633295 13.56279906 -1.77961574 11.06244727 -1.375 8.5625 C-1.2409375 7.72396484 -1.106875 6.88542969 -0.96875 6.02148438 C-0.64755985 4.01404591 -0.32405458 2.00697806 0 0 Z " fill="#9B938E" transform="translate(602,431)"/>
<path d="M0 0 C1.36511232 4.09533696 0.13096773 5.62805242 -1.5625 9.5625 C-4.01629633 15.40525047 -6.16844148 21.28519002 -8.125 27.3125 C-9.64473109 31.99381889 -11.17796633 36.59966784 -13.125 41.125 C-22.13924438 63.11826015 -22.55919742 87.61067404 -23 111 C-23.66 110.67 -24.32 110.34 -25 110 C-25.99030479 104.3528627 -26.15980879 98.78830902 -26.16796875 93.06640625 C-26.17129715 92.23020248 -26.17462555 91.39399872 -26.17805481 90.53245544 C-26.18309087 88.76846867 -26.18546417 87.00447247 -26.18530273 85.24047852 C-26.18746849 82.60090491 -26.20560242 79.96176439 -26.22460938 77.32226562 C-26.32177904 49.17787101 -26.32177904 49.17787101 -21.3125 36.8125 C-21.04977295 36.16289307 -20.7870459 35.51328613 -20.51635742 34.84399414 C-19.70650688 32.88198509 -18.86054813 30.94023584 -18 29 C-17.484375 27.81664062 -16.96875 26.63328125 -16.4375 25.4140625 C-12.07227089 16.07499062 -6.29056258 8.12199219 0 0 Z " fill="#252421" transform="translate(354,354)"/>
<path d="M0 0 C0.80824219 0.10183594 1.61648438 0.20367188 2.44921875 0.30859375 C3.06410156 0.39238281 3.67898438 0.47617187 4.3125 0.5625 C3.78462891 1.20638672 3.78462891 1.20638672 3.24609375 1.86328125 C-4.42442013 12.17741871 -8.82468044 25.93672298 -10.6875 38.5625 C-12.41767508 38.10798816 -14.14659877 37.64871143 -15.875 37.1875 C-17.31939453 36.80464844 -17.31939453 36.80464844 -18.79296875 36.4140625 C-21.50960207 35.61483704 -24.07887175 34.6593638 -26.6875 33.5625 C-25.18172713 21.90604647 -19.3719203 10.37971552 -10.5 2.625 C-6.70962856 -0.15460572 -4.52948277 -0.5908021 0 0 Z " fill="#898380" transform="translate(370.6875,586.4375)"/>
<path d="M0 0 C4 1.33333333 8 2.66666667 12 4 C13.0621875 4.33 14.124375 4.66 15.21875 5 C18.40331766 6.14501309 20.47693037 7.77376209 23 10 C22.43628586 13.26954202 21.50037734 14.82575883 19 17 C18.67 16.34 18.34 15.68 18 15 C17.34 15.66 16.68 16.32 16 17 C12.875 17.125 12.875 17.125 10 17 C10.33 19.31 10.66 21.62 11 24 C12.32 24 13.64 24 15 24 C14.71640113 25.4391134 14.42278601 26.87625518 14.125 28.3125 C13.96257812 29.11300781 13.80015625 29.91351562 13.6328125 30.73828125 C13 33 13 33 11 36 C6.49323379 38.34005168 3.07525946 39.37136045 -2 39 C-4.82468916 33.35062168 -2.32797642 25.89945526 -1.0625 20.0625 C0.22018283 14.0479413 1.32678178 8.11565605 2 2 C1.34 2 0.68 2 0 2 C0 1.34 0 0.68 0 0 Z " fill="#3B3837" transform="translate(323,574)"/>
<path d="M0 0 C1.92960571 0.24447876 1.92960571 0.24447876 3.89819336 0.49389648 C8.8247557 1.03915505 13.67670329 1.12850688 18.62890625 1.09765625 C19.94156715 1.09553383 19.94156715 1.09553383 21.28074646 1.09336853 C24.04136762 1.08782719 26.80190388 1.07528612 29.5625 1.0625 C31.44856653 1.0574774 33.33463434 1.05291583 35.22070312 1.04882812 C39.81383417 1.03787707 44.40690275 1.02065384 49 1 C49.99 4.3 50.98 7.6 52 11 C34.12176642 13.64135075 16.8060602 13.08239361 -1 10 C-1.125 2.25 -1.125 2.25 0 0 Z " fill="#605A57" transform="translate(380,726)"/>
<path d="M0 0 C-3.33461115 3.59626859 -6.32454502 5.96099426 -10.75 8.0625 C-11.7915625 8.56136719 -12.833125 9.06023437 -13.90625 9.57421875 C-17.92018346 11.42407445 -21.9386015 13.25647034 -26 15 C-25.4946875 15.42152344 -24.989375 15.84304688 -24.46875 16.27734375 C-23.8190625 16.82519531 -23.169375 17.37304688 -22.5 17.9375 C-21.8503125 18.48277344 -21.200625 19.02804687 -20.53125 19.58984375 C-20.0259375 20.05519531 -19.520625 20.52054687 -19 21 C-19 21.33 -19 21.66 -19 22 C-31.3422011 22.14303875 -41.63378374 18.41408126 -53 14 C-53 13.34 -53 12.68 -53 12 C-18.91331143 -0.70630624 -18.91331143 -0.70630624 0 0 Z " fill="#22201E" transform="translate(570,485)"/>
<path d="M0 0 C0.33 0.66 0.66 1.32 1 2 C1.66 2 2.32 2 3 2 C3.26532253 9.17199951 2.00007077 15.52164695 0.421875 22.49023438 C-0.79263088 28.12467417 -1.18619643 33.2337293 -1 39 C0.03125 38.690625 1.0625 38.38125 2.125 38.0625 C5.37893741 37.08631878 8.64559232 36.52739271 12 36 C10.78751263 38.8823125 9.55204821 41.75423304 8.3125 44.625 C7.97283203 45.43324219 7.63316406 46.24148438 7.28320312 47.07421875 C4.60292635 53.23635039 2.20596101 58.66922373 -4.3125 61.375 C-5.199375 61.58125 -6.08625 61.7875 -7 62 C-7.06058594 60.68644531 -7.12117188 59.37289062 -7.18359375 58.01953125 C-7.26803256 56.28384459 -7.35267888 54.54816802 -7.4375 52.8125 C-7.47681641 51.94818359 -7.51613281 51.08386719 -7.55664062 50.19335938 C-7.80005037 45.23025178 -7.80005037 45.23025178 -8.53515625 40.32421875 C-10.05962787 32.70186064 -7.85265752 26.23104704 -5.625 19 C-5.30789063 17.94554687 -4.99078125 16.89109375 -4.6640625 15.8046875 C-4.05324015 13.77370319 -3.43914371 11.74369979 -2.82128906 9.71484375 C-1.84454443 6.48612784 -0.91326479 3.24716371 0 0 Z " fill="#262423" transform="translate(322,574)"/>
<path d="M0 0 C5.02037465 1.00407493 9.82682202 2.25467979 14.70166016 3.82861328 C25.04031185 7.1169885 35.20509779 8.25205952 46 9 C46.02689216 10.47906892 46.04634621 11.95827483 46.0625 13.4375 C46.07410156 14.26121094 46.08570313 15.08492187 46.09765625 15.93359375 C46 18 46 18 45 19 C29.18690978 20.25454406 12.33527728 15.34125207 -2 9 C-1.125 2.25 -1.125 2.25 0 0 Z " fill="#77706C" transform="translate(337,631)"/>
<path d="M0 0 C4.70244189 0.43541129 6.17310586 1.74574968 9.546875 4.9765625 C10.46984375 5.83507812 11.3928125 6.69359375 12.34375 7.578125 C17.56955146 13.48627633 18.32174257 18.3698553 18.234375 25.9765625 C18.22970215 26.85940918 18.2250293 27.74225586 18.22021484 28.65185547 C18.05120566 36.16108473 17.36050897 44.78792853 11.796875 50.3515625 C8.171875 50.4765625 8.171875 50.4765625 4.796875 50.3515625 C5.085625 49.26359375 5.374375 48.175625 5.671875 47.0546875 C8.56474486 35.77043424 10.93873648 24.64754835 6.796875 13.3515625 C3.84522916 8.50051919 0.45972526 4.64298621 -4.203125 1.3515625 C-3.203125 0.3515625 -3.203125 0.3515625 0 0 Z " fill="#BBB7B4" transform="translate(513.203125,588.6484375)"/>
<path d="M0 0 C0 0.66 0 1.32 0 2 C0.721875 2.20625 1.44375 2.4125 2.1875 2.625 C5.98456 4.48134044 7.4981308 6.59467803 10 10 C10.9738963 12.92168889 11.19605823 15.01029474 11.25 18.0625 C11.27578125 18.94035156 11.3015625 19.81820313 11.328125 20.72265625 C11.21984375 21.47417969 11.1115625 22.22570312 11 23 C7.3151733 25.45655113 4.27889547 25.80702154 0 25 C-2.6875 22.9375 -2.6875 22.9375 -5 20 C-5.46664063 19.49210937 -5.93328125 18.98421875 -6.4140625 18.4609375 C-10.0219413 14.20807479 -10.53713328 10.73922911 -10.46875 5.234375 C-9.22917818 -0.67425068 -5.29280374 -0.29959266 0 0 Z " fill="#9B948F" transform="translate(511,284)"/>
<path d="M0 0 C12.20028715 0.90021536 12.20028715 0.90021536 17.75 5.0625 C20.72849816 8.95109482 20.88521556 12.21035832 21 17 C16.57676318 16.41734728 13.4844136 14.73233789 9.6875 12.4375 C8.08455078 11.47650391 8.08455078 11.47650391 6.44921875 10.49609375 C5.64097656 10.00238281 4.83273437 9.50867188 4 9 C6.90511709 13.05892246 9.7418194 16.87455402 13.4375 20.25 C14.7059375 21.61125 14.7059375 21.61125 16 23 C15.66015625 25.171875 15.66015625 25.171875 15 27 C12.859375 27.7890625 12.859375 27.7890625 10 28 C7.140625 26.0859375 7.140625 26.0859375 4.25 23.375 C3.28578125 22.49585938 2.3215625 21.61671875 1.328125 20.7109375 C-2.03491655 16.79491261 -2.14402313 13.43734043 -2.1875 8.4375 C-2.20167969 7.69371094 -2.21585937 6.94992187 -2.23046875 6.18359375 C-1.97215109 3.73614336 -1.21677534 2.12094042 0 0 Z " fill="#CBB5AD" transform="translate(365,666)"/>
<path d="M0 0 C1.44207941 2.88415883 1.09394887 5.41721528 1.0625 8.625 C1.05347656 9.81351563 1.04445313 11.00203125 1.03515625 12.2265625 C1.02355469 13.14179687 1.01195312 14.05703125 1 15 C-5.47990359 18.47994823 -12.50312314 22 -20 22 C-21.5056904 16.19233704 -22.21824777 11.0018137 -22 5 C-17.60525401 3.70155232 -13.18947607 2.51180759 -8.75 1.375 C-7.73421875 1.11460937 -6.7184375 0.85421875 -5.671875 0.5859375 C-3 0 -3 0 0 0 Z " fill="#776F6B" transform="translate(533,664)"/>
<path d="M0 0 C1.98 0 3.96 0 6 0 C9.4011567 7.53113268 10.25980519 14.81613659 10 23 C4.42531458 26.61601216 -0.60567654 26.30720059 -7 26 C-7.12117188 25.07058594 -7.24234375 24.14117188 -7.3671875 23.18359375 C-8.32844161 15.44487456 -8.32844161 15.44487456 -10.125 7.875 C-11 5 -11 5 -11 1 C-8.6875 0.6875 -8.6875 0.6875 -6 1 C-2.52545684 5.16945179 -0.92622715 10.96443155 1 16 C1.11138159 10.54230189 0.91657981 5.38490641 0 0 Z " fill="#98918D" transform="translate(490,701)"/>
<path d="M0 0 C3.85104585 1.82843773 5.8592128 3.17716572 8 7 C9.80338578 18.72200755 5.50884006 29.64044167 0.10546875 39.83203125 C-1.23989424 42.47046397 -2.17737362 45.15819977 -3 48 C-3.33 48 -3.66 48 -4 48 C-4.54245849 31.50717553 -3.4574845 16.14488939 0 0 Z " fill="#A8A09B" transform="translate(602,431)"/>
<path d="M0 0 C0.72960937 0.63164063 1.45921875 1.26328125 2.2109375 1.9140625 C5.54227108 4.40556409 8.0479321 4.95124452 12.125 5.6875 C13.34445312 5.91824219 14.56390625 6.14898438 15.8203125 6.38671875 C25.77049166 7.94707949 35.63058512 8.13027599 45.6875 8.0625 C46.97333984 8.05798828 48.25917969 8.05347656 49.58398438 8.04882812 C52.72270653 8.03716001 55.86132728 8.02079015 59 8 C49.34018138 15.71869867 32.22675342 14.98069777 20.39257812 14.26757812 C12.65140072 13.40183012 4.98923408 9.96250824 -1 5 C-1 4.34 -1 3.68 -1 3 C-3.64 3.33 -6.28 3.66 -9 4 C-9.33 3.01 -9.66 2.02 -10 1 C-6.59434954 0.22156561 -3.48317572 -0.43539696 0 0 Z " fill="#272422" transform="translate(470,543)"/>
<path d="M0 0 C14.73803918 -0.37416743 29.31917344 0.77970802 44 2 C44 2.33 44 2.66 44 3 C33.26812585 3.11822138 22.70246523 2.83125944 12 2 C12.33 7.94 12.66 13.88 13 20 C8.38 19.34 3.76 18.68 -1 18 C-1.09706112 11.88514973 -0.77040851 6.06696699 0 0 Z " fill="#504B48" transform="translate(402,670)"/>
<path d="M0 0 C11.55 0 23.1 0 35 0 C35 1.32 35 2.64 35 4 C33.62304688 5.37207031 33.62304688 5.37207031 31.71875 6.578125 C31.04199219 7.01640625 30.36523438 7.4546875 29.66796875 7.90625 C28.95253906 8.3496875 28.23710937 8.793125 27.5 9.25 C26.78457031 9.70890625 26.06914062 10.1678125 25.33203125 10.640625 C23.56268301 11.77300788 21.78233165 12.88816454 20 14 C17.35247996 11.42215154 15.05567935 9.08351902 13 6 C12.22914063 6.09539063 11.45828125 6.19078125 10.6640625 6.2890625 C9.66117187 6.39992188 8.65828125 6.51078125 7.625 6.625 C6.62726563 6.74101563 5.62953125 6.85703125 4.6015625 6.9765625 C3.74304688 6.98429688 2.88453125 6.99203125 2 7 C1.34 6.34 0.68 5.68 0 5 C0 3.35 0 1.7 0 0 Z " fill="#8B837E" transform="translate(431,702)"/>
<path d="M0 0 C4.81366583 -0.0943856 9.28659085 -0.10903745 14 1 C14.99 1 15.98 1 17 1 C17.66 2.98 18.32 4.96 19 7 C22.95712151 7.09202608 26.0526448 6.78947104 30 6 C31.98 8.97 33.96 11.94 36 15 C32 18 32 18 29.1875 17.9375 C26.18628512 17.05478974 23.80417415 15.88091127 21.14453125 14.25390625 C16.57085668 11.57968123 11.75081742 9.34030415 7 7 C7 6.34 7 5.68 7 5 C5.35 5 3.7 5 2 5 C2.66 4.34 3.32 3.68 4 3 C2.68 2.67 1.36 2.34 0 2 C0 1.34 0 0.68 0 0 Z " fill="#9C9591" transform="translate(414,701)"/>
<path d="M0 0 C4.93502913 1.39825825 6.90830487 3.93345976 9.75 8.0625 C11.14935013 10.86120027 11.00265405 12.96748792 10.75 16.0625 C9.6875 18 9.6875 18 7.75 19.0625 C3.38574385 19.0625 1.32997966 18.53937216 -2.0625 15.75 C-6.34809264 10.48484332 -6.34809264 10.48484332 -6 5.4375 C-5.02270799 1.03968595 -4.58160647 0.08810782 0 0 Z " fill="#7E7873" transform="translate(289.25,355.9375)"/>
<path d="M0 0 C4.54015739 0.68102361 5.87522569 1.85485473 8.58203125 5.41796875 C10.48843429 8.91835427 11.31148134 12.593673 10.75 16.5625 C8.85987533 19.01966207 8.02650181 19.50105515 4.9375 20.1875 C0.26299612 19.27093061 -1.61223241 16.36019796 -4.25 12.5625 C-5.36445498 10.33359005 -5.41480286 9.03194894 -5.4375 6.5625 C-5.45167969 5.86125 -5.46585937 5.16 -5.48046875 4.4375 C-5.0417276 0.86808047 -3.30818424 0.57257035 0 0 Z " fill="#7E7874" transform="translate(334.25,341.4375)"/>
<path d="M0 0 C1.79244141 0.23009766 1.79244141 0.23009766 3.62109375 0.46484375 C10.08534064 1.1830934 16.56549882 1.35180512 23.0625 1.5625 C24.93325195 1.62727539 24.93325195 1.62727539 26.84179688 1.69335938 C29.89444091 1.79862296 32.94715523 1.90075941 36 2 C36 2.33 36 2.66 36 3 C31.05 3 26.1 3 21 3 C21 5.97 21 8.94 21 12 C18.08302989 11.85895309 15.1665198 11.71235186 12.25 11.5625 C11.0125 11.50352539 11.0125 11.50352539 9.75 11.44335938 C8.95078125 11.40146484 8.1515625 11.35957031 7.328125 11.31640625 C6.5949707 11.27974854 5.86181641 11.24309082 5.10644531 11.20532227 C2.98822395 10.99885215 1.0480544 10.56867914 -1 10 C-1.125 2.25 -1.125 2.25 0 0 Z " fill="#484441" transform="translate(380,726)"/>
<path d="M0 0 C2.01822917 0.06510417 4.03645833 0.13020833 6.0546875 0.1953125 C6.0546875 0.8553125 6.0546875 1.5153125 6.0546875 2.1953125 C6.6734375 2.4428125 7.2921875 2.6903125 7.9296875 2.9453125 C10.57408735 4.50084182 11.13138688 5.27152721 12.0546875 8.1953125 C12.31748479 10.954684 12.23508538 13.39914537 12.0546875 16.1953125 C10.0546875 18.1953125 10.0546875 18.1953125 7.2421875 18.6328125 C3.02314729 18.05372855 1.78547786 16.36893373 -0.9453125 13.1953125 C-1.5434375 12.7621875 -2.1415625 12.3290625 -2.7578125 11.8828125 C-4.88035663 8.86656558 -4.23024129 5.7854152 -3.9453125 2.1953125 C-1.9453125 0.1953125 -1.9453125 0.1953125 0 0 Z " fill="#7E7874" transform="translate(327.9453125,467.8046875)"/>
<path d="M0 0 C4.42340393 2.24703267 4.42340393 2.24703267 6.3828125 4.0546875 C7.12890625 6.73046875 7.12890625 6.73046875 7.3828125 9.0546875 C4.01343951 11.08277532 1.35071162 11.35241298 -2.5546875 11.3671875 C-3.57433594 11.38394531 -4.59398437 11.40070312 -5.64453125 11.41796875 C-9.03419241 11.00372632 -10.83527936 9.98931397 -13.6171875 8.0546875 C-14.6071875 7.3946875 -15.5971875 6.7346875 -16.6171875 6.0546875 C-16.8046875 3.4296875 -16.8046875 3.4296875 -16.6171875 1.0546875 C-11.31437201 -1.96682521 -5.71957915 -2.06587784 0 0 Z " fill="#C1BCB9" transform="translate(464.6171875,594.9453125)"/>
<path d="M0 0 C4.63281328 0.69929257 7.15830543 3.14595288 10.3125 6.5 C11.82184217 9.51868434 11.48760672 12.17297229 11.3125 15.5 C10.3225 16.985 10.3225 16.985 9.3125 18.5 C6.5625 19 6.5625 19 3.3125 18.5 C-0.10004763 16.07184111 -2.36430763 13.98478855 -4.6875 10.5 C-5.05917184 7.73979004 -4.86600636 5.31147524 -4.6875 2.5 C-2.6875 0.5 -2.6875 0.5 0 0 Z " fill="#7D7773" transform="translate(303.6875,296.5)"/>
<path d="M0 0 C19.69020828 -0.57912377 19.69020828 -0.57912377 28 3 C28.66773438 3.25523437 29.33546875 3.51046875 30.0234375 3.7734375 C37.63712289 7.05364188 44.26944297 13.26393174 49 20 C45.39101011 18.64922643 42.00122179 17.0080528 38.58300781 15.23291016 C27.56830842 9.53390789 16.7320588 5.01765492 4.328125 3.359375 C2 3 2 3 0 2 C0 1.34 0 0.68 0 0 Z " fill="#2C2A27" transform="translate(523,321)"/>
<path d="M0 0 C-0.845625 0.76183594 -1.69125 1.52367187 -2.5625 2.30859375 C-19.8425576 17.88897214 -19.8425576 17.88897214 -31 38 C-31.66 38 -32.32 38 -33 38 C-32.77642902 26.82145107 -26.19331921 16.1008876 -18.609375 8.203125 C-13.87574619 4.20646834 -6.19980048 -2.06660016 0 0 Z " fill="#252422" transform="translate(386,257)"/>
<path d="M0 0 C6.18383236 1.24261407 12.044468 2.92029041 18 5 C17.34 8.3 16.68 11.6 16 15 C9.76559832 13.41039668 3.83712355 11.72399099 -2 9 C-1.125 2.25 -1.125 2.25 0 0 Z " fill="#655F5B" transform="translate(337,631)"/>
<path d="M0 0 C1.98 0 3.96 0 6 0 C9.07065733 6.79931267 11.47011772 15.52294965 10 23 C6.77208445 25.1519437 5.71599191 25.20086443 2 25 C1.90912109 23.17275391 1.90912109 23.17275391 1.81640625 21.30859375 C1.73193597 19.68488723 1.64729128 18.06118978 1.5625 16.4375 C1.50352539 15.23770508 1.50352539 15.23770508 1.44335938 14.01367188 C1.19251844 9.28628494 0.74678186 4.67523099 0 0 Z " fill="#9D9793" transform="translate(490,701)"/>
<path d="M0 0 C10.02111443 -0.9739744 18.61284264 1.91863533 28 5 C13.9866391 12.1681247 13.9866391 12.1681247 8 11 C6.125 9.125 6.125 9.125 5 7 C5 6.34 5 5.68 5 5 C3.68 4.67 2.36 4.34 1 4 C0.67 2.68 0.34 1.36 0 0 Z " fill="#CCB5AD" transform="translate(385,578)"/>
<path d="M0 0 C-0.61746094 0.47308594 -1.23492187 0.94617188 -1.87109375 1.43359375 C-10.57163402 8.22716629 -18.62367028 15.14212916 -24.05078125 24.88671875 C-26.86550633 29.93275316 -26.86550633 29.93275316 -29 31 C-29.91984815 24.00915406 -26.37298485 18.35470194 -22.4609375 12.82421875 C-17.43470296 6.69030693 -8.55400197 -2.85133399 0 0 Z " fill="#2E2C29" transform="translate(339,299)"/>
<path d="M0 0 C13.76980711 0.02855004 22.70319825 2.09160506 33.27075195 11.38061523 C32.94075195 12.04061523 32.61075195 12.70061523 32.27075195 13.38061523 C31.13895508 12.77475586 30.0071582 12.16889648 28.84106445 11.54467773 C24.39471166 9.32638744 19.95241401 7.96308828 15.14575195 6.75561523 C13.91538208 6.43814331 13.91538208 6.43814331 12.66015625 6.11425781 C5.58508651 4.3439423 -1.47552521 3.17343649 -8.72924805 2.38061523 C-5.92011668 -0.42851613 -3.84316485 0.06744981 0 0 Z " fill="#34322F" transform="translate(474.729248046875,260.619384765625)"/>
<path d="M0 0 C-0.66498383 4.38889325 -2.18757677 7.9811485 -4 12 C-5.77119803 11.85866501 -7.54195287 11.71176792 -9.3125 11.5625 C-10.29863281 11.48128906 -11.28476562 11.40007813 -12.30078125 11.31640625 C-15 11 -15 11 -18 10 C-18.33 8.02 -18.66 6.04 -19 4 C-16.39688008 3.32900016 -13.79264602 2.66304662 -11.1875 2 C-10.44951172 1.80921875 -9.71152344 1.6184375 -8.95117188 1.421875 C-5.89464659 0.64737086 -3.16626522 0 0 0 Z " fill="#CBC7C5" transform="translate(527,694)"/>
<path d="M0 0 C2.80705084 0.08020145 4.48206883 0.45547237 6.4453125 2.51953125 C10 7.34375 10 7.34375 10 11 C10.66 11 11.32 11 12 11 C12.33 12.65 12.66 14.3 13 16 C8.6057696 16.4308069 6.67140255 16.52544547 3.125 13.75 C-0.42683127 9.15351247 -0.11059317 5.75084493 0 0 Z " fill="#7E7874" transform="translate(450,324)"/>
<path d="M0 0 C1.76853726 2.34822447 2.90246047 4.74302554 4.09375 7.4296875 C4.53074219 8.40035156 4.96773438 9.37101562 5.41796875 10.37109375 C6.40625 12.8671875 6.40625 12.8671875 6.40625 14.8671875 C5.74625 14.8671875 5.08625 14.8671875 4.40625 14.8671875 C4.07625 16.8471875 3.74625 18.8271875 3.40625 20.8671875 C1.42625 20.5371875 -0.55375 20.2071875 -2.59375 19.8671875 C-2.92375 18.8771875 -3.25375 17.8871875 -3.59375 16.8671875 C-1.61375 16.8671875 0.36625 16.8671875 2.40625 16.8671875 C2.07625 15.2171875 1.74625 13.5671875 1.40625 11.8671875 C0.74625 11.8671875 0.08625 11.8671875 -0.59375 11.8671875 C-0.82449219 11.33609375 -1.05523437 10.805 -1.29296875 10.2578125 C-3.41313557 5.66551441 -5.27142276 2.74873899 -9.59375 -0.1328125 C-2.09045845 -1.48586507 -2.09045845 -1.48586507 0 0 Z " fill="#8F8884" transform="translate(460.59375,323.1328125)"/>
<path d="M0 0 C1.8125 1.125 1.8125 1.125 3 3 C3.39365568 6.14924548 3.52854531 8.11909116 1.875 10.875 C-0.84218824 12.50531294 -2.89652746 12.33015665 -6 12 C-8 10 -8 10 -8.3125 6.5625 C-8 3 -8 3 -6.8125 1.0625 C-4.33950907 -0.38718434 -2.82115488 -0.42317323 0 0 Z " fill="#C1BDBA" transform="translate(511,622)"/>
<path d="M0 0 C1.42247747 2.84495493 1.20793601 5.3311796 1.25 8.5 C1.28867187 10.24796875 1.28867187 10.24796875 1.328125 12.03125 C1.21984375 13.0109375 1.1115625 13.990625 1 15 C-2 17 -2 17 -6 17 C-6 11.72 -6 6.44 -6 1 C-3 0 -3 0 0 0 Z " fill="#A19792" transform="translate(533,664)"/>
<path d="M0 0 C2.5 0.375 2.5 0.375 5.5 2.375 C5.97114738 5.1177508 5.67805784 7.57058897 5.5 10.375 C4.5 11.375 4.5 11.375 2.46875 11.5078125 C1.6540625 11.50523437 0.839375 11.50265625 0 11.5 C-0.8146875 11.50257813 -1.629375 11.50515625 -2.46875 11.5078125 C-4.5 11.375 -4.5 11.375 -5.5 10.375 C-5.7917773 7.09250543 -5.79866591 4.97233181 -4.3125 2 C-2.5 0.375 -2.5 0.375 0 0 Z " fill="#B6B2AF" transform="translate(411.5,603.625)"/>
<path d="M0 0 C2.89611544 0.14134727 5.7918081 0.2879153 8.6875 0.4375 C9.50412109 0.47681641 10.32074219 0.51613281 11.16210938 0.55664062 C15.19655811 0.76898003 19.05747309 1.04447922 23 2 C23 2.33 23 2.66 23 3 C18.05 3 13.1 3 8 3 C8.99 3.99 9.98 4.98 11 6 C10.74853421 8.13745922 10.54074221 9.45925779 9 11 C6.0625 11.1875 6.0625 11.1875 3 11 C1 9 1 9 0.875 6.375 C0.91625 5.59125 0.9575 4.8075 1 4 C1.99 3.67 2.98 3.34 4 3 C4 2.34 4 1.68 4 1 C2.68 0.67 1.36 0.34 0 0 Z " fill="#6E6A67" transform="translate(391,698)"/>
<path d="M0 0 C11.55 0 23.1 0 35 0 C35 0.33 35 0.66 35 1 C26.75 1 18.5 1 10 1 C9.67 2.65 9.34 4.3 9 6 C8 7 8 7 5.0625 7.1875 C2 7 2 7 0 5 C0 3.35 0 1.7 0 0 Z " fill="#595451" transform="translate(431,702)"/>
<path d="M0 0 C7.59 0 15.18 0 23 0 C22.67 2.31 22.34 4.62 22 7 C19.69 6.67 17.38 6.34 15 6 C14.67 6.66 14.34 7.32 14 8 C10 3.25 10 3.25 10 1 C6.7 1 3.4 1 0 1 C0 0.67 0 0.34 0 0 Z " fill="#443E3A" transform="translate(365,661)"/>
<path d="M0 0 C9.23805298 -0.48550351 16.54022812 0.13267571 25 4 C25 4.66 25 5.32 25 6 C25.66 6 26.32 6 27 6 C27 6.66 27 7.32 27 8 C20.94364701 7.3436874 15.37056667 5.73971507 9.5625 3.9375 C8.64017578 3.65583984 7.71785156 3.37417969 6.76757812 3.08398438 C4.51026202 2.39392401 2.25450816 1.69916877 0 1 C0 0.67 0 0.34 0 0 Z " fill="#312F2D" transform="translate(480,317)"/>
<path d="M0 0 C3.63 0 7.26 0 11 0 C10.90234375 2.27864583 10.8046875 4.55729167 10.70703125 6.8359375 C10.80371094 7.55007813 10.90039062 8.26421875 11 9 C11.99 9.66 12.98 10.32 14 11 C11.1875 11.25 11.1875 11.25 8 11 C6.125 9.125 6.125 9.125 5 7 C5 6.34 5 5.68 5 5 C3.68 4.67 2.36 4.34 1 4 C0.67 2.68 0.34 1.36 0 0 Z " fill="#7D6962" transform="translate(385,578)"/>
<path d="M0 0 C0 0.66 0 1.32 0 2 C-0.99 2.495 -0.99 2.495 -2 3 C-2.19715281 6.54875053 -2.17831524 9.09557968 0 12 C2.55519921 12.81171228 2.55519921 12.81171228 5 13 C5 13.33 5 13.66 5 14 C-0.02693031 14.41276847 -2.37850901 13.52437156 -6.375 10.5 C-7.68597656 9.52546875 -7.68597656 9.52546875 -9.0234375 8.53125 C-9.67570312 8.0259375 -10.32796875 7.520625 -11 7 C-9.21020584 1.63061752 -5.59163302 -0.63904377 0 0 Z " fill="#908A86" transform="translate(395,699)"/>
<path d="M0 0 C0.33 0 0.66 0 1 0 C1 9.9 1 19.8 1 30 C-3.47324974 28.88168756 -4.11043113 28.14053381 -6.8125 24.625 C-7.43769531 23.83351563 -8.06289063 23.04203125 -8.70703125 22.2265625 C-9.34705078 21.12441406 -9.34705078 21.12441406 -10 20 C-9.505 18.515 -9.505 18.515 -9 17 C-8.34 18.32 -7.68 19.64 -7 21 C-6.34 21 -5.68 21 -5 21 C-4.67 20.34 -4.34 19.68 -4 19 C-3.01 20.98 -2.02 22.96 -1 25 C-0.67 16.75 -0.34 8.5 0 0 Z " fill="#B2ADA9" transform="translate(609,381)"/>
<path d="M0 0 C5.15171623 -0.09038099 9.91913204 0.15318867 15 1 C13.68 1.33 12.36 1.66 11 2 C11.33 3.65 11.66 5.3 12 7 C8.96666668 7.22893082 6.02681166 7.34883468 3 7 C0.9375 5.1875 0.9375 5.1875 0 3 C0 2.01 0 1.02 0 0 Z " fill="#736B66" transform="translate(397,652)"/>
<path d="M0 0 C0.66 0 1.32 0 2 0 C1.55429393 3.43926093 1.09127385 6.87597202 0.625 10.3125 C0.49867188 11.28896484 0.37234375 12.26542969 0.2421875 13.27148438 C0.11328125 14.20927734 -0.015625 15.14707031 -0.1484375 16.11328125 C-0.26364746 16.97735596 -0.37885742 17.84143066 -0.49755859 18.73168945 C-1 21 -1 21 -3 24 C-4.89265562 22.10734438 -4.21788439 18.96125147 -4.25 16.4375 C-4.1875 4.1875 -4.1875 4.1875 0 0 Z " fill="#33312E" transform="translate(275,389)"/>
<path d="M0 0 C0.83273437 0.14308594 1.66546875 0.28617188 2.5234375 0.43359375 C19.03506726 3.12369073 35.29273691 3.23209491 52 3 C49.58958497 5.26447556 48.27619489 5.97326365 44.93823242 6.29638672 C43.75592041 6.25787598 42.5736084 6.21936523 41.35546875 6.1796875 C40.03740234 6.1384375 38.71933594 6.0971875 37.36132812 6.0546875 C36.32987671 6.00973145 36.32987671 6.00973145 35.27758789 5.96386719 C33.23268153 5.87692105 31.18859703 5.81919999 29.14257812 5.765625 C4.97145226 4.97145226 4.97145226 4.97145226 0 0 Z " fill="#675D58" transform="translate(477,548)"/>
<path d="M0 0 C0 5.28 0 10.56 0 16 C-8 6 -8 6 -8 3 C-1.125 0 -1.125 0 0 0 Z " fill="#383634" transform="translate(542,584)"/>
<path d="M0 0 C-1.32 2.64 -2.64 5.28 -4 8 C-6.31 7.67 -8.62 7.34 -11 7 C-11.33 5.02 -11.66 3.04 -12 1 C-10.37681021 0.63762737 -8.7513642 0.28534843 -7.125 -0.0625 C-6.22007812 -0.25972656 -5.31515625 -0.45695313 -4.3828125 -0.66015625 C-2 -1 -2 -1 0 0 Z " fill="#98928E" transform="translate(520,697)"/>
<path d="M0 0 C1.98 0 3.96 0 6 0 C4.83805848 6.46712188 2.8751252 12.09622349 0 18 C-0.33 18 -0.66 18 -1 18 C-1.09945415 11.88909517 -1.0712828 6.02596573 0 0 Z " fill="#CAC1BB" transform="translate(599,461)"/>
<path d="M0 0 C4 2 4 2 6 5 C6.1953125 7.26171875 6.1953125 7.26171875 6.125 9.6875 C6.10695313 10.49574219 6.08890625 11.30398438 6.0703125 12.13671875 C6.03550781 13.05904297 6.03550781 13.05904297 6 14 C3.6875 14.25 3.6875 14.25 1 14 C-0.8125 12 -0.8125 12 -2 10 C-0.68 10 0.64 10 2 10 C1.34 6.7 0.68 3.4 0 0 Z " fill="#2C2927" transform="translate(503,521)"/>
<path d="M0 0 C14.68088108 -0.36754035 28.57781919 0.1427755 43 3 C43 3.33 43 3.66 43 4 C29.99099008 3.11566659 16.99632848 2.05164637 4 1 C4.33 1.99 4.66 2.98 5 4 C2.525 3.01 2.525 3.01 0 2 C0 1.34 0 0.68 0 0 Z " fill="#4C4541" transform="translate(396,486)"/>
<path d="M0 0 C1.94326172 -0.02513672 1.94326172 -0.02513672 3.92578125 -0.05078125 C7.86402027 0.32954713 10.30234353 1.32339255 13.6875 3.3125 C13.6875 3.6425 13.6875 3.9725 13.6875 4.3125 C10.81223931 4.1708467 7.93736464 4.02431468 5.0625 3.875 C4.25425781 3.83568359 3.44601562 3.79636719 2.61328125 3.75585938 C-1.76400865 3.52453918 -5.99797281 3.14329083 -10.3125 2.3125 C-6.57152881 -0.18148079 -4.46254478 0.01324197 0 0 Z " fill="#312F2C" transform="translate(445.3125,232.6875)"/>
<path d="M0 0 C1.98 0 3.96 0 6 0 C6 3.3 6 6.6 6 10 C4.35 10 2.7 10 1 10 C0 9 0 9 -0.09765625 6.93359375 C-0.08605469 6.10988281 -0.07445312 5.28617188 -0.0625 4.4375 C-0.05347656 3.61121094 -0.04445313 2.78492188 -0.03515625 1.93359375 C-0.02355469 1.29550781 -0.01195312 0.65742187 0 0 Z " fill="#45423F" transform="translate(465,726)"/>
<path d="M0 0 C2.625 0.375 2.625 0.375 5 1 C5.625 3.3125 5.625 3.3125 6 6 C5.01 7.485 5.01 7.485 4 9 C-0.875 8.125 -0.875 8.125 -2 7 C-2.1875 4.5625 -2.1875 4.5625 -2 2 C-1.34 1.34 -0.68 0.68 0 0 Z " fill="#55504D" transform="translate(435,678)"/>
<path d="M0 0 C0.66 1.32 1.32 2.64 2 4 C1.01 4.495 1.01 4.495 0 5 C-0.73075648 7.3140622 -1.40138258 9.64828869 -2 12 C-2.33 11.34 -2.66 10.68 -3 10 C-4.32 10 -5.64 10 -7 10 C-7.33 7.69 -7.66 5.38 -8 3 C-6.865625 2.690625 -5.73125 2.38125 -4.5625 2.0625 C-1.21224901 1.37075469 -1.21224901 1.37075469 0 0 Z " fill="#2A2826" transform="translate(341,588)"/>
<path d="M0 0 C0.33 0 0.66 0 1 0 C1.33 10.23 1.66 20.46 2 31 C1.67 31 1.34 31 1 31 C0.34 25.72 -0.32 20.44 -1 15 C-1.33 15 -1.66 15 -2 15 C-2.05406122 13.06280622 -2.09282025 11.12518079 -2.125 9.1875 C-2.14820313 8.10855469 -2.17140625 7.02960938 -2.1953125 5.91796875 C-2 3 -2 3 0 0 Z " fill="#43403D" transform="translate(315,487)"/>
<path d="M0 0 C-0.66 3.96 -1.32 7.92 -2 12 C-3.65 12 -5.3 12 -7 12 C-7.48842105 4.67368421 -7.48842105 4.67368421 -5.1875 1.5 C-3 0 -3 0 0 0 Z " fill="#282624" transform="translate(399,309)"/>
<path d="M0 0 C2.38171206 2.38171206 3.3378952 4.12288428 4.3125 7.3125 C1.3405615 6.18798273 -1.02190687 5.08956209 -3.6875 3.3125 C-3.6875 2.6525 -3.6875 1.9925 -3.6875 1.3125 C-6.3275 1.6425 -8.9675 1.9725 -11.6875 2.3125 C-12.0175 1.3225 -12.3475 0.3325 -12.6875 -0.6875 C-4.18866369 -2.63009116 -4.18866369 -2.63009116 0 0 Z " fill="#2C2926" transform="translate(472.6875,544.6875)"/>
<path d="M0 0 C1.1446875 0.3403125 1.1446875 0.3403125 2.3125 0.6875 C2.4375 3.0625 2.4375 3.0625 2.3125 5.6875 C0.3125 7.6875 0.3125 7.6875 -2.3125 7.8125 C-3.09625 7.77125 -3.88 7.73 -4.6875 7.6875 C-5.375 5.375 -5.375 5.375 -5.6875 2.6875 C-4.0011022 -0.12316299 -3.27764429 -0.38112143 0 0 Z " fill="#534E4A" transform="translate(492.6875,680.3125)"/>
<path d="M0 0 C0.33 0 0.66 0 1 0 C1.02895225 3.29164829 1.0467823 6.58326399 1.0625 9.875 C1.07087891 10.81214844 1.07925781 11.74929688 1.08789062 12.71484375 C1.09111328 13.61074219 1.09433594 14.50664062 1.09765625 15.4296875 C1.10289307 16.25710449 1.10812988 17.08452148 1.11352539 17.93701172 C1 20 1 20 0 22 C-1.32 21.67 -2.64 21.34 -4 21 C-3.79503906 20.40574219 -3.59007812 19.81148438 -3.37890625 19.19921875 C-1.29640022 12.79227435 -0.37036322 6.71762246 0 0 Z " fill="#837D78" transform="translate(610,439)"/>
<path d="M0 0 C3.3 0 6.6 0 10 0 C10 1.98 10 3.96 10 6 C6.05879291 5.43697042 3.2491277 4.3208055 0 2 C0 1.34 0 0.68 0 0 Z " fill="#9E8D86" transform="translate(377,662)"/>
<path d="M0 0 C2.475 0.495 2.475 0.495 5 1 C5 2.98 5 4.96 5 7 C6.32 7.33 7.64 7.66 9 8 C4.545 8.495 4.545 8.495 0 9 C0 6.03 0 3.06 0 0 Z " fill="#B69A90" transform="translate(395,579)"/>
<path d="M0 0 C2.69282475 4.03923713 3.13300939 6.95536152 3.0625 11.75 C3.05347656 12.54921875 3.04445313 13.3484375 3.03515625 14.171875 C3.01775391 15.07679688 3.01775391 15.07679688 3 16 C2.01 16.33 1.02 16.66 0 17 C0 11.39 0 5.78 0 0 Z " fill="#C4C0BE" transform="translate(497,708)"/>
<path d="M0 0 C4.81366583 -0.0943856 9.28659085 -0.10903745 14 1 C14.99 1 15.98 1 17 1 C17 1.99 17 2.98 17 4 C11.32644329 3.38273804 5.66138945 2.72054048 0 2 C0 1.34 0 0.68 0 0 Z " fill="#847D78" transform="translate(414,701)"/>
<path d="M0 0 C1.65 0 3.3 0 5 0 C5.33 2.31 5.66 4.62 6 7 C4.33388095 7.042721 2.66617115 7.04063832 1 7 C0 6 0 6 -0.0625 2.9375 C-0.041875 1.968125 -0.02125 0.99875 0 0 Z " fill="#504C4B" transform="translate(327,593)"/>
<path d="M0 0 C2.89611544 0.14134727 5.7918081 0.2879153 8.6875 0.4375 C9.50412109 0.47681641 10.32074219 0.51613281 11.16210938 0.55664062 C15.19655811 0.76898003 19.05747309 1.04447922 23 2 C23 2.33 23 2.66 23 3 C16.73 3 10.46 3 4 3 C4 2.34 4 1.68 4 1 C2.68 0.67 1.36 0.34 0 0 Z " fill="#625D59" transform="translate(391,698)"/>
<path d="M0 0 C1.32 1.32 2.64 2.64 4 4 C0.99382731 7.00617269 -1.82381598 6.59585316 -6 7 C-4.02 4.69 -2.04 2.38 0 0 Z " fill="#595450" transform="translate(511,729)"/>
<path d="M0 0 C0.598125 0.20625 1.19625 0.4125 1.8125 0.625 C2.1425 2.935 2.4725 5.245 2.8125 7.625 C2.049375 7.00625 1.28625 6.3875 0.5 5.75 C-2.18375809 3.56902948 -2.18375809 3.56902948 -5.1875 1.625 C-2.1875 -0.375 -2.1875 -0.375 0 0 Z " fill="#B09D96" transform="translate(542.1875,651.375)"/>
<path d="M0 0 C2.31 0.33 4.62 0.66 7 1 C7 1.99 7 2.98 7 4 C4.69 4 2.38 4 0 4 C0 2.68 0 1.36 0 0 Z " fill="#BBB6B3" transform="translate(440,600)"/>
<path d="M0 0 C0.99 0 1.98 0 3 0 C3 3.63 3 7.26 3 11 C0.60236815 8.60236815 0.65719414 7.66726502 0.375 4.375 C0.30023438 3.55773437 0.22546875 2.74046875 0.1484375 1.8984375 C0.09945313 1.27195312 0.05046875 0.64546875 0 0 Z " fill="#837C78" transform="translate(479,702)"/>
<path d="M0 0 C1.32 0 2.64 0 4 0 C4 1.65 4 3.3 4 5 C2.35 5 0.7 5 -1 5 C-0.67 3.35 -0.34 1.7 0 0 Z " fill="#645E5B" transform="translate(401,622)"/>
<path d="M0 0 C2.64 0 5.28 0 8 0 C6.75 2 6.75 2 5 4 C3.68 4 2.36 4 1 4 C0.67 2.68 0.34 1.36 0 0 Z " fill="#88736B" transform="translate(385,578)"/>
<path d="M0 0 C0.33 0 0.66 0 1 0 C2.44608879 6.98942918 2.44608879 6.98942918 1.17578125 9.8671875 C0.0625 11.5 0.0625 11.5 -2 14 C-3.24153433 10.275397 -2.47452539 9.52247731 -1 6 C-0.62406934 4.0075675 -0.28020455 2.0081326 0 0 Z " fill="#454240" transform="translate(490,629)"/>
<path d="M0 0 C2.80435411 -0.05632424 5.35146678 0.04185298 8.125 0.3125 C9.25615234 0.4043457 9.25615234 0.4043457 10.41015625 0.49804688 C12.27463438 0.6514533 14.13752498 0.82393459 16 1 C16 1.33 16 1.66 16 2 C10.06 2.33 4.12 2.66 -2 3 C-1.34 2.01 -0.68 1.02 0 0 Z " fill="#837570" transform="translate(386,425)"/>
<path d="M0 0 C0.93972656 0.12568359 0.93972656 0.12568359 1.8984375 0.25390625 C3.12433594 0.40666016 3.12433594 0.40666016 4.375 0.5625 C5.59316406 0.71912109 5.59316406 0.71912109 6.8359375 0.87890625 C9.04899186 1.18237328 9.04899186 1.18237328 11 0 C11 0.66 11 1.32 11 2 C11.66 2 12.32 2 13 2 C13 2.66 13 3.32 13 4 C8.428721 3.45144652 4.32564205 2.58255197 0 1 C0 0.67 0 0.34 0 0 Z " fill="#6C6763" transform="translate(494,321)"/>
<path d="M0 0 C0.33 0 0.66 0 1 0 C1.06058594 0.81984375 1.12117188 1.6396875 1.18359375 2.484375 C1.26738281 3.56203125 1.35117187 4.6396875 1.4375 5.75 C1.51871094 6.81734375 1.59992188 7.8846875 1.68359375 8.984375 C1.94090773 11.43679962 2.31812218 13.63921291 3 16 C2.34 16 1.68 16 1 16 C-0.50156874 12.99686252 -0.09281204 10.20932478 -0.0625 6.875 C-0.05347656 5.59367187 -0.04445313 4.31234375 -0.03515625 2.9921875 C-0.02355469 2.00476563 -0.01195312 1.01734375 0 0 Z " fill="#716C68" transform="translate(270,400)"/>
<path d="M0 0 C2.97 0.33 5.94 0.66 9 1 C8.67 1.66 8.34 2.32 8 3 C5.125 3.1875 5.125 3.1875 2 3 C1.34 2.01 0.68 1.02 0 0 Z " fill="#726D6A" transform="translate(431,706)"/>
<path d="M0 0 C0.763125 0.0825 1.52625 0.165 2.3125 0.25 C1.52875 0.78625 0.745 1.3225 -0.0625 1.875 C-3.02176299 4.55242842 -3.73358256 6.43433025 -4.6875 10.25 C-5.0175 10.25 -5.3475 10.25 -5.6875 10.25 C-5.90929212 6.99704886 -5.97351103 4.82202207 -4.5 1.875 C-2.6875 0.25 -2.6875 0.25 0 0 Z " fill="#A7A19D" transform="translate(411.6875,603.75)"/>
<path d="M0 0 C1.258125 -0.020625 2.51625 -0.04125 3.8125 -0.0625 C4.52019531 -0.07410156 5.22789062 -0.08570313 5.95703125 -0.09765625 C8 0 8 0 11 1 C11 1.66 11 2.32 11 3 C6.94393835 2.53199289 3.53411321 2.12046792 0 0 Z " fill="#615753" transform="translate(407,581)"/>
<path d="M0 0 C1 3 1 3 0.375 5.0625 C-1 7 -1 7 -6 9 C-4.02 6.03 -2.04 3.06 0 0 Z " fill="#3A3835" transform="translate(354,354)"/>
<path d="M0 0 C2.97 0.495 2.97 0.495 6 1 C6 1.99 6 2.98 6 4 C4.35 3.67 2.7 3.34 1 3 C0.67 2.01 0.34 1.02 0 0 Z " fill="#4D4948" transform="translate(333,579)"/>
<path d="M0 0 C2.875 0.1875 2.875 0.1875 6 1 C7.375 3.5625 7.375 3.5625 8 6 C5.0280615 4.87548273 2.66559313 3.77706209 0 2 C0 1.34 0 0.68 0 0 Z " fill="#4C4541" transform="translate(469,546)"/>
<path d="M0 0 C1.98 0.99 1.98 0.99 4 2 C4 4.83967231 3.59732819 7.23735711 3 10 C2.67 10 2.34 10 2 10 C1.34 6.7 0.68 3.4 0 0 Z " fill="#403B38" transform="translate(503,521)"/>
<path d="M0 0 C2.31 0.33 4.62 0.66 7 1 C7 1.66 7 2.32 7 3 C5.02 3 3.04 3 1 3 C0.67 2.01 0.34 1.02 0 0 Z " fill="#C1BCB9" transform="translate(503,596)"/>
<path d="M0 0 C0.99 0.33 1.98 0.66 3 1 C3 2.32 3 3.64 3 5 C1.68 5 0.36 5 -1 5 C-0.67 3.35 -0.34 1.7 0 0 Z " fill="#BCB8B5" transform="translate(432,595)"/>
<path d="M0 0 C0.66 0 1.32 0 2 0 C2.66 1.65 3.32 3.3 4 5 C3.34 5 2.68 5 2 5 C1.67 6.32 1.34 7.64 1 9 C0.67 6.03 0.34 3.06 0 0 Z " fill="#C6B0A9" transform="translate(500,403)"/>
<path d="M0 0 C1.98 1.65 3.96 3.3 6 5 C5.01 5.495 5.01 5.495 4 6 C1.5249829 4.88568235 -0.67883419 3.41849022 -3 2 C-2.01 1.34 -1.02 0.68 0 0 Z " fill="#514D4A" transform="translate(566,335)"/>
<path d="M0 0 C0.99 0 1.98 0 3 0 C3 3 3 3 1 5.1875 C0.34 5.785625 -0.32 6.38375 -1 7 C-1.04254356 5.00045254 -1.04080783 2.99958364 -1 1 C-0.67 0.67 -0.34 0.34 0 0 Z " fill="#5A5552" transform="translate(311,323)"/>
<path d="M0 0 C1.37432457 3.81756824 0.67975039 7.07255329 0 11 C-0.66 11 -1.32 11 -2 11 C-1.125 3.375 -1.125 3.375 0 0 Z " fill="#484441" transform="translate(355,284)"/>
<path d="M0 0 C2.31 0 4.62 0 7 0 C7 0.99 7 1.98 7 3 C4.0625 2.625 4.0625 2.625 1 2 C0.67 1.34 0.34 0.68 0 0 Z " fill="#A9A09B" transform="translate(457,341)"/>
</svg>
