<?xml version="1.0" encoding="UTF-8"?>
<svg version="1.1" xmlns="http://www.w3.org/2000/svg" width="900" height="900">
<path d="M0 0 C2.61217153 0.80078619 5.10220511 1.32922447 7.79296875 1.76953125 C29.88362182 5.99810511 53.46976447 17.56704737 70.87109375 31.50390625 C73.46932155 33.54251576 76.08668234 35.35296357 78.85546875 37.14453125 C85.45133025 41.66431831 90.83434472 47.56907289 96.36694336 53.29589844 C97.77379995 54.74593731 99.20029535 56.17685785 100.62890625 57.60546875 C106.88354083 63.86010333 111.65387133 70.41798105 116.12109375 78.0390625 C117.68882167 80.78498782 117.68882167 80.78498782 119.34960938 82.27050781 C130.4462413 93.76098034 136.33732086 112.87657439 140.91796875 127.89453125 C141.51158203 129.74691406 141.51158203 129.74691406 142.1171875 131.63671875 C144.62342148 139.55604544 146.78487378 147.56318435 148.88671875 155.59765625 C149.05751953 156.24686035 149.22832031 156.89606445 149.40429688 157.56494141 C149.89082791 159.41625675 150.37326961 161.26864538 150.85546875 163.12109375 C151.6323773 165.8802616 152.48935527 168.47044698 153.46875 171.15234375 C155.24720397 176.41607505 155.70732476 181.62686952 156.10546875 187.14453125 C156.18514893 188.15797607 156.2648291 189.1714209 156.34692383 190.21557617 C157.09541497 200.2595072 157.34751285 210.05110724 156.0390625 220.06640625 C155.99910156 220.6696875 155.95914062 221.27296875 155.91796875 221.89453125 C156.24796875 222.22453125 156.57796875 222.55453125 156.91796875 222.89453125 C157.07610923 224.40034457 157.16914818 225.91309238 157.234375 227.42578125 C157.27651123 228.37324219 157.31864746 229.32070313 157.36206055 230.296875 C157.42067261 231.83021484 157.42067261 231.83021484 157.48046875 233.39453125 C157.5419812 234.95880859 157.5419812 234.95880859 157.60473633 236.5546875 C158.57340671 262.70678238 155.55590741 285.54883415 145.91796875 309.89453125 C145.60214844 310.77367187 145.28632812 311.6528125 144.9609375 312.55859375 C142.18369479 320.14211494 138.07230156 326.99964932 134.02880859 333.9609375 C133.02611197 335.70629074 132.05776324 337.47126769 131.09375 339.23828125 C127.78983803 345.21458822 124.1975722 350.24693542 119.484375 355.19140625 C117.56975787 357.20801973 115.74913928 359.23636555 113.9453125 361.34765625 C106.83333007 369.54444314 99.90598985 375.40897645 89.91796875 379.89453125 C89.25796875 379.89453125 88.59796875 379.89453125 87.91796875 379.89453125 C88.13936523 380.67876465 88.36076172 381.46299805 88.58886719 382.27099609 C89.62030523 385.93576738 90.64644233 389.60198701 91.66796875 393.26953125 C91.85159973 393.92880615 92.03523071 394.58808105 92.22442627 395.26733398 C94.64014767 403.96807272 96.92777808 412.67181466 98.72558594 421.52490234 C99.28105252 424.22893519 99.85579573 426.74680839 100.92895508 429.29663086 C104.06623 437.53749544 103.10051363 447.64570839 103.10546875 456.33203125 C103.11771484 457.48896484 103.12996094 458.64589844 103.14257812 459.83789062 C103.14451172 460.94841797 103.14644531 462.05894531 103.1484375 463.203125 C103.15254639 464.20142334 103.15665527 465.19972168 103.16088867 466.22827148 C102.91371244 468.94124795 102.30695122 470.57726672 100.91796875 472.89453125 C99.59796875 472.89453125 98.27796875 472.89453125 96.91796875 472.89453125 C96.73234375 473.69890625 96.54671875 474.50328125 96.35546875 475.33203125 C94.37183558 480.2479917 91.33518656 483.88270322 87.91796875 487.89453125 C87.39589844 488.51328125 86.87382813 489.13203125 86.3359375 489.76953125 C83.09803892 493.32353074 80.7322911 494.6652778 75.91796875 494.89453125 C75.85609375 495.94640625 75.79421875 496.99828125 75.73046875 498.08203125 C74.83769386 505.11106169 72.66547068 513.2820096 67.453125 518.23828125 C64.56364549 520.12601517 62.32789082 520.5773292 58.91796875 520.89453125 C59.28261517 527.02710191 59.28261517 527.02710191 61.41796875 532.70703125 C63.70479703 537.56654134 63.66871279 542.58280085 63.91796875 547.89453125 C51.58898596 553.48900657 39.21397903 554.37235302 25.85717773 554.23071289 C23.4858178 554.20708455 21.11558924 554.21018708 18.74414062 554.21679688 C8.63544962 554.19678277 -1.07291931 553.32930401 -11.08203125 551.89453125 C-12.07203125 543.47953125 -12.07203125 543.47953125 -13.08203125 534.89453125 C-13.74203125 535.22453125 -14.40203125 535.55453125 -15.08203125 535.89453125 C-17.08163137 535.93452325 -19.08250367 535.93799924 -21.08203125 535.89453125 C-20.93765625 536.63058594 -20.79328125 537.36664062 -20.64453125 538.125 C-20.45890625 539.10082031 -20.27328125 540.07664062 -20.08203125 541.08203125 C-19.89640625 542.04496094 -19.71078125 543.00789062 -19.51953125 544 C-19.11325513 546.68795185 -19.00269553 549.18224144 -19.08203125 551.89453125 C-21.24770669 552.37815821 -23.41462866 552.85620442 -25.58203125 553.33203125 C-27.391875 553.73228516 -27.391875 553.73228516 -29.23828125 554.140625 C-51.7486427 558.55576703 -77.05415896 557.18820905 -99.08203125 550.89453125 C-98.75203125 541.65453125 -98.42203125 532.41453125 -98.08203125 522.89453125 C-99.07203125 523.22453125 -100.06203125 523.55453125 -101.08203125 523.89453125 C-106.55165566 524.25319515 -110.63790379 524.44983322 -115.08203125 520.89453125 C-117.60454852 516.18228262 -120.08203125 511.30340978 -120.08203125 505.89453125 C-120.82066406 505.77851562 -121.55929687 505.6625 -122.3203125 505.54296875 C-132.3549026 503.18689809 -140.23391185 493.530221 -145.7890625 485.39453125 C-148.19189461 481.29517503 -149.71179191 477.70764261 -150.08203125 472.89453125 C-150.91734375 473.219375 -150.91734375 473.219375 -151.76953125 473.55078125 C-157.13391718 475.5080572 -161.38055508 476.20552086 -167.08203125 475.89453125 C-169.39099937 471.30408272 -169.39103093 467.2245474 -169.33203125 462.20703125 C-169.32526367 461.36906006 -169.31849609 460.53108887 -169.31152344 459.66772461 C-168.95675858 437.69086672 -164.32358312 416.67140456 -157.54833984 395.83032227 C-157.20109863 394.72744873 -156.85385742 393.6245752 -156.49609375 392.48828125 C-156.17592285 391.50537109 -155.85575195 390.52246094 -155.52587891 389.50976562 C-155.00835015 386.46038825 -155.3480937 385.40621622 -157.08203125 382.89453125 C-159.26746013 380.86333687 -159.26746013 380.86333687 -161.83203125 378.95703125 C-164.70035389 376.73891661 -167.54125369 374.53269833 -170.26953125 372.14453125 C-172.76702125 370.14653925 -175.24153683 368.70628926 -178.03515625 367.1796875 C-184.96071286 362.83138955 -191.0995697 356.99028962 -197.19140625 351.5546875 C-198.44840354 350.45091921 -199.73017277 349.37472175 -201.03515625 348.328125 C-209.42605377 341.47335635 -215.46416397 332.45474531 -220.80859375 323.109375 C-221.88333293 321.24012004 -223.06556272 319.4332845 -224.26953125 317.64453125 C-226.81902265 313.22259182 -227.44865754 308.15866989 -228.37109375 303.19921875 C-228.94966726 300.00192274 -228.94966726 300.00192274 -230.0703125 297.57421875 C-231.59191303 293.54403357 -232.04215836 289.39620019 -232.64453125 285.14453125 C-232.89215687 283.420041 -233.14326886 281.69604652 -233.3984375 279.97265625 C-233.50615479 279.2137207 -233.61387207 278.45478516 -233.72485352 277.67285156 C-233.91468282 275.87720663 -233.91468282 275.87720663 -235.08203125 274.89453125 C-235.29633568 273.43328015 -235.45250511 271.9633789 -235.58203125 270.4921875 C-235.66453125 269.60208984 -235.74703125 268.71199219 -235.83203125 267.79492188 C-235.91453125 266.85841797 -235.99703125 265.92191406 -236.08203125 264.95703125 C-236.24504107 263.1142562 -236.41154062 261.2717855 -236.58203125 259.4296875 C-236.65421875 258.60863525 -236.72640625 257.78758301 -236.80078125 256.94165039 C-236.97873975 254.8333546 -236.97873975 254.8333546 -238.08203125 252.89453125 C-238.44108551 249.53282704 -238.51307825 246.14692467 -238.64453125 242.76953125 C-238.68553955 241.71854248 -238.72654785 240.66755371 -238.76879883 239.5847168 C-240.5492716 188.64402679 -240.5492716 188.64402679 -234.765625 165 C-234.00236138 161.78828997 -234.00236138 161.78828997 -233.64453125 158.03125 C-233.13914541 153.68658705 -231.95733603 149.68047099 -230.64453125 145.51953125 C-229.25062519 140.97575955 -227.91050586 136.53160466 -227.14453125 131.83203125 C-225.95119625 125.18345054 -223.26211127 118.9654519 -220.79296875 112.70703125 C-220.20698126 111.21308513 -219.64166535 109.71104788 -219.08203125 108.20703125 C-210.41814437 85.30961592 -196.96562084 64.50999542 -180.08203125 46.89453125 C-179.20933594 45.97414062 -178.33664062 45.05375 -177.4375 44.10546875 C-175.08203125 41.89453125 -175.08203125 41.89453125 -172.08203125 40.89453125 C-172.08203125 40.23453125 -172.08203125 39.57453125 -172.08203125 38.89453125 C-170.40078113 37.69910647 -168.65955042 36.58740282 -166.89453125 35.51953125 C-163.95641431 33.7338484 -161.2357887 32.02517642 -158.61328125 29.796875 C-149.81711523 23.18617615 -133.27079711 21.57807843 -122.42578125 20.546875 C-116.36911128 20.13196132 -116.36911128 20.13196132 -111.25 17.2734375 C-110.19601448 15.90459049 -109.16290366 14.51948069 -108.1484375 13.12109375 C-104.07476747 8.73169504 -98.33695442 6.41627667 -93.00219727 3.8371582 C-91.69930802 3.19755803 -90.40813955 2.53362312 -89.12866211 1.84838867 C-64.00686514 -11.46520546 -26.11189744 -8.02287298 0 0 Z " fill="#1D1C1A" transform="translate(465.08203125,195.10546875)"/>
<path d="M0 0 C0 0.66 0 1.32 0 2 C0.88042969 2.26425781 1.76085937 2.52851563 2.66796875 2.80078125 C11.41030404 5.94720204 18.81351362 12.2508109 26 18 C26.73863281 18.50660156 27.47726562 19.01320312 28.23828125 19.53515625 C30 21 30 21 30.25 23.6875 C30.1675 24.450625 30.085 25.21375 30 26 C30.89847656 25.9278125 31.79695312 25.855625 32.72265625 25.78125 C36.61850264 26.04128266 37.65622378 26.84630526 40.4375 29.5 C41.20835937 30.2321875 41.97921875 30.964375 42.7734375 31.71875 C45.38165339 34.39102733 47.84317351 37.14943381 50.25390625 40 C52.0861704 42.09870077 54.0131769 44.04749822 56 46 C62.30505685 52.23244583 67.92200346 59.01395072 73.484375 65.91015625 C75.26137954 68.09278139 77.05642531 70.23826115 78.890625 72.37109375 C87.85862891 82.95359876 101.05075732 99.26174606 100 114 C98.5 116.6875 98.5 116.6875 96 119 C95.0892527 120.26018811 94.19483091 121.53225515 93.3125 122.8125 C83.87420785 135.25706298 68.54207205 143.70955697 54 149 C53.01 149 52.02 149 51 149 C51 149.66 51 150.32 51 151 C49.88882813 151.43570313 48.77765625 151.87140625 47.6328125 152.3203125 C36.2267022 156.85811696 26.34171264 161.81808707 16.8125 169.6796875 C15 171 15 171 13 171 C13 171.66 13 172.32 13 173 C11.87695033 174.08795436 10.75284245 175.17482742 9.625 176.2578125 C5.98828238 180.15679341 3.04868745 184.6385104 0 189 C-0.46664062 189.62519531 -0.93328125 190.25039063 -1.4140625 190.89453125 C-5.84726848 197.22972561 -7.96999557 204.79479602 -10.35693359 212.07910156 C-10.89972141 213.70045862 -11.50021947 215.30232579 -12.11328125 216.8984375 C-16.78953959 233.25504157 -15.16447443 253.7357066 -11 270 C-10.63817627 271.41635742 -10.63817627 271.41635742 -10.26904297 272.86132812 C-9.19362597 277.03762877 -8.11133846 281.21122493 -6.98193359 285.37329102 C-6.72621582 286.31873779 -6.47049805 287.26418457 -6.20703125 288.23828125 C-5.9747583 289.08430908 -5.74248535 289.93033691 -5.50317383 290.80200195 C-5 293 -5 293 -5 296 C-4.34 296 -3.68 296 -3 296 C-1.99353274 299.43564022 -0.9959455 302.87379629 0 306.3125 C0.28617187 307.28896484 0.57234375 308.26542969 0.8671875 309.27148438 C1.13789063 310.20927734 1.40859375 311.14707031 1.6875 312.11328125 C1.93886719 312.97735596 2.19023437 313.84143066 2.44921875 314.73168945 C3 317 3 317 3 320 C3.66 320 4.32 320 5 320 C5.66 322.97 6.32 325.94 7 329 C-3.28919575 329.19936009 -13.37849805 329.30663856 -23.5546875 327.5703125 C-26.97507676 326.93068781 -26.97507676 326.93068781 -30.3828125 326.8671875 C-34.049973 326.51578883 -35.9926667 326.16398251 -39 324 C-42.30900447 318.21038638 -43.60707489 311.45810731 -45 305 C-45.25668457 303.85772949 -45.25668457 303.85772949 -45.51855469 302.69238281 C-45.85493163 301.1952777 -46.18599714 299.6969692 -46.51171875 298.19750977 C-46.82729286 296.77726848 -47.15953096 295.36058224 -47.51171875 293.94897461 C-49.23745402 286.86242715 -49.89852096 279.68375776 -50.625 272.4375 C-50.82609375 270.49520508 -50.82609375 270.49520508 -51.03125 268.51367188 C-51.35885757 265.34289856 -51.68164837 262.1717137 -52 259 C-53.77643571 264.85707584 -53.24066268 271.12461732 -53.25 277.1875 C-53.25233643 277.87119659 -53.25467285 278.55489319 -53.25708008 279.25930786 C-53.27428899 292.6554683 -52.02330269 305.75346602 -50 319 C-53.9646056 318.28089685 -56.7429078 317.4645331 -60 315 C-61.40625 312.5390625 -61.40625 312.5390625 -62.5 309.625 C-62.90992188 308.55507813 -63.31984375 307.48515625 -63.7421875 306.3828125 C-64.15726562 305.26648438 -64.57234375 304.15015625 -65 303 C-65.43570313 301.92492187 -65.87140625 300.84984375 -66.3203125 299.7421875 C-69.20096334 292.58368391 -71.28547989 285.51241421 -73 278 C-73.38238673 276.39151534 -73.76665812 274.78347808 -74.15234375 273.17578125 C-76.80245571 262.12531442 -79.40452139 251.06340882 -82 240 C-85.08584296 246.17168591 -84.19346703 254.81736707 -84.1875 261.5625 C-84.18669434 262.51833984 -84.18588867 263.47417969 -84.18505859 264.45898438 C-84.0958205 274.92258819 -83.36869188 285.03428651 -80 295 C-79.875 298.375 -79.875 298.375 -80 301 C-91.13658569 293.62745584 -98.87082474 283.75435997 -105 272 C-105.49628906 271.14148438 -105.99257813 270.28296875 -106.50390625 269.3984375 C-108.70231583 264.40466117 -109.80595441 259.24909069 -111 253.9375 C-111.26127686 252.78588379 -111.52255371 251.63426758 -111.79174805 250.44775391 C-113.37511393 243.28926041 -114.76341755 236.13138245 -115.8125 228.875 C-115.97975586 227.72632446 -115.97975586 227.72632446 -116.15039062 226.55444336 C-118.26653636 210.59742403 -118.18634774 194.53637885 -118.18530273 178.47143555 C-118.18750545 174.67811113 -118.20576902 170.88507074 -118.22460938 167.09179688 C-118.22754145 164.64843848 -118.22952749 162.20507872 -118.23046875 159.76171875 C-118.23765427 158.64375412 -118.24483978 157.52578949 -118.25224304 156.37394714 C-118.23440118 150.17645531 -117.72606898 144.39166319 -116.45953369 138.32037354 C-115.84925565 135.23883014 -115.68790458 132.19761457 -115.5625 129.0625 C-115.21879061 123.43425876 -114.24831147 118.35776942 -112.75 112.93359375 C-111.98472276 109.94024372 -111.50310789 106.99421726 -111.0625 103.9375 C-110.27474322 98.8958566 -108.84591933 94.44179544 -106.9921875 89.69921875 C-106.02390601 87.06503563 -105.34012529 84.47732914 -104.6875 81.75 C-103.25623002 76.20882626 -100.93625913 71.24357049 -98.42456055 66.12597656 C-96.95312356 63.12011504 -95.61305402 60.30552099 -95 57 C-94.34 57 -93.68 57 -93 57 C-92.9278125 56.33226562 -92.855625 55.66453125 -92.78125 54.9765625 C-91.72372562 50.94739461 -89.73093621 47.86415768 -87.5 44.375 C-87.0565625 43.67439453 -86.613125 42.97378906 -86.15625 42.25195312 C-82.24087512 36.17311117 -78.08281956 30.17045438 -73 25 C-72.34 25 -71.68 25 -71 25 C-70.78988281 24.44828125 -70.57976562 23.8965625 -70.36328125 23.328125 C-68.51338006 20.16898141 -65.96737743 18.06203748 -63.1875 15.75 C-62.61507568 15.27054932 -62.04265137 14.79109863 -61.45288086 14.29711914 C-50.14806326 5.03818501 -39.63221094 0.10610298 -25.0625 -1.6875 C-24.00353516 -1.82994141 -22.94457031 -1.97238281 -21.85351562 -2.11914062 C-13.74446223 -3.13593397 -7.75066206 -2.83560807 0 0 Z " fill="#A39C97" transform="translate(363,235)"/>
<path d="M0 0 C2.3816099 0.53312188 4.02557233 1.01579468 6.125 2.3125 C9.43250932 4.25386416 12.79035522 5.59173909 16.36328125 6.96875 C17.97888456 7.6006304 19.584126 8.26101486 21.16796875 8.96875 C29.30396565 12.53994864 37.95180675 14.33482667 46.55810547 16.41064453 C58.05012261 19.18426275 69.01122248 22.66802463 80 27 C80 27.66 80 28.32 80 29 C81.3303125 29.38091797 81.3303125 29.38091797 82.6875 29.76953125 C90.04887834 32.50400552 95.97514319 38.43078081 100.74609375 44.5546875 C102.12845294 46.27701364 102.12845294 46.27701364 105 48 C106.60774292 56.40175331 104.41525361 66.35287092 103.53515625 74.81640625 C103.456604 75.57381104 103.37805176 76.33121582 103.29711914 77.11157227 C103 79 103 79 102 81 C100.36804688 80.89558594 100.36804688 80.89558594 98.703125 80.7890625 C85.38451828 80.18830315 76.94751952 83.08371067 66.8125 92.125 C60.25176039 98.29372247 54.82295694 105.33702654 50.16015625 113.0390625 C44.87740647 121.68356215 38.36027796 127.42648136 30 133 C29.34 133 28.68 133 28 133 C28 133.66 28 134.32 28 135 C28.86625 135.433125 28.86625 135.433125 29.75 135.875 C31.10041146 136.55020573 32.43912137 137.2509265 33.75 138 C36.36348296 139.16154798 39.01474002 139.78023143 41.79296875 140.4296875 C44.08380364 141.02165545 46.27135862 141.76958096 48.5 142.5625 C55.65429463 144.98809989 62.4952559 145.11726163 70 145 C66.535 142.525 66.535 142.525 63 140 C63.33 139.01 63.66 138.02 64 137 C66.984375 135.75390625 66.984375 135.75390625 70.75 134.5625 C75.6854888 132.99821851 79.12474334 131.44467259 83 128 C86.732318 124.97819208 90.11930962 122.80571262 94.734375 121.34765625 C95.53584961 121.09121338 96.33732422 120.83477051 97.16308594 120.57055664 C97.76926758 120.38227295 98.37544922 120.19398926 99 120 C99.71702299 142.73514447 100.014636 161.3501517 83.5 179 C78.7969886 183.57396536 68.99978589 193 62 193 C62 193.66 62 194.32 62 195 C55.77820987 197.8777789 49.45888845 200.42077718 43.046875 202.84375 C41.34143972 203.49094082 39.63956983 204.14857427 37.953125 204.84375 C33.5777117 206.6248917 29.06524438 207.86847913 24.5 209.0625 C23.2728125 209.38347656 22.045625 209.70445312 20.78125 210.03515625 C7.44204156 212.95649101 -5.90699951 213.36858527 -19.5 213.3125 C-20.37241333 213.31134186 -21.24482666 213.31018372 -22.14367676 213.30899048 C-39.54890293 213.26343018 -56.79632041 212.38816982 -73.640625 207.62890625 C-77.07414884 206.71367887 -80.46754644 206.339659 -84 206 C-84 205.34 -84 204.68 -84 204 C-85.98 204 -87.96 204 -90 204 C-90.95447488 201.61381281 -91.90836483 199.22741506 -92.859375 196.83984375 C-93.56718262 195.07759669 -94.28421084 193.31898711 -95.015625 191.56640625 C-96.9154947 186.97505448 -98.52328561 182.39016414 -99.9375 177.625 C-101.20352235 173.37690156 -102.64398799 169.3647162 -104.4375 165.3125 C-111.66120232 148.03842923 -112.67652959 132.69719617 -112 114 C-111.34 114 -110.68 114 -110 114 C-108.80859375 115.5390625 -108.80859375 115.5390625 -107.4375 117.625 C-101.86225299 125.25713426 -95.18782671 128.54161481 -86 130 C-86 130.66 -86 131.32 -86 132 C-85.236875 132.0825 -84.47375 132.165 -83.6875 132.25 C-80.54037175 132.89009388 -77.96280364 133.72807058 -74.98828125 134.87890625 C-69.23989901 136.99785804 -63.48864573 138.4307734 -57.5 139.6875 C-56.54480469 139.89955078 -55.58960938 140.11160156 -54.60546875 140.33007812 C-48.08853989 141.72782268 -41.64778813 142.5435726 -35 143 C-35 143.66 -35 144.32 -35 145 C-36.64453125 146.40234375 -36.64453125 146.40234375 -38.8125 147.9375 C-41.43530583 149.80547282 -43.78449355 151.65869193 -46 154 C-36.82683321 151.73887873 -26.92498631 149.2833242 -19 144 C-17.68 144 -16.36 144 -15 144 C-15 143.34 -15 142.68 -15 142 C-8.61222358 139.72638467 -2.25395192 138.07550354 4.375 136.6484375 C6.91016599 136.26213312 6.91016599 136.26213312 8 135 C9.99958364 134.95919217 12.00045254 134.95745644 14 135 C14 134.01 14 133.02 14 132 C13.32582031 131.92136719 12.65164063 131.84273437 11.95703125 131.76171875 C8.11641855 130.77239315 5.02790073 128.87618539 1.6875 126.8125 C1.06166016 126.43802734 0.43582031 126.06355469 -0.20898438 125.67773438 C-8.51942257 120.62328325 -15.24247742 114.97681332 -21.75 107.75 C-28.10474684 100.86181742 -34.50308982 94.66031772 -42 89 C-43.03511719 88.21109375 -44.07023437 87.4221875 -45.13671875 86.609375 C-52.65306639 81.05411079 -60.25764996 77.25879715 -69 74 C-69.86238281 73.6596875 -70.72476563 73.319375 -71.61328125 72.96875 C-78.59131585 70.50188343 -85.66119833 70.46923827 -93 71 C-93.33 71.33 -93.66 71.66 -94 72 C-95.66617115 72.04063832 -97.33388095 72.042721 -99 72 C-98.07161713 70.68103535 -97.13194268 69.37001311 -96.1875 68.0625 C-95.66542969 67.33160156 -95.14335937 66.60070312 -94.60546875 65.84765625 C-93 64 -93 64 -90 63 C-90 62.34 -90 61.68 -90 61 C-83.43274722 54.56541899 -75.02473153 50.40795851 -66.56640625 47.02734375 C-40.66564733 36.65915563 -15.27758914 24.17552567 0 0 Z " fill="#D1BAB2" transform="translate(477,356)"/>
<path d="M0 0 C1.08732422 0.00789551 2.17464844 0.01579102 3.29492188 0.02392578 C27.77527413 0.2805863 27.77527413 0.2805863 36.71264648 2.70239258 C38.91942787 3.19746705 40.97043865 3.34893021 43.2265625 3.47265625 C50.21591911 4.13940619 56.69524969 6.38043783 63.3125 8.625 C63.97085846 8.84548004 64.62921692 9.06596008 65.30752563 9.29312134 C76.79922568 13.16629179 87.47514869 17.92827914 97.875 24.1875 C98.89851562 24.79207031 99.92203125 25.39664063 100.9765625 26.01953125 C103.66476851 27.67351391 106.27482152 29.39845591 108.875 31.1875 C109.43026367 31.5690625 109.98552734 31.950625 110.55761719 32.34375 C119.69677415 38.65682119 128.04199546 45.28371529 135.875 53.1875 C136.66777344 53.98285156 137.46054687 54.77820313 138.27734375 55.59765625 C156.00583619 74.14564757 169.43766241 96.57655643 175.875 121.49609375 C176.59594618 124.157399 177.36451918 126.57831439 178.3515625 129.1328125 C180.22919078 133.99709479 181.54736524 138.97334823 182.8815918 144.00854492 C183.89147587 147.77382433 184.93489623 151.4670503 186.30859375 155.1171875 C191.27249539 168.78650354 190.35069103 182.84504949 189.875 197.1875 C185.29950446 195.53933508 183.31950237 193.73965174 180.3125 189.875 C179.56871094 188.93011719 178.82492187 187.98523438 178.05859375 187.01171875 C176.71531869 185.27435226 175.39361093 183.51973242 174.109375 181.73828125 C171.00964396 178.19960229 167.43354335 175.51260006 163.6875 172.6875 C162.97013672 172.13191406 162.25277344 171.57632813 161.51367188 171.00390625 C152.69076348 164.28996521 144.023238 160.2654742 133.4375 157 C132.36951172 156.65775391 131.30152344 156.31550781 130.20117188 155.96289062 C123.80733326 153.95138978 117.46960494 152.36804608 110.875 151.1875 C95.65868531 148.33279202 79.13397973 143.2718052 68.25 131.5625 C66.49090761 129.67126922 65.26269293 128.35633095 62.88476562 127.32080078 C60.45286027 125.94945668 60.02681873 125.02948744 59.0078125 122.46875 C58.68699707 121.71029785 58.36618164 120.9518457 58.03564453 120.17041016 C57.52300049 118.94136963 57.52300049 118.94136963 57 117.6875 C52.18042284 106.85427843 45.4732222 98.20656352 37.875 89.1875 C36.90064096 88.01335324 35.92665516 86.83889661 34.953125 85.6640625 C32.73268586 83.00136175 30.47625566 80.37179805 28.20947266 77.74853516 C26.86375994 76.17435164 25.54497939 74.58076357 24.23046875 72.98046875 C11.46753829 57.56199607 -2.71142398 42.73623948 -19.125 31.1875 C-19.74745605 30.74728516 -20.36991211 30.30707031 -21.01123047 29.85351562 C-28.41415956 24.66535937 -35.84714019 19.88819027 -44.125 16.1875 C-43.125 13.1875 -43.125 13.1875 -41.19140625 12.01171875 C-40.36511719 11.63660156 -39.53882813 11.26148438 -38.6875 10.875 C-34.18499732 8.76445187 -30.1295351 6.33580998 -26.03515625 3.51953125 C-17.89135021 -0.20803635 -8.79555338 -0.11111039 0 0 Z " fill="#CCC2BC" transform="translate(413.125,206.8125)"/>
<path d="M0 0 C7.5223877 3.43413352 13.22146501 8.17400861 19.0546875 13.95703125 C19.77269531 14.63765625 20.49070312 15.31828125 21.23046875 16.01953125 C24.78254716 19.43636018 24.78254716 19.43636018 26.0546875 20.95703125 C26.0546875 21.61703125 26.0546875 22.27703125 26.0546875 22.95703125 C27.5396875 23.45203125 27.5396875 23.45203125 29.0546875 23.95703125 C30.28116687 25.47399258 31.50654938 26.99195193 32.71484375 28.5234375 C34.55399064 30.49127105 36.49649113 31.226118 39.0546875 31.95703125 C39.1784375 31.17328125 39.3021875 30.38953125 39.4296875 29.58203125 C40.0546875 26.95703125 40.0546875 26.95703125 42.0546875 24.95703125 C45.8473452 28.0878124 46.2263954 31.62783482 46.95703125 36.3125 C47.0546875 38.95703125 47.0546875 38.95703125 45.5546875 41.64453125 C44.3171875 42.78921875 44.3171875 42.78921875 43.0546875 43.95703125 C42.1439402 45.21721936 41.24951841 46.4892864 40.3671875 47.76953125 C30.92889535 60.21409423 15.59675955 68.66658822 1.0546875 73.95703125 C0.0646875 73.95703125 -0.9253125 73.95703125 -1.9453125 73.95703125 C-1.9453125 74.61703125 -1.9453125 75.27703125 -1.9453125 75.95703125 C-3.05648437 76.39273438 -4.16765625 76.8284375 -5.3125 77.27734375 C-16.7186103 81.81514821 -26.60359986 86.77511832 -36.1328125 94.63671875 C-37.9453125 95.95703125 -37.9453125 95.95703125 -39.9453125 95.95703125 C-39.9453125 96.61703125 -39.9453125 97.27703125 -39.9453125 97.95703125 C-41.06836217 99.04498561 -42.19247005 100.13185867 -43.3203125 101.21484375 C-46.95703012 105.11382466 -49.89662505 109.59554165 -52.9453125 113.95703125 C-53.64527344 114.89482422 -53.64527344 114.89482422 -54.359375 115.8515625 C-58.79258098 122.18675686 -60.91530807 129.75182727 -63.30224609 137.03613281 C-63.84503391 138.65748987 -64.44553197 140.25935704 -65.05859375 141.85546875 C-69.73485209 158.21207282 -68.10978693 178.69273785 -63.9453125 194.95703125 C-63.70409668 195.90126953 -63.46288086 196.84550781 -63.21435547 197.81835938 C-62.13893847 201.99466002 -61.05665096 206.16825618 -59.92724609 210.33032227 C-59.67152832 211.27576904 -59.41581055 212.22121582 -59.15234375 213.1953125 C-58.9200708 214.04134033 -58.68779785 214.88736816 -58.44848633 215.7590332 C-57.9453125 217.95703125 -57.9453125 217.95703125 -57.9453125 220.95703125 C-57.2853125 220.95703125 -56.6253125 220.95703125 -55.9453125 220.95703125 C-54.93884524 224.39267147 -53.941258 227.83082754 -52.9453125 231.26953125 C-52.65914063 232.24599609 -52.37296875 233.22246094 -52.078125 234.22851562 C-51.80742187 235.16630859 -51.53671875 236.10410156 -51.2578125 237.0703125 C-51.00644531 237.93438721 -50.75507813 238.79846191 -50.49609375 239.6887207 C-49.9453125 241.95703125 -49.9453125 241.95703125 -49.9453125 244.95703125 C-49.2853125 244.95703125 -48.6253125 244.95703125 -47.9453125 244.95703125 C-47.2853125 247.92703125 -46.6253125 250.89703125 -45.9453125 253.95703125 C-49.5753125 253.95703125 -53.2053125 253.95703125 -56.9453125 253.95703125 C-59.98003693 248.1677108 -62.38541997 242.38503779 -64.5078125 236.20703125 C-64.81227295 235.33030762 -65.1167334 234.45358398 -65.43041992 233.55029297 C-67.35751377 227.91501125 -69.04587975 222.28333961 -70.33984375 216.46484375 C-70.92392216 213.88352259 -70.92392216 213.88352259 -71.89453125 211.14453125 C-75.89099725 199.02142251 -77.50509887 186.56200878 -78.55078125 173.89453125 C-78.6875147 170.17611706 -78.6875147 170.17611706 -79.9453125 167.95703125 C-80.04432222 166.6118188 -80.08358084 165.26191896 -80.09057617 163.91308594 C-80.09695602 163.0775116 -80.10333588 162.24193726 -80.10990906 161.38104248 C-80.11102188 160.47283752 -80.1121347 159.56463257 -80.11328125 158.62890625 C-80.11660965 157.6883136 -80.11993805 156.74772095 -80.12336731 155.77862549 C-80.128441 153.7778777 -80.1307755 151.77712141 -80.13061523 149.77636719 C-80.13277392 146.76091806 -80.15084658 143.74585171 -80.16992188 140.73046875 C-80.20050946 130.23528024 -79.72864118 120.3130198 -77.9453125 109.95703125 C-77.74150817 108.27272621 -77.55243976 106.58652703 -77.3828125 104.8984375 C-77.30804688 104.16302734 -77.23328125 103.42761719 -77.15625 102.66992188 C-77.01296811 101.20924256 -76.87243941 99.74829108 -76.734375 98.28710938 C-76.25624225 93.64180235 -75.27410399 89.45057806 -73.9453125 84.95703125 C-73.45553631 82.31170163 -72.99749498 79.67438665 -72.5703125 77.01953125 C-70.50046632 64.86684365 -67.69473568 53.34656936 -63.05078125 41.88671875 C-61.56661511 37.95341627 -60.71482412 34.08441174 -59.9453125 29.95703125 C-57.37886123 29.22611472 -55.8398657 28.96874756 -53.1328125 29.26953125 C-46.21530551 28.59134429 -42.11490102 21.98191998 -37.9453125 16.95703125 C-35.46507608 14.61243276 -32.97467435 12.45611578 -29.8828125 10.95703125 C-27.73646663 9.98464903 -27.73646663 9.98464903 -25.8203125 7.70703125 C-18.12519426 0.34648337 -10.46450111 -3.7055992 0 0 Z " fill="#CCC3BD" transform="translate(415.9453125,310.04296875)"/>
<path d="M0 0 C2.3816099 0.53312188 4.02557233 1.01579468 6.125 2.3125 C9.43250932 4.25386416 12.79035522 5.59173909 16.36328125 6.96875 C17.97888456 7.6006304 19.584126 8.26101486 21.16796875 8.96875 C29.30396565 12.53994864 37.95180675 14.33482667 46.55810547 16.41064453 C58.05012261 19.18426275 69.01122248 22.66802463 80 27 C80 27.66 80 28.32 80 29 C81.3303125 29.38091797 81.3303125 29.38091797 82.6875 29.76953125 C90.04887834 32.50400552 95.97514319 38.43078081 100.74609375 44.5546875 C102.12845294 46.27701364 102.12845294 46.27701364 105 48 C106.60774292 56.40175331 104.41525361 66.35287092 103.53515625 74.81640625 C103.456604 75.57381104 103.37805176 76.33121582 103.29711914 77.11157227 C103 79 103 79 102 81 C100.36804688 80.89558594 100.36804688 80.89558594 98.703125 80.7890625 C87.09594527 80.27795465 79.78161612 82.47892259 70 89 C70 88.01 70 87.02 70 86 C68.845 85.71125 67.69 85.4225 66.5 85.125 C48.45636282 79.03491838 27.88274416 62.43586881 18.703125 45.625 C18.47109375 45.08875 18.2390625 44.5525 18 44 C18.51148229 52.8656931 21.64863677 60.92743807 27 68 C27 68.66 27 69.32 27 70 C24.39869018 69.47973804 22.28508759 68.68058987 19.84375 67.58984375 C16.00066741 65.92522511 12.12676355 64.85481281 8.0625 63.875 C7.39798828 63.70613281 6.73347656 63.53726563 6.04882812 63.36328125 C-6.73146955 60.21469191 -18.08242716 61.0161758 -31 63 C-33.66474186 63.3540022 -36.33096342 63.67971561 -39 64 C-39 64.66 -39 65.32 -39 66 C-39.70125 66.24234375 -40.4025 66.4846875 -41.125 66.734375 C-46.989508 68.8060762 -52.50070607 71.09471264 -58 74 C-58 75.32 -58 76.64 -58 78 C-59.2375 77.5875 -60.475 77.175 -61.75 76.75 C-62.57628906 76.48058594 -63.40257812 76.21117187 -64.25390625 75.93359375 C-66.11035519 75.30245393 -67.9520447 74.62641284 -69.77734375 73.91015625 C-77.57389858 70.96944228 -84.68729988 70.27664093 -93 71 C-93.495 71.495 -93.495 71.495 -94 72 C-95.66617115 72.04063832 -97.33388095 72.042721 -99 72 C-98.07161713 70.68103535 -97.13194268 69.37001311 -96.1875 68.0625 C-95.66542969 67.33160156 -95.14335937 66.60070312 -94.60546875 65.84765625 C-93 64 -93 64 -90 63 C-90 62.34 -90 61.68 -90 61 C-83.43274722 54.56541899 -75.02473153 50.40795851 -66.56640625 47.02734375 C-40.66564733 36.65915563 -15.27758914 24.17552567 0 0 Z " fill="#B29E97" transform="translate(477,356)"/>
<path d="M0 0 C1.10085938 0.00338379 2.20171875 0.00676758 3.3359375 0.01025391 C27.76113005 0.16344575 27.76113005 0.16344575 36.90014648 2.63989258 C39.10692787 3.13496705 41.15793865 3.28643021 43.4140625 3.41015625 C50.40341911 4.07690619 56.88274969 6.31793783 63.5 8.5625 C64.15835846 8.78298004 64.81671692 9.00346008 65.49502563 9.23062134 C76.98672568 13.10379179 87.66264869 17.86577914 98.0625 24.125 C99.08601562 24.72957031 100.10953125 25.33414063 101.1640625 25.95703125 C103.85226851 27.61101391 106.46232152 29.33595591 109.0625 31.125 C109.61776367 31.5065625 110.17302734 31.888125 110.74511719 32.28125 C119.88427415 38.59432119 128.22949546 45.22121529 136.0625 53.125 C136.85527344 53.92035156 137.64804687 54.71570313 138.46484375 55.53515625 C156.19333619 74.08314757 169.62516241 96.51405643 176.0625 121.43359375 C176.78344618 124.094899 177.55201918 126.51581439 178.5390625 129.0703125 C180.41571672 133.93207134 181.73097543 138.90600037 183.0690918 143.93725586 C184.09267259 147.74289638 185.15451469 151.48843757 186.49609375 155.1953125 C190.90608425 167.73252689 190.57874362 179.94887445 190.0625 193.125 C186.42290459 191.91180153 185.95644987 190.52892965 184.25894165 187.23683167 C183.91825653 186.55152878 183.57757141 185.86622589 183.2265625 185.16015625 C182.86533295 184.45281845 182.50410339 183.74548065 182.13192749 183.01670837 C180.97450631 180.74488198 179.83092018 178.46639993 178.6875 176.1875 C177.92537304 174.68639479 177.16236172 173.18573824 176.3984375 171.68554688 C174.58695213 168.12303757 172.78990747 164.55349068 170.99768066 160.98126221 C170.17752898 159.35332374 169.34693122 157.73065668 168.51464844 156.10888672 C166.00823125 151.2058841 163.88676061 146.31813156 162.0625 141.125 C159.79010747 134.87738094 157.16876139 129.00807081 154.0625 123.125 C153.01779814 121.02233863 151.97623594 118.91811498 150.9375 116.8125 C149.12500659 113.1434255 147.20830822 109.61035122 145.0625 106.125 C144.20398438 106.28484375 143.34546875 106.4446875 142.4609375 106.609375 C134.15794524 107.86913934 125.5711242 108.30539035 118.0625 104.125 C117.40894531 103.76921875 116.75539063 103.4134375 116.08203125 103.046875 C109.33277872 98.71273218 105.84158755 91.99122949 102.0625 85.125 C101.69801758 84.50415527 101.33353516 83.88331055 100.95800781 83.24365234 C99.88125498 80.69619839 99.92467783 78.95609001 100.0703125 76.203125 C100.73310262 65.56146825 100.73310262 65.56146825 96.75390625 56.1796875 C93.6163265 54.16412912 90.46438088 52.64658287 87.0625 51.125 C85.12303022 49.82505929 83.20590705 48.49116201 81.3125 47.125 C74.2429264 42.40886244 66.72515538 38.75877326 59.0625 35.125 C58.10472656 34.66222656 57.14695312 34.19945312 56.16015625 33.72265625 C50.82320551 31.21067793 45.37445243 29.00197918 39.875 26.875 C39.22144531 26.61638184 38.56789063 26.35776367 37.89453125 26.09130859 C31.34630842 23.6175722 25.22316393 22.54351655 18.25 24 C17.33605469 24.18304688 16.42210937 24.36609375 15.48046875 24.5546875 C12.94233434 25.11505647 12.94233434 25.11505647 10.0625 26.125 C11.3825 26.455 12.7025 26.785 14.0625 27.125 C14.0625 27.785 14.0625 28.445 14.0625 29.125 C9.12048092 31.10180763 5.31100659 31.55520546 0.0625 31.125 C-1.875 30.125 -1.875 30.125 -2.9375 28.125 C-3.4665635 25.44264804 -3.71324285 22.86093725 -3.9375 20.125 C-11.93240666 16.66376005 -18.9505756 15.49186304 -27.625 15.375 C-28.72005859 15.34535156 -29.81511719 15.31570312 -30.94335938 15.28515625 C-33.60814278 15.2153366 -36.27209637 15.16221107 -38.9375 15.125 C-36.27493531 10.62878227 -34.11121686 8.21185843 -29.4375 5.875 C-28.4990625 5.39546875 -27.560625 4.9159375 -26.59375 4.421875 C-25.27890625 3.77992188 -25.27890625 3.77992188 -23.9375 3.125 C-23.3290625 2.75890625 -22.720625 2.3928125 -22.09375 2.015625 C-15.33111874 -0.77763574 -7.17693962 -0.03168868 0 0 Z " fill="#E4DFDC" transform="translate(412.9375,206.875)"/>
<path d="M0 0 C1.96583244 0.75455692 3.94827239 1.44057154 5.93896484 2.12646484 C16.12533143 5.83199787 16.12533143 5.83199787 18.73974609 10.86474609 C19.44677734 12.81005859 19.44677734 12.81005859 19.92724609 14.73974609 C20.18441406 15.67101318 20.18441406 15.67101318 20.44677734 16.62109375 C21.22288268 20.04337124 21.11171009 23.49833925 21.11474609 26.98974609 C21.12699219 27.71548828 21.13923828 28.44123047 21.15185547 29.18896484 C21.16569416 34.36463599 20.34075675 38.76033355 18.92724609 43.73974609 C18.70037109 44.68849609 18.47349609 45.63724609 18.23974609 46.61474609 C16.56398048 49.32789041 14.95381933 49.5565036 11.9597168 50.32910156 C8.44897058 51.0384199 4.93310801 51.22755695 1.36474609 51.36474609 C0.05231934 51.41840332 0.05231934 51.41840332 -1.28662109 51.47314453 C-64.20325988 53.67449311 -64.20325988 53.67449311 -76.07275391 47.73974609 C-75.08275391 26.45474609 -75.08275391 26.45474609 -74.07275391 4.73974609 C-67.80275391 3.08974609 -61.53275391 1.43974609 -55.07275391 -0.26025391 C-52.53587891 -1.02337891 -49.99900391 -1.78650391 -47.38525391 -2.57275391 C-31.73884097 -6.40581089 -15.04816965 -5.78072255 0 0 Z " fill="#A39C98" transform="translate(469.07275390625,592.26025390625)"/>
<path d="M0 0 C0 0.66 0 1.32 0 2 C0.80953125 2.21011719 1.6190625 2.42023438 2.453125 2.63671875 C7.05758354 4.40649412 10.73038767 6.98678298 14.75 9.8125 C15.58055908 10.38637451 16.41111816 10.96024902 17.2668457 11.55151367 C21.45490512 14.45989927 25.59503715 17.42206832 29.68359375 20.46875 C48.12427805 34.21895853 48.12427805 34.21895853 69.875 40.625 C70.65617187 40.69976562 71.43734375 40.77453125 72.2421875 40.8515625 C72.82226562 40.90054688 73.40234375 40.94953125 74 41 C74.495 40.01 74.495 40.01 75 39 C75 39.99 75 40.98 75 42 C69.43419831 43.60956968 63.84933276 45.13646022 58.25 46.625 C57.40050781 46.85445313 56.55101562 47.08390625 55.67578125 47.3203125 C54.85980469 47.536875 54.04382813 47.7534375 53.203125 47.9765625 C52.46739258 48.17330566 51.73166016 48.37004883 50.97363281 48.57275391 C49 49 49 49 46 49 C46 49.66 46 50.32 46 51 C39.40427858 53.72984871 32.73794106 56.28517511 26.0625 58.8125 C25.22162842 59.13871338 24.38075684 59.46492676 23.5144043 59.80102539 C22.71687744 60.10000732 21.91935059 60.39898926 21.09765625 60.70703125 C20.38101807 60.9800708 19.66437988 61.25311035 18.92602539 61.53442383 C17 62 17 62 14 61 C21.11389522 53.33257403 21.11389522 53.33257403 26 52 C26 51.34 26 50.68 26 50 C25.33500488 50.02465332 24.67000977 50.04930664 23.98486328 50.07470703 C16.99508478 50.22030193 10.67685354 49.43440371 3.875 47.875 C2.88814209 47.65561768 1.90128418 47.43623535 0.88452148 47.21020508 C-8.0063315 45.15471171 -16.50844627 42.31683508 -25 39 C-25 38.34 -25 37.68 -25 37 C-25.87011719 36.96132813 -25.87011719 36.96132813 -26.7578125 36.921875 C-35.02479324 36.32163217 -39.33722238 32.96081855 -45 27 C-45.763125 26.278125 -46.52625 25.55625 -47.3125 24.8125 C-49 23 -49 23 -49 21 C-49.66 21 -50.32 21 -51 21 C-51 28.26 -51 35.52 -51 43 C-51.33 43 -51.66 43 -52 43 C-53.56988695 32.99197066 -53.26354232 23.1059243 -52.1875 13.0625 C-52.11748779 12.35295166 -52.04747559 11.64340332 -51.9753418 10.91235352 C-51.33647965 5.52565645 -50.31717898 0.82683961 -45.9140625 -2.64453125 C-44.78097656 -3.22267578 -44.78097656 -3.22267578 -43.625 -3.8125 C-42.49964844 -4.40998047 -42.49964844 -4.40998047 -41.3515625 -5.01953125 C-27.08183818 -10.96920036 -13.15393866 -5.96799069 0 0 Z " fill="#8B7C77" transform="translate(416,449)"/>
<path d="M0 0 C0.66 0 1.32 0 2 0 C3.19140625 1.5390625 3.19140625 1.5390625 4.5625 3.625 C8.81497699 9.51786737 14.54457173 12.87452115 21 16 C20.34 16 19.68 16 19 16 C20.05977449 27.76907461 21.9649374 38.1543715 26.75 49.0625 C28 52 28 52 28 55 C28.66 55 29.32 55 30 55 C30.23332031 55.51046875 30.46664063 56.0209375 30.70703125 56.546875 C39.96349897 74.99439371 57.1643661 85.99485408 75.89453125 93.09765625 C87.61567547 96.86584316 99.79733101 97.45059073 112 98 C112 98.33 112 98.66 112 99 C60.02990578 99.75179291 60.02990578 99.75179291 38.359375 93.62890625 C34.92585116 92.71367887 31.53245356 92.339659 28 92 C28 91.34 28 90.68 28 90 C26.02 90 24.04 90 22 90 C21.04552512 87.61381281 20.09163517 85.22741506 19.140625 82.83984375 C18.43281738 81.07759669 17.71578916 79.31898711 16.984375 77.56640625 C15.0845053 72.97505448 13.47671439 68.39016414 12.0625 63.625 C10.79647765 59.37690156 9.35601201 55.3647162 7.5625 51.3125 C0.33879768 34.03842923 -0.67652959 18.69719617 0 0 Z " fill="#B19D96" transform="translate(365,470)"/>
<path d="M0 0 C2.44092593 1.76220951 4.56109185 3.63572241 6.70703125 5.74609375 C7.33480469 6.35195313 7.96257813 6.9578125 8.609375 7.58203125 C14.21744735 14.25893621 13.55243642 22.32787577 12.93261719 30.578125 C12.22646754 37.36449821 10.90948327 44.23691327 6.70703125 49.74609375 C3.72363281 50.6809082 3.72363281 50.6809082 0.09765625 51.109375 C-0.54737854 51.19108444 -1.19241333 51.27279388 -1.85699463 51.35697937 C-3.91705806 51.61214752 -5.97924375 51.83520829 -8.04296875 52.05859375 C-9.41560897 52.22653003 -10.78801019 52.39643216 -12.16015625 52.56835938 C-18.23067485 53.30369627 -24.16811083 53.83374562 -30.29296875 53.74609375 C-29.69484375 52.79734375 -29.09671875 51.84859375 -28.48046875 50.87109375 C-23.01093836 41.06097519 -22.04862209 30.78148391 -23.29296875 19.74609375 C-24.6480036 16.65076904 -26.26027785 14.4741789 -28.29296875 11.74609375 C-26.76561598 6.83947298 -22.44661385 4.36597237 -18.29296875 1.74609375 C-12.49087344 -1.26696347 -6.04189085 -3.30399823 0 0 Z " fill="#A29C98" transform="translate(517.29296875,587.25390625)"/>
<path d="M0 0 C0 17.16 0 34.32 0 52 C-0.33 52 -0.66 52 -1 52 C-1.33 44.08 -1.66 36.16 -2 28 C-9.50523036 31.21945342 -9.50523036 31.21945342 -15.8125 35.4375 C-21.98621122 39.93714846 -28.78914629 42.5963821 -36 45 C-36.495 45.99 -36.495 45.99 -37 47 C-36.4225 47.2475 -35.845 47.495 -35.25 47.75 C-32.6997003 49.16683317 -30.98214299 50.87627537 -29 53 C-38.48944667 53.37052069 -47.34030538 52.32861226 -56.16796875 48.71484375 C-58.2549986 47.86023595 -58.2549986 47.86023595 -61.5625 47.0625 C-65.50501844 45.84390339 -68.48977336 44.14911835 -72 42 C-71.67 41.34 -71.34 40.68 -71 40 C-70.05125 40.103125 -69.1025 40.20625 -68.125 40.3125 C-58.2139275 40.23273282 -50.6067149 32.51810024 -44 26 C-43.051388 25.03581526 -42.10483847 24.06959785 -41.16015625 23.1015625 C-29.07975936 10.72696111 -18.18537924 0 0 0 Z " fill="#8E7F7A" transform="translate(577,449)"/>
<path d="M0 0 C3.55507248 0.9431825 6.75723551 1.89031542 10.12109375 3.41015625 C14.60732029 5.36388372 19.2550751 6.47771965 24 7.625 C24.86367188 7.8415625 25.72734375 8.058125 26.6171875 8.28125 C30.4146335 9.21618351 33.99180452 9.99919443 37.89453125 10.3828125 C41.68514579 11.13616734 42.54000831 12.1093584 44.6875 15.25 C45.25855469 16.06726563 45.82960938 16.88453125 46.41796875 17.7265625 C46.94003906 18.47679687 47.46210938 19.22703125 48 20 C48.825 20.86625 49.65 21.7325 50.5 22.625 C52 25 52 25 51.75 28.8125 C51.5025 29.864375 51.255 30.91625 51 32 C45.19657726 30.51194289 40.82409121 27.40902445 36 24 C36 27.30074559 38.32485744 29.08228021 40.375 31.5625 C41.59316406 33.04943359 41.59316406 33.04943359 42.8359375 34.56640625 C44.76218168 37.03575988 44.76218168 37.03575988 47 38 C46.3125 39.9375 46.3125 39.9375 45 42 C42.73828125 42.921875 42.73828125 42.921875 40 43 C37.4296875 41.05078125 37.4296875 41.05078125 34.875 38.3125 C34.02679688 37.42175781 33.17859375 36.53101563 32.3046875 35.61328125 C27 29.59830508 27 29.59830508 27 27 C26.34 27 25.68 27 25 27 C25.34933594 27.81984375 25.69867188 28.6396875 26.05859375 29.484375 C26.74115234 31.10085938 26.74115234 31.10085938 27.4375 32.75 C27.88996094 33.81734375 28.34242188 34.8846875 28.80859375 35.984375 C29.73979553 38.3413841 30.4784072 40.52992835 31 43 C21.16049012 42.02106917 11.04746739 37.29342545 4.39453125 29.83203125 C-1.55503924 22.01592884 -3.84873066 15.93014875 -3 6 C-1.5 2.3125 -1.5 2.3125 0 0 Z " fill="#AF9C95" transform="translate(331,650)"/>
<path d="M0 0 C4.28590933 2.79515826 7.22425239 5.92275717 8.875 10.875 C8.96947646 12.831554 9.00571717 14.79116745 9.0078125 16.75 C9.00974609 18.47476563 9.00974609 18.47476563 9.01171875 20.234375 C9.00785156 21.43578125 9.00398438 22.6371875 9 23.875 C9.00580078 25.67710937 9.00580078 25.67710937 9.01171875 27.515625 C9.01042969 28.66546875 9.00914062 29.8153125 9.0078125 31 C9.00668457 32.05445313 9.00555664 33.10890625 9.00439453 34.1953125 C8.875 36.875 8.875 36.875 7.875 39.875 C-1.08779134 40.6884298 -8.60605813 39.54415015 -17.1875 37.0625 C-18.09137451 36.80194824 -18.99524902 36.54139648 -19.92651367 36.27294922 C-24.36253896 34.9253275 -28.27413289 33.54098492 -32.125 30.875 C-30.74170268 20.69788402 -23.84449809 8.51523177 -16.125 1.875 C-10.76180167 -1.70046556 -6.07877215 -2.18835797 0 0 Z " fill="#A19A96" transform="translate(374.125,586.125)"/>
<path d="M0 0 C-0.64268437 1.64706553 -1.28923802 3.29262175 -1.9375 4.9375 C-2.29714844 5.85402344 -2.65679687 6.77054688 -3.02734375 7.71484375 C-4 10 -4 10 -5 11 C-6.7015625 11.2165625 -6.7015625 11.2165625 -8.4375 11.4375 C-12.04058997 11.64847551 -12.04058997 11.64847551 -14 14 C-14.33333333 17 -14.33333333 17 -14 20 C-11.4345406 22.5654594 -9.52313332 22.54046087 -6 23 C-5.77957031 23.81791016 -5.77957031 23.81791016 -5.5546875 24.65234375 C-2.27258366 35.6870032 3.65039664 42.40819331 13 49 C15.51677113 50.25838557 17.41293288 50.20818973 20.2265625 50.31640625 C21.2578125 50.35830078 22.2890625 50.40019531 23.3515625 50.44335938 C24.97191406 50.50233398 24.97191406 50.50233398 26.625 50.5625 C28.25695312 50.62727539 28.25695312 50.62727539 29.921875 50.69335938 C32.6144517 50.7996453 35.30712253 50.90168057 38 51 C38 51.33 38 51.66 38 52 C-17.29694323 52.85152838 -17.29694323 52.85152838 -27 48 C-26.01 26.715 -26.01 26.715 -25 5 C-6 0 -6 0 0 0 Z " fill="#8A827D" transform="translate(420,592)"/>
<path d="M0 0 C9.71579606 2.63955153 17.93932315 9.61676609 25.703125 15.734375 C26.63769531 16.42789063 27.57226562 17.12140625 28.53515625 17.8359375 C30.703125 19.734375 30.703125 19.734375 31.015625 22.484375 C30.9125 23.226875 30.809375 23.969375 30.703125 24.734375 C31.60160156 24.6621875 32.50007813 24.59 33.42578125 24.515625 C37.32162764 24.77565766 38.35934878 25.58068026 41.140625 28.234375 C41.91148437 28.9665625 42.68234375 29.69875 43.4765625 30.453125 C46.08477839 33.12540233 48.54629851 35.88380881 50.95703125 38.734375 C52.7892954 40.83307577 54.7163019 42.78187322 56.703125 44.734375 C63.07423696 51.03211523 68.71924491 57.8973307 74.3515625 64.85546875 C75.95969547 66.82422955 77.59118077 68.77408337 79.2421875 70.70703125 C80.05429687 71.66480469 80.86640625 72.62257813 81.703125 73.609375 C82.445625 74.47304688 83.188125 75.33671875 83.953125 76.2265625 C85.76737538 78.82644809 86.34533385 80.61488339 86.703125 83.734375 C84.04296875 84.078125 84.04296875 84.078125 80.703125 83.734375 C78.58971098 81.9306077 77.00825018 80.34368673 75.265625 78.234375 C74.79044434 77.68773193 74.31526367 77.14108887 73.82568359 76.57788086 C72.43657258 74.97547744 71.06919323 73.35641975 69.703125 71.734375 C68.41425205 70.25277339 67.12307174 68.77317095 65.828125 67.296875 C65.29316406 66.67683594 64.75820313 66.05679688 64.20703125 65.41796875 C62.78421986 63.82515911 61.30496603 62.33868602 59.765625 60.859375 C57.703125 58.734375 57.703125 58.734375 57.703125 56.734375 C56.713125 56.404375 55.723125 56.074375 54.703125 55.734375 C54.703125 55.074375 54.703125 54.414375 54.703125 53.734375 C54.16171875 53.53199219 53.6203125 53.32960938 53.0625 53.12109375 C49.74614723 51.1719129 47.46975592 48.4011855 44.953125 45.546875 C41.1177315 41.29631302 37.29115155 37.27735556 32.88671875 33.60546875 C30.52733853 31.58374581 28.28100701 29.46709772 26.02441406 27.33227539 C18.04140937 19.81230335 10.3739641 13.24355299 -0.16796875 9.65625 C-2.49061925 8.65047841 -3.75572762 7.73637995 -5.296875 5.734375 C-5.296875 2.734375 -5.296875 2.734375 -4.109375 0.984375 C-2.296875 -0.265625 -2.296875 -0.265625 0 0 Z " fill="#C7BDB8" transform="translate(362.296875,236.265625)"/>
<path d="M0 0 C0.495 0.99 0.495 0.99 1 2 C-7.99361025 16.52813963 -20.07707436 23.89254886 -35.25 31.0625 C-35.88164062 31.3615625 -36.51328125 31.660625 -37.1640625 31.96875 C-39.97051939 33.24942574 -41.87618388 34 -45 34 C-45 34.66 -45 35.32 -45 36 C-46.11117187 36.43570313 -47.22234375 36.87140625 -48.3671875 37.3203125 C-59.7732978 41.85811696 -69.65828736 46.81808707 -79.1875 54.6796875 C-81 56 -81 56 -83 56 C-83 56.66 -83 57.32 -83 58 C-84.12304967 59.08795436 -85.24715755 60.17482742 -86.375 61.2578125 C-90.01171762 65.15679341 -92.95131255 69.6385104 -96 74 C-96.69996094 74.93779297 -96.69996094 74.93779297 -97.4140625 75.89453125 C-102.21852773 82.76026705 -104.39616352 91.11659154 -107 99 C-107.34442139 99.93908203 -107.68884277 100.87816406 -108.04370117 101.84570312 C-109.04234951 105.13968744 -109.40413855 108.06207832 -109.6328125 111.4921875 C-109.71660156 112.69101562 -109.80039062 113.88984375 -109.88671875 115.125 C-109.96535156 116.3625 -110.04398437 117.6 -110.125 118.875 C-110.21136719 120.13570313 -110.29773438 121.39640625 -110.38671875 122.6953125 C-110.59816152 125.79647308 -110.80234743 128.89793505 -111 132 C-111.99 132 -112.98 132 -114 132 C-114.21664489 120.14471015 -114.17129188 108.70008238 -112 97 C-111.82855469 96.07445312 -111.65710938 95.14890625 -111.48046875 94.1953125 C-106.51564399 72.60633256 -91.39241191 53.71214909 -73 42 C-72.22140625 41.48824219 -71.4428125 40.97648437 -70.640625 40.44921875 C-61.96074944 34.96047391 -52.48766102 31.24644558 -42.87207031 27.75048828 C-31.14413998 23.47693946 -21.56254626 18.10337253 -12 10 C-10.90331348 9.08737509 -9.80560779 8.1759739 -8.70703125 7.265625 C-5.79729748 4.85248918 -2.8966579 2.42881281 0 0 Z " fill="#DFDAD7" transform="translate(459,350)"/>
<path d="M0 0 C3.63 0 7.26 0 11 0 C12.17293889 6.3778552 13.29530838 12.50321562 13 19 C-2.7841746 21.62220965 -18.03211384 22.12785674 -34 22 C-34 15.73 -34 9.46 -34 3 C-22.65995773 2.40033771 -11.35949664 1.8103238 0 2 C0 1.34 0 0.68 0 0 Z " fill="#78716D" transform="translate(490,668)"/>
<path d="M0 0 C14.52 0.66 29.04 1.32 44 2 C44 8.6 44 15.2 44 22 C33.78819632 22.16879014 23.80046585 21.95827025 13.625 21.0625 C12.63298584 20.97564941 11.64097168 20.88879883 10.61889648 20.79931641 C6.64803046 20.42864286 2.85456346 20.05743192 -1 19 C-1.10551806 12.45788013 -0.66396147 6.63961468 0 0 Z " fill="#77706C" transform="translate(402,668)"/>
<path d="M0 0 C1.19625 0.02449219 2.3925 0.04898438 3.625 0.07421875 C7 0.3125 7 0.3125 9.34716797 0.79443359 C22.4721971 3.357595 36.55539155 2.62331837 49.875 2.875 C52.02735034 2.91829347 54.17969419 2.96191079 56.33203125 3.00585938 C61.55461862 3.11180416 66.7772717 3.21376046 72 3.3125 C71.66335374 6.20747358 71.42019525 7.87214195 69.37695312 10.01342773 C67.10279678 11.62234566 64.81826488 13.20510533 62.5 14.75 C61.33210938 15.59981445 61.33210938 15.59981445 60.140625 16.46679688 C56.19249736 19.1304757 53.3040167 20.86631876 48.48046875 19.99609375 C44.36543191 18.70234771 40.82086401 16.62933792 37.16308594 14.37573242 C29.57464263 9.48678812 29.57464263 9.48678812 20.90234375 8.44140625 C17.38777142 9.46006839 14.27126287 10.68127727 11 12.3125 C3.53211953 15.62300371 3.53211953 15.62300371 0 14.3125 C-2.12128253 13.06226224 -4.20238249 11.74255131 -6.25 10.375 C-7.32765625 9.66472656 -8.4053125 8.95445312 -9.515625 8.22265625 C-10.33546875 7.59230469 -11.1553125 6.96195313 -12 6.3125 C-12 4.3125 -12 4.3125 -9.9375 2.20703125 C-6.32584585 -0.12229357 -4.25967813 -0.13311494 0 0 Z " fill="#918B86" transform="translate(394,696.6875)"/>
<path d="M0 0 C0 1.32 0 2.64 0 4 C-7.66914482 6.25501826 -15.29600541 7.87397042 -23.1875 9.125 C-24.21552734 9.29386719 -25.24355469 9.46273437 -26.30273438 9.63671875 C-29.20005439 10.10755642 -32.09606506 10.57173659 -35 11 C-36.17602783 11.17942139 -37.35205566 11.35884277 -38.5637207 11.54370117 C-44.2344294 12.23520932 -49.92008975 12.16245833 -55.625 12.16796875 C-56.84413086 12.17129715 -58.06326172 12.17462555 -59.31933594 12.17805481 C-61.90136338 12.18310684 -64.48339731 12.18546367 -67.06542969 12.18530273 C-70.93175732 12.18746189 -74.79778631 12.20556002 -78.6640625 12.22460938 C-90.68577808 12.25247671 -102.63717925 12.07369524 -114.625 11.11328125 C-115.62047852 11.03554977 -116.61595703 10.9578183 -117.64160156 10.87773132 C-125.73677612 10.14335763 -125.73677612 10.14335763 -129 8 C-129.75 4.875 -129.75 4.875 -130 2 C-129.11465576 2.14147461 -128.22931152 2.28294922 -127.31713867 2.42871094 C-112.00518581 4.60658808 -96.57180252 4.30497494 -81.14379883 4.26074219 C-77.13474031 4.24939685 -73.1259487 4.25609108 -69.11689949 4.26761627 C-38.99693909 4.52190418 -38.99693909 4.52190418 -9.24385071 0.41070557 C-6.10457009 -0.16389595 -3.18216645 -0.13835506 0 0 Z " fill="#98928E" transform="translate(524,648)"/>
<path d="M0 0 C10.01958166 0.86336531 19.27462673 2.1045197 28.890625 5.12890625 C31.75707653 5.93194481 34.29033879 6.31157436 37.25 6.5 C43.50419666 6.94014805 48.71772811 9.4872058 54.34765625 12.08203125 C59.20882511 14.30832985 63.78387676 15.81035786 69 17 C69.66 17.33 70.32 17.66 71 18 C71 18.66 71 19.32 71 20 C71.71929688 20.2371875 72.43859375 20.474375 73.1796875 20.71875 C76.44577246 22.20251159 78.51860514 24.04504704 81.125 26.5 C83.70410479 28.91448108 86.05601611 31.03734407 89 33 C89 33.66 89 34.32 89 35 C90.485 35.495 90.485 35.495 92 36 C93.7890625 37.7421875 93.7890625 37.7421875 95.625 39.875 C96.23601562 40.57367188 96.84703125 41.27234375 97.4765625 41.9921875 C99 44 99 44 100 47 C97.27985757 45.72973784 95.04309976 44.35884487 92.75 42.42578125 C75.05665477 27.73428205 56.72592696 20.100138 34 16 C24.85258319 14.28234894 16.39384887 12.12172438 8 8 C7.31147949 7.66790527 6.62295898 7.33581055 5.91357422 6.99365234 C1.23512333 4.56429599 1.23512333 4.56429599 0.0625 1.75 C0.041875 1.1725 0.02125 0.595 0 0 Z " fill="#DDD8D5" transform="translate(490,342)"/>
<path d="M0 0 C18.50684631 -0.95030076 36.03616589 0.30972871 54.3125 3.3125 C55.7599913 3.54442551 55.7599913 3.54442551 57.23672485 3.78103638 C59.99063711 4.22813109 62.73977588 4.69666937 65.48828125 5.17578125 C66.73623474 5.38228302 66.73623474 5.38228302 68.00939941 5.59295654 C70.02686968 5.96345025 72.01821102 6.4708835 74 7 C74.99 8.485 74.99 8.485 76 10 C73 12 73 12 70 12 C70 12.66 70 13.32 70 14 C63.40427858 16.72984871 56.73794106 19.28517511 50.0625 21.8125 C49.22162842 22.13871338 48.38075684 22.46492676 47.5144043 22.80102539 C46.71687744 23.10000732 45.91935059 23.39898926 45.09765625 23.70703125 C44.38101807 23.9800708 43.66437988 24.25311035 42.92602539 24.53442383 C41 25 41 25 38 24 C45.11389522 16.33257403 45.11389522 16.33257403 50 15 C50 14.34 50 13.68 50 13 C49.00468262 13.03697998 49.00468262 13.03697998 47.98925781 13.07470703 C40.96280396 13.22124541 34.59098567 12.4315721 27.75 10.875 C26.75726074 10.65416748 25.76452148 10.43333496 24.74169922 10.20581055 C16.52727927 8.29354679 8.51525524 5.89468395 1 2 C0.67 1.34 0.34 0.68 0 0 Z " fill="#22201E" transform="translate(392,486)"/>
<path d="M0 0 C3.7457296 1.52603799 6.95876182 3.45712937 9 7 C9.78015112 11.3154199 9.70846551 15.56314867 9.625 19.9375 C9.61098145 21.18571533 9.59696289 22.43393066 9.58251953 23.7199707 C9.13978091 40.98347285 4.93171692 58.16478745 -2 74 C-2.99 74.495 -2.99 74.495 -4 75 C-4.0767506 67.70840279 -4.12889068 60.41691169 -4.16479492 53.125 C-4.17978012 50.6500255 -4.20017524 48.1750771 -4.22631836 45.70019531 C-4.48537032 20.52643993 -4.48537032 20.52643993 -1 8 C-0.56777143 5.33224509 -0.26898493 2.68984927 0 0 Z " fill="#9C948F" transform="translate(597,425)"/>
<path d="M0 0 C1.80703723 3.61407446 -0.52265168 7.49995873 -1.6953125 11.1796875 C-3.22728893 15.75673263 -4.97443596 20.24853496 -6.70825195 24.75195312 C-9.13546516 31.15494617 -11.05863513 37.67229204 -12.921875 44.2578125 C-13.57170052 46.5133663 -14.26585352 48.75773231 -15.04296875 50.97265625 C-20.65717694 68.73188624 -19.69967274 88.56886636 -20 107 C-25.26013914 99.10979129 -24.28847522 88.36134231 -24.20581055 79.21240234 C-24.18758741 77.13496481 -24.1853016 75.05797797 -24.18554688 72.98046875 C-24.12632083 49.69772566 -24.12632083 49.69772566 -20.81640625 41.29296875 C-19.87926874 38.80288181 -19.87926874 38.80288181 -19.16015625 35.3203125 C-17.9800539 30.49414714 -16.01583564 26.15663024 -13.875 21.6875 C-13.48119141 20.85879395 -13.08738281 20.03008789 -12.68164062 19.17626953 C-9.31564925 12.28137281 -5.47591621 5.47591621 0 0 Z " fill="#252421" transform="translate(346,356)"/>
<path d="M0 0 C0.99 0.66 1.98 1.32 3 2 C2.13375 2.7734375 2.13375 2.7734375 1.25 3.5625 C-3.12726381 8.30453579 -5.63337001 14.0619102 -8 20 C-8.42796875 21.0415625 -8.8559375 22.083125 -9.296875 23.15625 C-9.75578125 24.3009375 -10.2146875 25.445625 -10.6875 26.625 C-11.34298828 28.25308594 -11.34298828 28.25308594 -12.01171875 29.9140625 C-12.94793295 32.8374191 -13.20891506 34.96226211 -13 38 C-24.70615034 35.10933941 -24.70615034 35.10933941 -29 32 C-27.61670268 21.82288402 -20.71949809 9.64023177 -13 3 C-8.59589477 0.06392985 -5.26166141 -0.49638315 0 0 Z " fill="#88827F" transform="translate(371,585)"/>
<path d="M0 0 C-7.3580786 7.79090676 -15.95144477 11.65048159 -26 15 C-26.33 15.66 -26.66 16.32 -27 17 C-26.4225 17.2475 -25.845 17.495 -25.25 17.75 C-22.6997003 19.16683317 -20.98214299 20.87627537 -19 23 C-31.42261374 23.48504782 -41.55877904 20.76565961 -53 16 C-53 15.34 -53 14.68 -53 14 C-52.17757812 13.68546875 -51.35515625 13.3709375 -50.5078125 13.046875 C-49.39148438 12.61890625 -48.27515625 12.1909375 -47.125 11.75 C-45.92617188 11.29109375 -44.72734375 10.8321875 -43.4921875 10.359375 C-40.72281637 9.28136476 -37.98713485 8.15546869 -35.25 7 C-23.6183414 2.38516309 -12.65606764 -0.99047486 0 0 Z " fill="#252320" transform="translate(567,479)"/>
<path d="M0 0 C1.92960571 0.24447876 1.92960571 0.24447876 3.89819336 0.49389648 C8.8247557 1.03915505 13.67670329 1.12850688 18.62890625 1.09765625 C19.94156715 1.09553383 19.94156715 1.09553383 21.28074646 1.09336853 C24.04136762 1.08782719 26.80190388 1.07528612 29.5625 1.0625 C31.44856653 1.0574774 33.33463434 1.05291583 35.22070312 1.04882812 C39.81383417 1.03787707 44.40690275 1.02065384 49 1 C49.99 4.3 50.98 7.6 52 11 C34.12176642 13.64135075 16.8060602 13.08239361 -1 10 C-1.125 2.25 -1.125 2.25 0 0 Z " fill="#605A57" transform="translate(380,726)"/>
<path d="M0 0 C5.34477655 1.10581584 10.56916325 2.41861999 15.8125 3.9375 C25.90292574 6.8452786 35.47783627 9.3993253 46 10 C46 12.97 46 15.94 46 19 C36.6470351 23.67648245 22.39810215 17.81182636 13.07421875 14.7265625 C7.5147197 12.78925027 2.23259038 10.7105761 -3 8 C-2.45276317 4.62537285 -1.9451 2.91765 0 0 Z " fill="#746C69" transform="translate(335,629)"/>
<path d="M0 0 C7.63866698 1.73248117 14.81536384 3.86864309 22 7 C20.1875 10 20.1875 10 18 13 C17.01 13 16.02 13 15 13 C13.32900023 13.31088368 11.66128463 13.64080332 10 14 C10 15.65 10 17.3 10 19 C10.99 19.33 11.98 19.66 13 20 C12.44724451 24.56023276 10.82590765 28.39324945 8 32 C5.25 33.4375 5.25 33.4375 3 34 C3 34.66 3 35.32 3 36 C1.02 36 -0.96 36 -3 36 C-4.03166682 30.67659922 -3.77860739 26.65619347 -2.625 21.375 C-1.14544874 14.26514287 -0.36059867 7.26171106 0 0 Z " fill="#3B3837" transform="translate(323,577)"/>
<path d="M0 0 C0.99 0.66 1.98 1.32 3 2 C2.34 2 1.68 2 1 2 C1.03480469 2.7528125 1.06960938 3.505625 1.10546875 4.28125 C1.31010163 12.31065462 0.34446115 19.47327673 -1.34375 27.2734375 C-1.98840862 30.93417752 -2.11497477 34.29206377 -2 38 C-0.02 38 1.96 38 4 38 C4 37.34 4 36.68 4 36 C5.65 35.34 7.3 34.68 9 34 C8.71125 34.53625 8.4225 35.0725 8.125 35.625 C6.93144412 38.00230398 6.93144412 38.00230398 6.16796875 40.6640625 C4.8063888 44.55298985 3.08994871 48.10274429 1.1875 51.75 C0.85685547 52.42160156 0.52621094 53.09320312 0.18554688 53.78515625 C-1.46451499 56.94592735 -2.56399958 58.77059101 -5.76171875 60.453125 C-6.50035156 60.63359375 -7.23898437 60.8140625 -8 61 C-8.02505615 60.41621582 -8.0501123 59.83243164 -8.07592773 59.23095703 C-8.19356199 56.52883687 -8.31551273 53.82692701 -8.4375 51.125 C-8.47681641 50.2071875 -8.51613281 49.289375 -8.55664062 48.34375 C-8.59853516 47.42851563 -8.64042969 46.51328125 -8.68359375 45.5703125 C-8.72492432 44.63469482 -8.76625488 43.69907715 -8.80883789 42.73510742 C-8.9544213 40.04709717 -8.9544213 40.04709717 -9.39233398 37.6027832 C-10.5767857 30.27830377 -8.82934822 23.9131865 -6.76733398 16.91040039 C-6.18084415 14.91485329 -5.62283779 12.91285587 -5.06835938 10.90820312 C-3.03511464 3.77176963 -3.03511464 3.77176963 -2 1 C-1.34 0.67 -0.68 0.34 0 0 Z " fill="#262523" transform="translate(322,575)"/>
<path d="M0 0 C4.27130732 -0.62128106 6.69903271 -0.83406223 10.39453125 1.53515625 C15.30058722 5.75778154 20.19459499 10.42679951 21.36181641 17.05444336 C21.50120827 19.28091158 21.50315748 21.45777202 21.4375 23.6875 C21.42501221 24.47406982 21.41252441 25.26063965 21.3996582 26.07104492 C21.14933192 34.43433489 20.1032127 43.10575591 15 50 C11.3125 50.3125 11.3125 50.3125 8 50 C8.29166667 48.6875 8.58333333 47.375 8.875 46.0625 C9.05546875 45.23234375 9.2359375 44.4021875 9.421875 43.546875 C9.77588263 41.98732786 10.15540896 40.43296732 10.578125 38.890625 C12.81282454 30.39876673 13.8009418 19.95017786 10.125 11.75 C7.60604691 7.83162852 4.19514822 4.09757411 0 2 C0 1.34 0 0.68 0 0 Z " fill="#BDB9B6" transform="translate(509,587)"/>
<path d="M0 0 C2.31 0 4.62 0 7 0 C12.66995398 16.14924392 12.66995398 16.14924392 11 23 C8.24135931 26.13142998 6.28834085 26.89749826 2.15234375 27.2265625 C-0.57939221 27.24771142 -3.27437451 27.17459523 -6 27 C-6.10957031 26.20078125 -6.21914063 25.4015625 -6.33203125 24.578125 C-7.43952155 16.90672875 -8.9779951 9.48141811 -11 2 C-9.02 2 -7.04 2 -5 2 C-3.02 5.96 -1.04 9.92 1 14 C0.67 9.38 0.34 4.76 0 0 Z " fill="#9B9490" transform="translate(490,698)"/>
<path d="M0 0 C8.25 0 16.5 0 25 0 C23.57208914 5.71164343 20.21489101 7.18419 15.5 10.375 C14.72140625 10.94605469 13.9428125 11.51710938 13.140625 12.10546875 C7.45368952 15.9752212 7.45368952 15.9752212 3.6796875 16.03955078 C-1.56654855 15.01081077 -6.33407469 12.67091057 -11 10.125 C-11.66644531 9.78597656 -12.33289063 9.44695313 -13.01953125 9.09765625 C-17.77043192 6.55287646 -17.77043192 6.55287646 -18.9375 3.7421875 C-18.958125 3.16726563 -18.97875 2.59234375 -19 2 C-12.4294834 1.75205598 -6.43028541 2.67611771 0 4 C0 2.68 0 1.36 0 0 Z " fill="#89817D" transform="translate(441,701)"/>
<path d="M0 0 C4.87135868 2.28193214 8.24418493 4.7632117 11.0625 9.375 C12.16221381 13.62722673 12.43735599 16.62644008 12 21 C10.46129468 23.07390717 9.48813985 23.86945097 6.984375 24.5390625 C3.44507658 24.67518936 0.9695985 24.646399 -2.0390625 22.640625 C-6.73478549 18.12473821 -10.07103706 13.47536758 -10.375 6.8125 C-10 3 -10 3 -8.9375 1 C-5.67171253 -0.68556773 -3.64601174 -0.52925977 0 0 Z " fill="#9B948F" transform="translate(501,281)"/>
<path d="M0 0 C8.55640318 0.88514516 14.00253256 1.96726493 19.71875 8.82421875 C21.13303003 11.22590771 21.33628397 12.28051489 20.9375 15 C20.628125 15.99 20.31875 16.98 20 18 C14.19657726 16.51194289 9.82409121 13.40902445 5 10 C5 13.30074559 7.32485744 15.08228021 9.375 17.5625 C10.18710937 18.55378906 10.99921875 19.54507813 11.8359375 20.56640625 C13.76218168 23.03575988 13.76218168 23.03575988 16 24 C15.3125 25.9375 15.3125 25.9375 14 28 C11.74609375 28.9296875 11.74609375 28.9296875 9 29 C6.359375 26.98046875 6.359375 26.98046875 3.75 24.1875 C2.87859375 23.27355469 2.0071875 22.35960937 1.109375 21.41796875 C-2.16448156 17.6651591 -2.15980836 15.55411211 -2.1875 10.625 C-2.20167969 9.48289062 -2.21585937 8.34078125 -2.23046875 7.1640625 C-2.01170034 4.16063184 -1.57080637 2.52074066 0 0 Z " fill="#C7B2AA" transform="translate(362,664)"/>
<path d="M0 0 C0.99 0.33 1.98 0.66 3 1 C1.8803014 2.00593243 0.7540588 3.0045849 -0.375 4 C-1.00148438 4.556875 -1.62796875 5.11375 -2.2734375 5.6875 C-4 7 -4 7 -6 7 C-6.26554687 7.598125 -6.53109375 8.19625 -6.8046875 8.8125 C-8.03700653 11.06772437 -9.22106255 12.29973958 -11.125 14 C-16.92400116 19.6044854 -21.57179605 26.70854084 -25 34 C-26.07230715 30.78307855 -25.93694604 29.75977701 -25.1875 26.5625 C-25.01605469 25.80066406 -24.84460938 25.03882813 -24.66796875 24.25390625 C-24.00007466 22.00025191 -23.1145722 20.06454514 -22 18 C-23.5778125 18.0928125 -23.5778125 18.0928125 -25.1875 18.1875 C-30.06701903 17.94752365 -32.25603382 16.56355588 -35.8125 13.375 C-37.63342893 9.73314215 -37.42235355 6.00423653 -37 2 C-36 1 -36 1 -33.93359375 0.90234375 C-32.69802734 0.91974609 -32.69802734 0.91974609 -31.4375 0.9375 C-30.61121094 0.94652344 -29.78492188 0.95554687 -28.93359375 0.96484375 C-28.29550781 0.97644531 -27.65742188 0.98804688 -27 1 C-27 1.66 -27 2.32 -27 3 C-26.38125 3.226875 -25.7625 3.45375 -25.125 3.6875 C-22.30660613 5.42827269 -21.88055214 6.84468818 -21 10 C-20.97072194 11.66640949 -20.96650593 13.33366992 -21 15 C-20.29875 14.40832031 -19.5975 13.81664062 -18.875 13.20703125 C-12.88145765 8.21512709 -7.00813417 3.50406709 0 0 Z " fill="#7E7773" transform="translate(327,299)"/>
<path d="M0 0 C0 4.62 0 9.24 0 14 C-6.47990359 17.47994823 -13.50312314 21 -21 21 C-22.2982126 15.23918159 -23.25706972 9.91260345 -23 4 C-19.26363853 2.9102279 -15.52926527 1.86831904 -11.75 0.9375 C-4.44444444 -0.88888889 -4.44444444 -0.88888889 0 0 Z " fill="#78706C" transform="translate(534,662)"/>
<path d="M0 0 C3.88402619 1.52586743 5.92599165 3.37048539 8 7 C8.89898025 13.89583632 7.7471031 20.33916945 6 27 C5.34 27 4.68 27 4 27 C3.938125 28.093125 3.87625 29.18625 3.8125 30.3125 C3.13597024 36.02200117 0.53711244 40.90705103 -2 46 C-4.82366821 41.76449769 -4.34083028 38.17145084 -4.3125 33.1875 C-4.31048584 32.24495361 -4.30847168 31.30240723 -4.30639648 30.33129883 C-4.20996843 23.5611255 -3.39502512 17.48225743 -1.734375 10.91015625 C-0.81759382 7.277167 -0.37228955 3.72289553 0 0 Z " fill="#A79F9A" transform="translate(597,425)"/>
<path d="M0 0 C1.37701298 1.28817344 2.70644173 2.62804426 4 4 C10.01282733 7.30588308 15.19487353 7.3986459 21.96484375 7.29296875 C22.99815323 7.28872391 24.03146271 7.28447906 25.09608459 7.28010559 C28.37682822 7.26339394 31.65694392 7.22575511 34.9375 7.1875 C37.16991297 7.17244348 39.40233562 7.15875677 41.63476562 7.14648438 C47.09005581 7.1135151 52.54498302 7.06339087 58 7 C47.24866232 15.50935257 30.05596445 15.32032853 17 14 C11.29995141 12.82219991 6.9565238 10.87969646 2.4375 7.25 C-1.6424088 3.99602396 -6.01725024 4.54884559 -11 5 C-11 4.01 -11 3.02 -11 2 C-7.18538362 0.20488641 -4.21411291 -0.53797186 0 0 Z " fill="#2D2A27" transform="translate(469,540)"/>
<path d="M0 0 C5.61 0.33 11.22 0.66 17 1 C17 1.33 17 1.66 17 2 C15.35 2 13.7 2 12 2 C12 7.94 12 13.88 12 20 C13.32 20.33 14.64 20.66 16 21 C13.9163691 20.85848172 11.83310062 20.71162064 9.75 20.5625 C8.58984375 20.48128906 7.4296875 20.40007813 6.234375 20.31640625 C3.69022624 20.06752213 1.44046752 19.71885058 -1 19 C-1.10372765 12.56888577 -0.72027812 6.39246827 0 0 Z " fill="#504B48" transform="translate(402,668)"/>
<path d="M0 0 C6.10413985 0.1173873 8.88107109 1.78528204 13 6 C14.82305344 9.09126453 15.03179645 10.59459527 14.75 14.1875 C14 17 14 17 12 19 C8.33963231 19.48804902 6.53999127 19.33428031 3.375 17.375 C0.68506345 14.68506345 -1.26600194 12.40130388 -3 9 C-2.79310345 2.79310345 -2.79310345 2.79310345 0 0 Z " fill="#7F7975" transform="translate(278,359)"/>
<path d="M0 0 C2.40569331 3.05783908 4.36189615 6.22457996 6.25 9.625 C6.79140625 10.58664062 7.3328125 11.54828125 7.890625 12.5390625 C8.25671875 13.35117187 8.6228125 14.16328125 9 15 C8 17 8 17 6 19 C5.3574765 21.06874034 5.3574765 21.06874034 5 23 C2.12644151 22.91548357 0.45701411 22.45477932 -1.59765625 20.41015625 C-2.6421364 19.1552403 -3.66649466 17.88324699 -4.66796875 16.59375 C-5.92936016 14.86886375 -5.92936016 14.86886375 -8 14 C-8.484375 11.78515625 -8.484375 11.78515625 -8.75 9.0625 C-8.84796875 8.16660156 -8.9459375 7.27070313 -9.046875 6.34765625 C-9 4 -9 4 -7 2 C-3.375 1.875 -3.375 1.875 0 2 C0 1.34 0 0.68 0 0 Z " fill="#7F7975" transform="translate(450,319)"/>
<path d="M0 0 C1.79244141 0.23009766 1.79244141 0.23009766 3.62109375 0.46484375 C10.08534064 1.1830934 16.56549882 1.35180512 23.0625 1.5625 C24.93325195 1.62727539 24.93325195 1.62727539 26.84179688 1.69335938 C29.89444091 1.79862296 32.94715523 1.90075941 36 2 C36 2.33 36 2.66 36 3 C31.05 3 26.1 3 21 3 C21 5.97 21 8.94 21 12 C18.08302989 11.85895309 15.1665198 11.71235186 12.25 11.5625 C11.0125 11.50352539 11.0125 11.50352539 9.75 11.44335938 C8.95078125 11.40146484 8.1515625 11.35957031 7.328125 11.31640625 C6.5949707 11.27974854 5.86181641 11.24309082 5.10644531 11.20532227 C2.98822395 10.99885215 1.0480544 10.56867914 -1 10 C-1.125 2.25 -1.125 2.25 0 0 Z " fill="#484441" transform="translate(380,726)"/>
<path d="M0 0 C-0.94359375 0.88558594 -1.8871875 1.77117187 -2.859375 2.68359375 C-9.82073717 9.34989033 -16.20068373 16.09825618 -21.75 24 C-22.23823242 24.69279053 -22.72646484 25.38558105 -23.22949219 26.09936523 C-25.39991538 29.28549425 -27.24377991 32.3637422 -28.703125 35.9375 C-30 39 -30 39 -32 40 C-32 28.76318298 -25.59292791 16.62672802 -17.859375 8.609375 C-14.48350515 5.68740362 -10.85764448 3.23900253 -7 1 C-6.31292969 0.59523438 -5.62585938 0.19046875 -4.91796875 -0.2265625 C-3 -1 -3 -1 0 0 Z " fill="#282624" transform="translate(375,257)"/>
<path d="M0 0 C2.69470179 1.60034692 4.46827521 3.25383626 6 6 C6.5342237 9.40053934 6.50640296 12.59620289 6 16 C5 17 5 17 1.6875 17.1875 C-3.14257405 16.94190301 -4.78466719 16.14781432 -8.25 12.875 C-10.6934097 8.86082693 -10.5257966 6.65705559 -10 2 C-7.75639224 -2.35523859 -4.17730263 -1.20362957 0 0 Z " fill="#7D7773" transform="translate(330,470)"/>
<path d="M0 0 C4.6023355 0.5460398 5.81249611 1.90535236 8.6875 5.4375 C11.14561625 9.12467438 10.99868164 11.08095704 10.6875 15.4375 C8.6875 18.4375 8.6875 18.4375 5.5 19.125 C0.65635423 18.25155568 -0.9958399 16.51785421 -3.9921875 12.7421875 C-6.12254895 9.02350923 -5.96468382 6.64046237 -5.3125 2.4375 C-3.3125 0.4375 -3.3125 0.4375 0 0 Z " fill="#7D7773" transform="translate(326.3125,343.5625)"/>
<path d="M0 0 C4.54702651 1.16467696 8.43887691 2.8840173 12 6 C11.67 7.65 11.34 9.3 11 11 C3.62617707 13.45794098 -3.07257602 12.0788551 -10 9 C-10 8.34 -10 7.68 -10 7 C-10.66 7 -11.32 7 -12 7 C-12.1875 4.625 -12.1875 4.625 -12 2 C-7.92178276 -0.71881149 -4.78602531 -0.51112892 0 0 Z " fill="#C1BDBA" transform="translate(459,592)"/>
<path d="M0 0 C15.75420855 -0.71952189 27.52796648 -0.185516 40.15234375 10.28515625 C42.37235204 12.34558678 44.2680033 14.51496125 46 17 C42.58006071 16.42495934 39.79461164 15.57394 36.70703125 14.00390625 C35.51303711 13.41319336 35.51303711 13.41319336 34.29492188 12.81054688 C32.65712536 11.98713856 31.02164432 11.15910625 29.38867188 10.32617188 C23.64334011 7.49734588 18.29261124 6.05978712 12 5 C9.7872178 4.47680421 7.57785772 3.93852174 5.375 3.375 C3.83972656 2.98441406 3.83972656 2.98441406 2.2734375 2.5859375 C1.52320313 2.39257812 0.77296875 2.19921875 0 2 C0 1.34 0 0.68 0 0 Z " fill="#2D2C29" transform="translate(516,317)"/>
<path d="M0 0 C1.258125 -0.04125 2.51625 -0.0825 3.8125 -0.125 C4.52019531 -0.14820313 5.22789062 -0.17140625 5.95703125 -0.1953125 C8 0 8 0 11 2 C11 2.66 11 3.32 11 4 C11.81984375 3.86980469 12.6396875 3.73960937 13.484375 3.60546875 C22.30683835 2.47627787 22.30683835 2.47627787 25.8125 5.125 C27.14140309 8.34234433 27.11461447 9.74904114 26 13 C19.93274918 15.11455439 14.3713106 11.13423658 8.9375 8.53515625 C1.21580493 4.5838201 1.21580493 4.5838201 0.19140625 1.8125 C0.12824219 1.214375 0.06507813 0.61625 0 0 Z " fill="#9C9591" transform="translate(422,703)"/>
<path d="M0 0 C2.31 0 4.62 0 7 0 C12.62203666 16.01276514 12.62203666 16.01276514 11 23 C7.84504252 25.97968206 6.37295237 26 2 26 C2.01047363 25.40985107 2.02094727 24.81970215 2.03173828 24.21166992 C2.07332044 21.53698996 2.0993329 18.86237803 2.125 16.1875 C2.14175781 15.25873047 2.15851563 14.32996094 2.17578125 13.37304688 C2.18222656 12.48037109 2.18867188 11.58769531 2.1953125 10.66796875 C2.20578613 9.84578857 2.21625977 9.0236084 2.22705078 8.17651367 C2.13996135 5.70578408 2.13996135 5.70578408 0 3 C0 2.01 0 1.02 0 0 Z " fill="#9A9490" transform="translate(490,698)"/>
<path d="M0 0 C6.18383236 1.24261407 12.044468 2.92029041 18 5 C17.01 8.3 16.02 11.6 15 15 C8.79416842 13.02989474 2.90148454 10.74844552 -3 8 C-2.45276317 4.62537285 -1.9451 2.91765 0 0 Z " fill="#655E5A" transform="translate(335,629)"/>
<path d="M0 0 C-1.1196986 1.00593243 -2.2459412 2.0045849 -3.375 3 C-4.31472656 3.8353125 -4.31472656 3.8353125 -5.2734375 4.6875 C-7 6 -7 6 -9 6 C-9.26554687 6.598125 -9.53109375 7.19625 -9.8046875 7.8125 C-11.03700653 10.06772437 -12.22106255 11.29973958 -14.125 13 C-19.92400116 18.6044854 -24.57179605 25.70854084 -28 33 C-29.47184208 28.58447375 -28.55515963 25.32507915 -27 21 C-22.72293005 13.14860814 -10.39871489 -3.4662383 0 0 Z " fill="#2E2C2A" transform="translate(330,300)"/>
<path d="M0 0 C1.0828125 0.00447144 1.0828125 0.00447144 2.1875 0.0090332 C2.98744385 0.00774414 3.7873877 0.00645508 4.61157227 0.00512695 C5.88665649 0.03219727 5.88665649 0.03219727 7.1875 0.05981445 C8.05238037 0.07399414 8.91726074 0.08817383 9.80834961 0.1027832 C21.78839427 0.39143181 28.12180766 2.0781704 37.1875 10.37231445 C34.1875 11.37231445 34.1875 11.37231445 32.53515625 10.5637207 C31.37306641 9.97397461 31.37306641 9.97397461 30.1875 9.37231445 C27.35956796 8.57142513 24.49377796 7.9465137 21.625 7.30981445 C13.48339844 5.47094727 13.48339844 5.47094727 10.1875 4.37231445 C7.79495424 4.14670769 5.39821877 3.9638285 3 3.80981445 C1.72769531 3.72602539 0.45539063 3.64223633 -0.85546875 3.5559082 C-1.83128906 3.49532227 -2.80710937 3.43473633 -3.8125 3.37231445 C-1.8125 0.37231445 -1.8125 0.37231445 0 0 Z " fill="#34322F" transform="translate(459.8125,257.627685546875)"/>
<path d="M0 0 C9.53748149 -0.4277608 17.76838596 0.67479586 27 3 C27 3.66 27 4.32 27 5 C24.60468067 5.64779076 22.20878252 6.29329009 19.8125 6.9375 C19.13896484 7.11990234 18.46542969 7.30230469 17.77148438 7.49023438 C14.19851542 8.4488358 10.63843262 9.32883282 7 10 C6.401875 9.071875 5.80375 8.14375 5.1875 7.1875 C3.53843703 4.78457968 2.07883638 2.97489456 0 1 C0 0.67 0 0.34 0 0 Z " fill="#C4AEA7" transform="translate(385,578)"/>
<path d="M0 0 C-0.74250597 4.08378283 -1.82923301 8.01939223 -3 12 C-14.68658189 11.1376891 -14.68658189 11.1376891 -18 9 C-18.62109375 6.421875 -18.62109375 6.421875 -19 4 C-16.39688008 3.32900016 -13.79264602 2.66304662 -11.1875 2 C-10.44951172 1.80921875 -9.71152344 1.6184375 -8.95117188 1.421875 C-5.89464659 0.64737086 -3.16626522 0 0 0 Z " fill="#CAC7C5" transform="translate(527,691)"/>
<path d="M0 0 C1.25 6.625 1.25 6.625 -1 10 C-2.875 10.36328125 -2.875 10.36328125 -5 10.3125 C-5.70125 10.30863281 -6.4025 10.30476562 -7.125 10.30078125 C-9 10 -9 10 -11 8 C-11.32618658 4.93384617 -11.42932497 2.83181713 -10 0.0625 C-6.65791742 -1.71298137 -3.65183129 -0.65852695 0 0 Z " fill="#B3ADAA" transform="translate(416,604)"/>
<path d="M0 0 C2.5625 0.3125 2.5625 0.3125 4.375 1.4375 C6.09751881 4.15726654 5.89105599 6.15836249 5.5625 9.3125 C4.5725 10.7975 4.5725 10.7975 3.5625 12.3125 C0.0625 12.6875 0.0625 12.6875 -3.4375 12.3125 C-5.4375 9.3125 -5.4375 9.3125 -5.1875 5.75 C-4.35190798 1.92020324 -4.00005397 0.51282743 0 0 Z " fill="#C1BDBA" transform="translate(507.4375,618.6875)"/>
<path d="M0 0 C2.625 0.375 2.625 0.375 5 1 C5.08075665 3.29109597 5.13907731 5.58299267 5.1875 7.875 C5.22230469 9.15117188 5.25710938 10.42734375 5.29296875 11.7421875 C5.19628906 12.81726563 5.09960938 13.89234375 5 15 C2 17 2 17 -1 17 C-2.4241906 14.15161879 -2.16995508 11.67212092 -2.1875 8.5 C-2.20876953 6.75203125 -2.20876953 6.75203125 -2.23046875 4.96875 C-2 2 -2 2 0 0 Z " fill="#9E948F" transform="translate(529,661)"/>
<path d="M0 0 C2.06277107 0.14194764 4.12521031 0.28872216 6.1875 0.4375 C7.91033203 0.55931641 7.91033203 0.55931641 9.66796875 0.68359375 C12.51598171 0.95403812 15.21210482 1.37521747 18 2 C14.74397004 4.7133583 11.43846872 6.21435853 7.5 7.75 C6.3759375 8.19859375 5.251875 8.6471875 4.09375 9.109375 C1.08998328 9.97409572 -0.15801946 10.14236473 -3 9 C-2.67 8.34 -2.34 7.68 -2 7 C-1.34 7 -0.68 7 0 7 C0 4.69 0 2.38 0 0 Z " fill="#A19B97" transform="translate(402,700)"/>
<path d="M0 0 C2.4375 0.1875 2.4375 0.1875 3.4375 1.1875 C3.625 3.625 3.625 3.625 3.4375 6.1875 C2.7775 6.8475 2.1175 7.5075 1.4375 8.1875 C4.4075 8.1875 7.3775 8.1875 10.4375 8.1875 C10.4375 6.2075 10.4375 4.2275 10.4375 2.1875 C10.7675 2.1875 11.0975 2.1875 11.4375 2.1875 C11.4375 4.4975 11.4375 6.8075 11.4375 9.1875 C3.36187827 10.62544854 -4.3568963 11.48349372 -12.5625 11.1875 C-12.5625 10.8575 -12.5625 10.5275 -12.5625 10.1875 C-9.5925 9.5275 -6.6225 8.8675 -3.5625 8.1875 C-3.8925 7.8575 -4.2225 7.5275 -4.5625 7.1875 C-4.75 4.75 -4.75 4.75 -4.5625 2.1875 C-2.5625 0.1875 -2.5625 0.1875 0 0 Z " fill="#544F4B" transform="translate(491.5625,677.8125)"/>
<path d="M0 0 C5.94 0.66 11.88 1.32 18 2 C17.01 2.33 16.02 2.66 15 3 C15 4.65 15 6.3 15 8 C13.41705218 8.05437607 11.83355744 8.09296271 10.25 8.125 C9.36828125 8.14820313 8.4865625 8.17140625 7.578125 8.1953125 C4.7439794 7.9806045 3.24032825 7.76602452 1 6 C0.67 4.02 0.34 2.04 0 0 Z " fill="#79716C" transform="translate(394,650)"/>
<path d="M0 0 C0 5.61 0 11.22 0 17 C-0.66 17 -1.32 17 -2 17 C-2.24234375 16.48050781 -2.4846875 15.96101562 -2.734375 15.42578125 C-4.77136078 11.18728392 -6.87828828 7.56767054 -10 4 C-7.02096266 1.02096266 -4.19714671 0 0 0 Z " fill="#373433" transform="translate(541,580)"/>
<path d="M0 0 C7.50034746 0.05763165 12.90406269 1.59411602 18.5625 6.5625 C19.036875 7.14 19.51125 7.7175 20 8.3125 C16.66393375 7.65912297 13.33182667 6.98714316 10 6.3125 C8.78699219 6.07144531 7.57398438 5.83039063 6.32421875 5.58203125 C5.08285156 5.32808594 3.84148437 5.07414062 2.5625 4.8125 C0.80099609 4.45671875 0.80099609 4.45671875 -0.99609375 4.09375 C-4 3.3125 -4 3.3125 -7 1.3125 C-5.17540697 -0.51209303 -2.45812719 0.05405604 0 0 Z " fill="#4B4744" transform="translate(478,312.6875)"/>
<path d="M0 0 C2.40569331 3.05783908 4.36189615 6.22457996 6.25 9.625 C6.79140625 10.58664062 7.3328125 11.54828125 7.890625 12.5390625 C8.25671875 13.35117187 8.6228125 14.16328125 9 15 C8 17 8 17 5 19 C1.6010364 13.36905031 -1.76352732 7.72606705 -5 2 C-3.35 2 -1.7 2 0 2 C0 1.34 0 0.68 0 0 Z " fill="#938C87" transform="translate(450,319)"/>
<path d="M0 0 C0.66 0.33 1.32 0.66 2 1 C1.79503906 1.85980469 1.59007812 2.71960938 1.37890625 3.60546875 C-0.48263682 11.77310032 -1.59630959 19.61994382 -2 28 C-5.87587585 23.74373315 -5.47947595 19.94114961 -5.3671875 14.4140625 C-4.85249841 9.62854909 -3.54925875 3.54925875 0 0 Z " fill="#373532" transform="translate(269,392)"/>
<path d="M0 0 C0 0.33 0 0.66 0 1 C-3.35414799 1.02929977 -6.70826253 1.0468989 -10.0625 1.0625 C-11.00544922 1.07087891 -11.94839844 1.07925781 -12.91992188 1.08789062 C-18.0630768 1.10581103 -22.93258427 0.89259611 -28 0 C-20.60837889 -4.92774741 -7.37577884 -4.91718589 0 0 Z " fill="#403E3B" transform="translate(448,234)"/>
<path d="M0 0 C1.98 0 3.96 0 6 0 C6.27771418 4.67948398 5.54837397 7.67583336 3.5 11.875 C3.0359375 12.84179688 2.571875 13.80859375 2.09375 14.8046875 C1.7328125 15.52914063 1.371875 16.25359375 1 17 C-1.32613583 13.51079626 -1.24247293 12.05047454 -1.1875 7.9375 C-1.18105469 6.87402344 -1.17460938 5.81054688 -1.16796875 4.71484375 C-1 2 -1 2 0 0 Z " fill="#C7BDB7" transform="translate(594,454)"/>
<path d="M0 0 C11.55 0 23.1 0 35 0 C35 0.33 35 0.66 35 1 C26.75 1 18.5 1 10 1 C10 2.32 10 3.64 10 5 C3.375 5.125 3.375 5.125 0 4 C0 2.68 0 1.36 0 0 Z " fill="#585350" transform="translate(431,700)"/>
<path d="M0 0 C5.5952381 0.5952381 5.5952381 0.5952381 8 3 C8.125 5.625 8.125 5.625 8 8 C1.58805513 9.33078101 1.58805513 9.33078101 -1 7.875 C-2 6 -2 6 -1.75 3.375 C-1 1 -1 1 0 0 Z " fill="#706B68" transform="translate(394,699)"/>
<path d="M0 0 C4.47857478 2.23928739 5.75707189 3.59721519 8 8 C7.75 11.875 7.75 11.875 7 15 C2.68607774 14.5206753 0.83430453 13.2542015 -2 10 C0.475 10.495 0.475 10.495 3 11 C2.01 7.37 1.02 3.74 0 0 Z " fill="#35312E" transform="translate(500,517)"/>
<path d="M0 0 C2.31 0 4.62 0 7 0 C7 3.3 7 6.6 7 10 C5.00045254 10.04254356 2.99958364 10.04080783 1 10 C0 9 0 9 -0.09765625 6.93359375 C-0.08605469 6.10988281 -0.07445312 5.28617188 -0.0625 4.4375 C-0.05347656 3.61121094 -0.04445313 2.78492188 -0.03515625 1.93359375 C-0.02355469 1.29550781 -0.01195312 0.65742187 0 0 Z " fill="#45423F" transform="translate(465,726)"/>
<path d="M0 0 C-0.99 2.64 -1.98 5.28 -3 8 C-6.375 7.6875 -6.375 7.6875 -10 7 C-12 4 -12 4 -12 1 C-10.37681021 0.63762737 -8.7513642 0.28534843 -7.125 -0.0625 C-6.22007812 -0.25972656 -5.31515625 -0.45695313 -4.3828125 -0.66015625 C-2 -1 -2 -1 0 0 Z " fill="#97908D" transform="translate(520,694)"/>
<path d="M0 0 C-0.66 4.29 -1.32 8.58 -2 13 C-3.65 12.67 -5.3 12.34 -7 12 C-7.32325181 7.87853942 -7.39022067 5.6324266 -5.1875 2.0625 C-3 0 -3 0 0 0 Z " fill="#2C2A28" transform="translate(390,308)"/>
<path d="M0 0 C4.29 0 8.58 0 13 0 C11.68 0.33 10.36 0.66 9 1 C9 3.64 9 6.28 9 9 C9.66 9.33 10.32 9.66 11 10 C8.6875 9.8125 8.6875 9.8125 6 9 C4.375 6.625 4.375 6.625 3 4 C2.01834406 2.98198643 1.02408568 1.9753197 0 1 C0 0.67 0 0.34 0 0 Z " fill="#78655E" transform="translate(385,578)"/>
<path d="M0 0 C1.65 0.33 3.3 0.66 5 1 C5.625 3.875 5.625 3.875 6 7 C5.34 7.66 4.68 8.32 4 9 C1.375 8.625 1.375 8.625 -1 8 C-1.625 5.6875 -1.625 5.6875 -2 3 C-1.34 2.01 -0.68 1.02 0 0 Z " fill="#55504D" transform="translate(435,676)"/>
<path d="M0 0 C2 2 2 2 2.23046875 5.80859375 C2.22647471 7.35162381 2.21170649 8.89465466 2.1875 10.4375 C2.18685547 11.21416016 2.18621094 11.99082031 2.18554688 12.79101562 C2.15987563 16.10260575 2.05352418 18.83942745 1 22 C1.99 22.33 2.98 22.66 4 23 C0.37 23 -3.26 23 -7 23 C-7 21.35 -7 19.7 -7 18 C-6.67 19.32 -6.34 20.64 -6 22 C-4.35 21.67 -2.7 21.34 -1 21 C-1 17.37 -1 13.74 -1 10 C-0.67 10 -0.34 10 0 10 C0 6.7 0 3.4 0 0 Z " fill="#635E5B" transform="translate(491,702)"/>
<path d="M0 0 C2.375 2.5 2.375 2.5 4 5 C3.01 5.66 2.02 6.32 1 7 C0.34 6.34 -0.32 5.68 -1 5 C-3.44012949 4.75712511 -3.44012949 4.75712511 -6.125 4.875 C-7.03507812 4.89304687 -7.94515625 4.91109375 -8.8828125 4.9296875 C-9.58148438 4.95289063 -10.28015625 4.97609375 -11 5 C-11 4.01 -11 3.02 -11 2 C-7.19136463 0.207701 -4.20539781 -0.62633584 0 0 Z " fill="#433D3A" transform="translate(469,540)"/>
<path d="M0 0 C5.61 0.33 11.22 0.66 17 1 C16.67 2.32 16.34 3.64 16 5 C13.36 4.67 10.72 4.34 8 4 C8.33 4.99 8.66 5.98 9 7 C6.69 6.67 4.38 6.34 2 6 C2.495 5.54625 2.99 5.0925 3.5 4.625 C5.22609337 3.12364481 5.22609337 3.12364481 5 1 C3.35 1 1.7 1 0 1 C0 0.67 0 0.34 0 0 Z " fill="#807A76" transform="translate(414,699)"/>
<path d="M0 0 C3 1 3 1 4.1875 3.0625 C4.455625 3.701875 4.72375 4.34125 5 5 C-0.12919186 7.10428384 -4.5610835 7.21755666 -10 7 C-8.49400979 3.98801958 -5.97413004 3.42758242 -3 2 C-2.01 1.34 -1.02 0.68 0 0 Z " fill="#5F5956" transform="translate(510,729)"/>
<path d="M0 0 C2 2 2 2 2 5 C2.66 5 3.32 5 4 5 C4 8.3 4 11.6 4 15 C2.68 15.33 1.36 15.66 0 16 C0 10.72 0 5.44 0 0 Z " fill="#B2AEAB" transform="translate(497,706)"/>
<path d="M0 0 C0.66 1.32 1.32 2.64 2 4 C1.01 4.495 1.01 4.495 0 5 C-0.73075648 7.3140622 -1.40138258 9.64828869 -2 12 C-2.33 11.34 -2.66 10.68 -3 10 C-5.02463255 9.34786708 -5.02463255 9.34786708 -7 9 C-7 7.35 -7 5.7 -7 4 C-6.030625 3.71125 -5.06125 3.4225 -4.0625 3.125 C-0.89335797 2.35785318 -0.89335797 2.35785318 0 0 Z " fill="#2A2826" transform="translate(339,587)"/>
<path d="M0 0 C0 0.99 0 1.98 0 3 C-0.94875 2.938125 -1.8975 2.87625 -2.875 2.8125 C-4.421875 2.9053125 -4.421875 2.9053125 -6 3 C-6.99 4.485 -6.99 4.485 -8 6 C-9.32 5.67 -10.64 5.34 -12 5 C-11.66260373 2.469528 -11.3938922 1.3181437 -9.375 -0.3125 C-6.05401826 -1.27383682 -3.35382798 -0.64496692 0 0 Z " fill="#BAB5B2" transform="translate(509,594)"/>
<path d="M0 0 C0.66 0.33 1.32 0.66 2 1 C-3.94 6.94 -9.88 12.88 -16 19 C-16.66 18.67 -17.32 18.34 -18 18 C-16.38405168 15.95880212 -14.7143618 13.95927063 -13 12 C-12.34 12 -11.68 12 -11 12 C-10.76539063 11.42765625 -10.53078125 10.8553125 -10.2890625 10.265625 C-8.70593415 7.48315699 -6.8008475 5.82929786 -4.375 3.75 C-3.55773437 3.04359375 -2.74046875 2.3371875 -1.8984375 1.609375 C-1.27195312 1.07828125 -0.64546875 0.5471875 0 0 Z " fill="#8C8681" transform="translate(303,248)"/>
<path d="M0 0 C1.32 0 2.64 0 4 0 C4.33 2.64 4.66 5.28 5 8 C2.625 8.1875 2.625 8.1875 0 8 C-2 5 -2 5 -1.6875 2.875 C-1 1 -1 1 0 0 Z " fill="#4E4B4A" transform="translate(327,592)"/>
<path d="M0 0 C2.97 0 5.94 0 9 0 C7.68 0.33 6.36 0.66 5 1 C5.33 2.98 5.66 4.96 6 7 C4.02 7.33 2.04 7.66 0 8 C0 5.36 0 2.72 0 0 Z " fill="#B0958B" transform="translate(394,579)"/>
<path d="M0 0 C-2.62198774 2.15377564 -4.64404172 3.40072174 -8 4 C-8 3.34 -8 2.68 -8 2 C-16.91 2 -25.82 2 -35 2 C-35 1.67 -35 1.34 -35 1 C-30.81912796 0.85650316 -26.63821982 0.71412224 -22.45727539 0.57275391 C-21.03636663 0.52455461 -19.615468 0.47605585 -18.19458008 0.42724609 C-16.14667335 0.35695017 -14.09873206 0.28774811 -12.05078125 0.21875 C-10.20480347 0.1559082 -10.20480347 0.1559082 -8.3215332 0.09179688 C-5.54496654 0.01506118 -2.77729118 -0.01843845 0 0 Z " fill="#5D5450" transform="translate(527,547)"/>
<path d="M0 0 C3.3 0 6.6 0 10 0 C9.67 1.98 9.34 3.96 9 6 C5.06326356 4.68775452 2.77280706 3.08089673 0 0 Z " fill="#A8968F" transform="translate(374,661)"/>
<path d="M0 0 C1.85776765 3.13498292 2.20140476 5.37471432 2 9 C-0.64 7.35 -3.28 5.7 -6 4 C-5.67 3.01 -5.34 2.02 -5 1 C-3 0 -3 0 0 0 Z " fill="#A6948E" transform="translate(543,647)"/>
<path d="M0 0 C0.99 1.32 1.98 2.64 3 4 C2.14928101 7.17086167 0.82905734 9.256414 -1 12 C1.97 12.495 1.97 12.495 5 13 C5 13.33 5 13.66 5 14 C1.04 14 -2.92 14 -7 14 C-5.68 13.67 -4.36 13.34 -3 13 C-2.01 8.71 -1.02 4.42 0 0 Z " fill="#66625F" transform="translate(489,628)"/>
<path d="M0 0 C1.11375 0.598125 2.2275 1.19625 3.375 1.8125 C4.00148438 2.14894531 4.62796875 2.48539062 5.2734375 2.83203125 C7 4 7 4 9 7 C4.81134319 6.23915412 0.77515205 5.12177302 -3.3125 3.9375 C-5.19388672 3.39416016 -5.19388672 3.39416016 -7.11328125 2.83984375 C-8.06589844 2.56269531 -9.01851563 2.28554688 -10 2 C-6.34811918 0.92825237 -3.73567172 1.23588533 0 2 C0 1.34 0 0.68 0 0 Z " fill="#4F4B48" transform="translate(488,262)"/>
<path d="M0 0 C2.31 0.33 4.62 0.66 7 1 C6.8125 2.875 6.8125 2.875 6 5 C3.4375 6.25 3.4375 6.25 1 7 C-0.0625 4.625 -0.0625 4.625 -1 2 C-0.67 1.34 -0.34 0.68 0 0 Z " fill="#1F1E1C" transform="translate(319,612)"/>
<path d="M0 0 C2.875 2.5 2.875 2.5 5 5 C3.39431334 4.71682074 1.79047953 4.42312209 0.1875 4.125 C-0.70582031 3.96257812 -1.59914063 3.80015625 -2.51953125 3.6328125 C-5 3 -5 3 -8 1 C-5.11138291 -0.44430855 -3.20352299 -0.37688506 0 0 Z " fill="#353230" transform="translate(493,316)"/>
<path d="M0 0 C0.66 0.33 1.32 0.66 2 1 C1.195625 1.763125 0.39125 2.52625 -0.4375 3.3125 C-3.16799024 5.79430898 -3.16799024 5.79430898 -4 9 C-5.98 9.33 -7.96 9.66 -10 10 C-3.84965831 2.51708428 -3.84965831 2.51708428 0 0 Z " fill="#433D3A" transform="translate(440,501)"/>
<path d="M0 0 C0.66 0.33 1.32 0.66 2 1 C-1.3 4.3 -4.6 7.6 -8 11 C-8.66 10.67 -9.32 10.34 -10 10 C-8.7121669 8.51749445 -7.41960936 7.03909182 -6.125 5.5625 C-5.40570313 4.73878906 -4.68640625 3.91507812 -3.9453125 3.06640625 C-2 1 -2 1 0 0 Z " fill="#34322F" transform="translate(361,263)"/>
<path d="M0 0 C0.66 0.33 1.32 0.66 2 1 C-1.63 4.63 -5.26 8.26 -9 12 C-9.66 11.67 -10.32 11.34 -11 11 C-9.71937515 9.2925002 -8.38232443 7.62626404 -7 6 C-6.34 6 -5.68 6 -5 6 C-5 5.34 -5 4.68 -5 4 C-3.37373596 2.61767557 -1.7074998 1.28062485 0 0 Z " fill="#3D3B39" transform="translate(381,402)"/>
<path d="M0 0 C6.27 0 12.54 0 19 0 C19 0.33 19 0.66 19 1 C18.37351562 1.04898438 17.74703125 1.09796875 17.1015625 1.1484375 C15.87566406 1.26058594 15.87566406 1.26058594 14.625 1.375 C13.81289063 1.44460938 13.00078125 1.51421875 12.1640625 1.5859375 C9.79665809 1.82892588 9.79665809 1.82892588 8 4 C7.67 3.01 7.34 2.02 7 1 C4.69 1 2.38 1 0 1 C0 0.67 0 0.34 0 0 Z " fill="#5D534F" transform="translate(365,660)"/>
<path d="M0 0 C0.33 0 0.66 0 1 0 C1 5.61 1 11.22 1 17 C0.01 16.34 -0.98 15.68 -2 15 C-2.1875 12.375 -2.1875 12.375 -2 10 C-1.67 10 -1.34 10 -1 10 C-0.67 6.7 -0.34 3.4 0 0 Z " fill="#7C7672" transform="translate(326,450)"/>
<path d="M0 0 C1.40907283 2.81814566 0.50872691 4.17277204 -0.4375 7.125 C-0.72496094 8.03507812 -1.01242187 8.94515625 -1.30859375 9.8828125 C-1.53675781 10.58148438 -1.76492188 11.28015625 -2 12 C-2.33 11.01 -2.66 10.02 -3 9 C-3.33 8.67 -3.66 8.34 -4 8 C-4 4.09161134 -2.49432124 2.88405893 0 0 Z " fill="#494542" transform="translate(346,356)"/>
<path d="M0 0 C0.99 0.33 1.98 0.66 3 1 C2.67 2.65 2.34 4.3 2 6 C0.68 5.67 -0.64 5.34 -2 5 C-1.125 1.125 -1.125 1.125 0 0 Z " fill="#615B58" transform="translate(401,620)"/>
<path d="M0 0 C0.33 0 0.66 0 1 0 C1 3.96 1 7.92 1 12 C0.01 12 -0.98 12 -2 12 C-1.34 8.04 -0.68 4.08 0 0 Z " fill="#918A85" transform="translate(604,443)"/>
<path d="M0 0 C4.875 4.625 4.875 4.625 6 8 C5.01 8 4.02 8 3 8 C1.61328125 6.46875 1.61328125 6.46875 0.3125 4.5 C-0.12449219 3.8503125 -0.56148437 3.200625 -1.01171875 2.53125 C-1.50091797 1.77328125 -1.50091797 1.77328125 -2 1 C-1.34 0.67 -0.68 0.34 0 0 Z " fill="#D3CDCA" transform="translate(590,388)"/>
<path d="M0 0 C0.66 0.33 1.32 0.66 2 1 C0.515 2.485 0.515 2.485 -1 4 C-0.34 4.66 0.32 5.32 1 6 C-1.97 6 -4.94 6 -8 6 C-6.49650603 2.99301207 -3.9581052 2.41742541 -1 1 C-0.67 0.67 -0.34 0.34 0 0 Z " fill="#534E4B" transform="translate(508,730)"/>
<path d="M0 0 C0.66 0.33 1.32 0.66 2 1 C1.21625 1.886875 0.4325 2.77375 -0.375 3.6875 C-2.57156991 6.30720519 -3.93790341 8.71715601 -5 12 C-6.27350058 8.98990772 -5.99687398 7.99218495 -4.75 4.875 C-3 2 -3 2 0 0 Z " fill="#5E5450" transform="translate(371,446)"/>
<path d="M0 0 C0.33333333 1.33333333 0.66666667 2.66666667 1 4 C1.4021875 4.99 1.4021875 4.99 1.8125 6 C1.874375 6.66 1.93625 7.32 2 8 C0.0625 10.25 0.0625 10.25 -2 12 C-1.85831863 10.56208484 -1.71148957 9.1246763 -1.5625 7.6875 C-1.48128906 6.88699219 -1.40007812 6.08648437 -1.31640625 5.26171875 C-1 3 -1 3 0 0 Z " fill="#5A5552" transform="translate(345,285)"/>
<path d="M0 0 C0.66 0.33 1.32 0.66 2 1 C0.68 2.32 -0.64 3.64 -2 5 C-1.34 5.66 -0.68 6.32 0 7 C-2.31 7 -4.62 7 -7 7 C-4.66666667 4.66666667 -2.33333333 2.33333333 0 0 Z " fill="#3E3835" transform="translate(513,483)"/>
<path d="M0 0 C0.66 0.33 1.32 0.66 2 1 C-0.25 3.5 -0.25 3.5 -3 6 C-4.32 6 -5.64 6 -7 6 C-6 3 -6 3 -3.0625 1.25 C-2.051875 0.8375 -1.04125 0.425 0 0 Z " fill="#B9B4B1" transform="translate(376,217)"/>
<path d="M0 0 C2.31 0 4.62 0 7 0 C7 0.99 7 1.98 7 3 C4.69 3 2.38 3 0 3 C0 2.01 0 1.02 0 0 Z " fill="#BCB8B4" transform="translate(439,599)"/>
<path d="M0 0 C2.97 0.99 5.94 1.98 9 3 C9 3.99 9 4.98 9 6 C5.32579134 5.69381595 4.21864487 5.24228216 1.6875 2.4375 C1.130625 1.633125 0.57375 0.82875 0 0 Z " fill="#A59D98" transform="translate(446,336)"/>
<path d="M0 0 C2.97 0 5.94 0 9 0 C8.01 1.485 8.01 1.485 7 3 C4.0625 2.625 4.0625 2.625 1 2 C0.67 1.34 0.34 0.68 0 0 Z " fill="#90817B" transform="translate(478,584)"/>
<path d="M0 0 C0.66 0 1.32 0 2 0 C3.625 2.5 3.625 2.5 5 5 C4.34 5 3.68 5 3 5 C2.67 5.99 2.34 6.98 2 8 C0.74335022 5.09399739 0 3.20395416 0 0 Z " fill="#554C48" transform="translate(356,677)"/>
<path d="M0 0 C0.99 0 1.98 0 3 0 C3 1.65 3 3.3 3 5 C1.68 4.67 0.36 4.34 -1 4 C-0.67 2.68 -0.34 1.36 0 0 Z " fill="#BDB8B5" transform="translate(423,605)"/>
<path d="M0 0 C0.99 0 1.98 0 3 0 C3.1875 2.375 3.1875 2.375 3 5 C2.01 5.66 1.02 6.32 0 7 C0 4.69 0 2.38 0 0 Z " fill="#BDB9B5" transform="translate(414,606)"/>
<path d="M0 0 C-1.98 1.32 -3.96 2.64 -6 4 C-6.99 3.34 -7.98 2.68 -9 2 C-3.375 -1.125 -3.375 -1.125 0 0 Z " fill="#413E3C" transform="translate(330,300)"/>
<path d="M0 0 C0.99 1.32 1.98 2.64 3 4 C2.3125 6.6875 2.3125 6.6875 1 9 C0.01 9.495 0.01 9.495 -1 10 C-0.67 6.7 -0.34 3.4 0 0 Z " fill="#44413F" transform="translate(489,628)"/>
<path d="M0 0 C2.62187494 1.04874998 3.79371361 1.64931313 5.25 4.125 C5.4975 4.74375 5.745 5.3625 6 6 C5.34 5.67 4.68 5.34 4 5 C3.34 5.66 2.68 6.32 2 7 C1.34 4.69 0.68 2.38 0 0 Z " fill="#4D4642" transform="translate(500,517)"/>
</svg>
