<?xml version="1.0" encoding="UTF-8"?>
<svg version="1.1" xmlns="http://www.w3.org/2000/svg" width="900" height="900">
<path d="M0 0 C1.51400391 0.33837891 1.51400391 0.33837891 3.05859375 0.68359375 C28.3840322 6.63658526 54.08150738 17.11266431 74.28466797 33.62597656 C76.86252864 35.6909068 79.56355916 37.57962809 82.25 39.5 C91.7401728 46.63372555 99.6472798 55.21479308 106.9921875 64.5078125 C108.72572646 66.6595593 110.53098698 68.62981195 112.4375 70.625 C117.57279648 76.38421101 121.07335026 83.40443544 124.86279297 90.08203125 C125.8351428 91.72195832 126.91764692 93.29571035 128.01953125 94.8515625 C130.78808367 99.25285096 132.5899854 103.92607234 134.5 108.75 C135.06654297 110.15765625 135.06654297 110.15765625 135.64453125 111.59375 C136.39950797 113.47211134 137.15051812 115.35207206 137.89746094 117.23364258 C138.62635893 119.0625051 139.36385855 120.88796528 140.11035156 122.7097168 C141.94418373 127.19940019 143.59945322 131.58886626 144.75 136.3125 C144.99234375 137.27800781 145.2346875 138.24351562 145.484375 139.23828125 C145.98130015 141.89984246 146.09834565 144.30041203 146 147 C146.66 147 147.32 147 148 147 C148.17128418 147.76666992 148.34256836 148.53333984 148.51904297 149.32324219 C149.29898349 152.8000601 150.08689873 156.27502324 150.875 159.75 C151.14441406 160.9565625 151.41382813 162.163125 151.69140625 163.40625 C151.95566406 164.56640625 152.21992187 165.7265625 152.4921875 166.921875 C152.73308105 167.99018555 152.97397461 169.05849609 153.22216797 170.15917969 C153.87763385 172.93466096 153.87763385 172.93466096 155.0546875 175.0559082 C156.23179105 177.47669218 156.41497926 179.5042449 156.6328125 182.18359375 C156.75885864 183.68962158 156.75885864 183.68962158 156.88745117 185.22607422 C156.96584229 186.28584473 157.0442334 187.34561523 157.125 188.4375 C157.20919189 189.52047363 157.29338379 190.60344727 157.38012695 191.71923828 C158.1317929 201.8678709 158.50299726 211.76200773 157.12109375 221.87890625 C156.88699294 223.94303928 156.88699294 223.94303928 157.46606445 225.63964844 C158.2328438 229.02932504 158.29894179 232.42627205 158.421875 235.88671875 C158.46371918 237.04963188 158.46371918 237.04963188 158.50640869 238.23603821 C158.56276381 239.88261157 158.61638622 241.52928039 158.66748047 243.17602539 C158.72173792 244.82734619 158.78369048 246.47843531 158.85400391 248.12915039 C159.78859574 270.07877035 154.6740745 289.46129575 147 310 C146.69449219 310.84949219 146.38898438 311.69898438 146.07421875 312.57421875 C143.13039905 320.42008183 139.06969971 327.69462262 135 335 C134.22269531 336.40185547 134.22269531 336.40185547 133.4296875 337.83203125 C128.56013465 346.28057239 122.599956 353.63556542 115.55859375 360.36328125 C113.74230962 362.16260739 113.74230962 362.16260739 111.875 365.375 C106.85350333 372.79007674 96.73077548 377.86493405 89 382 C89.24234375 382.78761719 89.4846875 383.57523438 89.734375 384.38671875 C90.44417244 386.69356043 91.15237701 389.00089256 91.859375 391.30859375 C92.56622093 393.5961602 93.28304361 395.88070107 94.015625 398.16015625 C96.22729684 405.1023484 98.03597801 412.06619917 99.60546875 419.17675781 C100.24128454 422.01254965 100.87632205 424.70998529 102.01855469 427.38842773 C103.07289588 430.19397195 103.40133813 432.55218925 103.6328125 435.53515625 C103.75849609 437.12166992 103.75849609 437.12166992 103.88671875 438.74023438 C103.96535156 439.83658203 104.04398438 440.93292969 104.125 442.0625 C104.21136719 443.13177734 104.29773438 444.20105469 104.38671875 445.30273438 C106.02846795 466.86697981 106.02846795 466.86697981 102.375 472.75 C101.8284375 473.64074219 101.281875 474.53148437 100.71875 475.44921875 C100.1515625 476.29097656 99.584375 477.13273437 99 478 C98.4740625 478.79019531 97.948125 479.58039063 97.40625 480.39453125 C94.88231163 483.9679644 93.08579995 486.23766998 89 488 C89 488.66 89 489.32 89 490 C87.73160474 490.50615298 86.46016898 491.00469099 85.1875 491.5 C84.12595703 491.91765625 84.12595703 491.91765625 83.04296875 492.34375 C81 493 81 493 78 493 C77.938125 494.19625 77.87625 495.3925 77.8125 496.625 C76.94519373 504.21392985 74.88020889 514.01658392 69.0625 519.375 C65.66381451 521.17838414 63.77232046 521.13641214 60 521 C60.91549267 528.75465613 60.91549267 528.75465613 63.5625 536 C65.84019841 540.75345755 65.75548765 545.78935741 66 551 C53.67101721 556.59447532 41.29601028 557.47782177 27.93920898 557.33618164 C25.56784905 557.3125533 23.19762049 557.31565583 20.82617188 557.32226562 C10.71748087 557.30225152 1.00911194 556.43477276 -9 555 C-9.99 548.73 -10.98 542.46 -12 536 C-14.64 536 -17.28 536 -20 536 C-19.68289063 536.84820313 -19.36578125 537.69640625 -19.0390625 538.5703125 C-17.97128768 542.09477225 -17.59958921 545.20670957 -17.375 548.875 C-17.30023438 550.02742187 -17.22546875 551.17984375 -17.1484375 552.3671875 C-17.07496094 553.67042969 -17.07496094 553.67042969 -17 555 C-19.16567544 555.48362696 -21.33259741 555.96167317 -23.5 556.4375 C-25.30984375 556.83775391 -25.30984375 556.83775391 -27.15625 557.24609375 C-49.37350139 561.6037457 -75.29498816 560.72796863 -97 554 C-96.86164197 549.54140138 -96.71305421 545.08320214 -96.5625 540.625 C-96.52318359 539.35398437 -96.48386719 538.08296875 -96.44335938 536.7734375 C-96.40146484 535.56171875 -96.35957031 534.35 -96.31640625 533.1015625 C-96.27974854 531.98088379 -96.24309082 530.86020508 -96.20532227 529.70556641 C-96 527 -96 527 -95 525 C-95.99 525.33 -96.98 525.66 -98 526 C-106.75836431 526.42379182 -106.75836431 526.42379182 -111 524 C-114.45614009 520.54385991 -116.28173644 515.51807372 -118 511 C-118 510.34 -118 509.68 -118 509 C-118.7321875 508.70738281 -119.464375 508.41476562 -120.21875 508.11328125 C-121.1365625 507.74589844 -122.054375 507.37851562 -123 507 C-123.7321875 506.72542969 -124.464375 506.45085937 -125.21875 506.16796875 C-135.53120547 501.7357319 -144.66016151 492.90414107 -149.3125 482.6875 C-149.9074586 481.13706885 -150.48435121 479.57858127 -151 478 C-151.825 478.165 -152.65 478.33 -153.5 478.5 C-157.41272317 479.05896045 -161.05183173 479.06807187 -165 479 C-167.20514606 474.4722206 -167.51062621 470.25805291 -167.75 465.3125 C-167.81247925 464.06641968 -167.81247925 464.06641968 -167.8762207 462.79516602 C-168.32570957 450.75000223 -166.75281869 438.72112109 -164 427 C-163.58427734 425.18048828 -163.58427734 425.18048828 -163.16015625 423.32421875 C-161.1067302 414.41757584 -158.90943166 405.54770794 -156.6628418 396.68798828 C-155.6819378 392.80584649 -154.72864175 388.9394697 -154 385 C-155.14275391 384.14728516 -155.14275391 384.14728516 -156.30859375 383.27734375 C-161.71221997 379.23642976 -167.0870063 375.1706517 -172.39453125 371.00390625 C-174.50146145 369.3834337 -176.62323806 367.79298235 -178.76171875 366.21484375 C-197.79619154 352.15078371 -197.79619154 352.15078371 -205 343 C-206.1446875 341.88625 -206.1446875 341.88625 -207.3125 340.75 C-213.41437427 334.50622168 -223 324.20100146 -223 315 C-223.66 315 -224.32 315 -225 315 C-227.42406618 306.01404305 -229.60378931 297.35057223 -230 288 C-230.66 288 -231.32 288 -232 288 C-232.08040527 287.3608667 -232.16081055 286.7217334 -232.24365234 286.06323242 C-232.61769286 283.10425709 -232.99632661 280.14588587 -233.375 277.1875 C-233.50132812 276.18267578 -233.62765625 275.17785156 -233.7578125 274.14257812 C-234.39976594 269.15139011 -235.12049999 264.20571882 -236.0625 259.26171875 C-236.91301526 254.70212522 -237.42711789 250.25627243 -237.625 245.625 C-237.67974487 244.41493286 -237.67974487 244.41493286 -237.7355957 243.18041992 C-238.05989827 234.70830008 -238.13509779 226.22944122 -238.17523193 217.75189209 C-238.18327322 216.15295608 -238.19427502 214.5540316 -238.20855713 212.95513916 C-238.28771394 203.03389107 -237.78961284 193.39417593 -236.4675293 183.55712891 C-236.09446391 180.71871495 -235.80937379 177.91735155 -235.625 175.0625 C-235.02401161 168.69202303 -233.40864587 162.48373158 -231.96875 156.26171875 C-231.24361578 153.1233324 -230.61540192 149.98636967 -230.0625 146.8125 C-228.98299412 141.17944207 -227.00773193 135.82035998 -225.12109375 130.41796875 C-223.98187011 127.19992548 -223.98187011 127.19992548 -223.55029297 124.58203125 C-222.98862289 121.94661744 -222.15489112 119.73428877 -221.07421875 117.26953125 C-220.68943359 116.38330078 -220.30464844 115.49707031 -219.90820312 114.58398438 C-219.50537109 113.66939453 -219.10253906 112.75480469 -218.6875 111.8125 C-217.89850836 110.00704797 -217.11074329 108.20105941 -216.32421875 106.39453125 C-215.93371338 105.50016357 -215.54320801 104.6057959 -215.14086914 103.68432617 C-214.03030428 101.07130229 -212.99790891 98.43801447 -211.9765625 95.7890625 C-210.25168367 91.43893952 -208.16718325 87.52284183 -205.6875 83.5625 C-205.29361084 82.92199707 -204.89972168 82.28149414 -204.49389648 81.62158203 C-203.70172839 80.33709791 -202.90600787 79.05479666 -202.10644531 77.77490234 C-201.12938181 76.20754761 -200.16886789 74.62990231 -199.2109375 73.05078125 C-192.96118981 62.90604862 -185.84309218 53.04104428 -177 45 C-176.44570313 44.46503906 -175.89140625 43.93007812 -175.3203125 43.37890625 C-164.77894114 33.58402686 -154.01406139 27.22726821 -140 24 C-139.08476562 23.65839844 -138.16953125 23.31679687 -137.2265625 22.96484375 C-132.01400516 21.40612503 -126.66470475 21.25119953 -121.25585938 20.87695312 C-116.45976077 20.47757807 -112.83282873 20.16327933 -109 17 C-107.79854218 15.50218259 -106.5975653 14.00394387 -105.40625 12.49804688 C-102.89404869 9.82185465 -99.75599515 8.36187879 -96.5 6.75 C-95.52353516 6.24339844 -95.52353516 6.24339844 -94.52734375 5.7265625 C-85.31612943 1 -85.31612943 1 -81 1 C-81 0.34 -81 -0.32 -81 -1 C-54.43050965 -7.33365662 -26.53077068 -6.17499809 0 0 Z " fill="#1D1C1A" transform="translate(463,192)"/>
<path d="M0 0 C0.86729736 0.48484863 1.73459473 0.96969727 2.62817383 1.46923828 C8.56042017 4.86327987 14.23780351 8.52233574 19.75 12.5625 C20.42667725 13.04952393 21.10335449 13.53654785 21.80053711 14.03833008 C24.62491245 16.18993619 26.37504949 17.61012081 27.48828125 21.0390625 C27.51277344 21.74804688 27.53726563 22.45703125 27.5625 23.1875 C28.5525 23.36023438 29.5425 23.53296875 30.5625 23.7109375 C35.79104269 25.21269699 38.91400874 28.96131478 42.5625 32.8125 C43.23539063 33.49957031 43.90828125 34.18664062 44.6015625 34.89453125 C49.09130051 39.51428098 53.36561089 44.30177922 57.5625 49.1875 C58.02462891 49.7222998 58.48675781 50.25709961 58.96289062 50.80810547 C94.02816234 91.51168362 94.02816234 91.51168362 95.796875 109.58203125 C95.35978541 114.44101047 91.61357631 117.58553491 88.5625 121.1875 C87.80453125 122.19876953 87.80453125 122.19876953 87.03125 123.23046875 C80.2278055 131.92568736 68.95419318 138.71550905 58.5625 142.1875 C57.9025 142.1875 57.2425 142.1875 56.5625 142.1875 C56.5625 142.8475 56.5625 143.5075 56.5625 144.1875 C53.33621408 145.5071608 50.10600696 146.81694528 46.875 148.125 C45.96298828 148.49818359 45.05097656 148.87136719 44.11132812 149.25585938 C43.22509766 149.61357422 42.33886719 149.97128906 41.42578125 150.33984375 C40.20822144 150.8347229 40.20822144 150.8347229 38.96606445 151.33959961 C36.51226176 152.20522244 34.12259574 152.73923421 31.5625 153.1875 C31.5625 153.8475 31.5625 154.5075 31.5625 155.1875 C30.655 155.5175 29.7475 155.8475 28.8125 156.1875 C10.22133759 164.13891366 -3.31965261 180.04401375 -11.4375 198.1875 C-13.81192385 204.39846111 -15.71564847 210.76763785 -17.4375 217.1875 C-17.61563232 217.78433594 -17.79376465 218.38117188 -17.97729492 218.99609375 C-19.05452565 224.12565501 -18.9627984 229.48107454 -19.15991211 234.70947266 C-19.21911936 236.1737691 -19.28784745 237.63771732 -19.36694336 239.10107422 C-19.96635597 250.23519522 -18.64226534 259.48775411 -15.4375 270.1875 C-14.76926852 272.58289736 -14.10237123 274.97866779 -13.4375 277.375 C-8.17412365 295.55733311 -8.17412365 295.55733311 -1.8125 313.375 C-0.72647673 316.19262925 0.0153015 318.97385228 0.6484375 321.92578125 C0.90826416 323.12714722 0.90826416 323.12714722 1.17333984 324.3527832 C1.3017627 324.95823975 1.43018555 325.56369629 1.5625 326.1875 C-14.33498266 326.49552442 -29.01460225 325.495572 -44.4375 321.1875 C-44.685 320.300625 -44.9325 319.41375 -45.1875 318.5 C-45.86124657 316.11672942 -46.57662513 313.7580824 -47.34008789 311.40161133 C-49.8729445 303.52809123 -51.70479404 295.7063065 -53.125 287.5625 C-53.33922607 286.3549707 -53.55345215 285.14744141 -53.77416992 283.90332031 C-55.45586211 273.99863345 -56.3015204 264.22526657 -56.4375 254.1875 C-56.7675 254.1875 -57.0975 254.1875 -57.4375 254.1875 C-59.04481224 275.25477119 -57.96978724 295.17939362 -55.4375 316.1875 C-56.20956787 316.03168457 -56.98163574 315.87586914 -57.77709961 315.71533203 C-59.5154251 315.37044264 -61.25778835 315.04516686 -63.00390625 314.7421875 C-67.10854688 312.11996122 -67.89242299 307.79232962 -69.375 303.3125 C-69.88812744 301.82182007 -69.88812744 301.82182007 -70.41162109 300.30102539 C-71.44344303 297.27037978 -72.44358699 294.23075977 -73.4375 291.1875 C-73.71770996 290.35299316 -73.99791992 289.51848633 -74.28662109 288.65869141 C-77.88733322 277.8788781 -80.49080815 266.93047804 -82.8125 255.8125 C-83.07562988 254.55751709 -83.33875977 253.30253418 -83.60986328 252.00952148 C-84.69608256 246.63065417 -85.58270483 241.69395557 -85.4375 236.1875 C-86.0975 236.1875 -86.7575 236.1875 -87.4375 236.1875 C-91.48905644 253.26191643 -89.85481825 271.71992266 -86.15625 288.71484375 C-85.43601119 292.1946932 -84.90527772 295.66567352 -84.4375 299.1875 C-110.18774148 277.72896544 -118.17248547 251.11799007 -121.66748047 218.42993164 C-123.75782506 194.01781099 -123.22876745 168.94212894 -121.98046875 144.48828125 C-121.94169617 143.72611801 -121.90292358 142.96395477 -121.86297607 142.17869568 C-121.58391346 137.3383471 -120.9724141 132.67709275 -119.97265625 127.9375 C-119.06080774 123.2517967 -118.56452869 118.50363364 -118 113.765625 C-117.42628566 110.11616435 -116.4813316 106.72745064 -115.4375 103.1875 C-115.14034328 101.56710697 -114.86807202 99.94188384 -114.625 98.3125 C-112.530121 86.43060817 -108.85423067 74.96240209 -103.4375 64.1875 C-102.80889845 62.89631843 -102.18137431 61.60461199 -101.5546875 60.3125 C-89.40331363 35.42763301 -71.30583287 8.49338743 -44.18359375 -1.84765625 C-28.80799396 -5.80779509 -14.1362238 -7.97652687 0 0 Z " fill="#A39C97" transform="translate(366.4375,234.8125)"/>
<path d="M0 0 C4.65505696 0.60873822 8.40437204 2.59199857 12.5 4.75 C25.1523875 11.21488172 37.42551054 15.14735907 51.43359375 17.6015625 C67.80271679 20.68586945 84.94887995 28.33098864 97 40 C97.65226563 40.50144531 98.30453125 41.00289063 98.9765625 41.51953125 C101.87285289 44.07542098 103.74191059 46.18164278 104.30078125 50.11914062 C104.60376189 55.42995841 104.35689474 60.69756384 104 66 C103.47792969 65.71125 102.95585938 65.4225 102.41796875 65.125 C95.56306532 61.66753557 89.20026526 60.5945229 81.6875 62.625 C65.63788185 69.04484726 55.69484999 82.45595613 46.60400391 96.3996582 C42.25968049 102.97757551 38.16967682 106.57810879 31 110 C30.67 110.33 30.34 110.66 30 111 C30.28469203 116.02499694 30.28469203 116.02499694 33 120 C33.44402865 121.60533434 33.88578632 123.21132951 34.31640625 124.8203125 C37.83973547 136.05469939 43.86754082 148.44370288 54 155 C59.27584172 157.36395282 64.21240006 157.23586416 69.875 157.125 C70.75414062 157.11597656 71.63328125 157.10695313 72.5390625 157.09765625 C74.6928271 157.07424577 76.84645014 157.0383801 79 157 C79 156.34 79 155.68 79 155 C80.48666456 154.08766058 82.01690557 153.24600021 83.5625 152.4375 C90.36754344 148.50891464 94.67458698 143.06650266 98 136 C98.33 136 98.66 136 99 136 C99.38470793 143.27059128 98.45031169 149.33171228 96.25 156.25 C95.87101562 157.53777344 95.87101562 157.53777344 95.484375 158.8515625 C93.95375467 163.82607859 92.170204 167.80010375 89 172 C88.2575 172.99966797 88.2575 172.99966797 87.5 174.01953125 C75.33356779 188.56221975 56.62127656 197.88215733 39 204 C38.16210938 204.34417969 37.32421875 204.68835938 36.4609375 205.04296875 C19.05876773 212.07387635 1.06646721 212.56268436 -17.4375 212.3125 C-19.66470512 212.30097186 -21.89192002 212.29119769 -24.11914062 212.28320312 C-26.24480218 212.2698049 -28.37045485 212.25488918 -30.49609375 212.23828125 C-31.47936142 212.23089432 -32.46262909 212.22350739 -33.47569275 212.21589661 C-34.84982079 212.19664375 -34.84982079 212.19664375 -36.25170898 212.17700195 C-37.45028786 212.16223564 -37.45028786 212.16223564 -38.67308044 212.14717102 C-41.18671241 211.98819097 -43.53757353 211.51708816 -46 211 C-47.91582574 210.89916707 -49.83273258 210.81812625 -51.75 210.75 C-62.08334078 210.08014475 -72.21935829 207.83448211 -82.31274414 205.59399414 C-83.94580259 205.23302101 -85.58501159 204.89704871 -87.23217773 204.60717773 C-89.1171875 204.21875 -89.1171875 204.21875 -92 203 C-93.41796875 200.27734375 -93.41796875 200.27734375 -94.1875 196.9375 C-95.19765736 193.01243942 -96.13816724 189.38436657 -97.9375 185.75 C-100.00835618 181.3442741 -101.37600754 176.78382247 -102.75 172.125 C-103.08439087 170.99916504 -103.08439087 170.99916504 -103.42553711 169.85058594 C-104.30168723 166.81142945 -105 164.17906577 -105 161 C-105.66 161 -106.32 161 -107 161 C-107.67404284 158.43923903 -108.339414 155.87673417 -109 153.3125 C-109.19078125 152.59126953 -109.3815625 151.87003906 -109.578125 151.12695312 C-110.54865428 147.33149039 -111.24955239 143.95384561 -111 140 C-111.66 140 -112.32 140 -113 140 C-115.55446584 122.91439242 -115.88454771 105.05574877 -109 89 C-105 89 -105 89 -102 91 C-101.69116211 93.7746582 -101.69116211 93.7746582 -101.77734375 97.30078125 C-101.79603516 98.58919922 -101.81472656 99.87761719 -101.83398438 101.20507812 C-101.86710037 102.57425306 -101.90161194 103.94339492 -101.9375 105.3125 C-102.16390796 115.12511746 -101.85272426 124.34135032 -100 134 C-99.34 134 -98.68 134 -98 134 C-97.74347656 134.60585938 -97.48695313 135.21171875 -97.22265625 135.8359375 C-92.95577062 145.17423938 -86.24376709 154.12362553 -77 159 C-75.49373047 159.80630859 -75.49373047 159.80630859 -73.95703125 160.62890625 C-60.88416761 166.86346367 -43.36911591 167.9420727 -29.46875 163.88671875 C-16.70519287 158.7396756 -4.94260587 148.59477661 1 136 C1.53991576 134.07324179 2.03884222 132.13461062 2.5 130.1875 C3.68845476 125.21511457 3.68845476 125.21511457 6.625 123.1875 C7.40875 122.795625 8.1925 122.40375 9 122 C9.73687515 119.22254752 10 116.85864695 10 114 C9.42507813 113.72671875 8.85015625 113.4534375 8.2578125 113.171875 C6.00026423 112.00013714 3.97115234 110.68868759 1.875 109.25 C-1.36558809 107.04703864 -4.65019585 105.04935026 -8.0625 103.125 C-15.45571778 98.73026993 -20.66724315 92.41581606 -26.24609375 85.98828125 C-39.66194331 70.77966783 -55.84880575 59.70291799 -75 53 C-74.484375 51.23046875 -74.484375 51.23046875 -73 49 C-70.40946799 47.59727919 -67.95831196 46.4264025 -65.25 45.3125 C-64.19425781 44.85133789 -64.19425781 44.85133789 -63.1171875 44.38085938 C-59.09068828 42.67071983 -55.38033311 41.51654872 -51 41 C-51 40.34 -51 39.68 -51 39 C-49.25976562 38.27296875 -49.25976562 38.27296875 -47.484375 37.53125 C-28.65510748 29.51668946 -10.45500613 18.28826761 0 0 Z " fill="#D0B9B1" transform="translate(476,354)"/>
<path d="M0 0 C1.29808594 -0.00773438 2.59617187 -0.01546875 3.93359375 -0.0234375 C10.72005011 -0.00974132 17.08765589 0.3813213 23.73388672 1.76416016 C27.06317257 2.44062318 30.36878788 2.73306713 33.75 3.0625 C42.53839345 4.04372322 50.74402462 6.51525107 59.125 9.25 C59.7955542 9.4552832 60.4661084 9.66056641 61.15698242 9.87207031 C79.50248344 15.64482158 97.18568525 24.68896227 112.17724609 36.69775391 C114.11975412 38.24581934 116.09325662 39.74246826 118.08203125 41.23046875 C123.66472357 45.44134412 128.96093983 49.64096159 133.3671875 55.12109375 C135.14863622 57.27862609 137.063874 59.2627239 139.01367188 61.26733398 C145.44676053 67.96626186 150.28787344 75.26726625 154.96386719 83.26708984 C156.07511013 85.16480119 157.21021704 87.04606761 158.3515625 88.92578125 C164.88376829 99.8253191 168.87166744 110.94600417 172.21875 123.16015625 C172.93053561 125.58697702 173.69401338 127.77628896 174.75 130.0625 C177.02905407 135.34576171 178.125 140.50269817 178.125 146.25 C178.785 146.25 179.445 146.25 180.125 146.25 C180.27122803 146.87567871 180.41745605 147.50135742 180.56811523 148.14599609 C181.23032792 150.97294291 181.8963655 153.79897487 182.5625 156.625 C182.79259766 157.60984375 183.02269531 158.5946875 183.25976562 159.609375 C183.48212891 160.55039062 183.70449219 161.49140625 183.93359375 162.4609375 C184.13782959 163.33024902 184.34206543 164.19956055 184.55249023 165.09521484 C185.0545171 167.27782093 185.0545171 167.27782093 186.125 169.25 C186.21059118 171.42824961 186.23213412 173.60915255 186.22265625 175.7890625 C186.21943359 177.09101563 186.21621094 178.39296875 186.21289062 179.734375 C186.20453466 181.11458399 186.19606971 182.49479232 186.1875 183.875 C186.18248501 185.26301926 186.1779221 186.65104022 186.17382812 188.0390625 C186.16200976 191.44275132 186.14553434 194.84635439 186.125 198.25 C181.37841938 197.4110313 179.44475723 194.41508751 176.5625 190.8125 C168.50160906 181.09361629 158.40142247 169.34214082 146.125 165.25 C146.125 164.59 146.125 163.93 146.125 163.25 C144.95066406 162.97800781 143.77632812 162.70601562 142.56640625 162.42578125 C138.56941147 161.4271901 134.87462841 160.00964001 131.0625 158.4375 C122.48823464 155.05377014 113.68225714 153.23873279 104.66796875 151.42578125 C89.84923679 148.37906148 77.17755169 143.97190341 66.11328125 133.16796875 C64.07560461 131.08819873 64.07560461 131.08819873 61.125 129.25 C61.125 128.59 61.125 127.93 61.125 127.25 C59.145 126.755 59.145 126.755 57.125 126.25 C56.795 124.27 56.465 122.29 56.125 120.25 C55.465 120.25 54.805 120.25 54.125 120.25 C53.6403125 119.21101563 53.155625 118.17203125 52.65625 117.1015625 C48.61096827 108.61228335 44.35708283 101.35883972 38.125 94.25 C36.68271201 92.48306415 35.24540256 90.71205549 33.8125 88.9375 C26.01765824 79.44463953 18.1101093 70.10607874 9.75390625 61.1015625 C7.27525851 58.41298472 4.85419315 55.68166958 2.4375 52.9375 C-1.415139 48.66506553 -5.42591924 44.89015698 -9.875 41.25 C-10.39835937 40.81429687 -10.92171875 40.37859375 -11.4609375 39.9296875 C-22.46981181 30.78008974 -33.80635868 22.26157501 -46.875 16.25 C-45.875 13.25 -45.875 13.25 -43.50390625 11.8203125 C-41.98603516 11.10488281 -41.98603516 11.10488281 -40.4375 10.375 C-38.80554688 9.59769531 -38.80554688 9.59769531 -37.140625 8.8046875 C-36.06296875 8.29164063 -34.9853125 7.77859375 -33.875 7.25 C-31.41862536 5.95081919 -28.96404694 4.64948483 -26.51953125 3.328125 C-17.89064263 -0.18970847 -9.20990613 -0.05455028 0 0 Z " fill="#CCC2BC" transform="translate(415.875,203.75)"/>
<path d="M0 0 C10.40111448 4.76163553 19.40092824 12.68716229 26.1171875 21.9609375 C26.1171875 22.6209375 26.1171875 23.2809375 26.1171875 23.9609375 C26.6740625 24.1878125 27.2309375 24.4146875 27.8046875 24.6484375 C30.1171875 25.9609375 30.1171875 25.9609375 32.5546875 28.5234375 C35.2350412 31.07304224 36.50786833 31.65156729 40.1171875 31.9609375 C40.4471875 29.9809375 40.7771875 28.0009375 41.1171875 25.9609375 C42.1071875 25.9609375 43.0971875 25.9609375 44.1171875 25.9609375 C44.62680596 27.35328793 45.12443659 28.75002868 45.6171875 30.1484375 C45.895625 30.92574219 46.1740625 31.70304687 46.4609375 32.50390625 C47.18032232 35.19731727 47.43755125 37.18737738 47.1171875 39.9609375 C45.17155021 43.25491917 42.58670732 46.04553216 40.1171875 48.9609375 C39.35921875 49.97220703 39.35921875 49.97220703 38.5859375 51.00390625 C31.782493 59.69912486 20.50888068 66.48894655 10.1171875 69.9609375 C9.4571875 69.9609375 8.7971875 69.9609375 8.1171875 69.9609375 C8.1171875 70.6209375 8.1171875 71.2809375 8.1171875 71.9609375 C4.89090158 73.2805983 1.66069446 74.59038278 -1.5703125 75.8984375 C-2.48232422 76.27162109 -3.39433594 76.64480469 -4.33398438 77.02929688 C-5.22021484 77.38701172 -6.10644531 77.74472656 -7.01953125 78.11328125 C-7.83123779 78.44320068 -8.64294434 78.77312012 -9.47924805 79.11303711 C-11.93305074 79.97865994 -14.32271676 80.51267171 -16.8828125 80.9609375 C-16.8828125 81.6209375 -16.8828125 82.2809375 -16.8828125 82.9609375 C-18.2440625 83.4559375 -18.2440625 83.4559375 -19.6328125 83.9609375 C-38.22397491 91.91235116 -51.76496511 107.81745125 -59.8828125 125.9609375 C-62.25723635 132.17189861 -64.16096097 138.54107535 -65.8828125 144.9609375 C-66.06094482 145.55777344 -66.23907715 146.15460938 -66.42260742 146.76953125 C-67.49983815 151.89909251 -67.4081109 157.25451204 -67.60522461 162.48291016 C-67.66443186 163.9472066 -67.73315995 165.41115482 -67.81225586 166.87451172 C-68.41166847 178.00863272 -67.08757784 187.26119161 -63.8828125 197.9609375 C-63.21458102 200.35633486 -62.54768373 202.75210529 -61.8828125 205.1484375 C-56.61943615 223.33077061 -56.61943615 223.33077061 -50.2578125 241.1484375 C-48.64771804 245.32764442 -47.77334788 249.5767633 -46.8828125 253.9609375 C-50.5128125 253.9609375 -54.1428125 253.9609375 -57.8828125 253.9609375 C-67.77559371 235.50471756 -72.89382714 214.6994121 -76.47558594 194.17529297 C-76.75447421 192.6587962 -77.06127395 191.14724235 -77.39160156 189.64111328 C-80.16740893 176.94038876 -80.08368847 164.02298025 -80.0703125 151.0859375 C-80.07070526 150.27844055 -80.07109802 149.4709436 -80.07150269 148.63897705 C-80.05222985 115.46918954 -80.05222985 115.46918954 -76.8828125 105.9609375 C-76.60967326 102.50984488 -76.43757799 99.05888042 -76.26171875 95.6015625 C-75.8828125 91.9609375 -75.8828125 91.9609375 -74.93652344 88.71166992 C-74.05770743 85.58348401 -73.44183591 82.55481997 -72.95552063 79.34727478 C-71.27930089 68.35886934 -68.06378929 57.96719361 -64.6953125 47.3984375 C-64.1298927 45.59730839 -63.56543435 43.79587716 -63.00195312 41.99414062 C-61.63991768 37.64619178 -60.26510255 33.30248736 -58.8828125 28.9609375 C-58.19574219 28.97253906 -57.50867188 28.98414063 -56.80078125 28.99609375 C-55.89972656 29.00511719 -54.99867188 29.01414062 -54.0703125 29.0234375 C-52.73033203 29.04083984 -52.73033203 29.04083984 -51.36328125 29.05859375 C-48.74867459 29.07103717 -48.74867459 29.07103717 -45.8828125 27.9609375 C-45.45742188 27.11015625 -45.45742188 27.11015625 -45.0234375 26.2421875 C-43.45461829 23.10454909 -41.10428777 20.89265714 -38.6328125 18.4609375 C-38.16746094 17.98785156 -37.70210938 17.51476562 -37.22265625 17.02734375 C-34.02928815 13.85156997 -30.67734249 11.36982451 -26.8828125 8.9609375 C-26.1403125 8.3834375 -25.3978125 7.8059375 -24.6328125 7.2109375 C-22.8828125 5.9609375 -22.8828125 5.9609375 -20.8828125 5.9609375 C-20.8828125 5.3009375 -20.8828125 4.6409375 -20.8828125 3.9609375 C-13.7284193 -0.77483105 -8.3203205 -2.99892311 0 0 Z " fill="#CDC3BD" transform="translate(414.8828125,307.0390625)"/>
<path d="M0 0 C1.29808594 -0.00773438 2.59617187 -0.01546875 3.93359375 -0.0234375 C10.72005011 -0.00974132 17.08765589 0.3813213 23.73388672 1.76416016 C27.06317257 2.44062318 30.36878788 2.73306713 33.75 3.0625 C42.53839345 4.04372322 50.74402462 6.51525107 59.125 9.25 C59.7955542 9.4552832 60.4661084 9.66056641 61.15698242 9.87207031 C79.50248344 15.64482158 97.18568525 24.68896227 112.17724609 36.69775391 C114.11975412 38.24581934 116.09325662 39.74246826 118.08203125 41.23046875 C123.66472357 45.44134412 128.96093983 49.64096159 133.3671875 55.12109375 C135.14863622 57.27862609 137.063874 59.2627239 139.01367188 61.26733398 C145.44676053 67.96626186 150.28787344 75.26726625 154.96386719 83.26708984 C156.07511013 85.16480119 157.21021704 87.04606761 158.3515625 88.92578125 C164.88376829 99.8253191 168.87166744 110.94600417 172.21875 123.16015625 C172.93053561 125.58697702 173.69401338 127.77628896 174.75 130.0625 C177.02905407 135.34576171 178.125 140.50269817 178.125 146.25 C178.785 146.25 179.445 146.25 180.125 146.25 C180.27122803 146.87567871 180.41745605 147.50135742 180.56811523 148.14599609 C181.23032792 150.97294291 181.8963655 153.79897487 182.5625 156.625 C182.79259766 157.60984375 183.02269531 158.5946875 183.25976562 159.609375 C183.48212891 160.55039062 183.70449219 161.49140625 183.93359375 162.4609375 C184.13782959 163.33024902 184.34206543 164.19956055 184.55249023 165.09521484 C185.0545171 167.27782093 185.0545171 167.27782093 186.125 169.25 C186.21010205 171.2093604 186.23217656 173.17162794 186.22265625 175.1328125 C186.21943359 176.29941406 186.21621094 177.46601563 186.21289062 178.66796875 C186.20451172 179.89128906 186.19613281 181.11460937 186.1875 182.375 C186.18298828 183.60605469 186.17847656 184.83710938 186.17382812 186.10546875 C186.1620133 189.15369392 186.14554028 192.20182314 186.125 195.25 C183.125 194.25 183.125 194.25 181.30078125 190.94140625 C180.66895017 189.57000027 180.04826547 188.19341651 179.4375 186.8125 C179.11716797 186.11833984 178.79683594 185.42417969 178.46679688 184.70898438 C176.125 179.55103945 176.125 179.55103945 176.125 177.25 C175.465 177.25 174.805 177.25 174.125 177.25 C172.53966219 173.93845579 170.95710574 170.62558941 169.375 167.3125 C168.9315625 166.38630859 168.488125 165.46011719 168.03125 164.50585938 C164.16140151 156.39625042 160.45234598 148.36978689 157.5 139.875 C153.37176593 128.43476462 147.49068172 117.59682469 141.125 107.25 C140.135 107.58 139.145 107.91 138.125 108.25 C120.15683226 109.39770496 120.15683226 109.39770496 113.125 104.25 C112.50367188 103.87617188 111.88234375 103.50234375 111.2421875 103.1171875 C106.73015017 100.26648609 104.42121078 97.03162244 102.125 92.25 C101.60550781 91.36828125 101.08601562 90.4865625 100.55078125 89.578125 C97.05875055 83.16385883 95.88219576 79.33818663 96.62939453 72.16235352 C97.50407508 64.83323813 97.50407508 64.83323813 94.61035156 58.35839844 C90.34963447 54.67419319 85.49660754 52.03257169 80.50195312 49.47412109 C78.35992269 48.37098422 76.29711802 47.20042498 74.234375 45.95703125 C61.98723182 38.59357338 48.77460753 31.59305694 35.125 27.25 C34.10019531 26.73179687 33.07539063 26.21359375 32.01953125 25.6796875 C27.63558368 23.78544583 23.74036897 24.08644361 19.0625 24.5 C18.28583984 24.55285156 17.50917969 24.60570312 16.70898438 24.66015625 C12.46564743 24.96915454 8.3123703 25.47282407 4.125 26.25 C4.125 26.91 4.125 27.57 4.125 28.25 C5.775 28.58 7.425 28.91 9.125 29.25 C8.795 29.91 8.465 30.57 8.125 31.25 C1.1959477 32.75129467 1.1959477 32.75129467 -2.8125 30.875 C-5.83300933 28.49520477 -5.83300933 28.49520477 -6.19140625 26.40234375 C-6.41927083 24.3515625 -6.64713542 22.30078125 -6.875 20.25 C-17.72569813 15.18634087 -30.15786802 15.66956542 -41.875 15.25 C-38.98994832 10.20650224 -36.55815376 8.07602315 -31.1875 5.5 C-30.02863281 4.92765625 -28.86976563 4.3553125 -27.67578125 3.765625 C-18.63358154 -0.06773829 -9.7190482 -0.05756593 0 0 Z " fill="#E4DFDC" transform="translate(415.875,203.75)"/>
<path d="M0 0 C4.65505696 0.60873822 8.40437204 2.59199857 12.5 4.75 C25.1523875 11.21488172 37.42551054 15.14735907 51.43359375 17.6015625 C67.80271679 20.68586945 84.94887995 28.33098864 97 40 C97.65226563 40.50144531 98.30453125 41.00289063 98.9765625 41.51953125 C101.87285289 44.07542098 103.74191059 46.18164278 104.30078125 50.11914062 C104.60376189 55.42995841 104.35689474 60.69756384 104 66 C103.47792969 65.71125 102.95585938 65.4225 102.41796875 65.125 C95.56306532 61.66753557 89.20026526 60.5945229 81.6875 62.625 C71.80215426 66.5791383 63.48310545 73.68038344 57 82 C43.82202185 72.28216136 30.60746726 62.41912547 21 49 C20.00221867 47.66500554 19.00286301 46.33118126 18 45 C18.14417103 52.20855174 21.10591374 57.69114131 24.40625 63.92578125 C26 67 26 67 27 70 C23.72250763 69.32448631 20.72007605 68.12330413 17.62158203 66.87939453 C3.91197185 61.44041473 -9.34421545 60.31201011 -24 61 C-24.33 61.33 -24.66 61.66 -25 62 C-27.7034148 62.53977577 -30.41895551 62.96466987 -33.140625 63.40234375 C-36.00919716 63.9119373 -36.00919716 63.9119373 -38.609375 65.06640625 C-41 66 -41 66 -45 66 C-45.33 66.66 -45.66 67.32 -46 68 C-46.98226563 67.34644531 -46.98226563 67.34644531 -47.984375 66.6796875 C-56.54077864 61.09627156 -65.21647459 56.07812542 -75 53 C-74.484375 51.23046875 -74.484375 51.23046875 -73 49 C-70.40946799 47.59727919 -67.95831196 46.4264025 -65.25 45.3125 C-64.54617188 45.00505859 -63.84234375 44.69761719 -63.1171875 44.38085938 C-59.09068828 42.67071983 -55.38033311 41.51654872 -51 41 C-51 40.34 -51 39.68 -51 39 C-49.25976562 38.27296875 -49.25976562 38.27296875 -47.484375 37.53125 C-28.65510748 29.51668946 -10.45500613 18.28826761 0 0 Z " fill="#B29E97" transform="translate(476,354)"/>
<path d="M0 0 C5.49630986 3.83487779 9.92646728 8.92715331 12.9296875 14.93359375 C13.61868466 26.77904497 12.95042173 37.97229612 7.9296875 48.93359375 C4.95511862 50.42087819 1.7692135 50.62853896 -1.4921875 51.08984375 C-2.22979309 51.19703735 -2.96739868 51.30423096 -3.72735596 51.41467285 C-6.09121791 51.75756546 -8.45572742 52.09572722 -10.8203125 52.43359375 C-13.17046641 52.77242849 -15.52047743 53.11223375 -17.87042236 53.45251465 C-19.33279441 53.66393906 -20.79531207 53.87435955 -22.25799561 54.08361816 C-25.27500862 54.51705506 -28.2836885 54.97023309 -31.2878418 55.48608398 C-47.78094429 58.13869931 -65.34058506 57.03791544 -82.0078125 57.05859375 C-83.44134567 57.06247604 -83.44134567 57.06247604 -84.90383911 57.06643677 C-94.68033774 57.08728129 -104.43480906 57.00983428 -114.19921875 56.48828125 C-114.93929672 56.44953888 -115.67937469 56.41079651 -116.44187927 56.37088013 C-119.75121635 56.17117519 -122.89245457 55.91416639 -126.0703125 54.93359375 C-126.27641953 49.88397158 -125.86929707 45.18623341 -125.1328125 40.18359375 C-123.79496357 30.79967467 -123.43543169 21.3978675 -123.0703125 11.93359375 C-118.55879233 10.45285738 -114.03359866 9.02991633 -109.48681641 7.66113281 C-107.8960978 7.18221369 -106.30715846 6.69733788 -104.72021484 6.20605469 C-84.03769924 -0.09253614 -63.0611804 -0.20541392 -42.6328125 7.05859375 C-41.86219482 7.31713135 -41.09157715 7.57566895 -40.29760742 7.84204102 C-34.31168209 10.12874731 -31.83977675 13.24287455 -29.0703125 18.93359375 C-28.42642578 20.12855469 -28.42642578 20.12855469 -27.76953125 21.34765625 C-26.69420323 25.3245677 -26.82253481 29.20971103 -26.8828125 33.30859375 C-26.8837793 34.54609375 -26.8837793 34.54609375 -26.88476562 35.80859375 C-26.91908846 40.61379077 -27.27205644 45.19514578 -28.0703125 49.93359375 C-23.12788759 39.10732965 -19.93773947 29.55445395 -24.13671875 17.921875 C-25.33589893 15.36797244 -26.86858824 13.67978885 -29.0703125 11.93359375 C-26.70458134 6.16868046 -21.35141797 3.58334585 -15.98046875 0.8828125 C-10.69894488 -1.32392322 -5.31001514 -2.73515874 0 0 Z " fill="#A49D99" transform="translate(516.0703125,584.06640625)"/>
<path d="M0 0 C11.54552466 2.474041 22.92258729 5.19599181 34.08203125 9.06640625 C38.215004 10.38873622 42.41391047 11.2878263 46.6484375 12.22265625 C58.52167583 14.9764726 70.73047766 18.32676688 82 23 C80.74865144 31.44660276 76.33881929 37.41242504 69.7890625 42.828125 C59.13802842 50.22779078 48.94564158 53.01934186 36 52 C23.53074317 49.41585938 13.72165512 43.29066064 6.65625 32.70703125 C1.34298819 24.0228557 -0.15421925 17.42677573 -0.0625 7.0625 C-0.05798828 6.37865234 -0.05347656 5.69480469 -0.04882812 4.99023438 C-0.0371956 3.32678396 -0.01926694 1.6633795 0 0 Z " fill="#D7CAC6" transform="translate(385,457)"/>
<path d="M0 0 C2 1 4 2 6 3 C5.98428955 4.26106567 5.98428955 4.26106567 5.96826172 5.54760742 C5.93372777 8.73281803 5.90888504 11.91793176 5.89013672 15.10327148 C5.88021437 16.4695148 5.86667214 17.83573769 5.84912109 19.2019043 C5.73480954 28.34346627 6.29842707 37.01158969 8 46 C8.66 46 9.32 46 10 46 C10.31453125 46.65226562 10.6290625 47.30453125 10.953125 47.9765625 C12.86749224 51.88602331 14.66577379 55.54508099 17.25 59.0625 C19 62 19 62 19.25 65.9375 C20.00239288 76.52474261 28.34858105 87.19737393 35 95 C35.433125 95.5878125 35.86625 96.175625 36.3125 96.78125 C42.47197379 104.84722758 52.69682872 111.1510409 62 115 C62.78117187 115.32355469 63.56234375 115.64710938 64.3671875 115.98046875 C72.37691115 119.08215699 80.65698869 121.03201239 89 123 C89 123.33 89 123.66 89 124 C85.4375173 124.02913821 81.87506546 124.04684529 78.3125 124.0625 C76.80139648 124.07506836 76.80139648 124.07506836 75.25976562 124.08789062 C74.28330078 124.09111328 73.30683594 124.09433594 72.30078125 124.09765625 C71.40528564 124.10289307 70.50979004 124.10812988 69.5871582 124.11352539 C66.95994938 123.99824257 64.56665135 123.55239209 62 123 C60.08417426 122.89916707 58.16726742 122.81812625 56.25 122.75 C45.91665922 122.08014475 35.78064171 119.83448211 25.68725586 117.59399414 C24.05419741 117.23302101 22.41498841 116.89704871 20.76782227 116.60717773 C18.8828125 116.21875 18.8828125 116.21875 16 115 C14.58203125 112.27734375 14.58203125 112.27734375 13.8125 108.9375 C12.80234264 105.01243942 11.86183276 101.38436657 10.0625 97.75 C7.99164382 93.3442741 6.62399246 88.78382247 5.25 84.125 C5.02707275 83.37444336 4.80414551 82.62388672 4.57446289 81.85058594 C3.69831277 78.81142945 3 76.17906577 3 73 C2.34 73 1.68 73 1 73 C0.32595716 70.43923903 -0.339414 67.87673417 -1 65.3125 C-1.19078125 64.59126953 -1.3815625 63.87003906 -1.578125 63.12695312 C-2.54865428 59.33149039 -3.24955239 55.95384561 -3 52 C-3.66 52 -4.32 52 -5 52 C-7.52774145 35.09313912 -8.12275784 16.83354038 -1 1 C-0.67 0.67 -0.34 0.34 0 0 Z " fill="#B09C96" transform="translate(368,442)"/>
<path d="M0 0 C5.49630986 3.83487779 9.92646728 8.92715331 12.9296875 14.93359375 C13.61868466 26.77904497 12.95042173 37.97229612 7.9296875 48.93359375 C4.95511862 50.42087819 1.7692135 50.62853896 -1.4921875 51.08984375 C-2.59859589 51.25063416 -2.59859589 51.25063416 -3.72735596 51.41467285 C-6.09121791 51.75756546 -8.45572742 52.09572722 -10.8203125 52.43359375 C-13.17046641 52.77242849 -15.52047743 53.11223375 -17.87042236 53.45251465 C-19.33279441 53.66393906 -20.79531207 53.87435955 -22.25799561 54.08361816 C-25.31897778 54.52337186 -28.37207997 54.9845772 -31.42138672 55.49975586 C-35.0243388 56.08984303 -38.4243294 55.99645553 -42.0703125 55.93359375 C-42.0703125 55.60359375 -42.0703125 55.27359375 -42.0703125 54.93359375 C-38.0175609 53.95110851 -34.23169513 53.85199801 -30.0703125 53.93359375 C-30.0703125 52.28359375 -30.0703125 50.63359375 -30.0703125 48.93359375 C-29.4103125 49.26359375 -28.7503125 49.59359375 -28.0703125 49.93359375 C-23.12788759 39.10732965 -19.93773947 29.55445395 -24.13671875 17.921875 C-25.33589893 15.36797244 -26.86858824 13.67978885 -29.0703125 11.93359375 C-26.70458134 6.16868046 -21.35141797 3.58334585 -15.98046875 0.8828125 C-10.69894488 -1.32392322 -5.31001514 -2.73515874 0 0 Z " fill="#A49D99" transform="translate(516.0703125,584.06640625)"/>
<path d="M0 0 C3.41840786 0.5979194 6.42796238 1.47059959 9.625 2.8125 C10.50027344 3.16828125 11.37554687 3.5240625 12.27734375 3.890625 C14.0405004 4.60904177 15.80352955 5.32777157 17.56640625 6.046875 C22.97543517 8.14277294 27.86089385 9.25717313 33.625 10 C39.70869141 11.1298284 42.51480954 12.76902792 46.375 17.625 C49.77117637 22.86263034 51.103504 26.78976024 51 33 C47.12930083 32.44021635 44.63382859 31.3596506 41.4375 29.125 C40.32181641 28.35542969 40.32181641 28.35542969 39.18359375 27.5703125 C37.10158629 26.0730549 35.04428209 24.54827714 33 23 C33.62648438 23.81984375 34.25296875 24.6396875 34.8984375 25.484375 C35.72412933 26.57278696 36.54964068 27.66133587 37.375 28.75 C37.7875 29.28882813 38.2 29.82765625 38.625 30.3828125 C40.71684645 33.14944813 42.59564418 35.8209088 44 39 C44.66 39 45.32 39 46 39 C45.3125 40.9375 45.3125 40.9375 44 43 C41.703125 43.91796875 41.703125 43.91796875 39 44 C36.68359375 42.0859375 36.68359375 42.0859375 34.4375 39.375 C33.69371094 38.49585938 32.94992187 37.61671875 32.18359375 36.7109375 C30.11680705 34.14501626 28.05198509 31.57777719 26 29 C26.20496094 29.74765625 26.40992188 30.4953125 26.62109375 31.265625 C26.89050781 32.25046875 27.15992188 33.2353125 27.4375 34.25 C27.70433594 35.22453125 27.97117187 36.1990625 28.24609375 37.203125 C28.85544584 39.46372653 29.44238255 41.72622009 30 44 C24.25 43.25 24.25 43.25 22 41 C20.28774952 40.27558633 18.57512794 39.55201621 16.859375 38.8359375 C11.05572068 36.22673157 5.95603121 31.96955987 2 27 C1.30078125 24.78125 1.30078125 24.78125 1 23 C0.34 23 -0.32 23 -1 23 C-3.86585559 14.40243323 -3.54245242 8.2657223 0 0 Z " fill="#B09C95" transform="translate(327,647)"/>
<path d="M0 0 C4.276524 1.77725673 6.4028105 3.94343396 8.67578125 7.96484375 C10.69322441 12.99558279 10.35934085 18.16279961 10.25 23.5 C10.24484375 24.50675781 10.2396875 25.51351562 10.234375 26.55078125 C10.17939808 31.79420518 9.89983883 36.83318347 9 42 C-4.77201729 43.36506779 -18.915831 38.2550214 -31 32 C-31.80999357 23.26826931 -24.62379457 14.18597312 -19.41015625 7.58203125 C-13.71193521 1.18929019 -8.42010502 -1.22660103 0 0 Z " fill="#A09995" transform="translate(371,583)"/>
<path d="M0 0 C-1.19131579 12.77496081 -3.28619559 26.83259709 -13 36 C-13.61875 36.61488281 -14.2375 37.22976563 -14.875 37.86328125 C-18.47194371 41.0178589 -21.31059677 42.40124213 -26.125 42.625 C-32.36413352 42.19570182 -35.90686058 39.3252164 -40.0625 34.875 C-44.54066522 29.39249694 -48.43818875 23.24300227 -48 16 C-37.80679331 11.33348976 -27.21068061 8.1202955 -16.52539062 4.79589844 C-12.34158802 3.47733729 -8.1931489 2.0609286 -4.046875 0.62890625 C-2 0 -2 0 0 0 Z " fill="#D3C7C3" transform="translate(570,458)"/>
<path d="M0 0 C9.05391256 1.87253637 17.84702191 3.7188852 26.46875 7.125 C30.10785605 8.38296259 33.78713733 8.95896827 37.58984375 9.5078125 C42.30988114 10.47170992 44.47951024 12.22112806 47.25 16.125 C48.03117187 17.21167969 48.03117187 17.21167969 48.828125 18.3203125 C49.21484375 18.87460937 49.6015625 19.42890625 50 20 C53.62952503 19.61046312 53.62952503 19.61046312 56.35546875 17.4140625 C58 16 58 16 60.375 16.07421875 C61.24125 16.27660156 62.1075 16.47898437 63 16.6875 C64.299375 16.97173828 64.299375 16.97173828 65.625 17.26171875 C68 18 68 18 71 20 C69.20802504 25.37592489 63.44260852 27.74717821 58.578125 30.2421875 C48.74908811 34.7609058 38.32149826 35.62456727 27.875 32.4375 C16.74561826 28.20892224 8.96160284 22.43280497 3 12 C1.20712683 7.96603536 0 4.42790772 0 0 Z " fill="#F9EBE6" transform="translate(387,475)"/>
<path d="M0 0 C-0.34933594 0.54269531 -0.69867188 1.08539062 -1.05859375 1.64453125 C-1.51363281 2.35996094 -1.96867187 3.07539062 -2.4375 3.8125 C-2.88996094 4.52019531 -3.34242188 5.22789062 -3.80859375 5.95703125 C-5.14086339 8.08134552 -5.14086339 8.08134552 -6 11 C-7.11375 11.12375 -8.2275 11.2475 -9.375 11.375 C-13.03103677 11.6465813 -13.03103677 11.6465813 -15 14 C-15.33333333 17 -15.33333333 17 -15 20 C-12.4345406 22.5654594 -10.52313332 22.54046087 -7 23 C-6.78085937 23.70125 -6.56171875 24.4025 -6.3359375 25.125 C-2.47661014 36.67160545 2.78557127 42.49511424 13 49 C13.99 49.66 14.98 50.32 16 51 C-6.93879202 51.18984231 -6.93879202 51.18984231 -18.25 50.5625 C-18.9807373 50.52326416 -19.71147461 50.48402832 -20.46435547 50.44360352 C-23.74219633 50.24034773 -26.85133325 49.96569934 -30 49 C-30.20610703 43.95037783 -29.79898457 39.25263966 -29.0625 34.25 C-27.72465107 24.86608092 -27.36511919 15.46427375 -27 6 C-3.26213592 -1.63106796 -3.26213592 -1.63106796 0 0 Z " fill="#8B837E" transform="translate(420,590)"/>
<path d="M0 0 C22.00856978 0.43458389 41.28773035 16.24660402 58.08251953 29.03857422 C61.0575915 31.3026227 64.02896372 33.50823431 67.1640625 35.546875 C67.99679687 36.10890625 68.82953125 36.6709375 69.6875 37.25 C69.6875 37.58 69.6875 37.91 69.6875 38.25 C62.72172715 37.73375491 56.80593501 36.16726525 50.25 33.8125 C44.19015954 31.65304179 38.31856606 29.82071918 31.9675293 28.7331543 C29.50477123 28.21127849 27.27897011 27.41859623 24.9375 26.5 C18.38185123 23.98653237 11.62315877 22.2771397 4.83105469 20.53222656 C-1.43413284 18.88725214 -7.35513272 16.7926705 -13.3125 14.25 C-11.96403778 10.74160515 -10.5603126 7.97445652 -8.25 5 C-7.72277344 4.31421875 -7.19554687 3.6284375 -6.65234375 2.921875 C-4.40208471 0.1139716 -3.63342238 0.06953918 0 0 Z " fill="#7B6D68" transform="translate(385.3125,419.75)"/>
<path d="M0 0 C-3.65772071 11.70470629 -13.84889414 18.68775208 -23.9765625 24.453125 C-27.91065495 26.46591649 -31.75332676 27.79677591 -36 29 C-36 29.66 -36 30.32 -36 31 C-39.22628592 32.3196608 -42.45649304 33.62944528 -45.6875 34.9375 C-46.59951172 35.31068359 -47.51152344 35.68386719 -48.45117188 36.06835938 C-49.33740234 36.42607422 -50.22363281 36.78378906 -51.13671875 37.15234375 C-51.94842529 37.48226318 -52.76013184 37.81218262 -53.59643555 38.15209961 C-56.05023824 39.01772244 -58.43990426 39.55173421 -61 40 C-61 40.66 -61 41.32 -61 42 C-62.36125 42.495 -62.36125 42.495 -63.75 43 C-82.34116241 50.95141366 -95.88215261 66.85651375 -104 85 C-106.37442385 91.21096111 -108.27814847 97.58013785 -110 104 C-110.18103271 104.63035156 -110.36206543 105.26070313 -110.54858398 105.91015625 C-111.09350926 108.43290388 -111.21610989 110.84282577 -111.31640625 113.421875 C-111.35830078 114.44667969 -111.40019531 115.47148437 -111.44335938 116.52734375 C-111.48267578 117.59082031 -111.52199219 118.65429688 -111.5625 119.75 C-111.60568359 120.82894531 -111.64886719 121.90789062 -111.69335938 123.01953125 C-111.79928989 125.67956428 -111.90136421 128.33968812 -112 131 C-112.66 131 -113.32 131 -114 131 C-114.495 132.98 -114.495 132.98 -115 135 C-120.13510579 113.95859091 -113.95574898 88.47090124 -103.30859375 70.078125 C-90.04177625 50.25485244 -72.13922108 37.30370842 -49.88720703 29.64990234 C-31.75196736 23.40462317 -17.97697716 14.7505862 -4.03125 1.6875 C-2 0 -2 0 0 0 Z " fill="#DED9D6" transform="translate(459,348)"/>
<path d="M0 0 C8.57625782 2.37818644 16.28570008 8.69691867 23.40625 13.87890625 C24.11370361 14.38139893 24.82115723 14.8838916 25.55004883 15.40161133 C30.49632334 19.08753413 30.49632334 19.08753413 31.67578125 22.62109375 C31.68996094 23.32492187 31.70414062 24.02875 31.71875 24.75390625 C32.70875 24.92664063 33.69875 25.099375 34.71875 25.27734375 C39.94729269 26.77910324 43.07025874 30.52772103 46.71875 34.37890625 C47.39164062 35.06597656 48.06453125 35.75304687 48.7578125 36.4609375 C53.24755051 41.08068723 57.52186089 45.86818547 61.71875 50.75390625 C62.18087891 51.28870605 62.64300781 51.82350586 63.11914062 52.37451172 C68.44583859 58.55771397 73.66933248 64.82956878 78.78125 71.19140625 C79.2462793 71.75811035 79.71130859 72.32481445 80.19042969 72.90869141 C82.94136562 76.37241632 84.57810671 79.48132716 85.71875 83.75390625 C82.99609375 84.03515625 82.99609375 84.03515625 79.71875 83.75390625 C77.41015625 81.84765625 77.41015625 81.84765625 75.28125 79.25390625 C74.51425781 78.34253906 73.74726563 77.43117188 72.95703125 76.4921875 C72.21839844 75.58855469 71.47976563 74.68492187 70.71875 73.75390625 C69.4747239 72.31123327 68.22531131 70.87317436 66.96875 69.44140625 C66.41574219 68.80332031 65.86273438 68.16523438 65.29296875 67.5078125 C63.84420692 65.89368332 62.34461491 64.38096273 60.78125 62.87890625 C58.71875 60.75390625 58.71875 60.75390625 58.71875 58.75390625 C58.05875 58.75390625 57.39875 58.75390625 56.71875 58.75390625 C55.44921875 57.4609375 55.44921875 57.4609375 53.90625 55.56640625 C49.01121428 49.79541677 43.60024382 44.55172523 38.21948242 39.23974609 C36.84120079 37.87514189 35.47283483 36.50054167 34.10546875 35.125 C27.20355229 28.26826794 19.89493189 22.24495805 11.9921875 16.6015625 C11.24195313 15.99183594 10.49171875 15.38210937 9.71875 14.75390625 C9.71875 14.09390625 9.71875 13.43390625 9.71875 12.75390625 C9.05488281 12.58375 8.39101563 12.41359375 7.70703125 12.23828125 C-1.59574631 9.68511018 -1.59574631 9.68511018 -5.28125 5.75390625 C-5.28125 2.75390625 -5.28125 2.75390625 -4.09375 1.00390625 C-2.28125 -0.24609375 -2.28125 -0.24609375 0 0 Z " fill="#C7BDB7" transform="translate(362.28125,233.24609375)"/>
<path d="M0 0 C0.3396019 1.87387477 0.67138691 3.74916697 1 5.625 C1.185625 6.66914062 1.37125 7.71328125 1.5625 8.7890625 C1.98715797 11.90574865 2.07545206 14.85930812 2 18 C-13.70595865 21.84783887 -28.91803235 22.12466642 -45 22 C-45 15.73 -45 9.46 -45 3 C-40.35964398 2.56809983 -35.7191999 2.13937512 -31.07788086 1.71826172 C-29.50382378 1.57453717 -27.92992434 1.42907397 -26.35620117 1.28173828 C-17.55263771 0.45876605 -8.85432572 -0.2616684 0 0 Z " fill="#776F6B" transform="translate(501,665)"/>
<path d="M0 0 C8.46311161 0.11041202 16.88505338 0.47847816 25.33114624 1.02618408 C43.98024149 2.22711556 62.63035899 2.8060844 81.3112793 3.22827148 C81.3112793 4.21827148 81.3112793 5.20827148 81.3112793 6.22827148 C79.4753418 7.80639648 79.4753418 7.80639648 76.9362793 9.47827148 C74.10429345 11.35822805 71.31124809 13.22829501 68.59643555 15.27514648 C67.3105957 16.24194336 67.3105957 16.24194336 65.9987793 17.22827148 C65.21889648 17.82639648 64.43901367 18.42452148 63.63549805 19.04077148 C61.3112793 20.22827148 61.3112793 20.22827148 58.8503418 20.09545898 C56.00504987 19.12368236 53.59758537 17.86516735 50.9987793 16.35327148 C46.51066456 13.82151445 42.1533181 11.95757106 37.3112793 10.22827148 C36.3212793 9.56827148 35.3312793 8.90827148 34.3112793 8.22827148 C30.36343344 8.42084933 27.10580497 9.67031208 23.4987793 11.16577148 C22.63124023 11.50737305 21.76370117 11.84897461 20.86987305 12.20092773 C18.35265222 13.17442145 18.35265222 13.17442145 16.15893555 14.28686523 C13.53567489 15.30783633 12.13018382 15.60782141 9.3112793 15.22827148 C4.13870714 12.7074155 -0.49058375 9.12782117 -4.6887207 5.22827148 C-4.6887207 1.26869021 -3.96797716 0.33687993 0 0 Z " fill="#9E9793" transform="translate(385.688720703125,694.771728515625)"/>
<path d="M0 0 C4.98046512 -0.02487171 9.96089342 -0.04294081 14.94140625 -0.05493164 C16.63281891 -0.05993487 18.32422731 -0.06673952 20.015625 -0.07543945 C22.45834411 -0.08768185 24.90100562 -0.09326855 27.34375 -0.09765625 C28.08991577 -0.10281754 28.83608154 -0.10797882 29.6048584 -0.11329651 C30.32500122 -0.11337204 31.04514404 -0.11344757 31.78710938 -0.11352539 C32.40888062 -0.115746 33.03065186 -0.11796661 33.67126465 -0.12025452 C37.1297595 0.05834011 40.56363947 0.57045493 44 1 C44 7.27 44 13.54 44 20 C39.8411763 20.04649617 35.68329293 20.08613622 31.52441406 20.10986328 C30.11650499 20.11977813 28.70861567 20.13331412 27.30078125 20.15087891 C17.65009097 20.26806586 8.53678334 19.66093203 -1 18 C-1.09691453 11.89438434 -0.73264101 6.05853644 0 0 Z " fill="#79716D" transform="translate(402,667)"/>
<path d="M0 0 C0 2.3125 0 2.3125 -1 5 C-6.84815173 7.65885357 -12.54284098 8.75973604 -18.875 9.625 C-20.56030786 9.86430353 -22.24522832 10.10635642 -23.9296875 10.3515625 C-24.66429199 10.45291504 -25.39889648 10.55426758 -26.15576172 10.65869141 C-28.08686406 10.92802336 -28.08686406 10.92802336 -30 12 C-39.72278491 13.10972169 -49.51155175 13.16265609 -59.28515625 13.16796875 C-60.71699554 13.17119843 -62.14883454 13.17456363 -63.58067322 13.17805481 C-66.56314862 13.18398901 -69.5455953 13.18590077 -72.52807617 13.18530273 C-75.53855427 13.18522171 -78.54887942 13.19213563 -81.55932617 13.20581055 C-98.46770755 13.28159796 -115.19354269 13.12961427 -132 11 C-132.33 9.02 -132.66 7.04 -133 5 C-127.6704293 4.88947895 -122.4316686 5.02081519 -117.12109375 5.49609375 C-106.48917253 6.27949114 -95.84254736 6.15347415 -85.1875 6.125 C-84.0939621 6.12278442 -83.00042419 6.12056885 -81.87374878 6.11828613 C-74.58229713 6.10091774 -67.29121022 6.06164743 -60 6 C-59.24827515 5.9937561 -58.49655029 5.98751221 -57.7220459 5.9810791 C-38.40328166 5.79742509 -18.85806896 -0.4190682 0 0 Z " fill="#9A9390" transform="translate(524,644)"/>
<path d="M0 0 C8.24635881 0.32670001 15.79540508 0.95408629 23.765625 3.18359375 C27.69086535 4.17438509 31.63067223 4.79687563 35.625 5.4375 C42.20558862 6.53306349 47.90229967 8.25989416 54 11 C56.24515059 11.88736904 58.49545664 12.76177394 60.75 13.625 C61.79671875 14.02976562 62.8434375 14.43453125 63.921875 14.8515625 C66.92735178 15.97289521 69.95067597 17.00486132 73 18 C73 18.66 73 19.32 73 20 C73.70511719 20.22429687 74.41023437 20.44859375 75.13671875 20.6796875 C78.60597645 22.27942707 81.08323759 24.51879257 83.8125 27.125 C84.33295898 27.61202393 84.85341797 28.09904785 85.38964844 28.60083008 C89.68488288 32.64102669 93.88512528 36.77620212 98 41 C97.505 41.99 97.505 41.99 97 43 C91.08126399 39.90611527 85.93446459 36.00629171 80.671875 31.92578125 C78.09319588 29.86541629 78.09319588 29.86541629 75 29 C75 28.34 75 27.68 75 27 C73.82566406 26.72800781 72.65132812 26.45601563 71.44140625 26.17578125 C67.44441147 25.1771901 63.74962841 23.75964001 59.9375 22.1875 C51.36323464 18.80377014 42.55725714 16.98873279 33.54296875 15.17578125 C25.1387389 13.44523683 17.17939843 11.44543907 9.5 7.5625 C8.3346875 6.98628906 7.169375 6.41007812 5.96875 5.81640625 C3.14846219 4.09083542 1.71197106 2.78195297 0 0 Z " fill="#DDD8D5" transform="translate(487,340)"/>
<path d="M0 0 C1.14626322 0.97866338 2.29199788 1.95794587 3.4375 2.9375 C4.39462891 3.75541016 4.39462891 3.75541016 5.37109375 4.58984375 C6.26991149 5.36795695 7.15936528 6.15936528 8 7 C8.28807366 11.70083842 8.24593247 16.41611522 8.25 21.125 C8.25101212 22.15691971 8.25101212 22.15691971 8.25204468 23.20968628 C8.23021753 37.13356885 6.54933979 48.96275456 1.19921875 61.9765625 C-0.24396513 65.61507822 -1.31615347 69.29552006 -2.32421875 73.07421875 C-3 75 -3 75 -5 77 C-5.10330189 70.54872691 -5.17224057 64.09767438 -5.21972656 57.64575195 C-5.23956812 55.46110062 -5.26665013 53.27650035 -5.30175781 51.09204102 C-5.52239774 36.98730909 -4.55696772 23.98830853 -1.45349121 10.22103882 C-0.76146088 6.83172014 -0.37494465 3.43773066 0 0 Z " fill="#99928D" transform="translate(596,423)"/>
<path d="M0 0 C11.32683436 2.63868576 22.28300679 5.40420912 33 10 C31.80102978 16.71423321 29.38555881 20.8145594 25 26 C24.25234375 25.69964844 23.5046875 25.39929688 22.734375 25.08984375 C21.74953125 24.70957031 20.7646875 24.32929688 19.75 23.9375 C18.77546875 23.55464844 17.8009375 23.17179687 16.796875 22.77734375 C13.92411755 21.97890977 12.71598511 21.88836892 10 23 C9.34 23.53625 8.68 24.0725 8 24.625 C6 26 6 26 4.0625 26.0625 C-0.04489788 23.94656776 -2.56571637 20.3028509 -4 16 C-4.23828125 13.73046875 -4.23828125 13.73046875 -4.3125 11.1875 C-4.34988281 10.35605469 -4.38726562 9.52460938 -4.42578125 8.66796875 C-3.85427675 5.08689007 -2.13234106 2.88097362 0 0 Z " fill="#94BDD6" transform="translate(434,470)"/>
<path d="M0 0 C0.66 0 1.32 0 2 0 C1.22863693 3.41537877 0.0929424 6.63138087 -1.109375 9.91796875 C-9.83979266 33.94908408 -18.72390741 58.47893842 -19.31640625 84.33984375 C-19.33718735 85.10680069 -19.35796844 85.87375763 -19.37937927 86.66395569 C-19.44420832 89.08838872 -19.50344621 91.51292013 -19.5625 93.9375 C-19.60574879 95.59180662 -19.64936499 97.24610367 -19.69335938 98.90039062 C-19.79982024 102.93349566 -19.90127062 106.96669859 -20 111 C-25.63166153 105.36833847 -24.25411077 92.9582515 -24.27880859 85.53198242 C-24.27071355 84.16714517 -24.26108149 82.80231627 -24.25 81.4375 C-24.24623352 80.73412506 -24.24246704 80.03075012 -24.23858643 79.30606079 C-24.06127288 51.0109102 -19.59678396 22.09388108 0 0 Z " fill="#262522" transform="translate(345,352)"/>
<path d="M0 0 C0.87785156 -0.00515625 1.75570313 -0.0103125 2.66015625 -0.015625 C4.9375 0.25 4.9375 0.25 6.9375 2.25 C5.9475 2.58 4.9575 2.91 3.9375 3.25 C1.56717513 6.69650686 -0.1905421 10.51473066 -2.0625 14.25 C-2.3733252 14.8584375 -2.68415039 15.466875 -3.00439453 16.09375 C-6.70029982 23.37000529 -9.91641621 29.92322398 -10.0625 38.25 C-15.52987191 36.50192871 -20.82074848 34.59205919 -26.0625 32.25 C-26.87249357 23.51826931 -19.68629457 14.43597312 -14.47265625 7.83203125 C-10.38860218 3.25019774 -6.21586997 -0.03661779 0 0 Z " fill="#88827F" transform="translate(366.0625,582.75)"/>
<path d="M0 0 C3.3703248 1.19056463 6.29562977 3.13670849 9.30126953 5.03710938 C9.99784668 5.4742627 10.69442383 5.91141602 11.41210938 6.36181641 C18.04158855 10.59273486 24.29841769 15.26725984 30.52783203 20.06054688 C32.80226857 21.8102091 35.10642966 23.44970543 37.51220703 25.01367188 C38.35009766 25.57828125 39.18798828 26.14289063 40.05126953 26.72460938 C40.05126953 27.05460937 40.05126953 27.38460938 40.05126953 27.72460938 C33.08549668 27.20836428 27.16970455 25.64187462 20.61376953 23.28710938 C14.56280319 21.13081351 8.70857799 19.37278398 2.38793945 18.2097168 C-1.08087284 17.48956947 -4.25285839 16.33679701 -7.57373047 15.09960938 C-8.78287109 14.65359375 -9.99201172 14.20757812 -11.23779297 13.74804688 C-12.13240234 13.4103125 -13.02701172 13.07257813 -13.94873047 12.72460938 C-12.39922342 8.93789271 -10.0658341 6.66005025 -7.07373047 3.91210938 C-6.21005859 3.10128906 -5.34638672 2.29046875 -4.45654297 1.45507812 C-1.94873047 -0.27539062 -1.94873047 -0.27539062 0 0 Z " fill="#8D7E78" transform="translate(414.94873046875,430.275390625)"/>
<path d="M0 0 C0 2.97 0 5.94 0 9 C-6.70488144 11.90069339 -13.41106606 14.58117256 -20.3671875 16.81640625 C-23.3645173 17.79295564 -26.34250891 18.80610116 -29.3203125 19.83984375 C-30.26463135 20.1642041 -31.2089502 20.48856445 -32.18188477 20.82275391 C-34.0830905 21.47598622 -35.98208639 22.13569057 -37.87866211 22.80224609 C-38.75530518 23.1008252 -39.63194824 23.3994043 -40.53515625 23.70703125 C-41.322854 23.9800708 -42.11055176 24.25311035 -42.92211914 24.53442383 C-45 25 -45 25 -48 24 C-17.9801025 -7.192041 -17.9801025 -7.192041 0 0 Z " fill="#786B66" transform="translate(578,430)"/>
<path d="M0 0 C1.92960571 0.24447876 1.92960571 0.24447876 3.89819336 0.49389648 C8.8247557 1.03915505 13.67670329 1.12850688 18.62890625 1.09765625 C19.94156715 1.09553383 19.94156715 1.09553383 21.28074646 1.09336853 C24.04136762 1.08782719 26.80190388 1.07528612 29.5625 1.0625 C31.44856653 1.0574774 33.33463434 1.05291583 35.22070312 1.04882812 C39.81383417 1.03787707 44.40690275 1.02065384 49 1 C49.99 4.3 50.98 7.6 52 11 C34.12176642 13.64135075 16.8060602 13.08239361 -1 10 C-1.125 2.25 -1.125 2.25 0 0 Z " fill="#605A57" transform="translate(380,726)"/>
<path d="M0 0 C8.02071473 1.94202345 15.45450713 4.66839495 23 8 C22.1875 9.9375 22.1875 9.9375 21 12 C20.01 12.33 19.02 12.66 18 13 C17.67 14.65 17.34 16.3 17 18 C15.02 17.67 13.04 17.34 11 17 C11.21398437 17.52207031 11.42796875 18.04414062 11.6484375 18.58203125 C12.9382783 22.54170381 13.37967853 25.00236194 11.8671875 28.9765625 C9.86118012 32.64939728 7.96960921 36.03039079 5 39 C1.9375 39.1875 1.9375 39.1875 -1 39 C-2 38 -2 38 -2.25 34.3125 C-2.20719313 28.91027272 -0.94501952 23.90638168 0.265625 18.6640625 C1.37224922 13.142714 1.72943791 7.61649582 2 2 C1.34 2 0.68 2 0 2 C0 1.34 0 0.68 0 0 Z " fill="#3B3837" transform="translate(320,573)"/>
<path d="M0 0 C2.67022809 0.63460496 5.24176868 1.38768296 7.828125 2.3046875 C8.54613281 2.55863281 9.26414062 2.81257812 10.00390625 3.07421875 C10.74511719 3.33847656 11.48632812 3.60273437 12.25 3.875 C12.97574219 4.13152344 13.70148438 4.38804687 14.44921875 4.65234375 C18.08082016 5.94055887 21.69647128 7.25972063 25.296875 8.6328125 C30.25148951 10.46204781 34.47277638 11.19309435 39.75 11.5625 C40.92046875 11.64628906 42.0909375 11.73007812 43.296875 11.81640625 C44.18890625 11.87699219 45.0809375 11.93757812 46 12 C45.85950482 13.47968324 45.71245174 14.95874516 45.5625 16.4375 C45.48128906 17.26121094 45.40007812 18.08492187 45.31640625 18.93359375 C45 21 45 21 44 22 C31.32521753 23.55565741 18.64285147 19.33152504 7.640625 13.39453125 C4.18674969 11.57051722 0.68639713 10.27606055 -3 9 C-2.44271087 5.65626525 -1.64826111 2.96687001 0 0 Z " fill="#756E6A" transform="translate(332,625)"/>
<path d="M0 0 C0.66 0.99 1.32 1.98 2 3 C4.58380177 3.25030977 4.58380177 3.25030977 7 3 C6.10667051 9.74698848 1.6666261 13.69372877 -3.3125 18 C-7.54980095 19.57667012 -11.54242479 19.63782025 -16 19 C-20.83690681 16.62717779 -23.94437898 13.35194509 -27 9 C-26 6 -26 6 -24.03808594 5.00097656 C-23.19536133 4.71706055 -22.35263672 4.43314453 -21.484375 4.140625 C-20.10185547 3.67462891 -20.10185547 3.67462891 -18.69140625 3.19921875 C-17.72074219 2.88597656 -16.75007812 2.57273437 -15.75 2.25 C-14.79480469 1.92128906 -13.83960938 1.59257812 -12.85546875 1.25390625 C-11.92863281 0.94839844 -11.00179687 0.64289063 -10.046875 0.328125 C-9.19963867 0.0487207 -8.35240234 -0.23068359 -7.47949219 -0.51855469 C-4.60215629 -1.07724968 -2.77641404 -0.92625399 0 0 Z " fill="#FAEBE7" transform="translate(555,481)"/>
<path d="M0 0 C4.66098784 -0.58262348 7.19527783 -0.2569792 11.0625 2.5 C15.60465214 6.21148619 19.37027909 10.74055818 22 16 C22.5806851 25.98331698 22.35884021 35.46274271 19 45 C18.80148437 45.74636719 18.60296875 46.49273438 18.3984375 47.26171875 C16.60730162 49.48813067 15.65446485 49.39652258 12.875 49.75 C11.59625 49.8325 10.3175 49.915 9 50 C9.28875 48.98421875 9.5775 47.9684375 9.875 46.921875 C13.25705911 34.58270251 14.52991628 24.28260883 10 12 C9.690625 11.01 9.38125 10.02 9.0625 9 C7.72559536 6.48347362 6.59810804 6.06980919 4 5 C1.75 3.5 1.75 3.5 0 2 C0 1.34 0 0.68 0 0 Z " fill="#BDB9B6" transform="translate(507,583)"/>
<path d="M0 0 C5.00694247 -0.6872274 8.27529983 0.15688868 12.4296875 2.79296875 C14.75569688 4.58087148 16.36457026 6.57714112 18 9 C18.4125 9.598125 18.825 10.19625 19.25 10.8125 C20.46357473 14.35209298 20.29702877 17.25743748 20 21 C18.43806517 23.15439286 17.53224202 23.88936542 14.9140625 24.43359375 C11.12066409 24.44006713 8.62950567 24.34336673 5.25 22.5 C0.24957537 16.94397263 -2.60125087 12.62980845 -2.37109375 4.98046875 C-2 3 -2 3 0 0 Z " fill="#9B948F" transform="translate(493,279)"/>
<path d="M0 0 C4.94259827 0.57663646 6.27226751 1.95976751 9.75 5.4375 C12.1794516 9.0816774 11.91179575 11.14991272 11.75 15.4375 C12.389375 14.756875 13.02875 14.07625 13.6875 13.375 C19.99520721 7.13836555 26.05170213 2.59665195 34.75 0.4375 C32.25414984 2.95130592 29.74607738 5.44120866 27.171875 7.875 C21.09628867 13.70187811 16.23264796 19.640509 11.625 26.6875 C10.11687813 28.89941208 8.72650939 30.65864155 6.75 32.4375 C7.24658297 26.77645411 8.29510684 22.56075529 10.75 17.4375 C10.09 17.7675 9.43 18.0975 8.75 18.4375 C4.49278274 19.01802963 3.06656222 18.6627462 -0.5 16.125 C-5.08789386 11.64137645 -5.08789386 11.64137645 -5.515625 8.46484375 C-5.45782959 0.73470783 -5.45782959 0.73470783 0 0 Z " fill="#7E7874" transform="translate(294.25,295.5625)"/>
<path d="M0 0 C12.07874763 1.24952562 12.07874763 1.24952562 16.8125 5.5625 C19.72086397 9.3191368 19.88707154 13.3801993 20 18 C16.12930083 17.44021635 13.63382859 16.3596506 10.4375 14.125 C9.69371094 13.61195313 8.94992187 13.09890625 8.18359375 12.5703125 C6.10158629 11.0730549 4.04428209 9.54827714 2 8 C2.62648438 8.81984375 3.25296875 9.6396875 3.8984375 10.484375 C4.72412933 11.57278696 5.54964068 12.66133587 6.375 13.75 C6.99375 14.55824219 6.99375 14.55824219 7.625 15.3828125 C9.71684645 18.14944813 11.59564418 20.8209088 13 24 C13.66 24 14.32 24 15 24 C14.3125 25.9375 14.3125 25.9375 13 28 C10.71484375 28.93359375 10.71484375 28.93359375 8 29 C5.578125 26.9453125 5.578125 26.9453125 3.25 24.125 C2.47140625 23.19945312 1.6928125 22.27390625 0.890625 21.3203125 C0.26671875 20.55460938 -0.3571875 19.78890625 -1 19 C-1.33 18.67 -1.66 18.34 -2 18 C-2.12682623 15.52836314 -2.18520251 13.09709389 -2.1875 10.625 C-2.19974609 9.93921875 -2.21199219 9.2534375 -2.22460938 8.546875 C-2.23552331 4.80703203 -2.1266842 3.1900263 0 0 Z " fill="#CAB4AC" transform="translate(358,662)"/>
<path d="M0 0 C1.00109515 3.31070838 1.10356134 6.30084769 1.0625 9.75 C1.05347656 10.73484375 1.04445313 11.7196875 1.03515625 12.734375 C1.02355469 13.48203125 1.01195312 14.2296875 1 15 C-13.66423358 22.5939781 -13.66423358 22.5939781 -20 22 C-20.34328345 20.64832143 -20.67402697 19.29345725 -21 17.9375 C-21.185625 17.18339844 -21.37125 16.42929687 -21.5625 15.65234375 C-22.09765372 12.4079743 -22.06427753 9.28217148 -22 6 C-19.08666921 4.99009308 -16.16884681 3.99384048 -13.25 3 C-12.0125 2.57074219 -12.0125 2.57074219 -10.75 2.1328125 C-9.95078125 1.86210938 -9.1515625 1.59140625 -8.328125 1.3125 C-7.5949707 1.06113281 -6.86181641 0.80976562 -6.10644531 0.55078125 C-4 0 -4 0 0 0 Z " fill="#78706C" transform="translate(533,657)"/>
<path d="M0 0 C1.98 0 3.96 0 6 0 C8.93115858 7.49800833 11.5676787 14.87657398 10 23 C8.1875 25.1875 8.1875 25.1875 5 26 C1.31747123 26.20688364 -2.3169259 26.17415587 -6 26 C-6.26554687 24.80761719 -6.53109375 23.61523438 -6.8046875 22.38671875 C-7.16113217 20.82023825 -7.51792097 19.25383602 -7.875 17.6875 C-8.04902344 16.90181641 -8.22304688 16.11613281 -8.40234375 15.30664062 C-8.57636719 14.54931641 -8.75039063 13.79199219 -8.9296875 13.01171875 C-9.08679199 12.31522217 -9.24389648 11.61872559 -9.40576172 10.90112305 C-9.99513393 8.70265788 -9.99513393 8.70265788 -12 6 C-11.625 3.3125 -11.625 3.3125 -11 1 C-9.35 1 -7.7 1 -6 1 C-5.01836578 2.93625098 -4.03977546 4.87404539 -3.0625 6.8125 C-2.51722656 7.89144531 -1.97195313 8.97039063 -1.41015625 10.08203125 C0 13 0 13 1 16 C1.11138159 10.54230189 0.91657981 5.38490641 0 0 Z " fill="#9D9693" transform="translate(491,695)"/>
<path d="M0 0 C-0.5700053 6.40455391 -1.68287669 12.32045203 -3.4375 18.5 C-3.76331055 19.71429688 -3.76331055 19.71429688 -4.09570312 20.953125 C-4.66428532 22.9884102 -5.32480596 24.99755536 -6 27 C-6.66 27.33 -7.32 27.66 -8 28 C-8 27.34 -8 26.68 -8 26 C-9.65 26.33 -11.3 26.66 -13 27 C-16.93124347 22.30787069 -18.12987692 19.53359772 -18 13.4375 C-17.81633753 9.56876349 -17.81633753 9.56876349 -19 6 C-16.91780951 5.18457569 -14.83420239 4.37276811 -12.75 3.5625 C-11.58984375 3.11003906 -10.4296875 2.65757812 -9.234375 2.19140625 C-3.2852459 0 -3.2852459 0 0 0 Z " fill="#94BDD6" transform="translate(570,458)"/>
<path d="M0 0 C3.02048143 1.54876726 5.05427538 3.20181682 7 6 C9.63694094 19.07215232 4.35772107 34.61718063 -2 46 C-2.66 46.66 -3.32 47.32 -4 48 C-4.31926822 34.20597583 -4.30098816 21.44977092 -1 8 C-0.58005821 5.33259196 -0.27415523 2.68672128 0 0 Z " fill="#ABA39E" transform="translate(596,423)"/>
<path d="M0 0 C1.11375 0.91652344 1.11375 0.91652344 2.25 1.8515625 C5.42601457 4.33282389 8.31444782 5.40518042 12.125 6.6875 C13.34445312 7.10386719 14.56390625 7.52023437 15.8203125 7.94921875 C16.86960937 8.29597656 17.91890625 8.64273438 19 9 C19.99 9.33 20.98 9.66 22 10 C33.19967241 10.92039929 44.18544727 10.87817037 54.734375 6.77734375 C55.48203125 6.52082031 56.2296875 6.26429688 57 6 C57.99 6.495 57.99 6.495 59 7 C47.08177709 15.89548522 35.57628077 17.35178107 21 16 C12.80920864 14.49775879 5.8545374 11.00237925 0 5 C0 4.34 0 3.68 0 3 C-0.721875 3.350625 -1.44375 3.70125 -2.1875 4.0625 C-5.3122705 5.10409017 -6.88161996 4.89096572 -10 4 C-9.67 3.01 -9.34 2.02 -9 1 C-5.66660588 -0.11113137 -3.49519344 -0.34951934 0 0 Z " fill="#2E2A28" transform="translate(467,535)"/>
<path d="M0 0 C5.5104172 0 7.96333665 0.49523945 12.875 2.5 C14.02742188 2.9640625 15.17984375 3.428125 16.3671875 3.90625 C17.23601562 4.2671875 18.10484375 4.628125 19 5 C17.77834936 11.84124359 15.41114939 15.6299051 11 21 C6.71 19.35 2.42 17.7 -2 16 C-1.34 10.72 -0.68 5.44 0 0 Z " fill="#D3C7C3" transform="translate(448,475)"/>
<path d="M0 0 C2.64 0 5.28 0 8 0 C8 2.31 8 4.62 8 7 C12.18826791 6.91867005 16.37512793 6.80586305 20.5625 6.6875 C21.74392578 6.66494141 22.92535156 6.64238281 24.14257812 6.61914062 C33.03294181 6.34520785 38.47815586 4.78662809 46 0 C47.32 2.64 48.64 5.28 50 8 C41.83078612 11.14200534 33.40033571 11.16964278 24.75 11.125 C23.38161987 11.12209961 23.38161987 11.12209961 21.9855957 11.11914062 C14.95136807 11.07438809 7.99982085 10.72725411 1 10 C0.67 6.7 0.34 3.4 0 0 Z " fill="#44403D" transform="translate(465,726)"/>
<path d="M0 0 C11.88 0 23.76 0 36 0 C36 0.33 36 0.66 36 1 C28.08 1 20.16 1 12 1 C12 6.94 12 12.88 12 19 C3 19 3 19 -1 18 C-1.09896353 11.76529746 -0.701923 6.31730701 0 0 Z " fill="#4E4946" transform="translate(402,667)"/>
<path d="M0 0 C1.17691406 0.06058594 2.35382813 0.12117187 3.56640625 0.18359375 C5.23176168 0.26840906 6.89712712 0.35302794 8.5625 0.4375 C9.4491333 0.48261719 10.3357666 0.52773438 11.24926758 0.57421875 C16.20969847 0.82286623 21.17021185 1.0528476 26.1328125 1.25390625 C27.64766235 1.3159021 27.64766235 1.3159021 29.19311523 1.37915039 C31.14304118 1.45784695 33.09307252 1.53398703 35.04321289 1.60717773 C40.73829448 1.83825758 46.34203519 2.30648031 52 3 C52.625 5.375 52.625 5.375 53 8 C52.34 8.66 51.68 9.32 51 10 C47.375 9.625 47.375 9.625 44 9 C43.505 7.515 43.505 7.515 43 6 C33.00717773 5.1831954 23.00976758 4.56342404 13 4 C13.20625 4.78375 13.4125 5.5675 13.625 6.375 C13.74875 7.24125 13.8725 8.1075 14 9 C12 11 12 11 9 11.25 C6 11 6 11 4 9 C3.61713197 5.26703674 3.85084215 4.22373677 6 1 C4.02 1 2.04 1 0 1 C0 0.67 0 0.34 0 0 Z " fill="#6F6A67" transform="translate(389,695)"/>
<path d="M0 0 C0 0.66 0 1.32 0 2 C1.1446875 2.3403125 1.1446875 2.3403125 2.3125 2.6875 C5.65829589 4.32149334 6.53342986 5.6037323 8 9 C8.37902038 12.15850315 8.51813279 14.08564801 6.9375 16.875 C3.80077867 18.69632206 1.54699627 18.48924087 -2 18 C-5.21643634 15.35537457 -8.64575786 12.32327638 -9.30078125 8.02734375 C-9.31206115 6.01576071 -9.15915151 4.00530904 -9 2 C-5.5647952 -0.29013653 -4.014669 -0.17842973 0 0 Z " fill="#7E7874" transform="translate(284,356)"/>
<path d="M0 0 C1.79244141 0.23009766 1.79244141 0.23009766 3.62109375 0.46484375 C10.08534064 1.1830934 16.56549882 1.35180512 23.0625 1.5625 C24.93325195 1.62727539 24.93325195 1.62727539 26.84179688 1.69335938 C29.89444091 1.79862296 32.94715523 1.90075941 36 2 C36 2.33 36 2.66 36 3 C31.05 3 26.1 3 21 3 C21 5.97 21 8.94 21 12 C18.08302989 11.85895309 15.1665198 11.71235186 12.25 11.5625 C11.0125 11.50352539 11.0125 11.50352539 9.75 11.44335938 C8.95078125 11.40146484 8.1515625 11.35957031 7.328125 11.31640625 C6.5949707 11.27974854 5.86181641 11.24309082 5.10644531 11.20532227 C2.98822395 10.99885215 1.0480544 10.56867914 -1 10 C-1.125 2.25 -1.125 2.25 0 0 Z " fill="#484441" transform="translate(380,726)"/>
<path d="M0 0 C4.34167968 0.58445688 6.15862991 2.41638832 9.25 5.4375 C11.96232939 9.50599409 11.55699887 11.60226784 11.25 16.4375 C9.25 18.4375 9.25 18.4375 5.9375 18.8125 C1.65959838 18.37745916 0.21212237 17.48425444 -2.75 14.4375 C-5.50745478 10.76089362 -5.03447379 6.84684378 -4.75 2.4375 C-2.75 0.4375 -2.75 0.4375 0 0 Z " fill="#7D7773" transform="translate(323.75,465.5625)"/>
<path d="M0 0 C4.29677372 0.43696004 5.74847442 1.2680301 8.6875 4.375 C10.93105512 8.32793045 11.02642993 11.88417847 10.6875 16.375 C8.6875 18.375 8.6875 18.375 5.9375 18.8125 C1.59582032 18.22804312 -0.22112991 16.39611168 -3.3125 13.375 C-6.02482939 9.30650591 -5.61949887 7.21023216 -5.3125 2.375 C-3.3125 0.375 -3.3125 0.375 0 0 Z " fill="#7D7773" transform="translate(325.3125,340.625)"/>
<path d="M0 0 C0 0.66 0 1.32 0 2 C-4.47058824 6 -4.47058824 6 -7 6 C-7 6.66 -7 7.32 -7 8 C-7.66 8 -8.32 8 -9 8 C-9.26683594 8.60070312 -9.53367187 9.20140625 -9.80859375 9.8203125 C-11.03011369 12.05509325 -12.16144499 13.21213865 -14.0625 14.875 C-21.28723464 21.85790252 -26.09553269 31.32031067 -31 40 C-31.33 40 -31.66 40 -32 40 C-30.97745102 26.45122602 -25.37471708 16.85684769 -15.5625 7.6875 C-11.0461715 3.81966995 -6.16502539 0 0 0 Z " fill="#282624" transform="translate(375,253)"/>
<path d="M0 0 C17.20402996 -0.71063927 29.2180542 -0.34463486 42.94140625 11.03515625 C44.89619545 12.9009228 46.45750349 14.78728137 48 17 C43.77846723 16.40465563 40.81943788 14.89925855 37.125 12.8125 C25.894068 6.8195499 12.54277626 3.8220925 0 2 C0 1.34 0 0.68 0 0 Z " fill="#302E2C" transform="translate(513,315)"/>
<path d="M0 0 C6.1646808 0.08855343 10.2859621 0.8484621 14.75 5.3125 C14.19444444 9.86805556 14.19444444 9.86805556 12.75 11.3125 C4.77233117 11.96482949 -1.73479983 12.27646203 -8.25 7.3125 C-8.375 4.9375 -8.375 4.9375 -8.25 2.3125 C-5.50090732 -0.43659268 -3.83354488 0.01312858 0 0 Z " fill="#C2BDBA" transform="translate(454.25,589.6875)"/>
<path d="M0 0 C8.58 0 17.16 0 26 0 C26 0.99 26 1.98 26 3 C23.98828125 4.68359375 23.98828125 4.68359375 21.3125 6.4375 C18.42958293 8.36216316 15.69354853 10.24899182 13 12.4375 C11 14 11 14 9 14 C7.63242962 12.01860265 6.49654964 9.94527788 5.31640625 7.84765625 C4.05288044 5.69032541 4.05288044 5.69032541 1 5 C0.67 3.35 0.34 1.7 0 0 Z " fill="#89817C" transform="translate(441,698)"/>
<path d="M0 0 C11.06884521 -0.57252648 20.40389062 0.88104008 31 4 C30.67 4.66 30.34 5.32 30 6 C27.78515625 6.5625 27.78515625 6.5625 25.0625 7 C21.07684725 7.5548011 21.07684725 7.5548011 18 10 C15.6171875 10.4140625 15.6171875 10.4140625 12.875 10.625 C11.96492188 10.69976563 11.05484375 10.77453125 10.1171875 10.8515625 C9.06917969 10.92503906 9.06917969 10.92503906 8 11 C7.4225 10.071875 6.845 9.14375 6.25 8.1875 C4.26014978 5.36854553 2.73611987 3.95437133 0 2 C0 1.34 0 0.68 0 0 Z " fill="#C3AEA7" transform="translate(382,575)"/>
<path d="M0 0 C2.77051221 0.65460142 5.42804125 1.45543893 8.109375 2.41015625 C8.86347656 2.67763672 9.61757813 2.94511719 10.39453125 3.22070312 C11.17183594 3.49849609 11.94914062 3.77628906 12.75 4.0625 C13.93916016 4.48499023 13.93916016 4.48499023 15.15234375 4.91601562 C17.1021523 5.60901987 19.05115589 6.30428819 21 7 C20.36578125 7.25523437 19.7315625 7.51046875 19.078125 7.7734375 C16.58074458 8.94462512 16.58074458 8.94462512 15.75 12.625 C15.5025 13.73875 15.255 14.8525 15 16 C8.79522136 14.06375702 2.89174281 11.74390859 -3 9 C-2.44271087 5.65626525 -1.64826111 2.96687001 0 0 Z " fill="#645D59" transform="translate(332,625)"/>
<path d="M0 0 C1.98 0 3.96 0 6 0 C8.90643389 7.43476168 11.66839426 14.94080737 10 23 C7.17008851 25.6769433 5.86319085 26 2 26 C2.03480469 24.69289063 2.03480469 24.69289063 2.0703125 23.359375 C2.19188486 15.33559895 1.61242385 7.86056627 0 0 Z " fill="#A09995" transform="translate(491,695)"/>
<path d="M0 0 C2.35521912 0.61400654 4.67144182 1.28717607 7 2 C7 2.66 7 3.32 7 4 C1.3323836 6.73260076 -4.3918087 8.8952082 -10.375 10.8125 C-11.07689453 11.04348389 -11.77878906 11.27446777 -12.50195312 11.51245117 C-17.64151448 13.11949517 -17.64151448 13.11949517 -21 12 C-19.41984377 10.39270369 -17.83574348 8.78928424 -16.25 7.1875 C-15.36828125 6.29417969 -14.4865625 5.40085937 -13.578125 4.48046875 C-8.60255552 -0.30663219 -6.97900135 -1.53774606 0 0 Z " fill="#8C7D78" transform="translate(551,442)"/>
<path d="M0 0 C-0.7734375 0.68964844 -1.546875 1.37929688 -2.34375 2.08984375 C-11.45208276 10.27605494 -19.28671426 18.33944121 -25.65234375 28.91015625 C-26.09707031 29.59980469 -26.54179687 30.28945313 -27 31 C-27.33 31 -27.66 31 -28 31 C-28 21.91879377 -22.87881207 14.38077598 -17.0078125 7.75 C-13.21542692 4.21653231 -5.2981477 -2.64907385 0 0 Z " fill="#282624" transform="translate(329,297)"/>
<path d="M0 0 C4.33622716 2.48705921 8.38144484 5.33943947 12.36328125 8.35546875 C12.03328125 9.01546875 11.70328125 9.67546875 11.36328125 10.35546875 C10.55890625 9.96875 9.75453125 9.58203125 8.92578125 9.18359375 C-2.87763763 3.95488626 -14.90663309 2.11734171 -27.63671875 0.35546875 C-21.4278834 -5.8533666 -7.25265357 -3.37644544 0 0 Z " fill="#373532" transform="translate(484.63671875,257.64453125)"/>
<path d="M0 0 C-0.85714286 8.57142857 -0.85714286 8.57142857 -3 12 C-7.8333472 12.08333357 -12.23692563 11.95261487 -17 11 C-17.33 9.02 -17.66 7.04 -18 5 C-15.56427941 4.16112944 -13.12666783 3.32873471 -10.6875 2.5 C-9.65206055 2.14228516 -9.65206055 2.14228516 -8.59570312 1.77734375 C-5.61068511 0.76791737 -3.17341086 0 0 0 Z " fill="#C3C0BE" transform="translate(527,687)"/>
<path d="M0 0 C3.79598549 1.49128001 5.71720399 3.65733441 8 7 C8 7.99 8 8.98 8 10 C8.66 10 9.32 10 10 10 C11.25664978 12.90600261 12 14.79604584 12 18 C7.63144949 17.82868429 5.5025879 17.42610714 2.125 14.5625 C-0.83430419 10.57133316 -1.12795173 5.85302641 -1 1 C-0.67 0.67 -0.34 0.34 0 0 Z " fill="#7F7975" transform="translate(442,319)"/>
<path d="M0 0 C2.01136276 2.55991624 3.62845496 5.04590299 5 8 C0.59825215 9.68490746 -3.00772175 10.23846127 -7.7109375 10.1953125 C-8.95488281 10.18886719 -10.19882812 10.18242188 -11.48046875 10.17578125 C-12.76566406 10.15902344 -14.05085938 10.14226563 -15.375 10.125 C-16.68339844 10.11597656 -17.99179687 10.10695313 -19.33984375 10.09765625 C-22.5600837 10.07415085 -25.77994707 10.04129087 -29 10 C-29 9.34 -29 8.68 -29 8 C-28.01 7.96261719 -27.02 7.92523437 -26 7.88671875 C-15.89514466 7.41967149 -8.34035974 6.04676081 0 0 Z " fill="#5E5955" transform="translate(510,726)"/>
<path d="M0 0 C6.875 0.875 6.875 0.875 8 2 C8.45506692 8.14340344 8.45506692 8.14340344 6.9375 11 C3.86664787 12.58495594 1.27813225 11.68036707 -2 11 C-3.35384615 4.6 -3.35384615 4.6 -1.5625 1.5625 C-1.046875 1.046875 -0.53125 0.53125 0 0 Z " fill="#C1BDBA" transform="translate(504,616)"/>
<path d="M0 0 C1.41812815 4.91695252 1.72598266 9.93390363 1 15 C-1.45694253 17.26297338 -2.6796254 18 -6 18 C-6 12.72 -6 7.44 -6 2 C-2 0 -2 0 0 0 Z " fill="#9E948F" transform="translate(533,657)"/>
<path d="M0 0 C1 1 1 1 1.125 4.4375 C1 8 1 8 0 10 C-6.0546875 10.1953125 -6.0546875 10.1953125 -8 10 C-10 8 -10 8 -10.3125 5.0625 C-10 2 -10 2 -8.9375 0.0625 C-5.84787273 -1.63181173 -3.32782582 -0.73951685 0 0 Z " fill="#B3ADAA" transform="translate(414,602)"/>
<path d="M0 0 C8.04212755 -0.16677223 15.98603754 0.3533402 24 1 C24 1.33 24 1.66 24 2 C21.69 2 19.38 2 17 2 C17.33 3.65 17.66 5.3 18 7 C12.39 6.67 6.78 6.34 1 6 C0.67 4.02 0.34 2.04 0 0 Z " fill="#7D746F" transform="translate(391,649)"/>
<path d="M0 0 C3.42771135 3.9173844 8 9.52151811 8 15 C7.34 15 6.68 15 6 15 C5.67 16.98 5.34 18.96 5 21 C2.625 21.1875 2.625 21.1875 0 21 C-0.66 20.01 -1.32 19.02 -2 18 C-0.02 18.33 1.96 18.66 4 19 C3.67 18.236875 3.34 17.47375 3 16.6875 C2 14 2 14 2 11 C1.34 11 0.68 11 0 11 C-0.9765625 9.27473958 -1.953125 7.54947917 -2.9296875 5.82421875 C-3.89428581 4.18017711 -4.94267059 2.58599412 -6 1 C-4.02 0.67 -2.04 0.34 0 0 Z " fill="#938C87" transform="translate(450,318)"/>
<path d="M0 0 C0.66 0 1.32 0 2 0 C1.55486156 4.10571079 1.09164303 8.20918222 0.625 12.3125 C0.49867188 13.47974609 0.37234375 14.64699219 0.2421875 15.84960938 C0.11328125 16.96787109 -0.015625 18.08613281 -0.1484375 19.23828125 C-0.26364746 20.26993408 -0.37885742 21.30158691 -0.49755859 22.36450195 C-1 25 -1 25 -3 28 C-5.98608298 22.9475476 -5.58044079 17.69514844 -5 12 C-2.40871022 2.40871022 -2.40871022 2.40871022 0 0 Z " fill="#201F1D" transform="translate(268,388)"/>
<path d="M0 0 C2.4377963 -0.05397335 4.87439685 -0.09365616 7.3125 -0.125 C8.00279297 -0.14175781 8.69308594 -0.15851562 9.40429688 -0.17578125 C13.17135396 -0.21217794 14.78431704 -0.14378864 18 2 C15.69 2 13.38 2 11 2 C11.33 2.33 11.66 2.66 12 3 C12.04080783 4.99958364 12.04254356 7.00045254 12 9 C13.98 9 15.96 9 18 9 C14.59658679 11.09440813 11.96176976 11.66029496 8 11 C5.875 8.1875 5.875 8.1875 4 5 C2.68441297 3.97676564 1.35622245 2.96873032 0 2 C0 1.34 0 0.68 0 0 Z " fill="#806C65" transform="translate(382,575)"/>
<path d="M0 0 C9.04058465 -0.58620506 16.46974815 -0.52322191 24 5 C24.99 6.485 24.99 6.485 26 8 C16.66437641 6.82141629 7.98106425 4.77376197 -1 2 C-0.67 1.34 -0.34 0.68 0 0 Z " fill="#474340" transform="translate(471,311)"/>
<path d="M0 0 C1.98 0 3.96 0 6 0 C5.4981633 6.90025468 4.05462339 13.94537661 -1 19 C-1.02690104 16.20826945 -1.04679053 13.41679652 -1.0625 10.625 C-1.07087891 9.8309375 -1.07925781 9.036875 -1.08789062 8.21875 C-1.11328125 2.2265625 -1.11328125 2.2265625 0 0 Z " fill="#C7BDB7" transform="translate(593,452)"/>
<path d="M0 0 C6.76594019 -0.11381955 13.28837062 0.11978631 20 1 C20.625 3.375 20.625 3.375 21 6 C20.34 6.66 19.68 7.32 19 8 C15.5 7.8125 15.5 7.8125 12 7 C10 4 10 4 10 1 C6.7 1 3.4 1 0 1 C0 0.67 0 0.34 0 0 Z " fill="#585350" transform="translate(421,697)"/>
<path d="M0 0 C-0.99 2.31 -1.98 4.62 -3 7 C-2.34 7.66 -1.68 8.32 -1 9 C-4.3 8.67 -7.6 8.34 -11 8 C-11.33 6.02 -11.66 4.04 -12 2 C-10.37787941 1.47026689 -8.75218416 0.95146893 -7.125 0.4375 C-6.22007812 0.14746094 -5.31515625 -0.14257812 -4.3828125 -0.44140625 C-2 -1 -2 -1 0 0 Z " fill="#9A9490" transform="translate(521,690)"/>
<path d="M0 0 C1.3303125 0.7425 1.3303125 0.7425 2.6875 1.5 C2.6875 1.83 2.6875 2.16 2.6875 2.5 C0.16659222 2.5272367 -2.35401457 2.54695207 -4.875 2.5625 C-5.93170898 2.57506836 -5.93170898 2.57506836 -7.00976562 2.58789062 C-11.55274798 2.60882603 -15.83034892 2.24800682 -20.3125 1.5 C-20.3125 0.84 -20.3125 0.18 -20.3125 -0.5 C-14.09233848 -2.57338717 -6.06873167 -2.6418298 0 0 Z " fill="#575451" transform="translate(443.3125,229.5)"/>
<path d="M0 0 C0 4.62 0 9.24 0 14 C-0.66 14 -1.32 14 -2 14 C-3.21875 12.390625 -3.21875 12.390625 -4.5 10.25 C-4.9228125 9.55390625 -5.345625 8.8578125 -5.78125 8.140625 C-6.9291935 6.12436527 -7.98521626 4.08594435 -9 2 C-4.5 -1.125 -4.5 -1.125 0 0 Z " fill="#383635" transform="translate(540,579)"/>
<path d="M0 0 C3.39527689 1.40494216 5.30647023 2.69761694 7 6 C7.24492511 9.01726886 7.17422028 11.98018176 7 15 C4.8125 15.3125 4.8125 15.3125 2 15 C-0.8125 12.5 -0.8125 12.5 -3 10 C-0.03 10.495 -0.03 10.495 3 11 C2.690625 9.9275 2.38125 8.855 2.0625 7.75 C1.33187904 5.17133778 0.62517096 2.60487898 0 0 Z " fill="#383431" transform="translate(499,511)"/>
<path d="M0 0 C0 2.97 0 5.94 0 9 C-0.99 9.495 -0.99 9.495 -2 10 C-2 9.34 -2 8.68 -2 8 C-3.65 8.33 -5.3 8.66 -7 9 C-7.99 7.35 -8.98 5.7 -10 4 C-3.73913043 0 -3.73913043 0 0 0 Z " fill="#B5DBF3" transform="translate(564,476)"/>
<path d="M0 0 C0.433422 8.15475474 -0.70629774 15.17683695 -3 23 C-3.33 23 -3.66 23 -4 23 C-3.96519531 21.49759766 -3.96519531 21.49759766 -3.9296875 19.96484375 C-3.91091211 18.62240336 -3.89271382 17.27995482 -3.875 15.9375 C-3.84019531 13.97103516 -3.84019531 13.97103516 -3.8046875 11.96484375 C-4.00582478 7.88175701 -4.72834538 4.85000947 -6 1 C-3 0 -3 0 0 0 Z " fill="#D4CAC7" transform="translate(568,460)"/>
<path d="M0 0 C-0.66 3.63 -1.32 7.26 -2 11 C-3.65 11.33 -5.3 11.66 -7 12 C-8 11 -8 11 -8.3125 8.25 C-7.76791665 2.58633321 -5.72892663 0 0 0 Z " fill="#2B2927" transform="translate(390,306)"/>
<path d="M0 0 C2.625 0.375 2.625 0.375 5 1 C5.625 3.3125 5.625 3.3125 6 6 C5.01 7.485 5.01 7.485 4 9 C-0.875 8.125 -0.875 8.125 -2 7 C-2.1875 4.5625 -2.1875 4.5625 -2 2 C-1.34 1.34 -0.68 0.68 0 0 Z " fill="#55504D" transform="translate(435,674)"/>
<path d="M0 0 C4.62 1.32 9.24 2.64 14 4 C9 9 9 9 7 9.1875 C3.86974985 7.32891397 2.15633136 4.93500657 0 2 C0 1.34 0 0.68 0 0 Z " fill="#AEDEFC" transform="translate(431,487)"/>
<path d="M0 0 C0.66 0 1.32 0 2 0 C5.07794799 7.87350088 6.59972035 14.53727954 6 23 C5.01 23.33 4.02 23.66 3 24 C2.95101563 23.02160156 2.90203125 22.04320312 2.8515625 21.03515625 C2.44107762 13.83751621 1.84130777 6.99696951 0 0 Z " fill="#B9B6B3" transform="translate(495,695)"/>
<path d="M0 0 C0.94875 0.04125 1.8975 0.0825 2.875 0.125 C3 3 3 3 2.875 6.125 C0.875 8.125 0.875 8.125 -1.6875 8.3125 C-4.125 8.125 -4.125 8.125 -5.125 7.125 C-5.3125 4.6875 -5.3125 4.6875 -5.125 2.125 C-3.125 0.125 -3.125 0.125 0 0 Z " fill="#55504C" transform="translate(492.125,674.875)"/>
<path d="M0 0 C9.0719352 -0.09471858 17.98185679 -0.14516104 27 1 C27 1.99 27 2.98 27 4 C17.93865155 3.35878726 8.99147995 2.26519458 0 1 C0 0.67 0 0.34 0 0 Z " fill="#817A76" transform="translate(404,697)"/>
<path d="M0 0 C2.125 0.375 2.125 0.375 4 1 C4.33 3.31 4.66 5.62 5 8 C3.00045254 8.04254356 0.99958364 8.04080783 -1 8 C-2 7 -2 7 -2.1875 4.5625 C-2 2 -2 2 0 0 Z " fill="#4F4B4A" transform="translate(326,591)"/>
<path d="M0 0 C4.29 0.33 8.58 0.66 13 1 C13 1.33 13 1.66 13 2 C10.69 2 8.38 2 6 2 C6 3.65 6 5.3 6 7 C6.99 7.33 7.98 7.66 9 8 C6.69 8 4.38 8 2 8 C1.34 5.36 0.68 2.72 0 0 Z " fill="#B89D93" transform="translate(392,576)"/>
<path d="M0 0 C3.3 0 6.6 0 10 0 C10 1.65 10 3.3 10 5 C8.375 5.8125 8.375 5.8125 6 6 C3.70232365 4.54854104 1.98596134 2.89569037 0 1 C0 0.67 0 0.34 0 0 Z " fill="#A3918A" transform="translate(370,659)"/>
<path d="M0 0 C0.33 0 0.66 0 1 0 C1 7.59 1 15.18 1 23 C-0.32 23 -1.64 23 -3 23 C-2.690625 21.80375 -2.38125 20.6075 -2.0625 19.375 C-0.62245192 12.99180815 -0.35230768 6.51769209 0 0 Z " fill="#918A86" transform="translate(603,430)"/>
<path d="M0 0 C0.66 0.33 1.32 0.66 2 1 C-2.95 5.95 -7.9 10.9 -13 16 C-13.66 15.67 -14.32 15.34 -15 15 C-13.06629992 12.87143092 -11.12827941 10.7470979 -9.1875 8.625 C-8.64029297 8.02171875 -8.09308594 7.4184375 -7.52929688 6.796875 C-6.99755859 6.21679688 -6.46582031 5.63671875 -5.91796875 5.0390625 C-5.43094482 4.50490723 -4.9439209 3.97075195 -4.44213867 3.42041016 C-3 2 -3 2 0 0 Z " fill="#36322F" transform="translate(545,423)"/>
<path d="M0 0 C0.66 0.33 1.32 0.66 2 1 C-1.63 4.3 -5.26 7.6 -9 11 C-9.66 9.68 -10.32 8.36 -11 7 C-7.71103088 3.18479582 -4.67184669 1.64379791 0 0 Z " fill="#312F2D" transform="translate(327,296)"/>
<path d="M0 0 C0.33 0 0.66 0 1 0 C1.21824777 6.0018137 0.5056904 11.19233704 -1 17 C-3 16 -3 16 -4 13 C-4.068991 10.93854893 -4.08467727 8.87498599 -4.0625 6.8125 C-4.05347656 5.72582031 -4.04445313 4.63914062 -4.03515625 3.51953125 C-4.02355469 2.68808594 -4.01195312 1.85664063 -4 1 C-3.67 1 -3.34 1 -3 1 C-2.67 4.3 -2.34 7.6 -2 11 C-1.34 7.37 -0.68 3.74 0 0 Z " fill="#625D5A" transform="translate(267,399)"/>
<path d="M0 0 C2.52259061 1.97420135 2.9929808 2.96745642 3.6875 6.1875 C3.790625 7.115625 3.89375 8.04375 4 9 C1.36 7.68 -1.28 6.36 -4 5 C-4 4.01 -4 3.02 -4 2 C-2.68 1.34 -1.36 0.68 0 0 Z " fill="#B8A49D" transform="translate(540,642)"/>
<path d="M0 0 C0.66 0.33 1.32 0.66 2 1 C-3.28 6.28 -8.56 11.56 -14 17 C-14 12.08113186 -10.31173311 9.3948461 -7 6 C-4.72300284 3.91201998 -2.39497582 1.9550823 0 0 Z " fill="#3A3836" transform="translate(380,399)"/>
<path d="M0 0 C3 1 3 1 5 2 C5 2.33 5 2.66 5 3 C3.06280622 3.05406122 1.12518079 3.09282025 -0.8125 3.125 C-1.89144531 3.14820313 -2.97039062 3.17140625 -4.08203125 3.1953125 C-7 3 -7 3 -10 1 C-6.82587823 -0.58706088 -3.46361333 -0.28477127 0 0 Z " fill="#22201E" transform="translate(441,229)"/>
<path d="M0 0 C0.99 0.33 1.98 0.66 3 1 C3 1.66 3 2.32 3 3 C5.475 3.495 5.475 3.495 8 4 C8 4.33 8 4.66 8 5 C1.25846717 6.25841946 -5.13484138 7.26404456 -12 7 C-12 6.67 -12 6.34 -12 6 C-7.9472484 5.01751476 -4.16138263 4.91840426 0 5 C0 3.35 0 1.7 0 0 Z " fill="#75706D" transform="translate(486,633)"/>
<path d="M0 0 C0.33 0 0.66 0 1 0 C1.05416188 1.60379341 1.09286638 3.20811406 1.125 4.8125 C1.14820313 5.70582031 1.17140625 6.59914063 1.1953125 7.51953125 C1 10 1 10 -1 13 C-1.33 11.35 -1.66 9.7 -2 8 C-3.98 8.99 -3.98 8.99 -6 10 C-5.02526874 8.33073546 -4.04510211 6.66464358 -3.0625 5 C-2.24458984 3.6078125 -2.24458984 3.6078125 -1.41015625 2.1875 C-0.71212891 1.1046875 -0.71212891 1.1046875 0 0 Z " fill="#A6948E" transform="translate(574,490)"/>
<path d="M0 0 C0.33 0 0.66 0 1 0 C1.27631521 2.5829465 1.52171274 5.16274443 1.75 7.75 C1.87181641 8.84441406 1.87181641 8.84441406 1.99609375 9.9609375 C2.171875 12.109375 2.171875 12.109375 2 16 C0.68 17.32 -0.64 18.64 -2 20 C-1.34 13.4 -0.68 6.8 0 0 Z " fill="#3A3835" transform="translate(489,615)"/>
<path d="M0 0 C1.65 0 3.3 0 5 0 C5.33 0.66 5.66 1.32 6 2 C5.06421005 4.35981813 4.06652192 6.69631264 3 9 C0.23776722 6.23776722 0.42143709 3.79293383 0 0 Z " fill="#282625" transform="translate(331,590)"/>
<path d="M0 0 C7.26 0.33 14.52 0.66 22 1 C22 1.33 22 1.66 22 2 C21.37351562 2.04898438 20.74703125 2.09796875 20.1015625 2.1484375 C18.87566406 2.26058594 18.87566406 2.26058594 17.625 2.375 C16.81289063 2.44460938 16.00078125 2.51421875 15.1640625 2.5859375 C12.79665809 2.82892588 12.79665809 2.82892588 11 5 C10.67 4.01 10.34 3.02 10 2 C6.7 1.67 3.4 1.34 0 1 C0 0.67 0 0.34 0 0 Z " fill="#4C4542" transform="translate(358,657)"/>
<path d="M0 0 C-0.33 2.97 -0.66 5.94 -1 9 C-1.33 9 -1.66 9 -2 9 C-2 6.69 -2 4.38 -2 2 C-2.79664063 2.34224609 -2.79664063 2.34224609 -3.609375 2.69140625 C-4.31578125 2.97886719 -5.0221875 3.26632812 -5.75 3.5625 C-6.44609375 3.85253906 -7.1421875 4.14257812 -7.859375 4.44140625 C-10.30012784 5.07831803 -11.6403655 4.80248831 -14 4 C-12.0429132 3.32968281 -10.08428887 2.66385317 -8.125 2 C-7.03445313 1.62875 -5.94390625 1.2575 -4.8203125 0.875 C-2 0 -2 0 0 0 Z " fill="#939394" transform="translate(570,458)"/>
<path d="M0 0 C2.97 0.495 2.97 0.495 6 1 C6 2.32 6 3.64 6 5 C4.35 4.67 2.7 4.34 1 4 C0.67 2.68 0.34 1.36 0 0 Z " fill="#4C4847" transform="translate(330,577)"/>
<path d="M0 0 C0.99 0.33 1.98 0.66 3 1 C3 2.65 3 4.3 3 6 C1.35 5.67 -0.3 5.34 -2 5 C-1.125 1.125 -1.125 1.125 0 0 Z " fill="#635E5B" transform="translate(400,618)"/>
<path d="M0 0 C0.33 0 0.66 0 1 0 C1.02696365 1.79158489 1.04637917 3.58328473 1.0625 5.375 C1.07410156 6.37273438 1.08570313 7.37046875 1.09765625 8.3984375 C1 11 1 11 0 13 C-0.66 13 -1.32 13 -2 13 C-2.05447047 11.58376784 -2.09300508 10.16691809 -2.125 8.75 C-2.14820313 7.96109375 -2.17140625 7.1721875 -2.1953125 6.359375 C-1.9828378 3.79268059 -1.28654105 2.2083933 0 0 Z " fill="#6B6763" transform="translate(493,707)"/>
<path d="M0 0 C2.31 0.33 4.62 0.66 7 1 C7 1.99 7 2.98 7 4 C4.69 3.67 2.38 3.34 0 3 C0 2.01 0 1.02 0 0 Z " fill="#BDB9B6" transform="translate(437,596)"/>
<path d="M0 0 C-1.38188453 3.21043882 -2.92421903 5.04936365 -5.625 7.25 C-6.57246094 8.03117187 -6.57246094 8.03117187 -7.5390625 8.828125 C-8.02117187 9.21484375 -8.50328125 9.6015625 -9 10 C-7.6834994 5.81113445 -4.97532335 0 0 0 Z " fill="#353330" transform="translate(316,303)"/>
<path d="M0 0 C0.66 0 1.32 0 2 0 C1.21302675 3.41021743 0.12880057 6.68885166 -1 10 C-1.99 9.34 -2.98 8.68 -4 8 C-2.87548273 5.0280615 -1.77706209 2.66559313 0 0 Z " fill="#4D4946" transform="translate(345,352)"/>
<path d="M0 0 C0.66 0.33 1.32 0.66 2 1 C0.35 2.98 -1.3 4.96 -3 7 C-4.32 6.67 -5.64 6.34 -7 6 C-6 3 -6 3 -3.0625 1.25 C-2.051875 0.8375 -1.04125 0.425 0 0 Z " fill="#AFABA7" transform="translate(376,214)"/>
<path d="M0 0 C0 0.66 0 1.32 0 2 C-1.96147874 3.38938077 -3.96166576 4.7260411 -6 6 C-6 5.34 -6 4.68 -6 4 C-6.99 3.67 -7.98 3.34 -9 3 C-3.375 0 -3.375 0 0 0 Z " fill="#4B4744" transform="translate(375,253)"/>
<path d="M0 0 C1.65 0 3.3 0 5 0 C4.01 0.33 3.02 0.66 2 1 C2 3.31 2 5.62 2 8 C0.4375 6.8125 0.4375 6.8125 -1 5 C-0.6875 2.3125 -0.6875 2.3125 0 0 Z " fill="#6D6864" transform="translate(480,696)"/>
<path d="M0 0 C2.67927341 4.01891012 2.15601248 6.24161923 2 11 C1.01 11 0.02 11 -1 11 C-1.125 3.375 -1.125 3.375 0 0 Z " fill="#5E5956" transform="translate(309,486)"/>
<path d="M0 0 C3.375 -0.125 3.375 -0.125 7 0 C7.66 0.66 8.32 1.32 9 2 C8.67 2.33 8.34 2.66 8 3 C4.5 2.6875 4.5 2.6875 1 2 C0.67 1.34 0.34 0.68 0 0 Z " fill="#706B68" transform="translate(432,702)"/>
<path d="M0 0 C0.66 0.33 1.32 0.66 2 1 C0.88121617 2.17262904 -0.24523051 3.33795138 -1.375 4.5 C-2.00148438 5.1496875 -2.62796875 5.799375 -3.2734375 6.46875 C-5 8 -5 8 -7 8 C-5.50902342 4.2047869 -3.24299151 2.38957269 0 0 Z " fill="#847F7B" transform="translate(494,588)"/>
<path d="M0 0 C0.66 0 1.32 0 2 0 C1.67 2.31 1.34 4.62 1 7 C-0.32 7 -1.64 7 -3 7 C-1.125 1.125 -1.125 1.125 0 0 Z " fill="#504C49" transform="translate(268,388)"/>
<path d="M0 0 C2.62187494 1.04874998 3.79371361 1.64931313 5.25 4.125 C5.4975 4.74375 5.745 5.3625 6 6 C3 6 3 6 1.3125 4.6875 C0 3 0 3 0 0 Z " fill="#D6D1CE" transform="translate(586,384)"/>
<path d="M0 0 C1.32 0 2.64 0 4 0 C4 1.65 4 3.3 4 5 C2.68 4.67 1.36 4.34 0 4 C0 2.68 0 1.36 0 0 Z " fill="#BCB7B4" transform="translate(421,603)"/>
<path d="M0 0 C0.66 0.33 1.32 0.66 2 1 C1.38125 1.0825 0.7625 1.165 0.125 1.25 C-2.15042479 1.79923543 -2.15042479 1.79923543 -3.125 3.875 C-3.41375 4.57625 -3.7025 5.2775 -4 6 C-4.66 6.99 -5.32 7.98 -6 9 C-6.36585366 4.48780488 -6.36585366 4.48780488 -4.6875 2.25 C-3 1 -3 1 0 0 Z " fill="#4C4541" transform="translate(511,461)"/>
<path d="M0 0 C0.66 0 1.32 0 2 0 C2 2.31 2 4.62 2 7 C1.01 7 0.02 7 -1 7 C-0.67 4.69 -0.34 2.38 0 0 Z " fill="#BFBAB7" transform="translate(413,603)"/>
<path d="M0 0 C2.31 0.33 4.62 0.66 7 1 C7 1.66 7 2.32 7 3 C5.02 3 3.04 3 1 3 C0.67 2.01 0.34 1.02 0 0 Z " fill="#C1BCB9" transform="translate(501,590)"/>
<path d="M0 0 C0.33 0 0.66 0 1 0 C1.33 3.63 1.66 7.26 2 11 C1.01 10.67 0.02 10.34 -1 10 C-0.67 6.7 -0.34 3.4 0 0 Z " fill="#2B2927" transform="translate(309,491)"/>
<path d="M0 0 C2.31 0 4.62 0 7 0 C5.8125 1.5625 5.8125 1.5625 4 3 C1.3125 2.6875 1.3125 2.6875 -1 2 C-0.67 1.34 -0.34 0.68 0 0 Z " fill="#6E635E" transform="translate(479,581)"/>
<path d="M0 0 C0.66 0.33 1.32 0.66 2 1 C1.34 1.66 0.68 2.32 0 3 C0.33 3.66 0.66 4.32 1 5 C-0.65 4.67 -2.3 4.34 -4 4 C-3.67 3.01 -3.34 2.02 -3 1 C-2.01 0.67 -1.02 0.34 0 0 Z " fill="#4D4642" transform="translate(461,535)"/>
<path d="M0 0 C0.66 0.33 1.32 0.66 2 1 C0.576875 1.6496875 0.576875 1.6496875 -0.875 2.3125 C-4.20041937 3.79302201 -4.20041937 3.79302201 -6 7 C-6.33 5.68 -6.66 4.36 -7 3 C-4.69631264 1.93347808 -2.35981813 0.93578995 0 0 Z " fill="#EBDDD9" transform="translate(535,485)"/>
<path d="M0 0 C0.66 0.33 1.32 0.66 2 1 C0.02 2.32 -1.96 3.64 -4 5 C-4.99 4.34 -5.98 3.68 -7 3 C-4.69631264 1.93347808 -2.35981813 0.93578995 0 0 Z " fill="#393734" transform="translate(327,296)"/>
</svg>
