<?xml version="1.0" encoding="UTF-8"?>
<svg version="1.1" xmlns="http://www.w3.org/2000/svg" width="900" height="900">
<path d="M0 0 C1.19109375 0.56654297 1.19109375 0.56654297 2.40625 1.14453125 C12.29595115 5.94488944 22.24882955 10.90151017 30.28515625 18.49609375 C32.3566819 20.31280759 34.66504983 21.43730993 37.08984375 22.71875 C40.68449731 25.12988777 43.52969163 28.38990704 46.5234375 31.4921875 C48.62641369 33.62169967 50.75723168 35.53634246 53.0625 37.4375 C58.01999289 41.67519331 62.20708245 46.70571926 66 52 C66 52.66 66 53.32 66 54 C66.85271484 54.29003906 66.85271484 54.29003906 67.72265625 54.5859375 C70.94347154 56.58582624 72.51412364 59.4551967 74.4375 62.625 C74.83509521 63.26453613 75.23269043 63.90407227 75.64233398 64.56298828 C76.42503762 65.82293462 77.20422082 67.08507623 77.97949219 68.34960938 C79.1348434 70.21807211 80.34972527 72.04346266 81.5625 73.875 C94 93.83588287 94 93.83588287 94 102 C94.66 102 95.32 102 96 102 C99.79675273 114.05512733 103.50666972 126.13584859 107.16113281 138.23486328 C107.94044518 140.80369095 108.73052587 143.36893838 109.5234375 145.93359375 C111.67180513 152.95495934 113.47416544 159.63831619 114 167 C114.33 167.33 114.66 167.66 115 168 C116.01908558 176.39172941 116.02831605 184.81173927 115.9375 193.25 C115.85464199 201.76048849 116.30203207 210.14430152 117 218.625 C118.75063669 240.64983928 118.08919544 259.88908097 111 281 C110.66548828 282.05767578 110.66548828 282.05767578 110.32421875 283.13671875 C109.58467516 285.43798008 108.79932605 287.71881834 108 290 C107.68675781 290.91910156 107.37351562 291.83820313 107.05078125 292.78515625 C103.35816584 303.03378358 98.2827393 312.4952289 93 322 C92.45956055 322.97694824 92.45956055 322.97694824 91.90820312 323.97363281 C88.02549377 330.90065459 83.88783373 336.53863455 78.078125 341.953125 C76.11537999 343.88635505 74.66030765 345.78600935 73.125 348.0625 C67.45693779 355.94440369 58.35674037 360.4657907 50 365 C51.09925842 368.89705827 52.20207185 372.79309145 53.30810547 376.68823242 C53.68341938 378.01185242 54.05778209 379.33574253 54.43115234 380.65991211 C54.96979104 382.56956583 55.51220151 384.47815439 56.0546875 386.38671875 C56.37937012 387.53358154 56.70405273 388.68044434 57.03857422 389.86206055 C57.89370812 392.65308037 58.90830727 395.29626178 60 398 C60.36628397 399.29057866 60.70143125 400.5905331 61 401.8984375 C61.1640332 402.61676758 61.32806641 403.33509766 61.49707031 404.07519531 C64.32335301 416.99926475 66.15943392 429.4432889 66.25 442.6875 C66.2593457 443.64495117 66.26869141 444.60240234 66.27832031 445.58886719 C66.27413086 446.4915332 66.26994141 447.39419922 66.265625 448.32421875 C66.26336914 449.12947998 66.26111328 449.93474121 66.25878906 450.7644043 C65.89148584 453.93741904 64.87169548 456.16620432 62.5625 458.375 C60.81022931 460.02627556 60.81022931 460.02627556 59.69140625 462.74609375 C56.07273841 469.70764182 50.51232928 476.67394859 42.875 479.1875 C40.956875 479.5896875 40.956875 479.5896875 39 480 C38.938125 481.051875 38.87625 482.10375 38.8125 483.1875 C37.92569734 490.16950966 35.78654285 498.42101264 30.53515625 503.28125 C27.79405893 505.13962106 25.00057361 506.60438437 22 508 C22.36464642 514.13257066 22.36464642 514.13257066 24.5 519.8125 C26.78682828 524.67201009 26.75074404 529.6882696 27 535 C14.67101721 540.59447532 2.29601028 541.47782177 -11.06079102 541.33618164 C-13.43215095 541.3125533 -15.80237951 541.31565583 -18.17382812 541.32226562 C-28.25162754 541.30231269 -38.03582385 540.49253329 -48 539 C-48.9375 531.6875 -48.9375 531.6875 -49.22631836 529.3972168 C-49.60994515 526.4652401 -50.06250168 523.81249496 -51 521 C-53.31 521.66 -55.62 522.32 -58 523 C-57.855625 523.73605469 -57.71125 524.47210937 -57.5625 525.23046875 C-57.376875 526.20628906 -57.19125 527.18210937 -57 528.1875 C-56.814375 529.15042969 -56.62875 530.11335937 -56.4375 531.10546875 C-56.03122388 533.7934206 -55.92066428 536.28771019 -56 539 C-58.16567544 539.48362696 -60.33259741 539.96167317 -62.5 540.4375 C-64.30984375 540.83775391 -64.30984375 540.83775391 -66.15625 541.24609375 C-88.66661145 545.66123578 -113.97212771 544.2936778 -136 538 C-135.67 528.76 -135.34 519.52 -135 510 C-135.99 510.33 -136.98 510.66 -138 511 C-143.24262952 511.39567015 -146.54355112 510.83592201 -151 508 C-154.41943167 504.21930159 -154.93930268 500.34950499 -155.86328125 495.4609375 C-156.79236751 492.71865899 -156.79236751 492.71865899 -159.7734375 491.8515625 C-161.37058594 491.43003906 -161.37058594 491.43003906 -163 491 C-174.86373119 484.90360091 -182.3849994 476.41048742 -187.90625 464.37109375 C-188.79099516 462.09370436 -188.79099516 462.09370436 -190 461 C-190.825 461.33 -191.65 461.66 -192.5 462 C-196.5873983 463.16782809 -199.76923344 463.1458885 -204 463 C-205.69301957 459.30377009 -206.2561702 456.4069961 -206.265625 452.3515625 C-206.27203003 450.73145264 -206.27203003 450.73145264 -206.27856445 449.07861328 C-206.26913818 447.9389209 -206.25971191 446.79922852 -206.25 445.625 C-206.23876099 443.86325439 -206.23876099 443.86325439 -206.22729492 442.06591797 C-206.05440753 428.08232238 -203.75109032 415.31189551 -200.23046875 401.8125 C-199.16395683 397.70517391 -198.23610331 393.5926652 -197.375 389.4375 C-196.15323765 383.55209622 -194.66194056 377.77553812 -193 372 C-194.1446875 371.2575 -194.1446875 371.2575 -195.3125 370.5 C-202.4591879 365.7355414 -209.34038172 360.55772418 -216.1484375 355.32421875 C-218.04843189 353.91905606 -218.04843189 353.91905606 -220.4140625 352.61328125 C-224.20446472 350.24857412 -227.25061425 347.20254914 -230.5 344.15625 C-232.89808627 341.96192443 -232.89808627 341.96192443 -235.5234375 340.49609375 C-238.31379411 338.81043668 -240.34416786 336.88644065 -242.625 334.5625 C-243.75808594 333.41974609 -243.75808594 333.41974609 -244.9140625 332.25390625 C-250 326.75842697 -250 326.75842697 -250 324 C-250.60448975 323.7517749 -251.20897949 323.5035498 -251.83178711 323.24780273 C-254.36886129 321.78772097 -255.21690692 320.5423415 -256.69140625 318.03515625 C-257.15981934 317.24117432 -257.62823242 316.44719238 -258.11083984 315.62915039 C-258.5898877 314.78215576 -259.06893555 313.93516113 -259.5625 313.0625 C-260.3042749 311.75817017 -260.3042749 311.75817017 -261.06103516 310.42749023 C-264.43564764 304.34444172 -266.65192586 298.82790797 -268 292 C-268.37977399 290.48228757 -268.76872143 288.96685706 -269.1640625 287.453125 C-272.63563547 274.15013959 -275.91572969 260.804451 -276.7890625 247.0390625 C-276.88555444 244.93488787 -276.88555444 244.93488787 -278 243 C-278.51879507 238.13944009 -278.76714645 233.25381835 -279.0625 228.375 C-279.10669067 227.65237976 -279.15088135 226.92975952 -279.19641113 226.1852417 C-282.32320391 174.17318687 -282.32320391 174.17318687 -275.68359375 150.7109375 C-274.96118261 147.84606134 -274.61453474 145.00668293 -274.27514648 142.07519531 C-270.92415472 116.80152187 -260.53772114 90.9936915 -248 69 C-247.66347412 68.40276123 -247.32694824 67.80552246 -246.98022461 67.19018555 C-243.52547534 61.08158672 -239.87800693 55.09934396 -235.3125 49.75 C-233.00566991 47.16819086 -233.00566991 47.16819086 -231.625 44.625 C-228.13237707 38.98307065 -223.48394804 33.76042151 -218 30 C-217.34 30 -216.68 30 -216 30 C-215.67 29.01 -215.34 28.02 -215 27 C-202.67891508 14.30441402 -183.45443747 10.2146213 -166.6640625 8.625 C-161.50029183 7.74418624 -157.56257561 5.82178136 -153.75 2.25 C-143.10157308 -7.163489 -131.52346218 -13.71604833 -117.51953125 -16.45703125 C-115.07333377 -16.74590846 -115.07333377 -16.74590846 -114 -18 C-75.88787848 -22.37883949 -34.63912434 -16.9453741 0 0 Z " fill="#1D1C1A" transform="translate(502,208)"/>
<path d="M0 0 C0.64509521 0.44335693 1.29019043 0.88671387 1.95483398 1.34350586 C3.7265625 2.64453125 3.7265625 2.64453125 6.375 5.1875 C6.7734375 8.01171875 6.7734375 8.01171875 6.375 10.1875 C7.20644531 10.04828125 8.03789062 9.9090625 8.89453125 9.765625 C14.08020137 10.39419108 16.46087843 13.34194396 20.0625 16.9375 C20.76511963 17.6183667 21.46773926 18.2992334 22.19165039 19.00073242 C28.16890344 24.84547637 33.83683233 30.92734545 39.375 37.1875 C40.95753244 38.93822429 42.54083026 40.68825711 44.125 42.4375 C44.85589844 43.25476563 45.58679688 44.07203125 46.33984375 44.9140625 C47.573194 46.29181652 48.81348658 47.66345541 50.06640625 49.0234375 C61.08136334 61.1797034 75.6382552 77.88615701 77.69140625 94.79296875 C77.29026439 97.82877077 76.26218477 99.15609326 74.3125 101.5 C73.66796875 102.27730469 73.0234375 103.05460937 72.359375 103.85546875 C71.70453125 104.62503906 71.0496875 105.39460938 70.375 106.1875 C69.82328125 106.88488281 69.2715625 107.58226562 68.703125 108.30078125 C61.56833818 117.0493889 51.38986889 123.17244389 41.375 128.1875 C40.385 128.1875 39.395 128.1875 38.375 128.1875 C38.375 128.8475 38.375 129.5075 38.375 130.1875 C34.96680257 131.65677348 31.55883138 133.11268747 28.12109375 134.51171875 C15.40797175 139.75006536 3.72637822 145.99229666 -6.625 155.1875 C-7.33269531 155.81269531 -8.04039062 156.43789063 -8.76953125 157.08203125 C-26.55677773 173.78095672 -33.43111 197.83193911 -34.18261719 221.4230957 C-34.250395 223.51217475 -34.32801198 225.6007426 -34.40625 227.68945312 C-34.45007813 229.00494141 -34.49390625 230.32042969 -34.5390625 231.67578125 C-34.5798291 232.87759033 -34.6205957 234.07939941 -34.66259766 235.31762695 C-34.8340441 238.13229389 -34.8340441 238.13229389 -33.625 240.1875 C-33.35178965 241.85051951 -33.10684568 243.51821112 -32.875 245.1875 C-31.98266129 250.73610233 -30.68327363 256.09032243 -29.1875 261.5 C-28.9822168 262.25216797 -28.77693359 263.00433594 -28.56542969 263.77929688 C-27.24805538 268.44267821 -25.58998987 272.75958004 -23.625 277.1875 C-23.10126229 278.63747756 -22.59731014 280.09496491 -22.125 281.5625 C-21.87621094 282.32304688 -21.62742187 283.08359375 -21.37109375 283.8671875 C-20.88074402 285.39214947 -20.39366411 286.91816744 -19.91015625 288.4453125 C-18.66211389 292.31761691 -17.29028942 296.00154923 -15.5625 299.6875 C-13.54365926 304.07325747 -12.47634826 308.44907482 -11.625 313.1875 C-22.78752961 316.9083432 -37.6484981 314.74240015 -48.875 312.125 C-49.71345459 311.94565918 -50.55190918 311.76631836 -51.41577148 311.58154297 C-55.55355055 310.49561778 -57.17319973 309.91835338 -59.484375 306.1796875 C-59.90329746 304.86063388 -60.27960231 303.52768615 -60.625 302.1875 C-60.86508789 301.38481689 -61.10517578 300.58213379 -61.35253906 299.75512695 C-62.16345283 296.97356969 -62.90291132 294.18089036 -63.625 291.375 C-63.88627686 290.36542236 -64.14755371 289.35584473 -64.41674805 288.31567383 C-68.51547661 272.09340492 -70.88398252 255.93503607 -70.625 239.1875 C-71.285 239.1875 -71.945 239.1875 -72.625 239.1875 C-72.70049162 244.14555724 -72.75421778 249.10326299 -72.78979492 254.06176758 C-72.80466256 255.74021243 -72.82496277 257.41862005 -72.85131836 259.09692383 C-73.01033784 269.501787 -72.44245602 279.26175816 -70.34179688 289.46679688 C-69.33746491 294.68001863 -68.92085568 299.89270345 -68.625 305.1875 C-72.35839673 304.81778498 -75.37458841 304.09980052 -78.625 302.1875 C-81.04111154 298.08760666 -82.25247 293.72373816 -83.625 289.1875 C-84.28191517 287.63255472 -84.96595384 286.08852867 -85.6875 284.5625 C-90.25600849 274.41637473 -93.09116411 263.9907951 -95.625 253.1875 C-95.84365723 252.27274902 -96.06231445 251.35799805 -96.28759766 250.41552734 C-96.99164063 247.46639681 -97.68487257 244.51491552 -98.375 241.5625 C-98.59792725 240.62623779 -98.82085449 239.68997559 -99.05053711 238.7253418 C-100.10864141 234.1241472 -100.90952648 229.94541499 -100.625 225.1875 C-101.285 225.1875 -101.945 225.1875 -102.625 225.1875 C-105.79976156 243.12619336 -103.81510584 261.51004783 -100 279.14746094 C-99.56345323 281.52232085 -99.46638663 283.7785594 -99.625 286.1875 C-103.66170933 284.56896261 -106.43143601 281.72532654 -109.4375 278.6875 C-109.96577393 278.15576172 -110.49404785 277.62402344 -111.03833008 277.07617188 C-121.77726202 266.0396214 -121.77726202 266.0396214 -123.11328125 259.96875 C-123.28214844 259.3809375 -123.45101563 258.793125 -123.625 258.1875 C-124.615 257.8575 -125.605 257.5275 -126.625 257.1875 C-127.37695313 255.40014648 -127.37695313 255.40014648 -127.90625 253.05859375 C-128.10694092 252.1960498 -128.30763184 251.33350586 -128.5144043 250.44482422 C-128.71590088 249.51428223 -128.91739746 248.58374023 -129.125 247.625 C-129.34003174 246.67641113 -129.55506348 245.72782227 -129.77661133 244.75048828 C-131.59965844 236.59854012 -133.17584164 228.41335842 -134.625 220.1875 C-134.7796875 219.39045654 -134.934375 218.59341309 -135.09375 217.7722168 C-139.12014847 196.72775343 -139.91225423 175.43094239 -139.875 154.0625 C-139.87413391 153.12560333 -139.87326782 152.18870667 -139.87237549 151.22341919 C-139.83910934 137.31374446 -139.57035002 123.49943701 -137.25 109.75 C-137.11625977 108.94127441 -136.98251953 108.13254883 -136.84472656 107.29931641 C-136.44694058 104.92710799 -136.03726153 102.55722885 -135.625 100.1875 C-135.42132813 98.97707031 -135.21765625 97.76664062 -135.0078125 96.51953125 C-134.31170329 92.7167124 -133.50463207 88.95110399 -132.625 85.1875 C-132.42487305 84.3197998 -132.22474609 83.45209961 -132.01855469 82.55810547 C-126.70979558 60.2028373 -118.13688549 37.28533403 -103.625 19.1875 C-103.01914062 18.35476563 -102.41328125 17.52203125 -101.7890625 16.6640625 C-90.48636216 1.54610466 -73.86043648 -13.18925028 -54.66162109 -16.11132812 C-32.19068172 -19.31068282 -18.31538748 -12.98759874 0 0 Z " fill="#A39B96" transform="translate(380.625,250.8125)"/>
<path d="M0 0 C2.99815043 1.12430641 5.84499156 2.41050275 8.6875 3.875 C15.90572372 7.51809597 23.13653816 10.16519224 31 12 C32.30324219 12.46986328 32.30324219 12.46986328 33.6328125 12.94921875 C37.08157746 14.02545747 40.42329929 14.64860638 43.97900391 15.24145508 C59.98423216 17.93951302 75.85949021 22.09475906 89 32 C89.79535156 32.56589844 90.59070313 33.13179688 91.41015625 33.71484375 C93.69160902 35.39451098 95.84774227 37.15866881 98 39 C99.04607422 39.81984375 99.04607422 39.81984375 100.11328125 40.65625 C103.59803102 43.84071071 105.12753232 46.35299981 105.4296875 51.06640625 C105.50718445 55.06303487 105.30462519 59.01569589 105 63 C100.25 62.125 100.25 62.125 98 61 C87.24781575 60.12600393 78.22975746 62.12178314 69.6953125 68.8046875 C60.36117771 76.74306381 53.4140679 86.29143185 47.2890625 96.84765625 C43.33217252 103.45446346 38.80688974 106.59655513 32 110 C31.70029088 114.72564617 32.42593944 117.48924946 34.6875 121.625 C36.85232081 125.67966439 38.60421673 129.60470239 40.125 133.9375 C42.24196933 139.14744399 45.12908144 142.94936844 48.875 147.0625 C49.36887207 147.61091553 49.86274414 148.15933105 50.37158203 148.72436523 C54.71393202 153.25597533 59.09307334 155.6324956 65.4296875 156.43359375 C72.92498849 156.44209182 78.51961113 155.84520999 85 152 C86.546875 151.195625 86.546875 151.195625 88.125 150.375 C91.66142794 147.453603 93.88738169 144.16066936 96.38671875 140.33984375 C97.79237743 138.30112813 99.18620082 136.67132553 101 135 C101.6665959 151.46738767 99.35892231 162.57450897 88.3671875 174.96875 C77.2564833 186.92378442 63.61457118 194.12216156 49 201 C48.17032715 201.40637695 47.3406543 201.81275391 46.48583984 202.23144531 C39.79997745 205.42158077 33.19506974 207.52984194 26 209.25 C24.99710938 209.50523437 23.99421875 209.76046875 22.9609375 210.0234375 C12.76699263 212.52582707 2.71330239 213.15527489 -7.7578125 213.16796875 C-8.74514374 213.17129715 -9.73247498 213.17462555 -10.74972534 213.17805481 C-12.82533305 213.18308082 -14.90094871 213.18546449 -16.9765625 213.18530273 C-20.09649493 213.18748011 -23.21606776 213.20565782 -26.3359375 213.22460938 C-38.06417529 213.25724204 -49.38993312 212.69709665 -61 211 C-62.19262451 210.84474854 -63.38524902 210.68949707 -64.61401367 210.52954102 C-85.00322899 207.84585448 -85.00322899 207.84585448 -89.62890625 203.453125 C-90.79212909 201.31826897 -91.39494921 199.35861117 -92 197 C-92.32871094 195.88238281 -92.65742188 194.76476562 -92.99609375 193.61328125 C-93.70693099 191.163106 -94.3983849 188.70722391 -95.0703125 186.24609375 C-96.09608098 182.66452398 -97.4818871 179.40057289 -99 176 C-102.45859104 166.64858665 -105.68277365 157.23246835 -108.5625 147.6875 C-108.78357422 146.97916016 -109.00464844 146.27082031 -109.23242188 145.54101562 C-114.17181883 129.08133333 -114.84537149 106.69074297 -107 91 C-105 92 -103 93 -101 94 C-101.01571045 94.69448242 -101.0314209 95.38896484 -101.04760742 96.10449219 C-101.11083134 99.31957509 -101.14926391 102.53452652 -101.1875 105.75 C-101.21263672 106.84183594 -101.23777344 107.93367188 -101.26367188 109.05859375 C-101.35406873 119.24330639 -99.49263989 128.3106943 -95.3125 137.625 C-93 142.82300885 -93 142.82300885 -93 145 C-92.34 145 -91.68 145 -91 145 C-89.84375 146.46875 -89.84375 146.46875 -88.5 148.5 C-80.74323618 159.03502778 -69.83081214 164.79536449 -56.9375 166.8125 C-45.71779439 167.3467717 -35.08677474 166.59399072 -24 165 C-24 164.34 -24 163.68 -24 163 C-23.34773438 162.69707031 -22.69546875 162.39414062 -22.0234375 162.08203125 C-9.36026546 156.01192666 -1.92303953 146.61961034 4 134 C4.52583936 132.42505955 5.02650737 130.84146133 5.5 129.25 C6.75281382 125.05453045 8.91150482 123.08849518 12 120 C12.56023462 117.45108958 12.56023462 117.45108958 11 115 C6.82596075 110.84908562 1.67661073 108.25313372 -3.5 105.5625 C-10.65972732 101.79248192 -15.97139822 97.45506268 -21.1875 91.3125 C-35.7597043 74.21754507 -54.43664112 62.5992228 -75 54 C-74.34 53.67 -73.68 53.34 -73 53 C-73 52.34 -73 51.68 -73 51 C-71.9378125 50.62488281 -70.875625 50.24976563 -69.78125 49.86328125 C-68.35399117 49.34683891 -66.92691769 48.82988416 -65.5 48.3125 C-64.80390625 48.06822266 -64.1078125 47.82394531 -63.390625 47.57226562 C-58.91675723 45.93598991 -55.09994322 43.91949657 -51.11669922 41.31860352 C-48.01262923 39.3849147 -44.75685447 37.79507829 -41.48925781 36.15820312 C-27.0027483 28.87530998 -15.78334749 21.2212708 -6 8 C-5.37867188 7.18402344 -4.75734375 6.36804688 -4.1171875 5.52734375 C-2.72844208 3.69613757 -1.35582885 1.85562459 0 0 Z " fill="#D0B9B1" transform="translate(473,354)"/>
<path d="M0 0 C2.58462931 0.02357174 5.16822001 0.02054474 7.75292969 0.01391602 C21.40016144 0.03716039 34.02679577 1.79371281 47.22167969 5.33618164 C48.45402344 5.65844727 49.68636719 5.98071289 50.95605469 6.31274414 C54.7174481 7.29797249 58.46954181 8.3162635 62.22167969 9.33618164 C63.13046875 9.57079102 64.03925781 9.80540039 64.97558594 10.04711914 C70.79072892 11.63391578 75.93159394 14.03468653 81.26464844 16.83618164 C84.25322951 18.39738156 84.25322951 18.39738156 87.58105469 19.74243164 C117.56964913 32.87048586 142.20721491 57.93626433 159.22167969 85.33618164 C159.80304688 86.24883789 160.38441406 87.16149414 160.98339844 88.10180664 C163.97204724 92.88966719 166.30948539 97.63425881 168.29199219 102.91821289 C169.17044333 105.20292406 170.16854108 107.37785611 171.22167969 109.58618164 C173.28820633 114.19429852 174.55373055 118.90929563 175.88183594 123.77368164 C177.98841065 131.18217777 180.56726145 138.45271189 183.04858398 145.74194336 C187.48710059 158.86426831 189.41067737 170.60482023 189.28417969 184.46118164 C189.27966797 185.41766602 189.27515625 186.37415039 189.27050781 187.35961914 C189.25887986 189.68520922 189.24254071 192.01065924 189.22167969 194.33618164 C185.99687653 192.93490154 184.02703263 191.30834685 181.68261719 188.70336914 C181.02551758 187.98358887 180.36841797 187.26380859 179.69140625 186.5222168 C179.00014648 185.7595752 178.30888672 184.99693359 177.59667969 184.21118164 C163.59506154 169.15053882 147.0113582 156.60412442 126.22167969 153.33618164 C125.56167969 153.00618164 124.90167969 152.67618164 124.22167969 152.33618164 C122.83271876 152.09681708 121.43656633 151.89828688 120.03808594 151.72290039 C103.33821206 149.50489835 103.33821206 149.50489835 95.44433594 146.22290039 C93.01151813 145.17320146 93.01151813 145.17320146 89.40917969 144.58618164 C80.72760027 142.55928397 71.4912662 136.57578254 65.74902344 129.87915039 C64.20419193 128.17044393 64.20419193 128.17044393 61.70996094 126.96899414 C58.65885487 124.96685547 57.92660003 123.34215735 56.47167969 120.02368164 C51.30083168 109.10158431 45.01557723 99.75503899 36.68652344 90.97680664 C34.25380129 88.370594 32.01323211 85.68003047 29.78417969 82.89868164 C25.64973949 77.77636635 21.26534475 72.94484445 16.78808594 68.12524414 C14.64669754 65.79807319 12.57825339 63.43559549 10.53417969 61.02368164 C7.72387458 57.78817671 4.69935412 54.99871912 1.42871094 52.23461914 C-1.065368 50.08926982 -3.44293165 47.83842077 -5.84082031 45.58618164 C-14.95360792 37.30182927 -24.99332188 30.32692399 -35.40332031 23.77368164 C-36.06614014 23.35602539 -36.72895996 22.93836914 -37.41186523 22.50805664 C-40.77241713 20.43446049 -44.05265765 18.65657933 -47.77832031 17.33618164 C-46.49260672 13.47904085 -45.26968091 13.26988648 -41.71582031 11.46118164 C-38.2618045 9.66971656 -34.98232424 7.85351595 -31.77832031 5.64868164 C-21.98816416 -0.41362914 -11.12086656 -0.10826553 0 0 Z " fill="#CCC2BC" transform="translate(409.7783203125,205.663818359375)"/>
<path d="M0 0 C10.72379064 3.8073409 21.02359866 10.88970872 28 20 C28.66674805 22.18676758 28.66674805 22.18676758 29 24 C29.556875 24.04125 30.11375 24.0825 30.6875 24.125 C33 25 33 25 35.4375 28 C37.69095343 31.17793357 37.69095343 31.17793357 40.8125 31.875 C41.534375 31.91625 42.25625 31.9575 43 32 C43.66 30.68 44.32 29.36 45 28 C46.875 28.125 46.875 28.125 49 29 C50.69271034 32.72396275 51.37717235 35.93766833 51 40 C49.71484375 42.17578125 49.71484375 42.17578125 47.9375 44.3125 C46.97070312 45.47845703 46.97070312 45.47845703 45.984375 46.66796875 C45.32953125 47.43753906 44.6746875 48.20710938 44 49 C43.44828125 49.69738281 42.8965625 50.39476562 42.328125 51.11328125 C35.19333818 59.8618889 25.01486889 65.98494389 15 71 C14.01 71 13.02 71 12 71 C12 71.66 12 72.32 12 73 C8.59180257 74.46927348 5.18383138 75.92518747 1.74609375 77.32421875 C-10.96702825 82.56256536 -22.64862178 88.80479666 -33 98 C-34.06154297 98.93779297 -34.06154297 98.93779297 -35.14453125 99.89453125 C-52.93177773 116.59345672 -59.80611 140.64443911 -60.55761719 164.2355957 C-60.625395 166.32467475 -60.70301198 168.4132426 -60.78125 170.50195312 C-60.82507813 171.81744141 -60.86890625 173.13292969 -60.9140625 174.48828125 C-60.9548291 175.69009033 -60.9955957 176.89189941 -61.03759766 178.13012695 C-61.2090441 180.94479389 -61.2090441 180.94479389 -60 183 C-59.72678965 184.66301951 -59.48184568 186.33071112 -59.25 188 C-58.35766129 193.54860233 -57.05827363 198.90282243 -55.5625 204.3125 C-55.2545752 205.44075195 -55.2545752 205.44075195 -54.94042969 206.59179688 C-53.62305538 211.25517821 -51.96498987 215.57208004 -50 220 C-49.47626229 221.44997756 -48.97231014 222.90746491 -48.5 224.375 C-48.25121094 225.13554688 -48.00242187 225.89609375 -47.74609375 226.6796875 C-47.25574402 228.20464947 -46.76866411 229.73066744 -46.28515625 231.2578125 C-45.03711389 235.13011691 -43.66528942 238.81404923 -41.9375 242.5 C-39.90209383 246.92174443 -38.90951736 251.22503386 -38 256 C-41.63 256 -45.26 256 -49 256 C-56.38457865 241.7770992 -56.38457865 241.7770992 -58.39453125 234.96484375 C-58.99358955 232.91722135 -58.99358955 232.91722135 -59.95019531 230.67553711 C-61.61928835 226.42167884 -62.74108319 222.03107818 -63.9375 217.625 C-64.20401367 216.64708496 -64.47052734 215.66916992 -64.74511719 214.66162109 C-66.55704197 207.90737763 -68.10245344 201.16990235 -69.359375 194.2890625 C-69.81378147 191.95607321 -70.36091762 189.64029551 -70.97070312 187.34301758 C-72.06331652 182.99457294 -72.65716551 178.67889455 -73.109375 174.22265625 C-73.19346619 173.4026564 -73.27755737 172.58265656 -73.36419678 171.73780823 C-74.14938258 163.45596984 -74.30377401 155.20706604 -74.26074219 146.89282227 C-74.24998538 144.43415791 -74.26074521 141.97622126 -74.2734375 139.51757812 C-74.28211623 129.25211216 -73.58527542 119.22321879 -72.26400757 109.04483032 C-71.98558675 106.88836436 -71.72415133 104.730307 -71.46630859 102.57128906 C-71.00276662 98.71054261 -70.50705824 94.85525231 -70 91 C-69.85820312 89.86820312 -69.71640625 88.73640625 -69.5703125 87.5703125 C-68.65984214 80.90950305 -67.08774123 74.81580017 -64.99609375 68.43359375 C-63.92373587 64.73711307 -63.24829085 61.04014474 -62.625 57.25 C-61.15373218 48.4515164 -58.17773462 40.30941611 -55 32 C-54.41992188 31.98582031 -53.83984375 31.97164063 -53.2421875 31.95703125 C-46.2074299 31.52751635 -42.83983372 29.13876358 -38.21875 24.03125 C-37.00123915 22.64865293 -35.79267434 21.25812007 -34.59375 19.859375 C-31.3314416 16.05334853 -28.28279732 13.56967839 -24 11 C-23.09314453 10.07960938 -23.09314453 10.07960938 -22.16796875 9.140625 C-16.13326022 3.18202992 -8.7150926 -2.30854334 0 0 Z " fill="#CDC3BD" transform="translate(407,308)"/>
<path d="M0 0 C2.58462931 0.02357174 5.16822001 0.02054474 7.75292969 0.01391602 C21.40016144 0.03716039 34.02679577 1.79371281 47.22167969 5.33618164 C48.45402344 5.65844727 49.68636719 5.98071289 50.95605469 6.31274414 C54.7174481 7.29797249 58.46954181 8.3162635 62.22167969 9.33618164 C63.13046875 9.57079102 64.03925781 9.80540039 64.97558594 10.04711914 C70.79072892 11.63391578 75.93159394 14.03468653 81.26464844 16.83618164 C84.25322951 18.39738156 84.25322951 18.39738156 87.58105469 19.74243164 C117.56964913 32.87048586 142.20721491 57.93626433 159.22167969 85.33618164 C159.80304688 86.24883789 160.38441406 87.16149414 160.98339844 88.10180664 C163.97204724 92.88966719 166.30948539 97.63425881 168.29199219 102.91821289 C169.17044333 105.20292406 170.16854108 107.37785611 171.22167969 109.58618164 C173.28820633 114.19429852 174.55373055 118.90929563 175.88183594 123.77368164 C177.98841065 131.18217777 180.56726145 138.45271189 183.04858398 145.74194336 C188.18627762 160.93136166 189.38791707 174.4143349 189.22167969 190.33618164 C185.26184217 189.0162358 185.04045355 187.63128348 183.15917969 183.96118164 C182.55074219 182.79071289 181.94230469 181.62024414 181.31542969 180.41430664 C180.98285156 179.76526367 180.65027344 179.1162207 180.30761719 178.44750977 C178.7138448 175.3488264 177.08737917 172.26759307 175.46264648 169.18505859 C174.59246708 167.53352687 173.72414428 165.8810156 172.85766602 164.22753906 C170.57567786 159.87674676 168.24826805 155.56006087 165.84667969 151.27368164 C163.71632107 147.39169482 162.0015523 143.50041839 160.43261719 139.36352539 C158.40927769 134.30517666 156.12280003 129.3606884 153.86279297 124.40429688 C153.52231934 123.64963135 153.1818457 122.89496582 152.83105469 122.11743164 C152.52135742 121.43745117 152.21166016 120.7574707 151.89257812 120.05688477 C151.22167969 118.33618164 151.22167969 118.33618164 151.22167969 116.33618164 C150.56167969 116.33618164 149.90167969 116.33618164 149.22167969 116.33618164 C148.60292969 115.06774414 148.60292969 115.06774414 147.97167969 113.77368164 C146.1620469 110.21904581 144.2224853 106.7858465 142.22167969 103.33618164 C141.23167969 103.99618164 140.24167969 104.65618164 139.22167969 105.33618164 C137.13696289 105.56323242 137.13696289 105.56323242 134.77246094 105.53149414 C133.92490234 105.52504883 133.07734375 105.51860352 132.20410156 105.51196289 C131.32302734 105.49520508 130.44195313 105.47844727 129.53417969 105.46118164 C128.64150391 105.4521582 127.74882813 105.44313477 126.82910156 105.43383789 C124.62635655 105.41027912 122.42415381 105.37738493 120.22167969 105.33618164 C120.22167969 104.67618164 120.22167969 104.01618164 120.22167969 103.33618164 C119.50109375 103.25754883 118.78050781 103.17891602 118.03808594 103.09790039 C111.84044038 101.42169944 106.32623044 95.24971266 102.65917969 90.08618164 C101.27325734 87.43485193 100.56994795 85.29646191 100.22167969 82.33618164 C99.56167969 82.33618164 98.90167969 82.33618164 98.22167969 82.33618164 C96.45722758 77.44412669 96.23285357 74.64210448 97.21801758 69.4375 C97.82199773 65.42324735 97.87953327 62.10095948 96.22167969 58.33618164 C89.98407077 51.64663914 81.25840207 47.47638992 73.22167969 43.33618164 C72.35414063 42.88855469 71.48660156 42.44092773 70.59277344 41.97973633 C66.47756753 39.90038635 62.31773008 37.97915534 58.08007812 36.16455078 C56.06769145 35.26754238 54.11076223 34.28894565 52.14746094 33.28930664 C46.67537695 30.52107592 40.9817399 28.42507095 35.22167969 26.33618164 C33.86429688 25.83151367 33.86429688 25.83151367 32.47949219 25.31665039 C26.61039533 23.3145753 22.27011449 23.22792806 16.22167969 24.33618164 C13.86790966 24.69297483 11.5137232 25.04702904 9.15917969 25.39868164 C7.17971975 25.70931854 5.200448 26.02116907 3.22167969 26.33618164 C3.22167969 26.99618164 3.22167969 27.65618164 3.22167969 28.33618164 C5.53167969 28.33618164 7.84167969 28.33618164 10.22167969 28.33618164 C7.08066178 31.47719955 3.92975609 31.28734879 -0.40332031 31.58618164 C-3.77832031 31.33618164 -3.77832031 31.33618164 -5.65332031 30.33618164 C-7.45075565 27.14074104 -7.48034745 23.97145057 -7.77832031 20.33618164 C-19.39941148 16.28409064 -31.61177258 16.60330259 -43.77832031 16.33618164 C-43.17858416 12.77378633 -42.90137714 12.42887588 -39.78613281 10.08227539 C-38.4997859 9.2995705 -37.20507417 8.5304856 -35.90332031 7.77368164 C-35.28457031 7.38760742 -34.66582031 7.0015332 -34.02832031 6.60375977 C-23.18666768 0.16241351 -12.26424788 -0.11939674 0 0 Z " fill="#E4DFDC" transform="translate(409.7783203125,205.663818359375)"/>
<path d="M0 0 C2.99815043 1.12430641 5.84499156 2.41050275 8.6875 3.875 C15.90572372 7.51809597 23.13653816 10.16519224 31 12 C31.86882812 12.31324219 32.73765625 12.62648438 33.6328125 12.94921875 C37.08157746 14.02545747 40.42329929 14.64860638 43.97900391 15.24145508 C59.98423216 17.93951302 75.85949021 22.09475906 89 32 C89.79535156 32.56589844 90.59070313 33.13179688 91.41015625 33.71484375 C93.69160902 35.39451098 95.84774227 37.15866881 98 39 C99.04607422 39.81984375 99.04607422 39.81984375 100.11328125 40.65625 C103.59803102 43.84071071 105.12753232 46.35299981 105.4296875 51.06640625 C105.50718445 55.06303487 105.30462519 59.01569589 105 63 C100.25 62.125 100.25 62.125 98 61 C87.2171426 60.12351065 77.887014 62.04934571 69.51953125 69.0859375 C65.20885762 72.91906235 61.01159575 76.8546844 57 81 C56.45214844 80.4121875 55.90429688 79.824375 55.33984375 79.21875 C52.89069747 76.8963542 50.42985632 75.27410378 47.5625 73.5 C36.61960433 66.30704785 23.94967707 55.89935414 18 44 C18.78228 52.99622003 22.0126425 60.41350436 27.828125 67.30859375 C29 69 29 69 29 72 C27.49373047 71.29423828 27.49373047 71.29423828 25.95703125 70.57421875 C5.42173664 61.12965215 -16.32436307 58.16474338 -38 66 C-39.67189777 66.65343713 -41.34066348 67.31529237 -43 68 C-42.34 69.32 -41.68 70.64 -41 72 C-43.82642201 70.66512663 -46.27910555 69.13634413 -48.8125 67.3125 C-54.06521277 63.75252191 -59.68289197 61.21059579 -65.44921875 58.61328125 C-68.67445356 57.14791054 -71.84260849 55.60537111 -75 54 C-74.01 53.505 -74.01 53.505 -73 53 C-73 52.34 -73 51.68 -73 51 C-71.9378125 50.62488281 -70.875625 50.24976563 -69.78125 49.86328125 C-68.35399117 49.34683891 -66.92691769 48.82988416 -65.5 48.3125 C-64.45585937 47.94608398 -64.45585937 47.94608398 -63.390625 47.57226562 C-58.91675723 45.93598991 -55.09994322 43.91949657 -51.11669922 41.31860352 C-48.01262923 39.3849147 -44.75685447 37.79507829 -41.48925781 36.15820312 C-27.0027483 28.87530998 -15.78334749 21.2212708 -6 8 C-5.37867188 7.18402344 -4.75734375 6.36804688 -4.1171875 5.52734375 C-2.72844208 3.69613757 -1.35582885 1.85562459 0 0 Z " fill="#B29E97" transform="translate(473,354)"/>
<path d="M0 0 C6.00000951 3.98238517 11.33929971 9.18891816 14 16 C14.48966467 18.92165426 14.47720939 21.73260439 14.375 24.6875 C14.35993408 25.47334473 14.34486816 26.25918945 14.3293457 27.06884766 C13.81668855 45.1728631 13.81668855 45.1728631 9 50 C4.8481453 51.77685307 0.70661473 52.4515125 -3.75 53.0625 C-8.0196961 53.56294744 -8.0196961 53.56294744 -12 55 C-14.98678977 55.37172044 -17.96134119 55.69177865 -20.95703125 55.97265625 C-21.87532211 56.06029739 -22.79361298 56.14793854 -23.73973083 56.23823547 C-26.76329128 56.52134465 -29.78760677 56.79401449 -32.8125 57.0625 C-34.35822693 57.19981537 -34.35822693 57.19981537 -35.93518066 57.33990479 C-50.04555042 58.56752392 -64.08439073 59.39590128 -78.25 59.375 C-79.34013901 59.37731125 -79.34013901 59.37731125 -80.45230103 59.37966919 C-94.76931496 59.37619949 -109.01620558 58.157631 -123 55 C-122.93941406 53.73929688 -122.87882812 52.47859375 -122.81640625 51.1796875 C-122.19071234 38.12068768 -121.58808337 25.06074542 -121 12 C-120.39003174 11.85900879 -119.78006348 11.71801758 -119.15161133 11.57275391 C-116.37094196 10.92758577 -113.59172688 10.27635271 -110.8125 9.625 C-109.85279297 9.40328125 -108.89308594 9.1815625 -107.90429688 8.953125 C-106.50727539 8.62441406 -106.50727539 8.62441406 -105.08203125 8.2890625 C-104.22843018 8.09006348 -103.3748291 7.89106445 -102.49536133 7.68603516 C-99.96313351 7.04021346 -99.96313351 7.04021346 -97.47436523 5.98803711 C-78.75383447 -1.48724538 -55.65266921 2.9034194 -37.31640625 9.28125 C-32.53321431 11.4664001 -29.55563344 13.7492679 -27.3125 18.5625 C-24.40577383 28.77837256 -24.89403059 41.64136996 -27 52 C-26.36967867 50.79443396 -25.7460503 49.58536811 -25.125 48.375 C-24.77695312 47.70210937 -24.42890625 47.02921875 -24.0703125 46.3359375 C-20.50247191 38.54919051 -19.46742489 30.41461677 -21.828125 22.07421875 C-22.79039223 19.65059794 -23.82564965 17.32727095 -25 15 C-25.37382812 14.24847656 -25.74765625 13.49695313 -26.1328125 12.72265625 C-26.41898437 12.15417969 -26.70515625 11.58570313 -27 11 C-25.13238675 9.53129443 -23.25682812 8.07529779 -21.375 6.625 C-20.85292969 6.2125 -20.33085937 5.8 -19.79296875 5.375 C-14.07368006 0.99727285 -7.20677797 -1.89105854 0 0 Z " fill="#A49D99" transform="translate(515,584)"/>
<path d="M0 0 C1.72264841 0.32797754 3.42894043 0.74200169 5.125 1.1875 C6.2078125 1.46851563 7.290625 1.74953125 8.40625 2.0390625 C10.86561483 2.69667527 13.32390177 3.35832879 15.78125 4.0234375 C24.02625212 6.2647477 24.02625212 6.2647477 32.375 8.0625 C36.27393849 8.78952978 39.87422303 9.9259528 43.60888672 11.24462891 C45.90911144 11.9712876 48.1272757 12.44800134 50.5 12.87109375 C56.61418398 14.05670397 62.53409668 15.78954466 68.5 17.5625 C69.5828125 17.87896484 70.665625 18.19542969 71.78125 18.52148438 C79.712481 20.8562405 79.712481 20.8562405 82 22 C80.90939559 31.40646304 74.50583464 38.33702719 67.47265625 44.30859375 C63.31371117 47.15349615 58.82420722 48.65529972 54 50 C53.40058594 50.19078125 52.80117188 50.3815625 52.18359375 50.578125 C42.23421074 52.50036716 31.94714339 51.76247163 23 47 C21.96875 46.566875 20.9375 46.13375 19.875 45.6875 C10.47328172 40.16910014 4.67075147 32.20532199 1 22 C-0.71333433 15.11493427 -1.62764527 8.09385116 -1 1 C-0.67 0.67 -0.34 0.34 0 0 Z " fill="#D5C9C5" transform="translate(384,459)"/>
<path d="M0 0 C2 1 4 2 6 3 C5.98428955 3.69448242 5.9685791 4.38896484 5.95239258 5.10449219 C5.88916866 8.31957509 5.85073609 11.53452652 5.8125 14.75 C5.78736328 15.84183594 5.76222656 16.93367188 5.73632812 18.05859375 C5.64593127 28.24330639 7.50736011 37.3106943 11.6875 46.625 C14 51.82300885 14 51.82300885 14 54 C14.66 54 15.32 54 16 54 C19.89852861 58.67580535 21.35517037 62.98159011 22 69 C23.7160642 75.4651721 27.1295344 80.6191088 31 86 C31.73089844 87.04027344 31.73089844 87.04027344 32.4765625 88.1015625 C40.00331875 98.52632115 49.81424137 107.48675606 62 112 C62.61488281 112.30292969 63.22976563 112.60585938 63.86328125 112.91796875 C78.58710808 120.15510397 93.90582619 120.75461039 110 121 C110 121.33 110 121.66 110 122 C103.61779289 122.05143602 97.23564073 122.08603602 90.85327148 122.10986328 C88.68983971 122.11981452 86.526421 122.13338034 84.36303711 122.15087891 C71.39103407 122.25304432 58.84407994 121.89845691 46 120 C44.80826172 119.84466797 43.61652344 119.68933594 42.38867188 119.52929688 C22.0008824 116.84975883 22.0008824 116.84975883 17.37109375 112.453125 C16.20787091 110.31826897 15.60505079 108.35861117 15 106 C14.67128906 104.88238281 14.34257812 103.76476562 14.00390625 102.61328125 C13.29306901 100.163106 12.6016151 97.70722391 11.9296875 95.24609375 C10.90391902 91.66452398 9.5181129 88.40057289 8 85 C4.54140896 75.64858665 1.31722635 66.23246835 -1.5625 56.6875 C-1.78357422 55.97916016 -2.00464844 55.27082031 -2.23242188 54.54101562 C-7.17181883 38.08133333 -7.84537149 15.69074297 0 0 Z " fill="#B09D96" transform="translate(366,445)"/>
<path d="M0 0 C6.00000951 3.98238517 11.33929971 9.18891816 14 16 C14.48966467 18.92165426 14.47720939 21.73260439 14.375 24.6875 C14.35993408 25.47334473 14.34486816 26.25918945 14.3293457 27.06884766 C13.81668855 45.1728631 13.81668855 45.1728631 9 50 C4.8481453 51.77685307 0.70661473 52.4515125 -3.75 53.0625 C-8.0196961 53.56294744 -8.0196961 53.56294744 -12 55 C-14.87910588 55.23274209 -17.74146495 55.41972757 -20.625 55.5625 C-21.42679687 55.60568359 -22.22859375 55.64886719 -23.0546875 55.69335938 C-25.0362511 55.79951457 -27.01810271 55.90026855 -29 56 C-29 54.35 -29 52.7 -29 51 C-28.34 51.33 -27.68 51.66 -27 52 C-26.36967867 50.79443396 -25.7460503 49.58536811 -25.125 48.375 C-24.77695312 47.70210937 -24.42890625 47.02921875 -24.0703125 46.3359375 C-20.50247191 38.54919051 -19.46742489 30.41461677 -21.828125 22.07421875 C-22.79039223 19.65059794 -23.82564965 17.32727095 -25 15 C-25.37382812 14.24847656 -25.74765625 13.49695313 -26.1328125 12.72265625 C-26.41898437 12.15417969 -26.70515625 11.58570313 -27 11 C-25.13238675 9.53129443 -23.25682812 8.07529779 -21.375 6.625 C-20.85292969 6.2125 -20.33085937 5.8 -19.79296875 5.375 C-14.07368006 0.99727285 -7.20677797 -1.89105854 0 0 Z " fill="#A29B97" transform="translate(515,584)"/>
<path d="M0 0 C3.71506099 0.66437222 7.17974739 1.65658046 10.75 2.875 C11.81089844 3.23207031 12.87179687 3.58914063 13.96484375 3.95703125 C15.73301933 4.56462827 17.49797242 5.18210083 19.25390625 5.82421875 C23.38127261 7.30443173 27.26695904 8.19449533 31.61938477 8.81811523 C37.65649428 9.74187015 41.51830958 10.57554818 45.375 15.5 C47.02106649 18.03240998 48.0412975 20.12389251 49 23 C49.66 23 50.32 23 51 23 C51 25.97 51 28.94 51 32 C47.09142602 31.44064577 44.59544795 30.32566703 41.375 28.0625 C40.61960937 27.53785156 39.86421875 27.01320313 39.0859375 26.47265625 C38.39757812 25.98667969 37.70921875 25.50070312 37 25 C36.01 24.34 35.02 23.68 34 23 C35.24542058 24.75326198 36.49654053 26.50247622 37.75 28.25 C38.44609375 29.22453125 39.1421875 30.1990625 39.859375 31.203125 C41.76452299 33.69233296 43.72684621 35.84971939 46 38 C45.25 39.9375 45.25 39.9375 44 42 C42.10595703 42.78027344 42.10595703 42.78027344 40 43 C37.74381502 41.14478158 35.85316939 39.36774826 33.875 37.25 C33.33746094 36.69828125 32.79992187 36.1465625 32.24609375 35.578125 C29.91158707 33.15629263 27.86936432 30.80404647 26 28 C26.19335938 28.58007812 26.38671875 29.16015625 26.5859375 29.7578125 C28.05729167 34.171875 29.52864583 38.5859375 31 43 C20.79214598 42.1493455 11.17514757 36.41383362 4.13671875 29.05078125 C-0.34219219 23.39379447 -3.47771729 17.72934666 -2.8125 10.375 C-2.25044021 6.77157223 -1.31162278 3.41021922 0 0 Z " fill="#B09D96" transform="translate(329,649)"/>
<path d="M0 0 C5.3035228 2.70179463 9.09832298 6.29496895 11 12 C11.09417014 13.87185357 11.13071153 15.74687408 11.1328125 17.62109375 C11.13410156 18.72130859 11.13539063 19.82152344 11.13671875 20.95507812 C11.13285156 22.10427734 11.12898438 23.25347656 11.125 24.4375 C11.13080078 26.15549805 11.13080078 26.15549805 11.13671875 27.90820312 C11.13542969 29.00970703 11.13414062 30.11121094 11.1328125 31.24609375 C11.13168457 32.25341553 11.13055664 33.2607373 11.12939453 34.29858398 C11.01454555 36.69632739 10.68646802 38.70984178 10 41 C-1.53096803 41.6818575 -10.24807825 40.30809123 -21 36 C-22.04285156 35.59652344 -23.08570313 35.19304688 -24.16015625 34.77734375 C-26.45240965 33.87785191 -28.73076955 32.95574647 -31 32 C-27.43256744 20.15836521 -21.43623473 8.06045478 -11 1 C-7.52629893 -0.73685053 -3.79809188 -0.46115112 0 0 Z " fill="#A19A96" transform="translate(371,584)"/>
<path d="M0 0 C0.71560569 13.22545323 -1.66173121 24.47493577 -10 35 C-11.9241563 37.01267681 -13.68650815 38.39061436 -16 40 C-16.78375 40.598125 -17.5675 41.19625 -18.375 41.8125 C-23.10792261 43.95358404 -27.2758147 43.56299928 -32.0625 42 C-39.20359057 37.13798089 -42.97361054 31.33714521 -45 23 C-45.66 23 -46.32 23 -47 23 C-47.33 21.02 -47.66 19.04 -48 17 C-32.50708696 11.06040927 -32.50708696 11.06040927 -24.49609375 8.77734375 C-19.2305491 7.13752625 -14.13003502 5.01676949 -9 3 C-1.19762846 0 -1.19762846 0 0 0 Z " fill="#D3C7C3" transform="translate(568,456)"/>
<path d="M0 0 C9.82008869 0.96275379 19.31666136 3.38551294 28.72265625 6.3125 C30.88703409 6.96589708 33.0529369 7.53088549 35.25 8.0625 C36.4875 8.371875 37.725 8.68125 39 9 C40.6396875 9.37125 40.6396875 9.37125 42.3125 9.75 C45 11 45 11 46.5 14.0625 C47.71982492 17.2766918 47.71982492 17.2766918 50.9375 18.0625 C54.00552497 18.31322682 54.00552497 18.31322682 55.875 16.48046875 C58.5794184 14.59632431 59.84606064 14.80367659 63.0625 15.25 C63.91972656 15.35828125 64.77695312 15.4665625 65.66015625 15.578125 C68 16 68 16 71 17 C70.44724421 20.70671533 69.14216622 22.17782274 66.25 24.5 C55.75383824 32.17408053 43.56949122 33.24952619 31 32 C27.38948351 31.06545975 24.28288911 29.74744783 21 28 C19.453125 27.3503125 19.453125 27.3503125 17.875 26.6875 C9.25270294 21.62658651 4.56337064 15.35847167 1 6 C0.61034174 4.01020666 0.25994711 2.01085519 0 0 Z " fill="#FAECE7" transform="translate(386,478)"/>
<path d="M0 0 C14.97961637 2.44565165 29.50996482 12.36447682 41.53515625 21.21484375 C45.51136204 24.09459977 49.63252345 26.7583244 53.73779297 29.44970703 C57.30769294 31.80790148 60.70033798 34.26599432 64 37 C55.3789297 35.9647576 47.28410566 33.74529585 38.97241211 31.31176758 C31.84051448 29.22535177 24.68324522 27.38393465 17.46679688 25.60986328 C12.01392688 24.26175666 6.56836483 22.88593681 1.125 21.5 C-0.01662598 21.21519775 -1.15825195 20.93039551 -2.33447266 20.63696289 C-9.12980533 18.89870271 -15.567451 16.80229857 -22 14 C-18.77837758 1.11351031 -12.85207381 -1.74265408 0 0 Z " fill="#7A6D68" transform="translate(392,423)"/>
<path d="M0 0 C-1.0828125 0.4640625 -1.0828125 0.4640625 -2.1875 0.9375 C-5.18088218 3.13264693 -5.8157148 4.36656017 -7.375 7.625 C-8.6015625 10.04296875 -8.6015625 10.04296875 -10 12 C-13.75 12.9375 -13.75 12.9375 -17 13 C-18.4783226 15.95664519 -18.06032783 18.74229737 -18 22 C-16.39125 22.185625 -16.39125 22.185625 -14.75 22.375 C-12.80078125 22.921875 -12.80078125 22.921875 -11 24 C-9.69059935 26.37747832 -8.888949 28.76777285 -8.015625 31.3359375 C-4.98645874 39.28167362 1.52198113 45.13406792 8.5390625 49.625 C13.31892389 51.52399685 17.77448549 51.56655284 22.875 51.6875 C23.84953125 51.72166016 24.8240625 51.75582031 25.828125 51.79101562 C28.21863491 51.87304293 30.60879905 51.94233848 33 52 C33 52.33 33 52.66 33 53 C28.06023556 53.05039785 23.12062893 53.08617722 18.18066406 53.10986328 C16.50908799 53.11976371 14.83752845 53.13328753 13.16601562 53.15087891 C-2.1218146 53.30744102 -17.04860486 52.37612148 -32 49 C-31.93941406 47.73929688 -31.87882812 46.47859375 -31.81640625 45.1796875 C-31.19071234 32.12068768 -30.58808337 19.06074542 -30 6 C-29.39003174 5.85900879 -28.78006348 5.71801758 -28.15161133 5.57275391 C-25.37094196 4.92758577 -22.59172688 4.27635271 -19.8125 3.625 C-18.85279297 3.40328125 -17.89308594 3.1815625 -16.90429688 2.953125 C-15.50727539 2.62441406 -15.50727539 2.62441406 -14.08203125 2.2890625 C-13.22843018 2.09006348 -12.3748291 1.89106445 -11.49536133 1.68603516 C-8.93388927 1.03687244 -8.93388927 1.03687244 -6.3269043 -0.10400391 C-3.70125016 -1.1150364 -2.59306184 -0.96039327 0 0 Z " fill="#8A827D" transform="translate(424,590)"/>
<path d="M0 0 C9.03143281 2.54602804 17.55031461 9.10325708 25.16015625 14.47265625 C25.82063965 14.92366699 26.48112305 15.37467773 27.16162109 15.83935547 C28.99609375 17.171875 28.99609375 17.171875 31.78515625 19.78515625 C32.19921875 22.6171875 32.19921875 22.6171875 31.78515625 24.78515625 C32.61660156 24.6459375 33.44804687 24.50671875 34.3046875 24.36328125 C39.49035762 24.99184733 41.87103468 27.93960021 45.47265625 31.53515625 C46.17527588 32.21602295 46.87789551 32.89688965 47.60180664 33.59838867 C53.57905969 39.44313262 59.24698858 45.5250017 64.78515625 51.78515625 C66.36768869 53.53588054 67.95098651 55.28591336 69.53515625 57.03515625 C70.95307844 58.61736532 72.36982464 60.2006294 73.78515625 61.78515625 C74.41292969 62.48382813 75.04070312 63.1825 75.6875 63.90234375 C86.75001521 76.3446475 86.75001521 76.3446475 87.78515625 81.78515625 C85.72265625 82.72265625 85.72265625 82.72265625 82.78515625 82.78515625 C79.55409032 80.40598657 77.04231261 77.28061395 74.47143555 74.22241211 C69.02488004 67.83921474 63.10062539 61.94933122 57.16088867 56.03051758 C55.35154692 54.2265354 53.54761306 52.4172696 51.74414062 50.60742188 C45.92660618 44.78653254 40.07797292 39.09707121 33.78515625 33.78515625 C32.34573789 32.49562773 30.90783299 31.20440381 29.47265625 29.91015625 C24.37740733 25.37220018 19.11675334 21.04203771 13.78515625 16.78515625 C13.12 16.24503906 12.45484375 15.70492187 11.76953125 15.1484375 C9.53770421 13.61515475 7.3847126 12.72335891 4.84765625 11.78515625 C-2.59056421 8.88457988 -2.59056421 8.88457988 -5.21484375 6.78515625 C-5.21484375 2.78515625 -5.21484375 2.78515625 -4.02734375 0.97265625 C-2.21484375 -0.21484375 -2.21484375 -0.21484375 0 0 Z " fill="#C7BDB7" transform="translate(355.21484375,236.21484375)"/>
<path d="M0 0 C0.66 0 1.32 0 2 0 C0.44520598 8.05990923 -6.63795855 14.32604623 -13 19 C-15.52667341 20.68562786 -18.09444999 22.29368825 -20.6875 23.875 C-21.32937256 24.26872803 -21.97124512 24.66245605 -22.63256836 25.06811523 C-26.05749387 27.09405857 -29.02895461 28.5292451 -33 29 C-33 29.66 -33 30.32 -33 31 C-36.40819743 32.46927348 -39.81616862 33.92518747 -43.25390625 35.32421875 C-55.96702825 40.56256536 -67.64862178 46.80479666 -78 56 C-78.70769531 56.62519531 -79.41539062 57.25039063 -80.14453125 57.89453125 C-97.68221853 74.35916692 -104.71934833 98.1471629 -105.5625 121.4375 C-105.60568359 122.55060547 -105.64886719 123.66371094 -105.69335938 124.81054688 C-105.79879888 127.54025844 -105.90092029 130.27005143 -106 133 C-106.66 133 -107.32 133 -108 133 C-108.495 133.99 -108.495 133.99 -109 135 C-115.0046986 116.98590421 -107.65295963 91.36411158 -100.46875 74.87109375 C-97.87519189 69.80123947 -94.57897055 65.4118946 -91 61 C-90.33226562 60.16726563 -89.66453125 59.33453125 -88.9765625 58.4765625 C-78.34934158 45.9530345 -65.94295464 38.36880132 -51 32 C-49.33231974 31.25225652 -47.66541353 30.50277854 -46 29.75 C-43.98918658 28.8652421 -41.97505856 27.98926993 -39.95703125 27.12109375 C-37.62571567 26.10618588 -35.31211349 25.05796708 -33 24 C-31.90171875 23.50757813 -30.8034375 23.01515625 -29.671875 22.5078125 C-21.58709577 18.71041619 -15.39495718 14.27346404 -9 8 C-7.48832667 6.65629038 -5.96815208 5.32204993 -4.4375 4 C-2.17115131 2.05096207 -2.17115131 2.05096207 0 0 Z " fill="#DFDAD7" transform="translate(452,350)"/>
<path d="M0 0 C1.40454548 6.11980533 2.23268915 11.71739294 2 18 C-13.27444011 21.21074966 -28.47000704 21.14449607 -44 21 C-45.00926479 16.84373632 -45.10239579 12.95634906 -45.0625 8.6875 C-45.05347656 7.43324219 -45.04445313 6.17898438 -45.03515625 4.88671875 C-45.01775391 3.45779297 -45.01775391 3.45779297 -45 2 C-43.66207397 1.91697632 -43.66207397 1.91697632 -42.29711914 1.83227539 C-38.94788505 1.62339656 -35.59878587 1.41255599 -32.24975586 1.20043945 C-30.80774699 1.10949906 -29.36569037 1.01931228 -27.92358398 0.92993164 C-25.83563922 0.80038498 -23.74786042 0.66852181 -21.66015625 0.53515625 C-20.98433502 0.49226471 -20.30851379 0.44937317 -19.61221313 0.40518188 C-15.99258222 0.16557416 -12.40587755 -0.16423534 -8.80859375 -0.62890625 C-5.4896498 -0.95229053 -3.17236615 -0.92100953 0 0 Z " fill="#78706C" transform="translate(501,667)"/>
<path d="M0 0 C1.44246094 0.18175781 1.44246094 0.18175781 2.9140625 0.3671875 C21.08747895 2.50508181 39.11760389 3.5935956 57.4140625 3.8671875 C59.57813808 3.90551847 61.74220088 3.9445779 63.90625 3.984375 C69.11707938 4.07866169 74.32797878 4.16326085 79.5390625 4.2421875 C79.2578125 6.625 79.2578125 6.625 78.5390625 9.2421875 C76.67631494 10.24008798 74.80018603 11.22140111 72.86328125 12.06640625 C69.4156259 13.81051425 66.64212166 16.25474942 63.71484375 18.75390625 C61.25974864 20.4332442 59.48834971 20.96964611 56.5390625 21.2421875 C54.83087847 20.3148876 53.17283892 19.29506564 51.5390625 18.2421875 C49.96574052 17.59239723 48.38097589 16.9699986 46.7890625 16.3671875 C43.21505813 15.01171325 40.1850794 13.43502326 36.9765625 11.3671875 C33.76996779 9.55086462 31.86900802 8.90966211 28.2265625 9.6171875 C23.42755819 11.05941902 18.86521844 13.18956136 14.3359375 15.31640625 C11.07870267 16.39456917 9.75763036 16.36967964 6.5390625 15.2421875 C3.4609375 13.5 3.4609375 13.5 0.2890625 11.3671875 C-0.76796875 10.66851563 -1.825 9.96984375 -2.9140625 9.25 C-5.4609375 7.2421875 -5.4609375 7.2421875 -6.4609375 4.2421875 C-3.20657985 0.31556818 -3.20657985 0.31556818 0 0 Z " fill="#9E9793" transform="translate(387.4609375,694.7578125)"/>
<path d="M0 0 C4.98046512 -0.02487171 9.96089342 -0.04294081 14.94140625 -0.05493164 C16.63281891 -0.05993487 18.32422731 -0.06673952 20.015625 -0.07543945 C22.45834411 -0.08768185 24.90100562 -0.09326855 27.34375 -0.09765625 C28.08991577 -0.10281754 28.83608154 -0.10797882 29.6048584 -0.11329651 C30.32500122 -0.11337204 31.04514404 -0.11344757 31.78710938 -0.11352539 C32.40888062 -0.115746 33.03065186 -0.11796661 33.67126465 -0.12025452 C37.1297595 0.05834011 40.56363947 0.57045493 44 1 C44 7.27 44 13.54 44 20 C39.8411763 20.04649617 35.68329293 20.08613622 31.52441406 20.10986328 C30.11650499 20.11977813 28.70861567 20.13331412 27.30078125 20.15087891 C17.65009097 20.26806586 8.53678334 19.66093203 -1 18 C-1.09691453 11.89438434 -0.73264101 6.05853644 0 0 Z " fill="#79716D" transform="translate(402,668)"/>
<path d="M0 0 C0 1.65 0 3.3 0 5 C-1.74816858 5.50636607 -3.49862263 6.00484619 -5.25 6.5 C-6.22453125 6.7784375 -7.1990625 7.056875 -8.203125 7.34375 C-11 8 -11 8 -15 8 C-15 8.66 -15 9.32 -15 10 C-35.11595423 13.03302207 -54.96428085 14.40313577 -75.3125 14.375 C-76.83651932 14.37717529 -76.83651932 14.37717529 -78.3913269 14.37939453 C-91.8661859 14.37721768 -105.18922274 13.74865114 -118.58432007 12.24835205 C-120.23825035 12.07831422 -121.89665317 11.94834555 -123.55654907 11.85272217 C-124.76859512 11.7697287 -124.76859512 11.7697287 -126.00512695 11.68505859 C-127.08682915 11.62951309 -127.08682915 11.62951309 -128.19038391 11.57284546 C-130 11 -130 11 -131.24967957 9.14468384 C-132 7 -132 7 -132 4 C-130.04682861 4.21221191 -130.04682861 4.21221191 -128.05419922 4.42871094 C-112.73984636 5.98356567 -97.53454265 6.31363833 -82.14892578 6.26074219 C-79.46979893 6.25163891 -76.79094314 6.25160787 -74.11181641 6.26074219 C-60.4659166 6.30406779 -46.87950017 6.18481272 -33.26953125 5.1171875 C-32.29287506 5.04075012 -31.31621887 4.96431274 -30.30996704 4.88555908 C-21.97705839 4.14842098 -13.8505257 2.61991154 -5.69140625 0.8046875 C-2 0 -2 0 0 0 Z " fill="#97908D" transform="translate(524,645)"/>
<path d="M0 0 C10.73622829 0.72915836 21.37495883 2.34118626 32 4 C32.7130127 4.11069824 33.42602539 4.22139648 34.16064453 4.33544922 C43.6603692 5.8649261 52.28303819 8.65372993 61.15136719 12.26220703 C62.84952557 12.93994536 64.56865951 13.56449386 66.2890625 14.18359375 C74.14385107 17.11645408 79.79529556 21.42658816 86 27 C86.94875 27.81726563 87.8975 28.63453125 88.875 29.4765625 C95.85463952 35.56391856 95.85463952 35.56391856 97 39 C93.27849773 38.76740611 91.18922776 37.52064822 88.35546875 35.26953125 C84.1914303 32.07973142 79.88611574 29.3737049 75.3125 26.8125 C74.53519531 26.37687744 73.75789062 25.94125488 72.95703125 25.49243164 C66.4031486 21.95611071 60.35139964 20.2292113 53 19 C52.34 18.67 51.68 18.34 51 18 C49.61103908 17.76063544 48.21488665 17.56210524 46.81640625 17.38671875 C30.13879217 15.17167315 30.13879217 15.17167315 22.234375 11.89453125 C20.13978837 11.05596422 18.20655769 10.56189842 16 10.125 C10.59629413 8.87799095 5.54060397 6.13612893 1 3 C0.67 2.01 0.34 1.02 0 0 Z " fill="#DDD8D5" transform="translate(483,340)"/>
<path d="M0 0 C2.82732122 0 3.5820631 1.09245816 5.58984375 3.046875 C10.6746965 9.04581412 9.83564493 15.78757445 9.5625 23.25 C9.54449031 24.60543181 9.52949711 25.96090719 9.51757812 27.31640625 C9.39627285 35.36382287 8.57086878 43.10972871 7 51 C6.68289063 52.76150391 6.68289063 52.76150391 6.359375 54.55859375 C4.63821344 62.6899788 1.74622933 69.59240738 -2 77 C-2.33 77 -2.66 77 -3 77 C-3.32056275 51.15442299 -3.51866813 25.65695509 0 0 Z " fill="#9B938F" transform="translate(593,420)"/>
<path d="M0 0 C7.08140908 0.61726568 13.58137595 2.4594543 20.375 4.5 C21.46683594 4.82097656 22.55867188 5.14195312 23.68359375 5.47265625 C31.68422302 7.84211151 31.68422302 7.84211151 34 9 C33.50506533 13.75416122 32.27876594 16.55220583 29.4375 20.375 C28.47650391 21.68597656 28.47650391 21.68597656 27.49609375 23.0234375 C27.00238281 23.67570312 26.50867188 24.32796875 26 25 C25.67 24.34 25.34 23.68 25 23 C22.0948662 22.41282131 22.0948662 22.41282131 18.6875 22.1875 C17.53636719 22.07792969 16.38523437 21.96835937 15.19921875 21.85546875 C11.6153898 22.01737555 10.6449713 22.72871118 8 25 C5 25.125 5 25.125 2 24 C-2.78754159 18.58251872 -2.41115317 13.11947498 -2.3359375 6.109375 C-2 3 -2 3 0 0 Z " fill="#92BCD6" transform="translate(432,472)"/>
<path d="M0 0 C1.32066186 3.96198558 0.30447909 5.44910546 -1.1875 9.3125 C-4.40518381 17.8802439 -6.94493341 26.61073622 -9.125 35.5 C-10 39 -10 39 -11 41.875 C-12.14662341 45.45819815 -12.84836917 49.03544072 -13.53515625 52.73046875 C-14 55 -14 55 -15 58 C-17.79397963 74.13086674 -17.63248997 90.67568255 -18 107 C-23.57798395 101.42201605 -22.22375715 89.59704108 -22.23342896 82.07177734 C-22.22751908 80.50551795 -22.21827943 78.93926779 -22.20581055 77.37304688 C-22.18752929 75.00379623 -22.18530191 72.63493904 -22.18554688 70.265625 C-22.13300841 46.80727912 -22.13300841 46.80727912 -18.74584961 38.90795898 C-17.94917205 36.86997694 -17.5336672 34.93380059 -17.12890625 32.78515625 C-16.11557433 28.07597362 -14.46068055 23.95319055 -12.375 19.625 C-12.02888672 18.89547119 -11.68277344 18.16594238 -11.32617188 17.41430664 C-8.21688112 11.06056903 -4.46554614 5.49879751 0 0 Z " fill="#262422" transform="translate(341,357)"/>
<path d="M0 0 C0.7940625 -0.01417969 1.588125 -0.02835938 2.40625 -0.04296875 C4.5 0.1875 4.5 0.1875 6.5 2.1875 C6.04874756 2.60845947 5.59749512 3.02941895 5.13256836 3.46313477 C2.45123859 6.29523169 0.86668534 9.69161469 -0.9375 13.125 C-1.53582642 14.26038208 -1.53582642 14.26038208 -2.14624023 15.41870117 C-5.8535708 22.61045079 -9.5 29.97417053 -9.5 38.1875 C-15.22210596 36.31986819 -20.87661751 34.33460968 -26.5 32.1875 C-22.93256744 20.34586521 -16.93623473 8.24795478 -6.5 1.1875 C-4.14653604 0.01076802 -2.6193967 0.02126134 0 0 Z " fill="#888380" transform="translate(366.5,583.8125)"/>
<path d="M0 0 C7.17386854 3.32071649 13.77631145 7.31191904 20.18359375 11.9296875 C24.29954295 14.84681655 28.51676588 17.60805385 32.73535156 20.37402344 C36.30619947 22.7325581 39.69958558 25.19115216 43 27.92578125 C34.39415147 26.89236673 26.30892335 24.685321 18.01416016 22.24633789 C12.43222272 20.60791092 6.84364092 19.09754037 1.1875 17.73828125 C-4.06180513 16.45939855 -9.01445555 15.00309144 -14 12.92578125 C-12.45049295 9.13906459 -10.11710363 6.86122212 -7.125 4.11328125 C-6.26132812 3.30246094 -5.39765625 2.49164063 -4.5078125 1.65625 C-2 -0.07421875 -2 -0.07421875 0 0 Z " fill="#8C7D78" transform="translate(413,432.07421875)"/>
<path d="M0 0 C0.05399736 1.45792884 0.09279177 2.91642712 0.125 4.375 C0.14820313 5.18710937 0.17140625 5.99921875 0.1953125 6.8359375 C0 9 0 9 -2 11 C-3.98024348 11.68502609 -5.98506096 12.29998202 -8 12.875 C-12.89896016 14.32912728 -17.59549788 15.96134426 -22.30859375 17.92578125 C-26.8422115 19.73528035 -31.47489408 21.27512689 -36.09375 22.8515625 C-39.07013907 23.80496823 -39.07013907 23.80496823 -41 26 C-43.32275177 26.40047444 -45.65739357 26.7397104 -48 27 C-43.15595445 16.20671404 -28.41546884 5.20773442 -18 0 C-12.0968394 -1.44299481 -5.87237342 -1.64426456 0 0 Z " fill="#796C67" transform="translate(576,428)"/>
<path d="M0 0 C1.92960571 0.24447876 1.92960571 0.24447876 3.89819336 0.49389648 C8.8247557 1.03915505 13.67670329 1.12850688 18.62890625 1.09765625 C19.94156715 1.09553383 19.94156715 1.09553383 21.28074646 1.09336853 C24.04136762 1.08782719 26.80190388 1.07528612 29.5625 1.0625 C31.44856653 1.0574774 33.33463434 1.05291583 35.22070312 1.04882812 C39.81383417 1.03787707 44.40690275 1.02065384 49 1 C49.99 4.3 50.98 7.6 52 11 C34.12176642 13.64135075 16.8060602 13.08239361 -1 10 C-1.125 2.25 -1.125 2.25 0 0 Z " fill="#605A57" transform="translate(380,726)"/>
<path d="M0 0 C0.66 0 1.32 0 2 0 C-0.06304388 9.84470063 -3.18984838 16.44581027 -11.375 22.5 C-15.91042787 25.2974824 -18.73401188 25.77694907 -24 25 C-28.63869273 23.27185957 -31.93261904 20.9039394 -35 17 C-34.62890625 14.3359375 -34.62890625 14.3359375 -34 12 C-32.08594633 11.32586789 -30.16863974 10.6609668 -28.25 10 C-27.18265625 9.62875 -26.1153125 9.2575 -25.015625 8.875 C-22 8 -22 8 -18 8 C-18 7.34 -18 6.68 -18 6 C-16.78441406 5.65066406 -15.56882812 5.30132812 -14.31640625 4.94140625 C-12.73172137 4.4819414 -11.14708863 4.0222967 -9.5625 3.5625 C-8.35883789 3.21735352 -8.35883789 3.21735352 -7.13085938 2.86523438 C-3.25946753 2.01294138 -3.25946753 2.01294138 0 0 Z " fill="#F8EAE6" transform="translate(563,474)"/>
<path d="M0 0 C5.50349401 1.40324169 10.76092915 2.83547878 15.94921875 5.17578125 C25.40654245 8.97672468 34.85381815 10.66291755 45 11 C45.02689216 12.47906892 45.04634621 13.95827483 45.0625 15.4375 C45.07410156 16.26121094 45.08570313 17.08492187 45.09765625 17.93359375 C45 20 45 20 44 21 C31.35867054 22.5515515 18.78095258 17.86002078 7.125 13.5 C6.34568115 13.21568115 5.5663623 12.9313623 4.76342773 12.63842773 C-0.55851382 10.55835016 -0.55851382 10.55835016 -2.59375 7.984375 C-3.25280056 4.76516648 -1.60803447 2.7212891 0 0 Z " fill="#766E6A" transform="translate(334,627)"/>
<path d="M0 0 C5.91000893 0.42373649 11.81302218 0.8683111 17.70703125 1.4765625 C31.76860618 2.90343179 45.74820508 3.41375821 59.875 3.625 C62.03907558 3.66333097 64.20313838 3.7023904 66.3671875 3.7421875 C71.57801688 3.83647419 76.78891628 3.92107335 82 4 C81.20458984 8.8515625 81.20458984 8.8515625 79.36328125 10.1875 C78.68652344 10.455625 78.00976562 10.72375 77.3125 11 C74.35236763 12.29671867 72.05517496 13.61384621 69.625 15.75 C67 18 67 18 65 18 C63.7109375 16.25 63.7109375 16.25 62.375 14 C61.92898438 13.2575 61.48296875 12.515 61.0234375 11.75 C60.68570313 11.1725 60.34796875 10.595 60 10 C59.32453125 10.10699219 58.6490625 10.21398437 57.953125 10.32421875 C57.06109375 10.44410156 56.1690625 10.56398438 55.25 10.6875 C54.36828125 10.81511719 53.4865625 10.94273437 52.578125 11.07421875 C50 11 50 11 48.22363281 9.56835938 C45.41683343 7.58868445 43.23564372 7.30690645 39.84375 6.83203125 C38.65652344 6.66123047 37.46929687 6.49042969 36.24609375 6.31445312 C34.39177734 6.06598633 34.39177734 6.06598633 32.5 5.8125 C31.26378906 5.63525391 30.02757812 5.45800781 28.75390625 5.27539062 C24.12212765 4.62412534 19.68280183 4 15 4 C15.66 4.66 16.32 5.32 17 6 C17.125 8.625 17.125 8.625 17 11 C10.58805513 12.33078101 10.58805513 12.33078101 8 10.875 C7 9 7 9 7.1875 6.375 C8 4 8 4 10 3 C6.7 2.34 3.4 1.68 0 1 C0 0.67 0 0.34 0 0 Z " fill="#857E79" transform="translate(385,695)"/>
<path d="M0 0 C7.36072234 0.42465706 13.32137824 2.98348917 20 6 C18.125 10.875 18.125 10.875 17 12 C14.67182036 12.36760731 12.3381615 12.70241581 10 13 C10 14.65 10 16.3 10 18 C10.66 18.33 11.32 18.66 12 19 C11.52655474 24.05008278 9.02540998 28.03898636 6 32 C2.55892734 34.29404844 1.03160191 34.26293056 -3 34 C-4 33 -4 33 -4.25 30.1875 C-4.21507454 26.75083494 -3.46904466 23.74528247 -2.5625 20.4375 C-0.74379607 13.668833 -0.29948931 6.98119916 0 0 Z " fill="#3B3837" transform="translate(322,578)"/>
<path d="M0 0 C4.27130732 -0.62128106 6.69903271 -0.83406223 10.39453125 1.53515625 C15.28813455 5.74706356 20.23011165 10.42471014 21.34570312 17.05444336 C21.46529941 19.28040385 21.45205594 21.45979601 21.375 23.6875 C21.35993408 24.47334473 21.34486816 25.25918945 21.3293457 26.06884766 C20.82235019 43.97292739 20.82235019 43.97292739 16 49 C12.3125 49.75 12.3125 49.75 9 50 C9.13277344 49.443125 9.26554688 48.88625 9.40234375 48.3125 C12.22252036 36.12604339 14.98207394 21.53685689 9 10 C6.4392887 6.15893306 3.94385338 4.30058114 0 2 C0 1.34 0 0.68 0 0 Z " fill="#BFBBB8" transform="translate(508,585)"/>
<path d="M0 0 C5.48116095 2.36256937 9.61215739 5.37530408 12 11 C12.6549764 15.10451877 13.21841623 19.23792337 10.765625 22.78515625 C7.74237557 24.86531239 5.0914396 24.29575539 1.578125 23.84375 C-3.67383868 22.12492552 -6.48915415 17.59724003 -9.16796875 12.9921875 C-10.61551481 9.52623214 -10.29665972 6.7379125 -10 3 C-7.82113341 -1.10139593 -4.20988451 -0.49115319 0 0 Z " fill="#9B948F" transform="translate(495,279)"/>
<path d="M0 0 C2.5625 -0.25 2.5625 -0.25 5 0 C5.33 0.33 5.66 0.66 6 1 C7.0725 1.0825 8.145 1.165 9.25 1.25 C13.6982137 2.13964274 15.19433935 3.5141792 18 7 C18 7.66 18 8.32 18 9 C18.66 9 19.32 9 20 9 C20 11.97 20 14.94 20 18 C16.09142602 17.44064577 13.59544795 16.32566703 10.375 14.0625 C9.61960937 13.53785156 8.86421875 13.01320313 8.0859375 12.47265625 C7.39757812 11.98667969 6.70921875 11.50070312 6 11 C5.01 10.34 4.02 9.68 3 9 C4.24542058 10.75326198 5.49654053 12.50247622 6.75 14.25 C7.44609375 15.22453125 8.1421875 16.1990625 8.859375 17.203125 C10.76452299 19.69233296 12.72684621 21.84971939 15 24 C14.08642343 26.36007281 13.55989727 27.70350894 11.28125 28.91015625 C8.30087263 29.02753413 6.93042836 27.85352266 4.73510742 25.9375 C0.27303343 21.61846471 -2.61759424 18.430283 -2.86230469 12.00585938 C-2.74509436 7.28527069 -2.65195376 3.97793065 0 0 Z " fill="#C9B3AB" transform="translate(360,663)"/>
<path d="M0 0 C-0.7734375 0.67804688 -1.546875 1.35609375 -2.34375 2.0546875 C-11.45247168 10.14758296 -18.84128051 18.48455676 -24.87109375 29.1640625 C-25.24363281 29.76992188 -25.61617188 30.37578125 -26 31 C-26.33 31 -26.66 31 -27 31 C-27.31563182 25.73946963 -26.66590937 22.55426184 -24 18 C-24.33 17.67 -24.66 17.34 -25 17 C-25.33 17.33 -25.66 17.66 -26 18 C-30.23723082 18.59124151 -31.7035786 18.21091523 -35.25 15.6875 C-39.83789386 11.20387645 -39.83789386 11.20387645 -40.265625 8.02734375 C-40.22222222 2.22222222 -40.22222222 2.22222222 -38 0 C-35.375 -0.5625 -35.375 -0.5625 -32 0 C-28.70311666 2.36266594 -25.86184872 5.13815128 -23 8 C-22.95919217 9.99958364 -22.95745644 12.00045254 -23 14 C-22.5153125 13.56429688 -22.030625 13.12859375 -21.53125 12.6796875 C-5.27911857 -1.75970619 -5.27911857 -1.75970619 0 0 Z " fill="#7E7873" transform="translate(324,301)"/>
<path d="M0 0 C0 4.95 0 9.9 0 15 C-14.66423358 22.5939781 -14.66423358 22.5939781 -21 22 C-22.7062389 16.13480379 -23.11845372 11.09296335 -23 5 C-20.1062867 4.15862957 -17.21040603 3.3266964 -14.3125 2.5 C-13.49587891 2.26152344 -12.67925781 2.02304687 -11.83789062 1.77734375 C-11.04189453 1.55175781 -10.24589844 1.32617188 -9.42578125 1.09375 C-8.33390503 0.77954102 -8.33390503 0.77954102 -7.2199707 0.45898438 C-5 0 -5 0 0 0 Z " fill="#78706C" transform="translate(534,659)"/>
<path d="M0 0 C3.08745074 8.54562257 4.58974578 15.90808586 4 25 C0.07142246 26.85131483 -2.98775112 27.22004943 -7.3125 27.125 C-8.38113281 27.10695313 -9.44976562 27.08890625 -10.55078125 27.0703125 C-11.35902344 27.04710937 -12.16726563 27.02390625 -13 27 C-13.29003906 25.24623047 -13.29003906 25.24623047 -13.5859375 23.45703125 C-13.84866686 21.90880468 -14.11170392 20.3606303 -14.375 18.8125 C-14.50132812 18.04357422 -14.62765625 17.27464844 -14.7578125 16.48242188 C-15.45932649 12.39610286 -16.38600581 8.83849924 -18 5 C-18 4.01 -18 3.02 -18 2 C-16.02 2 -14.04 2 -12 2 C-11.01836578 3.93625098 -10.03977546 5.87404539 -9.0625 7.8125 C-8.51722656 8.89144531 -7.97195313 9.97039063 -7.41015625 11.08203125 C-6 14 -6 14 -5 17 C-4.88861841 11.54230189 -5.08342019 6.38490641 -6 1 C-3 0 -3 0 0 0 Z " fill="#9B9490" transform="translate(497,696)"/>
<path d="M0 0 C2.64691825 0 3.23568684 0.74164021 5.125 2.5625 C9.14680656 7.33962145 8.55163819 12.50353086 8.40625 18.4765625 C8.029049 21.74805576 7.32600253 24.02284489 6 27 C5.69690342 28.32637134 5.42558731 29.66043182 5.1875 31 C3.88485251 37.25906232 1.39255372 43.09167078 -1 49 C-1.33 49 -1.66 49 -2 49 C-2.22293667 32.53012459 -2.13162933 16.34883566 0 0 Z " fill="#AAA29D" transform="translate(593,420)"/>
<path d="M0 0 C3.96484373 0.57348633 6.63597322 1.78767664 10 3.9375 C18.67929365 9.4569883 26.781177 10.18910212 36.875 10.25 C38.14537109 10.2809375 38.14537109 10.2809375 39.44140625 10.3125 C45.52658183 10.34977519 50.34370785 9.14885501 56 7 C58.32377199 6.29313998 60.65878242 5.64757082 63 5 C63 5.66 63 6.32 63 7 C60.83984375 8.65625 60.83984375 8.65625 57.9375 10.5 C56.99777344 11.1084375 56.05804687 11.716875 55.08984375 12.34375 C48.90087232 15.66122647 43.12735973 16.363758 36.25 16.3125 C35.45722656 16.30686035 34.66445313 16.3012207 33.84765625 16.29541016 C22.71384138 16.06610443 12.09782794 13.09782794 4 5 C1.77871445 4.97691403 1.77871445 4.97691403 -0.625 5.375 C-1.44226563 5.48585938 -2.25953125 5.59671875 -3.1015625 5.7109375 C-3.72804688 5.80632813 -4.35453125 5.90171875 -5 6 C-5 4.68 -5 3.36 -5 2 C-3.35 2 -1.7 2 0 2 C0 1.34 0 0.68 0 0 Z " fill="#272522" transform="translate(463,535)"/>
<path d="M0 0 C6.68183363 1.0440365 12.7465965 2.4042476 19 5 C18.50506533 9.75416122 17.27876594 12.55220583 14.4375 16.375 C13.47650391 17.68597656 13.47650391 17.68597656 12.49609375 19.0234375 C12.00238281 19.67570312 11.50867188 20.32796875 11 21 C10.67 20.34 10.34 19.68 10 19 C6.9600352 18.30662208 6.9600352 18.30662208 3.4375 17.875 C2.23996094 17.70742188 1.04242188 17.53984375 -0.19140625 17.3671875 C-1.11824219 17.24601562 -2.04507812 17.12484375 -3 17 C-2.68289063 16.30519531 -2.36578125 15.61039062 -2.0390625 14.89453125 C-0.90598948 11.73811356 -0.59519989 9.02719833 -0.375 5.6875 C-0.30023438 4.61886719 -0.22546875 3.55023438 -0.1484375 2.44921875 C-0.09945313 1.64097656 -0.05046875 0.83273437 0 0 Z " fill="#D5C9C5" transform="translate(447,476)"/>
<path d="M0 0 C0.44808451 8.28126565 -0.36488714 16.09466142 -3 24 C-3.66 24.33 -4.32 24.66 -5 25 C-4.01 21.535 -4.01 21.535 -3 18 C-3.845625 18.474375 -4.69125 18.94875 -5.5625 19.4375 C-9.12587329 21.05721513 -12.12561425 21.61256143 -16 22 C-17.20568053 17.32798795 -17.09382426 12.78503708 -17 8 C-17.99 7.67 -18.98 7.34 -20 7 C-17.58459694 6.01761592 -15.16778178 5.03899782 -12.75 4.0625 C-12.06808594 3.78470703 -11.38617187 3.50691406 -10.68359375 3.22070312 C-2.69004142 0 -2.69004142 0 0 0 Z " fill="#92B5CC" transform="translate(568,456)"/>
<path d="M0 0 C11.88 0 23.76 0 36 0 C36 0.33 36 0.66 36 1 C28.08 1 20.16 1 12 1 C12 6.94 12 12.88 12 19 C3 19 3 19 -1 18 C-1.09896353 11.76529746 -0.701923 6.31730701 0 0 Z " fill="#4E4A47" transform="translate(402,668)"/>
<path d="M0 0 C1.79244141 0.23009766 1.79244141 0.23009766 3.62109375 0.46484375 C10.08534064 1.1830934 16.56549882 1.35180512 23.0625 1.5625 C24.93325195 1.62727539 24.93325195 1.62727539 26.84179688 1.69335938 C29.89444091 1.79862296 32.94715523 1.90075941 36 2 C36 2.33 36 2.66 36 3 C31.05 3 26.1 3 21 3 C21 5.97 21 8.94 21 12 C18.08302989 11.85895309 15.1665198 11.71235186 12.25 11.5625 C11.0125 11.50352539 11.0125 11.50352539 9.75 11.44335938 C8.95078125 11.40146484 8.1515625 11.35957031 7.328125 11.31640625 C6.5949707 11.27974854 5.86181641 11.24309082 5.10644531 11.20532227 C2.98822395 10.99885215 1.0480544 10.56867914 -1 10 C-1.125 2.25 -1.125 2.25 0 0 Z " fill="#484441" transform="translate(380,726)"/>
<path d="M0 0 C1.27230469 0.01804687 2.54460937 0.03609375 3.85546875 0.0546875 C5.31919922 0.08949219 5.31919922 0.08949219 6.8125 0.125 C7.1425 1.115 7.4725 2.105 7.8125 3.125 C9.82758358 3.85823796 9.82758358 3.85823796 11.8125 4.125 C12.5 6.4375 12.5 6.4375 12.8125 9.125 C11.17794025 11.44430775 10.2050641 12.05460482 7.39453125 12.55859375 C0.96364326 12.56766411 -3.82307639 11.80883977 -9.1875 8.125 C-9.8475 7.465 -10.5075 6.805 -11.1875 6.125 C-11 4.125 -11 4.125 -10.1875 2.125 C-6.4507157 -0.36618953 -4.44298181 -0.0815226 0 0 Z " fill="#C1BCB9" transform="translate(457.1875,590.875)"/>
<path d="M0 0 C4.34481058 1.21654696 7.08497734 2.58393739 9.9375 6.125 C11.42901438 9.57903329 11.47647721 12.14934158 11.125 15.875 C9.125 17.875 9.125 17.875 5.875 18.3125 C0.90814092 17.73303311 -0.41331778 16.41718645 -3.875 12.875 C-6.17329251 9.63649692 -6.29164814 6.79149251 -5.875 2.875 C-4.18255916 -0.03975922 -3.37703022 -0.1468274 0 0 Z " fill="#7D7773" transform="translate(276.875,361.125)"/>
<path d="M0 0 C4.29677372 0.43696004 5.74847442 1.2680301 8.6875 4.375 C10.92475247 8.31682578 11.11021785 11.89419075 10.6875 16.375 C7.6875 18.375 7.6875 18.375 4.3125 18.375 C-0.48952432 17.05030364 -1.51498031 15.40671955 -4.3125 11.375 C-5.81912097 8.36175805 -5.49020373 5.69213623 -5.3125 2.375 C-3.3125 0.375 -3.3125 0.375 0 0 Z " fill="#7D7773" transform="translate(321.3125,344.625)"/>
<path d="M0 0 C-0.845625 0.66 -1.69125 1.32 -2.5625 2 C-5.82552059 4.71790421 -8.54913025 7.75181106 -11.2890625 10.98828125 C-12.31788942 12.197975 -13.36910133 13.38982627 -14.4609375 14.54296875 C-21.46663409 22.07118967 -26.53543525 31.80157929 -31 41 C-31.33 41 -31.66 41 -32 41 C-31.68253146 27.95492911 -26.40959045 17.00804321 -17 8 C-4.84003014 -1.61334338 -4.84003014 -1.61334338 0 0 Z " fill="#2D2B28" transform="translate(369,257)"/>
<path d="M0 0 C3.37495058 0.02428022 5.14420406 0.59958588 7.75 2.75 C10.78829878 5.86240363 11.46141067 7.17648141 11.5 11.375 C11.51417969 12.07625 11.52835937 12.7775 11.54296875 13.5 C11.3125 15.375 11.3125 15.375 9.3125 17.375 C6.20623911 17.60886906 3.30660536 17.21675916 0.3125 16.375 C-2.32445766 13.80396628 -4.55764029 11.24268821 -4.8203125 7.46484375 C-4.79498684 0.48762578 -4.79498684 0.48762578 0 0 Z " fill="#7D7773" transform="translate(322.6875,470.625)"/>
<path d="M0 0 C6.01414213 0.43120264 12.02161606 0.89881072 18.0234375 1.4765625 C30.67666095 2.69013623 43.29835577 3.50648008 56 4 C56.04254356 5.99954746 56.04080783 8.00041636 56 10 C55.67 10.33 55.34 10.66 55 11 C48.4 10.4 48.4 10.4 46 8 C43.25950143 7.34723113 43.25950143 7.34723113 40.0390625 6.9296875 C38.84539062 6.75566406 37.65171875 6.58164062 36.421875 6.40234375 C35.16890625 6.22832031 33.9159375 6.05429687 32.625 5.875 C31.37976563 5.69324219 30.13453125 5.51148438 28.8515625 5.32421875 C21.95252587 4.32776949 21.95252587 4.32776949 15 4 C15.66 4.66 16.32 5.32 17 6 C17.125 8.625 17.125 8.625 17 11 C10.58805513 12.33078101 10.58805513 12.33078101 8 10.875 C7 9 7 9 7.1875 6.375 C8 4 8 4 10 3 C6.7 2.34 3.4 1.68 0 1 C0 0.67 0 0.34 0 0 Z " fill="#6D6966" transform="translate(385,695)"/>
<path d="M0 0 C21.7857859 -0.96873554 21.7857859 -0.96873554 32 5 C32.84046875 5.48082031 33.6809375 5.96164062 34.546875 6.45703125 C39.28997852 9.39434536 42.6920382 12.5182453 46 17 C41.92019536 15.68256308 37.95534664 14.21571129 34 12.5625 C32.42025391 11.90314453 32.42025391 11.90314453 30.80859375 11.23046875 C28 10 28 10 25.0625 8.375 C17.00159145 4.75581657 7.64999878 3.65970631 -1 2 C-0.67 1.34 -0.34 0.68 0 0 Z " fill="#2B2A27" transform="translate(511,314)"/>
<path d="M0 0 C6.23440168 1.58960332 12.16287645 3.27600901 18 6 C17.01 6.495 17.01 6.495 16 7 C15.53476937 8.89533342 15.53476937 8.89533342 15.375 11.0625 C15.25125 12.361875 15.1275 13.66125 15 15 C16.32 15.33 17.64 15.66 19 16 C17 17 17 17 15.15234375 16.53442383 C12.76222031 15.64155254 10.37764587 14.73816244 8 13.8125 C7.16726563 13.50763672 6.33453125 13.20277344 5.4765625 12.88867188 C4.67992187 12.58123047 3.88328125 12.27378906 3.0625 11.95703125 C2.33160156 11.67835205 1.60070312 11.39967285 0.84765625 11.11254883 C-1.49114774 9.70426001 -2.17880731 8.58839694 -3 6 C-1.625 2.75 -1.625 2.75 0 0 Z " fill="#655F5B" transform="translate(334,627)"/>
<path d="M0 0 C2.31 0 4.62 0 7 0 C7 2.97 7 5.94 7 9 C11.39607256 8.86087529 15.79178723 8.71253197 20.1875 8.5625 C21.43337891 8.52318359 22.67925781 8.48386719 23.96289062 8.44335938 C25.16494141 8.40146484 26.36699219 8.35957031 27.60546875 8.31640625 C28.71043701 8.27974854 29.81540527 8.24309082 30.95385742 8.20532227 C33.72592972 8.01847344 36.29542873 7.61837634 39 7 C39 6.34 39 5.68 39 5 C41.25 3.25 41.25 3.25 44 2 C46.1875 2.5625 46.1875 2.5625 48 4 C49.25 6.125 49.25 6.125 50 8 C41.83078612 11.14200534 33.40033571 11.16964278 24.75 11.125 C23.38161987 11.12209961 23.38161987 11.12209961 21.9855957 11.11914062 C14.95136807 11.07438809 7.99982085 10.72725411 1 10 C0.67 6.7 0.34 3.4 0 0 Z " fill="#474340" transform="translate(465,726)"/>
<path d="M0 0 C3.08745074 8.54562257 4.58974578 15.90808586 4 25 C1.36 25 -1.28 25 -4 25 C-4.06058594 23.85402344 -4.12117188 22.70804688 -4.18359375 21.52734375 C-4.26806989 19.99738703 -4.35271427 18.46743959 -4.4375 16.9375 C-4.47681641 16.18533203 -4.51613281 15.43316406 -4.55664062 14.65820312 C-4.81580719 10.05301259 -5.2799421 5.55633276 -6 1 C-3 0 -3 0 0 0 Z " fill="#9D9794" transform="translate(497,696)"/>
<path d="M0 0 C-0.7734375 0.67804688 -1.546875 1.35609375 -2.34375 2.0546875 C-11.45247168 10.14758296 -18.84128051 18.48455676 -24.87109375 29.1640625 C-25.24363281 29.76992188 -25.61617188 30.37578125 -26 31 C-26.33 31 -26.66 31 -27 31 C-28.20449935 23.42886125 -24.19058797 18.05490466 -20 12 C-15.78733082 6.66526473 -7.08182324 -2.36060775 0 0 Z " fill="#262422" transform="translate(324,301)"/>
<path d="M0 0 C7.16763006 4.33526012 7.16763006 4.33526012 9 8 C7.14545138 7.54321462 5.29138051 7.0844894 3.4375 6.625 C2.40496094 6.36976563 1.37242187 6.11453125 0.30859375 5.8515625 C-1.87194535 5.29033756 -4.03913919 4.67399555 -6.1875 4 C-11.22609379 2.67840163 -16.27624332 2.03316936 -21.4375 1.375 C-22.45521484 1.2409375 -23.47292969 1.106875 -24.52148438 0.96875 C-27.01374822 0.64112846 -29.50653678 0.3183416 -32 0 C-22.26524418 -5.03521853 -9.99479551 -4.25878865 0 0 Z " fill="#353330" transform="translate(481,259)"/>
<path d="M0 0 C-0.99 3.96 -1.98 7.92 -3 12 C-14.25 11.0625 -14.25 11.0625 -18 10 C-18 8.35 -18 6.7 -18 5 C-17.01 5 -16.02 5 -15 5 C-15 4.34 -15 3.68 -15 3 C-13.25183142 2.49363393 -11.50137737 1.99515381 -9.75 1.5 C-8.77546875 1.2215625 -7.8009375 0.943125 -6.796875 0.65625 C-4 0 -4 0 0 0 Z " fill="#BFBCBA" transform="translate(528,689)"/>
<path d="M0 0 C0.98484375 0.11988281 1.9696875 0.23976563 2.984375 0.36328125 C3.73203125 0.47027344 4.4796875 0.57726562 5.25 0.6875 C4.74984375 1.12835937 4.2496875 1.56921875 3.734375 2.0234375 C2.99960937 2.84714844 2.99960937 2.84714844 2.25 3.6875 C2.49205349 7.00568985 2.49205349 7.00568985 4.25 9.6875 C6.58297433 9.72842937 8.91705225 9.72991723 11.25 9.6875 C10.92 11.0075 10.59 12.3275 10.25 13.6875 C7.39633551 14.58750188 5.24593255 15.14080803 2.44238281 13.86474609 C0.51539026 12.61194537 -1.30519559 11.27879484 -3.125 9.875 C-3.76566406 9.41029297 -4.40632813 8.94558594 -5.06640625 8.46679688 C-6.67660854 7.27030327 -8.21994005 5.984907 -9.75 4.6875 C-9.75 2.6875 -9.75 2.6875 -8.109375 1.04296875 C-5.0876305 -0.69303347 -3.42088565 -0.44797312 0 0 Z " fill="#97918D" transform="translate(390.75,696.3125)"/>
<path d="M0 0 C3.98619959 1.52624759 5.78204105 3.96556041 8.25 7.375 C8.95640625 8.33148438 9.6628125 9.28796875 10.390625 10.2734375 C12 13 12 13 12 17 C8.38830465 17.20064974 5.94916469 17.18808993 3 15 C-0.42300268 10.15074621 -1.60793659 7.07936589 -1 1 C-0.67 0.67 -0.34 0.34 0 0 Z " fill="#7E7874" transform="translate(437,320)"/>
<path d="M0 0 C2.89332532 0.79157014 5.58351974 1.66580443 8.3125 2.90625 C8.3125 3.56625 8.3125 4.22625 8.3125 4.90625 C3.38855257 6.93133903 -1.55162876 8.91783787 -6.5625 10.71875 C-7.26117187 10.97269531 -7.95984375 11.22664063 -8.6796875 11.48828125 C-11.00437181 11.97221359 -12.45375094 11.64248568 -14.6875 10.90625 C-13.0233615 9.02544248 -11.33654004 7.18057924 -9.625 5.34375 C-9.15900391 4.81072266 -8.69300781 4.27769531 -8.21289062 3.72851562 C-5.37245992 0.73350366 -4.19433289 -0.10663558 0 0 Z " fill="#8F807B" transform="translate(547.6875,440.09375)"/>
<path d="M0 0 C1.96902669 2.49204941 3.2858016 5.11254792 4.6875 7.9609375 C5.21730469 9.02441406 5.74710937 10.08789062 6.29296875 11.18359375 C7.5 13.8984375 7.5 13.8984375 7.5 15.8984375 C6.84 16.2284375 6.18 16.5584375 5.5 16.8984375 C4.36649466 18.91513577 4.36649466 18.91513577 3.5 20.8984375 C-0.17420866 20.59225345 -1.28135513 20.14071966 -3.8125 17.3359375 C-4.369375 16.5315625 -4.92625 15.7271875 -5.5 14.8984375 C-1.54 15.8884375 -1.54 15.8884375 2.5 16.8984375 C0.49021577 11.34197521 -2.33469147 7.28670258 -6.07421875 2.71875 C-7.5 0.8984375 -7.5 0.8984375 -7.5 -0.1015625 C-1.97676481 -1.45168666 -1.97676481 -1.45168666 0 0 Z " fill="#918B86" transform="translate(446.5,320.1015625)"/>
<path d="M0 0 C1.8125 1.125 1.8125 1.125 3 3 C3.38976435 6.11811483 3.50422245 8.11019567 1.9375 10.875 C-1.03237177 12.59944167 -3.64658015 12.24840147 -7 12 C-8 11 -8 11 -8.25 7.125 C-8.20764899 4.49923745 -8.16919812 3.28496525 -6.8125 1 C-4.33474158 -0.36703913 -2.78844081 -0.41826612 0 0 Z " fill="#C0BCB9" transform="translate(510,617)"/>
<path d="M0 0 C0.78375 0.04125 1.5675 0.0825 2.375 0.125 C2.45576963 2.58398655 2.51537143 5.04033742 2.5625 7.5 C2.60020508 8.54800781 2.60020508 8.54800781 2.63867188 9.6171875 C2.66796875 11.6484375 2.66796875 11.6484375 2.375 15.125 C-0.625 17.125 -0.625 17.125 -3.625 17.125 C-5.0491906 14.27661879 -4.79495508 11.79712092 -4.8125 8.625 C-4.83376953 6.87703125 -4.83376953 6.87703125 -4.85546875 5.09375 C-4.55749956 1.25550282 -3.92127401 0.18672733 0 0 Z " fill="#9C928D" transform="translate(531.625,658.875)"/>
<path d="M0 0 C3.1305429 -0.39964378 5.13083761 -0.52149743 7.875 1.125 C9.50531294 3.84218824 9.33015665 5.89652746 9 9 C7 11 7 11 5.08984375 11.23046875 C-0.88888889 11.11111111 -0.88888889 11.11111111 -2 10 C-2.35897436 3.53846154 -2.35897436 3.53846154 0 0 Z " fill="#B3AEAB" transform="translate(407,602)"/>
<path d="M0 0 C11.385 0.99 11.385 0.99 23 2 C23 2.33 23 2.66 23 3 C20.69 3 18.38 3 16 3 C16.33 4.65 16.66 6.3 17 8 C14.53901884 7.94012211 12.08421588 7.85321526 9.625 7.75 C8.92632812 7.73582031 8.22765625 7.72164062 7.5078125 7.70703125 C5.4765625 7.609375 5.4765625 7.609375 2 7 C0.00293786 4.48518101 0 3.23080194 0 0 Z " fill="#79706C" transform="translate(392,649)"/>
<path d="M0 0 C0.845625 0.495 1.69125 0.99 2.5625 1.5 C2.5625 1.83 2.5625 2.16 2.5625 2.5 C-6.6775 2.5 -15.9175 2.5 -25.4375 2.5 C-25.4375 1.84 -25.4375 1.18 -25.4375 0.5 C-17.76649296 -2.46675311 -7.71787757 -3.33703313 0 0 Z " fill="#201F1D" transform="translate(438.4375,231.5)"/>
<path d="M0 0 C0.99 0 1.98 0 3 0 C3 5.61 3 11.22 3 17 C-1 13 -1 13 -2.5625 10.375 C-3.92617739 7.74256396 -3.92617739 7.74256396 -7 6 C-7 5.34 -7 4.68 -7 4 C-4.69 3.34 -2.38 2.68 0 2 C0 1.34 0 0.68 0 0 Z " fill="#393635" transform="translate(537,577)"/>
<path d="M0 0 C0.33 0 0.66 0 1 0 C2.29235715 4.91502758 2.11135517 9.77290102 2.0625 14.8125 C2.05798828 15.69615234 2.05347656 16.57980469 2.04882812 17.49023438 C2.03709866 19.66018559 2.01916495 21.83010172 2 24 C1.34 24 0.68 24 0 24 C-0.33 24.66 -0.66 25.32 -1 26 C-2.38705156 21.83884532 -2.18424545 17.92034238 -2.1875 13.5625 C-2.19974609 12.70333984 -2.21199219 11.84417969 -2.22460938 10.95898438 C-2.22654297 10.12818359 -2.22847656 9.29738281 -2.23046875 8.44140625 C-2.23457764 7.68545166 -2.23868652 6.92949707 -2.24291992 6.15063477 C-1.9693852 3.72895898 -1.20294367 2.10224611 0 0 Z " fill="#D9D4D0" transform="translate(344,459)"/>
<path d="M0 0 C0.66 0.33 1.32 0.66 2 1 C1.55564266 4.96003425 1.09216228 8.91759646 0.625 12.875 C0.49867188 14.00292969 0.37234375 15.13085938 0.2421875 16.29296875 C0.11328125 17.36933594 -0.015625 18.44570313 -0.1484375 19.5546875 C-0.26364746 20.54968262 -0.37885742 21.54467773 -0.49755859 22.56982422 C-1 25 -1 25 -3 27 C-5.78696407 21.42607186 -4.92361095 10.99669403 -3.10546875 5.09765625 C-2 2.9375 -2 2.9375 0 0 Z " fill="#34322F" transform="translate(265,394)"/>
<path d="M0 0 C3.39474666 1.40472276 5.21164245 2.76392443 7 6 C7.5968113 8.70941769 7.81708879 11.21060398 8 14 C7 15 7 15 4.75 15.375 C0.89386948 14.84916402 -0.50125936 12.85570359 -3 10 C-1.02 10 0.96 10 3 10 C2.67 7.69 2.34 5.38 2 3 C1.34 3 0.68 3 0 3 C0 2.01 0 1.02 0 0 Z " fill="#433D39" transform="translate(499,511)"/>
<path d="M0 0 C2.31 0 4.62 0 7 0 C6.39124245 4.60416626 5.15277044 8.56483324 3.4375 12.875 C2.98246094 14.02742188 2.52742187 15.17984375 2.05859375 16.3671875 C1.70925781 17.23601562 1.35992188 18.10484375 1 19 C0.67 19 0.34 19 0 19 C0 12.73 0 6.46 0 0 Z " fill="#CAC0BA" transform="translate(591,450)"/>
<path d="M0 0 C0.22886808 7.40006785 0.41158296 14.89922796 -2 22 C-2.66 22.33 -3.32 22.66 -4 23 C-3.01 19.535 -3.01 19.535 -2 16 C-2.66 16 -3.32 16 -4 16 C-4.07347656 14.86111328 -4.07347656 14.86111328 -4.1484375 13.69921875 C-4.22320313 12.70535156 -4.29796875 11.71148437 -4.375 10.6875 C-4.44460938 9.70136719 -4.51421875 8.71523438 -4.5859375 7.69921875 C-4.83865472 4.78471567 -4.83865472 4.78471567 -7 2 C-4.35261084 0.5393715 -3.10551666 0 0 0 Z " fill="#C5BDBB" transform="translate(567,458)"/>
<path d="M0 0 C5.61 0.66 11.22 1.32 17 2 C17 2.66 17 3.32 17 4 C14.565036 4.69784331 12.12772895 5.38353822 9.6875 6.0625 C8.99720703 6.26166016 8.30691406 6.46082031 7.59570312 6.66601562 C2.33984375 8.11328125 2.33984375 8.11328125 -1 7 C-0.67 4.69 -0.34 2.38 0 0 Z " fill="#C3ADA6" transform="translate(394,578)"/>
<path d="M0 0 C2.05378309 1.62886245 2.84682113 3.02330282 3.8125 5.4375 C-0.89211323 7.29882673 -5.0632696 7.6884496 -10.0625 7.5625 C-10.75085938 7.55347656 -11.43921875 7.54445313 -12.1484375 7.53515625 C-13.82827838 7.51182513 -15.50793746 7.47596326 -17.1875 7.4375 C-17.1875 7.1075 -17.1875 6.7775 -17.1875 6.4375 C-13.8875 5.7775 -10.5875 5.1175 -7.1875 4.4375 C-7.1875 3.7775 -7.1875 3.1175 -7.1875 2.4375 C-3.04639571 -0.7833589 -3.04639571 -0.7833589 0 0 Z " fill="#5D5753" transform="translate(511.1875,728.5625)"/>
<path d="M0 0 C18.65098039 -0.51176471 18.65098039 -0.51176471 26 5 C26 5.66 26 6.32 26 7 C24.741875 6.71125 23.48375 6.4225 22.1875 6.125 C18.57570026 5.31604801 14.95966212 4.62951017 11.3125 4 C7.39672864 3.30704046 3.73145017 2.41190006 0 1 C0 0.67 0 0.34 0 0 Z " fill="#383633" transform="translate(466,312)"/>
<path d="M0 0 C1.32 0 2.64 0 4 0 C3.34 3.96 2.68 7.92 2 12 C0.35 12.33 -1.3 12.66 -3 13 C-4 12 -4 12 -4.3125 9.3125 C-3.92153221 5.16824138 -2.6920297 3.14070132 0 0 Z " fill="#2A2926" transform="translate(381,308)"/>
<path d="M0 0 C1.1446875 0.3403125 1.1446875 0.3403125 2.3125 0.6875 C2.4375 3.0625 2.4375 3.0625 2.3125 5.6875 C1.6525 6.3475 0.9925 7.0075 0.3125 7.6875 C1.9625 8.0175 3.6125 8.3475 5.3125 8.6875 C5.3125 9.0175 5.3125 9.3475 5.3125 9.6875 C2.0125 10.0175 -1.2875 10.3475 -4.6875 10.6875 C-4.6875 9.6975 -4.6875 8.7075 -4.6875 7.6875 C-5.0278125 6.45 -5.0278125 6.45 -5.375 5.1875 C-5.6875 2.6875 -5.6875 2.6875 -4.5625 0.8125 C-2.6875 -0.3125 -2.6875 -0.3125 0 0 Z " fill="#534E4B" transform="translate(492.6875,676.3125)"/>
<path d="M0 0 C-0.33 2.64 -0.66 5.28 -1 8 C0.98 8 2.96 8 5 8 C1.3558226 10.4294516 -0.71241272 10.16179575 -5 10 C-5.45375 9.071875 -5.9075 8.14375 -6.375 7.1875 C-7.9421633 3.96078611 -7.9421633 3.96078611 -10 1 C-6.78548731 -0.60725635 -3.56387464 -0.05748185 0 0 Z " fill="#75625C" transform="translate(395,577)"/>
<path d="M0 0 C0.67546875 0.20496094 1.3509375 0.40992188 2.046875 0.62109375 C2.93890625 0.89050781 3.8309375 1.15992188 4.75 1.4375 C5.63171875 1.70433594 6.5134375 1.97117187 7.421875 2.24609375 C9.60565835 2.88468494 11.78835498 3.46775833 14 4 C13.3125 5.9375 13.3125 5.9375 12 8 C9.31809037 8.98807197 7.65553658 9.1542439 4.875 8.5 C1.9878539 6.19028312 1.27465679 3.44157334 0 0 Z " fill="#ADDCFA" transform="translate(430,488)"/>
<path d="M0 0 C0.66 0 1.32 0 2 0 C2.33 6.6 2.66 13.2 3 20 C2.67 20 2.34 20 2 20 C1.67 18.35 1.34 16.7 1 15 C0.67 22.26 0.34 29.52 0 37 C-0.33 37 -0.66 37 -1 37 C-1.02944154 32.89584883 -1.04694527 28.79172544 -1.0625 24.6875 C-1.07087891 23.53958984 -1.07925781 22.39167969 -1.08789062 21.20898438 C-1.10808977 14.07868651 -0.79718119 7.08655428 0 0 Z " fill="#4A4744" transform="translate(308,490)"/>
<path d="M0 0 C3.3 0 6.6 0 10 0 C10.04254356 1.99954746 10.04080783 4.00041636 10 6 C9.67 6.33 9.34 6.66 9 7 C2.4 6.4 2.4 6.4 0 4 C0 2.68 0 1.36 0 0 Z " fill="#5C5754" transform="translate(431,699)"/>
<path d="M0 0 C1.65 0.33 3.3 0.66 5 1 C5.625 3.3125 5.625 3.3125 6 6 C5.01 7.485 5.01 7.485 4 9 C2.35 8.67 0.7 8.34 -1 8 C-1.625 5.6875 -1.625 5.6875 -2 3 C-1.34 2.01 -0.68 1.02 0 0 Z " fill="#55504C" transform="translate(435,675)"/>
<path d="M0 0 C-0.99 2.64 -1.98 5.28 -3 8 C-5.31 7.67 -7.62 7.34 -10 7 C-10 5.35 -10 3.7 -10 2 C-9.01 2 -8.02 2 -7 2 C-7 1.34 -7 0.68 -7 0 C-2.25 -1.125 -2.25 -1.125 0 0 Z " fill="#9D9793" transform="translate(520,692)"/>
<path d="M0 0 C9.06335876 -0.10234659 17.98175113 -0.06996173 27 1 C27 1.99 27 2.98 27 4 C17.91076799 3.4262611 8.99799566 2.38949558 0 1 C0 0.67 0 0.34 0 0 Z " fill="#89817D" transform="translate(404,698)"/>
<path d="M0 0 C6.28534266 4.84495164 10.52946118 10.4741745 15 17 C12 17 12 17 9.15234375 14.26171875 C8.07237439 13.07788057 7.00107351 11.88609003 5.9375 10.6875 C5.39544922 10.09259766 4.85339844 9.49769531 4.29492188 8.88476562 C1.97893137 6.32257588 -0.07723507 3.8841474 -2 1 C-1.34 0.67 -0.68 0.34 0 0 Z " fill="#D3CDCA" transform="translate(580,378)"/>
<path d="M0 0 C1 2 1 2 0.75 4 C0 6 0 6 -3 8 C-6.30129606 7.69050349 -7.8586563 6.46254526 -10 4 C-6.71536341 1.81024227 -3.79303725 1.00193437 0 0 Z " fill="#B0DFFC" transform="translate(562,475)"/>
<path d="M0 0 C1.2065625 0.0309375 1.2065625 0.0309375 2.4375 0.0625 C2.7675 2.3725 3.0975 4.6825 3.4375 7.0625 C1.0625 7.6875 1.0625 7.6875 -1.5625 8.0625 C-3.5625 6.0625 -3.5625 6.0625 -3.75 3.5 C-3.4919783 0.14571793 -3.38163728 0.08247896 0 0 Z " fill="#4F4B4A" transform="translate(328.5625,591.9375)"/>
<path d="M0 0 C3.68754757 0.49831724 5.60490662 1.10067643 8 4 C7.34 4 6.68 4 6 4 C5.67 4.66 5.34 5.32 5 6 C4.46375 5.814375 3.9275 5.62875 3.375 5.4375 C0.38009386 4.88580676 -2.03745829 5.39402556 -5 6 C-5 4.68 -5 3.36 -5 2 C-3.35 2 -1.7 2 0 2 C0 1.34 0 0.68 0 0 Z " fill="#36322F" transform="translate(463,535)"/>
<path d="M0 0 C1.4540625 0.0309375 1.4540625 0.0309375 2.9375 0.0625 C1.9475 3.0325 0.9575 6.0025 -0.0625 9.0625 C-0.3925 8.4025 -0.7225 7.7425 -1.0625 7.0625 C-2.0525 6.7325 -3.0425 6.4025 -4.0625 6.0625 C-4.105221 4.39638095 -4.10313832 2.72867115 -4.0625 1.0625 C-3.0625 0.0625 -3.0625 0.0625 0 0 Z " fill="#2A2726" transform="translate(335.0625,589.9375)"/>
<path d="M0 0 C-0.99 0.33 -1.98 0.66 -3 1 C3.6 1 10.2 1 17 1 C17.33 1.66 17.66 2.32 18 3 C8.76 3 -0.48 3 -10 3 C-10 2.34 -10 1.68 -10 1 C-3.71428571 -1.42857143 -3.71428571 -1.42857143 0 0 Z " fill="#726E6A" transform="translate(423,231)"/>
<path d="M0 0 C3.3 0 6.6 0 10 0 C9.67 1.98 9.34 3.96 9 6 C5.06326356 4.68775452 2.77280706 3.08089673 0 0 Z " fill="#A8958E" transform="translate(372,660)"/>
<path d="M0 0 C2.375 0.1875 2.375 0.1875 5 1 C6.59660706 3.88909849 7 5.69058796 7 9 C6.34 9 5.68 9 5 9 C3.66666667 7.66666667 2.33333333 6.33333333 1 5 C0.01 4.67 -0.98 4.34 -2 4 C-1.34 2.68 -0.68 1.36 0 0 Z " fill="#AA9891" transform="translate(538,645)"/>
<path d="M0 0 C0.33 0 0.66 0 1 0 C1 7.59 1 15.18 1 23 C0.01 23 -0.98 23 -2 23 C-1.34 15.41 -0.68 7.82 0 0 Z " fill="#928B86" transform="translate(601,428)"/>
<path d="M0 0 C7.59 0.33 15.18 0.66 23 1 C22.67 2.32 22.34 3.64 22 5 C22 4.01 22 3.02 22 2 C20.54077307 2.11409593 19.08259402 2.24165544 17.625 2.375 C16.81289063 2.44460938 16.00078125 2.51421875 15.1640625 2.5859375 C12.79665809 2.82892588 12.79665809 2.82892588 11 5 C10.67 4.01 10.34 3.02 10 2 C8.3603125 2.061875 8.3603125 2.061875 6.6875 2.125 C3 2 3 2 0 0 Z " fill="#574E4A" transform="translate(360,658)"/>
<path d="M0 0 C1.98 0.495 1.98 0.495 4 1 C4 2.65 4 4.3 4 6 C4.66 6.33 5.32 6.66 6 7 C3.69 7.33 1.38 7.66 -1 8 C-0.67 5.36 -0.34 2.72 0 0 Z " fill="#B89B91" transform="translate(394,578)"/>
<path d="M0 0 C0.66 0.33 1.32 0.66 2 1 C2 1.66 2 2.32 2 3 C1.01 3.495 1.01 3.495 0 4 C-1.13350534 6.01669827 -1.13350534 6.01669827 -2 8 C-5.67420866 7.69381595 -6.78135513 7.24228216 -9.3125 4.4375 C-9.869375 3.633125 -10.42625 2.82875 -11 2 C-8.03 2.99 -5.06 3.98 -2 5 C-1.34 3.35 -0.68 1.7 0 0 Z " fill="#AEA6A1" transform="translate(452,333)"/>
<path d="M0 0 C2.4400119 0.84763466 4.66374933 1.87859968 7 3 C6.67 3.99 6.34 4.98 6 6 C5.01 5.525625 4.02 5.05125 3 4.5625 C-0.99189495 2.83186252 -4.68114582 2.37884686 -9 2 C-5.44991683 -0.36672211 -4.18610811 -0.4025104 0 0 Z " fill="#BDB5AF" transform="translate(435,228)"/>
<path d="M0 0 C6.43681228 0.51085812 11.95942424 1.72942897 18 4 C14.681572 5.659214 11.60735024 4.57259528 8 4 C7.67 3.67 7.34 3.34 7 3 C4.67182036 2.63239269 2.3381615 2.29758419 0 2 C0 1.34 0 0.68 0 0 Z " fill="#89837F" transform="translate(457,589)"/>
<path d="M0 0 C0.99 0.33 1.98 0.66 3 1 C2.49701212 5.40114397 0.91227269 7.71195019 -2 11 C-2.28571429 3.57142857 -2.28571429 3.57142857 0 0 Z " fill="#32302E" transform="translate(299,321)"/>
<path d="M0 0 C2.0625 0.4375 2.0625 0.4375 4 1 C3.67 2.65 3.34 4.3 3 6 C1.68 6 0.36 6 -1 6 C-1.042721 4.33388095 -1.04063832 2.66617115 -1 1 C-0.67 0.67 -0.34 0.34 0 0 Z " fill="#66605D" transform="translate(400,619)"/>
<path d="M0 0 C0.66 0 1.32 0 2 0 C2.33 2.97 2.66 5.94 3 9 C2.01 9.33 1.02 9.66 0 10 C0 6.7 0 3.4 0 0 Z " fill="#C8C5C2" transform="translate(498,710)"/>
<path d="M0 0 C1.65 0 3.3 0 5 0 C5.66 1.32 6.32 2.64 7 4 C4.69 4 2.38 4 0 4 C0 2.68 0 1.36 0 0 Z " fill="#BBB6B3" transform="translate(502,591)"/>
<path d="M0 0 C0.33 0.66 0.66 1.32 1 2 C-4.29230769 6.06153846 -4.29230769 6.06153846 -7.875 5.75 C-8.57625 5.5025 -9.2775 5.255 -10 5 C-9 3 -9 3 -6.93359375 2.1484375 C-5.69802734 1.76558594 -5.69802734 1.76558594 -4.4375 1.375 C-3.61121094 1.11460937 -2.78492188 0.85421875 -1.93359375 0.5859375 C-1.29550781 0.39257812 -0.65742187 0.19921875 0 0 Z " fill="#4C4541" transform="translate(525,540)"/>
<path d="M0 0 C0.33 0 0.66 0 1 0 C1 4.62 1 9.24 1 14 C0.67 14 0.34 14 0 14 C-0.33 11.36 -0.66 8.72 -1 6 C-1.99 6.66 -2.98 7.32 -4 8 C-2.87548273 5.0280615 -1.77706209 2.66559313 0 0 Z " fill="#9B8A84" transform="translate(573,489)"/>
<path d="M0 0 C0.99386719 0.00902344 1.98773438 0.01804688 3.01171875 0.02734375 C4.15060547 0.04474609 4.15060547 0.04474609 5.3125 0.0625 C5.3125 0.3925 5.3125 0.7225 5.3125 1.0625 C3.0025 1.3925 0.6925 1.7225 -1.6875 2.0625 C-1.6875 2.3925 -1.6875 2.7225 -1.6875 3.0625 C-4.6575 3.0625 -7.6275 3.0625 -10.6875 3.0625 C-7.3968001 -0.2281999 -4.43626547 -0.05219136 0 0 Z " fill="#353330" transform="translate(428.6875,229.9375)"/>
<path d="M0 0 C2.31 0.33 4.62 0.66 7 1 C6.67 1.99 6.34 2.98 6 4 C4.35 4 2.7 4 1 4 C0.67 2.68 0.34 1.36 0 0 Z " fill="#BDB9B6" transform="translate(438,597)"/>
<path d="M0 0 C3.94120709 0.56302958 6.7508723 1.6791945 10 4 C10 4.66 10 5.32 10 6 C5.96825194 5.72510809 4.43105369 5.46508424 1.625 2.4375 C0.820625 1.2309375 0.820625 1.2309375 0 0 Z " fill="#3F3C39" transform="translate(482,313)"/>
<path d="M0 0 C0.33 0 0.66 0 1 0 C1.33 2.64 1.66 5.28 2 8 C3.65 8 5.3 8 7 8 C6.34 8.66 5.68 9.32 5 10 C3.35 10 1.7 10 0 10 C0 6.7 0 3.4 0 0 Z " fill="#716D69" transform="translate(491,713)"/>
<path d="M0 0 C3.3 0 6.6 0 10 0 C8.515 1.485 8.515 1.485 7 3 C3.3125 2.6875 3.3125 2.6875 0 2 C0 1.34 0 0.68 0 0 Z " fill="#998983" transform="translate(477,582)"/>
<path d="M0 0 C0.66 0.33 1.32 0.66 2 1 C2 2.98 2 4.96 2 7 C1.01 7.33 0.02 7.66 -1 8 C-1.04241723 5.66705225 -1.04092937 3.33297433 -1 1 C-0.67 0.67 -0.34 0.34 0 0 Z " fill="#BEBAB7" transform="translate(414,604)"/>
<path d="M0 0 C1.98 0.495 1.98 0.495 4 1 C3.67 2.32 3.34 3.64 3 5 C1.68 4.67 0.36 4.34 -1 4 C-0.67 2.68 -0.34 1.36 0 0 Z " fill="#BBB6B3" transform="translate(422,604)"/>
<path d="M0 0 C3.4375 0.8125 3.4375 0.8125 7 2 C7.33 2.99 7.66 3.98 8 5 C5.36 4.34 2.72 3.68 0 3 C0 2.01 0 1.02 0 0 Z " fill="#252321" transform="translate(477,312)"/>
<path d="M0 0 C2.31 0 4.62 0 7 0 C7 0.99 7 1.98 7 3 C5.02 3 3.04 3 1 3 C0.67 2.01 0.34 1.02 0 0 Z " fill="#7A7470" transform="translate(424,699)"/>
<path d="M0 0 C-5.41538462 4.06153846 -5.41538462 4.06153846 -8.375 3.75 C-8.91125 3.5025 -9.4475 3.255 -10 3 C-3.375 -1.125 -3.375 -1.125 0 0 Z " fill="#423F3C" transform="translate(324,301)"/>
<path d="M0 0 C3.68754757 0.49831724 5.60490662 1.10067643 8 4 C7.34 4 6.68 4 6 4 C5.67 4.66 5.34 5.32 5 6 C4.01 5.34 3.02 4.68 2 4 C2 3.34 2 2.68 2 2 C1.34 1.34 0.68 0.68 0 0 Z " fill="#4C4541" transform="translate(463,535)"/>
<path d="M0 0 C0.66 0.33 1.32 0.66 2 1 C1.67 2.98 1.34 4.96 1 7 C-0.32 7.33 -1.64 7.66 -3 8 C-2.45276317 4.62537285 -1.9451 2.91765 0 0 Z " fill="#413E3B" transform="translate(265,394)"/>
<path d="M0 0 C2 1.25 2 1.25 4 3 C4 4.32 4 5.64 4 7 C2.0625 6.25 2.0625 6.25 0 5 C-0.8125 2.9375 -0.8125 2.9375 -1 1 C-0.67 0.67 -0.34 0.34 0 0 Z " fill="#C2BAB6" transform="translate(595,393)"/>
<path d="M0 0 C2 1 2 1 3.1875 3.3125 C4.03624754 6.11989571 3.99928333 7.301935 3 10 C3 9.01 3 8.02 3 7 C2.34 7 1.68 7 1 7 C0.67 4.69 0.34 2.38 0 0 Z " fill="#A9A6A3" transform="translate(497,703)"/>
<path d="M0 0 C2.97 0.33 5.94 0.66 9 1 C8.67 1.66 8.34 2.32 8 3 C5.6568787 2.74438677 3.32156597 2.40729228 1 2 C0.67 1.34 0.34 0.68 0 0 Z " fill="#706B68" transform="translate(432,703)"/>
<path d="M0 0 C1.98 0 3.96 0 6 0 C5.01 0.33 4.02 0.66 3 1 C3 3.31 3 5.62 3 8 C1.58622659 5.36095629 0.62759865 2.92879371 0 0 Z " fill="#827C77" transform="translate(479,698)"/>
<path d="M0 0 C1.32 0.33 2.64 0.66 4 1 C3.67 2.32 3.34 3.64 3 5 C2.01 5 1.02 5 0 5 C0 3.35 0 1.7 0 0 Z " fill="#BDB9B5" transform="translate(497,593)"/>
<path d="M0 0 C0.99 0.33 1.98 0.66 3 1 C3 2.32 3 3.64 3 5 C1.68 5 0.36 5 -1 5 C-0.67 3.35 -0.34 1.7 0 0 Z " fill="#BDB8B5" transform="translate(430,592)"/>
<path d="M0 0 C-3 2 -3 2 -7 2 C-7.33 2.66 -7.66 3.32 -8 4 C-8.66 3.01 -9.32 2.02 -10 1 C-6.78548731 -0.60725635 -3.56387464 -0.05748185 0 0 Z " fill="#5E504B" transform="translate(395,577)"/>
<path d="M0 0 C1.32 0 2.64 0 4 0 C3.67 1.32 3.34 2.64 3 4 C2.01 4 1.02 4 0 4 C-0.99 4.66 -1.98 5.32 -3 6 C-2 4 -1 2 0 0 Z " fill="#403D3A" transform="translate(381,308)"/>
<path d="M0 0 C2.88437779 1.29299694 4.87219421 2.65941363 7 5 C5.68 5.33 4.36 5.66 3 6 C0 2.25 0 2.25 0 0 Z " fill="#46403C" transform="translate(363,672)"/>
</svg>
